<?xml version="1.0" encoding="utf-8"?>
<!-- Generator: Adobe Illustrator 24.0.1, SVG Export Plug-In . SVG Version: 6.00 Build 0)  -->
<svg version="1.1"
	 id="Ebene_2" xmlns:cc="http://creativecommons.org/ns#" xmlns:dc="http://purl.org/dc/elements/1.1/" xmlns:rdf="http://www.w3.org/1999/02/22-rdf-syntax-ns#"
	 xmlns="http://www.w3.org/2000/svg" xmlns:xlink="http://www.w3.org/1999/xlink" x="0px" y="0px" viewBox="0 0 261.1 139.5"
	 style="enable-background:new 0 0 261.1 139.5;" xml:space="preserve">
<g>
	<path style="fill:#FFFFFF;" d="M225.4,47.3c-1.2-1.3-3.1-2-5.8-2c-2.3,0-4.1,0.5-5.4,1.6c-1.4,1.1-2.2,2.8-2.5,5.2
		c-0.3,2.4-0.5,7-0.5,13.9c0,6.8,0.1,11.3,0.4,13.5c0.3,2.2,1,4,2.3,5.3c1.2,1.3,3.1,2,5.8,2c2.2,0,4-0.5,5.3-1.6
		c1.4-1.1,2.2-2.8,2.6-5.1c0.3-2.4,0.5-7,0.5-14c0-6.8-0.1-11.3-0.4-13.5C227.3,50.3,226.5,48.6,225.4,47.3z"/>
	<path style="fill:#FFFFFF;" d="M160.8,47.1c-1.6-0.8-3.5-1.2-5.9-1.2h-6.1v40.2h3.9c6,0,9.7-1.6,10.9-4.7c1.3-3.2,1.9-8.6,1.9-16.2
		c0-6-0.4-10.3-1.2-12.9C163.6,49.6,162.4,47.9,160.8,47.1z"/>
	<path style="fill:#FFFFFF;" d="M61.1,27.4v82.3h200V27.4H61.1z M107.2,85.6c-3.3,2.3-7.6,3.5-13,3.5c-4.7,0-8.3-0.9-10.9-2.8
		c-2.6-1.9-3.8-4-3.8-6.4c0-1.6,0.6-2.9,1.7-3.8c1.1-1,2.5-1.5,4.1-1.5c1.5,0,2.8,0.4,3.9,1.3c1.1,0.9,1.6,2,1.6,3.4
		c0,1.9-1.2,3.4-3.7,4.7c-0.5,0.2-0.7,0.5-0.7,0.8c0,0.6,0.7,1.1,2.1,1.5c1.4,0.4,2.8,0.6,4.3,0.6c4.8,0,7.2-3.5,7.2-10.6
		c0-7-2.9-10.5-8.7-10.5L86.5,66c-1,0-1.5-0.4-1.5-1.1c0-0.8,0.5-1.2,1.5-1.2l3.5,0.1c3.6,0,5.9-0.8,7.2-2.4
		c1.2-1.6,1.8-3.8,1.8-6.8c0-3-0.5-5.2-1.4-6.6c-0.9-1.4-2.5-2.1-4.7-2.1c-1.2,0-2.3,0.2-3.4,0.6c-1.1,0.4-1.6,0.8-1.6,1.2
		c0,0.4,0.3,0.8,1,1.2c1.8,1.2,2.8,2.4,2.8,3.8c0,1.3-0.5,2.4-1.5,3.2c-1,0.8-2.2,1.2-3.5,1.2c-1.5,0-2.8-0.5-4-1.4
		c-1.2-0.9-1.7-2-1.7-3.4c0-2.3,1.3-4.3,3.9-6c2.6-1.7,5.9-2.5,10-2.5c4.5,0,8.3,1,11.3,2.8c3.1,1.9,4.6,4.3,4.6,7.3
		c0,5.8-5.4,9.4-16.3,10.6v0.1c6,0.1,10.5,1.3,13.3,3.6c2.9,2.3,4.3,5,4.3,8.3C112.1,80.2,110.5,83.2,107.2,85.6z M177.4,74.8
		c-1.3,2.9-3.3,5.5-6,7.9c-2.7,2.4-5.5,3.9-8.3,4.6c-2.8,0.7-6.3,1-10.5,1h-22.3v-2.2h6.3v0V45.9h-6.3v-2.2h25.3
		c7.3,0,13.1,2.1,17.4,6.2c4.3,4.1,6.4,9.4,6.4,15.7C179.3,68.9,178.7,72,177.4,74.8z M235.4,82.6c-4.3,4.2-9.5,6.2-15.6,6.2
		c-6.7,0-12.1-2.2-16.2-6.6c-4.2-4.4-6.3-9.9-6.3-16.4c0-6.7,2.2-12.1,6.6-16.4c4.4-4.2,9.7-6.4,15.8-6.4c5.7,0,10.8,2,15.3,6
		c4.5,4,6.8,9.7,6.8,17C241.8,73,239.7,78.5,235.4,82.6z"/>
</g>
<g>
	<path style="fill:#FFFFFF;" d="M17.1,72.8c-8,0-14.5,6.5-14.5,14.6c0,8,6.5,14.6,14.5,14.6c8,0,14.5-6.5,14.5-14.6
		C31.6,79.3,25.1,72.8,17.1,72.8z"/>
	<path style="fill:#FFFFFF;" d="M30.6,49.4c-2.1-1.4-13.5-2.3-13.5-2.3S5.7,48,3.6,49.4c-2.1,1.4-2.7,9.7-2.7,9.7s0.6,8.3,2.7,9.7
		c2.1,1.4,13.5,2.3,13.5,2.3s11.4-0.9,13.5-2.3c2.1-1.4,2.7-9.7,2.7-9.7S32.8,50.8,30.6,49.4z"/>
	<polygon style="fill:#FFFFFF;" points="34.1,29.1 17.1,12.1 0.1,29.1 17.1,46.2 	"/>
	<path style="fill:#FFFFFF;" d="M17.1,113.9c-9.4,0-17.1,1.3-17.1,3c0,1.7,7.6,3,17.1,3c9.4,0,17.1-1.3,17.1-3
		C34.2,115.2,26.5,113.9,17.1,113.9z"/>
</g>
</svg>
