<?xml version="1.0" encoding="utf-8"?>
<!-- Generator: Adobe Illustrator 24.0.1, SVG Export Plug-In . SVG Version: 6.00 Build 0)  -->
<svg version="1.1"
	 id="Layer_3" xmlns:cc="http://creativecommons.org/ns#" xmlns:dc="http://purl.org/dc/elements/1.1/" xmlns:rdf="http://www.w3.org/1999/02/22-rdf-syntax-ns#"
	 xmlns="http://www.w3.org/2000/svg" xmlns:xlink="http://www.w3.org/1999/xlink" x="0px" y="0px" viewBox="0 0 580.4 243.6"
	 style="enable-background:new 0 0 580.4 243.6;" xml:space="preserve">
<g>
	<path style="fill:#FFFFFF;" d="M258,106.4h-20c-5.3,0-9.7,4.3-9.7,9.7c0,5.3,4.3,9.7,9.7,9.7h20c5.3,0,9.7-4.3,9.7-9.7
		C267.7,110.8,263.3,106.4,258,106.4z M264.8,116.1c0,3.7-3,6.8-6.8,6.8h-20c-3.7,0-6.8-3-6.8-6.8s3-6.8,6.8-6.8h20
		C261.7,109.3,264.8,112.4,264.8,116.1z"/>
	<path style="fill:#FFFFFF;" d="M531.3,43.2l-0.6-0.4C512.1,30.3,480.4,19.6,439,12C396.7,4.1,347.1,0,295.6,0h-10.7
		c-51.5,0-101.1,4.1-143.4,12C100,19.6,68.3,30.3,49.7,42.8l-0.6,0.4v0C18.4,63.5,0,97.6,0,134.4c0,60.2,49,109.2,109.2,109.2
		c15.3,0,30-3.1,43.9-9.2l0,0l0.1,0c1-0.5,2-0.9,3.1-1.4l0.1,0c0.5-0.2,0.9-0.5,1.4-0.7c35.4-16.9,75.3-26.2,118.6-27.7v4.9h27.8
		v-4.9c13.9,0.5,27.4,1.7,40.5,3.8c5.4,6.8,13.4,10.6,22.1,10.6c4.4,0,8.8-1,12.7-3c15.1,4.3,29.5,9.7,43.3,16.3
		c0.5,0.2,0.9,0.5,1.4,0.7l0.1,0.1c14.7,7,30.5,10.6,47,10.6c60.2,0,109.2-49,109.2-109.2C580.4,97.6,562.1,63.5,531.3,43.2z
		 M291.6,201.4h-2.7c-41.2,0-79.4,6.8-113.9,20.3c27-20.4,43.5-52.5,43.5-87.3c0-60.1-48.7-108.9-108.7-109.2l-0.5,0
		c-4.9,0-9.8,0.3-14.6,1c13.8-4.3,29.7-8.1,47.4-11.4C184.1,7,233.5,2.9,284.9,2.9l10.6,0c51.3,0,100.7,4.1,142.9,11.9
		c17.7,3.3,33.5,7.1,47.3,11.3c-4.8-0.6-9.6-1-14.5-1h-0.3l0,0C410.8,25.4,362,74.3,362,134.4c0,34.8,16.6,67,43.6,87.3
		C371,208.2,332.8,201.4,291.6,201.4z M155,230.4l-0.3,0.1c-14.3,6.8-29.6,10.2-45.5,10.2C50.6,240.7,2.9,193,2.9,134.4
		c0-35.9,17.9-69.1,48-88.9l0.4-0.3c0.9-0.6,1.8-1.2,2.8-1.8l0,0l0.4-0.3c16.5-9.9,35.4-15.1,54.7-15.1
		c58.6,0,106.3,47.7,106.3,106.3c0,40.3-22.9,77.1-58.6,95C156.3,229.8,155.6,230.1,155,230.4z M427.4,231.3
		c-0.6-0.3-1.3-0.6-1.9-0.9c0,0,0,0,0,0l0,0c-36.9-17.6-60.6-55-60.6-96c0-58.6,47.7-106.3,106.3-106.3c19.4,0,38.3,5.2,54.7,15.1
		l0,0c1.1,0.7,2.1,1.3,3.1,2l0.5,0.3c30,19.8,48,53,48,88.9c0,58.6-47.7,106.3-106.3,106.3C455.9,240.7,441.2,237.6,427.4,231.3z
		 M279.2,204.4c3.2-0.1,6.4-0.1,9.6-0.1h2.7c3.2,0,6.4,0,9.6,0.1v2.1h-22V204.4z M374.9,214.7c-2.6,0.9-5.4,1.3-8.2,1.3
		c-6.6,0-12.8-2.5-17.4-6.9C358,210.7,366.5,212.5,374.9,214.7z"/>
	<path style="fill:#FFFFFF;" d="M342.4,106.4h-20c-5.3,0-9.7,4.3-9.7,9.7c0,5.3,4.3,9.7,9.7,9.7h20c5.3,0,9.7-4.3,9.7-9.7
		C352.1,110.8,347.8,106.4,342.4,106.4z M349.2,116.1c0,3.7-3,6.8-6.8,6.8h-20c-3.7,0-6.8-3-6.8-6.8s3-6.8,6.8-6.8h20
		C346.2,109.3,349.2,112.4,349.2,116.1z"/>
	<path style="fill:#FFFFFF;" d="M130.3,64.2l-1,0v0c-26.1,0.3-47.3,21.6-47.3,47.8c0,26.4,21.5,47.8,47.8,47.8
		c26.4,0,47.8-21.5,47.8-47.8C177.6,85.8,156.4,64.4,130.3,64.2z M116.4,69.1v28c0,0.9-0.2,1.2-0.3,1.2c-0.1,0.1-0.5,0.4-1.6,0.4
		c0,0,0,0,0,0H86.9C89,91.8,92.8,85.5,98,80.2C103.2,75,109.6,71.2,116.4,69.1z M114.8,125.3c0.8,0,1.1,0.2,1.3,0.4
		c0.1,0.2,0.4,0.6,0.4,1.5v27.7c-6.9-2.1-13.2-5.9-18.4-11.2c-5.2-5.2-9-11.5-11.2-18.4H114.8z M143.1,154.9v-27.7
		c0-0.7,0.1-1.3,0.4-1.5c0.3-0.3,0.7-0.4,1.4-0.4h27.7c-2.1,6.9-5.9,13.2-11.2,18.4C156.3,149,150,152.8,143.1,154.9z M145,98.7
		c-0.8,0-1.3-0.1-1.6-0.4c-0.2-0.2-0.4-0.6-0.4-1.2V69.1c6.9,2.1,13.2,5.9,18.4,11.2c5.2,5.2,9,11.6,11.2,18.4H145z M141.4,100.3
		c0.8,0.8,2.1,1.3,3.6,1.3h28.4c0.8,3.4,1.2,6.9,1.2,10.4c0,3.6-0.4,7.1-1.2,10.4l-28.5,0c0,0,0,0,0,0c-1.5,0-2.7,0.4-3.5,1.3
		c-0.8,0.8-1.3,2-1.3,3.6v28.4c-3.4,0.8-6.9,1.2-10.4,1.2c-3.6,0-7.1-0.4-10.4-1.2v-28.5c0-1.4-0.4-2.6-1.1-3.4
		c-0.8-0.9-2-1.3-3.4-1.4H86.1c-0.8-3.4-1.2-6.9-1.2-10.4c0-3.6,0.4-7.1,1.2-10.4h28.5c1.6,0,2.7-0.4,3.6-1.1
		c0.8-0.8,1.3-1.9,1.3-3.4V68.3c3.4-0.8,6.9-1.2,10.4-1.2c3.6,0,7.1,0.4,10.4,1.2V97C140.2,98.4,140.6,99.5,141.4,100.3z"/>
	<path style="fill:#FFFFFF;" d="M129.8,101.2c-5.9,0-10.8,4.8-10.8,10.8c0,5.9,4.8,10.7,10.8,10.7c5.9,0,10.8-4.8,10.8-10.7
		C140.5,106.1,135.7,101.2,129.8,101.2z M137.6,112c0,4.3-3.5,7.8-7.9,7.8s-7.9-3.5-7.9-7.8c0-4.3,3.5-7.9,7.9-7.9
		S137.6,107.7,137.6,112z"/>
	<path style="fill:#FFFFFF;" d="M177.6,64.2c-12.8-12.8-29.7-19.8-47.8-19.8c-37.3,0-67.6,30.3-67.6,67.6
		c0,37.3,30.3,67.6,67.6,67.6s67.6-30.3,67.6-67.6C197.4,94,190.4,77,177.6,64.2z M194.5,112c0,35.7-29,64.7-64.7,64.7
		c-35.7,0-64.7-29-64.7-64.7c0-35.7,29-64.7,64.7-64.7C165.5,47.3,194.5,76.3,194.5,112z"/>
	<path style="fill:#FFFFFF;" d="M415.7,125.2c-13.8,0-25.1,11.3-25.1,25.1c0,13.8,11.3,25.1,25.1,25.1c13.8,0,25.1-11.3,25.1-25.1
		C440.7,136.4,429.5,125.2,415.7,125.2z M437.8,150.3c0,12.2-9.9,22.2-22.2,22.2c-12.2,0-22.2-10-22.2-22.2
		c0-12.2,10-22.2,22.2-22.2C427.9,128.1,437.8,138,437.8,150.3z"/>
	<path style="fill:#FFFFFF;" d="M484.4,112c0-13.8-11.3-25.1-25.1-25.1s-25.1,11.3-25.1,25.1s11.3,25.1,25.1,25.1
		S484.4,125.8,484.4,112z M481.5,112c0,12.2-9.9,22.2-22.2,22.2s-22.2-9.9-22.2-22.2s9.9-22.2,22.2-22.2S481.5,99.7,481.5,112z"/>
	<path style="fill:#FFFFFF;" d="M511.3,109.6c13.8,0,25.1-11.3,25.1-25.1c0-13.8-11.3-25.1-25.1-25.1c-13.8,0-25.1,11.3-25.1,25.1
		C486.2,98.4,497.4,109.6,511.3,109.6z M489.1,84.5c0-12.2,10-22.2,22.2-22.2s22.2,9.9,22.2,22.2c0,12.2-9.9,22.2-22.2,22.2
		C499,106.7,489.1,96.8,489.1,84.5z"/>
</g>
</svg>
