<?xml version="1.0" encoding="utf-8"?>
<!-- Generator: Adobe Illustrator 24.0.1, SVG Export Plug-In . SVG Version: 6.00 Build 0)  -->
<svg version="1.1"
	 id="Layer_3" xmlns:cc="http://creativecommons.org/ns#" xmlns:dc="http://purl.org/dc/elements/1.1/" xmlns:rdf="http://www.w3.org/1999/02/22-rdf-syntax-ns#"
	 xmlns="http://www.w3.org/2000/svg" xmlns:xlink="http://www.w3.org/1999/xlink" x="0px" y="0px" viewBox="0 0 412 372"
	 style="enable-background:new 0 0 412 372;" xml:space="preserve">
<g>
	<path style="fill:#FFFFFF;" d="M110.4,163.7v154.5c0,11.3,9.2,20.6,20.6,20.6h152.8c10.7,0,19.5-8.2,20.4-18.8h0.1V163.7
		c0-11.3-9.2-20.6-20.6-20.6H131C119.7,143.2,110.4,152.4,110.4,163.7z M283.8,146.7c9.4,0,17,7.6,17,17v154.5c0,9.4-7.6,17-17,17
		H131c-9.4,0-17-7.6-17-17V163.7c0-4.6,1.8-8.8,5-12c3.2-3.2,7.5-5,12-5H283.8z"/>
	<path style="fill:#FFFFFF;" d="M324.5,90.7c0-24.6-20-44.7-44.7-44.7c-1.1,0-2.1,0.1-3.2,0.1V46h-58.9v-5.9l-3.4,0V39h3v-9h-3v-1.2
		h2.6v-9H198v9h2.5V30h-3v9h3v1.2l-3.4,0V46H136c-0.3,0-0.7,0-1,0c-24.3,0-44.1,19.5-44.6,43.6l0,0V315c0,24.6,20,44.7,44.7,44.7
		h144.9c24.6,0,44.7-20,44.7-44.7V91.5h0C324.5,91.2,324.5,90.9,324.5,90.7z M201.6,23.3h11.9v1.9h-11.9V23.3z M210.9,28.8V30h-6.7
		v-1.2H210.9z M201.2,33.5h12.7v1.9h-12.7V33.5z M210.9,39v1.2l-6.7,0V39H210.9z M200.7,43.7h13.5V46h-13.5V43.7z M262.4,49.6
		c-0.1,0-0.1,0.1-0.2,0.1H152.7c-0.1,0-0.1-0.1-0.2-0.1H262.4z M255.6,53.2c-12.3,8-20.4,21.8-20.4,37.5c0,24.6,20,44.7,44.7,44.7
		c15.9,0,29.8-8.3,37.7-20.8v199.1c0,21.1-17.2,38.3-38.3,38.3H135.5c-21.1,0-38.3-17.2-38.3-38.3V114.5
		c7.9,12.5,21.9,20.8,37.8,20.8c24.6,0,44.7-20,44.7-44.7c0-15.7-8.1-29.5-20.4-37.5H255.6z M93.8,90.6c0-22.7,18.5-41.1,41.1-41.1
		c0.1,0,0.2,0,0.3,0v0h0.6c5.6,0.1,10.9,1.4,15.8,3.5v0.1h0.2c14.2,6.5,24.2,20.8,24.2,37.5c0,22.7-18.5,41.1-41.1,41.1
		c-16.9,0-31.4-10.2-37.8-24.8v-0.5H97c-0.5-1.2-0.9-2.4-1.3-3.7l0-3.5l-0.5,1.8C94.3,97.9,93.9,94.3,93.8,90.6L93.8,90.6z
		 M279.9,356.2H135c-21.3,0-38.9-16.3-40.9-37.2c2.7,20.5,20.2,36.4,41.4,36.4h143.8c21.2,0,38.8-15.9,41.5-36.4
		C318.8,339.8,301.2,356.2,279.9,356.2z M317.8,106.6h-0.2v0.4c-6.3,14.6-20.9,24.8-37.7,24.8c-22.7,0-41.1-18.5-41.1-41.1
		c0-16.6,9.9-31,24.2-37.5h0.3v-0.1c5.1-2.3,10.7-3.5,16.6-3.5c22.7,0,41.1,18.5,41.1,41.1C321,96.3,319.8,101.7,317.8,106.6z"/>
	<path style="fill:#FFFFFF;" d="M146.8,256.9c0,33.4,27.2,60.6,60.6,60.6c33.4,0,60.6-27.2,60.6-60.6s-27.2-60.6-60.6-60.6
		C174,196.3,146.8,223.5,146.8,256.9z M207.4,199.8c31.5,0,57.1,25.6,57.1,57.1c0,31.5-25.6,57.1-57.1,57.1
		c-31.5,0-57.1-25.6-57.1-57.1C150.3,225.5,175.9,199.8,207.4,199.8z"/>
	<path style="fill:#FFFFFF;" d="M207.4,300.7c24.1,0,43.8-19.6,43.8-43.8c0-24.1-19.6-43.8-43.8-43.8c-24.1,0-43.8,19.6-43.8,43.8
		C163.7,281.1,183.3,300.7,207.4,300.7z M179,228.5c7.6-7.6,17.7-11.8,28.4-11.8c22.2,0,40.2,18,40.2,40.2c0,22.2-18,40.2-40.2,40.2
		c-22.2,0-40.2-18-40.2-40.2C167.2,246.2,171.4,236.1,179,228.5z"/>
	<path style="fill:#FFFFFF;" d="M122.4,165.8l0,42.1c0,4.1,3.4,7.5,7.5,7.5v-1l0.1,1l0.2,0c3.2,0,4.6-1.2,5.7-2.1l3.8-3.1h-0.6
		l37.8-37.8c0.6-0.6,2.7-2.9,2.8-6.6c0-4.1-3.4-7.5-7.5-7.5h-42.1C125.7,158.3,122.4,161.7,122.4,165.8z M172,161.9
		c2.2,0,3.9,1.8,4,4c0,1-0.3,2-0.9,3c-0.2,0.4-0.5,0.7-0.6,0.8c-0.1,0.1-0.2,0.2-0.2,0.2l-0.4,0.4l0,0l-40.4,40.4l-0.3,0.2
		c-0.9,0.7-1.2,0.9-3.3,1c-2.2,0-4-1.8-4-4v-42.1c0-2.2,1.8-3.9,4-3.9H172z"/>
	<path style="fill:#FFFFFF;" d="M278.4,212.6L278.4,212.6l1.5,1.4l0,0c1.1,0.8,2.5,1.5,4.9,1.5l0.2,0c4.1,0,7.5-3.4,7.5-7.5l0-42.1
		c0-4.1-3.4-7.5-7.5-7.5h-42.1c-4.1,0-7.5,3.4-7.5,7.5c0,3.6,2.1,6,2.8,6.6L278.4,212.6z M242.9,161.9H285c2.2,0,3.9,1.8,3.9,4
		l0,42.1c0,2.2-1.8,3.9-3.9,4c-2.1,0-2.4-0.3-3.3-1l-0.3-0.2l-40.8-40.8c0,0-0.1-0.1-0.2-0.2c-0.4-0.5-1.5-1.9-1.5-3.8
		C238.9,163.7,240.7,161.9,242.9,161.9z"/>
	<path style="fill:#FFFFFF;" d="M135,123.7c18.2,0,33-14.8,33-33s-14.8-33-33-33c-18.2,0-33,14.8-33,33S116.8,123.7,135,123.7z
		 M135,61.2c16.3,0,29.5,13.2,29.5,29.5s-13.2,29.5-29.5,29.5c-16.3,0-29.5-13.2-29.5-29.5S118.7,61.2,135,61.2z"/>
	<path style="fill:#FFFFFF;" d="M279.9,57.6c-18.2,0-33,14.8-33,33s14.8,33,33,33c18.2,0,33-14.8,33-33S298.1,57.6,279.9,57.6z
		 M279.9,120.2c-16.3,0-29.5-13.2-29.5-29.5s13.2-29.5,29.5-29.5c16.3,0,29.5,13.2,29.5,29.5S296.1,120.2,279.9,120.2z"/>
</g>
</svg>
