<?xml version="1.0" encoding="utf-8"?>
<!-- Generator: Adobe Illustrator 24.0.1, SVG Export Plug-In . SVG Version: 6.00 Build 0)  -->
<svg version="1.1"
	 id="Ebene_1" xmlns:cc="http://creativecommons.org/ns#" xmlns:dc="http://purl.org/dc/elements/1.1/" xmlns:rdf="http://www.w3.org/1999/02/22-rdf-syntax-ns#"
	 xmlns="http://www.w3.org/2000/svg" xmlns:xlink="http://www.w3.org/1999/xlink" x="0px" y="0px" viewBox="0 0 566.9 169.1"
	 style="enable-background:new 0 0 566.9 169.1;" xml:space="preserve">
<g id="Layer_1">
	<g id="g5">
		<g id="g7">
			<g id="g9">
				<g id="g11" style="enable-background:new    ;">
					<g id="g13" style="enable-background:new    ;">
						<g id="g15">
							<g id="g17">
								<g id="g19">
									<path id="SVGID_1_" style="fill:#FFFFFF;" d="M252.6,83.8l3.5,5.3c-0.3-0.4-0.7-0.7-1.2-0.7c-0.5,0-1,0.3-1.2,1l-3.5-5.3
										c0.3-0.7,0.7-1,1.2-1C251.9,83.2,252.4,83.4,252.6,83.8L252.6,83.8z"/>
								</g>
							</g>
						</g>
					</g>
					<g id="g22" style="enable-background:new    ;">
						<g id="g24">
							<g id="g26">
								<g id="g28">
									<path id="SVGID_3_" style="fill:#FFFFFF;" d="M311.4,82.1l3.5,5.3c-0.2-0.3-0.4-0.4-0.7-0.4c-0.4,0-0.7,0.2-1,0.7l-3.5-5.3
										c0.2-0.5,0.6-0.7,1-0.7C311,81.7,311.3,81.8,311.4,82.1L311.4,82.1z"/>
								</g>
							</g>
						</g>
					</g>
					<g id="g31">
						<path id="path33" style="fill:#FFFFFF;" d="M314.5,63.2l29.8,0.2c0.6,0,4.7,0.7-0.5,2c-4.1,1.1-7.4,0.7-8.8,6L319,135.9
							c-1.3,5.8,3.2,10.7,9,12.3c1.3,0.3,1.4,1.7-0.2,1.8l-19.6-0.7l-23.8,0.8c-1.7,0-1.8-1.8,0.1-2.1c5.6-0.6,10.5-5.2,11.5-8.9
							L311.7,83c0-0.8-0.4-1.3-0.9-1.3c-0.4,0-0.7,0.2-1,0.7l-44,63.9c-1.2,2-3.1,3.3-4.8,3.3c-1.8,0-3.4-1.5-3.6-5.4l-4.4-59.6
							c0-0.8-0.7-1.5-1.4-1.5c-0.5,0-1,0.3-1.2,1l-15.1,47.3c-1.2,3.6-1.3,7.1,0.1,9.6c1.5,2.6,5.2,5.8,9.6,6.7
							c1.7,0.4,1.6,2.1,0,2.2l-15.8-0.7l-13.3,0.5c-1.6-0.1-1.4-1.6,0-1.9c4.6-1,9.8-5.6,12.2-12.3l19.6-62.9
							c0.8-2.4-0.5-5.2-2.9-5.8l-6.1-1.2c-1.1-0.1-1.2-1.6,0-1.6l34.7-0.3l3.5,54.8l2.5-3.1l33.1-49.2C313,65.7,314,64.1,314.5,63.2
							L314.5,63.2z"/>
					</g>
				</g>
			</g>
		</g>
		<g id="g35">
			<g id="g37">
				<g id="g39" style="enable-background:new    ;">
					<g id="g41">
						<path id="path43" style="fill:#FFFFFF;" d="M359.4,62.9l40,0.3c1.9,0,2.8,3.3-1,3.7c-4,0.4-8.2,3.2-9.2,6.6l-18.7,64.8
							c-0.9,3.4,1.6,9.2,8,9.7c1.1,0.2,1.1,1.9,0.1,1.9L355,149l-22.7,0.7c-1.2,0-0.9-1.6,0.2-1.8c3.1-0.6,12.2-4.1,13.9-9.6
							l20.9-64.7c1.3-4.7-3-6.9-7.9-8.1C358.2,65.3,358.5,63,359.4,62.9L359.4,62.9z"/>
					</g>
				</g>
			</g>
		</g>
		<g id="g45">
			<g id="g47">
				<g id="g49" style="enable-background:new    ;">
					<g id="g51">
						<path id="path53" style="fill:#FFFFFF;" d="M464.1,58.9c4.1,0,8.1,0.3,12,1.1c2.5,0.5,5.5,1.6,4.7,3.7L475,78.8
							c-0.5,1.5-1.2,2.5-2,2.5c-1.1,0-2.2-1.8-2.6-6.2c-0.2-2.4,0.2-11.2-3.1-11.4c-0.8,0-1.7-0.1-2.5-0.1c-5.4,0-10.7,0.9-15.4,2.4
							c-18.1,5.8-29.5,15.6-37.1,32.5c-7.4,16.2-3.7,33.7,1.5,39.7c3.6,4.1,11.9,6.9,18.3,6.9c3.7,0,6.8-1,7.9-3.2
							c3.5-8.3,5.1-18.5,4.8-23.2c0-5.6-2.2-6.1-6.4-6.9c-3-0.3-3.9-2.2,1.6-2.2c0.3,0,0.6,0,0.9,0c1.8,0,3.5,0,5.2,0
							c3.9,0,7.6,0,11.3,0c3.5,0,6.9,0,10.5,0c3.2,0,6.6,0,10.1-0.1c1,0.5,0.9,0.9-0.1,1.4c-6,0.9-8.4,2-8.9,4.3
							c-2.3,7.8-4.4,16.4-8.1,24.5c-1.3,2.9-7.6,5.6-9.6,6.2c-6.4,2.3-16.9,4.1-27,4.1c-8.1,0-15.8-1.2-20.8-4.2
							c-18.7-11.4-22.1-33.1-14.4-47.4C400.1,77,434.3,58.9,464.1,58.9L464.1,58.9z"/>
					</g>
				</g>
			</g>
		</g>
		<g id="g55" style="opacity:0.78;enable-background:new    ;">
			<path id="path57" style="fill:#FFFFFF;" d="M558.2,149.5v-5h-1.9v-0.7h4.5v0.7h-1.9v5L558.2,149.5L558.2,149.5z"/>
			<path id="path59" style="fill:#FFFFFF;" d="M561.5,149.5v-5.6h1.1l1.3,4c0.1,0.4,0.2,0.6,0.3,0.8c0.1-0.2,0.2-0.5,0.3-0.9
				l1.4-3.9h1v5.6h-0.7v-4.7l-1.6,4.7h-0.7l-1.6-4.8v4.8H561.5L561.5,149.5z"/>
		</g>
		<g id="Tick">
			<g id="g62">
				<polygon id="polygon79" style="fill:#FFFFFF;" points="28.5,81.4 52.4,81.4 97.3,148.5 73.6,148.5 				"/>
				<polygon id="polygon104" style="fill:#FFFFFF;" points="158.3,22 181.9,22 97.6,148.5 75,148.5 				"/>
			</g>
			<g id="g106">
				<polygon id="polygon123" style="fill:#FFFFFF;" points="0,81.4 23.9,81.4 68.8,148.5 45.1,148.5 				"/>
				<polygon id="polygon148" style="fill:#FFFFFF;" points="129.8,22 153.4,22 69.1,148.5 46.5,148.5 				"/>
			</g>
		</g>
		<g id="g150">
			<path id="path152" style="fill:#FFFFFF;" d="M154.3,119.1l-11.6,16.5c-3.5,5.4,3.1,11,10.3,12.4c0.7,0.5,0.5,2.2-0.4,2.2
				c-0.1,0-0.2,0-0.3-0.1c-0.1-0.1-2.9-1.2-9-1.8c-1.7-0.2-4.6-0.7-8.2-0.7c-1.2,0-2.6,0.1-3.9,0.2l-13,1.8c-1.2-0.1-1.2-1.5,0-1.9
				c6.3-0.8,13.8-5.5,18.3-11.8l53-73.9c0.9-1.3,2.7-2,4.6-2c2.3,0,4.5,1.2,4.5,3.9l1.7,74c0.6,6.2,4.7,8.8,10,10.3
				c0.7,0.5,0.4,1.5-0.1,1.6c-0.3,0-6.8-0.1-14.5-1.3c-1.8-0.3-3.2-0.4-4.9-0.4c-1.5,0-3.2,0.1-5.6,0.4c-3,0.3-1.6,0.4-13.9,0.9
				c-0.5,0-0.9-0.1-1-0.9c0.1-0.9,1.5-1.3,1.9-1.5c4.9-1.4,7.3-3.8,8.4-9.8c1.2-6.6,0.9-12.3,0.7-18.1 M173.4,114.7
				c2.7,0,5.2,0,7.1,0.1L179.8,84c-0.1-0.4-0.3-0.6-0.5-0.6c-0.2,0-0.4,0.1-0.5,0.4c-6.6,9.3-15.6,20.7-22.1,30c-0.4,0.7,0,1,1,1
				c0.2,0,0.7,0,1.5,0c1.4,0,3.6,0,6.1,0C167.8,114.8,170.7,114.7,173.4,114.7"/>
		</g>
		<g id="g154">
			<path id="path156" style="fill:#FFFFFF;" d="M551.4,148.4c0.7,0.5,0.4,1.5-0.1,1.6c-0.3,0-6.8-0.1-14.5-1.2
				c-1.8-0.3-3.3-0.4-5-0.4c-1.5,0-3.2,0.1-5.6,0.4c-3,0.3-1.6,0.4-13.9,0.9c-0.5,0-0.9-0.1-1-0.9c0.1-0.9,1.5-1.3,1.9-1.5
				c4.9-1.3,7.3-3.8,8.4-9.8c1.2-6.6,0.8-12.3,0.7-18.1l-26.6-0.2l-11.6,16.5c-3.4,5.4,3.1,11,10.3,12.3c0.7,0.5,0.5,2.2-0.4,2.2
				c-0.1,0-0.2,0-0.4-0.1c-0.1-0.1-2.9-1.2-9-1.8c-1.6-0.2-4.6-0.7-8.2-0.7c-1.2,0-2.6,0.1-3.9,0.2l-13,1.8c-1.2-0.1-1.2-1.6,0-1.9
				c6.3-0.8,13.8-5.5,18.3-11.8l53-73.9c0.9-1.3,2.7-2,4.6-2c2.3,0,4.5,1.2,4.5,3.9l1.7,74C542,144.3,546.2,146.9,551.4,148.4
				L551.4,148.4z M514.8,114.9c2.7,0,5.3,0,7.2,0.1l-0.7-30.8c-0.1-0.4-0.3-0.6-0.5-0.6c-0.2,0-0.4,0.1-0.5,0.4
				c-6.6,9.3-15.6,20.7-22.1,30c-0.4,0.7,0,1,1,1c0.2,0,0.9,0,2.1,0c1.4,0,3.3,0,5.5,0C509.2,114.9,512.1,114.9,514.8,114.9"/>
		</g>
	</g>
</g>
</svg>
