<?xml version="1.0" encoding="utf-8"?>
<!-- Generator: Adobe Illustrator 24.0.1, SVG Export Plug-In . SVG Version: 6.00 Build 0)  -->
<svg version="1.1"
	 id="Layer_3" xmlns:cc="http://creativecommons.org/ns#" xmlns:dc="http://purl.org/dc/elements/1.1/" xmlns:rdf="http://www.w3.org/1999/02/22-rdf-syntax-ns#"
	 xmlns="http://www.w3.org/2000/svg" xmlns:xlink="http://www.w3.org/1999/xlink" x="0px" y="0px" viewBox="0 0 598.2 350.3"
	 style="enable-background:new 0 0 598.2 350.3;" xml:space="preserve">
<g>
	<path style="fill:#FFFFFF;" d="M476.5,78.6H11.7v36.9h464.8V78.6z M473.6,81.5v31.1h-459V81.5H473.6z"/>
	<path style="fill:#FFFFFF;" d="M454.8,95.3c2.8,0,5.2-2.3,5.2-5.2c0-2.8-2.3-5.2-5.2-5.2c-2.9,0-5.2,2.3-5.2,5.2
		C449.6,93,451.9,95.3,454.8,95.3z M452.5,90.1c0-1.2,1-2.3,2.3-2.3c1.3,0,2.3,1,2.3,2.3c0,1.3-1,2.3-2.3,2.3
		C453.5,92.4,452.5,91.4,452.5,90.1z"/>
	<path style="fill:#FFFFFF;" d="M508,119.3h19.7c1,0,2.3-0.1,3.3-1.1c0.9-0.9,1.1-2.3,1.1-3.3V95.1c0-1-0.1-2.4-1.1-3.3
		c-1-1-2.3-1.1-3.3-1.1H508c-1,0-2.3,0.1-3.3,1.1c-1,1-1.1,2.3-1.1,3.3V115c0,1,0.1,2.3,1.1,3.3C505.7,119.2,507.1,119.3,508,119.3z
		 M506.6,115V95.1c0-0.9,0.2-1.2,0.2-1.2c0,0,0.3-0.2,1.3-0.2h19.7c1,0,1.2,0.2,1.3,0.2c0,0,0.2,0.3,0.2,1.2V115
		c0,1-0.2,1.2-0.2,1.3c0,0-0.2,0.2-1.3,0.2H508c-1,0-1.2-0.2-1.2-0.2C506.8,116.2,506.6,116,506.6,115z"/>
	<path style="fill:#FFFFFF;" d="M537.4,147.7h19.7c1.5,0,2.5-0.3,3.3-1.1c0.9-0.9,1.1-2.2,1.1-3.3v-19.9c0-1-0.1-2.3-1.1-3.3
		c-0.5-0.5-1.2-0.8-2.1-1c0.7-0.1,1.5-0.4,2.1-1c1-1,1.1-2.3,1.1-3.3V95.1c0-1-0.1-2.3-1.1-3.3c-0.6-0.6-1.3-0.8-2-1
		c0.7-0.1,1.4-0.4,2-1c1-1,1.1-2.3,1.1-3.3V66.7c0-1-0.1-2.3-1.1-3.3c-1-1-2.3-1.1-3.3-1.1h-19.7c-1,0-2.3,0.1-3.3,1.1
		c-0.9,0.9-1.1,2.3-1.1,3.3v19.8c0,1,0.1,2.3,1.1,3.3c0.6,0.6,1.3,0.8,2,1c-0.7,0.1-1.4,0.4-2,1c-1,1-1.1,2.3-1.1,3.3V115
		c0,1,0.1,2.3,1.1,3.3c0.6,0.6,1.3,0.9,2.1,1c-0.9,0.2-1.5,0.5-2.1,1c-0.9,0.9-1.1,2.2-1.1,3.3v19.9c0,1,0.1,2.3,1.1,3.3
		C534.9,147.4,535.9,147.7,537.4,147.7z M558.6,123.5v19.9c0,0.9-0.2,1.2-0.2,1.2c0,0-0.3,0.2-1.3,0.2h-19.7c-1,0-1.2-0.2-1.3-0.2
		c0,0-0.2-0.3-0.2-1.2v-19.9c0-0.9,0.2-1.2,0.2-1.2c0,0,0.3-0.2,1.3-0.2h19.7c1,0,1.2,0.2,1.2,0.2
		C558.4,122.3,558.6,122.5,558.6,123.5z M558.6,95.1V115c0,1-0.2,1.2-0.2,1.2c0,0-0.3,0.2-1.3,0.2h-19.7c-1,0-1.2-0.2-1.3-0.2
		c0,0-0.2-0.2-0.2-1.3V95.1c0-0.9,0.2-1.2,0.2-1.2c0,0,0.3-0.2,1.3-0.2h19.7c1,0,1.2,0.2,1.3,0.2C558.4,93.9,558.6,94.2,558.6,95.1z
		 M539.5,65.3h17.6c1,0,1.2,0.2,1.3,0.2c0,0,0.2,0.3,0.2,1.2v19.8c0,1-0.2,1.2-0.2,1.2c0,0-0.3,0.2-1.3,0.2h-19.7
		c-1,0-1.2-0.2-1.3-0.2c0,0-0.2-0.2-0.2-1.3V66.7c0-0.9,0.2-1.2,0.2-1.2c0,0,0.3-0.2,1.3-0.2L539.5,65.3L539.5,65.3z"/>
	<path style="fill:#FFFFFF;" d="M528,155.9h-19.8c-1,0-2.3,0.1-3.3,1.1c-1,1-1.1,2.3-1.1,3.3v19.8c0,1,0.1,2.3,1.1,3.3
		c1,1,2.3,1.1,3.3,1.1H528c1,0,2.3-0.1,3.3-1.1c0.7-0.7,1.1-1.8,1.1-3.3v-19.8c0-1.5-0.3-2.5-1.1-3.3C530.3,156,529,155.9,528,155.9
		z M529.5,160.2v19.8c0,1-0.2,1.2-0.2,1.3c0,0-0.3,0.2-1.2,0.2h-19.8c-0.9,0-1.2-0.2-1.2-0.2c0,0-0.2-0.3-0.2-1.3v-19.8
		c0-1,0.2-1.2,0.2-1.3c0,0,0.3-0.2,1.2-0.2H528c0.9,0,1.2,0.2,1.2,0.2C529.3,159,529.5,159.3,529.5,160.2z"/>
	<path style="fill:#FFFFFF;" d="M406,156.2h19.8c1.5,0,2.5-0.3,3.3-1.1c0.3-0.3,0.5-0.6,0.7-1c0.2,0.4,0.4,0.7,0.7,1
		c0.7,0.7,1.8,1.1,3.3,1.1h35.6c1.5,0,2.5-0.3,3.3-1.1c0.9-0.9,1.1-2.2,1.1-3.3v-19.9c0-1-0.1-2.3-1.1-3.3c-0.7-0.7-1.8-1.1-3.3-1.1
		h-35.6c-1.5,0-2.5,0.3-3.3,1.1c-0.3,0.3-0.5,0.6-0.7,1c-0.2-0.4-0.4-0.7-0.7-1c-0.7-0.7-1.8-1.1-3.3-1.1l-19.8,0
		c-1.5,0-2.5,0.3-3.3,1.1c-0.7,0.7-1.1,1.8-1.1,3.3v19.9c0,1.5,0.3,2.5,1.1,3.3C403.5,155.8,404.5,156.2,406,156.2z M404.5,151.8
		v-19.9c0-0.9,0.2-1.2,0.2-1.2c0.1-0.1,0.3-0.2,1.2-0.2h19.8c0.9,0,1.2,0.2,1.2,0.2c0.1,0.1,0.2,0.3,0.2,1.2v19.9
		c0,0.9-0.2,1.2-0.2,1.2c-0.1,0.1-0.3,0.2-1.2,0.2H406c-0.9,0-1.2-0.2-1.2-0.2C404.7,153,404.5,152.7,404.5,151.8z M470.7,151.8
		c0,0.9-0.2,1.2-0.2,1.2c0,0-0.3,0.2-1.2,0.2h-35.6c-1,0-1.2-0.2-1.3-0.2c0,0-0.2-0.3-0.2-1.2v-19.9c0-0.9,0.2-1.2,0.2-1.2
		c0,0,0.3-0.2,1.3-0.2h35.6c1,0,1.2,0.2,1.3,0.2c0,0,0.2,0.3,0.2,1.2V151.8z"/>
	<path style="fill:#FFFFFF;" d="M376.3,156.2H396c1.5,0,2.5-0.3,3.3-1.1c0.9-0.9,1.1-2.2,1.1-3.3v-19.9c0-1-0.1-2.3-1.1-3.3
		c-0.7-0.7-1.8-1.1-3.3-1.1h-19.7c-1.5,0-2.5,0.3-3.3,1.1c-0.9,0.9-1.1,2.2-1.1,3.3v19.9c0,1,0.1,2.3,1.1,3.3
		C373.7,155.8,374.8,156.2,376.3,156.2z M376.3,130.5H396c1,0,1.2,0.2,1.3,0.2c0,0,0.2,0.3,0.2,1.2v19.9c0,0.9-0.2,1.2-0.2,1.2
		c0,0-0.3,0.2-1.3,0.2h-19.7c-1,0-1.2-0.2-1.3-0.2c0,0-0.2-0.3-0.2-1.2v-19.9c0-0.9,0.2-1.2,0.2-1.2
		C375.1,130.7,375.3,130.5,376.3,130.5z"/>
	<path style="fill:#FFFFFF;" d="M346.6,156.2h19.8c1.5,0,2.5-0.3,3.3-1.1c0.9-0.9,1.1-2.2,1.1-3.3v-19.9c0-1-0.1-2.3-1.1-3.3
		c-0.7-0.7-1.8-1.1-3.3-1.1h-19.8c-1.5,0-2.5,0.3-3.3,1.1c-0.9,0.9-1.1,2.2-1.1,3.3v19.9c0,1,0.1,2.3,1.1,3.3
		C344,155.8,345.1,156.2,346.6,156.2z M346.6,130.5h19.8c0.9,0,1.2,0.2,1.2,0.2c0.1,0.1,0.2,0.3,0.2,1.2v19.9c0,0.9-0.2,1.2-0.2,1.2
		c-0.1,0.1-0.3,0.2-1.2,0.2h-19.8c-0.9,0-1.2-0.2-1.2-0.2c-0.1-0.1-0.2-0.3-0.2-1.2v-19.9c0-0.9,0.2-1.2,0.2-1.2
		C345.4,130.7,345.7,130.5,346.6,130.5z"/>
	<path style="fill:#FFFFFF;" d="M316.9,156.2h19.7c1.5,0,2.5-0.3,3.3-1.1c0.9-0.9,1.1-2.2,1.1-3.3v-19.9c0-1-0.1-2.3-1.1-3.3
		c-0.7-0.7-1.8-1.1-3.3-1.1h-19.7c-1.5,0-2.5,0.3-3.3,1.1c-0.9,0.9-1.1,2.2-1.1,3.3v19.9c0,1,0.1,2.3,1.1,3.3
		C314.4,155.8,315.4,156.2,316.9,156.2z M315.4,151.8v-19.9c0-0.9,0.2-1.2,0.2-1.2c0,0,0.3-0.2,1.3-0.2h19.7c1,0,1.2,0.2,1.3,0.2
		c0,0,0.2,0.3,0.2,1.2v19.9c0,0.9-0.2,1.2-0.2,1.2c0,0-0.3,0.2-1.3,0.2h-19.7c-1,0-1.2-0.2-1.3-0.2
		C315.6,153,315.4,152.8,315.4,151.8z"/>
	<path style="fill:#FFFFFF;" d="M287.2,156.2H307c1.5,0,2.5-0.3,3.3-1.1s1.1-1.8,1.1-3.3v-19.9c0-1.5-0.3-2.5-1.1-3.3
		s-1.8-1.1-3.3-1.1h-19.8c-1.5,0-2.5,0.3-3.3,1.1c-0.9,0.9-1.1,2.2-1.1,3.3v19.9c0,1,0.1,2.3,1.1,3.3
		C284.6,155.8,285.7,156.2,287.2,156.2z M287.2,130.5l19.8,0c0.9,0,1.2,0.2,1.2,0.2c0.1,0.1,0.2,0.3,0.2,1.2v19.9
		c0,0.9-0.2,1.2-0.2,1.2c-0.1,0.1-0.3,0.2-1.2,0.2h-19.8c-0.9,0-1.1-0.2-1.2-0.2c-0.1-0.1-0.2-0.3-0.2-1.2v-19.9
		c0-0.9,0.2-1.2,0.2-1.2C286,130.7,286.3,130.5,287.2,130.5z"/>
	<path style="fill:#FFFFFF;" d="M257.5,156.2h19.7c1.5,0,2.5-0.3,3.3-1.1c0.9-0.9,1.1-2.2,1.1-3.3v-19.9c0-1-0.1-2.3-1.1-3.3
		c-0.7-0.7-1.8-1.1-3.3-1.1h-19.7c-1.5,0-2.5,0.3-3.3,1.1c-0.9,0.9-1.1,2.2-1.1,3.3v19.9c0,1,0.1,2.3,1.1,3.3
		C255,155.8,256,156.2,257.5,156.2z M256.1,151.8v-19.9c0-0.9,0.2-1.2,0.2-1.2c0,0,0.3-0.2,1.3-0.2h19.7c1,0,1.2,0.2,1.3,0.2
		c0,0,0.2,0.3,0.2,1.2v19.9c0,0.9-0.2,1.2-0.2,1.2c0,0-0.3,0.2-1.3,0.2h-19.7c-1,0-1.2-0.2-1.3-0.2
		C256.2,153,256.1,152.8,256.1,151.8z"/>
	<path style="fill:#FFFFFF;" d="M227.8,156.2h19.8c1.5,0,2.5-0.3,3.3-1.1c0.7-0.7,1.1-1.8,1.1-3.3v-19.9c0-1.5-0.3-2.5-1.1-3.3
		c-0.7-0.7-1.8-1.1-3.3-1.1h-19.8c-1.5,0-2.5,0.3-3.3,1.1c-0.9,0.9-1.1,2.2-1.1,3.3v19.9c0,1,0.1,2.3,1.1,3.3
		C225.3,155.8,226.3,156.2,227.8,156.2z M249,151.8c0,0.9-0.2,1.2-0.2,1.2c-0.1,0.1-0.3,0.2-1.2,0.2h-19.8c-0.9,0-1.2-0.2-1.2-0.2
		c-0.1-0.1-0.2-0.3-0.2-1.2v-19.9c0-0.9,0.2-1.1,0.2-1.2c0.1-0.1,0.3-0.2,1.2-0.2h19.8c0.9,0,1.2,0.2,1.2,0.2
		c0.1,0.1,0.2,0.3,0.2,1.2V151.8z"/>
	<path style="fill:#FFFFFF;" d="M198.1,156.2h19.8c1.5,0,2.5-0.3,3.3-1.1c0.9-0.9,1.1-2.2,1.1-3.3v-19.9c0-1-0.1-2.3-1.1-3.3
		c-0.7-0.7-1.8-1.1-3.3-1.1h-19.8c-1.5,0-2.5,0.3-3.3,1.1c-0.7,0.7-1.1,1.8-1.1,3.3v19.9c0,1.5,0.3,2.5,1.1,3.3
		C195.6,155.8,196.6,156.2,198.1,156.2z M219.3,151.8c0,0.9-0.2,1.2-0.2,1.2c0,0-0.3,0.2-1.2,0.2h-19.8c-0.9,0-1.2-0.2-1.2-0.2
		c-0.1-0.1-0.2-0.3-0.2-1.2v-19.9c0-0.9,0.2-1.1,0.2-1.2c0.1-0.1,0.3-0.2,1.2-0.2h19.8c1,0,1.2,0.2,1.3,0.2c0,0,0.2,0.3,0.2,1.2
		V151.8z"/>
	<path style="fill:#FFFFFF;" d="M168.4,156.2h19.8c1.5,0,2.5-0.3,3.3-1.1c0.7-0.7,1.1-1.8,1.1-3.3v-19.9c0-1.5-0.3-2.5-1.1-3.3
		c-0.7-0.7-1.8-1.1-3.3-1.1h-19.8c-1.5,0-2.5,0.3-3.3,1.1c-0.9,0.9-1.1,2.2-1.1,3.3v19.9c0,1,0.1,2.3,1.1,3.3
		C165.9,155.8,166.9,156.2,168.4,156.2z M167,151.8v-19.9c0-0.9,0.2-1.2,0.2-1.2c0,0,0.3-0.2,1.3-0.2h19.8c0.9,0,1.2,0.2,1.2,0.2
		c0.1,0.1,0.2,0.3,0.2,1.2v19.9c0,0.9-0.2,1.2-0.2,1.2c-0.1,0.1-0.3,0.2-1.2,0.2h-19.8c-1,0-1.2-0.2-1.3-0.2
		C167.1,153,167,152.8,167,151.8z"/>
	<path style="fill:#FFFFFF;" d="M138.7,156.2h19.8c1.5,0,2.5-0.3,3.3-1.1c0.9-0.9,1.1-2.2,1.1-3.3v-19.9c0-1-0.1-2.3-1.1-3.3
		c-0.7-0.7-1.8-1.1-3.3-1.1h-19.8c-1.5,0-2.5,0.3-3.3,1.1c-0.7,0.7-1.1,1.8-1.1,3.3v19.9c0,1.5,0.3,2.5,1.1,3.3
		C136.2,155.8,137.2,156.2,138.7,156.2z M138.7,130.5h19.8c0.9,0,1.2,0.2,1.2,0.2c0.1,0.1,0.2,0.3,0.2,1.2v19.9
		c0,0.9-0.2,1.2-0.2,1.2c-0.1,0.1-0.3,0.2-1.2,0.2h-19.8c-0.9,0-1.2-0.2-1.2-0.2c-0.1-0.1-0.2-0.3-0.2-1.2v-19.9
		c0-0.9,0.2-1.1,0.2-1.2C137.6,130.7,137.8,130.5,138.7,130.5z"/>
	<path style="fill:#FFFFFF;" d="M109,156.2h19.7c1.5,0,2.5-0.3,3.3-1.1c0.9-0.9,1.1-2.2,1.1-3.3v-19.9c0-1-0.1-2.3-1.1-3.3
		c-0.7-0.7-1.8-1.1-3.3-1.1H109c-1.5,0-2.5,0.3-3.3,1.1c-0.9,0.9-1.1,2.2-1.1,3.3v19.9c0,1,0.1,2.3,1.1,3.3
		C106.5,155.8,107.5,156.2,109,156.2z M107.6,151.8v-19.9c0-0.9,0.2-1.2,0.2-1.2c0,0,0.3-0.2,1.3-0.2v0h19.7c1,0,1.2,0.2,1.3,0.2
		c0,0,0.2,0.3,0.2,1.2v19.9c0,0.9-0.2,1.2-0.2,1.2c0,0-0.3,0.2-1.2,0.2H109c-1,0-1.2-0.2-1.2-0.2C107.7,153,107.6,152.8,107.6,151.8
		z"/>
	<path style="fill:#FFFFFF;" d="M79.3,156.2h19.8c1.5,0,2.5-0.3,3.3-1.1c0.9-0.9,1.1-2.2,1.1-3.3v-19.9c0-1-0.1-2.3-1.1-3.3
		c-0.7-0.7-1.8-1.1-3.3-1.1H79.3c-1.5,0-2.5,0.3-3.3,1.1c-0.7,0.7-1.1,1.8-1.1,3.3v19.9c0,1.5,0.3,2.5,1.1,3.3
		C76.8,155.8,77.8,156.2,79.3,156.2z M79.3,130.5h19.8c0.9,0,1.2,0.2,1.2,0.2c0.1,0.1,0.2,0.3,0.2,1.2v19.9c0,0.9-0.2,1.2-0.2,1.2
		c-0.1,0.1-0.3,0.2-1.2,0.2H79.3c-0.9,0-1.1-0.2-1.2-0.2c-0.1-0.1-0.2-0.3-0.2-1.2v-19.9c0-0.9,0.2-1.2,0.2-1.2
		C78.2,130.7,78.4,130.5,79.3,130.5z"/>
	<path style="fill:#FFFFFF;" d="M72.7,155.1c0.5-0.5,0.8-1.2,0.9-1.8h0.2v-21.3c0-1-0.1-2.3-1.1-3.3c-0.7-0.7-1.8-1.1-3.3-1.1H49.6
		c-1.5,0-2.5,0.3-3.3,1.1c-0.9,0.9-1.1,2.2-1.1,3.3v19.9c0,1,0.1,2.3,1.1,3.3c0.7,0.7,1.8,1.1,3.3,1.1h19.7
		C70.9,156.2,71.9,155.8,72.7,155.1z M48.2,131.9c0-0.9,0.2-1.2,0.2-1.2c0,0,0.3-0.2,1.3-0.2h19.7c1,0,1.2,0.2,1.3,0.2
		c0,0,0.2,0.3,0.2,1.2v19.9c0,0.9-0.2,1.2-0.2,1.2c0,0-0.3,0.2-1.3,0.2H49.6c-1,0-1.2-0.2-1.3-0.2c0,0-0.2-0.3-0.2-1.2V131.9z"/>
	<path style="fill:#FFFFFF;" d="M86,157.1H66.3c-1.5,0-2.5,0.3-3.3,1.1c-0.9,0.9-1.1,2.2-1.1,3.3v19.9c0,1,0.1,2.3,1.1,3.3
		c0.7,0.7,1.8,1.1,3.3,1.1H86c1.5,0,2.5-0.3,3.3-1.1c0.7-0.7,1.1-1.8,1.1-3.3v-19.9c0-1.5-0.3-2.5-1.1-3.3
		C88.5,157.5,87.5,157.1,86,157.1z M64.8,161.5c0-0.9,0.2-1.2,0.2-1.2c0,0,0.2-0.2,0.8-0.2H86c0.9,0,1.1,0.2,1.2,0.2
		c0.1,0.1,0.2,0.3,0.2,1.2v19.9c0,0.9-0.2,1.2-0.2,1.2c-0.1,0.1-0.3,0.2-1.2,0.2H66.3c-0.9,0-1.2-0.2-1.2-0.2
		c-0.2-0.2-0.3-0.6-0.3-1.3V161.5z"/>
	<path style="fill:#FFFFFF;" d="M118.7,184.6c0.9-0.9,1.1-2.2,1.1-3.3v-19.9c0-1-0.1-2.3-1.1-3.3c-0.7-0.7-1.8-1.1-3.3-1.1H95.7
		c-1.5,0-2.5,0.3-3.3,1.1c-0.7,0.7-1.1,1.8-1.1,3.3v19.9c0,1.5,0.3,2.5,1.1,3.3c0.7,0.7,1.8,1.1,3.3,1.1h19.8
		C116.9,185.7,118,185.4,118.7,184.6z M116.7,182.6c0,0-0.3,0.2-1.3,0.2H95.7c-0.9,0-1.2-0.2-1.2-0.2c-0.1-0.1-0.2-0.3-0.2-1.2
		v-19.9c0-0.9,0.2-1.2,0.2-1.2c0.1-0.1,0.3-0.2,1.2-0.2h19.8c1,0,1.2,0.2,1.3,0.2c0,0,0.2,0.3,0.2,1.2v19.9
		C116.9,182.3,116.7,182.6,116.7,182.6z"/>
	<path style="fill:#FFFFFF;" d="M148.1,184.6c0.7-0.7,1.1-1.8,1.1-3.3v-19.9c0-1.5-0.3-2.5-1.1-3.3c-0.7-0.7-1.8-1.1-3.3-1.1h-19.8
		c-1.5,0-2.5,0.3-3.3,1.1c-0.9,0.9-1.1,2.2-1.1,3.3v19.9c0,1,0.1,2.3,1.1,3.3c0.7,0.7,1.8,1.1,3.3,1.1h19.8
		C146.3,185.7,147.4,185.4,148.1,184.6z M123.6,161.5c0-0.9,0.2-1.2,0.2-1.2c0,0,0.3-0.2,1.3-0.2h19.8c0.9,0,1.1,0.2,1.2,0.2
		c0.1,0.1,0.2,0.3,0.2,1.2v19.9c0,0.9-0.2,1.2-0.2,1.2c-0.1,0.1-0.3,0.2-1.2,0.2h-19.8c-1,0-1.2-0.2-1.3-0.2c0,0-0.2-0.3-0.2-1.2
		V161.5z"/>
	<path style="fill:#FFFFFF;" d="M154.5,185.7h19.8c1.5,0,2.5-0.3,3.3-1.1c0.9-0.9,1.1-2.2,1.1-3.3v-19.9c0-1-0.1-2.3-1.1-3.3
		c-0.7-0.7-1.8-1.1-3.3-1.1h-19.8c-1.5,0-2.5,0.3-3.3,1.1c-0.7,0.7-1.1,1.8-1.1,3.3v19.9c0,1.5,0.3,2.5,1.1,3.3
		C152,185.4,153,185.7,154.5,185.7z M154.5,160h19.8c0.9,0,1.2,0.2,1.2,0.2c0.1,0.1,0.2,0.3,0.2,1.2v19.9c0,0.9-0.2,1.2-0.2,1.2
		c-0.1,0.1-0.3,0.2-1.2,0.2h-19.8c-0.9,0-1.2-0.2-1.2-0.2c-0.1-0.1-0.2-0.3-0.2-1.2v-19.9c0-0.9,0.2-1.2,0.2-1.2
		C153.4,160.2,153.6,160,154.5,160z"/>
	<path style="fill:#FFFFFF;" d="M184,185.7h19.7c1.5,0,2.5-0.3,3.3-1.1c0.9-0.9,1.1-2.2,1.1-3.3v-19.9c0-1-0.1-2.3-1.1-3.3
		c-0.7-0.7-1.8-1.1-3.3-1.1H184c-1.5,0-2.5,0.3-3.3,1.1c-0.9,0.9-1.1,2.2-1.1,3.3v19.9c0,1,0.1,2.3,1.1,3.3
		C181.4,185.4,182.5,185.7,184,185.7z M182.5,181.4v-19.9c0-0.9,0.2-1.2,0.2-1.2c0,0,0.3-0.2,1.3-0.2h19.7c1,0,1.2,0.2,1.3,0.2
		c0,0,0.2,0.3,0.2,1.2v19.9c0,0.9-0.2,1.2-0.2,1.2c0,0-0.3,0.2-1.3,0.2H184c-1,0-1.2-0.2-1.2-0.2
		C182.7,182.6,182.5,182.3,182.5,181.4z"/>
	<path style="fill:#FFFFFF;" d="M213.4,185.7h19.8c1.5,0,2.5-0.3,3.3-1.1c0.9-0.9,1.1-2.2,1.1-3.3v-19.9c0-1-0.1-2.3-1.1-3.3
		c-0.7-0.7-1.8-1.1-3.3-1.1h-19.8c-1.5,0-2.5,0.3-3.3,1.1c-0.7,0.7-1.1,1.8-1.1,3.3v19.9c0,1.5,0.3,2.5,1.1,3.3
		C210.8,185.4,211.9,185.7,213.4,185.7z M211.9,181.4v-19.9c0-0.9,0.2-1.2,0.2-1.2c0.1-0.1,0.3-0.2,1.2-0.2h19.8
		c0.9,0,1.2,0.2,1.2,0.2c0.1,0.1,0.2,0.3,0.2,1.2v19.9c0,0.9-0.2,1.2-0.2,1.2c-0.1,0.1-0.3,0.2-1.2,0.2h-19.8
		c-0.9,0-1.2-0.2-1.2-0.2C212.1,182.5,211.9,182.3,211.9,181.4z"/>
	<path style="fill:#FFFFFF;" d="M242.8,185.7h19.7c1.5,0,2.5-0.3,3.3-1.1c0.9-0.9,1.1-2.2,1.1-3.3v-19.9c0-1-0.1-2.3-1.1-3.3
		c-0.8-0.7-1.8-1.1-3.3-1.1h-19.7c-1.5,0-2.5,0.3-3.3,1.1c-0.9,0.9-1.1,2.2-1.1,3.3v19.9c0,1,0.1,2.3,1.1,3.3
		C240.3,185.4,241.3,185.7,242.8,185.7z M241.3,181.4v-19.9c0-0.9,0.2-1.2,0.2-1.2c0,0,0.3-0.2,1.3-0.2h19.7c1,0,1.2,0.2,1.3,0.2
		c0,0,0.2,0.3,0.2,1.2v19.9c0,0.9-0.2,1.2-0.2,1.2c0,0-0.3,0.2-1.3,0.2h-19.7c-1,0-1.2-0.2-1.3-0.2
		C241.5,182.6,241.3,182.3,241.3,181.4z"/>
	<path style="fill:#FFFFFF;" d="M272.2,185.7H292c1.5,0,2.5-0.3,3.3-1.1c0.9-0.9,1.1-2.2,1.1-3.3v-19.9c0-1-0.1-2.3-1.1-3.3
		c-0.7-0.7-1.8-1.1-3.3-1.1h-19.8c-1.5,0-2.5,0.3-3.3,1.1c-0.9,0.9-1.1,2.2-1.1,3.3v19.9c0,1,0.1,2.3,1.1,3.3
		C269.7,185.4,270.7,185.7,272.2,185.7z M293.4,181.4c0,0.9-0.2,1.2-0.2,1.2c-0.1,0.1-0.3,0.2-1.2,0.2h-19.8c-0.9,0-1.2-0.2-1.2-0.2
		c-0.1-0.1-0.2-0.3-0.2-1.2v-19.9c0-0.9,0.2-1.2,0.2-1.2c0.1-0.1,0.3-0.2,1.2-0.2H292c0.9,0,1.2,0.2,1.2,0.2
		c0.1,0.1,0.2,0.3,0.2,1.2V181.4z"/>
	<path style="fill:#FFFFFF;" d="M301.7,185.7h19.7c1.5,0,2.5-0.3,3.3-1.1c0.9-0.9,1.1-2.2,1.1-3.3v-19.9c0-1-0.1-2.3-1.1-3.3
		c-0.8-0.7-1.8-1.1-3.3-1.1h-19.7c-1.5,0-2.5,0.3-3.3,1.1c-0.9,0.9-1.1,2.2-1.1,3.3v19.9c0,1,0.1,2.3,1.1,3.3
		C299.1,185.4,300.2,185.7,301.7,185.7z M301.7,160h19.7c1,0,1.2,0.2,1.3,0.2c0,0,0.2,0.3,0.2,1.2v19.9c0,0.9-0.2,1.2-0.2,1.2
		c0,0-0.3,0.2-1.3,0.2h-19.7c-1,0-1.2-0.2-1.3-0.2c0,0-0.2-0.3-0.2-1.2v-19.9c0-0.9,0.2-1.2,0.2-1.2
		C300.5,160.2,300.7,160,301.7,160z"/>
	<path style="fill:#FFFFFF;" d="M331.1,185.7h19.8c1.5,0,2.5-0.3,3.3-1.1c0.7-0.7,1.1-1.8,1.1-3.3v-19.9c0-1.5-0.3-2.5-1.1-3.3
		c-0.8-0.7-1.8-1.1-3.3-1.1h-19.8c-1.5,0-2.5,0.3-3.3,1.1c-0.9,0.9-1.1,2.2-1.1,3.3v19.9c0,1,0.1,2.3,1.1,3.3
		C328.5,185.4,329.6,185.7,331.1,185.7z M329.6,181.4v-19.9c0-0.9,0.2-1.2,0.2-1.2c0.1-0.1,0.3-0.2,1.2-0.2h19.8
		c0.9,0,1.2,0.2,1.2,0.2c0.1,0.1,0.2,0.3,0.2,1.2v19.9c0,0.9-0.2,1.2-0.2,1.2c-0.1,0.1-0.3,0.2-1.2,0.2h-19.8
		c-0.9,0-1.2-0.2-1.2-0.2C329.8,182.5,329.6,182.3,329.6,181.4z"/>
	<path style="fill:#FFFFFF;" d="M360.5,185.7h19.7c1.5,0,2.5-0.3,3.3-1.1c0.9-0.9,1.1-2.2,1.1-3.3v-19.9c0-1-0.1-2.3-1.1-3.3
		c-0.7-0.7-1.8-1.1-3.3-1.1h-19.7c-1.5,0-2.6,0.4-3.3,1.1c-0.9,0.9-1.1,2.2-1.1,3.3v19.9c0,1,0.1,2.3,1.1,3.3
		C358,185.4,359,185.7,360.5,185.7z M359.1,181.4v-19.9c0-0.9,0.2-1.2,0.2-1.2c0,0,0.3-0.2,1.3-0.2h19.7c1,0,1.2,0.2,1.3,0.2
		c0,0,0.2,0.3,0.2,1.2v19.9c0,0.9-0.2,1.2-0.2,1.2c0,0-0.3,0.2-1.3,0.2h-19.7c-1,0-1.2-0.2-1.3-0.2
		C359.2,182.6,359.1,182.3,359.1,181.4z"/>
	<path style="fill:#FFFFFF;" d="M468.4,157.1l-50.2,0c-1.5,0-2.5,0.3-3.3,1.1c-0.6,0.6-0.9,1.4-1,2.2c-0.1-0.9-0.5-1.6-1-2.2
		c-0.7-0.7-1.8-1.1-3.3-1.1h-19.8c-1.5,0-2.6,0.4-3.3,1.1c-0.9,0.9-1.1,2.2-1.1,3.3v19.9c0,1,0.1,2.3,1.1,3.3
		c0.7,0.7,1.8,1.1,3.3,1.1h19.8c1.5,0,2.5-0.3,3.3-1.1c0.6-0.6,0.9-1.3,1-2.2c0.1,0.8,0.4,1.6,1,2.2c0.7,0.7,1.8,1.1,3.3,1.1
		c1.5,0,2.1,0.1,2.2,0.2c0.1,0.3,0.1,0.9,0.1,1.1v22.8c0,1.5,0.3,2.5,1.1,3.3c0.9,0.9,2.2,1.1,3.3,1.1h43.4c1,0,2.3-0.1,3.3-1.1
		c1-1,1.1-2.3,1.1-3.3l0.2-48.3c0-1.5-0.3-2.5-1.1-3.3C471,157.5,469.9,157.1,468.4,157.1z M423.2,185.2c-0.2-0.7-0.6-1.3-1.1-1.6
		c-0.9-0.6-2-0.7-3.3-0.7c-0.1,0-0.2,0-0.3,0h-0.3c-0.9,0-1.2-0.2-1.2-0.2c-0.1-0.1-0.2-0.3-0.2-1.2v-19.9c0-0.9,0.2-1.2,0.2-1.2
		c0.1-0.1,0.3-0.2,1.1-0.2h50.3c0.9,0,1.2,0.2,1.2,0.2c0.1,0.1,0.2,0.3,0.2,1.2l-0.2,48.3c0,1-0.2,1.2-0.2,1.3c0,0-0.2,0.2-1.3,0.2
		h-43.4c-0.9,0-1.2-0.2-1.2-0.2c0,0-0.2-0.3-0.2-1.3v-22.8C423.4,186.3,423.4,185.7,423.2,185.2z M411.1,161.5v19.9
		c0,0.9-0.2,1.2-0.2,1.2c-0.1,0.1-0.3,0.2-1.2,0.2h-19.8c-0.9,0-1.2-0.2-1.2-0.2c-0.1-0.1-0.2-0.3-0.2-1.2v-19.9
		c0-0.9,0.2-1.2,0.2-1.2c0.1-0.1,0.3-0.2,1.2-0.2h19.8c0.9,0,1.2,0.2,1.2,0.2C411,160.3,411.1,160.6,411.1,161.5z"/>
	<path style="fill:#FFFFFF;" d="M124.5,213.3c0.5-0.5,0.8-1.2,0.9-1.8h0.2v-21.3c0-1-0.1-2.3-1.1-3.3c-0.7-0.7-1.8-1.1-3.3-1.1
		h-19.7c-1.5,0-2.5,0.3-3.3,1.1c-0.9,0.9-1.1,2.2-1.1,3.3v19.9c0,1,0.1,2.3,1.1,3.3c0.7,0.7,1.8,1.1,3.3,1.1h19.7
		C122.7,214.4,123.8,214.1,124.5,213.3z M122.7,190.2v19.9c0,0.9-0.2,1.2-0.2,1.2c0,0-0.3,0.2-1.3,0.2h-19.7c-1,0-1.2-0.2-1.3-0.2
		c0,0-0.2-0.3-0.2-1.2v-19.9c0-0.9,0.2-1.2,0.2-1.2c0,0,0.3-0.2,1.3-0.2h19.7c1,0,1.2,0.2,1.3,0.2
		C122.5,189,122.7,189.3,122.7,190.2z"/>
	<path style="fill:#FFFFFF;" d="M150.7,185.8h-19.8c-1.5,0-2.5,0.3-3.3,1.1c-0.9,0.9-1.1,2.2-1.1,3.3v19.9c0,1,0.1,2.3,1.1,3.3
		c0.7,0.7,1.8,1.1,3.3,1.1h19.8c1.5,0,2.5-0.3,3.3-1.1c0.7-0.7,1.1-1.8,1.1-3.3v-19.9c0-1.5-0.3-2.5-1.1-3.3
		C153.2,186.2,152.2,185.8,150.7,185.8z M152.1,190.2v19.9c0,0.9-0.2,1.2-0.2,1.2c-0.1,0.1-0.3,0.2-1.2,0.2h-19.8
		c-0.9,0-1.2-0.2-1.2-0.2c-0.1-0.1-0.2-0.3-0.2-1.2v-19.9c0-0.9,0.2-1.2,0.2-1.2c0.1-0.1,0.3-0.2,1.2-0.2h19.8
		c0.9,0,1.2,0.2,1.2,0.2C152,189,152.1,189.3,152.1,190.2z"/>
	<path style="fill:#FFFFFF;" d="M180.1,185.8h-19.8c-1.5,0-2.5,0.3-3.3,1.1c-0.7,0.8-1.1,1.8-1.1,3.3v19.9c0,1.5,0.3,2.5,1.1,3.3
		c0.7,0.7,1.8,1.1,3.3,1.1h19.8c1.5,0,2.5-0.3,3.3-1.1c0.9-0.9,1.1-2.2,1.1-3.3v-19.9c0-1-0.1-2.3-1.1-3.3
		C182.6,186.2,181.6,185.8,180.1,185.8z M181.6,190.2v19.9c0,0.9-0.2,1.2-0.2,1.2c0,0-0.3,0.2-1.3,0.2h-19.8c-0.9,0-1.2-0.2-1.2-0.2
		c-0.1-0.1-0.2-0.3-0.2-1.2v-19.9c0-0.9,0.2-1.2,0.2-1.2c0.1-0.1,0.3-0.2,1.2-0.2h19.8c1,0,1.2,0.2,1.2,0.2
		C181.4,189,181.6,189.3,181.6,190.2z"/>
	<path style="fill:#FFFFFF;" d="M209.5,185.8h-19.8c-1.5,0-2.5,0.3-3.3,1.1c-0.9,0.9-1.1,2.2-1.1,3.3v19.9c0,1,0.1,2.3,1.1,3.3
		c0.7,0.7,1.8,1.1,3.3,1.1h19.8c1.5,0,2.5-0.3,3.3-1.1c0.7-0.7,1.1-1.8,1.1-3.3v-19.9c0-1.5-0.3-2.5-1.1-3.3S211,185.8,209.5,185.8z
		 M211,190.2v19.9c0,0.9-0.2,1.2-0.2,1.2c-0.1,0.1-0.3,0.2-1.2,0.2h-19.8c-1,0-1.2-0.2-1.3-0.2c0,0-0.2-0.3-0.2-1.2v-19.9
		c0-0.9,0.2-1.2,0.2-1.2c0,0,0.3-0.2,1.3-0.2h19.8c0.9,0,1.2,0.2,1.2,0.2S211,189.3,211,190.2z"/>
	<path style="fill:#FFFFFF;" d="M239,185.8h-19.8c-1.5,0-2.5,0.3-3.3,1.1c-0.7,0.7-1.1,1.8-1.1,3.3v19.9c0,1.5,0.3,2.5,1.1,3.3
		c0.7,0.7,1.8,1.1,3.3,1.1H239c1.5,0,2.5-0.3,3.3-1.1c0.9-0.9,1.1-2.2,1.1-3.3v-19.9c0-1-0.1-2.3-1.1-3.3
		C241.5,186.2,240.4,185.8,239,185.8z M240.4,190.2v19.9c0,0.9-0.2,1.2-0.2,1.2c-0.1,0.1-0.3,0.2-1.2,0.2h-19.8
		c-0.9,0-1.2-0.2-1.2-0.2c-0.1-0.1-0.2-0.3-0.2-1.2v-19.9c0-0.9,0.2-1.2,0.2-1.2c0.1-0.1,0.3-0.2,1.2-0.2H239c0.9,0,1.2,0.2,1.2,0.2
		S240.4,189.3,240.4,190.2z"/>
	<path style="fill:#FFFFFF;" d="M268.4,185.8h-19.7c-1.5,0-2.5,0.3-3.3,1.1c-0.9,0.9-1.1,2.2-1.1,3.3v19.9c0,1,0.1,2.3,1.1,3.3
		c0.7,0.7,1.8,1.1,3.3,1.1h19.7c1.5,0,2.5-0.3,3.3-1.1c0.9-0.9,1.1-2.2,1.1-3.3v-19.9c0-1-0.1-2.3-1.1-3.3
		C270.9,186.2,269.9,185.8,268.4,185.8z M269.8,190.2v19.9c0,0.9-0.2,1.2-0.2,1.2c0,0-0.3,0.2-1.3,0.2h-19.7c-1,0-1.2-0.2-1.3-0.2
		c0,0-0.2-0.3-0.2-1.2v-19.9c0-0.9,0.2-1.2,0.2-1.2c0,0,0.3-0.2,1.3-0.2h19.7c1,0,1.2,0.2,1.3,0.2
		C269.7,189,269.8,189.3,269.8,190.2z"/>
	<path style="fill:#FFFFFF;" d="M297.8,185.8H278c-1.5,0-2.5,0.3-3.3,1.1c-0.7,0.8-1.1,1.8-1.1,3.3v19.9c0,1.5,0.3,2.5,1.1,3.3
		c0.7,0.7,1.8,1.1,3.3,1.1h19.8c1.5,0,2.5-0.3,3.3-1.1c0.9-0.9,1.1-2.2,1.1-3.3v-19.9c0-1-0.1-2.3-1.1-3.3
		C300.3,186.2,299.3,185.8,297.8,185.8z M276.6,190.2c0-0.9,0.2-1.2,0.2-1.2c0.1-0.1,0.3-0.2,1.2-0.2h19.8c0.9,0,1.2,0.2,1.2,0.2
		c0.1,0.1,0.2,0.3,0.2,1.2v19.9c0,0.9-0.2,1.2-0.2,1.2c-0.1,0.1-0.3,0.2-1.2,0.2H278c-0.9,0-1.2-0.2-1.2-0.2
		c-0.1-0.1-0.2-0.3-0.2-1.2V190.2z"/>
	<path style="fill:#FFFFFF;" d="M327.2,185.8h-19.7c-1.5,0-2.5,0.3-3.3,1.1c-0.9,0.9-1.1,2.2-1.1,3.3v19.9c0,1,0.1,2.3,1.1,3.3
		c0.8,0.7,1.8,1.1,3.3,1.1h19.7c1.5,0,2.5-0.3,3.3-1.1c0.9-0.9,1.1-2.2,1.1-3.3v-19.9c0-1-0.1-2.3-1.1-3.3
		C329.8,186.2,328.7,185.8,327.2,185.8z M327.2,211.5h-19.7c-1,0-1.2-0.2-1.3-0.2c0,0-0.2-0.3-0.2-1.2v-19.9c0-0.9,0.2-1.2,0.2-1.2
		c0,0,0.3-0.2,1.3-0.2h19.7c1,0,1.2,0.2,1.3,0.2c0,0,0.2,0.3,0.2,1.2v19.9c0,0.9-0.2,1.2-0.2,1.2
		C328.4,211.3,328.2,211.5,327.2,211.5z"/>
	<path style="fill:#FFFFFF;" d="M356.7,185.8h-19.8c-1.5,0-2.5,0.3-3.3,1.1c-0.7,0.7-1.1,1.8-1.1,3.3v19.9c0,1,0.1,2.3,1.1,3.3
		c0.8,0.7,1.8,1.1,3.3,1.1h19.8c1.5,0,2.5-0.3,3.3-1.1c0.9-0.9,1.1-2.2,1.1-3.3v-19.9c0-1-0.1-2.3-1.1-3.3
		C359.2,186.2,358.1,185.8,356.7,185.8z M358.1,190.2v19.9c0,0.9-0.2,1.2-0.2,1.2c-0.1,0.1-0.3,0.2-1.2,0.2h-19.8
		c-0.9,0-1.2-0.2-1.2-0.2s-0.2-0.3-0.2-1.2v-19.9c0-0.9,0.2-1.2,0.2-1.2c0.1-0.1,0.3-0.2,1.2-0.2h19.8c0.9,0,1.2,0.2,1.2,0.2
		C357.9,189,358.1,189.3,358.1,190.2z"/>
	<path style="fill:#FFFFFF;" d="M389.4,213.3c0.9-0.9,1.1-2.2,1.1-3.3v-19.9c0-1-0.1-2.3-1.1-3.3c-0.8-0.7-1.8-1.1-3.3-1.1h-19.7
		c-1.5,0-2.5,0.3-3.3,1.1c-0.9,0.9-1.1,2.2-1.1,3.3v19.9c0,1,0.1,2.3,1.1,3.3c0.7,0.7,1.8,1.1,3.3,1.1h19.7
		C387.6,214.4,388.6,214.1,389.4,213.3z M387.5,190.2v19.9c0,0.9-0.2,1.2-0.2,1.2c0,0-0.3,0.2-1.3,0.2h-19.7c-1,0-1.2-0.2-1.3-0.2
		c0,0-0.2-0.3-0.2-1.2v-19.9c0-0.9,0.2-1.2,0.2-1.2c0,0,0.3-0.2,1.2-0.2h19.7c1,0,1.2,0.2,1.2,0.2
		C387.4,189,387.5,189.3,387.5,190.2z"/>
	<path style="fill:#FFFFFF;" d="M415.5,185.8h-19.8c-1.5,0-2.5,0.3-3.3,1.1c-0.9,0.9-1.1,2.2-1.1,3.3v19.9c0,1,0.1,2.3,1.1,3.3
		c0.7,0.7,1.8,1.1,3.3,1.1h19.8c1.5,0,2.5-0.3,3.3-1.1c0.7-0.7,1.1-1.8,1.1-3.3v-19.9c0-1.5-0.3-2.5-1.1-3.3
		C418,186.2,417,185.8,415.5,185.8z M417,190.2v19.9c0,0.9-0.2,1.2-0.2,1.2c-0.1,0.1-0.3,0.2-1.2,0.2h-19.8c-0.9,0-1.2-0.2-1.2-0.2
		c-0.1-0.1-0.2-0.3-0.2-1.2v-19.9c0-0.9,0.2-1.2,0.2-1.2c0.1-0.1,0.3-0.2,1.2-0.2h19.8c0.9,0,1.2,0.2,1.2,0.2
		C416.8,189,417,189.3,417,190.2z"/>
	<path style="fill:#FFFFFF;" d="M399.9,214.5h-19.8c-1.5,0-2.5,0.3-3.3,1.1c-0.7,0.7-1.1,1.8-1.1,3.3v19.9c0,1.5,0.3,2.5,1.1,3.3
		c0.5,0.5,1.1,0.8,1.8,0.9c-0.6,0.1-1.3,0.4-1.8,0.9c-0.7,0.7-1.1,1.8-1.1,3.3V267c0,1.5,0.3,2.5,1.1,3.3c0.9,0.9,2.2,1.1,3.3,1.1
		h19.8c1,0,2.3-0.1,3.3-1.1c1-1,1.1-2.3,1.1-3.3v-19.8c0-1-0.1-2.3-1.1-3.3c-0.5-0.5-1.2-0.8-1.8-0.9c0.7-0.2,1.3-0.5,1.8-0.9
		c0.9-0.9,1.1-2.2,1.1-3.3v-19.9c0-1-0.1-2.3-1.1-3.3C402.4,214.9,401.4,214.5,399.9,214.5z M380.1,217.4h19.8c1,0,1.2,0.2,1.2,0.2
		c0,0,0.2,0.3,0.2,1.2v19.9c0,0.9-0.2,1.2-0.2,1.2c0,0-0.3,0.2-1.3,0.2h-19.8c-0.9,0-1.2-0.2-1.2-0.2c-0.1-0.1-0.2-0.3-0.2-1.2
		v-19.9c0-0.9,0.2-1.2,0.2-1.2C379,217.6,379.2,217.4,380.1,217.4z M378.7,247.2c0-0.9,0.2-1.2,0.2-1.2s0.3-0.2,1.2-0.2h19.8
		c1,0,1.2,0.2,1.3,0.2c0,0,0.2,0.3,0.2,1.2V267c0,1-0.2,1.2-0.2,1.3c0,0-0.2,0.2-1.3,0.2h-19.8c-0.9,0-1.2-0.2-1.2-0.2
		c0,0-0.2-0.3-0.2-1.3V247.2z"/>
	<path style="fill:#FFFFFF;" d="M39.7,127.6H19.9c-1.5,0-2.5,0.3-3.3,1.1c-0.9,0.9-1.1,2.2-1.1,3.3v19.9c0,1,0.1,2.3,1.1,3.3
		c0.7,0.7,1.8,1.1,3.3,1.1h19.8c1.5,0,2.5-0.3,3.3-1.1c0.9-0.9,1.1-2.2,1.1-3.3v-19.9c0-1-0.1-2.3-1.1-3.3
		C42.2,127.9,41.2,127.6,39.7,127.6z M19.9,130.5h19.8c0.9,0,1.2,0.2,1.2,0.2c0.1,0.1,0.2,0.3,0.2,1.2v19.9c0,0.9-0.2,1.2-0.2,1.2
		c-0.1,0.1-0.3,0.2-1.2,0.2H19.9c-0.9,0-1.2-0.2-1.2-0.2c-0.1-0.1-0.2-0.3-0.2-1.2v-19.9c0-0.9,0.2-1.2,0.2-1.2
		C18.8,130.7,19,130.5,19.9,130.5z"/>
	<path style="fill:#FFFFFF;" d="M528,185.2h-19.8c-1,0-2.3,0.1-3.3,1.1c-1,1-1.1,2.3-1.1,3.3v19.8c0,1,0.1,2.3,1.1,3.3
		c1,1,2.3,1.1,3.3,1.1H528c1,0,2.3-0.1,3.3-1.1c0.7-0.8,1.1-1.8,1.1-3.3v-19.8c0-1.5-0.3-2.5-1.1-3.3
		C530.3,185.3,529,185.2,528,185.2z M529.5,189.5v19.8c0,1-0.2,1.2-0.2,1.3c0,0-0.3,0.2-1.2,0.2h-19.8c-0.9,0-1.2-0.2-1.2-0.2
		c0,0-0.2-0.3-0.2-1.3v-19.8c0-1,0.2-1.2,0.2-1.3c0,0,0.3-0.2,1.2-0.2H528c0.9,0,1.2,0.2,1.2,0.2
		C529.3,188.3,529.5,188.6,529.5,189.5z"/>
	<path style="fill:#FFFFFF;" d="M528,214.5h-19.8c-1,0-2.3,0.1-3.3,1.1c-1,1-1.1,2.3-1.1,3.3v19.8c0,1,0.1,2.3,1.1,3.3
		c1,1,2.3,1.1,3.3,1.1H528c1,0,2.3-0.1,3.3-1.1c0.7-0.7,1.1-1.8,1.1-3.3v-19.8c0-1.5-0.3-2.5-1.1-3.3
		C530.3,214.6,529,214.5,528,214.5z M529.5,218.8v19.8c0,1-0.2,1.2-0.2,1.3c0,0-0.3,0.2-1.2,0.2h-19.8c-0.9,0-1.2-0.2-1.2-0.2
		c0,0-0.2-0.3-0.2-1.3v-19.8c0-1,0.2-1.2,0.2-1.3c0,0,0.3-0.2,1.2-0.2H528c0.9,0,1.2,0.2,1.2,0.2
		C529.3,217.6,529.5,217.9,529.5,218.8z"/>
	<path style="fill:#FFFFFF;" d="M528,243.7h-19.8c-1,0-2.3,0.1-3.3,1.1c-1,1-1.1,2.3-1.1,3.3V268c0,1,0.1,2.3,1.1,3.3
		c1,1,2.3,1.1,3.3,1.1H528c1,0,2.3-0.1,3.3-1.1c0.7-0.8,1.1-1.8,1.1-3.3v-19.8c0-1.5-0.3-2.5-1.1-3.3
		C530.3,243.9,529,243.7,528,243.7z M529.5,248.1V268c0,1-0.2,1.2-0.2,1.3c0,0-0.3,0.2-1.2,0.2h-19.8c-0.9,0-1.2-0.2-1.2-0.2
		c0,0-0.2-0.3-0.2-1.2v-19.8c0-1,0.2-1.2,0.2-1.3c0,0,0.3-0.2,1.2-0.2H528c0.9,0,1.2,0.2,1.2,0.2
		C529.3,246.9,529.5,247.1,529.5,248.1z"/>
	<path style="fill:#FFFFFF;" d="M537.6,184.4h19.7c1,0,2.3-0.1,3.3-1.1c1-1,1.1-2.3,1.1-3.3v-19.8c0-1-0.1-2.3-1.1-3.3
		c-1-1-2.3-1.1-3.3-1.1h-19.7c-1,0-2.3,0.1-3.3,1.1c-1,1-1.1,2.3-1.1,3.3v19.8c0,1,0.1,2.3,1.1,3.3
		C535.3,184.3,536.7,184.4,537.6,184.4z M536.2,180.1v-19.8c0-1,0.2-1.2,0.2-1.3c0,0,0.2-0.2,1.3-0.2h19.7c1,0,1.2,0.2,1.3,0.2
		c0,0,0.2,0.2,0.2,1.3v19.8c0,1-0.2,1.2-0.2,1.2c0,0-0.2,0.2-1.3,0.2h-19.7c-1,0-1.2-0.2-1.2-0.2
		C536.4,181.3,536.2,181.1,536.2,180.1z"/>
	<path style="fill:#FFFFFF;" d="M557.5,185.2h-19.7c-1,0-2.3,0.1-3.3,1.1c-1,1-1.1,2.3-1.1,3.3v19.8c0,1,0.1,2.3,1.1,3.3
		c1,1,2.3,1.1,3.3,1.1h19.7c1,0,2.3-0.1,3.3-1.1c1-1,1.1-2.3,1.1-3.3v-19.8c0-1-0.1-2.3-1.1-3.3
		C559.8,185.3,558.4,185.2,557.5,185.2z M558.9,189.5v19.8c0,1-0.2,1.2-0.2,1.3c0,0-0.2,0.2-1.2,0.2h-19.7c-1,0-1.2-0.2-1.3-0.2
		c0,0-0.2-0.2-0.2-1.2v-19.8c0-1,0.2-1.2,0.2-1.3c0,0,0.2-0.2,1.3-0.2h19.7c1,0,1.2,0.2,1.2,0.2S558.9,188.5,558.9,189.5z"/>
	<path style="fill:#FFFFFF;" d="M557.5,214.5h-19.7c-1,0-2.3,0.1-3.3,1.1c-0.9,0.9-1.1,2.3-1.1,3.3v19.8c0,1,0.1,2.3,1.1,3.3
		c1,1,2.3,1.1,3.3,1.1h19.7c1,0,2.3-0.1,3.3-1.1c1-1,1.1-2.3,1.1-3.3v-19.8c0-1-0.1-2.3-1.1-3.3
		C559.8,214.6,558.4,214.5,557.5,214.5z M558.9,218.8v19.8c0,1-0.2,1.2-0.2,1.3s-0.2,0.2-1.3,0.2h-19.7c-1,0-1.2-0.2-1.3-0.2
		c0,0-0.2-0.2-0.2-1.2v-19.8c0-1,0.2-1.2,0.2-1.3c0,0,0.2-0.2,1.3-0.2h19.7c1,0,1.2,0.2,1.2,0.2
		C558.7,217.6,558.9,217.8,558.9,218.8z"/>
	<path style="fill:#FFFFFF;" d="M557.5,243.7h-19.7c-1,0-2.4,0.1-3.3,1.1c-1,1-1.1,2.3-1.1,3.3V268c0,1,0.1,2.3,1.1,3.3
		c1,1,2.3,1.1,3.3,1.1h19.7c1,0,2.3-0.1,3.3-1.1c1-1,1.1-2.3,1.1-3.3v-19.8c0-1-0.1-2.3-1.1-3.3
		C559.8,243.9,558.5,243.7,557.5,243.7z M558.9,248.1V268c0,1-0.2,1.2-0.2,1.3c0,0-0.2,0.2-1.2,0.2h-19.7c-1,0-1.2-0.2-1.3-0.2
		c0,0-0.2-0.2-0.2-1.2v-19.8c0-1,0.2-1.2,0.2-1.3c0,0,0.2-0.2,1.2-0.2h19.7c1,0,1.2,0.2,1.3,0.2
		C558.7,246.9,558.9,247.1,558.9,248.1z"/>
	<path style="fill:#FFFFFF;" d="M590,156.9c-1-1-2.3-1.1-3.3-1.1H567c-1,0-2.3,0.1-3.3,1.1c-0.7,0.7-1.1,1.8-1.1,3.3v19.8
		c0,1.5,0.4,2.6,1.1,3.3c1,1,2.3,1.1,3.3,1.1h19.7c1,0,2.3-0.1,3.3-1.1c1-1,1.1-2.3,1.1-3.3v-19.8C591.1,159.3,591,157.9,590,156.9z
		 M588.2,160.2v19.8c0,1-0.2,1.2-0.2,1.3s-0.2,0.2-1.2,0.2H567c-1,0-1.2-0.2-1.2-0.2c0,0-0.2-0.3-0.2-1.3v-19.8c0-1,0.2-1.2,0.2-1.3
		c0,0,0.2-0.2,1.3-0.2h19.7c1,0,1.2,0.2,1.2,0.2C588,159,588.2,159.2,588.2,160.2z"/>
	<path style="fill:#FFFFFF;" d="M586.7,185.2H567c-1,0-2.3,0.1-3.3,1.1c-0.7,0.7-1.1,1.8-1.1,3.3v19.8c0,1.5,0.3,2.5,1.1,3.3
		c1,1,2.3,1.1,3.3,1.1h19.7c1,0,2.3-0.1,3.3-1.1c1-1,1.1-2.3,1.1-3.3v-19.8c0-1-0.1-2.3-1.1-3.3
		C589.1,185.3,587.7,185.2,586.7,185.2z M588.2,189.5v19.8c0,1-0.2,1.2-0.2,1.3c0,0-0.2,0.2-1.2,0.2H567c-1,0-1.2-0.2-1.3-0.2
		c0,0-0.2-0.3-0.2-1.3v-19.8c0-1,0.2-1.2,0.2-1.3c0,0,0.2-0.2,1.3-0.2h19.7c1,0,1.2,0.2,1.2,0.2S588.2,188.5,588.2,189.5z"/>
	<path style="fill:#FFFFFF;" d="M586.7,214.5H567c-1,0-2.3,0.1-3.3,1.1c-0.7,0.8-1.1,1.8-1.1,3.3v19.8c0,1.5,0.3,2.5,1.1,3.3
		c1,1,2.3,1.1,3.3,1.1h19.7c1,0,2.3-0.1,3.3-1.1c1-1,1.1-2.3,1.1-3.3v-19.8c0-1-0.1-2.3-1.1-3.3
		C589.1,214.6,587.7,214.5,586.7,214.5z M588.2,218.8v19.8c0,1-0.2,1.2-0.2,1.3c0,0-0.2,0.2-1.2,0.2H567c-1,0-1.2-0.2-1.3-0.2
		c0,0-0.2-0.3-0.2-1.3v-19.8c0-1,0.2-1.2,0.2-1.3c0,0,0.2-0.2,1.3-0.2h19.7c1,0,1.2,0.2,1.2,0.2S588.2,217.8,588.2,218.8z"/>
	<path style="fill:#FFFFFF;" d="M586.7,243.7H567c-1,0-2.3,0.1-3.3,1.1c-0.7,0.7-1.1,1.8-1.1,3.3V268c0,1.5,0.3,2.5,1.1,3.3
		c1,1,2.3,1.1,3.3,1.1h19.7c1,0,2.3-0.1,3.3-1.1c1-1,1.1-2.3,1.1-3.3v-19.8c0-1-0.1-2.4-1.1-3.3
		C589.1,243.9,587.7,243.7,586.7,243.7z M588.2,248.1V268c0,1-0.2,1.2-0.2,1.3c0,0-0.2,0.2-1.2,0.2H567c-1,0-1.2-0.2-1.3-0.2
		c0,0-0.2-0.3-0.2-1.2v-19.8c0-1,0.2-1.2,0.2-1.3c0,0,0.2-0.2,1.2-0.2h19.7c1,0,1.2,0.2,1.3,0.2C588,246.9,588.2,247.1,588.2,248.1z
		"/>
	<path style="fill:#FFFFFF;" d="M566.4,119.3h19.7c1,0,2.3-0.1,3.3-1.1c1-1,1.1-2.3,1.1-3.3V95.1c0-1-0.1-2.3-1.1-3.3
		c-1-1-2.3-1.1-3.3-1.1h-19.7c-1,0-2.3,0.1-3.3,1.1c-1,1-1.1,2.3-1.1,3.3V115c0,1,0.1,2.3,1.1,3.3
		C564.1,119.2,565.5,119.3,566.4,119.3z M565,115V95.1c0-0.9,0.2-1.2,0.2-1.2c0,0,0.3-0.2,1.2-0.2h19.7c1,0,1.2,0.2,1.3,0.2
		c0,0,0.2,0.3,0.2,1.2V115c0,1-0.2,1.2-0.2,1.3c0,0-0.2,0.2-1.3,0.2h-19.7c-1,0-1.2-0.2-1.2-0.2C565.2,116.2,565,116,565,115z"/>
	<path style="fill:#FFFFFF;" d="M472.3,124.3H16.6v0c-1.5,0-2.5,0.3-3.3,1.1c-0.9,0.9-1.1,2.2-1.1,3.3v112.4c0,1,0.1,2.3,1.1,3.3
		c0.7,0.7,1.8,1.1,3.3,1.1h90c0.1,0,0.1,0,0.2,0c0,0,0,0.1,0,0.1v24.8c0,1,0.1,2.3,1.1,3.3c1,1,2.3,1.1,3.3,1.1H404
		c1,0,2.3-0.1,3.3-1.1c1-1,1.1-2.3,1.1-3.3v-24.5c0-0.3,0-0.4,0-0.4c0,0,0.1-0.1,0.5-0.1h63.4c1.5,0,2.5-0.3,3.3-1.1
		c0.7-0.8,1.1-1.8,1.1-3.3V128.7c0-1.5-0.3-2.5-1.1-3.3C474.9,124.7,473.8,124.3,472.3,124.3z M81.7,240.5c0.2,0.5,0.4,1.1,0.9,1.5
		c0.2,0.2,0.5,0.4,0.8,0.6h-3.3c0.3-0.2,0.6-0.3,0.8-0.6C81.3,241.6,81.6,241.1,81.7,240.5z M84.4,238.8v-19.9
		c0-0.9,0.2-1.2,0.2-1.2c0.1-0.1,0.3-0.2,1.2-0.2h19.8c0.9,0,1.2,0.2,1.2,0.2c0.1,0.1,0.2,0.3,0.2,1.2v19.9c0,0.9-0.2,1.2-0.2,1.2
		s-0.3,0.2-1.2,0.2H85.9c-0.9,0-1.2-0.2-1.2-0.2C84.6,239.9,84.4,239.7,84.4,238.8z M17.2,238.8v-19.9c0-0.9,0.2-1.2,0.2-1.2
		c0.1-0.1,0.3-0.2,1-0.2h59.1c1,0,1.2,0.2,1.2,0.2c0,0,0.2,0.3,0.2,1.2v19.9c0,0.9-0.2,1.2-0.2,1.2c0,0-0.3,0.2-1.3,0.2H18.7
		c-0.9,0-1.2-0.2-1.2-0.2C17.4,239.9,17.2,239.7,17.2,238.8z M15.4,242c0.2,0.2,0.5,0.4,0.8,0.6c-0.6-0.1-0.8-0.2-0.8-0.2
		c0,0-0.1-0.2-0.2-0.6C15.3,241.9,15.3,242,15.4,242z M17.2,210.1v-19.9c0-0.9,0.2-1.2,0.2-1.2c0,0,0.3-0.2,1-0.2h45.9
		c0.9,0,1.2,0.2,1.2,0.2c0.1,0.1,0.2,0.3,0.2,1.2v19.9c0,0.9-0.2,1.2-0.2,1.2c-0.1,0.1-0.3,0.2-1.2,0.2H18.7c-0.9,0-1.2-0.2-1.2-0.2
		C17.4,211.2,17.2,211,17.2,210.1z M70.6,210.1v-19.9c0-0.9,0.2-1.2,0.2-1.2c0.1-0.1,0.3-0.2,1.2-0.2h19.8c0.9,0,1.2,0.2,1.2,0.2
		c0.1,0.1,0.2,0.3,0.2,1.2v19.9c0,0.9-0.2,1.2-0.2,1.2c-0.1,0.1-0.3,0.2-1.2,0.2H72.1c-0.9,0-1.2-0.2-1.2-0.2
		C70.8,211.2,70.6,211,70.6,210.1z M108.9,242c0.5-0.5,0.8-1.2,0.9-1.8h0.2v-21.3c0-1.5-0.3-2.5-1.1-3.3c-0.7-0.7-1.8-1.1-3.3-1.1
		H85.9c-1.5,0-2.5,0.3-3.3,1.1c-0.5,0.5-0.7,1-0.9,1.5c-0.2-0.5-0.4-1.1-0.9-1.5c-0.7-0.7-1.8-1.1-3.3-1.1H18.7
		c-1.5,0-2.5,0.3-3.3,1.1c-0.1,0.1-0.2,0.2-0.2,0.3v-2.9c0.1,0.1,0.1,0.2,0.2,0.3c0.7,0.7,1.8,1.1,3.3,1.1h45.7
		c1.5,0,2.5-0.3,3.3-1.1c0.2-0.2,0.4-0.5,0.6-0.8c0.1,0.3,0.3,0.6,0.6,0.8c0.7,0.7,1.8,1.1,3.3,1.1h19.8c1.5,0,2.5-0.3,3.3-1.1
		c0.7-0.7,1.1-1.8,1.1-3.3v-19.9c0-1.5-0.3-2.5-1.1-3.3c-0.7-0.7-1.8-1.1-3.3-1.1H72.1c-1.5,0-2.5,0.3-3.3,1.1
		c-0.3,0.3-0.5,0.5-0.6,0.8c-0.2-0.3-0.3-0.6-0.6-0.8c-0.7-0.7-1.8-1.1-3.3-1.1H18.7c-1.5,0-2.5,0.3-3.3,1.1
		c-0.1,0.1-0.2,0.2-0.2,0.3v-3.5c0.2,0.3,0.3,0.6,0.6,0.9c0.7,0.7,1.8,1.1,3.3,1.1H57c1.5,0,2.5-0.3,3.3-1.1
		c0.9-0.9,1.1-2.2,1.1-3.3v-19.9c0-1-0.1-2.3-1.1-3.3c-0.7-0.7-1.8-1.1-3.3-1.1l-37.9,0c-1.5,0-2.5,0.3-3.3,1.1
		c-0.3,0.3-0.5,0.6-0.6,0.9v-30.4c0-0.9,0.2-1.2,0.2-1.2c0,0,0.3-0.2,1.2-0.2l455.7,0c0.9,0,1.2,0.2,1.2,0.2
		c0.1,0.1,0.2,0.3,0.2,1.2v112.4c0,0.9-0.2,1.2-0.2,1.2s-0.3,0.2-1.2,0.2h-0.9c0.3-0.2,0.6-0.3,0.8-0.6c0.9-0.9,1.1-2.2,1.1-3.3
		v-19.9c0-1-0.1-2.3-1.1-3.3c-0.7-0.7-1.8-1.1-3.3-1.1h-59.5c-1.5,0-2.5,0.3-3.3,1.1c-0.7,0.8-1.1,1.8-1.1,3.3v19.9
		c0,1.5,0.3,2.5,1.1,3.3c0.4,0.4,0.8,0.6,1.3,0.8c-0.4,0.1-0.7,0.3-0.9,0.5c-0.7,0.6-1,1.5-1,2.5v24.5c0,1-0.2,1.2-0.2,1.3
		c0,0-0.3,0.2-1.2,0.2H111.1c-1,0-1.2-0.2-1.3-0.2c0,0-0.2-0.2-0.2-1.3v-0.3c0,0.1,0.1,0.1,0.1,0.2c1,1,2.3,1.1,3.3,1.1h258.3
		c1,0,2.4-0.1,3.3-1.1c1-1,1.1-2.3,1.1-3.3v-19.8c0-1-0.1-2.3-1.1-3.3c-0.7-0.7-1.5-0.9-2.3-1c0.5-0.2,1-0.5,1.4-0.8
		c0.8-0.7,1.1-1.8,1.1-3.3v-19.9c0-1.5-0.3-2.5-1.1-3.3c-0.7-0.7-1.8-1.1-3.3-1.1h-19.8c-1.5,0-2.5,0.3-3.3,1.1
		c-0.9,0.9-1.1,2.2-1.1,3.3v19.9c0,1,0.1,2.3,1.1,3.3c0.3,0.3,0.8,0.6,1.3,0.8h-5.6c0.5-0.2,0.9-0.4,1.3-0.8
		c0.9-0.9,1.1-2.2,1.1-3.3v-19.9c0-1-0.1-2.3-1.1-3.3c-0.7-0.7-1.8-1.1-3.3-1.1h-19.7c-1.5,0-2.5,0.3-3.3,1.1
		c-0.9,0.9-1.1,2.2-1.1,3.3v19.9c0,1,0.1,2.3,1.1,3.3c0.3,0.3,0.8,0.6,1.3,0.8h-5.6c0.5-0.2,0.9-0.4,1.3-0.8
		c0.7-0.7,1.1-1.8,1.1-3.3v-19.9c0-1-0.1-2.3-1.1-3.3c-0.8-0.7-1.8-1.1-3.3-1.1h-19.8c-1.5,0-2.5,0.3-3.3,1.1
		c-0.9,0.9-1.1,2.2-1.1,3.3v19.9c0,1,0.1,2.3,1.1,3.3c0.3,0.3,0.8,0.6,1.3,0.8h-5.6c0.5-0.2,0.9-0.4,1.3-0.8
		c0.9-0.9,1.1-2.2,1.1-3.3v-19.9c0-1-0.1-2.3-1.1-3.3c-0.7-0.7-1.8-1.1-3.3-1.1h-19.7c-1.5,0-2.5,0.3-3.3,1.1
		c-0.9,0.9-1.1,2.2-1.1,3.3v19.9c0,1,0.1,2.3,1.1,3.3c0.3,0.3,0.8,0.6,1.3,0.8h-5.6c0.5-0.2,0.9-0.4,1.3-0.8
		c0.9-0.9,1.1-2.2,1.1-3.3v-19.9c0-1-0.1-2.3-1.1-3.3c-0.7-0.7-1.8-1.1-3.3-1.1H233c-1.5,0-2.5,0.3-3.3,1.1
		c-0.7,0.8-1.1,1.8-1.1,3.3v19.9c0,1.5,0.3,2.5,1.1,3.3c0.3,0.3,0.8,0.6,1.3,0.8h-5.6c0.5-0.2,0.9-0.4,1.3-0.8
		c0.9-0.9,1.1-2.2,1.1-3.3v-19.9c0-1-0.1-2.3-1.1-3.3c-0.7-0.7-1.8-1.1-3.3-1.1h-19.7c-1.5,0-2.5,0.3-3.3,1.1
		c-0.9,0.9-1.1,2.2-1.1,3.3v19.9c0,1,0.1,2.3,1.1,3.3c0.3,0.3,0.8,0.6,1.3,0.8h-5.6c0.5-0.2,0.9-0.4,1.3-0.8
		c0.9-0.9,1.1-2.2,1.1-3.3v-19.9c0-1-0.1-2.3-1.1-3.3c-0.7-0.7-1.8-1.1-3.3-1.1h-19.8c-1.5,0-2.5,0.3-3.3,1.1
		c-0.7,0.7-1.1,1.8-1.1,3.3v19.9c0,1.5,0.3,2.5,1.1,3.3c0.3,0.3,0.8,0.6,1.3,0.8h-5.6c0.5-0.2,0.9-0.4,1.3-0.8
		c0.7-0.7,1.1-1.8,1.1-3.3v-19.9c0-1.5-0.3-2.5-1.1-3.3c-0.7-0.7-1.8-1.1-3.3-1.1h-19.8c-1.5,0-2.5,0.3-3.3,1.1
		c-0.9,0.9-1.1,2.2-1.1,3.3v19.9c0,1,0.1,2.3,1.1,3.3c0.3,0.3,0.8,0.6,1.3,0.8h-5.6c0.5-0.2,0.9-0.4,1.3-0.8
		c0.9-0.9,1.1-2.2,1.1-3.3v-19.9c0-1-0.1-2.3-1.1-3.3c-0.7-0.7-1.8-1.1-3.3-1.1h-19.8c-1.5,0-2.5,0.3-3.3,1.1
		c-0.7,0.7-1.1,1.8-1.1,3.3v19.9c0,1.5,0.3,2.5,1.1,3.3c0.3,0.3,0.8,0.6,1.3,0.8h-0.2c-1,0-2.3,0.1-3.3,1.1
		c-0.1,0.1-0.3,0.3-0.4,0.4c-0.2-0.5-0.4-0.8-0.7-1.1c-0.3-0.2-0.6-0.4-0.9-0.5C108.2,242.6,108.6,242.3,108.9,242z M17.6,181.4
		v-19.9c0-0.9,0.2-1.2,0.2-1.2c0,0,0.2-0.2,0.8-0.2H57c0.9,0,1.1,0.2,1.2,0.2c0.1,0.1,0.2,0.3,0.2,1.2v19.9c0,0.9-0.2,1.2-0.2,1.2
		c-0.1,0.1-0.3,0.2-1.2,0.2H19.1c-0.9,0-1.2-0.2-1.2-0.2C17.7,182.4,17.6,182,17.6,181.4z M470.4,218.9v19.9c0,0.9-0.2,1.2-0.2,1.2
		c0,0-0.3,0.2-1.3,0.2h-59.5c-1,0-1.2-0.2-1.3-0.2c-0.1-0.1-0.2-0.3-0.2-1.2v-19.9c0-0.9,0.2-1.1,0.2-1.2c0,0,0.3-0.2,1.3-0.2H469
		c1,0,1.2,0.2,1.3,0.2C470.3,217.7,470.4,218,470.4,218.9z M135.1,240.2h-19.8c-0.9,0-1.1-0.2-1.2-0.2c-0.1-0.1-0.2-0.3-0.2-1.2
		v-19.9c0-0.9,0.2-1.2,0.2-1.2c0.1-0.1,0.3-0.2,1.2-0.2h19.8c0.9,0,1.2,0.2,1.2,0.2c0.1,0.1,0.2,0.3,0.2,1.2v19.9
		c0,0.9-0.2,1.2-0.2,1.2C136.3,240,136,240.2,135.1,240.2z M165.7,240c-0.1,0.1-0.3,0.2-1.2,0.2h-19.8c-1,0-1.2-0.2-1.3-0.2
		c0,0-0.2-0.3-0.2-1.2v-19.9c0-0.9,0.2-1.2,0.2-1.2c0,0,0.3-0.2,1.3-0.2h19.8c0.9,0,1.2,0.2,1.2,0.2c0.1,0.1,0.2,0.3,0.2,1.2v19.9
		C166,239.7,165.8,239.9,165.7,240z M195.4,218.9v19.9c0,0.9-0.2,1.2-0.2,1.2c-0.1,0.1-0.3,0.2-1.2,0.2h-19.8
		c-0.9,0-1.1-0.2-1.2-0.2c-0.1-0.1-0.2-0.3-0.2-1.2v-19.9c0-0.9,0.2-1.1,0.2-1.2c0.1-0.1,0.3-0.2,1.2-0.2h19.8
		c0.9,0,1.2,0.2,1.2,0.2C195.2,217.7,195.4,218,195.4,218.9z M224.6,240c0,0-0.3,0.2-1.3,0.2h-19.7c-1,0-1.2-0.2-1.3-0.2
		c0,0-0.2-0.3-0.2-1.2v-19.9c0-0.9,0.2-1.2,0.2-1.2c0,0,0.3-0.2,1.3-0.2h19.7c1,0,1.2,0.2,1.2,0.2c0,0,0.2,0.3,0.2,1.2v19.9
		C224.8,239.7,224.6,239.9,224.6,240z M254.2,218.9v19.9c0,0.9-0.2,1.2-0.2,1.2c-0.1,0.1-0.3,0.2-1.2,0.2H233
		c-0.9,0-1.2-0.2-1.2-0.2c-0.1-0.1-0.2-0.3-0.2-1.2v-19.9c0-0.9,0.2-1.1,0.2-1.2c0.1-0.1,0.3-0.2,1.2-0.2h19.8
		c0.9,0,1.2,0.2,1.2,0.2C254,217.7,254.2,218,254.2,218.9z M283.4,240c0,0-0.3,0.2-1.3,0.2h-19.7c-1,0-1.2-0.2-1.3-0.2
		c0,0-0.2-0.3-0.2-1.2v-19.9c0-0.9,0.2-1.2,0.2-1.2c0,0,0.3-0.2,1.3-0.2h19.7c1,0,1.2,0.2,1.2,0.2c0,0,0.2,0.3,0.2,1.2v19.9
		C283.6,239.7,283.5,239.9,283.4,240z M291.9,240.2c-0.9,0-1.2-0.2-1.2-0.2c-0.1-0.1-0.2-0.3-0.2-1.2v-19.9c0-0.9,0.2-1.1,0.2-1.2
		c0.1-0.1,0.3-0.2,1.2-0.2h19.8c0.9,0,1.2,0.2,1.2,0.2c0.1,0.1,0.2,0.3,0.2,1.2v19.9c0,0.9-0.2,1.2-0.2,1.2
		c-0.1,0.1-0.3,0.2-1.2,0.2H291.9z M342.5,218.9v19.9c0,0.9-0.2,1.2-0.2,1.2c0,0-0.3,0.2-1.2,0.2h-19.7c-1,0-1.2-0.2-1.3-0.2
		c0,0-0.2-0.3-0.2-1.2v-19.9c0-0.9,0.2-1.2,0.2-1.2c0,0,0.3-0.2,1.3-0.2H341c1,0,1.2,0.2,1.2,0.2C342.3,217.7,342.5,218,342.5,218.9
		z M371.7,240c-0.1,0.1-0.3,0.2-1.2,0.2h-19.8c-0.9,0-1.2-0.2-1.2-0.2c-0.1-0.1-0.2-0.3-0.2-1.2v-19.9c0-0.9,0.2-1.1,0.2-1.2
		c0.1-0.1,0.3-0.2,1.2-0.2h19.8c0.9,0,1.2,0.2,1.2,0.2c0.1,0.1,0.2,0.3,0.2,1.2v19.9C371.9,239.7,371.7,239.9,371.7,240z M111.6,267
		v-19.8c0-0.9,0.2-1.2,0.2-1.2c0.1-0.1,0.3-0.2,1.2-0.2h258.3c1,0,1.2,0.2,1.3,0.2c0,0,0.2,0.3,0.2,1.2V267c0,1-0.2,1.2-0.2,1.3
		s-0.2,0.2-1.3,0.2H113.1c-0.9,0-1.2-0.2-1.2-0.2C111.8,268.2,111.6,268,111.6,267z"/>
</g>
</svg>
