<?xml version="1.0" encoding="utf-8"?>
<!-- Generator: Adobe Illustrator 24.0.1, SVG Export Plug-In . SVG Version: 6.00 Build 0)  -->
<svg version="1.1"
	 id="Layer_1" xmlns:cc="http://creativecommons.org/ns#" xmlns:dc="http://purl.org/dc/elements/1.1/" xmlns:rdf="http://www.w3.org/1999/02/22-rdf-syntax-ns#"
	 xmlns="http://www.w3.org/2000/svg" xmlns:xlink="http://www.w3.org/1999/xlink" x="0px" y="0px" viewBox="0 0 566.9 134.5"
	 style="enable-background:new 0 0 566.9 134.5;" xml:space="preserve">
<g id="g3">
	<g id="g5">
		<path id="path7" style="fill:#FFFFFF;" d="M18.4,112.6l1.4-18.1h7.5l1.5,18.1h18.5L35.7,20.9H11.8L0,112.6H18.4 M26.2,79.3h-5.3
			l2.7-35.6L26.2,79.3 M77.6,20.9H51.7v91.7h17.7V60.4l7.3,52.2h11.5l7-51.9v51.9h17.7V20.9H87l-4.8,40.5L77.6,20.9 M116,32.1
			c0,6.3-0.1,12.6,0,19c0,1,0.1,2.1,0.2,2.8c0.1,1.6,0.3,2,0.5,3.1c0.3,1,0.7,2.3,1.4,3.4c0.3,0.5,0.7,1,1.3,1.6s1.3,1.3,2.1,2
			c1.6,1.4,3.4,2.5,5.1,3.4c3.9,2.1,7.7,4.2,11.6,6.4c0.5,0.3,1.1,0.6,1.6,1.1c1.3,1.3,1.3,2.8,1.3,4.2l0.1,2l0,12.4
			c0,0.9-0.1,1.8-0.5,2.8c-0.1,0.3-0.4,0.5-0.6,0.8c-0.8,0.7-1.8,0.8-2.7,0.4c-0.3-0.1-0.6-0.3-0.8-0.5c-1-0.9-0.9-2.3-1-3.4l0-18.7
			H116l0,20.9c0,2.6,0,5,0.6,7.5c0.3,1.3,0.8,2.6,1.5,3.9s1.7,2.3,2.8,3.1c1.1,0.8,2.4,1.4,3.5,1.8c1,0.4,1.8,0.5,2.5,0.6
			s1.5,0.2,2.3,0.2l19.8,0c0.9,0,1.8,0,2.9-0.3c1.1-0.3,2.4-0.8,3.6-1.6c1.1-0.7,2.1-1.6,2.8-2.6s1-2,1.3-2.9s0.6-1.8,0.8-2.9
			c0.2-1.1,0.3-2.5,0.4-3.9c0.1-1.4,0-2.8,0-4.2V79.7c0-0.3,0-0.6,0-1.2c0-0.6,0-1.6-0.1-2.7c0-1.1-0.1-2.3-0.2-3.1
			c-0.1-0.8-0.1-1.2-0.2-1.5c-0.1-0.4-0.2-0.7-0.3-1.1c-0.1-0.4-0.2-0.7-0.5-1.3c-0.3-0.6-0.7-1.5-1.3-2.3c-0.5-0.8-1.2-1.5-1.9-2.2
			c-0.7-0.7-1.5-1.2-2.4-1.8c-1.8-1.2-3.8-2.5-5.8-3.6l-8.3-4.5c-0.5-0.3-1-0.6-1.5-0.9c-0.5-0.3-0.9-0.6-1.2-0.9
			c-0.5-0.4-0.5-0.4-0.7-0.7c-0.1-0.1-0.2-0.2-0.3-0.4c-0.3-0.5-0.7-1.4-0.8-2.1c0-0.4,0-0.8,0-1.2c0-2.9,0-5.9,0-8.7
			c0-0.6,0-1.4,0.2-2.1c0.1-0.3,0.3-0.7,0.4-0.9c0.9-1.3,2.1-1.4,3.3-0.9c0.3,0.1,0.5,0.4,0.8,0.6c0.2,0.2,0.4,0.5,0.5,0.8
			c0.1,0.3,0.2,0.6,0.3,1.1c0.1,0.9,0.1,2.2,0.1,3.3v10.9h19.6c0-5.6,0.1-11.3-0.1-16.9c-0.1-1.3-0.1-2.6-0.2-3.5
			c-0.1-0.9-0.1-1.3-0.2-1.7c-0.1-0.4-0.2-0.8-0.3-1.2c-0.1-0.4-0.2-0.8-0.6-1.5c-0.3-0.7-0.8-1.7-1.4-2.5c-0.6-0.9-1.4-1.6-2.3-2.2
			c-0.9-0.6-1.9-1.1-2.7-1.4c-1.7-0.6-2.9-0.7-4.4-0.8c-0.7-0.1-1.4-0.1-2.1-0.1l-17,0.1c-1.9,0.1-3.9,0.3-5.9,0.9
			c-0.6,0.2-1.2,0.4-1.8,0.7c-1.1,0.6-2,1.3-3,2.4c-0.5,0.6-1,1.4-1.4,2.2C116.6,28.5,116.1,30.3,116,32.1 M164,20.9v14.8h9.8v76.9
			h19.6V35.7h9.7V20.9L164,20.9 M229.1,20.9h-20.9v91.7h19.6V76c1.3,0,2.6-0.1,3.9,0.3c0.3,0.1,0.5,0.2,0.8,0.4
			c0.9,0.8,0.8,1.8,1,2.7c0.2,1.9,0,3.8,0.1,5.7v27.5h19.6l0-28.7c0-2.8-0.2-5.6-0.8-8.4c-0.2-0.6-0.4-1.3-0.7-1.9
			c-0.4-1-1-1.9-1.7-2.8c-0.7-0.8-1.6-1.5-2.5-2.1c-0.9-0.6-1.9-1-3-1.3c0.5-0.1,1-0.3,1.5-0.5c1-0.4,2-0.9,2.8-1.6
			c0.8-0.7,1.6-1.5,2.1-2.4c0.6-0.9,1-1.9,1.2-3c0.2-0.8,0.4-1.5,0.5-2.3c0.5-3.1,0.6-6.2,0.6-9.3v-9.6c0.1-1.9,0-3.8-0.3-5.7
			c-0.1-0.9-0.3-1.9-0.4-2.7c-0.2-0.8-0.3-1.4-0.6-2s-0.5-1.2-0.8-1.7c-0.3-0.6-0.7-1.1-1.1-1.6c-0.7-0.7-1.4-1.3-2.2-1.8
			c-1.7-1.1-3.5-1.7-5.4-1.8C237.9,20.9,233.5,21,229.1,20.9 M227.9,35.8c0.9,0,1.8,0,2.8,0c0.4,0,0.9,0.2,1.3,0.3
			c1.3,0.8,1.3,1.9,1.5,2.9c0.1,1.2,0.1,2.3,0.1,3.5c0,4,0.1,8,0,12c0,0.7-0.1,1.4-0.2,2.1c0,0.3-0.1,0.7-0.3,1
			c-0.2,0.3-0.4,0.6-0.6,0.8c-0.6,0.5-1.4,0.6-2.1,0.6c-0.8,0.1-1.6,0.1-2.4,0V35.8 M275.6,112.6l1.4-18.1h7.5l1.5,18.1h18.5
			l-11.6-91.7h-23.9l-11.8,91.7H275.6 M283.3,79.3H278l2.7-35.6L283.3,79.3 M351.1,26.6c-0.7-1.1-1.5-2-2.5-2.8
			c-1-0.8-2.2-1.3-3-1.7c-0.9-0.3-1.4-0.5-2-0.5c-0.6-0.1-1.1-0.2-1.7-0.3c-0.6-0.1-1.1-0.1-2.5-0.2c-1.3-0.1-3.5-0.2-5.6-0.2
			l-25.4,0v91.7l31.1-0.1c0.8,0,1.5-0.2,2.3-0.4c1.6-0.3,3-0.6,4.5-1.3c0.8-0.4,1.6-0.8,2.4-1.4c0.8-0.6,1.5-1.3,2.1-2.4
			c0.7-1.1,1.3-2.5,1.7-4.3c0.5-1.8,0.8-3.9,0.8-6l-0.1-62.6c0-1.4-0.4-2.8-0.7-4.1C352.2,28.8,351.7,27.6,351.1,26.6 M329.2,35.9
			c0.4,0,0.8,0,1.2,0c0.4,0,0.8,0.1,1.1,0.2c0.3,0.1,0.6,0.2,0.8,0.4c0.2,0.1,0.4,0.3,0.6,0.6c0.7,1,0.6,2.5,0.7,3.7v52.8
			c0,0.4,0,0.8-0.1,1.2c-0.1,0.4-0.1,0.7-0.3,1.1s-0.3,0.6-0.5,0.8c-0.2,0.2-0.4,0.4-0.7,0.6s-0.6,0.3-0.9,0.3H328V35.9L329.2,35.9"
			/>
	</g>
	<g id="g9">
		<path id="path11" style="fill:#FFFFFF;" d="M429.8,103.1h-21.4c-2.6-0.1-4.5-0.2-5.9-0.3c-1.1-0.1-1.9-0.5-2.6-1.2
			c-0.6-0.6-0.9-1.5-1-2.8c-0.1-1.5-0.2-3.8-0.3-6.8V40.6c0-2.5,0.1-4.5,0.2-5.9c0.1-1.3,0.6-2.2,1.4-2.9c0.7-0.7,1.5-1.1,2.4-1.2
			c1.1-0.1,3.1-0.2,5.9-0.2h21.3v14.9h10V20.9h-33.8c-2.5,0-5,0.2-7.4,0.5c-2.6,0.3-5,1.4-7,3.3c-2.1,2.1-3.3,4.6-3.6,7.6
			c-0.3,2.7-0.4,6-0.4,9.9v51.5c0,3.4,0.2,6.3,0.5,8.6c0.3,2.5,1.4,4.7,3.3,6.5c1.8,1.8,4.1,3,6.7,3.3c2.4,0.3,5.6,0.5,9.4,0.5h32.6
			V88.3h-10.1L429.8,103.1L429.8,103.1z"/>
		<path id="path13" style="fill:#FFFFFF;" d="M506.2,36.8c0-1.8-0.1-3.5-0.2-5.2c-0.1-1.7-0.5-3.3-1.2-4.6c-0.7-1.4-1.7-2.6-3-3.5
			c-1.3-1-3.1-1.7-5.4-2.2c-0.6-0.1-1.2-0.2-1.7-0.2c-0.5,0-1.2-0.1-2-0.1c-0.8,0-1.9-0.1-3.2-0.1h-41.3v9.5h8.6v72.8h-8.6v9.5h28.5
			v-9.5h-8.8V70.9h20.7c1.8,0,3.6,0,5.2-0.1c1.8-0.1,3.4-0.4,4.9-0.8c1.5-0.5,2.9-1.3,4.1-2.4c1.2-1.1,2.1-2.7,2.7-4.6
			c0.4-1.2,0.6-2.5,0.7-3.9c0.1-1.4,0.1-3.2,0-5.4V36.8z M495.5,40.4v11.5c0,2.2-0.1,4-0.2,5.3c-0.1,1.2-0.4,2.2-0.9,2.8
			c-0.5,0.6-1.3,1.1-2.5,1.3c-1.3,0.3-3.3,0.4-5.8,0.4h-18.1V30.4h17.6c2.5,0,4.4,0.1,5.8,0.3c1.2,0.1,2.1,0.5,2.7,1
			c0.5,0.5,0.9,1.4,1.1,2.7C495.3,35.7,495.4,37.8,495.5,40.4L495.5,40.4z"/>
		<path id="path15" style="fill:#FFFFFF;" d="M556.8,88.3v14.9h-21.4c-2.6-0.1-4.5-0.2-5.9-0.3c-1.1-0.1-1.9-0.5-2.6-1.2
			c-0.6-0.6-0.9-1.5-1-2.8c-0.1-1.5-0.2-3.8-0.3-6.8V40.6c0-2.5,0.1-4.5,0.2-5.9c0.1-1.3,0.6-2.2,1.4-2.9c0.7-0.7,1.5-1.1,2.4-1.2
			c1.1-0.1,3.1-0.2,5.9-0.2h21.3v14.9h10V20.9H533c-2.5,0-5,0.2-7.4,0.5c-2.6,0.3-5,1.4-7,3.3c-2.1,2.1-3.3,4.6-3.6,7.6
			c-0.3,2.7-0.5,6-0.5,9.9v51.5c0,3.4,0.2,6.3,0.5,8.6c0.3,2.5,1.4,4.7,3.3,6.5c1.8,1.8,4.1,3,6.7,3.3c2.4,0.3,5.6,0.5,9.4,0.5h32.6
			V88.3H556.8L556.8,88.3z"/>
	</g>
</g>
</svg>
