<?xml version="1.0" encoding="utf-8"?>
<!-- Generator: Adobe Illustrator 24.0.1, SVG Export Plug-In . SVG Version: 6.00 Build 0)  -->
<svg version="1.1"
	 id="Layer_3" xmlns:cc="http://creativecommons.org/ns#" xmlns:dc="http://purl.org/dc/elements/1.1/" xmlns:rdf="http://www.w3.org/1999/02/22-rdf-syntax-ns#"
	 xmlns="http://www.w3.org/2000/svg" xmlns:xlink="http://www.w3.org/1999/xlink" x="0px" y="0px" viewBox="0 0 598.2 350.3"
	 style="enable-background:new 0 0 598.2 350.3;" xml:space="preserve">
<g>
	<path style="fill:#FFFFFF;" d="M558.3,68.4H42l0.2,0.2C32.7,69.8,24.2,79,24.2,88.6v177.7c0,5.7,2.2,10.9,6.3,14.7
		c3.8,3.5,8.8,5.5,13.9,5.5h513.9c6.4,0,11.4-1.7,14.8-4.9c3.6-3.4,5.4-8.6,5.4-15.3V88.6C578.6,78.9,570.8,68.4,558.3,68.4z
		 M44.3,72.2L44.3,72.2l514,0c10.1,0,16.4,8.5,16.4,16.4v177.7c0,5.7-1.4,9.8-4.2,12.5c-2.7,2.6-6.8,3.9-12.2,3.9H44.4
		c-8,0-16.4-6.1-16.4-16.4V88.6C28.1,80.3,36.2,72.3,44.3,72.2z"/>
	<path style="fill:#FFFFFF;" d="M62.7,249.8h480.4c1.5,0,3-0.7,4.3-2c1.3-1.3,2-2.8,2-4.3V107.9c0-1.5-0.7-3-2-4.3
		c-1.3-1.3-2.8-2-4.3-2H62.7c-1.5,0-3,0.7-4.3,2c-1.3,1.3-2.1,2.8-2.1,4.3v135.6c0,1.9,1.1,3.4,2.1,4.3
		C59.8,249.1,61.2,249.8,62.7,249.8z M545.6,243.5c0,0.2-0.3,1-0.9,1.6c-0.6,0.6-1.3,0.9-1.6,0.9H412.8c0.9-0.1,1.9-0.3,2.7-1.1
		c1-1,1.2-2.5,1.2-3.4v-21.3c0-0.6,0-1.2-0.3-1.9c0.4-0.1,0.8-0.3,1.1-0.6c1,0.8,2.3,1,3.2,1h21.3c0.9,0,2.2-0.1,3.2-1
		c1,0.9,2.3,1,3.2,1H481c1,0,2.4-0.1,3.4-1.2c1-1,1.1-2.4,1.1-3.4v-21.3c0-1-0.1-2.2-1-3.2c0.8-1,1-2.3,1-3.2v-21.4
		c0-0.6,0-1.3-0.3-2h3.5c1,0,2.4-0.1,3.4-1.2c1-1,1.2-2.5,1.2-3.4v-21.3c0-0.8-0.1-2-0.8-3c0.9-1,1-2.3,1-3.2v-21.3
		c0-1-0.1-2.4-1.2-3.4c-0.2-0.2-0.5-0.4-0.7-0.5h51.4c0.2,0,1,0.3,1.6,0.9c0.6,0.6,0.9,1.4,0.9,1.6V243.5z M126.5,220.1
		c0-0.4,0-0.6,0.1-0.7c0.1,0,0.3-0.1,0.7-0.1l21.3,0c0.4,0,0.6,0,0.7,0c0,0.1,0.1,0.3,0.1,0.7v21.3c0,0.4,0,0.6-0.1,0.7
		c-0.1,0-0.3,0.1-0.7,0.1h-21.3c-0.4,0-0.6,0-0.7-0.1c0-0.1-0.1-0.3-0.1-0.7V220.1z M134.4,109.4c0-0.4,0-0.6,0.1-0.7
		c0.1,0,0.3,0,0.5-0.1h21.4c0.4,0,0.6,0,0.7,0.1c0,0.1,0.1,0.3,0.1,0.7v21.3c0,0.4,0,0.6-0.1,0.7c-0.1,0-0.3,0.1-0.7,0.1h-21.3
		c-0.4,0-0.6,0-0.6,0c0-0.1-0.1-0.3-0.1-0.7V109.4z M267.3,108.7c0.4,0,0.6,0,0.7,0.1c0,0.1,0.1,0.3,0.1,0.7v21.3
		c0,0.4,0,0.6-0.1,0.7c-0.1,0-0.3,0.1-0.7,0.1h-21.3c-0.4,0-0.6,0-0.7-0.1c0-0.1-0.1-0.3-0.1-0.7v-21.3c0-0.4,0-0.6,0.1-0.7
		c0.1,0,0.3-0.1,0.7-0.1h19.6H267.3z M295,108.7c0.4,0,0.6,0,0.7,0.1c0,0.1,0.1,0.3,0.1,0.7v21.3c0,0.4,0,0.6-0.1,0.7
		c-0.1,0-0.3,0.1-0.7,0.1h-21.4c-0.4,0-0.6,0-0.6,0c0-0.1-0.1-0.3-0.1-0.7v-21.3c0-0.4,0-0.6,0.1-0.7c0.1,0,0.3,0,0.6-0.1H295z
		 M405.8,108.7c0.4,0,0.6,0,0.7,0.1c0,0.1,0.1,0.3,0.1,0.7v21.3c0,0.4,0,0.6-0.1,0.7c-0.1,0-0.3,0.1-0.7,0.1h-21.3
		c-0.4,0-0.6,0-0.7,0c0-0.1-0.1-0.3-0.1-0.7v-21.3c0-0.4,0-0.6,0.1-0.7c0.1,0,0.3-0.1,0.7-0.1h19.6H405.8z M489.7,108.7
		c0,0.1,0.1,0.3,0.1,0.7v21.3c0,0.4,0,0.6-0.1,0.7c-0.1,0-0.3,0.1-0.7,0.1h-21.3c-0.4,0-0.6,0-0.7-0.1c0-0.1-0.1-0.3-0.1-0.7v-21.3
		c0-0.4,0-0.6,0-0.7c0.1,0,0.3-0.1,0.7-0.1H489C489.4,108.7,489.6,108.7,489.7,108.7z M459,186.2v-21.4c0-0.4,0-0.6,0.1-0.7
		c0.1,0,0.3-0.1,0.7-0.1H481c0.4,0,0.6,0,0.7,0.1c0,0.1,0.1,0.3,0.1,0.7v21.4c0,0.4,0,0.6-0.1,0.7c-0.1,0-0.3,0.1-0.7,0.1h-21.4
		c-0.4,0-0.6,0-0.7-0.1C459,186.7,459,186.5,459,186.2z M447.8,192.6c0-0.4,0-0.6,0.1-0.7c0.1,0,0.3-0.1,0.7-0.1H481
		c0.4,0,0.6,0,0.7,0.1c0,0.1,0.1,0.3,0.1,0.7v21.3c0,0.4,0,0.6-0.1,0.7c-0.1,0-0.3,0.1-0.7,0.1h-32.6c-0.4,0-0.6,0-0.7,0
		c0-0.1-0.1-0.3-0.1-0.7V192.6z M415.1,213.9c0,0.4,0,0.6-0.1,0.7c-0.1,0-0.3,0.1-0.7,0.1h-21.3c-0.4,0-0.6,0-0.7-0.1
		c0-0.1-0.1-0.3-0.1-0.7v-21.3c0-0.4,0-0.6,0.1-0.7c0.1,0,0.3-0.1,0.7-0.1h21.3c0.4,0,0.6,0,0.7,0.1c0,0.1,0.1,0.3,0.1,0.7V213.9z
		 M127.1,214.6c-0.4,0-0.6,0-0.7-0.1c0-0.1-0.1-0.3-0.1-0.7v-21.3c0-0.4,0-0.6,0-0.7c0.1,0,0.3-0.1,0.7-0.1H165c0.4,0,0.6,0,0.7,0.1
		c0,0.1,0.1,0.3,0.1,0.7v21.3c0,0.4,0,0.6-0.1,0.7c-0.1,0-0.3,0.1-0.7,0.1H127.1z M149.2,164.8v21.4c0,0.4,0,0.6-0.1,0.7
		c-0.1,0-0.3,0.1-0.7,0.1h-21.3c-0.4,0-0.6,0-0.7-0.1c0-0.1-0.1-0.3-0.1-0.7v-21.4c0-0.4,0-0.6,0-0.7c0.1,0,0.3-0.1,0.7-0.1h21.3
		c0.4,0,0.6,0,0.7,0.1C149.1,164.3,149.2,164.5,149.2,164.8z M148.1,136.9c0-0.4,0-0.6,0.1-0.7c0.1,0,0.3-0.1,0.7-0.1h21.3
		c0.4,0,0.6,0,0.7,0.1c0,0.1,0.1,0.3,0.1,0.7v21.3c0,0.4,0,0.6-0.1,0.7c-0.1,0-0.3,0.1-0.7,0.1h-21.3c-0.4,0-0.6,0-0.7,0
		c0-0.1-0.1-0.3-0.1-0.7V136.9z M175.8,136.9c0-0.4,0-0.6,0.1-0.7c0.1,0,0.3-0.1,0.7-0.1h21.4c0.4,0,0.6,0,0.7,0.1
		c0,0.1,0.1,0.3,0.1,0.7v21.3c0,0.4,0,0.6-0.1,0.7c-0.1,0-0.3,0.1-0.7,0.1h-21.4c-0.4,0-0.6,0-0.7,0c0-0.1-0.1-0.3-0.1-0.7V136.9z
		 M203.5,136.9c0-0.4,0-0.6,0.1-0.7c0.1,0,0.3-0.1,0.7-0.1h21.3c0.4,0,0.6,0,0.7,0.1c0,0.1,0.1,0.3,0.1,0.7v21.3
		c0,0.4,0,0.6-0.1,0.7c-0.1,0-0.3,0.1-0.7,0.1h-21.3c-0.4,0-0.6,0-0.7-0.1c0-0.1-0.1-0.3-0.1-0.7V136.9z M231.3,136.9
		c0-0.4,0-0.6,0.1-0.7c0.1,0,0.3-0.1,0.7-0.1h21.3c0.4,0,0.6,0,0.7,0.1c0,0.1,0.1,0.3,0.1,0.7v21.3c0,0.4,0,0.6-0.1,0.7
		c-0.1,0-0.3,0.1-0.7,0.1H232c-0.4,0-0.6,0-0.7-0.1c0-0.1-0.1-0.3-0.1-0.7V136.9z M259,136.9c0-0.4,0-0.6,0.1-0.7
		c0.1,0,0.3-0.1,0.7-0.1H281c0.4,0,0.6,0,0.7,0.1c0,0.1,0.1,0.3,0.1,0.7v21.3c0,0.4,0,0.6-0.1,0.7c-0.1,0-0.3,0.1-0.7,0.1h-21.3
		c-0.4,0-0.6,0-0.7-0.1c0-0.1-0.1-0.3-0.1-0.7V136.9z M286.7,136.9c0-0.4,0-0.6,0.1-0.7c0.1,0,0.3-0.1,0.7-0.1h21.4
		c0.4,0,0.6,0,0.7,0.1c0,0.1,0.1,0.3,0.1,0.7v21.3c0,0.4,0,0.6-0.1,0.7c-0.1,0-0.3,0.1-0.7,0.1h-21.4c-0.4,0-0.6,0-0.7,0
		c0-0.1-0.1-0.3-0.1-0.7V136.9z M314.4,136.9c0-0.4,0-0.6,0.1-0.7c0.1,0,0.3-0.1,0.7-0.1h21.4c0.4,0,0.6,0,0.7,0.1
		c0,0.1,0.1,0.3,0.1,0.7v21.3c0,0.4,0,0.6-0.1,0.7c-0.1,0-0.3,0.1-0.7,0.1h-21.4c-0.4,0-0.6,0-0.7,0c0-0.1-0.1-0.3-0.1-0.7V136.9z
		 M342.1,136.9c0-0.4,0-0.6,0.1-0.7c0.1,0,0.3-0.1,0.7-0.1h21.3c0.4,0,0.6,0,0.7,0.1c0,0.1,0.1,0.3,0.1,0.7v21.3
		c0,0.4,0,0.6-0.1,0.7c-0.1,0-0.3,0.1-0.7,0.1h-21.3c-0.4,0-0.6,0-0.7-0.1c0-0.1-0.1-0.3-0.1-0.7V136.9z M369.8,136.9
		c0-0.4,0-0.6,0.1-0.7c0.1,0,0.3-0.1,0.7-0.1h21.3c0.4,0,0.6,0,0.7,0.1c0,0.1,0.1,0.3,0.1,0.7v21.3c0,0.4,0,0.6-0.1,0.7
		c-0.1,0-0.3,0.1-0.7,0.1h-21.3c-0.4,0-0.6,0-0.7-0.1c0-0.1-0.1-0.3-0.1-0.7V136.9z M397.5,136.9c0-0.4,0-0.6,0.1-0.7
		c0.1,0,0.3-0.1,0.7-0.1h21.3c0.4,0,0.6,0,0.7,0.1c0,0.1,0.1,0.3,0.1,0.7v21.3c0,0.4,0,0.6-0.1,0.7c-0.1,0-0.3,0.1-0.7,0.1h-21.3
		c-0.4,0-0.6,0-0.7,0c0-0.1-0.1-0.3-0.1-0.7V136.9z M425.3,136.9c0-0.4,0-0.6,0.1-0.7c0.1,0,0.3-0.1,0.7-0.1h21.4
		c0.4,0,0.6,0,0.7,0.1c0,0.1,0.1,0.3,0.1,0.7v21.3c0,0.4,0,0.6-0.1,0.7c-0.1,0-0.3,0.1-0.7,0.1H426c-0.4,0-0.6,0-0.7,0
		c0-0.1-0.1-0.3-0.1-0.7V136.9z M403.5,164.8c0-0.4,0-0.6,0-0.7c0.1,0,0.3-0.1,0.7-0.1h21.3c0.4,0,0.6,0,0.7,0.1
		c0,0.1,0.1,0.3,0.1,0.7v21.4c0,0.4,0,0.6,0,0.7c-0.1,0-0.3,0.1-0.7,0.1h-21.3c-0.4,0-0.6,0-0.7-0.1c0-0.1-0.1-0.3-0.1-0.7V164.8z
		 M221.1,213.9c0,0.4,0,0.6-0.1,0.7c-0.1,0-0.3,0.1-0.7,0.1h-21.4c-0.4,0-0.6,0-0.7,0c0-0.1-0.1-0.3-0.1-0.7v-21.3
		c0-0.4,0-0.6,0.1-0.7c0.1,0,0.3-0.1,0.7-0.1h21.4c0.4,0,0.6,0,0.7,0.1c0,0.1,0.1,0.3,0.1,0.7V213.9z M387.4,213.9
		c0,0.4,0,0.6-0.1,0.7c-0.1,0-0.3,0.1-0.7,0.1h-21.3c-0.4,0-0.6,0-0.7-0.1c0-0.1-0.1-0.3-0.1-0.7v-21.3c0-0.4,0-0.6,0-0.7
		c0.1,0,0.3-0.1,0.7-0.1h8.1l0,0h13.2c0.4,0,0.6,0,0.7,0.1c0,0.1,0.1,0.3,0.1,0.7V213.9z M359.7,213.9c0,0.4,0,0.6-0.1,0.7
		c-0.1,0-0.3,0.1-0.7,0.1h-21.4c-0.4,0-0.6,0-0.7,0c0-0.1-0.1-0.3-0.1-0.7v-21.3c0-0.4,0-0.6,0.1-0.7c0.1,0,0.3-0.1,0.7-0.1H359
		c0.4,0,0.6,0,0.7,0.1c0,0.1,0.1,0.3,0.1,0.7V213.9z M332,213.9c0,0.4,0,0.6-0.1,0.7c-0.1,0-0.3,0.1-0.7,0.1h-21.4
		c-0.4,0-0.6,0-0.7,0c0-0.1-0.1-0.3-0.1-0.7v-21.3c0-0.4,0-0.6,0.1-0.7c0.1,0,0.3-0.1,0.7-0.1h21.4c0.4,0,0.6,0,0.7,0.1
		c0,0.1,0.1,0.3,0.1,0.7V213.9z M304.3,213.9c0,0.4,0,0.6-0.1,0.7c-0.1,0-0.3,0.1-0.7,0.1h-21.3c-0.4,0-0.6,0-0.7,0
		c0-0.1-0.1-0.3-0.1-0.7v-21.3c0-0.4,0-0.6,0.1-0.7c0.1,0,0.3-0.1,0.7-0.1h21.3c0.4,0,0.6,0,0.7,0.1c0,0.1,0.1,0.3,0.1,0.7V213.9z
		 M276.6,213.9c0,0.4,0,0.6-0.1,0.7c-0.1,0-0.3,0.1-0.7,0.1h-21.3c-0.4,0-0.6,0-0.7-0.1c0-0.1-0.1-0.3-0.1-0.7v-21.3
		c0-0.4,0-0.6,0-0.7c0.1,0,0.3-0.1,0.7-0.1h21.3c0.4,0,0.6,0,0.7,0.1c0,0.1,0.1,0.3,0.1,0.7V213.9z M248.8,213.9
		c0,0.4,0,0.6-0.1,0.7c-0.1,0-0.3,0.1-0.7,0.1h-21.3c-0.4,0-0.6,0-0.7-0.1c0-0.1-0.1-0.3-0.1-0.7v-21.3c0-0.4,0-0.6,0-0.7
		c0.1,0,0.3-0.1,0.7-0.1h21.3c0.4,0,0.6,0,0.7,0.1c0,0.1,0.1,0.3,0.1,0.7V213.9z M315.5,186.2c0,0.4,0,0.6,0,0.7
		c-0.1,0-0.3,0.1-0.7,0.1h-21.3c-0.4,0-0.6,0-0.7-0.1c0-0.1-0.1-0.3-0.1-0.7v-21.4c0-0.4,0-0.6,0.1-0.7c0.1,0,0.3-0.1,0.7-0.1h21.3
		c0.4,0,0.6,0,0.7,0.1c0,0.1,0.1,0.3,0.1,0.7V186.2z M370.9,186.2c0,0.4,0,0.6-0.1,0.7c-0.1,0-0.3,0.1-0.7,0.1h-21.4
		c-0.4,0-0.6,0-0.7-0.1c0-0.1-0.1-0.3-0.1-0.7v-21.4c0-0.3,0-0.6,0.1-0.7c0.1,0,0.3-0.1,0.7-0.1h21.4c0.4,0,0.6,0,0.7,0.1
		c0,0.1,0.1,0.3,0.1,0.7V186.2z M343.2,186.2c0,0.4,0,0.6-0.1,0.7c-0.1,0-0.3,0.1-0.7,0.1h-21.4c-0.4,0-0.6,0-0.7-0.1
		c0-0.1-0.1-0.3-0.1-0.7v-21.4c0-0.3,0-0.6,0.1-0.7c0.1,0,0.3-0.1,0.7-0.1h21.4c0.4,0,0.6,0,0.7,0.1c0,0.1,0.1,0.3,0.1,0.7V186.2z
		 M287.8,186.2c0,0.4,0,0.6-0.1,0.7c-0.1,0-0.3,0.1-0.7,0.1h-21.3c-0.4,0-0.6,0-0.7-0.1c0-0.1-0.1-0.3-0.1-0.7v-21.4
		c0-0.4,0-0.6,0-0.7c0.1,0,0.3-0.1,0.7-0.1H287c0.4,0,0.6,0,0.7,0.1c0,0.1,0.1,0.3,0.1,0.7V186.2z M260,186.2c0,0.4,0,0.6-0.1,0.7
		c-0.1,0-0.3,0.1-0.7,0.1H238c-0.4,0-0.6,0-0.7-0.1c0-0.1-0.1-0.3-0.1-0.7v-21.4c0-0.4,0-0.6,0-0.7c0.1,0,0.3-0.1,0.7-0.1h21.3
		c0.4,0,0.6,0,0.7,0.1c0,0.1,0.1,0.3,0.1,0.7V186.2z M232.3,186.2c0,0.4,0,0.6-0.1,0.7c-0.1,0-0.3,0.1-0.7,0.1h-21.4
		c-0.4,0-0.6,0-0.7-0.1c0-0.1-0.1-0.3-0.1-0.7v-21.4c0-0.3,0-0.6,0.1-0.7c0.1,0,0.3-0.1,0.7-0.1h21.4c0.4,0,0.6,0,0.7,0.1
		c0,0.1,0.1,0.3,0.1,0.7V186.2z M181.8,164.8c0-0.3,0-0.6,0.1-0.7c0.1,0,0.3-0.1,0.7-0.1h21.3c0.4,0,0.6,0,0.7,0.1
		c0,0.1,0.1,0.3,0.1,0.7v21.4c0,0.4,0,0.6,0,0.7c-0.1,0-0.3,0.1-0.7,0.1h-21.3c-0.4,0-0.6,0-0.7-0.1c0-0.1-0.1-0.3-0.1-0.7V164.8z
		 M375.8,186.2v-21.4c0-0.4,0-0.6,0-0.7c0.1,0,0.3-0.1,0.7-0.1h21.3c0.4,0,0.6,0,0.7,0.1c0,0.1,0.1,0.3,0.1,0.7v21.4
		c0,0.4,0,0.6-0.1,0.7c-0.1,0-0.3,0.1-0.7,0.1h-21.3c-0.4,0-0.6,0-0.7-0.1C375.9,186.7,375.8,186.5,375.8,186.2z M154.1,164.8
		c0-0.4,0-0.6,0-0.7c0.1,0,0.3-0.1,0.7-0.1h21.3c0.4,0,0.6,0,0.7,0.1c0,0.1,0.1,0.3,0.1,0.7v21.4c0,0.4,0,0.6,0,0.7
		c-0.1,0-0.3,0.1-0.7,0.1h-21.3c-0.4,0-0.6,0-0.7-0.1c0-0.1-0.1-0.3-0.1-0.7V164.8z M432,164.1h21.3c0.4,0,0.6,0,0.7,0.1
		c0,0.1,0.1,0.3,0.1,0.7v21.4c0,0.4,0,0.6,0,0.7c-0.1,0-0.3,0.1-0.7,0.1H432c-0.4,0-0.6,0-0.7-0.1c0-0.1-0.1-0.3-0.1-0.7v-21.4
		c0-0.4,0-0.6,0.1-0.7C431.4,164.1,431.6,164.1,432,164.1z M170.6,192.6c0-0.4,0-0.6,0.1-0.7c0.1,0,0.3-0.1,0.7-0.1h21.4
		c0.4,0,0.6,0,0.7,0.1c0,0.1,0.1,0.3,0.1,0.7v21.3c0,0.4,0,0.6-0.1,0.7c-0.1,0-0.3,0.1-0.7,0.1h-21.4c-0.4,0-0.6,0-0.7,0
		c0-0.1-0.1-0.3-0.1-0.7V192.6z M195.4,220.1c0-0.4,0-0.6,0.1-0.7c0.1,0,0.3-0.1,0.7-0.1h216c0.4,0,0.6,0,0.7,0.1
		c0,0.1,0.1,0.3,0.1,0.7v21.3c0,0.4,0,0.6-0.1,0.7c-0.1,0-0.3,0.1-0.7,0.1h-216c-0.4,0-0.6,0-0.7,0c0-0.1-0.1-0.3-0.1-0.7V220.1z
		 M452.9,158.2v-21.3c0-0.4,0-0.6,0.1-0.7c0.1,0,0.3-0.1,0.7-0.1h35.2c0.4,0,0.6,0,0.7,0.1c0,0.1,0.1,0.3,0.1,0.7v21.3
		c0,0.4,0,0.6-0.1,0.7c-0.1,0-0.3,0.1-0.7,0.1h-35.2c-0.4,0-0.6,0-0.7-0.1C452.9,158.8,452.9,158.6,452.9,158.2z M462,130.7
		c0,0.4,0,0.6-0.1,0.7c-0.1,0-0.3,0.1-0.7,0.1H440c-0.4,0-0.6,0-0.7-0.1c0-0.1-0.1-0.3-0.1-0.7v-21.3c0-0.4,0-0.6,0-0.7
		c0.1,0,0.3-0.1,0.7-0.1h21.3c0.4,0,0.6,0,0.7,0.1c0,0.1,0.1,0.3,0.1,0.7V130.7z M434.3,130.7c0,0.4,0,0.6-0.1,0.7
		c-0.1,0-0.3,0.1-0.7,0.1h-21.4c-0.4,0-0.6,0-0.6,0c0-0.1-0.1-0.3-0.1-0.7v-21.3c0-0.4,0-0.6,0.1-0.7c0.1,0,0.3,0,0.6-0.1h21.5
		c0.4,0,0.6,0,0.7,0.1c0,0.1,0.1,0.3,0.1,0.7V130.7z M378.9,130.7c0,0.4,0,0.6-0.1,0.7c-0.1,0-0.3,0.1-0.7,0.1h-21.3
		c-0.4,0-0.6,0-0.7-0.1c0-0.1-0.1-0.3-0.1-0.7v-21.3c0-0.4,0-0.6,0-0.7c0.1,0,0.3-0.1,0.7-0.1h21.3c0.4,0,0.6,0,0.7,0.1
		c0,0.1,0.1,0.3,0.1,0.7V130.7z M351.2,130.7c0,0.4,0,0.6-0.1,0.7c-0.1,0-0.3,0.1-0.7,0.1h-21.3c-0.4,0-0.6,0-0.7-0.1
		c0-0.1-0.1-0.3-0.1-0.7v-21.3c0-0.4,0-0.6,0-0.7c0.1,0,0.3-0.1,0.7-0.1h21.3c0.4,0,0.6,0,0.7,0.1c0,0.1,0.1,0.3,0.1,0.7V130.7z
		 M323.4,130.7c0,0.4,0,0.6-0.1,0.7c-0.1,0-0.3,0.1-0.7,0.1h-21.4c-0.4,0-0.6,0-0.7,0c0-0.1-0.1-0.3-0.1-0.7v-21.3
		c0-0.4,0-0.6,0.1-0.7c0.1,0,0.3-0.1,0.7-0.1h21.4c0.4,0,0.6,0,0.7,0.1c0,0.1,0.1,0.3,0.1,0.7V130.7z M240.3,130.7
		c0,0.4,0,0.6-0.1,0.7c-0.1,0-0.3,0.1-0.7,0.1h-21.3c-0.4,0-0.6,0-0.7-0.1c0-0.1-0.1-0.3-0.1-0.7v-21.3c0-0.4,0-0.6,0-0.7
		c0.1,0,0.3-0.1,0.7-0.1h21.3c0.4,0,0.6,0,0.7,0.1c0,0.1,0.1,0.3,0.1,0.7V130.7z M212.6,130.7c0,0.4,0,0.6-0.1,0.7
		c-0.1,0-0.3,0.1-0.7,0.1h-21.3c-0.4,0-0.6,0-0.7-0.1c0-0.1-0.1-0.3-0.1-0.7v-21.3c0-0.4,0-0.6,0-0.7c0.1,0,0.3-0.1,0.7-0.1h21.3
		c0.4,0,0.6,0,0.7,0.1c0,0.1,0.1,0.3,0.1,0.7V130.7z M184.9,130.7c0,0.4,0,0.6-0.1,0.7c-0.1,0-0.3,0.1-0.7,0.1h-21.4
		c-0.4,0-0.6,0-0.7,0c0-0.1-0.1-0.3-0.1-0.7v-21.3c0-0.4,0-0.6,0.1-0.7c0.1,0,0.3-0.1,0.7-0.1h21.4c0.4,0,0.6,0,0.7,0.1
		c0,0.1,0.1,0.3,0.1,0.7V130.7z M142.5,136.2c0.4,0,0.6,0,0.7,0.1c0,0.1,0.1,0.3,0.1,0.7v21.3c0,0.4,0,0.6-0.1,0.7
		c-0.1,0-0.3,0.1-0.7,0.1h-21.3c-0.4,0-0.6,0-0.7-0.1c0-0.1-0.1-0.3-0.1-0.7v-21.3c0-0.4,0-0.6,0.1-0.7c0.1,0,0.3-0.1,0.7-0.1H142.5
		z M420.1,192.6c0-0.4,0-0.6,0.1-0.7c0.1,0,0.3-0.1,0.7-0.1h21.3c0.4,0,0.6,0,0.7,0.1c0,0.1,0.1,0.3,0.1,0.7v21.3
		c0,0.4,0,0.6-0.1,0.7c-0.1,0-0.3,0.1-0.7,0.1h-21.3c-0.4,0-0.6,0-0.7,0c0-0.1-0.1-0.3-0.1-0.7V192.6z M152,244.8
		c1-1,1.1-2.4,1.1-3.4v-21.3c0-0.5,0-1.1-0.2-1.6h12c0.9,0,2.2-0.1,3.2-1c1,0.8,2.3,1,3.2,1h20.4c-0.1,0.6-0.2,1.1-0.2,1.6v21.3
		c0,1,0.1,2.4,1.2,3.4c0.8,0.8,1.8,1.1,2.7,1.1h-46.2C150.1,245.9,151.2,245.7,152,244.8z M464.5,105.7c-0.1-0.1-0.3-0.2-0.4-0.3
		h0.9C464.8,105.5,464.6,105.6,464.5,105.7z M436.7,105.7c-0.1-0.1-0.3-0.2-0.5-0.3h0.9C437.1,105.5,436.9,105.6,436.7,105.7z
		 M409,105.7c-0.1-0.1-0.3-0.2-0.5-0.3h0.9C409.3,105.5,409.2,105.6,409,105.7z M381.3,105.7c-0.1-0.1-0.3-0.2-0.5-0.3h0.9
		C381.6,105.5,381.5,105.6,381.3,105.7z M353.6,105.7c-0.1-0.1-0.3-0.2-0.5-0.3h0.9C353.9,105.5,353.8,105.6,353.6,105.7z
		 M325.9,105.7c-0.1-0.1-0.3-0.2-0.5-0.3h0.9C326.2,105.5,326,105.6,325.9,105.7z M298.2,105.7c-0.1-0.1-0.3-0.2-0.5-0.3h0.9
		C298.5,105.5,298.3,105.6,298.2,105.7z M270.5,105.7c-0.1-0.1-0.3-0.2-0.5-0.3h0.9C270.8,105.5,270.6,105.6,270.5,105.7z
		 M242.8,105.7c-0.1-0.1-0.3-0.2-0.4-0.3h0.9C243,105.5,242.9,105.6,242.8,105.7z M215,105.7c-0.1-0.1-0.3-0.2-0.5-0.3h0.9
		C215.3,105.5,215.2,105.6,215,105.7z M187.3,105.7c-0.1-0.1-0.3-0.2-0.5-0.3h0.9C187.6,105.5,187.5,105.6,187.3,105.7z
		 M159.6,105.7c-0.2-0.1-0.3-0.2-0.5-0.3h0.9C159.9,105.5,159.8,105.6,159.6,105.7z M131.6,105.9c-0.5,0.5-0.8,1.2-1,1.8l-3.7,0.9
		h3.6c0,0.2,0,0.5,0,0.7v21.3c0,0.5,0,1.1,0.2,1.6h-9.5c-1,0-2.4,0.1-3.4,1.2c-1,1-1.2,2.5-1.2,3.4v21.3c0,1,0.1,2.4,1.2,3.4
		c1,1,2.5,1.2,3.4,1.2h1.7c-0.2,0.7-0.3,1.4-0.3,2v21.4c0,0.9,0.1,2.2,1,3.2c-0.9,1-1,2.3-1,3.2v21.3c0,0.9,0.1,2.2,0.9,3.2
		c-0.7,1-0.8,2.2-0.8,3.1v21.3c0,1,0.1,2.4,1.2,3.4c0.8,0.8,1.8,1.1,2.7,1.1H62.7c-0.2,0-1-0.3-1.6-0.9c-0.6-0.6-0.9-1.4-0.9-1.6
		V107.9c0-0.2,0.3-1,0.9-1.6c0.6-0.6,1.4-0.9,1.6-0.9h69.6C132.1,105.6,131.9,105.7,131.6,105.9z"/>
</g>
</svg>
