<?xml version="1.0" encoding="utf-8"?>
<!-- Generator: Adobe Illustrator 24.0.1, SVG Export Plug-In . SVG Version: 6.00 Build 0)  -->
<svg version="1.1"
	 id="svg2" xmlns:cc="http://creativecommons.org/ns#" xmlns:dc="http://purl.org/dc/elements/1.1/" xmlns:rdf="http://www.w3.org/1999/02/22-rdf-syntax-ns#"
	 xmlns="http://www.w3.org/2000/svg" xmlns:xlink="http://www.w3.org/1999/xlink" x="0px" y="0px" viewBox="0 0 564.8 212"
	 style="enable-background:new 0 0 564.8 212;" xml:space="preserve">
<g>
	<polygon style="fill:#FFFFFF;" points="117.3,103.3 117.3,103.3 117.3,103.3 	"/>
	<polygon style="fill:#FFFFFF;" points="120.2,124.2 120.2,124.2 120.2,124.2 	"/>
	<polygon style="fill:#FFFFFF;" points="6.5,146.3 6.5,146.3 6.5,146.3 	"/>
	<g>
		<path style="fill:#FFFFFF;" d="M92.8,52.7L92.8,52.7c6.2-6.8,9.5-16.4,9.9-29.2l0-0.6l-0.6,0.1c-21.8,4.5-33,18.1-33.4,40.6l0,0.6
			l0.6-0.1C79.6,62.4,87.3,58.7,92.8,52.7z"/>
		<path style="fill:#FFFFFF;" d="M140.5,144.5l-0.4-0.2c-6.4-3.1-14.9-10-19.7-19.9l0,0h0l-0.1-0.2c-3.3-6.7-4.2-13.6-2.9-20.5
			l0.1-0.6h0c1.5-7,5.5-13.9,11.8-20.4l0.6-0.6c1.4-1.4,3-2.8,4.6-4.2l0.4-0.3l-0.3-0.4c-8.1-10-19.1-15.3-32-15.5l-0.6,0
			c-6.5,0-12.3,1.2-16.7,3.5c-5.7,3-9.8,3.6-9.9,3.6c-0.1,0-0.5,0-1.8,0c-1.5,0-2.9,0-3,0l-0.1,0c-1.8-0.2-6.4-1-10.2-3
			c-5.1-2.7-10.8-4.2-16.5-4.2l-0.4,0C28.6,61.8,16.1,69,8.3,82l-0.1,0.2C4.4,88.3,2,95.4,0.8,103.2l0,0.1h0l0,0.2
			c-1,6.6-1,13.5-0.1,20.6h0l0.1,0.6c1,7.2,2.9,14.5,5.7,21.6l0,0.1h0l0.2,0.4c2.9,7.2,6.6,14.2,11.2,20.8h0l0.5,0.8
			c3.6,5.2,7.7,10.2,12.2,15c3.5,3.6,9,5.7,15.6,5.7c4.8,0,9.8-1.1,13-3c6.6-3.7,10.1-3.7,12.6-3.7c0.5,0,1,0,1.5,0l0.6,0
			c0.5,0,1-0.1,1.6-0.1c2.3,0,5.6,0.4,11.8,3.9c4.3,1.8,8.5,2.7,12.4,2.7c10.7,0,20.1-6.7,28.8-20.5l0.4-0.6l0.1-0.2h0
			c4.2-6.8,7.6-14.2,10.6-20.8l0.3-0.7h0L140.5,144.5z"/>
	</g>
	<path style="fill:#FFFFFF;" d="M552.1,73c0.4-0.4,1-0.7,1.6-0.7h11.1V61.4H535l0,0V140h29.8v-11h-11.1c-0.6,0-1.2-0.2-1.6-0.7
		c-0.4-0.4-0.7-1-0.6-1.6V74.7C551.5,74.1,551.7,73.5,552.1,73z"/>
	<path style="fill:#FFFFFF;" d="M428.6,121.2c-3.3-3-5.1-7.1-5.1-11.6c0-4.3,1.7-8.2,4.9-11c3.2-2.8,7.4-4.2,12.3-4.2h12.1
		c0.9,0,1.6,0.5,2,1.3c0.4,0.8,0.3,1.7-0.3,2.4l-13.7,17.7h20.9l14.5-19.9V80.2h-37.3l0,0c-10,0-18.5,3-25.8,9.2
		c-7.4,6.2-10.8,12.8-10.8,20.4c0,9.2,3.5,16.3,10.9,22.1c7,5.4,15.4,8.1,25.6,8.1h37.4v-14.2h-35.5
		C436,125.8,431.9,124.2,428.6,121.2z"/>
	<path style="fill:#FFFFFF;" d="M496.5,72.4h11.1c0.6,0,1.2,0.2,1.6,0.7c0.4,0.4,0.7,1,0.7,1.6v52.1c0,0.6-0.2,1.2-0.7,1.6
		c-0.4,0.4-1,0.7-1.6,0.7h-11.1v11h29.8V61.4h-29.8V72.4z"/>
	<polygon style="fill:#FFFFFF;" points="373.8,61.4 373.8,140 392.8,140 392.8,61.4 373.8,61.4 	"/>
	<path style="fill:#FFFFFF;" d="M252.2,80.2l-42,0l0,0v78.6h19V96.7c0-0.6,0.2-1.2,0.7-1.6c0.4-0.4,1-0.7,1.6-0.7h12.1
		c5,0,9.5,1.7,13,5.1c3.3,3.1,5.1,7,5.1,11.3c0,4.4-2,8.3-5.5,11c-3.5,2.7-7.8,4-12.6,4H239V140h12.7c8.8,0,16-2.8,22.1-8.6
		c6.1-5.7,9-12.5,9-20.7c0-8.6-2.9-15.6-9-21.6C267.8,83.1,260.7,80.2,252.2,80.2z"/>
	<path style="fill:#FFFFFF;" d="M157.3,80.2c-8.9,0-16.1,2.9-22.2,8.9c-6.1,6-9,12.8-9,20.6c0,7.7,3,14.5,9.5,20.9
		c6.4,6.3,13.6,9.4,21.9,9.4h12.2v-14.2h-5.1c-4.7,0-8.9-1.5-12.1-4.5c-3.3-3-5-6.9-5-11.4c0-4.5,1.7-8.4,5-11.3
		c3.2-2.8,7.3-4.3,12-4.3h12.9c0.6,0,1.2,0.2,1.6,0.7c0.4,0.4,0.7,1,0.7,1.6V140h19V80.2L157.3,80.2L157.3,80.2z"/>
	<path style="fill:#FFFFFF;" d="M334,80.2l-42,0l0,0v78.6h19V96.7c0-0.6,0.2-1.2,0.6-1.6c0.4-0.4,1-0.7,1.6-0.7h12.1
		c5,0,9.5,1.7,13,5.1c3.3,3.1,5.1,7,5.1,11.3c0,4.4-2,8.3-5.5,11c-3.5,2.7-7.8,4-12.6,4h-4.5V140h12.7c8.8,0,16-2.8,22.1-8.6
		c6.1-5.7,9-12.5,9-20.7c0-8.6-2.9-15.6-9-21.6C349.6,83.1,342.5,80.2,334,80.2z"/>
</g>
</svg>
