<?xml version="1.0" encoding="utf-8"?>
<!-- Generator: Adobe Illustrator 16.0.0, SVG Export Plug-In . SVG Version: 6.00 Build 0)  -->
<!DOCTYPE svg PUBLIC "-//W3C//DTD SVG 1.1//EN" "http://www.w3.org/Graphics/SVG/1.1/DTD/svg11.dtd">
<svg version="1.1" id="레이어_1" xmlns="http://www.w3.org/2000/svg" xmlns:xlink="http://www.w3.org/1999/xlink" x="0px"
	 y="0px" width="566.789px" height="106.089px" viewBox="-102.128 -0.922 566.789 106.089"
	 enable-background="new -102.128 -0.922 566.789 106.089" xml:space="preserve">
<g>
	<path fill-rule="evenodd" clip-rule="evenodd" fill="#FFFFFF" d="M287.282,83.546c0-21.34,0-42.581,0-63.951
		c-2.67-0.641-4.559-2.331-5.2-4.985c-0.386-1.601-0.171-3.354-0.167-5.039c0.002-1.486-0.195-3.051,0.189-4.443
		c0.951-3.432,3.232-4.989,6.954-5.017c12.937-0.098,25.878-0.231,38.81,0.016c13.848,0.265,26.449,4.53,37.449,13.082
		c6.849,5.325,12.233,11.884,15.949,19.764c0.242,0.515,0.512,1.016,0.992,1.487c0-5.325,0-10.651,0-16.061
		c-2.301-0.5-4.123-1.609-5.02-3.859c-0.179-0.449-0.332-0.942-0.343-1.418c-0.052-2.284-0.124-4.572-0.052-6.854
		c0.111-3.52,2.664-5.892,6.216-5.896c18.808-0.025,37.616-0.033,56.423-0.081c5.622-0.015,11.244-0.15,16.865-0.214
		c2.057-0.024,3.984,0.415,5.688,1.652c1.602,1.164,2.615,2.663,2.615,4.684c0.012,29.904,0.027,59.809-0.051,89.713
		c-0.004,1.43-0.671,2.955-1.361,4.26c-0.808,1.523-2.47,1.82-4.076,1.957c-0.543,0.047-1.094,0.011-1.641,0.011
		c-89.166,0-178.332-0.002-267.497,0.006c-4.063,0-8.072-0.194-12.078,1.315c-2.637,0.994-5.701,0.983-8.589,1.157
		c-4.01,0.242-8.042,0.433-12.052,0.288c-5.875-0.212-11.757-0.555-17.601-1.178c-8.654-0.922-17.278-1.703-26.016-1.686
		c-69.013,0.136-138.027,0.114-207.04,0.094c-1.58-0.001-3.285-0.285-4.709-0.929c-2.395-1.083-3.662-3.282-3.89-5.84
		c-0.215-2.418-0.273-4.901,0.03-7.301c0.372-2.945,2.399-4.715,5.118-5.779c0.545-0.214,1.145-0.765,1.349-1.3
		c4.309-11.347,8.586-22.706,12.826-34.078c4.529-12.148,8.998-24.317,13.53-36.464c1.024-2.746,2.052-5.507,3.347-8.128
		c1.139-2.306,3.281-3.343,5.853-3.348c7.315-0.015,14.629-0.006,21.943-0.005c3.421,0,5.79,1.597,7.026,4.804
		c7.764,20.14,15.509,40.288,23.279,60.426c2.043,5.296,4.16,10.563,6.223,15.851c0.708,1.815,2.327,2.492,3.932,3.062
		c1.346,0.477,2.191-0.196,2.457-1.684c0.112-0.63,0.165-1.279,0.165-1.92c0.009-19.804-0.006-39.607,0.038-59.411
		c0.002-1.333-0.317-2.093-1.64-2.515c-2.035-0.65-3.495-2.158-3.707-4.212c-0.323-3.139-0.498-6.357-0.161-9.479
		c0.307-2.856,3.241-4.909,6.188-4.912c17.166-0.019,34.336-0.22,51.497,0.083c8.141,0.144,15.882,2.371,22.553,7.459
		c6.05,4.616,9.885,10.574,11.268,18.079c0.15,0.813,0.282,1.63,0.47,2.727c0.805-1.356,1.479-2.561,2.216-3.726
		c7.223-11.414,17.631-18.468,30.444-22.236c7.324-2.154,14.834-2.819,22.399-2.353c10.791,0.664,20.708,4.05,29.172,10.898
		c3.367,2.725,6.363,5.957,9.253,9.203c2.228,2.502,1.775,6.291-0.572,8.728c-5.346,5.551-10.745,11.053-16.006,16.683
		c-2.555,2.733-5.947,3.286-9.023,1.291c-2.258-1.464-4.62-2.814-6.688-4.517c-1.929-1.589-2.309-4.626-1.317-6.947
		c0.039-0.091,0.101-0.172,0.14-0.263c1.72-4.02,0.665-6.596-3.566-7.897c-8.643-2.659-19.897,0.356-22.885,11.719
		c-1.011,3.841-1.344,7.698-0.963,11.704c0.593,6.237,2.23,12.039,5.697,17.293c4.338,6.574,10.389,10.388,18.194,11.504
		c3.824,0.548,7.558,0.383,11.202-0.927c1.909-0.687,3.565-1.78,4.322-3.751c1.425-3.712,4.205-5.088,7.989-4.904
		c2.171,0.104,4.362,0.035,6.513,0.301c3.879,0.478,5.415,3.775,5.541,6.897c0.092,2.285,0.041,4.575,0.055,6.863
		c0,0.045,0.027,0.091,0.042,0.136c2.053-0.37,3.322-1.387,4.096-3.513c5.592-15.357,11.324-30.664,17.016-45.986
		c3.695-9.95,7.383-19.904,11.103-29.845c1.134-3.027,3.695-4.713,6.967-4.713c7.114-0.001,14.23,0.082,21.343-0.037
		c3.357-0.056,6.146,1.612,7.473,5.07c2.963,7.721,5.981,15.42,8.947,23.14c5.707,14.851,11.393,29.709,17.086,44.565
		c1.086,2.832,2.17,5.665,3.239,8.503C281.976,82.839,284.091,84.708,287.282,83.546z M66.345,55.815
		c2.877-1.495,5.714-2.7,8.27-4.342c15.167-9.747,15.029-30.878-0.217-40.237C68.555,7.65,62.01,6.46,55.332,6.399
		C39.461,6.254,23.588,6.387,7.716,6.415C7.193,6.416,6.67,6.495,6.072,6.543c0,1.807,0.077,3.451-0.025,5.083
		c-0.074,1.179,0.338,1.557,1.49,1.607c2.252,0.097,3.312,1.004,3.878,3.188c0.197,0.76,0.314,1.565,0.314,2.349
		c0.016,21.595,0.016,43.189,0.01,64.784c-0.001,3.814-1.004,5.076-4.667,6.112c-0.379,0.107-0.934,0.541-0.947,0.843
		c-0.087,1.92-0.044,3.847-0.044,5.804c11.53,0,22.882,0,34.247,0c0-2.263,0-4.39,0-6.535c-0.63-0.155-1.198-0.304-1.769-0.437
		c-1.984-0.461-3.216-1.721-3.495-3.726c-0.171-1.228-0.289-2.473-0.293-3.71c-0.027-7.514-0.017-15.027-0.012-22.54
		c0-0.475,0.055-0.949,0.093-1.573c1.905,0,3.693,0.076,5.472-0.027c1.096-0.063,1.66,0.33,2.204,1.263
		c7.038,12.076,14.129,24.121,21.175,36.192c0.501,0.857,1.008,1.263,2.07,1.256c7.662-0.053,15.325-0.028,22.987-0.028
		c0.476,0,0.951,0,1.503,0c0-2.068,0.051-3.909-0.041-5.743c-0.02-0.385-0.491-0.903-0.883-1.086c-2.463-1.15-4.367-2.865-5.765-5.2
		c-2.572-4.297-5.209-8.556-7.793-12.845C72.612,66.312,69.469,61.035,66.345,55.815z M288.254,89.938
		c0,1.573,0.071,3.259-0.022,4.936c-0.069,1.224,0.305,1.605,1.568,1.602c15.071-0.052,30.145-0.018,45.215-0.071
		c4.567-0.017,9.096-0.513,13.533-1.684c9.699-2.561,17.936-7.41,23.896-15.62c6.326-8.713,8.277-18.567,7.178-29.154
		c-1.012-9.742-4.861-18.265-11.385-25.465c-11.001-12.144-24.963-17.9-41.218-18.107c-12.334-0.157-24.672-0.032-37.009-0.033
		c-0.529,0-1.06,0-1.775,0c0,1.955,0.063,3.736-0.022,5.511c-0.052,1.075,0.354,1.357,1.364,1.378
		c2.071,0.042,3.205,0.887,3.729,2.936c0.352,1.374,0.55,2.827,0.552,4.245c0.033,20.494,0.023,40.988,0.021,61.481
		c0,0.548,0.031,1.101-0.032,1.641c-0.55,4.693-1.329,5.491-5.187,6.144C288.573,89.691,288.497,89.779,288.254,89.938z
		 M411.806,52.401c1.42,0,2.656-0.007,3.893,0.001c6.911,0.041,13.824,0.018,20.734,0.157c3.892,0.078,5.824,1.707,7.08,5.39
		c0.125,0.369,0.592,0.867,0.92,0.883c1.818,0.086,3.645,0.041,5.486,0.041c0-8.336,0-16.509,0-24.764
		c-1.895,0-3.682-0.026-5.465,0.025c-0.313,0.009-0.81,0.283-0.896,0.542c-1.287,3.884-4.264,4.846-7.949,4.821
		c-7.412-0.051-14.825-0.015-22.238-0.015c-0.522,0-1.045,0-1.535,0c0-6.779,0-13.326,0-20.004c0.584,0,1.07,0,1.557,0
		c10.049,0,20.1,0.051,30.147-0.027c3.398-0.026,5.665,1.492,7.114,4.413c0.537,1.083,0.912,2.246,1.326,3.28
		c2.283,0,4.45,0,6.589,0c0-6.979,0-13.86,0-20.629c-25.21,0-50.302,0-75.531,0c0,1.806,0.062,3.445-0.021,5.077
		c-0.057,1.119,0.245,1.585,1.457,1.655c2.168,0.126,3.236,1.021,3.733,3.172c0.331,1.434,0.467,2.944,0.466,4.42
		c-0.026,21.043-0.088,42.087-0.15,63.13c-0.009,3.037-1.516,4.912-4.425,5.686c-0.374,0.1-0.973,0.421-0.981,0.658
		c-0.08,2.009-0.045,4.022-0.045,6.021c25.951,0,51.641,0,77.296,0c0-7.153,0-14.19,0-21.218c-1.788,0-3.462,0-5.106,0
		c-0.131,0.418-0.238,0.747-0.336,1.078c-1.615,5.452-3.906,7.177-9.537,7.177c-10.646,0-21.293,0-31.938,0
		c-0.532,0-1.063,0-1.644,0C411.806,72.964,411.806,62.734,411.806,52.401z M246.763,96.368c11.799,0,23.464,0,35.297,0
		c0-2.099,0.026-4.124-0.035-6.147c-0.008-0.233-0.477-0.556-0.789-0.661c-2.998-1.002-4.869-3.142-6.049-5.962
		c-0.686-1.64-1.287-3.314-1.926-4.975c-9.043-23.51-18.103-47.014-27.092-70.544c-0.538-1.409-1.191-1.796-2.65-1.776
		c-6.565,0.089-13.133,0.074-19.699,0.008c-1.24-0.012-1.779,0.361-2.217,1.542c-9.398,25.376-18.872,50.725-28.248,76.11
		c-1.069,2.893-2.787,4.813-5.733,5.672c-0.324,0.095-0.819,0.424-0.827,0.658c-0.065,2.014-0.037,4.029-0.037,6.046
		c9.568,0,18.892,0,28.232,0c0-2.233,0-4.357,0-6.547c-0.715-0.172-1.383-0.312-2.041-0.492c-2.005-0.552-3.111-2.236-2.794-4.29
		c0.128-0.827,0.254-1.673,0.526-2.459c1.838-5.319,3.7-10.631,5.612-15.924c0.135-0.375,0.728-0.833,1.108-0.835
		c8.902-0.047,17.805-0.036,26.818-0.036c2.229,6.188,4.475,12.345,6.656,18.524c0.896,2.539,0.014,4.207-2.521,5.059
		c-0.506,0.171-1.027,0.3-1.592,0.462C246.763,91.954,246.763,94.083,246.763,96.368z M-66.069,65.756
		c9.085,0,17.989-0.009,26.892,0.031c0.359,0.002,0.922,0.385,1.044,0.718c2.223,6.023,4.432,12.052,6.551,18.111
		c0.744,2.128,0.23,3.813-1.893,4.292c-2.839,0.64-2.576,2.409-2.496,4.377c0.018,0.447,0.059,0.903-0.005,1.342
		c-0.202,1.395,0.282,1.863,1.764,1.855c10.697-0.064,21.396-0.034,32.093-0.034c0.485,0,0.969,0,1.536,0c0-2.322,0-4.491,0-6.706
		c-3.729-0.899-5.791-3.492-7.108-6.923c-9.633-25.088-19.298-50.164-28.919-75.256c-0.363-0.947-0.8-1.254-1.812-1.247
		c-6.866,0.049-13.733,0.046-20.599,0.002c-0.984-0.006-1.452,0.242-1.812,1.217c-9.346,25.295-18.746,50.571-28.089,75.867
		c-1.107,2.999-2.639,5.415-5.98,6.209c-0.324,0.076-0.786,0.524-0.796,0.815c-0.07,1.967-0.037,3.938-0.037,5.922
		c9.53,0,18.857,0,28.143,0c0.084-0.187,0.158-0.273,0.159-0.361c0.017-1.542-0.086-3.095,0.07-4.621
		c0.133-1.305-0.438-1.807-1.571-1.951c-3.256-0.415-4.064-3.124-3.287-5.462C-70.212,77.912-68.147,71.892-66.069,65.756z
		 M177.662,74.116c-2.296,0-4.479-0.029-6.659,0.031c-0.331,0.009-0.821,0.366-0.948,0.681c-1.91,4.706-5.621,7.106-10.361,8.259
		c-3.901,0.949-7.818,1.129-11.802,0.608c-8.301-1.085-15.224-4.783-20.44-11.271c-8.498-10.571-10.792-22.747-8.157-35.841
		c1.341-6.668,4.859-12.136,11.038-15.478c4.789-2.59,9.909-3.533,15.359-2.906c3.471,0.399,6.732,1.251,9.462,3.484
		c3.165,2.588,4.855,5.886,4.042,10.067c-0.287,1.471-0.934,2.872-1.434,4.355c2.035,1.235,4.053,2.46,6.123,3.716
		c5.662-5.954,11.269-11.852,16.894-17.767c-0.225-0.315-0.379-0.57-0.57-0.795c-8.755-10.282-19.797-16.152-33.333-16.971
		c-7.875-0.477-15.618,0.389-23.146,2.956c-23.633,8.058-35.949,31.69-28.658,55.364c4.101,13.316,13.15,22.395,25.393,28.501
		c9.312,4.644,19.313,6.5,29.619,7.224c9.28,0.652,18.404-0.319,27.577-1.909C177.662,89.004,177.662,81.659,177.662,74.116z"/>
	<path fill-rule="evenodd" clip-rule="evenodd" fill="#FFFFFF" d="M34.829,19.166c5.958,0.309,11.847,0.203,17.604,1.021
		c6.721,0.955,10.188,5.78,9.728,12.72c-0.426,6.404-4.816,11.061-11.034,11.635c-2.612,0.241-5.245,0.299-7.871,0.354
		c-2.775,0.058-5.553,0.013-8.426,0.013C34.829,36.415,34.829,28.041,34.829,19.166z"/>
	<path fill-rule="evenodd" clip-rule="evenodd" fill="#FFFFFF" d="M316.933,83.629c0-21.658,0-42.828,0-64.392
		c3.622,0.295,7.19,0.356,10.68,0.917c7.756,1.245,14.503,4.548,19.754,10.559c4.566,5.229,7.146,11.347,8.018,18.195
		c0.793,6.234,0.451,12.375-2.031,18.236c-3.865,9.124-10.777,14.424-20.59,15.58C327.563,83.337,322.294,83.343,316.933,83.629z"/>
	<path fill-rule="evenodd" clip-rule="evenodd" fill="#FFFFFF" d="M229.997,27.067c3.146,8.302,6.263,16.531,9.42,24.866
		c-6.053,0-12.02,0-18.093,0C224.22,43.631,227.085,35.416,229.997,27.067z"/>
	<path fill-rule="evenodd" clip-rule="evenodd" fill="#FFFFFF" d="M-61.238,51.937c2.902-8.312,5.783-16.563,8.686-24.878
		c3.134,8.29,6.249,16.528,9.406,24.878C-49.202,51.937-55.14,51.937-61.238,51.937z"/>
</g>
</svg>
