<?xml version="1.0" encoding="utf-8"?>
<!-- Generator: Adobe Illustrator 24.0.1, SVG Export Plug-In . SVG Version: 6.00 Build 0)  -->
<svg version="1.1" id="레이어_1" xmlns="http://www.w3.org/2000/svg" xmlns:xlink="http://www.w3.org/1999/xlink" x="0px"
	 y="0px" viewBox="0 0 593.9 200" style="enable-background:new 0 0 593.9 200;" xml:space="preserve">
<g>
	<path style="fill:#FFFFFF;" d="M73.3,52L25,148.3h28l9.2-18.2H96l3.9,18.2h26.1L105.5,52H73.3z M71.9,108.7l10.2-22
		c0.4-1,1-2.4,1.8-4.4c0.8-2,1.6-4.3,2.5-6.9c0,1.5,0.2,3.2,0.4,4.9c0.2,1.8,0.5,3.7,1,6l4.4,22.5H71.9z"/>
	<path style="fill:#FFFFFF;" d="M206.8,100.2c4.8-5.4,7.1-12.1,7.1-20c0-5.8-1.3-10.8-3.7-14.9c-2.5-4.1-6.2-7.4-11.1-9.6
		c-2.8-1.3-6-2.2-9.8-2.8c-3.8-0.5-9.5-0.8-17.2-0.8h-25.7l-15.2,96.3h25.6l5.8-36.8l18.6,36.8h29.3l-23.4-38
		C195.5,108.9,202,105.5,206.8,100.2z M184.8,92.5c-2.7,2.3-6.6,3.5-11.7,3.5H165l4-25.3h3.8c5.6,0,9.7,0.9,12.2,2.8
		c2.5,1.9,3.8,4.9,3.8,9C188.9,86.8,187.5,90.2,184.8,92.5z"/>
	<path style="fill:#FFFFFF;" d="M274.7,127.6c-7.9,0-14.1-2.1-18.4-6.4c-4.3-4.3-6.5-10.3-6.5-18.1c0-8.6,2.6-15.7,7.8-21.3
		c5.2-5.6,11.8-8.4,19.7-8.4c4.7,0,9.2,0.8,13.6,2.5c4.3,1.6,8.4,4.1,12,7.3l4.3-26.6c-4.6-2.3-9.2-4-14-5.1
		c-4.8-1.1-9.7-1.7-14.8-1.7c-8.9,0-17,1.6-24.2,4.7c-7.2,3.1-13.2,7.6-18.1,13.5c-4.1,5-7.2,10.6-9.4,16.8
		c-2.1,6.2-3.2,12.6-3.2,19.4c0,14.1,4.1,25.4,12.4,33.9c8.3,8.5,19.3,12.8,33,12.8c4.6,0,8.9-0.3,12.9-0.8c4-0.5,7.6-1.3,10.9-2.4
		l4-24.9c-4,1.7-7.8,2.9-11.4,3.8C281.6,127.1,278.1,127.6,274.7,127.6z"/>
	<path style="fill:#FFFFFF;" d="M346.2,52L298,148.3h28l9.2-18.2h33.7l3.9,18.2h26.1L378.4,52H346.2z M344.9,108.7l10.2-22
		c0.4-1,1-2.4,1.8-4.4c0.8-2,1.6-4.3,2.5-6.9c0,1.5,0.2,3.2,0.4,4.9c0.2,1.8,0.6,3.7,1,6l4.4,22.5H344.9z"/>
	<path style="fill:#FFFFFF;" d="M475,56.5c-3.3-1.7-7.6-2.8-12.9-3.5c-5.3-0.7-14.1-1-26.5-1h-16.6L404,148.3h18.6h3.6
		c15.5,0,26.6-0.7,33.2-2.1c6.6-1.4,12.3-3.8,17.2-7.1c6.8-4.8,11.9-10.7,15.3-17.6c3.4-6.9,5-15,5-24.3c0-9.6-1.9-17.8-5.6-24.8
		C487.6,65.4,482.1,60.1,475,56.5z M463.1,119.3c-5.4,5.2-13.2,7.8-23.5,7.8c-0.7,0-1.5,0-2.4,0c-0.9,0-2.2-0.1-4-0.2l8.2-53.6h4.9
		c8.7,0,15,1.9,18.9,5.6c3.9,3.7,5.9,9.6,5.9,17.8C471.1,106.6,468.4,114.2,463.1,119.3z"/>
	<polygon style="fill:#FFFFFF;" points="573.1,74.2 576.6,52 521,52 505.8,148.3 561.4,148.3 564.7,126.8 534.9,126.8 537.5,110.9 
		565.2,110.9 568.5,89.9 540.8,89.9 543.3,74.2 	"/>
</g>
<g>
	<path style="fill:#FFFFFF;" d="M507.6,36.6l-4.2,26.8c-5.2-8.9-12.6-15.9-22-20.6c-4.9-2.5-10.7-4.1-17.8-5.1
		c-6-0.8-15.3-1.1-28.4-1.1h-29.6l-6.5,41.6l-8.8-41.6h-53.9L320,69.2l3.5-21.5l-10-5c-5.6-2.8-11.4-4.9-17.3-6.3
		c-5.9-1.4-12.1-2.1-18.3-2.1c-11,0-21.2,2-30.3,5.9c-9.4,4.1-17.4,10.1-23.8,17.8c-0.1,0.2-0.3,0.3-0.4,0.5
		c-0.2-0.5-0.5-0.9-0.8-1.3c-4.1-6.8-10-12-17.5-15.5c-4.1-2-8.9-3.3-14.2-4.1c-4.6-0.7-10.9-1-19.4-1H133l-6.7,42.2l-9-42.2H63.4
		L0,163.3h61.9l9.2-18.2h12.1l3.9,18.2h82.2l0.5-3.1l1.6,3.1h65.9l-5.2-8.4c10,7.2,22.2,10.8,36.3,10.8c5.3,0,10.3-0.3,14.9-1
		c2.5-0.3,5-0.8,7.8-1.5h43.7l9.2-18.2h12.1l3.9,18.2h65.8c16.8,0,28.7-0.8,36.4-2.5c8.5-1.8,16.2-5.1,22.7-9.6
		c1.8-1.3,3.5-2.6,5.2-4.1l-2.6,16.2h86.3l8.1-51.8h-2l3.4-22.2h2.1l8.3-52.6H507.6z M581.9,84.9h-2.2l-4.8,30.9h2l-6.7,43.1h-77.5
		l3.9-24.6l-4.8,5.1c-3,3.2-6.1,5.9-9.3,8.2c-6.1,4.2-13.2,7.2-21.2,8.9c-7.4,1.6-19,2.4-35.5,2.4h-62.3l-3.9-18.2h-18.2l-9.2,18.2
		h-41.3l-0.5,0.1c-2.7,0.6-5.2,1.1-7.6,1.5c-4.4,0.6-9.2,0.9-14.3,0.9c-16.7,0-30.4-5.4-40.8-16.1c-2.3-2.4-4.5-5.1-6.4-8
		c-4-6.6-7.4-15.5-8.4-23.9l-0.5-3.8l-3,2.4c-1.7,1.3-3,2.3-4.3,3l-1.9,1.1l14.5,23.5l11.9,19.3h-55.4l-6.5-12.7l-2,12.7h-75
		l-3.9-18.2H68.5l-9.2,18.2H7l59.1-118h47.7l13.1,61.7l9.7-61.7h34.9c8.3,0,14.4,0.3,18.8,0.9c4.8,0.7,9.2,2,12.9,3.7
		c6.8,3.2,12,7.8,15.7,13.8c0.7,1.2,1.4,2.5,2.1,4.1l1.5,3.5l2.6-3.6c0.7-0.9,1.3-1.8,2-2.7c5.9-7.2,13.4-12.8,22.2-16.6
		c8.6-3.7,18.2-5.6,28.6-5.6c5.9,0,11.7,0.7,17.3,2c5.6,1.3,11.1,3.4,16.4,6l7.1,3.6l-7.6,46.5L339,40.9h47.7l13,61.2l9.6-61.2h25.9
		c12.9,0,22,0.4,27.9,1.1c6.6,0.9,12,2.4,16.4,4.6c9.1,4.6,16.2,11.4,21,20.3c0.6,1.1,1.1,2.3,1.7,3.6l3.3,7.8l5.9-37.4h77.5
		L581.9,84.9z"/>
</g>
</svg>
