<?xml version="1.0" encoding="utf-8"?>
<!-- Generator: Adobe Illustrator 24.0.1, SVG Export Plug-In . SVG Version: 6.00 Build 0)  -->
<svg version="1.1" id="Ebene_1" xmlns="http://www.w3.org/2000/svg" xmlns:xlink="http://www.w3.org/1999/xlink" x="0px" y="0px"
	 viewBox="0 0 566.9 115.2" style="enable-background:new 0 0 566.9 115.2;" xml:space="preserve">
<g>
	<g>
		<g id="_x23_ffffffff">
			<path style="fill:#FFFFFF;" d="M123.4,22.6c3.1-3.9,9.4-4.6,13.2-1.3c1.5,1.3,2.6,3.1,3.2,5c7,24,14,48,21,72.1
				c-4.1,0-8.2,0-12.4,0c-1.9-6.6-3.8-13.3-5.8-19.9c-8,0-15.9,0-23.9,0c-2,6.6-3.9,13.3-5.8,19.9c-4.1,0-8.2,0-12.3,0
				c6.6-22.9,13.3-45.8,19.9-68.7C121.4,27.2,121.7,24.6,123.4,22.6 M130.7,37.3c-2.9,10-5.8,19.9-8.7,29.9c5.8,0,11.6,0,17.4,0
				C136.5,57.3,133.6,47.3,130.7,37.3z"/>
			<path style="fill:#FFFFFF;" d="M210.2,23.1c2.1-3.1,6.3-4.6,10-3.7c3.3,0.8,5.9,3.7,6.8,6.9c7,24,14,48,20.9,72
				c-4.1,0-8.3,0-12.4,0c-1.9-6.6-3.8-13.3-5.7-19.9c-8,0-15.9,0-23.9,0c-1.9,6.6-3.9,13.3-5.8,19.9c-4.1,0-8.2,0-12.3,0
				c6.6-23,13.3-46.1,20-69.1C208.6,27.2,208.9,24.9,210.2,23.1 M209.2,67.2c5.8,0,11.5,0,17.3,0c-2.9-10-5.8-20-8.6-29.9
				C215,47.3,212.1,57.2,209.2,67.2z"/>
			<path style="fill:#FFFFFF;" d="M151.6,19.3c14.9,0,29.8,0,44.7,0c0,4,0,8,0,12.1c-5.5,0-11,0-16.5,0c0,22.3,0,44.7,0,67
				c-3.9,0-7.9,0-11.8,0c0-22.3,0-44.7,0-67c-5.5,0-11,0-16.5,0C151.6,27.4,151.6,23.4,151.6,19.3z"/>
			<path style="fill:#FFFFFF;" d="M261,19.8c1.1-0.4,2.3-0.5,3.5-0.5c4.7,0,9.4,0,14.1,0c7.9,0.1,15.5,5.1,18.9,12.2
				c2.4,4.6,2.6,10,2,15.1c-0.4,5.3-2.6,10.6-6.7,14.1c-2.2,1.9-4.8,3.1-7.2,4.8c-1.3,1-1.3,2.8-0.7,4.2
				c6.2,9.6,12.7,19.1,19.1,28.7c-4.7,0-9.3,0-14,0C284,89.2,278,80,271.9,70.9c-1.8-2.6-2.3-6.1-1.2-9c0.8-2.3,2.8-4,5.1-4.8
				c4.2-1.6,8.4-4.2,10.8-8.2c1.8-3,1.7-6.7,0.9-10c-0.9-4.3-5.1-7.6-9.5-7.5c-3,0-6.1,0-9.1,0c-1.4,0-2.7,1.2-2.7,2.6
				c0,21.5,0,43,0,64.5c-4,0-7.9,0-11.9,0c0-23.1,0-46.3,0-69.4C254.3,24.9,257.2,21.1,261,19.8z"/>
			<path style="fill:#FFFFFF;" d="M310.3,19.3c4.2,0,8.3,0,12.5,0c0,26.3,0,52.7,0,79c-4.2,0-8.3,0-12.5,0
				C310.3,72,310.3,45.7,310.3,19.3z"/>
		</g>
	</g>
</g>
<g>
	<path style="fill:#FFFFFF;" d="M527.3,98.4c-21.8,0-39.6-17.8-39.6-39.6c0-21.8,17.8-39.6,39.6-39.6c21.8,0,39.6,17.8,39.6,39.6
		C566.9,80.6,549.2,98.4,527.3,98.4z M527.3,22.1c-20.2,0-36.7,16.5-36.7,36.7c0,20.2,16.5,36.7,36.7,36.7
		c20.2,0,36.7-16.5,36.7-36.7C564,38.5,547.6,22.1,527.3,22.1z M527.3,85.8c-14.9,0-27-12.1-27-27c0-14.9,12.1-27,27-27
		s27,12.1,27,27C554.3,73.6,542.2,85.8,527.3,85.8z M527.3,34.7c-13.3,0-24.1,10.8-24.1,24.1c0,13.3,10.8,24.1,24.1,24.1
		c13.3,0,24.1-10.8,24.1-24.1C551.4,45.5,540.6,34.7,527.3,34.7z"/>
</g>
<g>
	<path style="fill:#FFFFFF;" d="M446.3,98.4c-21.8,0-39.6-17.8-39.6-39.6c0-21.8,17.8-39.6,39.6-39.6c21.8,0,39.6,17.8,39.6,39.6
		C485.9,80.6,468.1,98.4,446.3,98.4z M446.3,22.1c-20.2,0-36.7,16.5-36.7,36.7c0,20.2,16.5,36.7,36.7,36.7s36.7-16.5,36.7-36.7
		C483,38.5,466.5,22.1,446.3,22.1z M446.3,85.8c-14.9,0-27-12.1-27-27c0-14.9,12.1-27,27-27c14.9,0,27,12.1,27,27
		C473.2,73.6,461.1,85.8,446.3,85.8z M446.3,34.7c-13.3,0-24.1,10.8-24.1,24.1c0,13.3,10.8,24.1,24.1,24.1s24.1-10.8,24.1-24.1
		C470.3,45.5,459.5,34.7,446.3,34.7z"/>
</g>
<g>
	<path style="fill:#FFFFFF;" d="M378.4,98.4c-15.3,0-27.7-12.4-27.7-27.7c0-9.2,4.6-17.8,12.2-23c-1.9-3-2.9-6.4-2.9-10
		c0-10.2,8.3-18.5,18.5-18.5s18.5,8.3,18.5,18.5c0,3.6-1,7-2.9,10c7.6,5.1,12.2,13.8,12.2,23C406.1,85.9,393.7,98.4,378.4,98.4z
		 M378.4,22.1c-8.6,0-15.6,7-15.6,15.6c0,3.5,1.1,6.8,3.3,9.5l1,1.3l-1.4,0.8c-7.5,4.5-12.1,12.6-12.1,21.3
		c0,13.7,11.1,24.8,24.8,24.8c13.7,0,24.8-11.1,24.8-24.8c0-8.7-4.6-16.9-12.1-21.3l-1.4-0.8l1-1.3c2.1-2.8,3.3-6,3.3-9.5
		C394,29.1,387,22.1,378.4,22.1z M378.4,86.9c-8.9,0-16.2-7.3-16.2-16.2c0-8.9,7.3-16.2,16.2-16.2c8.9,0,16.2,7.3,16.2,16.2
		C394.6,79.6,387.3,86.9,378.4,86.9z M378.4,57.3c-7.3,0-13.3,6-13.3,13.3c0,7.3,6,13.3,13.3,13.3c7.3,0,13.3-6,13.3-13.3
		C391.7,63.3,385.7,57.3,378.4,57.3z M378.4,45.8c-4.5,0-8.2-3.7-8.2-8.2c0-4.5,3.7-8.2,8.2-8.2s8.2,3.7,8.2,8.2
		C386.6,42.1,382.9,45.8,378.4,45.8z M378.4,32.4c-2.9,0-5.2,2.4-5.2,5.2c0,2.9,2.4,5.2,5.2,5.2c2.9,0,5.2-2.4,5.2-5.2
		C383.6,34.8,381.3,32.4,378.4,32.4z"/>
</g>
<g>
	<g>
		<path style="fill:#FFFFFF;" d="M70.5,19.2H8.8c-4.8,0-8.8,3.9-8.8,8.8v61.7c0,4.8,3.9,8.8,8.8,8.8h61.7c4.8,0,8.8-3.9,8.8-8.8
			V27.9C79.2,23.1,75.3,19.2,70.5,19.2z M34.3,51c-0.2,3.7-0.4,7.4-1,11c-0.4,2.5-1.3,4.9-2.4,7.2c-1.8,3.7-4.5,6.9-7.6,9.5
			c-2.8,2.4-6.1,4.2-9.6,5.4c-2,0.7-4,1.2-6.1,1.5c0-2.6,0-5.1,0-7.7c2.5-0.4,4.9-1.3,7.1-2.4c2.6-1.4,5-3.3,7-5.5
			c2.1-2.3,3.7-4.9,5-7.7c1.5-3.2,2.3-6.7,2.8-10.2c0.7-4.4,1-8.9,1.1-13.4c0-1.5,0-3,0-4.6c1.3,0,2.6,0,3.9,0c0,3.1,0,6.1,0,9.2
			C34.4,45.9,34.4,48.5,34.3,51z M43.2,34.2c0,17.2,0,34.4,0,51.6c-2.4,0-4.8,0-7.2,0c0-5.5,0-11,0-16.4c0-11.7,0-23.4,0-35.1
			C38.4,34.1,40.8,34.2,43.2,34.2C43.2,34.2,43.2,34.2,43.2,34.2z M71.6,85.7c-2.1-0.3-4.1-0.8-6-1.5c-2.3-0.8-4.6-1.9-6.7-3.2
			c-1.5-1-2.9-2.1-4.2-3.4c-2.2-2-4.1-4.3-5.6-6.9c-1.1-2-2-4.2-2.6-6.4c-0.6-2.2-0.9-4.5-1.1-6.8c-0.5-5-0.6-9.9-0.6-14.9
			c0-2.8,0-5.6,0-8.5c1.3,0,2.6,0,3.9,0c0,5.2,0.1,10.5,0.8,15.7c0.5,4,1.2,8.1,2.8,11.9c1.5,3.6,3.7,7,6.6,9.8
			c2.7,2.6,6.1,4.6,9.7,5.8c1,0.3,2,0.6,3.1,0.7C71.6,80.6,71.6,83.2,71.6,85.7z"/>
	</g>
</g>
</svg>
