<?xml version="1.0" encoding="utf-8"?>
<!-- Generator: Adobe Illustrator 24.0.1, SVG Export Plug-In . SVG Version: 6.00 Build 0)  -->
<svg version="1.1"
	 id="Layer_3" xmlns:cc="http://creativecommons.org/ns#" xmlns:dc="http://purl.org/dc/elements/1.1/" xmlns:rdf="http://www.w3.org/1999/02/22-rdf-syntax-ns#"
	 xmlns="http://www.w3.org/2000/svg" xmlns:xlink="http://www.w3.org/1999/xlink" x="0px" y="0px" viewBox="0 0 598.2 350.3"
	 style="enable-background:new 0 0 598.2 350.3;" xml:space="preserve">
<g>
	<path style="fill:#FFFFFF;" d="M537.4,106.6c-2.4-11.6-4.6-21.1-6.1-27c-0.8-3.2-1.6-6.1-2.2-8.4c-0.6-2.2-1-3.4-1.2-4
		c-0.8-1.9-1.6-3.2-2.8-4c-1-0.7-2.2-1.1-3.7-1.1c-0.5,0-58.8-0.2-67.5-0.3c-4.3-0.1-6.7-0.1-8.4-0.1l-4,0.1l0.6,0.3
		c-0.1,0-0.1,0-0.2,0c-0.6,0.1-2.2,0.6-5,1.4l-0.6,0.2c-2.4,0.7-5.4,1.6-8.3,2.4c-5,1.5-9.8,2.9-11.6,3.5c-0.9-0.5-1.8-0.8-2.8-0.8
		H177.5c-1,0-1.9,0.3-2.8,0.8c-1.8-0.5-6.6-2-11.6-3.5c-3-0.9-6.1-1.8-8.5-2.5l-0.3-0.1c-2.5-0.8-4.4-1.3-5-1.4
		c-0.9-0.2-1.8-0.3-3.2-0.4l-0.5,0c-1.6,0-4,0-8.4,0.1c-8.7,0.2-67,0.3-67.5,0.3c-1.5,0-2.7,0.4-3.7,1.1c-1.1,0.8-2,2.1-2.8,4
		c-0.2,0.6-0.6,1.9-1.2,4c-0.6,2.3-1.4,5.2-2.2,8.4c-1.5,5.9-3.7,15.4-6.1,27c-3.9,19.1-8.5,46.7-8.5,69.9v8.6
		c0,23.2,4.6,50.9,8.5,69.9c2.3,11.5,4.6,21,6.1,26.9c0.8,3.4,1.6,6.3,2.2,8.4c0.6,2.1,1,3.4,1.2,4c0.8,1.9,1.6,3.2,2.8,4
		c1,0.7,2.2,1.1,3.7,1.1c0.5,0,58.7,0.1,67.5,0.3c3.1,0.1,5.4,0.1,7,0.1c0.5,0,1,0,1.4,0c1.7,0,2.6-0.2,3.6-0.4
		c0.6-0.1,2.2-0.6,5-1.4c1.7-0.5,3.7-1.1,5.8-1.7l3.1-0.9c5-1.5,9.8-2.9,11.6-3.5c0.9,0.5,1.8,0.8,2.8,0.8h236.3
		c1,0,1.9-0.3,2.8-0.8c1.8,0.5,6.6,2,11.6,3.5l2.8,0.9c2.2,0.6,4.2,1.3,6,1.8c2.7,0.8,4.4,1.3,5,1.4c1,0.2,1.9,0.4,3.7,0.4
		c0.4,0,0.9,0,1.5,0c1.6,0,3.7,0,6.9-0.1c8.7-0.2,67-0.3,67.5-0.3c1.5,0,2.7-0.4,3.7-1.1c1.1-0.8,2-2.1,2.8-4c0.2-0.6,0.6-1.9,1.2-4
		c0.6-2.1,1.4-5.1,2.2-8.4c1.5-5.9,3.8-15.4,6.1-26.9c3.9-19.1,8.5-46.8,8.5-69.9v-8.6C545.9,153.4,541.3,125.7,537.4,106.6z
		 M523,295.5c-0.4,0.3-0.8,0.4-1.5,0.4c-0.2,0-5.6,0-13.3,0c0.5-0.2,1.1-0.5,1.5-1c0.8-0.8,1.5-2,2.3-3.8c0.2-0.6,0.6-1.8,1.2-4
		c0.6-2,1.3-4.8,2.2-8.5c1.5-5.9,3.8-15.4,6.2-26.9c3.9-19,8.6-46.3,8.6-68.2v-5.2c0-21.9-4.7-49.2-8.6-68.2
		c-2.4-11.6-4.7-21-6.2-27c-0.8-3.3-1.6-6.2-2.2-8.5c-0.6-2.2-1-3.4-1.2-4c-0.8-1.9-1.5-3-2.3-3.8c-0.4-0.5-1-0.8-1.5-1
		c7.7,0,13.2,0,13.3,0c0.7,0,1.1,0.1,1.5,0.4c0.5,0.4,1,1.2,1.5,2.4c0.1,0.2,0.5,1.5,1.1,3.6c0.5,1.7,1.3,4.6,2.2,8.3
		c2.2,8.9,4.3,17.9,6.1,26.8c3.8,18.9,8.4,46.3,8.4,69.2v8.6c0,22.9-4.6,50.3-8.4,69.2c-2.3,11.2-4.6,20.8-6.1,26.8
		c-0.7,2.8-1.5,5.6-2.2,8.3c-0.6,2.3-1,3.5-1.1,3.7C524,294.3,523.5,295.1,523,295.5z M66.7,293.1c-0.1-0.2-0.5-1.5-1.1-3.7
		c-0.7-2.7-1.5-5.4-2.2-8.3c-1.5-5.8-3.7-15.1-6-26.8c-3.8-18.9-8.4-46.3-8.4-69.2v-8.6c0-22.9,4.6-50.3,8.4-69.2
		c2.3-11.5,4.6-20.9,6-26.8c1-3.8,1.7-6.6,2.2-8.3c0.6-2,1-3.4,1.1-3.6c0.5-1.2,1-2,1.5-2.4c0.4-0.3,0.8-0.4,1.5-0.4c0,0,0,0,0,0
		c0.1,0,5.6,0,13.3,0c-0.5,0.2-1.1,0.5-1.5,1c-0.8,0.8-1.5,2-2.3,3.8c-0.2,0.6-0.6,1.8-1.2,4c-0.8,2.9-1.5,5.6-2.3,8.5
		c-1.5,5.9-3.8,15.3-6.2,27c-3.9,19-8.6,46.2-8.6,68.2v5.2c0,22,4.7,49.2,8.6,68.2c2.4,11.6,4.7,21.1,6.2,26.9
		c0.9,3.7,1.8,6.7,2.3,8.5c0.6,2.2,1,3.4,1.2,4c0.8,1.8,1.5,3,2.3,3.8c0.4,0.4,1,0.8,1.5,1c-7.7,0-13.2,0-13.3,0
		c-0.7,0-1.1-0.1-1.5-0.4C67.7,295.1,67.1,294.3,66.7,293.1z M137,68.8c4.4-0.1,6.7-0.1,8.2-0.1c1.4,0,2,0.1,2.8,0.3l0.2,0.1
		c0.5,0.1,2.2,0.6,4.4,1.2c2.4,0.7,5.4,1.6,8.3,2.4c3.6,1.1,7.1,2.1,9.2,2.7c-13.2,27.3-19.3,72.7-19.3,103.5v3.7
		c0,30.8,6,76.2,19.3,103.5c-2.2,0.6-5.6,1.7-9.2,2.7l-3.6,1.1c-1.7,0.5-3.2,1-4.6,1.4c-2.3,0.7-4.2,1.2-4.6,1.3
		c-0.9,0.2-1.5,0.3-2.9,0.3c-1.5,0-4,0-8.2-0.1c-8.6-0.2-50.8-0.3-52.5-0.3c-0.1,0-0.1,0-0.1,0c0,0-0.1,0-0.2-0.2
		c-0.2-0.2-0.7-0.8-1.5-2.6c-0.1-0.2-0.4-1.3-1.1-3.7c-0.7-2.4-1.4-5.1-2.2-8.4c-2.1-8.1-4.2-17.6-6.1-26.8
		c-3.9-18.8-8.5-45.8-8.5-67.4v-5.2c0-21.7,4.6-48.6,8.5-67.4c1.9-9.2,4.1-18.7,6.1-26.8c0.9-3.6,1.7-6.5,2.2-8.4
		c0.7-2.3,1-3.5,1.1-3.6c0.7-1.8,1.3-2.4,1.5-2.6c0.1-0.1,0.2-0.2,0.2-0.2c0,0,0.1,0,0.1,0C86.1,69.1,128.3,68.9,137,68.8z
		 M176.1,286.7c-0.7,0-1,0-1.2-0.1c-0.1-0.1-0.6-0.4-1.2-1.5l-0.1-0.1c-12.5-25.5-19.1-70.7-19.1-102.3v-3.7
		c0-31.6,6.6-77,19.2-102.4c0.7-1.2,1.1-1.5,1.3-1.6c0.2-0.1,0.3-0.1,0.8-0.1H415c0.7,0,1,0,1.2,0.1c0.1,0.1,0.6,0.4,1.2,1.5l0,0.1
		c12.6,25.5,19.1,70.8,19.1,102.4v3.7c0,31.6-6.6,76.9-19.1,102.3c-0.7,1.1-1.1,1.5-1.3,1.6c-0.2,0.1-0.4,0.1-1.2,0.1H176.1z
		 M446,292.9c-1.4,0-2-0.1-2.9-0.3c-0.3-0.1-2-0.5-4.5-1.3c-1.4-0.4-3.1-0.9-4.8-1.4l-3.5-1c-3.6-1.1-7.1-2.1-9.2-2.7
		c13.2-27.3,19.3-72.7,19.3-103.5V179c0-30.8-6-76.2-19.3-103.5c2.2-0.6,5.7-1.7,9.2-2.7c2.9-0.9,5.9-1.7,8.3-2.4
		c2.5-0.7,4.2-1.2,4.5-1.3c0.9-0.2,1.5-0.3,2.9-0.3c1.5,0,3.8,0,8.2,0.1c8.6,0.2,50.8,0.3,52.5,0.3c0,0,0.1,0,0.1,0
		c0,0,0.1,0,0.2,0.2c0.2,0.2,0.8,0.9,1.5,2.6c0.1,0.2,0.5,1.4,1.1,3.6c0.6,2.3,1.4,5.2,2.2,8.4c1.5,6,3.8,15.5,6.2,26.8
		c3.9,18.8,8.5,45.8,8.5,67.4v5.2c0,21.6-4.6,48.6-8.5,67.4c-2.3,11.3-4.6,20.8-6.2,26.8c-1,3.8-1.7,6.7-2.2,8.4
		c-0.7,2.4-1,3.5-1.1,3.7c-0.7,1.8-1.3,2.4-1.5,2.6c-0.1,0.1-0.2,0.2-0.2,0.2c0,0-0.1,0-0.1,0c-1.7,0-43.9,0.2-52.5,0.3
		C449.7,292.9,447.5,292.9,446,292.9z"/>
	<path style="fill:#FFFFFF;" d="M448.7,222.9c-0.2,1.3,0.7,2.5,2.1,2.7c0.1,0,0.3,0,0.4,0c0.5,0,1.1-0.2,1.5-0.5
		c0.5-0.4,0.8-0.9,0.9-1.5c2.3-14.8,3.5-29.9,3.5-44.9v-1.4c0-15-1.2-30.1-3.5-44.9c-0.1-0.6-0.4-1.1-0.9-1.5
		c-0.5-0.4-1.2-0.5-1.9-0.4c-1.3,0.2-2.3,1.4-2.1,2.7c2.2,14.5,3.4,29.4,3.4,44.1v1.6C452.1,193.5,451,208.3,448.7,222.9z"/>
	<path style="fill:#FFFFFF;" d="M457.4,227.2c0.1,0,0.3,0,0.4,0c0.5,0,1.1-0.2,1.5-0.5c0.5-0.4,0.8-0.9,0.9-1.5
		c2.4-15.3,3.6-30.9,3.6-46.4v-1.4c0-15.5-1.2-31.1-3.6-46.4c-0.1-0.6-0.4-1.1-0.9-1.5c-0.5-0.4-1.2-0.6-1.9-0.5
		c-1.4,0.2-2.3,1.4-2.1,2.7c2.3,15,3.5,30.3,3.5,45.5l0,0.8c0,0.3,0,0.5,0,0.9c0,15.2-1.2,30.5-3.5,45.5
		C455,225.7,456,227,457.4,227.2z"/>
	<path style="fill:#FFFFFF;" d="M141.1,178.7c0,15,1.2,30.1,3.5,44.9c0.1,0.6,0.4,1.1,0.9,1.5c0.4,0.3,0.9,0.5,1.5,0.5
		c0.1,0,0.3,0,0.4,0c1.3-0.2,2.3-1.4,2.1-2.7c-2.2-14.6-3.4-29.4-3.4-44.1v-1.6c0-14.7,1.2-29.5,3.4-44.1c0.2-1.3-0.7-2.5-2.1-2.7
		c-0.7-0.1-1.4,0.1-1.9,0.4c-0.5,0.4-0.8,0.9-0.9,1.5c-2.3,14.8-3.5,29.9-3.5,44.9V178.7z"/>
	<path style="fill:#FFFFFF;" d="M138.9,226.7c0.4,0.3,1,0.5,1.5,0.5c0.1,0,0.3,0,0.4,0c1.4-0.2,2.3-1.4,2.1-2.7
		c-2.3-15-3.5-30.3-3.5-45.5c0-0.1,0-0.2,0-0.3l0,0l0-1.3c0-15.2,1.2-30.5,3.5-45.5c0.2-1.3-0.8-2.5-2.1-2.7
		c-0.7-0.1-1.4,0.1-1.9,0.5c-0.5,0.4-0.8,0.9-0.9,1.5c-2.4,15.3-3.6,30.9-3.6,46.4v1.4c0,15.5,1.2,31.1,3.6,46.4
		C138,225.8,138.4,226.4,138.9,226.7z"/>
	<path style="fill:#FFFFFF;" d="M464.6,229.4c0.2,0,0.3,0,0.5,0c0.5,0,1.1-0.2,1.5-0.5c0.5-0.4,0.9-0.9,1-1.5
		c2.7-15.8,4.1-32,4.1-48.2v-1.5c-0.1-16.2-1.4-32.4-4.1-48.2c-0.1-0.6-0.5-1.2-1-1.5c-0.6-0.4-1.3-0.6-2-0.4
		c-1.4,0.2-2.3,1.5-2.1,2.8c2.6,15.3,4,30.9,4,46.5l0,0l0,0.7c0,0.7,0,1,0,1.7c0,15.8-1.4,31.7-4,47.2
		C462.3,227.9,463.2,229.2,464.6,229.4z"/>
	<path style="fill:#FFFFFF;" d="M473.3,231.4c0.2,0,0.3,0,0.5,0c0.6,0,1.1-0.2,1.6-0.5c0.5-0.4,0.9-0.9,1-1.6
		c2.8-16.6,4.2-33.5,4.3-50.2v-1.6c0-16.8-1.5-33.7-4.3-50.2c-0.1-0.6-0.5-1.2-1-1.6c-0.6-0.4-1.3-0.6-2-0.4
		c-1.4,0.3-2.4,1.6-2.2,2.9c2.7,16.1,4.1,32.4,4.2,48.7l0,0.6c0,0.7,0,1.1,0,1.8c0,16.4-1.5,33-4.2,49.2
		C470.9,229.9,471.9,231.2,473.3,231.4z"/>
	<path style="fill:#FFFFFF;" d="M481.8,230.8c-0.3,1.4,0.7,2.7,2.2,3c0.2,0,0.4,0,0.5,0c0.6,0,1.1-0.2,1.6-0.5
		c0.6-0.4,0.9-1,1.1-1.6c3.2-17.2,4.8-34.8,4.9-52.3v-1.6c-0.1-17.5-1.7-35.2-4.9-52.3c-0.1-0.7-0.5-1.2-1.1-1.6
		c-0.6-0.4-1.4-0.6-2.1-0.4c-1.5,0.3-2.4,1.6-2.2,3c3.1,16.9,4.7,34.1,4.8,51.2v0c0,0,0,0,0,0l0.5,0l-0.5,0c0,0.7,0,1.1,0,1.8
		C486.5,196.7,484.9,213.9,481.8,230.8z"/>
	<path style="fill:#FFFFFF;" d="M494.2,233.7c-0.3,1.4,0.8,2.8,2.3,3.1c0.2,0,0.4,0.1,0.6,0.1c0.6,0,1.1-0.2,1.6-0.5
		c0.6-0.4,1-1,1.1-1.7c3.4-18.2,5.1-36.8,5.2-55.3v-1.7c-0.1-18.5-1.8-37.1-5.2-55.3c-0.1-0.7-0.5-1.3-1.1-1.7
		c-0.6-0.4-1.4-0.6-2.2-0.4c-1.5,0.3-2.5,1.7-2.3,3.1c3.3,17.9,5,36.1,5.1,54.2v0c0,0.8,0,1.2,0,1.9
		C499.2,197.6,497.5,215.8,494.2,233.7z"/>
	<path style="fill:#FFFFFF;" d="M512.1,117.2c-0.6-0.4-1.3-0.6-2-0.4c-1.5,0.3-2.4,1.7-2.2,3.2c3.4,18.4,5.2,37.1,5.3,55.8v1.4
		c0,0.8,0,1.2,0,2.1c-0.1,19.1-1.9,38.4-5.3,57.2c-0.3,1.5,0.7,2.9,2.2,3.2c0.2,0,0.3,0,0.5,0c0.5,0,1.1-0.2,1.5-0.5
		c0.6-0.4,1-1,1.2-1.8c3.5-19.1,5.4-38.7,5.4-58.3v-1.8c-0.1-19.5-1.9-39.1-5.4-58.3C513.2,118.2,512.7,117.6,512.1,117.2z"/>
	<path style="fill:#FFFFFF;" d="M441.8,116.6L441.8,116.6c0.8,1.8,2.6,2.9,4.6,2.9c0.3,0,0.7,0,1-0.1l26.5-5.8
		c1.3-0.3,2.4-1,3.1-2.1c0.7-1.1,0.9-2.4,0.7-3.6l0-0.2l-8.4-24.1l0-0.1l0,0c-0.5-1.9-2-3.3-3.9-3.6c-0.6-0.1-1.3-0.1-1.9,0
		l-26.5,5.8c-1.3,0.3-2.4,1-3.1,2.1c-0.7,1.1-0.9,2.4-0.7,3.6l0,0.2l8.4,24.1L441.8,116.6z M455.3,110.4c-5.9,0-10.8-4.8-10.8-10.8
		s4.8-10.8,10.8-10.8c6,0,10.8,4.8,10.8,10.8S461.3,110.4,455.3,110.4z M469.8,99.6c0-7.7-6.1-14-13.7-14.4l8-1.8h0
		c0.7-0.1,1.3,0.3,1.4,0.9l8.4,24.3c0.1,0.6-0.3,1.2-0.9,1.4l-10.9,2.4C466.7,110,469.8,105.2,469.8,99.6z M440.9,99.6
		c0,7.7,6.1,14,13.7,14.4l-8,1.8c-0.3,0.1-0.6,0-0.9-0.2c-0.3-0.2-0.5-0.4-0.5-0.8l0,0l-8.4-24.2l0,0c-0.1-0.7,0.3-1.3,0.9-1.4
		l10.9-2.4C444,89.3,440.9,94.1,440.9,99.6z"/>
	<path style="fill:#FFFFFF;" d="M469.5,83.8l8.4,24.1l0.2,0.9h0.1c0.8,1.8,2.6,2.9,4.5,2.9c0.3,0,0.7,0,1-0.1l26.5-5.8
		c2.6-0.6,4.2-3.1,3.7-5.7l0-0.4l-0.1-0.1l-8.3-23.9l0,0c-0.5-1.8-2-3.3-3.9-3.6c-0.6-0.1-1.3-0.1-1.9,0l-26.5,5.8
		c-2.6,0.6-4.2,3.1-3.7,5.7L469.5,83.8z M491.7,102.6c-6,0-10.8-4.8-10.8-10.8c0-5.9,4.8-10.8,10.8-10.8c5.9,0,10.8,4.8,10.8,10.8
		C502.5,97.8,497.7,102.6,491.7,102.6z M506.2,91.8c0-7.7-6.1-14.1-13.8-14.4l8.2-1.8c0.3,0,0.6,0,0.8,0.2c0.3,0.2,0.5,0.4,0.5,0.8
		l8.4,24.3c0.1,0.6-0.3,1.2-0.9,1.4l-10.9,2.4C503.1,102.1,506.2,97.3,506.2,91.8z M477.3,91.8c0,7.7,6.1,14,13.7,14.4l-8,1.8
		c-0.7,0.1-1.3-0.3-1.4-0.9l0,0l-8.4-24.2l0,0c-0.1-0.7,0.3-1.3,0.9-1.4l11-2.4C480.4,81.4,477.3,86.2,477.3,91.8z"/>
	<path style="fill:#FFFFFF;" d="M513.9,259.5v-0.1c0.5-2.6-1.1-5.2-3.7-5.7l-26.5-5.8c-0.6-0.1-1.3-0.2-1.9,0
		c-1.6,0.3-2.9,1.4-3.6,2.9h-0.1l-0.2,0.8l-8.3,24l-0.1,0.2v0.3c-0.2,1.2,0,2.5,0.7,3.6c0.7,1.1,1.8,1.9,3.1,2.2l26.5,5.8
		c0.3,0.1,0.7,0.1,1,0.1c1.9,0,3.7-1.2,4.5-2.9h0.1l0.2-0.8l8.3-24.1L513.9,259.5z M502,282.7l-0.1,0.2c-0.1,0.3-0.3,0.6-0.5,0.8
		c-0.3,0.2-0.6,0.2-0.9,0.2l-8.1-1.8c7.6-0.4,13.7-6.7,13.7-14.4c0-5.5-3.1-10.3-7.7-12.8l10.9,2.4c0.6,0.1,1,0.8,0.9,1.4L502,282.7
		z M481.4,252.6l0.1-0.3v-0.1c0.2-0.6,0.8-1,1.4-0.8l8.1,1.8c-7.6,0.4-13.8,6.7-13.8,14.4c0,5.5,3.1,10.4,7.7,12.8L474,278
		c-0.6-0.1-1-0.8-0.9-1.3l0-0.1L481.4,252.6z M491.7,256.9c5.9,0,10.8,4.8,10.8,10.8c0,6-4.8,10.8-10.8,10.8
		c-6,0-10.8-4.8-10.8-10.8C480.9,261.7,485.8,256.9,491.7,256.9z"/>
	<path style="fill:#FFFFFF;" d="M477.5,251.9v-0.3c0.2-1.2,0-2.5-0.7-3.6c-0.7-1.1-1.8-1.9-3.1-2.2l-26.5-5.8c-0.6-0.1-1.3-0.2-2,0
		c-1.6,0.3-2.9,1.4-3.6,2.9h-0.1l-0.2,0.8l-8.3,24.1l-0.1,0.2v0.1c-0.2,1.2,0,2.5,0.7,3.6c0.7,1.1,1.8,1.9,3,2.1l26.5,5.8
		c0.3,0.1,0.7,0.1,1,0.1c2.2,0,4.2-1.5,4.8-3.7l8.3-24L477.5,251.9z M465.6,274.9l-0.1,0.2c-0.1,0.7-0.8,1.1-1.4,0.9l-8.1-1.8
		c7.6-0.4,13.8-6.7,13.8-14.4c0-5.5-3.1-10.4-7.7-12.8l11,2.4c0.6,0.1,1,0.7,0.9,1.4L465.6,274.9z M445.1,244.7l0.1-0.2
		c0.1-0.7,0.8-1.1,1.4-0.9l1.4,0.3l0,0l6.7,1.5c-7.6,0.4-13.8,6.7-13.8,14.4c0,5.5,3.1,10.3,7.7,12.8l-10.9-2.4
		c-0.6-0.1-1-0.7-0.9-1.4L445.1,244.7z M455.3,249c6,0,10.8,4.8,10.8,10.8c0,5.9-4.8,10.8-10.8,10.8c-5.9,0-10.8-4.8-10.8-10.8
		C444.6,253.9,449.4,249,455.3,249z"/>
	<path style="fill:#FFFFFF;" d="M84.1,156.9c0,1.8-1.5,3.3-3.3,3.3h-9.6c-2.8,0-5.1,2.3-5.1,5.1v20.4c0,2.8,2.3,5.1,5.1,5.1h9.6
		c0.9,0,1.7,0.3,2.3,0.8c0.7,0.6,1,1.4,1,2.5v9.6c0,2.8,2.3,5.1,5.1,5.1h20.4c2.8,0,5.1-2.3,5.1-5.1v-9.6c0-1.2,0.3-2,0.8-2.6
		c0.5-0.5,1.4-0.8,2.5-0.8h9.6c2.8,0,5.1-2.3,5.1-5.1v-20.4c0-2.8-2.3-5.1-5.1-5.1h-9.6c-1.7,0-2.3-0.5-2.6-0.8
		c-0.5-0.5-0.7-1.3-0.7-2.5v-9.6c0-2.8-2.3-5.1-5.1-5.1H88.2v0.1c-2.4,0.5-4.1,2.6-4.1,5V156.9z M87.8,147.3c0-0.4,0.2-0.8,0.4-1
		c0.3-0.3,0.6-0.4,1-0.4h3.4c-2,1.1-3.6,2.7-4.8,4.7V147.3z M111.1,147.3v3.2c-1.2-1.9-2.9-3.5-4.8-4.7h3.4
		C110.5,145.8,111.1,146.5,111.1,147.3z M129.2,165.4v2.9c-1.1-1.8-2.6-3.2-4.4-4.3h2.9C128.5,163.9,129.2,164.6,129.2,165.4z
		 M129.2,185.8c0,0.8-0.6,1.5-1.5,1.5h-2.9c1.8-1.1,3.3-2.6,4.4-4.3V185.8z M111.1,203.8c0,0.8-0.6,1.5-1.5,1.5h-2.8
		c1.7-1.1,3.1-2.6,4.2-4.3V203.8z M87.8,201c1.1,1.7,2.5,3.2,4.2,4.3h-2.8c-0.8,0-1.5-0.6-1.5-1.5V201z M69.7,182.7
		c1.1,1.8,2.7,3.4,4.5,4.5h-3c-0.8,0-1.5-0.7-1.5-1.5V182.7z M111.9,164c1.7,1.3,3.8,1.5,5.7,1.5c5.5,0,10,4.5,10,10
		c0,5.5-4.5,10-10,10c-2.5,0-4.5,0.7-5.9,2.1c-1.5,1.4-2.2,3.5-2.2,6.1c0,5.5-4.5,10-10,10c-5.5,0-10-4.5-10-10c0-4.7-3.5-8.2-8-8.2
		c-5.5,0-10-4.5-10-10c0-5.5,4.5-10,10-10c2.6,0,4.6-0.6,5.9-1.8c1.4-1.3,2.1-3.3,2.1-6c0-5.5,4.5-10,10-10c5.5,0,10,4.5,10,10
		C109.5,160.7,110.3,162.7,111.9,164z M69.7,168.4v-3.1c0-0.8,0.6-1.4,1.5-1.4h3C72.4,165.1,70.8,166.6,69.7,168.4z"/>
	<path style="fill:#FFFFFF;" d="M385.9,96.5l-133.2,0l-38.1,0c-8.3,0-16.2,6.3-18.1,14.3c-4.5,21.6-6.7,43.4-6.7,64.8
		c0,21.4,2.3,43.2,6.7,64.8c1.8,7.7,9.2,13.8,17.1,14.3l2,0l170.3,0c8.3,0,16.2-6.3,18.1-14.3c4.5-21.7,6.7-43.5,6.7-64.8
		c0-21.3-2.3-43.1-6.7-64.8C402.1,102.9,394.1,96.6,385.9,96.5z M214.6,251.1C214.6,251.1,214.5,251.1,214.6,251.1
		c-6.4,0-13.1-5.3-14.5-11.4c-4.4-21.4-6.6-42.9-6.6-64c0-21.1,2.2-42.6,6.6-64c1.3-6.1,8.1-11.4,14.4-11.4c0,0,0,0,0.1,0h171.3
		c0,0,0,0,0.1,0c6.3,0,13.1,5.3,14.4,11.4c4.4,21.4,6.6,42.9,6.6,64c0,21.1-2.2,42.6-6.6,64c-1.3,6.1-8.1,11.4-14.5,11.4H215.6v0
		L214.6,251.1z"/>
	<path style="fill:#FFFFFF;" d="M219.4,230.8H379c2.3,0,4.2-1.9,4.2-4.2v-101c0-2.3-1.9-4.2-4.2-4.2H219.4c-2.3,0-4.2,1.9-4.2,4.2
		v101C215.2,229,217.1,230.8,219.4,230.8z M379.5,226.7c0,0.3-0.2,0.5-0.5,0.5H219.4c-0.3,0-0.5-0.2-0.5-0.5v-101
		c0-0.3,0.2-0.5,0.5-0.5H379c0.3,0,0.5,0.2,0.5,0.5V226.7z"/>
	<path style="fill:#FFFFFF;" d="M193.7,85.3c0-2.1-1.7-3.9-3.9-3.9s-3.9,1.7-3.9,3.9c0,2.1,1.7,3.9,3.9,3.9S193.7,87.5,193.7,85.3z
		 M189.8,85.6c-0.1,0-0.2-0.1-0.2-0.2c0-0.1,0.1-0.2,0.2-0.2s0.2,0.1,0.2,0.2C190,85.4,190,85.6,189.8,85.6z"/>
	<path style="fill:#FFFFFF;" d="M179,197c-0.1-0.8-0.6-1.5-1.3-2c-0.7-0.5-1.5-0.7-2.4-0.5l-7.5,1.3c-1.7,0.3-2.9,1.9-2.6,3.6
		l3.5,21c0.1,0.8,0.6,1.6,1.3,2c0.5,0.4,1.2,0.6,1.8,0.6c0.2,0,0.4,0,0.5,0l7.5-1.3c1.7-0.3,2.9-1.9,2.6-3.6L179,197z M172.3,219.2
		l-3.3-20l6.5-1.1l3.3,20L172.3,219.2z"/>
	<path style="fill:#FFFFFF;" d="M174.8,187.2c1.7,0,3.2-1.5,3.2-3.2v-21.3c0-1.7-1.5-3.2-3.2-3.2l-7.6,0c-1.7,0-3.1,1.4-3.1,3.2V184
		c0,1.8,1.4,3.2,3.1,3.2H174.8z M174.3,163.2v20.3h-6.6v-20.3H174.3z"/>
	<path style="fill:#FFFFFF;" d="M183.2,122.4l-11.2-1.9c-1-0.2-2,0-3,0.6c-0.3,0.2-0.5,0.3-0.7,0.5l-1.2-0.2l0.8,0.6
		c-0.5,0.6-0.8,1.2-0.8,1.7l-4.4,26.1c-0.1,0.7,0,1.8,1,3c0.7,0.8,1.6,1.4,2.6,1.5l11.2,1.9c0.2,0,0.4,0.1,0.7,0.1
		c0.8,0,1.6-0.2,2.3-0.6c1.4-0.8,1.8-1.8,1.9-2.5l4.4-26.1c0.2-1-0.2-2-1-3C185.1,123.1,184.2,122.5,183.2,122.4z M178.7,152.3
		c-0.2,0.1-0.5,0.2-0.5,0.2l-0.4-0.1c0.4-0.1,0.8-0.4,1.2-0.7l-0.1,0.5C178.8,152.3,178.8,152.3,178.7,152.3z M170.9,124.3
		c0.2-0.1,0.5-0.2,0.5-0.2l0.4,0.1c-0.3,0.1-0.6,0.2-0.9,0.4c-0.1,0.1-0.2,0.2-0.3,0.3l0.1-0.5C170.7,124.4,170.8,124.3,170.9,124.3
		z M183.1,127c-0.2-0.4-0.5-0.8-0.9-1l0.4,0.1c0.1,0,0.3,0.1,0.5,0.3c0,0.1,0.1,0.1,0.1,0.2L183.1,127z M169.9,147.8l3.4-20l1.6,0.3
		l0,0l4.9,0.8l-3.3,20L169.9,147.8z M166.5,149.7c0.2,0.4,0.5,0.7,0.9,1l-0.4-0.1c-0.1,0-0.3-0.1-0.5-0.3c0-0.1-0.1-0.1-0.1-0.2
		L166.5,149.7z"/>
	<path style="fill:#FFFFFF;" d="M418.7,152.6c0.2,0,0.3,0,0.5,0l7.5-1.3c0.8-0.1,1.6-0.6,2.1-1.3c0.5-0.7,0.7-1.5,0.5-2.3l-3.4-20.5
		l4.4-0.7l0,0l-0.3-2l-4.8,0.8c-0.2-0.2-0.4-0.5-0.7-0.6c-0.7-0.5-1.5-0.7-2.4-0.6l-7.5,1.3c-0.8,0.1-1.6,0.6-2,1.3
		c-0.5,0.7-0.7,1.5-0.6,2.4l3.5,21C415.8,151.5,417.2,152.6,418.7,152.6z"/>
	<path style="fill:#FFFFFF;" d="M423.6,222.9c0.6,0,1.3-0.2,1.8-0.6c0.7-0.5,1.2-1.2,1.3-2l3.5-21c0.1-0.8-0.1-1.7-0.6-2.4
		c-0.5-0.7-1.2-1.1-2-1.3l-7.5-1.3c-0.8-0.1-1.7,0-2.4,0.5c-0.7,0.5-1.1,1.2-1.3,2l-3.5,21c-0.3,1.7,0.9,3.3,2.6,3.6l7.5,1.3
		C423.3,222.9,423.4,222.9,423.6,222.9z M420,198.1l6.5,1.1l-3.4,20l-6.5-1.1L420,198.1z"/>
	<path style="fill:#FFFFFF;" d="M427.9,159.5l-7.6,0c-1.7,0-3.1,1.4-3.1,3.2V184c0,1.8,1.4,3.2,3.1,3.2h7.6c1.7,0,3.2-1.5,3.2-3.2
		v-21.3C431.1,161,429.7,159.5,427.9,159.5z M427.4,163.2v20.3h-6.6v-20.3H427.4z"/>
</g>
</svg>
