<?xml version="1.0" encoding="utf-8"?>
<!-- Generator: Adobe Illustrator 24.0.1, SVG Export Plug-In . SVG Version: 6.00 Build 0)  -->
<svg version="1.1"
	 id="Layer_3" xmlns:cc="http://creativecommons.org/ns#" xmlns:dc="http://purl.org/dc/elements/1.1/" xmlns:rdf="http://www.w3.org/1999/02/22-rdf-syntax-ns#"
	 xmlns="http://www.w3.org/2000/svg" xmlns:xlink="http://www.w3.org/1999/xlink" x="0px" y="0px" viewBox="0 0 598.2 350.3"
	 style="enable-background:new 0 0 598.2 350.3;" xml:space="preserve">
<g>
	<path style="fill:#FFFFFF;" d="M561.9,127.8c0.6-0.5,1-1.3,1-1.9c0-0.4,0-0.6,0-0.8c0-0.1,0-0.2,0-0.3c0-0.1,0-0.2,0-0.4l-0.2-3
		c-0.1-2.1-0.3-5.1-0.6-8.6l-0.7-10.3c-0.4-5.5-0.8-11.6-1.2-17.7c-1.3-19.9-2.6-39.7-2.6-39.7l-0.1-1.8H546l0,0
		c-0.1,0-2.7-0.2-5.3,1.8c-0.3-0.4-0.6-0.8-1-1c-0.2-0.2-0.5-0.3-0.8-0.4l0-0.3l-1-0.1c-0.1,0-2.8-0.2-5.4,1.8c-0.3-0.4-0.6-0.8-1-1
		c-0.2-0.2-0.5-0.3-0.8-0.4l0-0.3l-1-0.1c-0.1,0-2.8-0.2-5.4,1.8c-0.3-0.4-0.6-0.7-1-1.1c-0.3-0.2-0.6-0.3-0.9-0.4l0-0.3l-1-0.1
		c-0.1,0-2.8-0.2-5.5,1.8c-0.3-0.4-0.6-0.8-1-1c-0.2-0.2-0.5-0.3-0.8-0.4l0-0.3l-1-0.1c-0.1,0-2.8-0.2-5.4,1.8c-0.3-0.4-0.6-0.8-1-1
		c-0.2-0.2-0.5-0.3-0.8-0.4l0-0.3l-1-0.1c-0.1,0-2.8-0.2-5.4,1.8c-0.3-0.4-0.6-0.7-1-1.1c-0.2-0.2-0.5-0.3-0.8-0.4l0-0.3l-1-0.1
		c-0.1,0-2.8-0.2-5.5,1.8c-0.3-0.4-0.6-0.8-1-1c-0.2-0.2-0.5-0.3-0.8-0.4l0-0.3l-1-0.1c-0.1,0-2.8-0.2-5.4,1.8c-0.3-0.4-0.6-0.8-1-1
		c-0.2-0.2-0.5-0.3-0.8-0.4l0-0.3l-1-0.1c-0.1,0-2.8-0.2-5.5,1.8c-0.3-0.4-0.6-0.8-1-1c-0.2-0.2-0.5-0.3-0.8-0.4l0-0.3l-1-0.1
		c-0.1,0-2.8-0.2-5.4,1.8c-0.3-0.4-0.6-0.8-1-1c-0.2-0.2-0.5-0.3-0.8-0.4l0-0.3l-1-0.1c-0.1,0-2.8-0.2-5.5,1.8c-0.3-0.4-0.6-0.8-1-1
		c-0.2-0.2-0.5-0.3-0.7-0.4l0-0.3l-1-0.1c-0.1,0-2.8-0.2-5.4,1.8c-0.3-0.4-0.6-0.8-1-1c-0.2-0.2-0.5-0.3-0.8-0.4l0-0.3l-1-0.1
		c-0.1,0-2.8-0.2-5.5,1.8c-0.3-0.4-0.6-0.8-1-1c-0.2-0.2-0.5-0.3-0.8-0.4l0-0.3l-1-0.1c-0.1,0-2.8-0.2-5.4,1.8c-0.3-0.4-0.6-0.8-1-1
		c-0.2-0.2-0.5-0.3-0.8-0.4l0-0.3l-1-0.1c-0.1,0-2.8-0.2-5.4,1.8c-0.3-0.4-0.6-0.7-1-1.1c-0.2-0.2-0.5-0.3-0.8-0.4l0-0.3l-1-0.1
		c-0.1,0-2.8-0.2-5.5,1.8c-0.3-0.4-0.6-0.8-1-1c-0.2-0.2-0.5-0.3-0.8-0.4l0-0.3l-1-0.1c-0.1,0-2.8-0.2-5.4,1.8c-0.3-0.4-0.6-0.8-1-1
		c-0.2-0.2-0.5-0.3-0.8-0.4l0-0.3l-1-0.1c-0.1,0-2.8-0.2-5.5,1.8c-0.3-0.4-0.6-0.8-1-1c-0.2-0.2-0.5-0.3-0.8-0.4l0-0.3l-1-0.1
		c-0.1,0-2.8-0.2-5.4,1.8c-0.3-0.4-0.6-0.8-1-1c-0.2-0.1-0.4-0.2-0.6-0.3l0-0.4l-1-0.1c-0.1,0-2.8-0.2-5.4,1.8c-0.3-0.4-0.6-0.8-1-1
		c-0.2-0.2-0.5-0.3-0.8-0.4l0-0.3l-1-0.1c-0.1,0-2.8-0.2-5.5,1.8c-0.3-0.4-0.6-0.8-1-1c-0.2-0.2-0.5-0.3-0.8-0.4l0-0.3l-1-0.1
		c-0.1,0-2.8-0.2-5.4,1.8c-0.3-0.4-0.6-0.8-1-1c-0.2-0.2-0.5-0.3-0.8-0.4l0-0.3l-1-0.1c-0.1,0-2.8-0.2-5.5,1.8c-0.3-0.4-0.6-0.8-1-1
		c-0.2-0.2-0.5-0.3-0.8-0.4l0-0.3l-1-0.1c-0.1,0-2.8-0.2-5.5,1.8c-0.3-0.4-0.6-0.8-1-1c-0.2-0.2-0.5-0.3-0.8-0.4l0-0.3l-1-0.1
		c-0.1,0-2.8-0.2-5.4,1.8c-0.3-0.4-0.6-0.7-1-1.1c-0.2-0.2-0.5-0.3-0.8-0.4l0-0.3l-1-0.1c-0.1,0-2.8-0.2-5.5,1.8
		c-0.3-0.4-0.6-0.8-1-1c-0.2-0.2-0.5-0.3-0.8-0.4l0-0.3l-1-0.1c-0.1,0-2.8-0.2-5.4,1.8c-0.3-0.4-0.6-0.8-1-1
		c-0.2-0.2-0.5-0.3-0.7-0.4l0-0.3l-1-0.1c-0.1,0-2.8-0.2-5.5,1.8c-0.3-0.4-0.6-0.8-1-1c-0.2-0.2-0.5-0.3-0.8-0.4l0-0.3l-1-0.1
		c-0.1,0-2.8-0.2-5.4,1.8c-0.3-0.4-0.6-0.8-1-1c-0.2-0.2-0.5-0.3-0.8-0.4l0-0.3l-1-0.1c-0.1,0-2.8-0.2-5.4,1.8
		c-0.3-0.4-0.6-0.8-1-1.1c-0.2-0.2-0.5-0.3-0.8-0.4l0-0.3l-1-0.1c-0.1,0-2.8-0.2-5.4,1.8c-0.3-0.4-0.6-0.8-1-1
		c-0.2-0.2-0.5-0.3-0.8-0.4l0-0.3l-1-0.1c-0.1,0-2.8-0.2-5.5,1.8c-0.3-0.4-0.6-0.8-1-1c-0.2-0.2-0.5-0.3-0.8-0.4l0-0.3l-1-0.1
		c-0.1,0-2.8-0.2-5.5,1.8c-0.3-0.4-0.6-0.8-1-1c-0.2-0.2-0.5-0.3-0.8-0.4l0-0.3l-1-0.1c-0.1,0-2.8-0.2-5.4,1.8
		c-0.3-0.4-0.6-0.7-1-1.1c-0.2-0.2-0.5-0.3-0.8-0.4l0-0.3l-1-0.1c-0.1,0-2.8-0.2-5.5,1.8c-0.3-0.4-0.6-0.8-1-1
		c-0.3-0.2-0.6-0.3-0.9-0.4l0-0.2l-1-0.1c-0.1,0-2.8-0.2-5.4,1.8c-0.3-0.4-0.6-0.8-1-1c-0.2-0.2-0.5-0.3-0.8-0.4l0-0.3l-1-0.1
		c-0.1,0-2.8-0.2-5.4,1.8c-0.3-0.4-0.6-0.7-1-1.1c-0.2-0.2-0.5-0.3-0.8-0.4l0-0.3l-1-0.1c-0.1,0-2.8-0.2-5.5,1.8
		c-0.3-0.4-0.6-0.8-1-1c-0.2-0.2-0.5-0.3-0.8-0.4l0-0.3l-1-0.1c-0.1,0-2.8-0.2-5.4,1.8c-0.3-0.4-0.6-0.8-1-1
		c-0.2-0.2-0.5-0.3-0.8-0.4l0-0.3l-1-0.1c-0.1,0-2.8-0.2-5.5,1.8c-0.3-0.4-0.6-0.8-1-1c-0.2-0.2-0.5-0.3-0.8-0.4l0-0.3l-1-0.1
		c-0.1,0-2.8-0.2-5.4,1.8c-0.3-0.4-0.6-0.8-1-1c-0.2-0.2-0.5-0.3-0.8-0.4l0-0.3l-1-0.1c-0.1,0-2.8-0.2-5.5,1.8c-0.3-0.4-0.6-0.8-1-1
		c-0.2-0.2-0.5-0.3-0.8-0.4l0-0.3l-1-0.1c-0.1,0-2.8-0.2-5.5,1.8c-0.3-0.4-0.6-0.8-1-1c-0.2-0.2-0.5-0.3-0.7-0.4l0-0.3l-1-0.1
		c-0.1,0-2.8-0.2-5.5,1.8c-0.3-0.4-0.6-0.8-1-1c-0.2-0.2-0.5-0.3-0.8-0.4l0-0.3l-1-0.1c-0.1,0-2.8-0.2-5.4,1.8c-0.3-0.4-0.6-0.8-1-1
		c-0.2-0.2-0.5-0.3-0.8-0.4l0-0.3l-1-0.1c-0.1,0-2.8-0.2-5.4,1.8c-0.3-0.4-0.6-0.7-1-1.1c-0.2-0.2-0.5-0.3-0.8-0.4l0-0.3l-1-0.1
		c-0.1,0-2.8-0.2-5.5,1.8c-0.3-0.4-0.6-0.8-1-1c-0.2-0.2-0.5-0.3-0.8-0.4l0-0.3l-1-0.1c-0.1,0-2.8-0.2-5.4,1.8c-0.3-0.4-0.6-0.8-1-1
		c-0.2-0.2-0.5-0.3-0.8-0.4l0-0.3l-1-0.1c-0.1,0-2.8-0.2-5.5,1.8c-0.3-0.4-0.6-0.8-1-1c-0.2-0.2-0.5-0.3-0.8-0.4l0-0.3l-1-0.1
		c-0.1,0-2.8-0.2-5.4,1.8c-0.3-0.4-0.6-0.8-1-1c-0.2-0.2-0.5-0.3-0.8-0.4l0-0.3l-1-0.1c-0.1,0-2.8-0.2-5.5,1.8
		c-0.2-0.3-0.5-0.6-0.7-0.8l0.1-0.1l-0.9-0.5c-0.6-0.4-1.2-0.4-1.7-0.5l-0.1,0c-0.5,0-1.2-0.1-2-0.1h0c-0.9,0-1.8,0-2.9,0
		c-0.8,0-1.7,0-2.6,0H35.8c-0.7,0-1.6,0-2.5,0.5c-1,0.6-1.6,1.7-1.6,3h0c0,0.3-0.1,0.6-0.1,1l-0.3,5.5C31.3,55,31.2,57,31,59.2
		c-0.2,3.8-0.5,8.3-0.7,13c-0.2,4.3-0.5,8.8-0.7,13.3l-1.4,26.2c-0.1,2.1-0.2,4.1-0.3,5.8c-0.1,1.1-0.1,2.1-0.2,3l-0.1,1.6l-0.1,1.8
		c0,0.1,0,0.2,0,0.3l0,0.2c0,0.4-0.1,1.2,0.2,2.1c0.1,0.5,0.4,0.9,0.7,1.3v2.1h-1.2V178v1.4V314h535.5V179.4V178v-48.4h-1.3v-1.5
		C561.6,128,561.7,127.9,561.9,127.8z M558.9,310.2H31V181.8h527.9V310.2z M379.4,173.7c-0.3,0.6-0.4,1.1-0.4,1.2l0,0.5h-29.7
		c0.1-0.2,0.4-0.6,1-1.2c1.6-1.6,14.2-14,17-16.8h28.2c-3.9,3.9-12.7,12.6-14.3,14.1C380.3,172.3,379.8,173,379.4,173.7z
		 M347.4,171.6c-0.7,0.7-1.2,1.4-1.6,2.1c-0.2,0.5-0.4,0.9-0.4,1.1l-0.1,0.2v0.4h-29.7c0.1-0.2,0.4-0.6,1-1.2
		c1.6-1.6,14.2-14,17-16.8h28.2C357,162.1,348.8,170.2,347.4,171.6z M313.8,171.6c-0.8,0.8-1.3,1.5-1.7,2.1
		c-0.3,0.5-0.4,0.9-0.4,1.1l-0.1,0.2v0.4H282c0.1-0.2,0.4-0.6,1-1.2c1.6-1.6,14.2-14,17-16.8h28.2
		C323.4,162.1,315.2,170.2,313.8,171.6z M280.2,171.6c-0.8,0.8-1.3,1.5-1.7,2.1c-0.3,0.6-0.4,1.1-0.4,1.2l0,0.5h-29.7
		c0.2-0.3,0.4-0.7,1-1.2c1.6-1.6,14.2-14,17-16.8h28.2C289.8,162.1,281.6,170.2,280.2,171.6z M246.6,171.6c-0.7,0.8-1.3,1.5-1.7,2.1
		c-0.3,0.6-0.4,1.1-0.4,1.2l0,0.5h-29.7c0.1-0.2,0.4-0.6,1-1.2c1.6-1.6,14.2-14,17-16.8h28.2C256.2,162.1,248,170.2,246.6,171.6z
		 M213,171.6c-0.7,0.7-1.3,1.4-1.6,2.1c-0.3,0.6-0.4,1.1-0.4,1.2l0,0.5h-29.7c0.2-0.3,0.4-0.7,1-1.2c1.6-1.6,14.2-14,17-16.8h28.2
		C222.5,162.1,214.4,170.2,213,171.6z M179.4,171.6c-0.8,0.8-1.3,1.5-1.7,2.1c-0.2,0.5-0.4,0.9-0.4,1.1l-0.1,0.2v0.4h-29.7
		c0.2-0.3,0.4-0.7,1-1.2c1.6-1.6,14.2-14,17-16.8h28.2C188.9,162.1,180.8,170.2,179.4,171.6z M145.8,171.6c-0.7,0.8-1.3,1.5-1.7,2.1
		c-0.3,0.6-0.4,1.1-0.4,1.2l0,0.5h-29.7c0.2-0.3,0.4-0.7,1-1.2c1.6-1.6,14.2-14,17-16.8H160C155.3,162.1,147.2,170.2,145.8,171.6z
		 M112.2,171.6c-0.8,0.8-1.3,1.5-1.7,2.1c-0.3,0.6-0.4,1.1-0.4,1.2l0,0.5H80.3c0.2-0.3,0.4-0.7,1-1.2c1.6-1.6,14.2-14,17-16.8h28.2
		C121.7,162.1,113.6,170.2,112.2,171.6z M78.5,171.6c-0.7,0.7-1.3,1.4-1.6,2.1c-0.3,0.6-0.4,1.1-0.4,1.2l0,0.5H46.7
		c0.2-0.3,0.4-0.7,1-1.2c1-1.1,7-6.9,16.8-16.6l0.2-0.2h28.2C88.1,162.1,79.9,170.2,78.5,171.6z M558.9,175.6H382.7v-0.1
		c0.1-0.2,0.4-0.7,1-1.3c1.8-1.8,17.4-17.2,17.5-17.3l3.3-3.3h-38.7l-0.2-0.2l-0.2,0.2h-33.3l-0.2-0.2l-0.2,0.2h-33.3l-0.2-0.2
		l-0.2,0.2h-33.3l-0.2-0.2l-0.2,0.2h-33.3l-0.2-0.2l-0.2,0.2h-33.3l-0.2-0.2l-0.2,0.2h-33.3l-0.2-0.2l-0.2,0.2h-33.3l-0.2-0.2
		l-0.2,0.2H97l-0.2-0.2l-0.2,0.2H63.9l-0.8,0l-0.5,0.5c-0.6,0.6-15.7,15.4-17.6,17.4c-0.7,0.8-1.3,1.5-1.7,2.1
		c-0.2,0.5-0.4,0.9-0.4,1.1l-0.1,0.2v0.6H31v-42.2h527.9V175.6z M32.2,129.6v-0.9h525.2c0.1,0,0.1,0,0.2,0v0.9H32.2z M34.8,59.4
		l0.2-3.9c0.1-1.9,0.2-3.6,0.3-5l0.2-3.2c0-0.1,0-0.2,0-0.3c0.1,0,0.2,0,0.3,0h80.3c0.7,0,1.4,0,2.1,0c-2.3,2.1-6.1,5.5-10.9,9.9
		c-7.1,6.4-16.2,14.6-25.2,22.9l-1,0.9c-18.9,17.1-37.4,33.8-37.4,33.8l-3.7,3.3h8.3h3.2h5h3.3h5.1h3.2h5h3.3h5.1h3.2h5H93h5h3.2h5
		h3.4h5h3.2h5.1h3.3h5h3.3h5.1h3.2h5h3.3h5.1h3.2h5h3.3h5.1h3.2h5.2h3.2h5h3.3h5.1h3.2h5.1h3.3h5h3.3h5.1h3.2h5h3.3h5h3.3h4.9h3.3
		h5.1h3.2h5h3.3h5.1h3.2h5.1h3.3h5h3.3h5.1h3.2h4.8h3.5h4.8h3.3h5.1h3.2h5h3.3h5.1h3.2h5h3.3h5h3.2h5.1h3.3h4.9h3.4h4.9h3.3h5h3.3
		h5.1h3.2h5h3.3h5.1h3.2h5h3.3h5h3.2h5.2h3.2h5.1h3.3h8.2l0,0h8.3l0.5-0.5c0,0,18.6-16.6,37.5-33.5l11.4-10.2
		c5.4-4.8,10.5-9.4,14.9-13.3c7.3-6.5,12.3-11.1,13-11.7c1.7-1.6,3.1-1.4,3.2-1.4l8.2,0c0.3,4.1,1.4,20.7,2.5,38
		c0.4,6.2,0.8,12.5,1.2,18.1l1.4,21.1c0,0.2,0,0.3,0,0.5l0,0c-0.4,0.1-0.9,0.1-1.6,0.1l-526.1,0c0-0.2,0-0.3,0-0.5l0-0.3
		c0-0.1,0-0.2,0-0.3l0.1-1.5c0-0.5,0-1.1,0.1-1.7l1.9-34.9C33.9,76.2,34.4,66.6,34.8,59.4z M388.6,47.2
		C388.5,47.2,388.5,47.2,388.6,47.2l-0.1-0.1c0,0,0,0,0,0L388.6,47.2z M512,70.8l-11.3,10.2c-13.5,12.1-26.7,23.9-33.2,29.7
		c-1.9,1.7-3.2,2.9-3.8,3.4h-0.2c5-4.6,18.7-16.9,33.7-30.5l4.9-4.5c7.8-7,15.3-13.8,21.3-19.3c7.1-6.4,12.4-11.2,13.1-12
		c0.4-0.4,0.7-0.5,0.8-0.5c0.1,0.1,0.2,0.3,0.3,0.5c-1.7,1.5-5,4.6-10.8,9.7C522.6,61.3,517.4,65.9,512,70.8z M514.7,61
		c-6.6,5.9-14.5,13-22.3,20c-15.4,13.8-30.4,27.2-35.5,31.7l-1.5,1.3h-0.2l2.7-2.4c6.3-5.7,18.2-16.5,31-28.1l3.4-3.1
		c8.3-7.5,16.4-14.9,22.9-20.7l4.6-4.2c4.7-4.3,7.9-7.1,8.5-7.8l0.1-0.1c0.4-0.3,0.6-0.4,0.7-0.5c0.1,0.1,0.1,0.2,0.2,0.5
		c-1.7,1.5-5,4.6-10.8,9.7L514.7,61z M494.9,71.2l-10.8,9.7c-15.1,13.5-29.9,26.8-35.2,31.5l-1.8,1.6H447c5-4.6,18.7-16.9,33.7-30.5
		l3.9-3.5c8.1-7.3,16.1-14.5,22.4-20.3c7.2-6.6,12.4-11.3,13.1-12c0.4-0.4,0.7-0.5,0.8-0.5c0.1,0.1,0.2,0.3,0.3,0.5
		c-1.3,1.2-3.6,3.2-7.1,6.4l-3.7,3.3C505.9,61.4,500.6,66.2,494.9,71.2z M486,71.7l-10.3,9.2c-15.1,13.5-29.8,26.7-35.2,31.4
		l-1.8,1.6h-0.2c5-4.6,18.7-16.9,33.7-30.5l1.9-1.7c8.8-8,17.6-15.9,24.4-22.1c7-6.3,12.4-11.2,13.1-12c0.4-0.4,0.7-0.5,0.8-0.5
		c0.1,0.1,0.2,0.3,0.3,0.5c-1.7,1.5-5,4.6-10.8,9.7C497.4,61.6,491.9,66.5,486,71.7z M489.3,61.4c-6.5,5.8-14.2,12.7-21.8,19.5
		c-17.5,15.7-34.6,30.9-37,33.1h-0.2l2.6-2.4c6.3-5.7,18.2-16.5,31.1-28.2c9.4-8.5,18.9-17.1,26.3-23.8l3.9-3.5
		c5.2-4.8,8.7-7.9,9.3-8.5c0.4-0.4,0.7-0.5,0.8-0.5c0.1,0.1,0.1,0.2,0.3,0.5c-1.7,1.5-5,4.6-10.8,9.7L489.3,61.4z M470.7,70.6
		l-11.5,10.3c-17.5,15.7-34.6,30.9-37,33.1H422c5-4.6,18.7-16.9,33.7-30.5l4.9-4.5c7.8-7,15.3-13.8,21.3-19.3
		c7.1-6.4,12.4-11.3,13.1-12c0.4-0.4,0.7-0.5,0.8-0.5c0.1,0.1,0.2,0.3,0.3,0.5c-1.3,1.2-3.7,3.4-7.5,6.7l-3.3,2.9
		C481.2,61.3,476.1,65.8,470.7,70.6z M461.1,71.8l-10.2,9.1c-17.5,15.7-34.6,30.9-37,33.1h-0.2c5-4.6,18.7-16.9,33.7-30.5l1.9-1.7
		c8.8-8,17.6-15.9,24.4-22.1c7-6.3,12.4-11.2,13.1-12c0.4-0.4,0.7-0.5,0.8-0.5c0.1,0.1,0.2,0.3,0.3,0.5c-1.7,1.5-5,4.6-10.8,9.7
		C472.6,61.6,467,66.5,461.1,71.8z M468.2,58c-7.2,6.5-16.4,14.7-25.6,22.9c-17.5,15.7-34.6,30.9-37,33.1h-0.2
		c5-4.6,18.7-16.9,33.7-30.5c9.4-8.5,18.9-17.1,26.3-23.8c7.1-6.4,12.4-11.3,13.1-12c0.4-0.4,0.7-0.5,0.8-0.5
		c0.1,0.1,0.1,0.2,0.3,0.5c-1.7,1.5-5,4.6-10.8,9.7L468.2,58z M444.9,71.5l-10.5,9.4c-17.5,15.7-34.6,30.9-37,33.1h-0.2
		c5-4.6,18.7-16.9,33.7-30.5l4.6-4.2c7.9-7.1,15.5-14,21.6-19.6C464.7,52.9,469,49,470,48.1l0.4-0.4c0.4-0.4,0.7-0.5,0.8-0.5
		c0.1,0.1,0.2,0.3,0.3,0.5c-1.7,1.5-5,4.6-10.8,9.7C456.1,61.5,450.6,66.4,444.9,71.5z M446.5,62.6c-6.2,5.6-13.3,12-20.4,18.3
		c-15.3,13.7-30.3,27.1-35.4,31.7l-1.6,1.4h-0.2l38.7-35c7.8-7,15.3-13.8,21.3-19.3l3.9-3.5c5.2-4.8,8.7-7.9,9.3-8.5
		c0.4-0.4,0.7-0.5,0.8-0.5c0.1,0.1,0.1,0.2,0.3,0.5c-1.7,1.5-5,4.6-10.8,9.7L446.5,62.6z M428.7,71.2l-10.9,9.8
		c-17.5,15.7-34.6,30.9-37,33.1h-0.2c5-4.6,18.7-16.9,33.7-30.5l1.7-1.5c8.9-8,17.7-16,24.6-22.2c7.1-6.4,12.4-11.3,13.1-12
		c0.4-0.4,0.7-0.5,0.8-0.5c0.1,0.1,0.2,0.3,0.3,0.5c-1.7,1.5-5,4.6-10.8,9.7C439.6,61.4,434.3,66.1,428.7,71.2z M433.4,59.6
		c-6.9,6.2-15.4,13.8-23.8,21.3c-15.4,13.8-30.5,27.3-35.5,31.8l-1.5,1.3h-0.2c5-4.6,18.7-16.9,33.7-30.5
		c9.4-8.5,18.9-17.1,26.3-23.8l4.2-3.8c5.1-4.6,8.4-7.6,9-8.2c0.4-0.4,0.7-0.5,0.8-0.5c0.1,0.1,0.1,0.2,0.3,0.5
		c-1.7,1.5-5,4.6-10.8,9.7L433.4,59.6z M413.1,70.4l-11.8,10.6c-17.5,15.7-34.6,30.9-37,33.1h-0.2c5-4.6,18.7-16.9,33.7-30.5
		l5.3-4.8c7.6-6.9,15-13.6,21-19c7.1-6.4,12.4-11.2,13.1-12c0.4-0.4,0.7-0.5,0.8-0.5c0.1,0.1,0.2,0.3,0.3,0.5
		c-1.7,1.5-5,4.6-10.8,9.7C423.4,61.2,418.4,65.6,413.1,70.4z M416.2,60.2c-6.8,6.1-15,13.4-23.2,20.8c-17.5,15.7-34.6,30.9-37,33.1
		h-0.2l2.5-2.3c6.3-5.7,18.2-16.5,31.2-28.3l1.9-1.7c8.8-8,17.6-15.9,24.4-22.1l4-3.7c5.1-4.7,8.6-7.7,9.1-8.3
		c0.4-0.4,0.7-0.5,0.8-0.5c0.1,0.1,0.1,0.2,0.3,0.5c-1.7,1.5-5,4.6-10.8,9.7L416.2,60.2z M395,71.8l-10.2,9.1
		c-17.5,15.7-34.6,30.9-37,33.1h-0.2c5-4.6,18.7-16.9,33.7-30.5l1.7-1.5c8.9-8,17.7-16,24.6-22.2c7.3-6.6,12.4-11.3,13.1-12
		c0.4-0.4,0.7-0.5,0.8-0.5c0.1,0.1,0.2,0.3,0.3,0.5c-1.5,1.3-4.2,3.7-8.6,7.7l-2.2,2C406.4,61.6,400.8,66.5,395,71.8z M399.5,60.3
		c-6.8,6.1-14.9,13.4-23,20.6c-15.2,13.6-30.1,26.9-35.3,31.6l-1.7,1.5h-0.2c5-4.6,18.7-16.9,33.7-30.5l1.9-1.7
		c8.8-8,17.6-15.9,24.4-22.1c7.5-6.8,11.8-10.7,12.7-11.6l0.4-0.4c0.4-0.4,0.7-0.5,0.8-0.5c0.1,0.1,0.1,0.2,0.3,0.5
		c-1.7,1.5-5,4.6-10.8,9.7L399.5,60.3z M368.2,80.9c-15.5,13.9-30.6,27.4-35.6,31.8l-1.4,1.2h-0.2c5-4.6,18.7-16.9,33.7-30.5
		l1.9-1.7c8.8-8,17.6-15.9,24.4-22.1c7-6.3,12.4-11.2,13.1-12c0.4-0.4,0.7-0.5,0.8-0.5c0.1,0.1,0.2,0.3,0.3,0.5
		c-1.4,1.2-3.9,3.5-7.9,7.1l-7.7,6.9C383.2,67.5,375.7,74.2,368.2,80.9z M370.9,71.2l-10.9,9.8c-15.4,13.8-30.4,27.2-35.5,31.7
		L323,114h-0.2c5-4.6,18.7-16.9,33.7-30.5c9.4-8.5,18.9-17.1,26.3-23.8c7.5-6.8,11.8-10.7,12.7-11.6l0.4-0.4
		c0.4-0.4,0.7-0.5,0.8-0.5c0.1,0.1,0.2,0.3,0.3,0.5c-1.7,1.5-5,4.6-10.8,9.7C381.8,61.4,376.5,66.1,370.9,71.2z M369.9,57.4
		l-1.8,1.6c-7,6.3-15.8,14.1-24.5,21.9c-17.5,15.7-34.6,30.9-37,33.1h-0.2c5-4.6,18.7-16.9,33.7-30.5l3.6-3.3
		c8.2-7.4,16.3-14.7,22.7-20.5c7.4-6.7,12.4-11.3,13.1-12c0.4-0.4,0.7-0.5,0.8-0.5c0.1,0.1,0.1,0.2,0.3,0.5
		C379,49.2,375.6,52.3,369.9,57.4z M346.3,71.2l-10.9,9.8c-15.1,13.5-29.9,26.8-35.2,31.5l-1.8,1.6h-0.2c5-4.6,18.7-16.9,33.7-30.5
		l1.9-1.7c8.8-8,17.6-15.9,24.4-22.1c7.1-6.4,12.4-11.3,13.1-12c0.4-0.4,0.7-0.5,0.8-0.5c0.1,0.1,0.2,0.3,0.3,0.5
		c-1.7,1.5-5,4.6-10.8,9.7C357.2,61.4,351.9,66.1,346.3,71.2z M350.2,60.2c-6.8,6.1-15,13.4-23.2,20.8
		c-15.5,13.8-30.6,27.3-35.5,31.8l-1.4,1.3h-0.2l1.8-1.7c6-5.5,18.4-16.7,31.9-28.9c9.4-8.5,18.9-17.1,26.3-23.8l6.2-5.6
		c3.6-3.2,5.9-5.3,6.6-6l0.4-0.4c0.4-0.4,0.7-0.5,0.8-0.5c0.1,0.1,0.1,0.2,0.3,0.5c-1.7,1.5-5,4.6-10.8,9.7L350.2,60.2z M329.9,71
		l-11.1,9.9c-17.5,15.7-34.6,30.9-37,33.1h-0.2c5-4.6,18.7-16.9,33.7-30.5l1.4-1.3c9-8.1,17.9-16.2,24.9-22.5
		c7.1-6.4,12.4-11.2,13.1-12c0.4-0.4,0.7-0.5,0.8-0.5c0.1,0.1,0.2,0.3,0.3,0.5c-1.7,1.5-5,4.6-10.8,9.7
		C340.6,61.4,335.4,66,329.9,71z M336,58.1c-7.2,6.5-16.4,14.7-25.5,22.8c-17.5,15.7-34.6,30.9-37,33.1h-0.2l1.6-1.5
		c6-5.4,18.5-16.7,32.1-29.1c4.2-3.8,8.5-7.7,12.5-11.3c5-4.5,9.7-8.8,13.8-12.4c8-7.3,11.8-10.7,12.7-11.6l0.4-0.4
		c0.4-0.4,0.7-0.5,0.8-0.5c0.1,0.1,0.1,0.2,0.3,0.5c-1.7,1.5-5,4.6-10.8,9.7L336,58.1z M313.1,71.2l-10.8,9.7
		c-17.5,15.7-34.5,30.9-36.9,33.1h-0.2c5-4.6,18.7-16.9,33.7-30.5l2.9-2.6c8.5-7.7,16.8-15.2,23.4-21.1c7.2-6.6,12.4-11.3,13.1-12
		c0.4-0.4,0.7-0.5,0.8-0.5c0.1,0.1,0.2,0.3,0.3,0.5c-1.4,1.2-3.8,3.4-7.7,6.9l-3.1,2.8C324,61.4,318.7,66.2,313.1,71.2z M304.7,71.3
		l-10.7,9.6c-17.5,15.7-34.6,30.9-37,33.1h-0.2c5-4.6,18.7-16.9,33.7-30.5l3.8-3.4c8.2-7.4,16.2-14.6,22.5-20.4
		c7.4-6.7,11.8-10.7,12.7-11.6l0.4-0.4c0.4-0.4,0.7-0.5,0.8-0.5c0.1,0.1,0.2,0.3,0.3,0.5c-1.7,1.5-5,4.6-10.8,9.7
		C315.7,61.5,310.3,66.3,304.7,71.3z M311.2,58.1c-7.2,6.5-16.4,14.7-25.5,22.8c-17.5,15.7-34.6,30.9-37,33.1h-0.2
		c5-4.6,18.7-16.9,33.7-30.5l3.1-2.8c8.4-7.6,16.7-15.1,23.2-21c7.2-6.6,12.4-11.3,13.1-12c0.4-0.4,0.7-0.5,0.8-0.5
		c0.1,0.1,0.1,0.2,0.3,0.5c-1.7,1.5-5,4.6-10.8,9.7L311.2,58.1z M288.7,70.9l-11.2,10c-17.5,15.7-34.6,30.9-37,33.1h-0.2
		c5-4.6,18.7-16.9,33.7-30.5l3.4-3.1c8.3-7.5,16.4-14.9,22.9-20.7c7.8-7,11.8-10.7,12.7-11.6l0.4-0.4c0.4-0.4,0.7-0.5,0.8-0.5
		c0.1,0.1,0.2,0.3,0.3,0.5c-1.7,1.5-5,4.6-10.8,9.7C299.4,61.3,294.2,66,288.7,70.9z M269.2,80.9c-15.4,13.7-30.4,27.1-35.4,31.7
		l-1.5,1.4H232c5-4.6,18.7-16.9,33.7-30.5l6.5-5.8c7.2-6.5,14.2-12.8,19.8-17.9c7.2-6.6,12.4-11.3,13.1-12c0.4-0.4,0.7-0.5,0.8-0.5
		c0.1,0.1,0.1,0.2,0.3,0.5c-1.7,1.5-5.1,4.6-10.8,9.7C288.1,64,278.6,72.5,269.2,80.9z M272,71l-11.1,9.9
		c-15.4,13.8-30.5,27.2-35.5,31.7l-1.5,1.3h-0.2c5-4.6,18.7-16.9,33.7-30.5l6.5-5.9c7.2-6.5,14.1-12.8,19.8-17.9
		c7.2-6.6,12.4-11.3,13.1-12c0.4-0.4,0.7-0.5,0.8-0.5c0.1,0.1,0.2,0.3,0.3,0.5c-1.7,1.5-5,4.6-10.8,9.7
		C282.8,61.4,277.5,66.1,272,71z M276.1,60c-6.8,6.1-15.2,13.6-23.4,21c-15.5,13.8-30.5,27.3-35.5,31.8l-1.4,1.3h-0.2l1.7-1.5
		c6-5.4,18.5-16.7,32.1-29l6.8-6.1c7.1-6.4,13.9-12.6,19.5-17.6l6.4-5.8c3.5-3.2,5.7-5.2,6.4-5.8l0.4-0.4c0.4-0.4,0.7-0.5,0.8-0.5
		c0.1,0.1,0.1,0.2,0.3,0.5c-1.7,1.5-5,4.6-10.8,9.7L276.1,60z M256,70.5l-11.7,10.4c-15.2,13.6-30.1,26.9-35.3,31.6l-1.7,1.5h-0.2
		c5-4.6,18.7-16.9,33.7-30.5l7.3-6.6c6.9-6.3,13.6-12.3,19-17.2c7.1-6.4,12.4-11.2,13.1-12c0.4-0.4,0.7-0.5,0.8-0.5
		c0.1,0.1,0.2,0.3,0.3,0.5c-1.7,1.5-5,4.6-10.8,9.7C266.4,61.2,261.3,65.7,256,70.5z M259.5,60c-6.8,6.1-15.2,13.6-23.4,21
		c-17.5,15.7-34.6,30.9-37,33.1h-0.2l1.6-1.4c5.9-5.4,18.5-16.8,32.2-29.1l6.8-6.1c7.1-6.4,13.9-12.6,19.5-17.6l6.4-5.8
		c3.5-3.1,5.7-5.2,6.3-5.8l0.4-0.4c0.4-0.4,0.7-0.5,0.8-0.5c0.1,0.1,0.1,0.2,0.3,0.5c-1.7,1.5-5,4.6-10.8,9.7L259.5,60z M239.6,70.3
		l-11.8,10.6c-15.3,13.7-30.1,27-35.3,31.6l-1.6,1.5h-0.2c5-4.6,18.7-16.9,33.7-30.5l7.5-6.8c6.9-6.2,13.4-12.1,18.8-17
		c7.1-6.4,12.4-11.2,13.1-12c0.4-0.4,0.7-0.5,0.8-0.5c0.1,0.1,0.2,0.3,0.3,0.5c-1.5,1.3-4.3,3.9-8.9,8l-1.9,1.7
		C249.9,61.2,244.9,65.6,239.6,70.3z M230.8,70.8l-11.3,10.1c-17.5,15.7-34.6,30.9-37,33.1h-0.2l40.8-37c7-6.3,13.7-12.4,19.2-17.4
		c7.8-7,11.8-10.7,12.7-11.6l0.4-0.4c0.4-0.4,0.7-0.5,0.8-0.5c0.1,0.1,0.2,0.3,0.3,0.5c-1.7,1.5-5,4.6-10.8,9.7
		C241.4,61.3,236.3,65.9,230.8,70.8z M234.2,60.3c-6.8,6.1-14.9,13.4-23,20.6c-17.5,15.7-34.6,30.9-37,33.1H174l1.5-1.4
		c5.9-5.4,18.5-16.8,32.2-29.2l7.1-6.4c7-6.3,13.7-12.4,19.2-17.4l6.3-5.7c3.5-3.2,5.8-5.2,6.4-5.9l0.4-0.4c0.4-0.4,0.7-0.5,0.8-0.5
		c0.1,0.1,0.1,0.2,0.3,0.5c-1.7,1.5-5,4.6-10.8,9.7L234.2,60.3z M214.7,70.3l-11.8,10.6c-17.5,15.7-34.6,30.9-37,33.1h-0.2
		c5-4.6,18.7-16.9,33.7-30.5l4.2-3.8c8-7.3,15.8-14.3,22.1-20c7.2-6.6,12.4-11.3,13.1-12c0.4-0.4,0.7-0.5,0.8-0.5
		c0.1,0.1,0.2,0.3,0.3,0.5c-1.5,1.3-4.3,3.8-8.8,7.9l-2,1.8C224.9,61.2,220,65.6,214.7,70.3z M206.2,70.6l-11.6,10.4
		c-17.5,15.7-34.6,30.9-37,33.1h-0.2c5-4.6,18.7-16.9,33.7-30.5l6-5.4c7.4-6.7,14.5-13.1,20.3-18.4c7.1-6.4,12.4-11.2,13.1-12
		c0.4-0.4,0.7-0.5,0.8-0.5c0.1,0.1,0.2,0.3,0.3,0.5c-1.7,1.5-5,4.6-10.8,9.7C216.6,61.3,211.5,65.8,206.2,70.6z M208.7,60.9
		c-6.6,5.9-14.5,13-22.4,20c-17.5,15.7-34.6,30.9-37,33.1h-0.2c5-4.6,18.7-16.9,33.7-30.5l6.6-5.9c7.2-6.5,14.1-12.8,19.7-17.8
		c7.2-6.6,12.4-11.3,13.1-12c0.4-0.4,0.7-0.5,0.8-0.5c0.1,0.1,0.1,0.2,0.3,0.5c-1.7,1.5-5,4.6-10.8,9.7L208.7,60.9z M189.4,70.8
		L178,80.9c-17.5,15.7-34.6,30.9-37,33.1h-0.2c5-4.6,18.7-16.9,33.7-30.5l3.6-3.3c8.2-7.4,16.3-14.7,22.6-20.5
		c7.2-6.6,12.4-11.2,13.1-12c0.4-0.4,0.7-0.5,0.8-0.5c0.1,0.1,0.2,0.3,0.3,0.5c-1.7,1.5-5,4.6-10.8,9.7
		C200,61.3,194.8,65.9,189.4,70.8z M192.8,60.3c-6.8,6.1-14.9,13.4-23,20.6c-15.4,13.8-30.5,27.2-35.5,31.7l-1.5,1.3h-0.2
		c5-4.6,18.7-16.9,33.7-30.5l6.6-5.9c7.2-6.5,14.1-12.8,19.7-17.8l6.4-5.8c3.5-3.1,5.7-5.2,6.3-5.8l0.4-0.4c0.4-0.4,0.7-0.5,0.8-0.5
		c0.1,0.1,0.1,0.2,0.3,0.5c-1.7,1.5-5,4.6-10.8,9.7L192.8,60.3z M172.8,70.8l-11.4,10.2c-17.5,15.7-34.6,30.9-37,33.1h-0.2
		c5-4.6,18.7-16.9,33.7-30.5l6.3-5.7c7.3-6.6,14.3-12.9,20-18.1c7.2-6.6,12.4-11.2,13.1-12c0.4-0.4,0.7-0.5,0.8-0.5
		c0.1,0.1,0.2,0.3,0.3,0.5c-1.7,1.5-5,4.6-10.8,9.7C183.4,61.3,178.3,65.9,172.8,70.8z M177.6,59.1c-7,6.3-15.7,14.1-24.3,21.8
		c-15.4,13.8-30.5,27.2-35.5,31.7l-1.5,1.3h-0.2l2.2-2c6.2-5.6,18.3-16.6,31.6-28.6l6.8-6.1c7.1-6.4,13.9-12.6,19.5-17.6l3.8-3.4
		c5.3-4.8,8.8-8,9.4-8.5c0.4-0.4,0.7-0.5,0.8-0.5c0.1,0.1,0.1,0.2,0.3,0.5c-1.7,1.5-5.1,4.6-10.8,9.7L177.6,59.1z M156.1,71
		L145,80.9c-15.4,13.8-30.5,27.2-35.5,31.7L108,114h-0.2c5-4.6,18.7-16.9,33.7-30.5l4.7-4.2c7.8-7.1,15.5-14,21.6-19.6
		c7.1-6.4,12.4-11.2,13.1-12c0.4-0.4,0.7-0.5,0.8-0.5c0.1,0.1,0.2,0.3,0.3,0.5c-1.7,1.5-5,4.6-10.8,9.7
		C166.9,61.4,161.6,66.1,156.1,71z M160.2,60c-6.8,6.1-15.2,13.6-23.4,21c-15.1,13.5-29.9,26.8-35.2,31.5l-1.8,1.6h-0.2l2.3-2.1
		c6.2-5.6,18.3-16.6,31.4-28.4l6.8-6.1c7.1-6.4,13.9-12.6,19.5-17.6l6.4-5.8c3.5-3.1,5.7-5.2,6.3-5.8l0.4-0.4
		c0.4-0.4,0.7-0.5,0.8-0.5c0.1,0.1,0.1,0.2,0.3,0.5c-1.7,1.5-5,4.6-10.8,9.7L160.2,60z M139.5,71l-11.1,9.9
		c-17.5,15.7-34.6,30.9-37,33.1h-0.2c5-4.6,18.7-16.9,33.7-30.5l6.5-5.9c7.2-6.5,14.1-12.8,19.8-17.9c7.1-6.4,12.4-11.2,13.1-12
		c0.4-0.4,0.7-0.5,0.8-0.5c0.1,0.1,0.2,0.3,0.3,0.5c-1.5,1.3-4.1,3.7-8.5,7.6l-2.3,2C150.3,61.4,145.1,66.1,139.5,71z M143.6,60
		c-6.8,6.1-15.2,13.6-23.4,21c-17.5,15.7-34.6,30.9-37,33.1H83l2.6-2.3c6.3-5.7,18.2-16.5,31.1-28.2c4.2-3.8,8.4-7.6,12.4-11.2
		c5-4.6,9.8-8.8,13.9-12.5c7.5-6.8,11.8-10.7,12.7-11.6l0.4-0.4c0.4-0.4,0.7-0.5,0.8-0.5c0.1,0.1,0.1,0.2,0.3,0.5
		c-1.7,1.5-5,4.6-10.8,9.7L143.6,60z M111.9,80.9c-15.2,13.6-30.1,26.9-35.3,31.6l-1.7,1.5h-0.2c5-4.6,18.7-16.9,33.7-30.5l7.1-6.4
		c7-6.3,13.7-12.4,19.2-17.4c7.1-6.4,12.4-11.2,13.1-12c0.4-0.4,0.7-0.5,0.8-0.5c0.1,0.1,0.2,0.3,0.3,0.5c-1.4,1.3-4,3.6-8.3,7.4
		l-5.8,5.2C128.2,66.4,120,73.7,111.9,80.9z M114.9,70.8l-11.3,10.1c-14.4,12.9-28.4,25.4-34.3,30.7l-2.6,2.3h-0.2
		c5-4.6,18.7-16.9,33.7-30.5l6.6-5.9c7.2-6.5,14.1-12.8,19.7-17.8c7.6-6.9,11.8-10.7,12.7-11.6l0.4-0.4c0.4-0.4,0.7-0.5,0.8-0.5
		c0.1,0.1,0.2,0.3,0.3,0.5c-1.7,1.5-5,4.6-10.8,9.7C125.5,61.3,120.4,65.9,114.9,70.8z M118.4,60.3c-6.8,6.1-14.9,13.4-23,20.6
		c-17.5,15.7-34.6,30.9-37,33.1h-0.2c5-4.6,18.7-16.9,33.7-30.5L99,77c7-6.3,13.7-12.4,19.2-17.4c7.2-6.6,12.4-11.2,13.1-12
		c0.4-0.4,0.7-0.5,0.8-0.5c0.1,0.1,0.1,0.2,0.3,0.5c-1.7,1.5-5.1,4.6-10.8,9.7L118.4,60.3z M98.4,70.8L87.1,80.9
		C71.9,94.5,57,107.8,51.8,112.5l-1.7,1.5h-0.2c5-4.6,18.7-16.9,33.7-30.5l6.6-5.9c7.2-6.5,14.1-12.8,19.7-17.8
		c7.2-6.6,12.4-11.3,13.1-12c0.4-0.4,0.7-0.5,0.8-0.5c0.1,0.1,0.2,0.3,0.3,0.5c-1.7,1.5-5,4.6-10.8,9.7
		C109,61.3,103.8,65.9,98.4,70.8z M124,47.2C123.9,47.2,123.9,47.2,124,47.2L124,47.2L124,47.2L124,47.2z M537.5,47.2
		C537.5,47.2,537.5,47.2,537.5,47.2L537.5,47.2L537.5,47.2L537.5,47.2z M529.3,47.2C529.3,47.2,529.3,47.2,529.3,47.2L529.3,47.2
		L529.3,47.2L529.3,47.2z M512.6,47.2C512.6,47.2,512.6,47.2,512.6,47.2L512.6,47.2L512.6,47.2L512.6,47.2z M504.4,47.2
		C504.4,47.2,504.3,47.2,504.4,47.2L504.4,47.2L504.4,47.2L504.4,47.2z M496.1,47.2C496.1,47.2,496,47.2,496.1,47.2L496.1,47.2
		L496.1,47.2L496.1,47.2z M487.8,47.2C487.8,47.2,487.8,47.2,487.8,47.2L487.8,47.2L487.8,47.2L487.8,47.2z M479.5,47.2
		C479.5,47.2,479.5,47.2,479.5,47.2L479.5,47.2L479.5,47.2L479.5,47.2z M471.2,47.2C471.2,47.2,471.2,47.2,471.2,47.2L471.2,47.2
		L471.2,47.2L471.2,47.2z M463,47.2C463,47.2,463,47.2,463,47.2L463,47.2L463,47.2L463,47.2z M454.7,47.2
		C454.7,47.2,454.7,47.2,454.7,47.2l-0.1-0.1c0,0,0,0,0,0L454.7,47.2L454.7,47.2z M446.5,47.2C446.5,47.2,446.5,47.2,446.5,47.2
		L446.5,47.2L446.5,47.2L446.5,47.2z M438.2,47.2C438.2,47.2,438.2,47.2,438.2,47.2L438.2,47.2L438.2,47.2L438.2,47.2z M421.6,47.2
		C421.6,47.2,421.6,47.2,421.6,47.2L421.6,47.2L421.6,47.2L421.6,47.2z M413.4,47.2C413.4,47.2,413.4,47.2,413.4,47.2L413.4,47.2
		L413.4,47.2L413.4,47.2z M405.1,47.2C405.1,47.2,405.1,47.2,405.1,47.2L405.1,47.2L405.1,47.2L405.1,47.2z M396.8,47.2
		C396.8,47.2,396.8,47.2,396.8,47.2L396.8,47.2L396.8,47.2L396.8,47.2z M377.9,57.4l-0.7,0.6c-7.2,6.5-16.4,14.7-25.5,22.9
		c-17.5,15.7-34.6,30.9-37,33.1h-0.2c5-4.6,18.7-16.9,33.7-30.5l1.7-1.5c8.9-8,17.7-16,24.6-22.2l3.8-3.4c5.3-4.8,8.8-8,9.4-8.5
		c0.4-0.4,0.7-0.5,0.8-0.5c0.1,0.1,0.1,0.2,0.3,0.5C387,49.2,383.7,52.3,377.9,57.4z M380.5,47.2C380.5,47.2,380.5,47.2,380.5,47.2
		L380.5,47.2L380.5,47.2L380.5,47.2z M372.2,47.2C372.2,47.2,372.2,47.2,372.2,47.2L372.2,47.2L372.2,47.2L372.2,47.2z M364,47.2
		C364,47.2,363.9,47.2,364,47.2L364,47.2L364,47.2L364,47.2z M355.7,47.2C355.6,47.2,355.6,47.2,355.7,47.2L355.7,47.2L355.7,47.2
		L355.7,47.2z M347.4,47.2C347.4,47.2,347.4,47.2,347.4,47.2L347.4,47.2L347.4,47.2L347.4,47.2z M339.1,47.2
		C339.1,47.2,339.1,47.2,339.1,47.2L339.1,47.2L339.1,47.2L339.1,47.2z M330.8,47.2C330.8,47.2,330.8,47.2,330.8,47.2L330.8,47.2
		L330.8,47.2L330.8,47.2z M322.6,47.2C322.6,47.2,322.5,47.2,322.6,47.2l-0.1-0.1c0,0,0,0,0,0L322.6,47.2L322.6,47.2z M314.4,47.2
		C314.4,47.2,314.3,47.2,314.4,47.2L314.4,47.2L314.4,47.2L314.4,47.2z M306.1,47.2C306.1,47.2,306.1,47.2,306.1,47.2L306.1,47.2
		L306.1,47.2L306.1,47.2z M289.5,47.2C289.5,47.2,289.5,47.2,289.5,47.2L289.5,47.2L289.5,47.2L289.5,47.2z M273,47.2
		C273,47.2,272.9,47.2,273,47.2L273,47.2L273,47.2L273,47.2z M264.7,47.2C264.7,47.2,264.7,47.2,264.7,47.2L264.7,47.2L264.7,47.2
		L264.7,47.2z M256.4,47.2C256.4,47.2,256.4,47.2,256.4,47.2L256.4,47.2L256.4,47.2L256.4,47.2z M248.1,47.2
		C248,47.2,248,47.2,248.1,47.2L248.1,47.2L248.1,47.2L248.1,47.2z M239.8,47.2C239.8,47.2,239.7,47.2,239.8,47.2L239.8,47.2
		L239.8,47.2L239.8,47.2z M231.5,47.2C231.5,47.2,231.5,47.2,231.5,47.2L231.5,47.2L231.5,47.2L231.5,47.2z M223.2,47.2
		C223.2,47.2,223.2,47.2,223.2,47.2L223.2,47.2L223.2,47.2L223.2,47.2z M214.9,47.2C214.9,47.2,214.9,47.2,214.9,47.2L214.9,47.2
		L214.9,47.2L214.9,47.2z M206.7,47.2C206.7,47.2,206.6,47.2,206.7,47.2L206.7,47.2L206.7,47.2L206.7,47.2z M198.4,47.2
		C198.4,47.2,198.4,47.2,198.4,47.2L198.4,47.2L198.4,47.2L198.4,47.2z M190.1,47.2C190.1,47.2,190.1,47.2,190.1,47.2l-0.1-0.1
		c0,0,0,0,0,0L190.1,47.2L190.1,47.2z M181.9,47.2C181.9,47.2,181.9,47.2,181.9,47.2L181.9,47.2L181.9,47.2L181.9,47.2z M173.6,47.2
		C173.6,47.2,173.6,47.2,173.6,47.2L173.6,47.2L173.6,47.2L173.6,47.2z M165.3,47.2C165.3,47.2,165.3,47.2,165.3,47.2L165.3,47.2
		L165.3,47.2L165.3,47.2z M157.1,47.2C157.1,47.2,157,47.2,157.1,47.2L157.1,47.2L157.1,47.2L157.1,47.2z M148.8,47.2
		C148.8,47.2,148.8,47.2,148.8,47.2L148.8,47.2L148.8,47.2L148.8,47.2z M140.5,47.2C140.5,47.2,140.5,47.2,140.5,47.2L140.5,47.2
		L140.5,47.2L140.5,47.2z M132.3,47.2C132.2,47.2,132.2,47.2,132.3,47.2L132.3,47.2L132.3,47.2L132.3,47.2z"/>
	<path style="fill:#FFFFFF;" d="M547.8,142.6l2.8-3.2H441.3l-15.8,15.8h110.9L547.8,142.6z M434.7,151.4l8.2-8.2h99.2l-7.4,8.2
		H434.7z"/>
	<path style="fill:#FFFFFF;" d="M42.3,212.6v20.1c0,0.3,0.1,0.6,0.2,0.9c0,0.2-0.1,0.4-0.1,0.6v20.1c0,0.2,0,0.4,0.1,0.6
		c-0.1,0.3-0.2,0.6-0.2,0.9v20.1c0,1.2,1,2.2,2.2,2.2h22.3v19.4c0,1.2,1,2.2,2.2,2.2h31.1c0.3,0,0.6-0.1,0.8-0.2
		c0.3,0.1,0.5,0.2,0.8,0.2h195.8c0.3,0,0.6-0.1,0.8-0.2c0.3,0.1,0.6,0.2,0.9,0.2h31.1c1.2,0,2.2-1,2.2-2.2V278h8.5
		c1.2,0,2.2-1,2.2-2.2v-19.4h13.6c0.3,0,0.5-0.1,0.7-0.1c0.2,0.1,0.5,0.1,0.8,0.1h20.1c1.2,0,2.2-1,2.2-2.2v-20.1
		c0-0.3-0.1-0.5-0.1-0.8c0.1-0.2,0.1-0.4,0.1-0.7v-20.1c0-0.4-0.1-0.7-0.3-1.1c0-0.1,0-0.3,0-0.4V191c0-1.2-1-2.2-2.2-2.2h-29.9
		c-0.3,0-0.7,0.1-0.9,0.2c-0.3-0.1-0.6-0.2-0.9-0.2h-20.1c-0.3,0-0.5,0.1-0.8,0.2c-0.2-0.1-0.5-0.2-0.8-0.2h-20.1
		c-0.3,0-0.6,0.1-0.8,0.2c-0.3-0.1-0.5-0.2-0.8-0.2H283c-0.3,0-0.5,0.1-0.8,0.2c-0.2-0.1-0.5-0.2-0.8-0.2h-20.1
		c-0.3,0-0.5,0.1-0.8,0.2c-0.2-0.1-0.5-0.2-0.8-0.2h-20.1c-0.3,0-0.5,0.1-0.8,0.2c-0.2-0.1-0.5-0.2-0.8-0.2h-20.1
		c-0.3,0-0.5,0.1-0.8,0.2c-0.2-0.1-0.5-0.2-0.8-0.2h-20.1c-0.3,0-0.5,0.1-0.8,0.2c-0.2-0.1-0.5-0.2-0.8-0.2h-20.1
		c-0.3,0-0.5,0.1-0.8,0.2c-0.2-0.1-0.5-0.2-0.8-0.2h-20.1c-0.3,0-0.6,0.1-0.8,0.2c-0.3-0.1-0.5-0.2-0.8-0.2h-20.1
		c-0.3,0-0.5,0.1-0.8,0.2c-0.2-0.1-0.5-0.2-0.8-0.2h-20.1c-0.3,0-0.5,0.1-0.8,0.2c-0.2-0.1-0.5-0.2-0.8-0.2H87.8
		c-0.3,0-0.6,0.1-0.8,0.2c-0.3-0.1-0.5-0.2-0.8-0.2H66.1c-0.3,0-0.5,0.1-0.8,0.2c-0.2-0.1-0.5-0.2-0.8-0.2H44.4
		c-1.2,0-2.2,1-2.2,2.2v20.1c0,0.3,0.1,0.7,0.2,0.9C42.3,212.2,42.3,212.4,42.3,212.6z M46,209.5v-16.9h16.9v16.9H46z M376.9,235.7
		v16.9H360v-16.9H376.9z M376.9,231.1H360v-16.9h16.9V231.1z M78,214.1h16.9v16.9H78V214.1z M333.5,214.1v16.9h-16.9v-16.9H333.5z
		 M306.7,274.2h-16.9v-16.9h16.9V274.2z M317.3,252.6h-16.9v-16.9h16.9V252.6z M295.6,252.6h-16.9v-16.9h16.9V252.6z M105.1,252.6
		v-16.9h16.9v16.9H105.1z M273.9,235.7v16.9H257v-16.9H273.9z M252.2,235.7v16.9h-16.9v-16.9H252.2z M230.5,235.7v16.9h-16.9v-16.9
		H230.5z M208.8,235.7v16.9h-16.9v-16.9H208.8z M187.1,235.7v16.9h-16.9v-16.9H187.1z M165.5,235.7v16.9h-16.9v-16.9H165.5z
		 M143.7,235.7v16.9h-16.9v-16.9H143.7z M138,257.3h16.9v16.9H138V257.3z M159.7,257.3h16.9v16.9h-16.9V257.3z M181.4,257.3h16.9
		v16.9h-16.9V257.3z M203,257.3H220v16.9H203V257.3z M224.7,257.3h16.9v16.9h-16.9V257.3z M246.4,257.3h16.9v16.9h-16.9V257.3z
		 M116.3,257.3h16.9v16.9h-16.9V257.3z M285,274.2h-16.9v-16.9H285V274.2z M83.4,235.7h16.9v16.9H83.4V235.7z M94.6,274.2v-16.9
		h16.9v16.9H94.6z M311.8,214.1v16.9h-16.9v-16.9H311.8z M290.1,214.1v16.9h-16.9v-16.9H290.1z M268.4,214.1v16.9h-16.9v-16.9H268.4
		z M246.8,214.1v16.9h-16.9v-16.9H246.8z M225,214.1v16.9h-16.9v-16.9H225z M203.4,214.1v16.9h-16.9v-16.9H203.4z M181.7,214.1v16.9
		h-16.9v-16.9H181.7z M160,214.1v16.9H143v-16.9H160z M138.3,214.1v16.9h-16.9v-16.9H138.3z M116.6,214.1v16.9H99.7v-16.9H116.6z
		 M46.2,235.7h32.4v16.9H46.2V235.7z M46.1,214.1h27v16.9h-27V214.1z M46.1,257.3h43.7v16.9H46.1V257.3z M103.4,278.9H296v16.9
		H103.4V278.9z M322.3,252.6v-16.9H336c0.3,0,0.8-0.1,1.3-0.4c0.5-0.3,0.7-0.8,0.8-1.1c0.2-0.6,0.2-1,0.2-1.6l0-18.5h17v38.5H322.3z
		 M344.9,209.5H328v-16.9h16.9V209.5z M323.2,209.5h-16.9v-16.9h16.9V209.5z M301.5,209.5h-16.9v-16.9h16.9V209.5z M279.8,209.5
		h-16.9v-16.9h16.9V209.5z M258.1,209.5h-16.9v-16.9h16.9V209.5z M236.5,209.5h-16.9v-16.9h16.9V209.5z M214.7,209.5h-16.9v-16.9
		h16.9V209.5z M193.1,209.5h-16.9v-16.9h16.9V209.5z M171.4,209.5h-16.9v-16.9h16.9V209.5z M149.7,209.5h-16.9v-16.9h16.9V209.5z
		 M128,209.5h-16.9v-16.9H128V209.5z M106.3,209.5H89.3v-16.9h16.9V209.5z M84.6,209.5H67.7v-16.9h16.9V209.5z M70.6,278.9h28v16.9
		h-28V278.9z M328.8,295.8h-28v-16.9h28V295.8z M339.5,274.2h-28v-16.9h28V274.2z M376.7,209.5H350v-16.9h26.7V209.5z"/>
	<path style="fill:#FFFFFF;" d="M388.7,256.6h20.1c0.3,0,0.6-0.1,0.9-0.2c0.3,0.1,0.6,0.2,0.9,0.2h20.1c0.3,0,0.6-0.1,0.9-0.2
		c0.3,0.1,0.6,0.2,0.9,0.2h20.1c1.2,0,2.2-1,2.2-2.2v-20.1c0-0.3-0.1-0.5-0.2-0.8c0.1-0.2,0.2-0.5,0.2-0.8v-20.1
		c0-0.4-0.1-0.8-0.3-1.1c0-0.1,0-0.3,0-0.4V191c0-1.2-1-2.2-2.2-2.2h-30.8c-0.4,0-0.9,0.1-1.2,0.4c-0.3-0.2-0.8-0.4-1.2-0.4h-30.5
		c-1.2,0-2.2,1-2.2,2.2v20.1c0,0.3,0.1,0.5,0.1,0.8c-0.1,0.2-0.1,0.5-0.1,0.7v20.1c0,0.3,0.1,0.5,0.2,0.8c-0.1,0.2-0.2,0.5-0.2,0.8
		v20.1C386.5,255.5,387.5,256.6,388.7,256.6z M423.2,192.5h27.6v16.9h-27.6V192.5z M429.2,235.8v16.9h-16.9v-16.9H429.2z
		 M412.2,214.1h16.9v16.9h-16.9V214.1z M451.1,231.1h-16.9v-16.9h16.9V231.1z M390.3,214.1h16.9v16.9h-16.9V214.1z M407.2,235.8
		v16.9h-16.9v-16.9H407.2z M451.1,235.8v16.9h-16.9v-16.9H451.1z M417.6,209.5h-27.3v-16.9h27.3V209.5z"/>
	<path style="fill:#FFFFFF;" d="M461.9,299.9h41.9c0.4,0,0.7-0.1,1-0.3c0.3,0.2,0.7,0.3,1,0.3h20.1c0.3,0,0.5-0.1,0.8-0.1
		c0.3,0.1,0.6,0.2,0.9,0.2h20.1c1.2,0,2.2-1,2.2-2.2v-41.9c0-0.3-0.1-0.5-0.1-0.8c0.1-0.2,0.1-0.5,0.1-0.8v-20.1
		c0-0.3-0.1-0.5-0.2-0.8c0.1-0.2,0.2-0.5,0.2-0.8v-20.1c0-0.3-0.1-0.6-0.2-0.8c0.1-0.3,0.2-0.5,0.2-0.8v-20.1c0-1.2-1-2.2-2.2-2.2
		h-20.1c-0.3,0-0.6,0.1-0.8,0.2c-0.3-0.1-0.5-0.2-0.8-0.2h-20.1c-0.3,0-0.6,0.1-0.9,0.2c-0.3-0.1-0.6-0.2-0.9-0.2h-20.1
		c-0.3,0-0.6,0.1-0.9,0.2c-0.3-0.1-0.6-0.2-0.9-0.2h-20.1c-1.2,0-2.2,1-2.2,2.2v20.1c0,0.3,0.1,0.6,0.2,0.8
		c-0.1,0.3-0.2,0.5-0.2,0.8v20.1c0,0.3,0.1,0.5,0.2,0.8c-0.1,0.2-0.2,0.5-0.2,0.8v20.1c0,0.3,0.1,0.5,0.1,0.8
		c-0.1,0.2-0.1,0.5-0.1,0.8V276c0,0.3,0.1,0.5,0.1,0.8c-0.1,0.2-0.1,0.5-0.1,0.8v20.1C459.6,298.9,460.7,299.9,461.9,299.9z
		 M485.4,209.3v-16.9h16.9v16.9H485.4z M507.4,192.4h16.9v16.9h-16.9L507.4,192.4z M529.1,209.3v-16.9H546v16.9H529.1z M524.3,279.2
		v16.9h-16.9l0-16.9H524.3z M546,231.1h-16.9v-16.9H546V231.1z M524.3,274.4h-16.9l0-16.9h16.9V274.4z M502.3,274.4h-16.9v-16.9
		h16.9V274.4z M485.4,231.1v-16.9h16.9v16.9H485.4z M507.4,214.1h16.9v16.9h-16.9L507.4,214.1z M524.3,252.7h-16.9l0-16.9h16.9
		V252.7z M485.4,235.8h16.9v16.9h-16.9V235.8z M546,252.7h-16.9v-16.9H546V252.7z M463.4,214.1h16.9v16.9h-16.9V214.1z M463.4,235.8
		h16.9v16.9h-16.9V235.8z M463.4,257.5h16.9v16.9h-16.9V257.5z M463.4,279.2h38.7v16.9h-38.7V279.2z M546,257.5v38.7h-16.9v-38.7
		H546z M480.4,192.4v16.9h-16.9v-16.9H480.4z"/>
</g>
</svg>
