<?xml version="1.0" encoding="utf-8"?>
<!-- Generator: Adobe Illustrator 24.0.1, SVG Export Plug-In . SVG Version: 6.00 Build 0)  -->
<svg version="1.1"
	 id="Layer_3" xmlns:cc="http://creativecommons.org/ns#" xmlns:dc="http://purl.org/dc/elements/1.1/" xmlns:rdf="http://www.w3.org/1999/02/22-rdf-syntax-ns#"
	 xmlns="http://www.w3.org/2000/svg" xmlns:xlink="http://www.w3.org/1999/xlink" x="0px" y="0px" viewBox="0 0 496 350.3"
	 style="enable-background:new 0 0 496 350.3;" xml:space="preserve">
<g>
	<path style="fill:#FFFFFF;" d="M363.6,21.7H129.9c-14.8,0-26.8,12-26.8,26.8v263.9c0,14.8,12,26.8,26.8,26.8h233.8
		c14.8,0,26.8-12,26.8-26.8V48.5C390.4,33.7,378.4,21.7,363.6,21.7z M129.9,25.7h233.8c12.5,0,22.8,10.2,22.8,22.8v263.9
		c0,12.5-10.2,22.8-22.8,22.8H129.9c-12.5,0-22.8-10.2-22.8-22.8V48.5C107.1,36,117.3,25.8,129.9,25.7z"/>
	<path style="fill:#FFFFFF;" d="M135.7,117.9c2.6,2.8,4.4,4.8,5.7,6.6c3,4.1,4.8,7.4,4.8,11.3c0,2-0.5,4.1-1.5,6.3
		c-8.3,16.6-12.6,34.2-12.6,52.3c0,63.4,51.6,114.9,114.9,114.9c63.4,0,114.9-51.6,114.9-114.9c0-63.4-51.6-114.9-114.9-114.9
		c-7.9,0-16.3,0.9-24.8,2.7c-2.4,0.5-4.7,0.9-7.1,0.9c-2.7,0-5.4-0.5-8.7-1.8c-6.5-2.4-12.2-12.1-17.1-20.7
		c-7.5-12.9-20.5-20.6-34.8-20.6c-21.9,0-39.6,17.8-39.6,39.6c0,9.4,3.4,18.4,9.7,26C129.2,110.9,132.8,114.8,135.7,117.9z
		 M154.6,43.9C154.6,43.9,154.6,43.9,154.6,43.9c12.8,0,24.5,7,31.3,18.7l0.7,1.2c5.3,9,10.7,18.3,18.5,21.2c3.7,1.4,6.9,2,10.1,2
		c2.8,0,5.4-0.5,8-1c8.2-1.7,16.3-2.6,23.9-2.6c29.6,0,57.5,11.5,78.5,32.5c20.1,20.1,31.5,46.5,32.4,74.7l-4.9-6.3l-0.5-6.3
		l-8.1,0.7l1.2,13.9l12.4-0.3c0,0.7,0,1.3,0,2c0,0.7,0,1.4,0,2l-12.4-0.4l-1.2,13.9l8.1,0.7l0.6-7.1l4.8-5.7
		c-0.9,28.3-12.3,54.9-32.4,75c-21,21-48.8,32.5-78.5,32.5c-29.6,0-57.5-11.5-78.5-32.5c-20-20-31.4-46.2-32.4-74.2l4.8,4.7l0.6,7.3
		l8.1-0.7l-1.2-13.9l-12.4,0.4c0-0.7,0-1.3,0-2c0-0.7,0-1.4,0-2.1l12.4,0.5l1.2-13.9l-8.1-0.7l-0.6,6.4l-4.9,5.4
		c0.6-15.6,4.5-30.8,11.6-45.2l0,0l0.8-1.7l-0.1,0c1-2.4,1.5-4.8,1.5-7.1c0-5.5-2.8-9.8-5.6-13.7c-1.5-2.1-3.5-4.3-6.1-7
		c-2.8-3-6.4-6.8-10.8-12.1c-5.7-6.9-8.8-15-8.8-23.4c0-9.5,3.7-18.5,10.4-25.2C136.1,47.6,145.1,43.9,154.6,43.9z"/>
	<path style="fill:#FFFFFF;" d="M151.7,194.3c0,52.6,42.8,95.5,95.5,95.5c52.6,0,95.5-42.8,95.5-95.5c0-52.6-42.8-95.5-95.5-95.5
		S151.7,141.6,151.7,194.3z M247.2,102.8c24.4,0,47.4,9.5,64.7,26.8c17.3,17.3,26.8,40.3,26.8,64.7c0,24.4-9.5,47.4-26.8,64.7
		c-17.3,17.3-40.3,26.8-64.7,26.8c-24.4,0-47.4-9.5-64.7-26.8c-17.3-17.3-26.8-40.3-26.8-64.7c0-24.4,9.5-47.4,26.8-64.7
		C199.8,112.3,222.8,102.8,247.2,102.8z"/>
	<path style="fill:#FFFFFF;" d="M247.2,242.2c26.4,0,47.9-21.5,47.9-47.9c0-26.4-21.5-47.9-47.9-47.9c-26.4,0-47.9,21.5-47.9,47.9
		C199.3,220.7,220.8,242.2,247.2,242.2z M247.2,150.4c11.7,0,22.8,4.6,31.1,12.9c8.3,8.3,12.9,19.3,12.9,31.1
		c0,11.7-4.6,22.8-12.9,31.1c-8.3,8.3-19.3,12.9-31.1,12.9c-11.7,0-22.8-4.6-31.1-12.9c-8.3-8.3-12.9-19.3-12.9-31.1
		c0-11.7,4.6-22.8,12.9-31.1C224.4,154.9,235.5,150.4,247.2,150.4z"/>
	<path style="fill:#FFFFFF;" d="M189.1,252.4c15.5,15.5,36.2,24.1,58.1,24.1c45.3,0,82.2-36.9,82.2-82.2c0-45.3-36.9-82.2-82.2-82.2
		c-45.3,0-82.2,36.9-82.2,82.2C165,216.2,173.5,236.9,189.1,252.4z M247.2,116.1c20.9,0,40.5,8.1,55.3,22.9
		c14.8,14.8,22.9,34.4,22.9,55.3s-8.1,40.5-22.9,55.3c-14.8,14.8-34.4,22.9-55.3,22.9c-20.9,0-40.5-8.1-55.3-22.9
		c-14.8-14.8-22.9-34.4-22.9-55.3c0-20.9,8.1-40.5,22.9-55.3C206.7,124.2,226.3,116.1,247.2,116.1z"/>
	<path style="fill:#FFFFFF;" d="M247.2,264.1c38.5,0,69.8-31.3,69.8-69.8s-31.3-69.8-69.8-69.8c-38.5,0-69.8,31.3-69.8,69.8
		C177.4,232.8,208.7,264.1,247.2,264.1z M247.2,128.4c17.6,0,34.1,6.8,46.5,19.3c12.4,12.4,19.3,29,19.3,46.6
		c0,17.6-6.8,34.1-19.3,46.5c-12.4,12.4-29,19.3-46.5,19.3c-17.6,0-34.1-6.8-46.5-19.3c-12.4-12.4-19.3-29-19.3-46.5
		c0-17.6,6.8-34.1,19.3-46.6C213.1,135.3,229.6,128.4,247.2,128.4z"/>
	<path style="fill:#FFFFFF;" d="M247.2,254.1c33,0,59.8-26.8,59.8-59.8c0-33-26.8-59.8-59.8-59.8c-33,0-59.8,26.8-59.8,59.8
		C187.4,227.2,214.2,254.1,247.2,254.1z M247.2,138.5c14.9,0,28.9,5.8,39.4,16.3c10.5,10.5,16.3,24.5,16.3,39.4
		c0,14.9-5.8,28.9-16.3,39.4s-24.5,16.3-39.4,16.3c-14.9,0-28.9-5.8-39.4-16.3c-10.5-10.5-16.3-24.5-16.3-39.4
		c0-14.9,5.8-28.9,16.3-39.4C218.3,144.3,232.3,138.5,247.2,138.5z"/>
	<path style="fill:#FFFFFF;" d="M154.7,107.4c16,0,29.1-13,29.1-29.1c0-16-13-29.1-29.1-29.1c-16,0-29.1,13-29.1,29.1
		C125.6,94.3,138.7,107.4,154.7,107.4z M154.7,53.2c13.8,0,25,11.3,25.1,25.1c0,13.8-11.3,25-25.1,25.1c-13.8,0-25-11.3-25.1-25.1
		C129.7,64.5,140.9,53.3,154.7,53.2z"/>
	<path style="fill:#FFFFFF;" d="M232.5,229.2v0.2l2,0l27.3,0l20.6-20.6v-29.1l-20.6-20.6h-29.1l-20.6,20.6v29.1L232.5,229.2z
		 M216.1,181.4l18.2-18.2h25.8l18.2,18.2v25.8l-18.2,18.2h-25.8l-18.2-18.2V181.4z"/>
	<path style="fill:#FFFFFF;" d="M247.2,204.7c5.7,0,10.4-4.7,10.4-10.4c0-5.7-4.7-10.4-10.4-10.4c-5.7,0-10.4,4.7-10.4,10.4
		C236.8,200,241.5,204.7,247.2,204.7z M247.2,200.7c-3.5,0-6.4-2.9-6.4-6.4c0-3.5,2.9-6.4,6.4-6.4c3.5,0,6.4,2.9,6.4,6.4
		C253.6,197.8,250.7,200.7,247.2,200.7z"/>
	
		<rect x="213.7" y="91.3" transform="matrix(0.9659 -0.2588 0.2588 0.9659 -17.1645 60.3632)" style="fill:#FFFFFF;" width="14" height="8.1"/>
	
		<rect x="196.9" y="97.4" transform="matrix(0.9063 -0.4226 0.4226 0.9063 -23.7768 95.6933)" style="fill:#FFFFFF;" width="14" height="8.1"/>
	
		<rect x="181.5" y="106.3" transform="matrix(0.8191 -0.5736 0.5736 0.8191 -29.239 128.0682)" style="fill:#FFFFFF;" width="14" height="8.1"/>
	
		<rect x="167.8" y="117.8" transform="matrix(0.7071 -0.7071 0.7071 0.7071 -34.985 159.2867)" style="fill:#FFFFFF;" width="14" height="8.1"/>
	
		<rect x="156.3" y="131.5" transform="matrix(0.5736 -0.8191 0.8191 0.5736 -41.4036 191.5643)" style="fill:#FFFFFF;" width="14" height="8.1"/>
	
		<rect x="147.4" y="146.9" transform="matrix(0.4226 -0.9063 0.9063 0.4226 -47.7086 227.098)" style="fill:#FFFFFF;" width="14" height="8.1"/>
	
		<rect x="141.3" y="163.7" transform="matrix(0.2588 -0.9659 0.9659 0.2588 -52.1572 267.5762)" style="fill:#FFFFFF;" width="14" height="8.1"/>
	
		<rect x="144.2" y="213.8" transform="matrix(0.9659 -0.2589 0.2589 0.9659 -52.0979 45.9103)" style="fill:#FFFFFF;" width="8.1" height="14"/>
	
		<rect x="150.3" y="230.6" transform="matrix(0.9063 -0.4226 0.4226 0.9063 -85.9272 87.507)" style="fill:#FFFFFF;" width="8.1" height="14"/>
	
		<rect x="159.2" y="246" transform="matrix(0.8191 -0.5736 0.5736 0.8191 -115.5923 139.4384)" style="fill:#FFFFFF;" width="8.1" height="14"/>
	
		<rect x="170.7" y="259.7" transform="matrix(0.7071 -0.7071 0.7071 0.7071 -137.3722 201.7071)" style="fill:#FFFFFF;" width="8.1" height="14"/>
	
		<rect x="184.4" y="271.1" transform="matrix(0.5734 -0.8192 0.8192 0.5734 -147.4863 273.0334)" style="fill:#FFFFFF;" width="8.1" height="14"/>
	
		<rect x="199.8" y="280.1" transform="matrix(0.4226 -0.9063 0.9063 0.4226 -142.4498 350.5442)" style="fill:#FFFFFF;" width="8.1" height="14"/>
	
		<rect x="216.6" y="286.2" transform="matrix(0.2588 -0.9659 0.9659 0.2588 -119.6132 430.4825)" style="fill:#FFFFFF;" width="8.1" height="14"/>
	<polygon style="fill:#FFFFFF;" points="230.9,299.7 238,300.3 245.3,305.1 245.5,292.8 231.6,291.6 	"/>
	<polygon style="fill:#FFFFFF;" points="248.9,292.8 249,305.1 256.5,300.3 263.4,299.7 262.7,291.6 	"/>
	
		<rect x="266.7" y="289.1" transform="matrix(0.9659 -0.2588 0.2588 0.9659 -66.5511 80.821)" style="fill:#FFFFFF;" width="14" height="8.1"/>
	
		<rect x="283.5" y="283" transform="matrix(0.9063 -0.4226 0.4226 0.9063 -94.1073 149.6505)" style="fill:#FFFFFF;" width="14" height="8.1"/>
	
		<rect x="298.9" y="274.1" transform="matrix(0.8192 -0.5735 0.5735 0.8192 -104.2122 225.6921)" style="fill:#FFFFFF;" width="14" height="8.1"/>
	
		<rect x="312.6" y="262.6" transform="matrix(0.7071 -0.7071 0.7071 0.7071 -94.9591 304.0902)" style="fill:#FFFFFF;" width="14" height="8.1"/>
	
		<rect x="324" y="248.9" transform="matrix(0.5737 -0.8191 0.8191 0.5737 -66.1028 379.0074)" style="fill:#FFFFFF;" width="14" height="8.1"/>
	
		<rect x="333" y="233.5" transform="matrix(0.4227 -0.9063 0.9063 0.4227 -18.975 445.2801)" style="fill:#FFFFFF;" width="14" height="8.1"/>
	
		<rect x="339.1" y="216.7" transform="matrix(0.2588 -0.9659 0.9659 0.2588 43.2929 497.9487)" style="fill:#FFFFFF;" width="14" height="8.1"/>
	
		<rect x="342" y="160.8" transform="matrix(0.9659 -0.2589 0.2589 0.9659 -31.6321 95.3055)" style="fill:#FFFFFF;" width="8.1" height="14"/>
	
		<rect x="335.9" y="144" transform="matrix(0.9063 -0.4226 0.4226 0.9063 -31.9608 157.8233)" style="fill:#FFFFFF;" width="8.1" height="14"/>
	
		<rect x="327" y="128.6" transform="matrix(0.8191 -0.5736 0.5736 0.8191 -17.8795 214.4262)" style="fill:#FFFFFF;" width="8.1" height="14"/>
	
		<rect x="315.5" y="114.9" transform="matrix(0.7071 -0.7071 0.7071 0.7071 7.4354 261.6883)" style="fill:#FFFFFF;" width="8.1" height="14"/>
	
		<rect x="301.8" y="103.4" transform="matrix(0.5735 -0.8192 0.8192 0.5735 40.0278 297.6877)" style="fill:#FFFFFF;" width="8.1" height="14"/>
	
		<rect x="286.4" y="94.5" transform="matrix(0.4226 -0.9063 0.9063 0.4226 75.7514 321.8333)" style="fill:#FFFFFF;" width="8.1" height="14"/>
	
		<rect x="269.6" y="88.4" transform="matrix(0.2588 -0.9659 0.9659 0.2588 110.7313 335.0363)" style="fill:#FFFFFF;" width="8.1" height="14"/>
</g>
</svg>
