<?xml version="1.0" encoding="utf-8"?>
<!-- Generator: Adobe Illustrator 24.0.1, SVG Export Plug-In . SVG Version: 6.00 Build 0)  -->
<svg version="1.1" id="Layer_1" xmlns="http://www.w3.org/2000/svg" xmlns:xlink="http://www.w3.org/1999/xlink" x="0px" y="0px"
	 viewBox="0 0 519.3 111" style="enable-background:new 0 0 519.3 111;" xml:space="preserve">
<title>lynx</title>
<g id="Layer_1-2">
	<polygon style="fill:#FFFFFF;" points="408.8,74.2 360.3,91.8 409.1,91.8 427.6,81.6 	"/>
	<polygon style="fill:#FFFFFF;" points="363.5,23.5 421.1,23.5 497.8,62.3 467.7,62.3 446.6,52.6 433.5,57.9 	"/>
	<polygon style="fill:#FFFFFF;" points="470.8,41.3 519.3,23.7 470.5,23.7 451.9,34 	"/>
	<polygon style="fill:#FFFFFF;" points="516,92 458.5,92 381.8,53.2 411.8,53.2 433,62.9 446,57.6 	"/>
	<rect y="23" style="fill:#FFFFFF;" width="38.2" height="46.7"/>
	<rect y="75.4" style="fill:#FFFFFF;" width="97.8" height="14.3"/>
	<polygon style="fill:#FFFFFF;" points="62,23 107.4,23 138.4,49.2 116,65.6 	"/>
	<polygon style="fill:#FFFFFF;" points="119.3,68.2 119.3,89.7 155.1,89.7 155.1,68.2 224.3,23 190.9,23 121.7,68.2 	"/>
	<polygon style="fill:#FFFFFF;" points="229.1,30.1 267.2,53.9 267.2,89.7 229.1,89.7 	"/>
	<polygon style="fill:#FFFFFF;" points="233.8,23 331.7,89.7 353.1,89.7 353.1,23 334.5,23 334.5,69.9 264.9,23 	"/>
</g>
</svg>
