<?xml version="1.0" encoding="utf-8"?>
<!-- Generator: Adobe Illustrator 24.0.1, SVG Export Plug-In . SVG Version: 6.00 Build 0)  -->
<svg version="1.1" id="Layer_3" xmlns="http://www.w3.org/2000/svg" xmlns:xlink="http://www.w3.org/1999/xlink" x="0px" y="0px"
	 viewBox="0 0 491 350.3" style="enable-background:new 0 0 491 350.3;" xml:space="preserve">
<g>
	<path style="fill:#FFFFFF;" d="M437.6,155.4c-2.4-19-6.8-35.9-13-50.6l-0.1-0.6l-0.1,0c-17.6-40.9-50-64.8-96.9-71.1
		c-0.8-1.1-1.9-2.1-3.2-3c-9.6-6.6-31.8-10.2-62.6-10.3h-28.4c-20.5,0-37.7,1.7-49.5,4.8c-5.6,1.5-10,3.3-13.1,5.4
		c-1.3,0.9-2.4,1.9-3.2,3c-46.9,6.3-79.3,30.2-96.9,71.2l-0.3-0.1l-0.2,1c-0.1,0.2-0.1,0.5-0.2,0.7c-6,14.4-10.2,30.9-12.5,49.5
		c-1.6,12.3-2.4,24.6-2.4,36.6c0,51.2,14.1,88.2,24.4,115.2c1,2.5,1.9,4.9,2.7,7.2l0.3,0.9l0.9,0.3c6.9,2.5,19.6,3.7,29.1,3.7
		c4,0,7.3-0.2,9.6-0.6l2.9-0.5l-0.1-0.1l38.5,0v-3.8h168.3v3.8h2c12.3,0,29.6,0,36.5,0l-0.1,0.1l2.9,0.5h0c2.3,0.4,5.6,0.6,9.6,0.6
		c9.5,0,22.2-1.2,29.1-3.7l0.9-0.3l0.3-0.9c0.9-2.3,1.8-4.7,2.7-7.2c10.3-27,24.4-63.9,24.4-115.2C440,180,439.2,167.7,437.6,155.4z
		 M95.3,222.6c-0.1-3.5-0.1-7.2-0.1-10.9c0-23,1.7-43.1,3.4-48.4c0.9-3.1,1.9-5.3,3.6-6.7c1.9-1.5,5-2.2,9.8-2.2c0,0,0,0,0,0H383
		c0,0,0,0,0,0c4.8,0,7.9,0.7,9.8,2.2c1.8,1.4,2.7,3.6,3.6,6.7c1.6,5.4,3.4,25.4,3.4,48.4c0,3.7,0,7.4-0.1,10.9
		c-0.6,27.2-14.6,69.9-27.1,91.4h-36.9V180.6c0-5.5-4.5-10-10-10H169.3c-5.5,0-10,4.5-10,10V314h-36.9
		C109.9,292.4,95.9,249.7,95.3,222.6z M163.3,180.6c0-3.3,2.7-6,6-6h156.3c3.3,0,6,2.7,6,6v129.5H163.3V180.6z M382.7,315.2
		c-0.1,0-0.1,0-0.2,0c-2.2,0-4.2-0.1-5.9-0.2c12.4-22,26.4-64.6,27.1-92.3c0.1-3.6,0.1-7.3,0.1-11c0-24.5-1.8-43.8-3.5-49.6
		c-1.2-3.8-2.4-6.6-5-8.7c-2.7-2.1-6.5-3.1-12.3-3.1H111.9c-5.8,0-9.6,1-12.3,3.1c-2.9,2.3-4.1,5.7-5,8.7
		c-1.7,5.8-3.5,25.1-3.5,49.6c0,3.8,0,7.5,0.1,11c0.7,27.8,14.7,70.3,27.1,92.3c-1.7,0.1-3.7,0.2-5.9,0.2c-0.1,0-0.1,0-0.2,0
		c-8.6,0-20.4-1.1-26.8-3.2c-0.8-2-1.6-4.1-2.4-6.3C72.9,279.1,58.9,242.5,58.9,192c0-11.8,0.8-24,2.3-36.1
		c1.6-12,3.9-23.1,6.9-33.3c0.6,11.2,5.6,17.4,9.9,20.6c4.9,3.7,11.6,5.8,18.9,5.8h300.8c5.2,0,12.7-1,18.9-5.8
		c4.3-3.3,9.4-9.6,9.9-21.2c3.1,10.4,5.5,21.7,7.1,34c1.6,12.1,2.3,24.3,2.3,36.1c0,50.5-14,87.1-24.2,113.8
		c-0.8,2.2-1.6,4.3-2.4,6.3C403.1,314.1,391.3,315.2,382.7,315.2z M165.6,37.4c0,0.2,0,0.4,0,0.6v4.2c0,4.3,2.7,7.9,6.4,9.3
		c0.8,1.8,2,2.7,3,3.5c0.3,0.2,0.5,0.4,0.8,0.6l0.2,0.2c2.7,2.4,6.5,5.6,8.2,6.6c0.1,0.1,0.4,0.3,0.6,0.5c0.7,0.5,1.7,1.3,3.1,2
		c0,0,0,0,0,0l0,0c4.8,5.7,9.4,11.2,15.8,14l0.6,0.6c4.9,4.9,16.1,13,35.5,13c0,0,0,0,0,0l14.9,0c0,0,0,0,0,0
		c19.4,0,30.6-8.1,35.5-13l0.6-0.6c6.4-2.9,11-8.3,15.8-14l0,0c0,0,0,0,0,0c1.5-0.7,2.5-1.5,3.1-2c0.3-0.2,0.5-0.4,0.7-0.5
		c1.6-1,5.4-4.2,8.1-6.6l0.3-0.2c0.2-0.2,0.5-0.4,0.8-0.6c1-0.8,2.2-1.8,3-3.5c3.8-1.4,6.5-5.1,6.5-9.3V38c0-0.2,0-0.4,0-0.6
		c44.5,6.7,74.8,29.2,91.4,68.2l0.1,0.6c1.2,5.1,1.8,9.8,1.8,13.9c0,9-2.8,15.7-8.4,20c-5.7,4.3-12.8,5-16.5,5c0,0,0,0,0,0H96.9
		c0,0,0,0,0,0c-3.7,0-10.9-0.6-16.5-5c-5.5-4.2-8.3-11-8.4-20c0-4,0.6-8.5,1.7-13.4C90.3,67,120.7,44.2,165.6,37.4z M281,77h-67.1
		c-8.2,0-13.2-3.9-19.1-10.5c1.1,0.1,2.2,0.2,3.4,0.2c0,0,0,0,0,0h98.6v-1l0,0l0,1c0,0,0,0,0,0c1.2,0,2.3-0.1,3.4-0.1
		C294.2,73.1,289.2,77,281,77z M213.9,81C213.9,81,213.9,81,213.9,81H281c0.5,0,0.9,0,1.4-0.1c-6,4-14.8,7.5-27.5,7.6l-14.9,0
		c-12.6,0-21.5-3.5-27.5-7.6C213,81,213.4,81,213.9,81z M305.2,61.3c-0.2,0.1-0.4,0.2-0.7,0.3l0,0l-0.1,0.1c-2,0.7-4.5,1.1-7.7,1.1
		h-98.6c-3.2,0-5.7-0.4-7.7-1.1l0,0l0,0c-0.3-0.1-0.5-0.2-0.7-0.3c-1-0.5-1.7-1-2.3-1.5c-0.4-0.3-0.7-0.6-1.2-0.8
		c-1.3-0.8-6.2-4.9-7.8-6.4c-0.2-0.2-0.4-0.3-0.6-0.5l139.1,0c-0.2,0.2-0.4,0.3-0.6,0.5c-1.6,1.4-6.5,5.6-7.8,6.4
		c-0.4,0.3-0.8,0.5-1.1,0.8C306.8,60.3,306.2,60.8,305.2,61.3z M325.3,38v4.2c0,3.3-2.7,6-6,6H175.6c-3.3,0-6-2.7-6-6V38
		c0-1.5,1.1-3.1,3.3-4.6c8.6-6,31-9.6,60-9.6c0.1,0,0.2,0,0.3,0h28.4c0,0,0,0,0,0c20.2,0,36.9,1.6,48.5,4.7c5.1,1.4,9.2,3,11.8,4.9
		C324.2,34.9,325.3,36.4,325.3,38z"/>
	<path style="fill:#FFFFFF;" d="M208.9,184.8h-19.2c-4.7,0-8.6,3.9-8.6,8.6c0,4.4,3.3,8,7.6,8.5v0.1h20.2c4.7,0,8.6-3.8,8.6-8.6
		C217.5,188.6,213.7,184.8,208.9,184.8z M189.8,188.8h19.2c2.5,0,4.6,2.1,4.6,4.6c0,2.5-2.1,4.6-4.6,4.6h-19.2
		c-2.5,0-4.6-2.1-4.6-4.6C185.2,190.9,187.2,188.8,189.8,188.8z"/>
	<path style="fill:#FFFFFF;" d="M257,184.8h-19.2c-4.7,0-8.6,3.9-8.6,8.6c0,4.4,3.3,8,7.6,8.5v0.1H257c4.7,0,8.6-3.9,8.6-8.6
		S261.7,184.8,257,184.8z M237.8,188.8H257c2.5,0,4.6,2.1,4.6,4.6c0,2.5-2.1,4.6-4.6,4.6l-19.2,0c-2.5,0-4.6-2.1-4.6-4.6
		C233.3,190.9,235.3,188.8,237.8,188.8z"/>
	<path style="fill:#FFFFFF;" d="M284.9,201.9L284.9,201.9l2,0.1h18.2c4.7,0,8.6-3.9,8.6-8.6c0-4.7-3.9-8.6-8.6-8.6l-19.2,0
		c-4.7,0-8.6,3.9-8.6,8.6C277.3,197.8,280.7,201.4,284.9,201.9z M305.1,198l-19.2,0c-2.5,0-4.6-2.1-4.6-4.6c0-2.5,2.1-4.6,4.6-4.6
		h19.2c2.5,0,4.6,2.1,4.6,4.6C309.7,195.9,307.6,198,305.1,198z"/>
	<path style="fill:#FFFFFF;" d="M208.9,216.3h-19.2c-4.7,0-8.6,3.9-8.6,8.6c0,4.4,3.3,8,7.6,8.5v0.1h2h18.2c4.7,0,8.6-3.9,8.6-8.6
		C217.5,220.2,213.7,216.3,208.9,216.3z M213.5,224.9c0,2.5-2.1,4.6-4.6,4.6h-19.2c-2.5,0-4.6-2.1-4.6-4.6c0-2.5,2.1-4.6,4.6-4.6
		h19.2C211.5,220.4,213.5,222.4,213.5,224.9z"/>
	<path style="fill:#FFFFFF;" d="M257,216.3h-19.2c-4.7,0-8.6,3.8-8.6,8.6c0,4.4,3.3,8,7.6,8.5v0.1h2H257c4.7,0,8.6-3.9,8.6-8.6
		C265.6,220.2,261.7,216.3,257,216.3z M261.6,224.9c0,2.5-2.1,4.6-4.6,4.6h-19.2c-2.5,0-4.6-2.1-4.6-4.6c0-2.5,2.1-4.6,4.6-4.6H257
		C259.5,220.4,261.6,222.4,261.6,224.9z"/>
	<path style="fill:#FFFFFF;" d="M284.9,233.5L284.9,233.5l20.2,0.1c4.7,0,8.6-3.9,8.6-8.6c0-4.7-3.9-8.6-8.6-8.6h-19.2
		c-4.7,0-8.6,3.9-8.6,8.6C277.3,229.3,280.7,233,284.9,233.5z M285.9,220.4h19.2c2.5,0,4.6,2.1,4.6,4.6c0,2.5-2.1,4.6-4.6,4.6h-19.2
		c-2.5,0-4.6-2.1-4.6-4.6C281.3,222.4,283.4,220.4,285.9,220.4z"/>
	<path style="fill:#FFFFFF;" d="M208.9,247.9h-19.2c-4.7,0-8.6,3.9-8.6,8.6c0,4.4,3.3,8,7.6,8.5v0.1h2h18.2c4.7,0,8.6-3.9,8.6-8.6
		C217.5,251.8,213.7,247.9,208.9,247.9z M189.8,251.9h19.2c2.5,0,4.6,2.1,4.6,4.6c0,2.5-2.1,4.6-4.6,4.6h-19.2
		c-2.5,0-4.6-2.1-4.6-4.6C185.2,254,187.2,251.9,189.8,251.9z"/>
	<path style="fill:#FFFFFF;" d="M257,247.9h-19.2c-4.7,0-8.6,3.9-8.6,8.6c0,4.4,3.3,8,7.6,8.5v0.1h2H257c4.7,0,8.6-3.9,8.6-8.6
		C265.6,251.8,261.7,247.9,257,247.9z M237.8,251.9H257c2.5,0,4.6,2.1,4.6,4.6c0,2.5-2.1,4.6-4.6,4.6h-19.2c-2.5,0-4.6-2.1-4.6-4.6
		C233.3,254,235.3,251.9,237.8,251.9z"/>
	<path style="fill:#FFFFFF;" d="M284.9,265L284.9,265l2,0.1h18.2c4.7,0,8.6-3.9,8.6-8.6c0-4.7-3.9-8.6-8.6-8.6h-19.2
		c-4.7,0-8.6,3.9-8.6,8.6C277.3,260.9,280.7,264.5,284.9,265z M285.9,251.9h19.2c2.5,0,4.6,2.1,4.6,4.6c0,2.5-2.1,4.6-4.6,4.6h-19.2
		c-2.5,0-4.6-2.1-4.6-4.6C281.3,254,283.4,251.9,285.9,251.9z"/>
	<path style="fill:#FFFFFF;" d="M208.9,279.5h-19.2c-4.7,0-8.6,3.9-8.6,8.6c0,4.4,3.3,8,7.6,8.5v0.1h2h18.2c4.7,0,8.6-3.9,8.6-8.6
		S213.7,279.5,208.9,279.5z M189.8,283.5h19.2c2.5,0,4.6,2.1,4.6,4.6c0,2.5-2.1,4.6-4.6,4.6h-19.2c-2.5,0-4.6-2.1-4.6-4.6
		C185.2,285.5,187.2,283.5,189.8,283.5z"/>
	<path style="fill:#FFFFFF;" d="M257,279.5l-19.2,0c-4.7,0-8.6,3.9-8.6,8.6c0,4.4,3.3,8,7.6,8.5v0.1h2H257c4.7,0,8.6-3.9,8.6-8.6
		C265.6,283.3,261.7,279.5,257,279.5z M233.3,288c0-2.5,2.1-4.6,4.6-4.6H257c2.5,0,4.6,2.1,4.6,4.6c0,2.5-2.1,4.6-4.6,4.6l-19.2,0
		C235.3,292.6,233.3,290.6,233.3,288z"/>
	<path style="fill:#FFFFFF;" d="M305.1,279.5l-19.2,0c-4.7,0-8.6,3.9-8.6,8.6c0,4.4,3.3,8,7.6,8.5v0.1h2h18.2c4.7,0,8.6-3.9,8.6-8.6
		C313.7,283.3,309.8,279.5,305.1,279.5z M281.3,288c0-2.5,2.1-4.6,4.6-4.6h19.2c2.5,0,4.6,2.1,4.6,4.6c0,2.5-2.1,4.6-4.6,4.6
		l-19.2,0C283.4,292.6,281.3,290.6,281.3,288z"/>
	<path style="fill:#FFFFFF;" d="M213.1,131.5c1.5,1.3,3.4,2.1,5.4,2.1c0,0,0,0,0,0c2,0,3.9-0.7,5.3-2l0,0l0.6-0.6
		c0,0,0.1-0.1,0.1-0.1l0.7-0.7l0,0l12.5-14c1.3-1.5,2.1-3.4,2.1-5.4c0-2.3-1-4.5-2.7-6c-1.5-1.3-3.4-2.1-5.4-2.1c-2.3,0-4.5,1-6,2.7
		l-13.2,14.8c-1.3,1.5-2.1,3.4-2.1,5.4C210.4,127.7,211.4,129.9,213.1,131.5z M215.4,122.7l13.2-14.8v0c0.8-0.9,1.9-1.4,3-1.4
		c1,0,2,0.4,2.7,1c0.9,0.8,1.4,1.9,1.4,3c0,1-0.4,2-1,2.7l-13.2,14.8c-0.8,0.9-1.9,1.4-3,1.4c-1,0-2-0.4-2.7-1
		c-0.9-0.8-1.4-1.9-1.4-3C214.4,124.4,214.8,123.5,215.4,122.7z"/>
	<path style="fill:#FFFFFF;" d="M242.1,131.5c1.5,1.3,3.4,2.1,5.4,2.1c0,0,0,0,0,0l0.4,0l0,0c2.1-0.1,4.2-1.1,5.6-2.7l13.2-14.8
		c1.3-1.5,2.1-3.4,2.1-5.4c0-2.3-1-4.5-2.7-6c-1.5-1.3-3.4-2.1-5.4-2.1c-2.3,0-4.5,1-6,2.7l-13.2,14.8c-1.3,1.5-2.1,3.4-2.1,5.4
		C239.4,127.7,240.4,129.9,242.1,131.5z M244.4,122.7l13.2-14.8c0.8-0.9,1.9-1.4,3-1.4c1,0,2,0.4,2.7,1c0.9,0.8,1.4,1.9,1.4,3
		c0,1-0.4,2-1,2.7l-13.2,14.8c-0.8,0.9-1.9,1.4-3,1.4c-1,0-2-0.4-2.7-1c-0.9-0.8-1.4-1.9-1.4-3C243.4,124.4,243.8,123.5,244.4,122.7
		z"/>
	<path style="fill:#FFFFFF;" d="M144.3,141c25,0,45.3-20.3,45.3-45.3c0-25-20.3-45.3-45.3-45.3c-24.9,0-45.2,20.3-45.3,45.3
		C99.1,120.7,119.4,141,144.3,141z M144.3,137c-11,0-21.4-4.3-29.2-12.1c-7.8-7.8-12.1-18.2-12.1-29.2s4.3-21.4,12.1-29.2
		c7.8-7.8,18.2-12.1,29.2-12.1c11,0,21.4,4.3,29.2,12.1c7.8,7.8,12.1,18.2,12.1,29.2s-4.3,21.4-12.1,29.2
		C165.7,132.7,155.4,137,144.3,137z"/>
	<path style="fill:#FFFFFF;" d="M144.3,62.6c-18.2,0-33.1,14.8-33.1,33.1c0,18.2,14.8,33.1,33.1,33.1s33.1-14.8,33.1-33.1
		C177.4,77.5,162.6,62.6,144.3,62.6z M131.9,82.8v0.5h-0.5C131.6,83.1,131.8,83,131.9,82.8z M157.3,83.3h-0.5v-0.5
		C156.9,83,157.1,83.1,157.3,83.3z M131.5,108.1l0.5,0l0,0.5C131.8,108.4,131.6,108.3,131.5,108.1z M152.8,120.1c0,0.3,0,0.4,0,0.5
		c-5.4,1.8-11.4,1.8-16.8,0c0-0.1,0-0.3-0.1-0.6v-0.4h0v-1c0-0.3,0-0.5,0-0.8v-10.1c0-0.9-0.3-1.7-0.9-2.4c-0.6-0.8-1.7-1.2-2.7-1.2
		l-12.3,0c-0.2,0-0.4,0-0.5,0c-0.9-2.7-1.4-5.5-1.4-8.4c0-2.9,0.5-5.7,1.4-8.4c0.1,0,0.3,0,0.5,0h12.3c0.8,0,1.8,0,2.8-1
		c0.8-0.9,0.8-1.8,0.8-2.3l0-0.2l0-10.3c0-0.3,0-0.5,0-0.8v-1h0v-0.4c0-0.5,0.1-0.5,0.4-0.7l0.1,0c5.3-1.7,11.2-1.6,16.3,0.2
		c0,0.1,0,0.3,0,0.5v0.4h0l0,1c0,0,0,0,0,0v11c0,1.2,0.4,2.2,1.2,2.8c0.8,0.6,1.6,0.6,2.3,0.6l12.5,0c0.2,0,0.4,0,0.5,0
		c0.9,2.7,1.4,5.5,1.4,8.4c0,2.9-0.5,5.7-1.4,8.4c-0.1,0-0.3,0-0.5,0l-12.3,0c-0.5,0-1.3,0.1-2.1,0.6c-0.9,0.6-1.5,1.7-1.5,2.8v11
		c0,0,0,0,0,0l0,1h0V120.1z M156.8,108.6l0-0.5l0.5,0C157.1,108.3,156.9,108.5,156.8,108.6z M131.9,71.4v2.2
		c-0.4,5.4-4.9,9.7-10.4,9.7l-1,0v0H120c-0.6,0-1.4,0.1-2.1,0.3c2.9-6.4,8.1-11.5,14.5-14.4C132.1,69.8,131.9,70.5,131.9,71.4z
		 M168.7,83.3h-0.5v0l-1,0c-5.8,0-10.5-4.7-10.5-10.5l0-0.5v-1l0-0.2c0-0.7,0-1.2-0.2-1.8c6.2,2.9,11.2,7.9,14.1,14.1
		C170.1,83.3,169.5,83.3,168.7,83.3z M118,107.9c0.6,0.2,1.3,0.2,2,0.2l0.5,0v0l1,0c5.5,0,10,4.3,10.4,9.7l0,2.1
		c0,0.8,0.1,1.5,0.3,2.1C126,119.2,120.9,114.2,118,107.9z M156.8,120l0-1.5c0-5.8,4.7-10.4,10.5-10.4l1,0v0l0.5,0
		c0.7,0,1.3,0,2-0.2c-2.9,6.2-8,11.3-14.2,14.2C156.7,121.4,156.8,120.7,156.8,120z"/>
	<path style="fill:#FFFFFF;" d="M292.1,143.2L292.1,143.2l30.1,0.1c2.8,0,5.4-1.3,7-3.6l8.4-12c1.1-1.4,1.7-3.3,1.7-5.1
		c0-3.2-1.8-6.1-4.7-7.5L315.7,105c-1.6-0.9-3.4-1.3-5.3-1.3c-3.6,0-7,1.8-9,4.7l-15.1,20.5c-1.3,1.6-2,3.5-2,5.6
		C284.3,139,287.7,142.7,292.1,143.2z M335.3,122.5c0,1-0.3,1.9-1,2.7l-8.4,12.1c-0.9,1.2-2.3,1.9-3.7,1.9h-8.6
		c7.8-0.5,14-6.9,14-14.8c0-4.7-2.2-8.8-5.5-11.6l10.7,5.7C334.3,119.3,335.3,120.9,335.3,122.5z M312.8,113.6
		c6,0,10.9,4.9,10.9,10.9c0,6-4.9,10.9-10.9,10.9c-6,0-10.9-4.9-10.9-10.9C301.9,118.5,306.8,113.6,312.8,113.6z M311.9,139.3h-18
		l-0.8,0c-2.7,0-4.8-2.2-4.8-4.8c0-1.1,0.4-2.2,1.2-3.1l10.2-13.9c-1.1,2.1-1.8,4.5-1.8,7C297.9,132.4,304.1,138.8,311.9,139.3z
		 M312.8,109.6c-4.1,0-7.9,1.7-10.6,4.4l2.5-3.4c1.3-1.9,3.5-3,5.8-3c1.2,0,2.3,0.3,3.4,0.9l3.3,1.7
		C315.7,109.8,314.3,109.6,312.8,109.6z"/>
	<path style="fill:#FFFFFF;" d="M317.2,102.9l19.6,10.6c1.5,0.8,3.2,1.3,5,1.3c3,0,5.8-1.3,7.7-3.5l9.9-10.4c2-1.6,3.1-4,3.1-6.6
		c0-2.6-1.2-5.1-3.3-6.7l0.1-0.1l-1.8-0.9l0,0l-17.4-8.9c-1.8-1.2-3.8-1.8-5.9-1.8c-3,0-5.8,1.2-7.9,3.4l-10.8,11.5
		c-1.4,1.4-2.2,3.4-2.2,5.5C313.3,99,314.8,101.5,317.2,102.9z M346.4,108.7c-1.2,1.4-2.9,2.2-4.7,2.2c-1,0-1.9-0.2-2.8-0.7
		c7.7-0.5,13.8-7,13.8-14.8c0-2.9-0.9-5.6-2.3-7.9l6,3.1c1.3,0.9,2,2.3,2,3.8c0,1.4-0.6,2.7-1.8,3.6L346.4,108.7z M327,95.4
		c0-6,4.9-10.9,10.9-10.9c6,0,10.9,4.9,10.9,10.9c0,6-4.9,10.9-10.9,10.9C331.9,106.2,327,101.4,327,95.4z M323,95.4L323,95.4
		c0,2.6,0.7,5.1,1.9,7.2l-5.8-3.1c-1.1-0.7-1.8-1.9-1.8-3.2c0-1,0.4-1.9,1.1-2.7L329.3,82v0c1.3-1.4,3-2.1,4.9-2.1c0,0,0,0,0,0
		c1,0,2,0.2,2.9,0.7C329.3,81,323,87.4,323,95.4z"/>
	<path style="fill:#FFFFFF;" d="M343.6,76l19,11.7c1.5,0.9,3.1,1.5,4.9,1.6h0c0.2,0,0.3,0,0.5,0c0,0,0,0,0.1,0
		c2.8,0,5.4-1.2,7.3-3.1l10.5-9.8c2.1-1.5,3.4-3.9,3.5-6.4c0-0.2,0-0.3,0-0.5c0-2.4-1.1-4.8-2.9-6.4l0.1-0.1L368,52
		c-1.7-1.2-3.7-2-5.8-2.1c-0.2,0-0.4,0-0.6,0c-2.8,0-5.4,1.1-7.4,3l-11.4,10.9c-1.5,1.3-2.4,3.3-2.5,5.3c0,0.2,0,0.3,0,0.5
		C340.2,72.1,341.5,74.5,343.6,76z M353.9,69.6c0-6,4.9-10.9,10.9-10.9c6,0,10.9,4.9,10.9,10.9c0,6-4.9,10.9-10.9,10.9
		C358.8,80.5,353.9,75.6,353.9,69.6z M365,84.5c8.1-0.1,14.7-6.7,14.7-14.9c0-2.6-0.7-5.1-1.9-7.2l5.8,3.4c1.1,0.9,1.8,2.2,1.8,3.6
		c0,0.1,0,0.2,0,0.3c-0.1,1.4-0.8,2.6-2,3.5l-10.8,10.1c-1.2,1.3-2.8,2-4.5,2c-0.1,0-0.2,0-0.4,0C366.8,85.3,365.8,85,365,84.5z
		 M364.8,54.8c-8.2,0-14.9,6.7-14.9,14.9c0,2.3,0.6,4.5,1.5,6.5l-5.6-3.5c-1-0.7-1.6-1.9-1.6-3.1c0-0.1,0-0.1,0-0.2
		c0.1-1,0.5-1.9,1.3-2.6l11.4-10.9c1.3-1.2,2.9-1.9,4.7-1.9c0.1,0,0.3,0,0.4,0C363,54,363.9,54.3,364.8,54.8
		C364.8,54.8,364.8,54.8,364.8,54.8z"/>
	<circle style="fill:#FFFFFF;" cx="144.3" cy="58.6" r="3.9"/>
	<circle style="fill:#FFFFFF;" cx="118.1" cy="69.5" r="2.8"/>
	<circle style="fill:#FFFFFF;" cx="107.3" cy="95.7" r="3.9"/>
	<circle style="fill:#FFFFFF;" cx="144.3" cy="132.8" r="3.9"/>
	<circle style="fill:#FFFFFF;" cx="181.4" cy="95.7" r="3.9"/>
	<circle style="fill:#FFFFFF;" cx="118.1" cy="121.9" r="2.8"/>
	<circle style="fill:#FFFFFF;" cx="170.6" cy="121.9" r="2.8"/>
	<circle style="fill:#FFFFFF;" cx="170.6" cy="69.5" r="2.8"/>
	<path style="fill:#FFFFFF;" d="M382.6,162.3c0-3.7-3-6.6-6.6-6.6H119c-3.7,0-6.6,3-6.6,6.6c0,3.3,2.4,6.1,5.6,6.5v0.1l2,0l256,0
		C379.6,168.9,382.6,165.9,382.6,162.3z M116.3,162.3c0-1.4,1.2-2.6,2.6-2.6h257c1.4,0,2.6,1.2,2.6,2.6c0,1.4-1.2,2.6-2.6,2.6H119
		C117.5,164.9,116.3,163.7,116.3,162.3z"/>
</g>
</svg>
