<?xml version="1.0" encoding="utf-8"?>
<!-- Generator: Adobe Illustrator 24.0.1, SVG Export Plug-In . SVG Version: 6.00 Build 0)  -->
<svg version="1.1"
	 id="Ebene_1" xmlns:cc="http://creativecommons.org/ns#" xmlns:dc="http://purl.org/dc/elements/1.1/" xmlns:rdf="http://www.w3.org/1999/02/22-rdf-syntax-ns#"
	 xmlns="http://www.w3.org/2000/svg" xmlns:xlink="http://www.w3.org/1999/xlink" x="0px" y="0px" viewBox="0 0 566.9 160"
	 style="enable-background:new 0 0 566.9 160;" xml:space="preserve">
<g id="g3">
	<g id="_x23_ffffffff">
		<path id="path6" style="fill:#FFFFFF;" d="M207,27.3c4.7-6,14.5-7.1,20.3-2c2.4,2,4,4.7,4.9,7.7c10.7,36.9,21.5,73.8,32.2,110.7
			c-6.3,0-12.7,0-19,0c-3-10.2-5.9-20.4-8.9-30.6c-12.2,0-24.5,0-36.7,0c-3,10.2-6,20.4-8.9,30.6c-6.3,0-12.6,0-18.9,0
			c10.2-35.2,20.4-70.4,30.6-105.6C203.9,34.4,204.4,30.3,207,27.3 M218.2,49.9c-4.5,15.3-8.9,30.6-13.4,45.9c8.9,0,17.8,0,26.7,0
			C227.1,80.5,222.6,65.2,218.2,49.9L218.2,49.9z"/>
		<path id="path8" style="fill:#FFFFFF;" d="M340.4,28.1c3.3-4.8,9.7-7.1,15.3-5.6c5.1,1.2,9.1,5.6,10.4,10.6
			c10.7,36.9,21.5,73.8,32.2,110.7c-6.3,0-12.7,0-19,0c-2.9-10.2-5.9-20.4-8.8-30.6c-12.2,0-24.4,0-36.7,0
			c-2.9,10.2-5.9,20.4-8.9,30.6c-6.3,0-12.6,0-18.9,0c10.2-35.4,20.5-70.8,30.8-106.2C337.9,34.3,338.3,30.8,340.4,28.1 M338.9,95.8
			c8.9,0,17.7,0,26.6,0c-4.4-15.3-8.9-30.7-13.3-46C347.7,65.2,343.3,80.5,338.9,95.8z"/>
		<path id="path10" style="fill:#FFFFFF;" d="M250.2,22.3H319v18.5c-8.4,0-16.9,0-25.3,0c0,34.3,0,68.6,0,102.9h-18.1
			c0-34.3,0-68.6,0-102.9c-8.4,0-16.9,0-25.3,0C250.2,34.6,250.2,28.4,250.2,22.3L250.2,22.3z"/>
		<path id="path12" style="fill:#FFFFFF;" d="M418.5,23c1.7-0.6,3.6-0.8,5.4-0.8c7.2,0,14.4,0,21.7,0c12.2,0.2,23.8,7.8,29,18.7
			c3.6,7.1,4,15.4,3.1,23.2c-0.6,8.2-4.1,16.3-10.3,21.7c-3.3,3-7.4,4.7-11,7.4c-1.9,1.5-2,4.4-1,6.4c9.6,14.8,19.6,29.4,29.3,44
			c-7.2,0-14.3,0-21.5,0c-9.4-14.1-18.6-28.2-28-42.3c-2.7-4-3.5-9.3-1.8-13.9c1.3-3.5,4.3-6.1,7.8-7.4c6.5-2.5,13-6.4,16.6-12.6
			c2.7-4.6,2.6-10.3,1.4-15.4c-1.4-6.6-7.9-11.7-14.6-11.5c-4.7,0-9.4,0-14,0c-2.1,0-4.1,1.8-4.1,3.9c0,33,0,66.1,0,99.1
			c-6.1,0-12.2,0-18.3,0c0-35.6,0-71.2,0-106.7C408.1,30.8,412.5,24.9,418.5,23L418.5,23z"/>
		<path id="path14" style="fill:#FFFFFF;" d="M494.3,22.3h19.2c0,40.5,0,81,0,121.5c-6.4,0-12.8,0-19.2,0V22.3L494.3,22.3z"/>
	</g>
	<g id="g16">
		<path id="path18" style="fill:#FFFFFF;" d="M54.2,22c3.1,0,6.2,0,9.2,0c0,7.2,0,14.5,0,21.7c0,6-0.1,12.1-0.4,18.1
			c-0.4,8.7-1,17.4-2.4,26.1c-1,5.9-3,11.7-5.6,17.1c-4.2,8.8-10.7,16.2-18,22.4c-6.6,5.8-14.4,10-22.6,12.8
			c-4.7,1.6-9.5,2.8-14.3,3.5c0-6.1,0-12.1,0-18.2c5.9-0.9,11.5-3,16.8-5.7c6.2-3.3,11.8-7.7,16.6-13c4.9-5.4,8.8-11.6,11.7-18.3
			c3.5-7.6,5.3-15.9,6.6-24.1c1.6-10.5,2.2-21.1,2.5-31.7C54.2,29.2,54.2,25.6,54.2,22L54.2,22z"/>
		<path id="path20" style="fill:#FFFFFF;" d="M67.1,22c5.7,0,11.3,0,17,0c0,40.6,0,81.1,0,121.7c-5.6,0-11.3,0-17,0
			c-0.1-12.9,0-25.9,0-38.8C67.1,77.3,67.1,49.7,67.1,22L67.1,22z"/>
		<path id="path22" style="fill:#FFFFFF;" d="M87.9,22c3.1,0,6.1,0,9.2,0c-0.1,12.4,0.3,24.8,1.8,37.1c1.2,9.5,2.9,19.2,6.7,28.1
			c3.6,8.6,8.8,16.6,15.6,23.1c6.5,6.2,14.3,10.9,22.8,13.6c2.4,0.8,4.8,1.4,7.3,1.7c0,6.1,0,12.1,0,18.2c-4.9-0.7-9.6-1.9-14.2-3.5
			c-5.5-1.9-10.8-4.4-15.7-7.6c-3.6-2.3-6.8-5.1-10-7.9c-5.1-4.7-9.8-10.1-13.2-16.3c-2.7-4.8-4.7-9.9-6.2-15.1
			c-1.4-5.3-2-10.7-2.6-16.1c-1.1-11.7-1.5-23.5-1.4-35.2C87.9,35.3,87.9,28.7,87.9,22L87.9,22z"/>
		<path id="path24" style="fill:#FFFFFF;" d="M54.2,22c0,3.6,0,7.2,0,10.8c-0.2,10.6-0.9,21.2-2.5,31.7c-1.3,8.2-3.1,16.5-6.6,24.1
			c-2.9,6.6-6.8,12.9-11.7,18.3c-4.7,5.2-10.3,9.7-16.6,13c-5.3,2.8-10.9,4.8-16.8,5.7c0,6.1,0,12.1,0,18.2
			c4.9-0.7,9.7-1.9,14.3-3.5c8.2-2.8,16.1-7.1,22.6-12.8c7.3-6.2,13.9-13.6,18-22.4c2.5-5.4,4.6-11.2,5.6-17.1
			c1.4-8.6,2-17.3,2.4-26.1c0.2-6,0.4-12.1,0.4-18.1c0-7.2,0-14.5,0-21.7C60.3,22,57.3,22,54.2,22"/>
		<path id="path26" style="fill:#FFFFFF;" d="M67.1,22c0,27.6,0,55.3,0,82.9c0,12.9,0,25.9,0,38.8c5.6-0.1,11.3,0,17,0
			c0-40.6,0-81.1,0-121.7C78.4,22,72.8,22,67.1,22"/>
		<path id="path28" style="fill:#FFFFFF;" d="M87.9,22c0,6.6,0,13.3,0,19.9c-0.1,11.8,0.3,23.5,1.4,35.2c0.5,5.4,1.2,10.9,2.6,16.1
			c1.5,5.2,3.5,10.4,6.2,15.1c3.5,6.1,8.1,11.5,13.2,16.3c3.1,2.9,6.4,5.6,10,7.9c4.9,3.2,10.2,5.7,15.7,7.6
			c4.6,1.6,9.4,2.8,14.2,3.5c0-6.1,0-12.1,0-18.2c-2.5-0.4-4.9-1-7.3-1.7c-8.5-2.7-16.3-7.5-22.8-13.6c-6.8-6.4-12-14.4-15.6-23.1
			c-3.8-8.9-5.5-18.5-6.7-28.1C97.4,46.8,97,34.4,97.1,22C94,22,90.9,22,87.9,22"/>
	</g>
	<path id="path30" style="fill:#FFFFFF;" d="M562.2,121.3h4v22.4l-18.7-15.2c-1.8-1.4-3.9-3.1-6.2-3.1c-3.6,0-6.6,3.2-6.6,6.8
		c0,3.6,2.9,6.5,6.4,6.7v4.3c-6.2-0.7-10.3-4.7-10.3-11c0-5.9,4.4-11,10.4-11c2.6,0,5.2,1,7.1,2.6l14,11.4L562.2,121.3L562.2,121.3z
		"/>
	<path id="path32" style="fill:#FFFFFF;" d="M532.8,101.4l12.5,9.3l0.1-0.1c-0.5-1-0.8-2.2-0.8-3.4c0-5.7,5.3-10,10.9-10
		c6.4,0,11.4,5.2,11.4,11.5c0,6-5,11.6-11.1,11.6c-3.5,0-6.5-1.8-9.2-3.8l-15.9-11.8L532.8,101.4L532.8,101.4z M555.9,101.3
		c-4.3,0-7.5,3.7-7.5,7.4c0,3.8,3.5,7.4,7.2,7.4c4,0,7.3-3.4,7.3-7.4C563,104.8,559.8,101.3,555.9,101.3L555.9,101.3z"/>
	<path id="path34" style="fill:#FFFFFF;" d="M530.7,78.3c0,10,8.2,18.1,18.2,18.1c10,0,18-8.1,18-18.1c0-10.2-8-18.3-18.1-18.3
		C538.6,60,530.7,68,530.7,78.3L530.7,78.3z M548.9,64.3c7.9,0,14,6.2,14,14.2c0,7.5-6.3,13.6-14,13.6c-7.8,0-14.1-6.1-14.1-13.6
		C534.7,70.4,540.8,64.3,548.9,64.3L548.9,64.3z"/>
	<path id="path36" style="fill:#FFFFFF;" d="M530.7,40.3c0,10,8.2,18.1,18.2,18.1c10,0,18-8.1,18-18.1c0-10.2-8-18.3-18.1-18.3
		C538.6,22,530.7,30.1,530.7,40.3L530.7,40.3z M548.9,26.3c7.9,0,14,6.2,14,14.2c0,7.5-6.3,13.6-14,13.6c-7.8,0-14.1-6.1-14.1-13.6
		C534.7,32.4,540.8,26.3,548.9,26.3L548.9,26.3z"/>
</g>
</svg>
