<?xml version="1.0" encoding="utf-8"?>
<!-- Generator: Adobe Illustrator 24.0.1, SVG Export Plug-In . SVG Version: 6.00 Build 0)  -->
<svg version="1.1"
	 id="Ebene_1" xmlns:cc="http://creativecommons.org/ns#" xmlns:dc="http://purl.org/dc/elements/1.1/" xmlns:rdf="http://www.w3.org/1999/02/22-rdf-syntax-ns#"
	 xmlns="http://www.w3.org/2000/svg" xmlns:xlink="http://www.w3.org/1999/xlink" x="0px" y="0px" viewBox="0 0 566.9 118.5"
	 style="enable-background:new 0 0 566.9 118.5;" xml:space="preserve">
<g id="g3">
	<path id="path5" style="fill:#FFFFFF;" d="M122.9,23.1c2.8-3.6,8.6-4.2,12-1.2c1.4,1.2,2.4,2.8,2.9,4.6
		c6.4,21.9,12.8,43.8,19.1,65.7c-3.8,0-7.5,0-11.3,0c-1.8-6-3.5-12.1-5.3-18.1c-7.3,0-14.5,0-21.8,0c-1.8,6-3.5,12.1-5.3,18.2
		c-3.7,0-7.5,0-11.2,0c6.1-20.9,12.1-41.8,18.2-62.7C121,27.4,121.3,24.9,122.9,23.1 M129.5,36.6c-2.7,9.1-5.3,18.2-7.9,27.3
		c5.3,0,10.6,0,15.8,0C134.8,54.7,132.2,45.7,129.5,36.6L129.5,36.6z"/>
	<path id="path7" style="fill:#FFFFFF;" d="M202.1,23.6c2-2.8,5.7-4.2,9.1-3.3c3.1,0.7,5.4,3.3,6.2,6.3
		c6.4,21.9,12.7,43.8,19.1,65.7c-3.8,0-7.5,0-11.3,0c-1.8-6-3.5-12.1-5.2-18.2c-7.3,0-14.5,0-21.8,0c-1.7,6.1-3.5,12.1-5.3,18.1
		c-3.7,0-7.5,0-11.2,0c6-21,12.2-42,18.3-63C200.6,27.3,200.8,25.2,202.1,23.6 M201.2,63.8c5.3,0,10.5,0,15.8,0
		c-2.6-9.1-5.3-18.2-7.9-27.3C206.4,45.6,203.8,54.7,201.2,63.8L201.2,63.8z"/>
	<path id="path9" style="fill:#FFFFFF;" d="M148.5,20.2h40.8v11c-5,0-10,0-15,0c0,20.4,0,40.7,0,61.1h-10.8c0-20.4,0-40.7,0-61.1
		c-5,0-10,0-15,0C148.5,27.5,148.5,23.8,148.5,20.2L148.5,20.2z"/>
	<path id="path11" style="fill:#FFFFFF;" d="M248.4,20.6c1-0.4,2.1-0.5,3.2-0.5c4.3,0,8.6,0,12.9,0c7.2,0.1,14.1,4.6,17.2,11.1
		c2.2,4.2,2.4,9.1,1.8,13.8c-0.4,4.8-2.4,9.7-6.1,12.9c-2,1.8-4.4,2.8-6.5,4.4c-1.2,0.9-1.2,2.6-0.6,3.8
		c5.7,8.8,11.6,17.4,17.4,26.1c-4.2,0-8.5,0-12.7,0c-5.6-8.4-11.1-16.8-16.6-25.1c-1.6-2.4-2.1-5.5-1.1-8.3c0.8-2.1,2.6-3.6,4.6-4.4
		c3.9-1.5,7.7-3.8,9.8-7.5c1.6-2.7,1.5-6.1,0.8-9.1c-0.9-3.9-4.7-7-8.7-6.8c-2.8,0-5.6,0-8.3,0c-1.3,0-2.4,1.1-2.4,2.3
		c0,19.6,0,39.2,0,58.8c-3.6,0-7.2,0-10.8,0c0-21.1,0-42.2,0-63.4C242.3,25.2,244.9,21.7,248.4,20.6L248.4,20.6z"/>
	<path id="path13" style="fill:#FFFFFF;" d="M293.4,20.2h11.4c0,24,0,48.1,0,72.1c-3.8,0-7.6,0-11.4,0
		C293.4,68.2,293.4,44.2,293.4,20.2L293.4,20.2z"/>
	<path id="path15" style="fill:#FFFFFF;" d="M32.2,20c1.8,0,3.7,0,5.5,0c0,4.3,0,8.6,0,12.9c0,3.6-0.1,7.2-0.2,10.7
		C37.2,48.8,36.8,54,36,59.1c-0.6,3.5-1.8,6.9-3.3,10.1c-2.5,5.2-6.3,9.6-10.7,13.3c-3.9,3.4-8.6,5.9-13.4,7.6
		c-2.8,1-5.6,1.7-8.5,2.1c0-3.6,0-7.2,0-10.8c3.5-0.5,6.8-1.8,10-3.4c3.7-2,7-4.6,9.8-7.7c2.9-3.2,5.2-6.9,7-10.8
		c2.1-4.5,3.2-9.4,3.9-14.3c0.9-6.2,1.3-12.5,1.5-18.8C32.2,24.3,32.1,22.1,32.2,20z"/>
	<path id="path17" style="fill:#FFFFFF;" d="M39.8,20c3.4,0,6.7,0,10.1,0c0,24.1,0,48.2,0,72.3c-3.4,0-6.7,0-10.1,0
		c0-7.7,0-15.4,0-23C39.8,52.8,39.8,36.4,39.8,20z"/>
	<path id="path19" style="fill:#FFFFFF;" d="M52.2,20c1.8,0,3.6,0,5.4,0c-0.1,7.3,0.2,14.7,1.1,22c0.7,5.7,1.7,11.4,4,16.7
		c2.1,5.1,5.2,9.9,9.2,13.7c3.8,3.7,8.5,6.5,13.5,8.1c1.4,0.5,2.9,0.8,4.3,1c0,3.6,0,7.2,0,10.8c-2.9-0.4-5.7-1.1-8.5-2.1
		C78,89,74.9,87.6,72,85.7c-2.1-1.4-4.1-3-5.9-4.7c-3.1-2.8-5.8-6-7.8-9.6c-1.6-2.8-2.8-5.9-3.7-9c-0.8-3.1-1.2-6.4-1.5-9.6
		c-0.6-7-0.9-13.9-0.8-20.9C52.2,27.9,52.2,23.9,52.2,20z"/>
	<path id="path21" style="fill:#FFFFFF;" d="M32.2,20c0,2.1,0,4.3,0,6.4C32,32.7,31.6,39,30.7,45.2c-0.8,4.9-1.9,9.8-3.9,14.3
		c-1.8,3.9-4.1,7.6-7,10.8c-2.8,3.1-6.1,5.7-9.8,7.7c-3.1,1.6-6.5,2.9-10,3.4c0,3.6,0,7.2,0,10.8c2.9-0.4,5.8-1.1,8.5-2.1
		c4.9-1.7,9.5-4.2,13.4-7.6c4.4-3.7,8.2-8.1,10.7-13.3c1.5-3.2,2.7-6.6,3.3-10.1c0.9-5.1,1.2-10.3,1.4-15.5
		c0.1-3.6,0.3-7.2,0.2-10.7c0-4.3,0-8.6,0-12.9C35.8,20,34,20,32.2,20"/>
	<path id="path23" style="fill:#FFFFFF;" d="M39.8,20c0,16.4,0,32.8,0,49.2c0,7.7,0,15.4,0,23c3.4,0,6.7,0,10.1,0
		c0-24.1,0-48.2,0-72.3C46.6,20,43.2,20,39.8,20"/>
	<path id="path25" style="fill:#FFFFFF;" d="M52.2,20c0,3.9,0,7.9,0,11.8c0,7,0.2,14,0.8,20.9c0.3,3.2,0.7,6.4,1.5,9.6
		c0.9,3.1,2.1,6.2,3.7,9c2.1,3.6,4.8,6.8,7.8,9.6c1.9,1.7,3.8,3.3,5.9,4.7c2.9,1.9,6.1,3.4,9.3,4.5c2.7,0.9,5.6,1.7,8.5,2.1
		c0-3.6,0-7.2,0-10.8c-1.5-0.2-2.9-0.6-4.3-1c-5.1-1.6-9.7-4.4-13.5-8.1c-4-3.8-7.1-8.6-9.2-13.7c-2.3-5.3-3.3-11-4-16.7
		c-0.9-7.3-1.1-14.7-1.1-22C55.8,20,54,20,52.2,20"/>
	<path id="path27" style="fill:#FFFFFF;" d="M437.9,54.5c5.3-3.1,8.6-8.4,8.6-14.2c0-13.8-14.6-20.1-28.1-20.1
		c-13.6,0-28.1,6.3-28.1,20.1c0,5.9,3.3,11.1,8.6,14.2C391.2,58,387,63.9,387,71.3c0,13.9,15.7,21.2,31.3,21.2s31.3-7.3,31.3-21.2
		C449.6,63.9,445.4,58,437.9,54.5L437.9,54.5z M418.3,45.7c-3.5,0-6.3-2.2-6.3-5s2.8-5,6.3-5c3.5,0,6.3,2.2,6.3,5
		S421.8,45.7,418.3,45.7L418.3,45.7z M418.3,63.5c3.8,0,7,2.6,7,5.7c0,3.1-3.1,5.6-7,5.6c-3.9,0-7-2.5-7-5.6
		C411.3,66,414.5,63.5,418.3,63.5L418.3,63.5z"/>
	<path id="path29" style="fill:#FFFFFF;" d="M498.2,31.9c-5.8-7.7-14.3-11.8-24.5-11.8c-10.3,0-18.8,4.1-24.5,11.8
		c-4.9,6.5-7.5,15.2-7.5,24.5c0,18.1,9.9,36.3,32.1,36.3s32.1-18.2,32.1-36.3C505.8,47.1,503.1,38.4,498.2,31.9L498.2,31.9z
		 M473.7,71.2c-7.7,0-8.6-10-8.6-14.9c0-4.8,0.8-14.7,8.6-14.7c7.7,0,8.6,9.9,8.6,14.7C482.3,61.2,481.4,71.2,473.7,71.2L473.7,71.2
		z"/>
	<path id="path31" style="fill:#FFFFFF;" d="M559.4,31.9c-5.8-7.7-14.3-11.8-24.5-11.8s-18.8,4.1-24.5,11.8
		c-4.9,6.5-7.5,15.2-7.5,24.5c0,18.1,9.9,36.3,32.1,36.3s32.1-18.2,32.1-36.3C566.9,47.1,564.3,38.4,559.4,31.9L559.4,31.9z
		 M534.9,71.2c-7.7,0-8.6-10-8.6-14.9c0-4.8,0.8-14.7,8.6-14.7s8.6,9.9,8.6,14.7C543.4,61.2,542.6,71.2,534.9,71.2L534.9,71.2z"/>
	<polygon id="polygon33" style="fill:#FFFFFF;" points="336.5,21.2 336.5,43.2 366.7,43.2 344.2,92.4 369.6,92.4 399.9,21.2 	"/>
</g>
</svg>
