<?xml version="1.0" encoding="utf-8"?>
<!-- Generator: Adobe Illustrator 24.0.1, SVG Export Plug-In . SVG Version: 6.00 Build 0)  -->
<svg version="1.1"
	 id="Layer_3" xmlns:cc="http://creativecommons.org/ns#" xmlns:dc="http://purl.org/dc/elements/1.1/" xmlns:rdf="http://www.w3.org/1999/02/22-rdf-syntax-ns#" xmlns:svg="http://www.w3.org/2000/svg"
	 xmlns="http://www.w3.org/2000/svg" xmlns:xlink="http://www.w3.org/1999/xlink" x="0px" y="0px" viewBox="0 0 593.8 308"
	 style="enable-background:new 0 0 593.8 308;" xml:space="preserve">
<g>
	<path style="fill:#FFFFFF;" d="M523.1,95.5V11h-9.9V-0.8h-1.6V-1h-4v12H86.8V-1h-4v0.2h-1.4V11H70.7v84.5l-72,51.5l2.3,3.3
		l72.4-51.7h8V142c0,3.1,2.5,5.6,5.6,5.6h158.5v16.9H43.1v58.8h7.3v55.4h72.1v28.6h263.9v-28.6h87.1v-55.4h7.3v-58.8H344v-16.9
		h163.6c3.1,0,5.6-2.5,5.6-5.6V98.5h7.3l72.3,51.7l2.4-3.2L523.1,95.5z M379.3,298.8c0,0.9-0.7,1.6-1.6,1.6H131
		c-0.9,0-1.6-0.7-1.6-1.6v-16.4c0-0.9,0.7-1.6,1.6-1.6h246.7c0.9,0,1.6,0.7,1.6,1.6V298.8z M126.5,302.1c0.3,0.4,0.7,0.8,1.1,1.1
		h-1.1V302.1z M382.3,301.9v1.4H381C381.6,302.9,382,302.4,382.3,301.9z M382.3,279.4c-1-1.5-2.7-2.6-4.7-2.6H131
		c-1.8,0-3.5,0.9-4.5,2.3v-3.3h2.8c3.1,0,5.6-2.5,5.6-5.6v-16.4c0-2.4-1.6-4.5-3.8-5.3h8.8c-2.2,0.8-3.8,2.8-3.8,5.3v16.4
		c0,3.1,2.5,5.6,5.6,5.6h16.4c3.1,0,5.6-2.5,5.6-5.6v-16.4c0-2.4-1.6-4.5-3.8-5.3h8.9c-2.2,0.8-3.8,2.8-3.8,5.3v16.4
		c0,3.1,2.5,5.6,5.6,5.6H187c3.1,0,5.6-2.5,5.6-5.6v-16.4c0-2.4-1.6-4.5-3.8-5.3h8.8c-2.2,0.8-3.8,2.8-3.8,5.3v16.4
		c0,3.1,2.5,5.6,5.6,5.6h16.4c3.1,0,5.6-2.5,5.6-5.6v-16.4c0-2.4-1.6-4.5-3.8-5.3h8.9c-2.2,0.8-3.8,2.8-3.8,5.3v16.4
		c0,3.1,2.5,5.6,5.6,5.6h16.4c3.1,0,5.6-2.5,5.6-5.6v-16.4c0-2.4-1.6-4.5-3.8-5.3h8.9c-2.2,0.8-3.8,2.8-3.8,5.3v16.4
		c0,3.1,2.5,5.6,5.6,5.6h16.4c3.1,0,5.6-2.5,5.6-5.6v-16.4c0-2.4-1.6-4.5-3.8-5.3h8.8c-2.2,0.8-3.8,2.8-3.8,5.3v16.4
		c0,3.1,2.5,5.6,5.6,5.6h16.4c3.1,0,5.6-2.5,5.6-5.6v-16.4c0-2.4-1.6-4.5-3.8-5.3h8.9c-2.2,0.8-3.8,2.8-3.8,5.3v16.4
		c0,3.1,2.5,5.6,5.6,5.6h16.4c3.1,0,5.6-2.5,5.6-5.6v-16.4c0-2.4-1.6-4.5-3.8-5.3h8.8c-2.2,0.8-3.8,2.8-3.8,5.3v16.4
		c0,3.1,2.5,5.6,5.6,5.6h16.4c3.1,0,5.6-2.5,5.6-5.6v-16.4c0-2.4-1.6-4.5-3.8-5.3h8.9c-2.2,0.8-3.8,2.8-3.8,5.3v16.4
		c0,3.1,2.5,5.6,5.6,5.6h9.5V279.4z M473.5,189.3c0,0.9-0.7,1.6-1.6,1.6h-16.4c-0.9,0-1.6-0.7-1.6-1.6V173c0-0.9,0.7-1.6,1.6-1.6
		h16.4c0.9,0,1.6,0.7,1.6,1.6V189.3z M437.9,199.3c0-0.9,0.7-1.6,1.6-1.6h32.8c0.9,0,1.6,0.7,1.6,1.6v16.4c0,0.9-0.7,1.6-1.6,1.6
		h-32.8c-0.9,0-1.6-0.7-1.6-1.6V199.3z M444.6,189.3c0,0.9-0.7,1.6-1.6,1.6h-16.4c-0.9,0-1.6-0.7-1.6-1.6V173c0-0.9,0.7-1.6,1.6-1.6
		H443c0.9,0,1.6,0.7,1.6,1.6V189.3z M465.8,243c0,0.9-0.7,1.6-1.6,1.6h-16.4c-0.9,0-1.6-0.7-1.6-1.6v-16.4c0-0.9,0.7-1.6,1.6-1.6
		h16.4c0.9,0,1.6,0.7,1.6,1.6V243z M466.6,270.2c0,0.9-0.7,1.6-1.6,1.6h-34.3c-0.9,0-1.6-0.7-1.6-1.6v-16.4c0-0.9,0.7-1.6,1.6-1.6
		H465c0.9,0,1.6,0.7,1.6,1.6V270.2z M389.3,271.8h-16.4c-0.9,0-1.6-0.7-1.6-1.6v-16.4c0-0.9,0.7-1.6,1.6-1.6h16.4
		c0.9,0,1.6,0.7,1.6,1.6v16.4C390.8,271.1,390.1,271.8,389.3,271.8z M130.8,270.2c0,0.9-0.7,1.6-1.6,1.6h-16.4
		c-0.9,0-1.6-0.7-1.6-1.6v-16.4c0-0.9,0.7-1.6,1.6-1.6h16.4c0.9,0,1.6,0.7,1.6,1.6V270.2z M88.7,43V17.2h0.9V43H88.7z M330.7,226.6
		c0-0.9,0.7-1.6,1.6-1.6h16.4c0.9,0,1.6,0.7,1.6,1.6V243c0,0.9-0.7,1.6-1.6,1.6h-16.4c-0.9,0-1.6-0.7-1.6-1.6V226.6z M301.8,226.6
		c0-0.9,0.7-1.6,1.6-1.6h16.4c0.9,0,1.6,0.7,1.6,1.6V243c0,0.9-0.7,1.6-1.6,1.6h-16.4c-0.9,0-1.6-0.7-1.6-1.6V226.6z M272.9,226.6
		c0-0.9,0.7-1.6,1.6-1.6h16.4c0.9,0,1.6,0.7,1.6,1.6V243c0,0.9-0.7,1.6-1.6,1.6h-16.4c-0.9,0-1.6-0.7-1.6-1.6V226.6z M343,135.6
		c-0.6-1.7-1.4-3.2-2.2-4.4l-0.6-0.8l-3.2,2.4l0.6,0.8c0.6,0.8,1.2,2.1,1.7,3.4c0.5,1.3,0.7,2.4,0.7,2.7v2.7h-87.6v-2.7
		c0-0.2,0.2-1.4,0.7-2.7c0.5-1.3,1.1-2.6,1.7-3.3l0.6-0.8l-1.4-1h39.7c1.6,0,2.9-1.3,2.9-2.9V104c0-1.6-1.3-2.9-2.9-2.9H125.3
		c-1.6,0-2.9,1.3-2.9,2.9v0.1c-0.5-0.4-1.1-0.7-1.8-0.7H95.2c-1.6,0-2.9,1.3-2.9,2.9V128c0,1.6,1.3,2.9,2.9,2.9h25.3
		c0.8,0,1.5-0.3,2.1-0.9c0.4,1,1.5,1.8,2.7,1.8H251c-0.8,1.3-1.4,2.7-1.8,3.8c-0.6,1.7-0.9,3-0.9,4v2.4H87.4c-0.3,0-0.5,0-0.6-0.1
		c0-0.1,0-0.2,0-0.3V98.5h420.8v43.2c0,0.1,0,0.2,0,0.3c-0.1,0-0.4,0.1-0.7,0.1h-163v-2.4C343.9,138.6,343.7,137.4,343,135.6z
		 M96.3,126.9v-19.4h23.2v19.4H96.3z M126.4,127.8v-22.7h166v22.7H126.4z M251.5,149.3h1.9v-3h82.9v3h1.2v15.1h-86.1V149.3z
		 M334.3,173v16.4c0,1.8,0.8,3.3,2.1,4.4h-5.6c1.3-1,2.1-2.6,2.1-4.4V173c0-1.9-1-3.6-2.4-4.6h6.1
		C335.3,169.4,334.3,171.1,334.3,173z M341.9,215.7c0,0.9-0.7,1.6-1.6,1.6h-16.4c-0.9,0-1.6-0.7-1.6-1.6v-16.4
		c0-0.9,0.7-1.6,1.6-1.6h16.4c0.9,0,1.6,0.7,1.6,1.6V215.7z M313,215.7c0,0.9-0.7,1.6-1.6,1.6H295c-0.9,0-1.6-0.7-1.6-1.6v-16.4
		c0-0.9,0.7-1.6,1.6-1.6h16.4c0.9,0,1.6,0.7,1.6,1.6V215.7z M302,193.7c1.3-1,2.1-2.6,2.1-4.4V173c0-1.9-1-3.6-2.4-4.6h6.2
		c-1.5,1-2.4,2.7-2.4,4.6v16.4c0,1.8,0.8,3.3,2.1,4.4H302z M284.1,215.7c0,0.9-0.7,1.6-1.6,1.6h-16.4c-0.9,0-1.6-0.7-1.6-1.6v-16.4
		c0-0.9,0.7-1.6,1.6-1.6h16.4c0.9,0,1.6,0.7,1.6,1.6V215.7z M273.1,193.7c1.3-1,2.1-2.6,2.1-4.4V173c0-1.9-1-3.6-2.4-4.6h6.1
		c-1.5,1-2.4,2.7-2.4,4.6v16.4c0,1.8,0.8,3.3,2.1,4.4H273.1z M271.2,173v16.4c0,0.9-0.7,1.6-1.6,1.6h-16.4c-0.9,0-1.6-0.7-1.6-1.6
		V173c0-0.9,0.7-1.6,1.6-1.6h16.4C270.5,171.4,271.2,172.1,271.2,173z M309.4,173c0-0.9,0.7-1.6,1.6-1.6h16.4c0.9,0,1.6,0.7,1.6,1.6
		v16.4c0,0.9-0.7,1.6-1.6,1.6H311c-0.9,0-1.6-0.7-1.6-1.6V173z M280.5,173c0-0.9,0.7-1.6,1.6-1.6h16.4c0.9,0,1.6,0.7,1.6,1.6v16.4
		c0,0.9-0.7,1.6-1.6,1.6h-16.4c-0.9,0-1.6-0.7-1.6-1.6V173z M357.9,189.3c0,0.9-0.7,1.6-1.6,1.6h-16.3c-0.9,0-1.6-0.7-1.6-1.6V173
		c0-0.9,0.7-1.6,1.6-1.6h16.3c0.9,0,1.6,0.7,1.6,1.6V189.3z M244,226.6c0-0.9,0.7-1.6,1.6-1.6H262c0.9,0,1.6,0.7,1.6,1.6V243
		c0,0.9-0.7,1.6-1.6,1.6h-16.4c-0.9,0-1.6-0.7-1.6-1.6V226.6z M255.2,215.7c0,0.9-0.7,1.6-1.6,1.6h-16.4c-0.9,0-1.6-0.7-1.6-1.6
		v-16.4c0-0.9,0.7-1.6,1.6-1.6h16.4c0.9,0,1.6,0.7,1.6,1.6V215.7z M242.3,189.3c0,0.9-0.7,1.6-1.6,1.6h-16.4c-0.9,0-1.6-0.7-1.6-1.6
		V173c0-0.9,0.7-1.6,1.6-1.6h16.4c0.9,0,1.6,0.7,1.6,1.6V189.3z M215.1,226.6c0-0.9,0.7-1.6,1.6-1.6h16.4c0.9,0,1.6,0.7,1.6,1.6V243
		c0,0.9-0.7,1.6-1.6,1.6h-16.4c-0.9,0-1.6-0.7-1.6-1.6V226.6z M226.3,215.7c0,0.9-0.7,1.6-1.6,1.6h-16.4c-0.9,0-1.6-0.7-1.6-1.6
		v-16.4c0-0.9,0.7-1.6,1.6-1.6h16.4c0.9,0,1.6,0.7,1.6,1.6V215.7z M213.4,189.3c0,0.9-0.7,1.6-1.6,1.6h-16.4c-0.9,0-1.6-0.7-1.6-1.6
		V173c0-0.9,0.7-1.6,1.6-1.6h16.4c0.9,0,1.6,0.7,1.6,1.6V189.3z M186.3,226.6c0-0.9,0.7-1.6,1.6-1.6h16.4c0.9,0,1.6,0.7,1.6,1.6V243
		c0,0.9-0.7,1.6-1.6,1.6h-16.4c-0.9,0-1.6-0.7-1.6-1.6V226.6z M197.4,215.7c0,0.9-0.7,1.6-1.6,1.6h-16.4c-0.9,0-1.6-0.7-1.6-1.6
		v-16.4c0-0.9,0.7-1.6,1.6-1.6h16.4c0.9,0,1.6,0.7,1.6,1.6V215.7z M184.5,189.3c0,0.9-0.7,1.6-1.6,1.6h-16.4c-0.9,0-1.6-0.7-1.6-1.6
		V173c0-0.9,0.7-1.6,1.6-1.6h16.4c0.9,0,1.6,0.7,1.6,1.6V189.3z M157.3,226.6c0-0.9,0.7-1.6,1.6-1.6h16.4c0.9,0,1.6,0.7,1.6,1.6V243
		c0,0.9-0.7,1.6-1.6,1.6h-16.4c-0.9,0-1.6-0.7-1.6-1.6V226.6z M168.5,215.7c0,0.9-0.7,1.6-1.6,1.6h-16.4c-0.9,0-1.6-0.7-1.6-1.6
		v-16.4c0-0.9,0.7-1.6,1.6-1.6h16.4c0.9,0,1.6,0.7,1.6,1.6V215.7z M155.7,189.3c0,0.9-0.7,1.6-1.6,1.6h-16.4c-0.9,0-1.6-0.7-1.6-1.6
		V173c0-0.9,0.7-1.6,1.6-1.6h16.4c0.9,0,1.6,0.7,1.6,1.6V189.3z M128.5,226.6c0-0.9,0.7-1.6,1.6-1.6h16.4c0.9,0,1.6,0.7,1.6,1.6V243
		c0,0.9-0.7,1.6-1.6,1.6h-16.4c-0.9,0-1.6-0.7-1.6-1.6V226.6z M139.6,215.7c0,0.9-0.7,1.6-1.6,1.6h-16.4c-0.9,0-1.6-0.7-1.6-1.6
		v-16.4c0-0.9,0.7-1.6,1.6-1.6H138c0.9,0,1.6,0.7,1.6,1.6V215.7z M126.8,189.3c0,0.9-0.7,1.6-1.6,1.6h-16.4c-0.9,0-1.6-0.7-1.6-1.6
		V173c0-0.9,0.7-1.6,1.6-1.6h16.4c0.9,0,1.6,0.7,1.6,1.6V189.3z M100.3,252.3c0.9,0,1.6,0.7,1.6,1.6v16.4c0,0.9-0.7,1.6-1.6,1.6
		H58.5c-0.9,0-1.6-0.7-1.6-1.6v-16.4c0-0.9,0.7-1.6,1.6-1.6H100.3z M90.2,226.6V243c0,0.9-0.7,1.6-1.6,1.6H58.2
		c-0.9,0-1.6-0.7-1.6-1.6v-16.4c0-0.9,0.7-1.6,1.6-1.6h30.4C89.5,225,90.2,225.7,90.2,226.6z M93.8,245h0.4v-18.4
		c0-3.1-2.5-5.6-5.6-5.6H82c2.2-0.7,3.9-2.8,3.9-5.3v-16.4c0-1.8-0.8-3.3-2.1-4.4h5.6c-1.3,1-2.1,2.6-2.1,4.4v16.4
		c0,3.1,2.5,5.6,5.6,5.6h6.6c-2.2,0.7-3.9,2.8-3.9,5.3V243c0,2.4,1.6,4.5,3.8,5.3h-8.9C91.9,247.7,93.2,246.5,93.8,245z M49.4,199.3
		c0-0.9,0.7-1.6,1.6-1.6h29.3c0.9,0,1.6,0.7,1.6,1.6v16.4c0,0.9-0.7,1.6-1.6,1.6H51c-0.9,0-1.6-0.7-1.6-1.6V199.3z M97.8,189.3
		c0,0.9-0.7,1.6-1.6,1.6H79.9c-0.9,0-1.6-0.7-1.6-1.6V173c0-0.9,0.7-1.6,1.6-1.6h16.4c0.9,0,1.6,0.7,1.6,1.6L97.8,189.3z
		 M91.2,215.7v-16.4c0-0.9,0.7-1.6,1.6-1.6h16.4c0.9,0,1.6,0.7,1.6,1.6v16.4c0,0.9-0.7,1.6-1.6,1.6H92.8
		C91.9,217.3,91.2,216.6,91.2,215.7z M119.1,243c0,0.9-0.7,1.6-1.6,1.6h-16.4c-0.9,0-1.6-0.7-1.6-1.6v-16.4c0-0.9,0.7-1.6,1.6-1.6
		h16.4c0.9,0,1.6,0.7,1.6,1.6V243z M69,189.3c0,0.9-0.7,1.6-1.6,1.6H51c-0.9,0-1.6-0.7-1.6-1.6V173c0-0.9,0.7-1.6,1.6-1.6h16.4
		c0.9,0,1.6,0.7,1.6,1.6V189.3z M48.5,194.3c-0.5,0.3-1,0.6-1.4,1v-2C47.5,193.7,48,194.1,48.5,194.3z M123.1,243v-16.4
		c0-3.1-2.5-5.6-5.6-5.6h-6.7c1.5-0.5,2.8-1.7,3.4-3.3h0.5v-18.4c0-1.8-0.8-3.3-2.1-4.4h5.5c-1.3,1-2.1,2.6-2.1,4.4v16.4
		c0,3.1,2.5,5.6,5.6,5.6h6.7c-2.2,0.7-3.9,2.8-3.9,5.3V243c0,2.4,1.6,4.5,3.8,5.3h-8.9C121.5,247.5,123.1,245.4,123.1,243z M152,243
		v-16.4c0-3.1-2.5-5.6-5.6-5.6h-6.7c2.2-0.7,3.9-2.8,3.9-5.3v-16.4c0-1.8-0.8-3.3-2.1-4.4h5.6c-1.3,1-2.1,2.6-2.1,4.4v16.4
		c0,3.1,2.5,5.6,5.6,5.6h6.6c-2.2,0.7-3.9,2.8-3.9,5.3V243c0,2.4,1.6,4.5,3.8,5.3h-8.8C150.5,247.5,152,245.4,152,243z M180.9,243
		v-16.4c0-3.1-2.5-5.6-5.6-5.6h-6.6c2.2-0.7,3.9-2.8,3.9-5.3v-16.4c0-1.8-0.8-3.3-2.1-4.4h5.5c-1.3,1-2.1,2.6-2.1,4.4v16.4
		c0,3.1,2.5,5.6,5.6,5.6h6.7c-2.2,0.7-3.9,2.8-3.9,5.3V243c0,2.4,1.6,4.5,3.8,5.3h-8.9C179.3,247.5,180.9,245.4,180.9,243z
		 M209.8,243v-16.4c0-3.1-2.5-5.6-5.6-5.6h-6.7c2.2-0.7,3.9-2.8,3.9-5.3v-16.4c0-1.8-0.8-3.3-2.1-4.4h5.6c-1.3,1-2.1,2.6-2.1,4.4
		v16.4c0,3.1,2.5,5.6,5.6,5.6h6.6c-2.2,0.7-3.9,2.8-3.9,5.3V243c0,2.4,1.6,4.5,3.8,5.3H206C208.2,247.5,209.8,245.4,209.8,243z
		 M238.7,243v-16.4c0-3.1-2.5-5.6-5.6-5.6h-6.6c2.2-0.7,3.9-2.8,3.9-5.3v-16.4c0-1.8-0.8-3.3-2.1-4.4h5.5c-1.3,1-2.1,2.6-2.1,4.4
		v16.4c0,3.1,2.5,5.6,5.6,5.6h6.7c-2.2,0.7-3.9,2.8-3.9,5.3V243c0,2.4,1.6,4.5,3.8,5.3h-8.9C237.1,247.5,238.7,245.4,238.7,243z
		 M267.6,243v-16.4c0-3.1-2.5-5.6-5.6-5.6h-6.7c2.2-0.7,3.9-2.8,3.9-5.3v-16.4c0-1.8-0.8-3.3-2.1-4.4h5.6c-1.3,1-2.1,2.6-2.1,4.4
		v16.4c0,3.1,2.5,5.6,5.6,5.6h6.6c-2.2,0.7-3.9,2.8-3.9,5.3V243c0,2.4,1.6,4.5,3.8,5.3h-8.8C266,247.5,267.6,245.4,267.6,243z
		 M296.5,243v-16.4c0-3.1-2.5-5.6-5.6-5.6h-6.6c2.2-0.7,3.9-2.8,3.9-5.3v-16.4c0-1.8-0.8-3.3-2.1-4.4h5.5c-1.3,1-2.1,2.6-2.1,4.4
		v16.4c0,3.1,2.5,5.6,5.6,5.6h6.7c-2.2,0.7-3.9,2.8-3.9,5.3V243c0,2.4,1.6,4.5,3.8,5.3h-8.9C294.9,247.5,296.5,245.4,296.5,243z
		 M325.4,243v-16.4c0-3.1-2.5-5.6-5.6-5.6h-6.7c2.2-0.7,3.9-2.8,3.9-5.3v-16.4c0-1.8-0.8-3.3-2.1-4.4h5.6c-1.3,1-2.1,2.6-2.1,4.4
		v16.4c0,3.1,2.5,5.6,5.6,5.6h6.6c-2.2,0.7-3.9,2.8-3.9,5.3V243c0,2.4,1.6,4.5,3.8,5.3h-8.8C323.8,247.5,325.4,245.4,325.4,243z
		 M354.3,243v-16.4c0-3.1-2.5-5.6-5.6-5.6H342c2.2-0.7,3.9-2.8,3.9-5.3v-16.4c0-1.8-0.8-3.3-2.1-4.4h5.6c-1.3,1-2.1,2.6-2.1,4.4
		v16.4c0,3.1,2.5,5.6,5.6,5.6h6.6c-2.2,0.7-3.9,2.8-3.9,5.3V243c0,2.4,1.6,4.5,3.8,5.3h-8.9C352.7,247.5,354.3,245.4,354.3,243z
		 M359.6,226.6c0-0.9,0.7-1.6,1.6-1.6h16.4c0.9,0,1.6,0.7,1.6,1.6V243c0,0.9-0.7,1.6-1.6,1.6h-16.4c-0.9,0-1.6-0.7-1.6-1.6V226.6z
		 M370.8,199.3v16.4c0,0.9-0.7,1.6-1.6,1.6h-16.4c-0.9,0-1.6-0.7-1.6-1.6v-16.4c0-0.9,0.7-1.6,1.6-1.6h16.4
		C370.1,197.7,370.8,198.4,370.8,199.3z M383.2,243v-16.4c0-3.1-2.5-5.6-5.6-5.6h-6.6c2.2-0.7,3.9-2.8,3.9-5.3v-16.4
		c0-1.8-0.8-3.3-2.1-4.4h5.5c-1.3,1-2.1,2.6-2.1,4.4v16.4c0,3.1,2.5,5.6,5.6,5.6h6.7c-2.2,0.7-3.9,2.8-3.9,5.3V243
		c0,2.4,1.6,4.5,3.8,5.3h-8.9C381.6,247.5,383.2,245.4,383.2,243z M386.8,189.3c0,0.9-0.7,1.6-1.6,1.6h-16.4c-0.9,0-1.6-0.7-1.6-1.6
		V173c0-0.9,0.7-1.6,1.6-1.6h16.4c0.9,0,1.6,0.7,1.6,1.6V189.3z M415.7,189.3c0,0.9-0.7,1.6-1.6,1.6h-16.4c-0.9,0-1.6-0.7-1.6-1.6
		V173c0-0.9,0.7-1.6,1.6-1.6h16.4c0.9,0,1.6,0.7,1.6,1.6V189.3z M407.1,194.9c-1.3,1-2.1,2.6-2.1,4.4v16.4c0,3.1,2.5,5.6,5.6,5.6
		h6.6c-2.2,0.7-3.9,2.8-3.9,5.3V243c0,2.4,1.6,4.5,3.8,5.3h-8.9c2.2-0.8,3.8-2.8,3.8-5.3v-16.4c0-3.1-2.5-5.6-5.6-5.6h-6.6
		c2.2-0.7,3.9-2.8,3.9-5.3v-16.4c0-1.8-0.8-3.3-2.1-4.4H407.1z M428.6,215.7c0,0.9-0.7,1.6-1.6,1.6h-16.4c-0.9,0-1.6-0.7-1.6-1.6
		v-16.4c0-0.9,0.7-1.6,1.6-1.6H427c0.9,0,1.6,0.7,1.6,1.6V215.7z M436.9,243c0,0.9-0.7,1.6-1.6,1.6H419c-0.9,0-1.6-0.7-1.6-1.6
		v-16.4c0-0.9,0.7-1.6,1.6-1.6h16.4c0.9,0,1.6,0.7,1.6,1.6V243z M399.7,199.3v16.4c0,0.9-0.7,1.6-1.6,1.6h-16.4
		c-0.9,0-1.6-0.7-1.6-1.6v-16.4c0-0.9,0.7-1.6,1.6-1.6h16.4C399,197.7,399.7,198.4,399.7,199.3z M388.5,226.6c0-0.9,0.7-1.6,1.6-1.6
		h16.3c0.9,0,1.6,0.7,1.6,1.6V243c0,0.9-0.7,1.6-1.6,1.6h-16.3c-0.9,0-1.6-0.7-1.6-1.6V226.6z M418.1,252.3c0.9,0,1.6,0.7,1.6,1.6
		v16.4c0,0.9-0.7,1.6-1.6,1.6h-16.4c-0.9,0-1.6-0.7-1.6-1.6v-16.4c0-0.9,0.7-1.6,1.6-1.6H418.1z M86.8,94.5V46h5.5h0.3h6.3h0.3h6.3
		h0.3h6.3h0.3h6.3h0.3h6.3h0.3h6.3h0.3h6.3h0.3h6.3h0.3h6.3h0.3h6.3h0.3h6.3h0.3h6.3h0.3h6.3h0.3h6.3h0.3h6.3h0.3h6.3h0.3h6.3h0.3
		h6.3h0.3h6.3h0.3h6.3h0.3h6.3h0.3h6.3h0.3h6.3h0.3h6.3h0.3h6.3h0.3h6.3h0.3h6.3h0.3h6.3h0.3h6.3h0.3h6.3h0.3h6.3h0.3h6.3h0.3h6.3
		h0.3h6.3h0.3h6.3h0.3h6.3h0.3h6.3h0.3h6.3h0.3h6.3h0.3h6.3h0.3h6.3h0.3h6.3h0.3h6.3h0.3h6.3h0.3h6.3h0.3h6.3h0.3h6.3h0.3h6.3h0.3
		h6.3h0.3h6.3h0.3h6.3h0.3h6.3h0.3h6.3h0.3h6.3h0.3h6.3h0.3h6.3h0.3h6.3h0.3h6.3h0.3h6.3h0.3h6.3h0.3h6.3h0.3h6.3h0.3h5.8v48.5H86.8
		z M95.3,43V17.2h0.9V43H95.3z M101.8,43V17.2h0.9V43H101.8z M108.4,43V17.2h0.9V43H108.4z M115.1,43V17.2h0.9V43H115.1z M121.7,43
		V17.2h0.9V43H121.7z M128.3,43V17.2h0.9V43H128.3z M134.8,43V17.2h0.9V43H134.8z M141.5,43V17.2h0.9V43H141.5z M148.1,43V17.2h0.9
		V43H148.1z M154.7,43V17.2h0.9V43H154.7z M161.3,43V17.2h0.9V43H161.3z M167.9,43V17.2h0.9V43H167.9z M174.5,43V17.2h0.9V43H174.5z
		 M181.1,43V17.2h0.9V43H181.1z M187.7,43V17.2h0.9V43H187.7z M194.3,43V17.2h0.9V43H194.3z M200.9,43V17.2h0.9V43H200.9z M207.5,43
		V17.2h0.9V43H207.5z M214.1,43V17.2h0.9V43H214.1z M220.7,43V17.2h0.9V43H220.7z M227.3,43V17.2h0.9V43H227.3z M233.9,43V17.2h0.9
		V43H233.9z M240.5,43V17.2h0.9V43H240.5z M247.1,43V17.2h0.9V43H247.1z M253.7,43V17.2h0.9V43H253.7z M260.3,43V17.2h0.9V43H260.3z
		 M266.9,43V17.2h0.9V43H266.9z M273.5,43V17.2h0.9V43H273.5z M280.1,43V17.2h0.9V43H280.1z M286.7,43V17.2h0.9V43H286.7z M293.3,43
		V17.2h0.9V43H293.3z M299.9,43V17.2h0.9V43H299.9z M306.5,43V17.2h0.9V43H306.5z M313.1,43V17.2h0.9V43H313.1z M319.7,43V17.2h0.9
		V43H319.7z M326.3,43V17.2h0.9V43H326.3z M332.9,43V17.2h0.9V43H332.9z M339.5,43V17.2h0.9V43H339.5z M346.1,43V17.2h0.9V43H346.1z
		 M352.7,43V17.2h0.9V43H352.7z M359.3,43V17.2h0.9V43H359.3z M365.9,43V17.2h0.9V43H365.9z M372.5,43V17.2h0.9V43H372.5z M379.1,43
		V17.2h0.9V43H379.1z M385.7,43V17.2h0.9V43H385.7z M392.3,43V17.2h0.9V43H392.3z M398.9,43V17.2h0.9V43H398.9z M405.5,43V17.2h0.9
		V43H405.5z M412.1,43V17.2h0.9V43H412.1z M418.8,43V17.2h0.9V43H418.8z M425.3,43V17.2h0.9V43H425.3z M431.9,43V17.2h0.9V43H431.9z
		 M438.5,43V17.2h0.9V43H438.5z M445.2,43V17.2h0.9V43H445.2z M451.8,43V17.2h0.9V43H451.8z M458.3,43V17.2h0.9V43H458.3z M464.9,43
		V17.2h0.9V43H464.9z M471.6,43V17.2h0.9V43H471.6z M478.2,43V17.2h0.9V43H478.2z M484.8,43V17.2h0.9V43H484.8z M491.3,43V17.2h0.9
		V43H491.3z M498,43V17.2h0.9V43H498z M504.6,43V17.2h0.9V43H504.6z M249.4,168.5L249.4,168.5l0.7-0.1c-1.5,1-2.4,2.7-2.4,4.6v16.4
		c0,1.8,0.8,3.3,2.1,4.4h-5.6c1.3-1,2.1-2.6,2.1-4.4V173c0-1.8-0.9-3.5-2.3-4.5H249.4z M218.8,173v16.4c0,1.8,0.8,3.3,2.1,4.4h-5.5
		c1.3-1,2.1-2.6,2.1-4.4V173c0-1.8-0.9-3.5-2.3-4.5h5.9C219.7,169.5,218.8,171.1,218.8,173z M189.9,173v16.4c0,1.8,0.8,3.3,2.1,4.4
		h-5.6c1.3-1,2.1-2.6,2.1-4.4V173c0-1.8-0.9-3.5-2.3-4.5h5.9C190.8,169.5,189.9,171.1,189.9,173z M161,173v16.4
		c0,1.8,0.8,3.3,2.1,4.4h-5.5c1.3-1,2.1-2.6,2.1-4.4V173c0-1.8-0.9-3.5-2.3-4.5h5.9C161.9,169.5,161,171.1,161,173z M132.1,173v16.4
		c0,1.8,0.8,3.3,2.1,4.4h-5.6c1.3-1,2.1-2.6,2.1-4.4V173c0-1.8-0.9-3.5-2.3-4.5h5.9C133,169.5,132.1,171.1,132.1,173z M103.2,173
		v16.4c0,1.8,0.8,3.3,2.1,4.4h-5.6c0.8-0.6,1.4-1.4,1.7-2.4h0.5V173c0-1.8-0.9-3.5-2.3-4.5h5.9C104.1,169.5,103.2,171.1,103.2,173z
		 M74.3,173v16.4c0,1.8,0.8,3.3,2.1,4.4h-5.6c1.3-1,2.1-2.6,2.1-4.4V173c0-1.8-0.9-3.5-2.3-4.5h5.9C75.2,169.5,74.3,171.1,74.3,173z
		 M47.1,169v-0.5h0.6C47.5,168.6,47.3,168.8,47.1,169z M56.4,221.3c-0.8,0.3-1.5,0.7-2,1.2v-1.2H56.4z M54.4,247.1
		c0.7,0.7,1.6,1.2,2.6,1.4c-1,0.3-1.9,0.8-2.6,1.6V247.1z M54.4,274c0.2,0.2,0.5,0.5,0.7,0.7h-0.7V274z M105.9,270.2v-16.4
		c0-2.4-1.6-4.5-3.8-5.3h8.9c-2.2,0.8-3.8,2.8-3.8,5.3v16.4c0,1.8,0.9,3.4,2.2,4.5h-5.8C105,273.7,105.9,272,105.9,270.2z
		 M159.7,270.2c0,0.9-0.7,1.6-1.6,1.6h-16.4c-0.9,0-1.6-0.7-1.6-1.6v-16.4c0-0.9,0.7-1.6,1.6-1.6h16.4c0.9,0,1.6,0.7,1.6,1.6V270.2z
		 M188.6,270.2c0,0.9-0.7,1.6-1.6,1.6h-16.4c-0.9,0-1.6-0.7-1.6-1.6v-16.4c0-0.9,0.7-1.6,1.6-1.6H187c0.9,0,1.6,0.7,1.6,1.6V270.2z
		 M217.5,270.2c0,0.9-0.7,1.6-1.6,1.6h-16.4c-0.9,0-1.6-0.7-1.6-1.6v-16.4c0-0.9,0.7-1.6,1.6-1.6h16.4c0.9,0,1.6,0.7,1.6,1.6V270.2z
		 M246.4,270.2c0,0.9-0.7,1.6-1.6,1.6h-16.4c-0.9,0-1.6-0.7-1.6-1.6v-16.4c0-0.9,0.7-1.6,1.6-1.6h16.4c0.9,0,1.6,0.7,1.6,1.6V270.2z
		 M275.3,270.2c0,0.9-0.7,1.6-1.6,1.6h-16.4c-0.9,0-1.6-0.7-1.6-1.6v-16.4c0-0.9,0.7-1.6,1.6-1.6h16.4c0.9,0,1.6,0.7,1.6,1.6V270.2z
		 M304.2,270.2c0,0.9-0.7,1.6-1.6,1.6h-16.4c-0.9,0-1.6-0.7-1.6-1.6v-16.4c0-0.9,0.7-1.6,1.6-1.6h16.4c0.9,0,1.6,0.7,1.6,1.6V270.2z
		 M333.1,270.2c0,0.9-0.7,1.6-1.6,1.6h-16.4c-0.9,0-1.6-0.7-1.6-1.6v-16.4c0-0.9,0.7-1.6,1.6-1.6h16.4c0.9,0,1.6,0.7,1.6,1.6V270.2z
		 M361.9,270.2c0,0.9-0.7,1.6-1.6,1.6H344c-0.9,0-1.6-0.7-1.6-1.6v-16.4c0-0.9,0.7-1.6,1.6-1.6h16.4c0.9,0,1.6,0.7,1.6,1.6V270.2z
		 M394.8,270.2v-16.4c0-2.4-1.6-4.5-3.8-5.3h8.8c-2.2,0.8-3.8,2.8-3.8,5.3v16.4c0,1.8,0.9,3.4,2.2,4.5h-5.8
		C394,273.7,394.8,272,394.8,270.2z M423.7,270.2v-16.4c0-2.4-1.6-4.5-3.8-5.3h8.9c-2.2,0.8-3.8,2.8-3.8,5.3v16.4
		c0,1.8,0.9,3.4,2.2,4.5h-5.8C422.8,273.7,423.7,272,423.7,270.2z M469.4,273.7v1h-1.1C468.7,274.4,469.1,274,469.4,273.7z
		 M442.3,226.6V243c0,2.4,1.6,4.5,3.8,5.3h-8.9c2.2-0.8,3.8-2.8,3.8-5.3v-16.4c0-3.1-2.5-5.6-5.6-5.6h-6.6c2.2-0.7,3.9-2.8,3.9-5.3
		v-16.4c0-1.8-0.8-3.3-2.1-4.4h5.5c-1.3,1-2.1,2.6-2.1,4.4v16.4c0,3.1,2.5,5.6,5.6,5.6h6.7C443.9,222,442.3,224.1,442.3,226.6z
		 M474.6,194.2c0.9-0.5,1.6-1.2,2.1-2v3.7C476.1,195.1,475.4,194.6,474.6,194.2z M476.7,170.1c-0.4-0.7-0.9-1.2-1.5-1.7h1.5V170.1z
		 M449.9,173v16.4c0,1.8,0.8,3.3,2.1,4.4h-5.6c1.3-1,2.1-2.6,2.1-4.4V173c0-1.8-0.9-3.5-2.3-4.5h5.9
		C450.8,169.5,449.9,171.1,449.9,173z M421,173v16.4c0,1.8,0.8,3.3,2.1,4.4h-5.5c1.3-1,2.1-2.6,2.1-4.4V173c0-1.8-0.9-3.5-2.3-4.5
		h5.9C421.9,169.5,421,171.1,421,173z M392.1,173v16.4c0,1.8,0.8,3.3,2.1,4.4h-5.6c1.3-1,2.1-2.6,2.1-4.4V173c0-1.8-0.9-3.5-2.3-4.5
		h5.9C393,169.5,392.1,171.1,392.1,173z M363.2,173v16.4c0,1.8,0.8,3.3,2.1,4.4h-5.6c1.3-1,2.1-2.6,2.1-4.4V173
		c0-1.8-0.9-3.5-2.3-4.5h5.9C364.1,169.5,363.2,171.1,363.2,173z M513.2,15h5.9v79.5h-5.9V15z M81.3,94.5h-6.7V15h6.7V94.5z
		 M465.9,248.3c1.6-0.5,2.9-1.7,3.5-3.2v5.3C468.5,249.3,467.3,248.5,465.9,248.3z M469.4,224.4c-0.6-1.5-1.9-2.6-3.4-3.1h3.4V224.4
		z M476.7,219.2v0.1h-0.1C476.6,219.2,476.7,219.2,476.7,219.2z"/>
	<polygon style="fill:#FFFFFF;" points="280.3,156.8 291.4,164 291.9,164.3 293.1,164.3 300.8,160.2 300,156.8 	"/>
	<path style="fill:#FFFFFF;" d="M500.2,309h48V164.7h-48V309z M506.5,302.7v-21.5h35.4v21.5H506.5z M506.5,275.1v-21.5h35.4v21.5
		H506.5z M506.5,247.5V226h35.4v21.5H506.5z M506.5,219.8v-21.5h35.4v21.5H506.5z M506.5,192.2v-21.4h35.4v21.4H506.5z"/>
</g>
</svg>
