<?xml version="1.0" encoding="utf-8"?>
<!-- Generator: Adobe Illustrator 24.0.1, SVG Export Plug-In . SVG Version: 6.00 Build 0)  -->
<svg version="1.1"
	 id="Layer_3" xmlns:cc="http://creativecommons.org/ns#" xmlns:dc="http://purl.org/dc/elements/1.1/" xmlns:rdf="http://www.w3.org/1999/02/22-rdf-syntax-ns#"
	 xmlns="http://www.w3.org/2000/svg" xmlns:xlink="http://www.w3.org/1999/xlink" x="0px" y="0px" viewBox="0 0 598.2 350.3"
	 style="enable-background:new 0 0 598.2 350.3;" xml:space="preserve">
<path style="fill:#FFFFFF;" d="M592.7,149.9v4.1h-2.5v-4.2l-11-0.5v4.7h-2.5v-4.8l-11-0.5v5.3h-2.5v-5.4l-11-0.5v5.9h-2.5v-6
	l-11-0.5v6.5h-2.5v-6.6l-7.1-0.3V92.3l-5.2-15.4l-7.8-9l-0.4-0.5l-7.6-1.9l-3.3,3l-2.5-6.1l-0.4-1.1L408.1,51l-1.3-0.1l-5.3,8.3
	l-1.7-1.3l-0.6-0.4l-0.7,0L17.6,78.3l-0.8,0.1L6.5,90.5L6,91.1v140l10.3,12.1l0.5,0.6l0.8,0.1l380.8,20.9l0.8,0.1l2.3-1.8l4.7,7.3
	l0.6,1l94-10.2l1.2-0.1l3-7.2l2.5,2.3l0.8,0.7l7-1.7l0.6-0.2l8-9.3l0.2-0.3l5-15l0.1-0.3v-46.9l7.1-0.3v-6.6h2.5v6.5l11-0.5v-6h2.5
	v5.9l1.1,0v0l9.9-0.4v-5.4h2.5v5.3l11-0.5v-4.8h2.5v4.7l11-0.5v-4.2h2.5v4.1l11.5-0.5v-29.4L592.7,149.9z M590.2,158h2.5v14.2h-2.5
	V158z M600.2,154.2V176l-3.5,0.2v-22.1L600.2,154.2z M549.8,158h2.5v14.2h-2.5V158z M559.3,152.4v25.4l-3,0.1v-25.6L559.3,152.4z
	 M563.3,158h2.5v14.2h-2.5V158z M569.8,177.3v-24.5l3,0.1v24.2L569.8,177.3z M576.8,158h2.5v14.2h-2.5V158z M586.2,153.6v23l-3,0.1
	v-23.3L586.2,153.6z M509.4,252.5l-12.3-11.1l-0.7-0.5l-80.2,5.9l-0.6,0.1l-17.8,13.9L18.8,240L10,229.6V225l4.7,1.1l0.3,0.1
	l386.8,5.3l123.5-3.9v1.7l-4.7,14.1l-6.9,8.1L509.4,252.5z M408.9,267.2l-4.2-6.6l12.6-9.8l77.9-5.8l6.7,6.1l-2.6,6.4L408.9,267.2z
	 M499.2,64.9l2.6,6.4l-6.7,6.1l-77.9-5.8l-12.6-9.8l4.2-6.6L499.2,64.9z M513.6,70.8l6.9,8l4.7,14.1v1.7l-123.5-3.9L15,96.1l-5,1.2
	v-4.7l8.8-10.3l379.2-20.8L415.3,75l0.5,0.4l79.9,5.9l0.8,0.1l12.9-11.6L513.6,70.8z M529.2,151.1l3.1,0.1V179l-3.1,0.1V151.1z
	 M525.2,183.3v37.6h-0.5v2.7l-123,3.9l-9.2-0.1l8.4-8.4v6.5l1.1,0v0l16.5-0.4v0l17.1-0.4v0l1.1,0v0l34.2-0.9v0l34.3-0.9v0l18-0.4
	V98.7l1.7,0.1v2.7h0.5v45.5l-0.1,0v36.4L525.2,183.3z M519,102v116.5l-2.4,0.1l0-116.7L519,102z M510,101.8v117l-2,0V101.7
	L510,101.8z M499.4,219V101.5l2,0.1V219L499.4,219z M490.9,219.3v-118l2,0.1v117.9L490.9,219.3z M482.3,219.5V101l2,0.1v118.4
	L482.3,219.5z M475.7,100.8v118.8l-2,0V100.8L475.7,100.8z M467.2,100.6v119.3l-2,0V100.5L467.2,100.6z M456.6,220.1V100.3l2,0.1
	v119.7L456.6,220.1z M450.1,100.1v120.2l-2,0V100L450.1,100.1z M439.5,220.5V99.8l2,0.1v120.6L439.5,220.5z M432.9,99.6v121.1l-2,0
	V99.6L432.9,99.6z M424.4,99.4v121.5l-2,0.1V99.3L424.4,99.4z M415.8,99.1v122l-2,0V99.1L415.8,99.1z M407.2,98.9v122.4l-2.4,0.1
	V98.8L407.2,98.9z M11.1,102.6l4.1-1.2l255.6-3.2v125.9l-255.6-3.2l-4.1-1.2V102.6z M396.9,211.8l-12.8-17.7v-19
	c1.1-3.7,1.7-7.6,1.9-11.5v21.8h11V211.8z M311.3,118.5c-0.5,0.3-1.1,0.6-1.6,1c-0.9,0.6-1.8,1.2-2.7,1.8c-0.1,0.1-0.3,0.2-0.4,0.3
	c-0.6,0.4-1.1,0.9-1.7,1.3c-0.1,0.1-0.3,0.2-0.4,0.4c-1.7,1.5-3.4,3-4.9,4.7c0,0-0.1,0.1-0.1,0.1c-1.5,1.7-2.9,3.4-4.2,5.3
	c-0.1,0.2-0.3,0.4-0.4,0.6c-0.4,0.6-0.7,1.1-1.1,1.7c-0.2,0.4-0.5,0.8-0.7,1.2c-0.2,0.4-0.5,0.8-0.7,1.3v-8.6l11.3-11.4h8.1
	C311.7,118.2,311.6,118.4,311.3,118.5z M321.9,118.1c0.2-0.1,0.3-0.1,0.5-0.2l0.4-0.1l0,0c4.3-1.3,8.8-2,13.5-2
	c4.7,0,9.2,0.7,13.5,2l0,0l0.8,0.3c3.5,1.1,6.8,2.7,9.8,4.6c0.2,0.1,0.5,0.3,0.7,0.4c0.5,0.3,0.9,0.6,1.3,0.9
	c0.3,0.2,0.6,0.4,0.9,0.6c0.4,0.3,0.7,0.5,1,0.8c0.3,0.3,0.7,0.5,1,0.8c0.2,0.2,0.5,0.4,0.7,0.6c0.7,0.6,1.4,1.2,2.1,1.9
	c0.2,0.2,0.4,0.4,0.6,0.6c0.3,0.3,0.7,0.7,1,1.1c0.2,0.2,0.5,0.5,0.7,0.7c0.3,0.3,0.6,0.7,0.9,1.1c0.3,0.3,0.5,0.6,0.8,0.9
	c0.3,0.3,0.5,0.6,0.8,1c0.5,0.6,0.9,1.3,1.4,1.9c0.1,0.1,0.2,0.3,0.3,0.4c0.4,0.6,0.8,1.2,1.1,1.8c0.1,0.2,0.2,0.3,0.3,0.5
	c0.4,0.7,0.7,1.3,1.1,2c0,0.1,0.1,0.2,0.1,0.2c1.2,2.4,2.2,5,3,7.7l0.2,0.8l0,0c1,3.8,1.6,7.9,1.6,12c0,4.3-0.6,8.4-1.7,12.3
	l-0.2,0.6c-0.8,2.6-1.7,5.1-2.9,7.4c0,0,0,0.1-0.1,0.1c-0.4,0.7-0.7,1.4-1.1,2.1c-0.1,0.1-0.1,0.2-0.2,0.4c-0.4,0.6-0.7,1.2-1.1,1.8
	c-0.1,0.1-0.2,0.3-0.3,0.4c-0.4,0.6-0.9,1.3-1.3,1.9c0,0.1-0.1,0.1-0.1,0.2c-0.5,0.7-1,1.3-1.6,2c-0.1,0.1-0.2,0.3-0.4,0.4
	c-0.4,0.5-0.8,0.9-1.2,1.4c-0.2,0.3-0.5,0.5-0.7,0.8c-0.3,0.3-0.6,0.6-0.9,0.9c-0.3,0.3-0.6,0.6-0.9,0.8c-0.3,0.3-0.5,0.5-0.8,0.7
	c-0.3,0.3-0.7,0.6-1,0.9c-0.2,0.2-0.4,0.3-0.6,0.5c-1.5,1.2-3,2.3-4.7,3.3c-0.1,0.1-0.2,0.1-0.3,0.2c-0.5,0.3-1.1,0.6-1.6,0.9
	c-0.1,0.1-0.3,0.2-0.4,0.2c-0.5,0.3-1.1,0.6-1.7,0.8c-0.1,0.1-0.3,0.1-0.4,0.2c-0.6,0.3-1.2,0.6-1.8,0.8c0,0,0,0,0,0
	c-5.5,2.3-11.5,3.6-17.8,3.6c-20.3,0-37.6-13.4-43.5-31.8c-0.1-0.2-0.1-0.4-0.2-0.6c-1.3-4.2-2-8.7-2-13.4c0-4.6,0.7-9,1.9-13.2
	c0.1-0.4,0.2-0.7,0.3-1.1c0.2-0.5,0.3-0.9,0.5-1.4c0-0.1,0.1-0.3,0.2-0.4c3.6-9.6,10.4-17.7,19-23c0.1-0.1,0.2-0.1,0.3-0.2
	c0.7-0.4,1.4-0.8,2.2-1.2c0.5-0.3,1-0.5,1.6-0.8c0.2-0.1,0.5-0.2,0.7-0.3c0.6-0.3,1.2-0.5,1.8-0.8c0.2-0.1,0.4-0.1,0.6-0.2
	C320.4,118.6,321.1,118.3,321.9,118.1z M369.6,124.5c-0.3-0.3-0.6-0.5-0.9-0.7c-0.5-0.5-1.1-0.9-1.6-1.4c-0.2-0.2-0.5-0.4-0.7-0.6
	c-0.8-0.6-1.6-1.2-2.5-1.8c-0.1-0.1-0.3-0.2-0.4-0.2c-0.8-0.6-1.7-1.1-2.6-1.6c-0.1,0-0.1-0.1-0.2-0.1h9.2l10.2,10.2l0,9.6
	c-0.5-1-1.1-1.9-1.7-2.8c-0.1-0.2-0.2-0.3-0.3-0.5c-0.5-0.8-1-1.5-1.5-2.3c-0.1-0.2-0.2-0.3-0.3-0.5c-0.6-0.8-1.2-1.5-1.8-2.3
	c-0.2-0.3-0.5-0.6-0.7-0.9c-0.4-0.5-0.9-1-1.3-1.5c-0.3-0.3-0.5-0.6-0.8-0.8C370.9,125.7,370.2,125.1,369.6,124.5z M286.9,185.4
	v-19.6c0.3,3,0.8,6,1.6,8.9v18.4L277,211.8l0-26.4H286.9z M371.2,196.8c0.1-0.1,0.3-0.2,0.4-0.4c0.5-0.5,0.9-0.9,1.3-1.4
	c0.2-0.2,0.4-0.5,0.6-0.7c0.6-0.7,1.2-1.4,1.8-2.1c0.3-0.4,0.6-0.8,1-1.2c0.3-0.4,0.5-0.8,0.8-1.1c0.3-0.5,0.7-0.9,1-1.4
	c0.2-0.3,0.4-0.6,0.6-1c0.5-0.8,1-1.7,1.5-2.5c0,0,0,0,0,0v9l-10.2,10.2l-8.3,0c1.4-0.8,2.7-1.8,4-2.7c0.2-0.1,0.4-0.3,0.5-0.4
	c0.6-0.4,1.1-0.8,1.6-1.3c0.1-0.1,0.1-0.1,0.2-0.2C369.2,198.7,370.2,197.8,371.2,196.8z M292.5,192.8l0-8
	c4.3,8,10.7,14.7,18.5,19.4h-7.2L292.5,192.8z M288.5,129.2v18.9c-0.8,2.9-1.3,5.8-1.6,8.9v-24.4H277v-22L288.5,129.2z M277.5,218.6
	l13.4-21.7l9.3,9.3L281.9,223L277.5,218.6z M290.9,125.4l-13.4-21.7l4.4-4.4l18.2,16.9L290.9,125.4z M303.8,208.1h15.7
	c5.3,1.9,10.9,2.9,16.8,2.9c5.9,0,11.6-1,16.8-2.9H370l16.2,15.6h-99.3L303.8,208.1z M373.6,206.1l8.2-8.2l14.5,19.9l-5.1,5.1
	L373.6,206.1z M386,132.5v26.7c-0.2-4-0.8-7.9-1.9-11.6v-19.5l12.8-17.7v22.1H386z M381.8,124.4l-8.2-8.2l17.6-16.8l5.1,5.1
	L381.8,124.4z M370,114.1h-18.4c-4.8-1.6-9.9-2.4-15.2-2.4s-10.4,0.8-15.2,2.4h-17.3l-16.9-15.6h99.3L370,114.1z M274.9,100.7v-4.1
	l4.2-0.1L274.9,100.7z M274.9,225.7v-4.1l4.2,4.2L274.9,225.7z M400.8,103.3l-8.3-8.3l8.3-0.1V103.3z M536.3,158h2.5v14.2h-2.5V158z
	 M545.8,151.8v26.6l-3,0.1v-26.8L545.8,151.8z"/>
</svg>
