<?xml version="1.0" encoding="utf-8"?>
<!-- Generator: Adobe Illustrator 24.0.1, SVG Export Plug-In . SVG Version: 6.00 Build 0)  -->
<svg version="1.1" id="레이어_1" xmlns="http://www.w3.org/2000/svg" xmlns:xlink="http://www.w3.org/1999/xlink" x="0px"
	 y="0px" viewBox="0 0 1919.6 425.2" style="enable-background:new 0 0 1919.6 425.2;" xml:space="preserve">
<g>
	<polygon style="fill:#FFFFFF;" points="299.2,113.7 296.4,124.5 285.6,83.2 205.3,83.2 186.9,153.8 160.5,52.8 80.2,52.8 0,359.3 
		80.2,359.3 120.3,206.1 146.8,307 146.7,307.1 146.8,307.1 227,307.1 227,307.1 227,307 245.5,236.5 256.3,277.8 256.3,277.8 
		256.3,277.8 336.5,277.8 336.5,277.8 336.5,277.7 379.4,113.7 	"/>
	<path style="fill:#FFFFFF;" d="M991.7,137.5c-49.2-0.2-98.4-0.2-147.5,0.7c-4.6,0.1-11.9,5.7-13.3,10.1
		c-11.4,37.3-21.6,75-32.5,112.5c-2.6,8.9-0.5,13.2,9.6,12.9c9.1-0.3,18.3-0.6,27.4,0.1c10.7,0.8,15.3-3.5,17.6-13.5
		c6.8-29.8,14.6-59.5,21.9-89.2c2.2-8.8,5.6-14.9,17.4-8.5l-32.1,111.1c15.4,0,27.5-0.6,39.5,0.2c10.5,0.7,15.4-2.9,17.9-13.1
		c7.3-30.2,15.7-60.2,23.6-90.3c2-7.5,4.7-13.3,15.8-8c-1.2,5-2.2,10.2-3.7,15.2c-7.9,27.5-15.8,55.1-24,82.5
		c-2.9,9.7-0.3,14,10.4,13.6c10.1-0.3,20.4,0.7,30.4-0.4c4.4-0.5,11.2-4.2,12.2-7.8c9.9-35.2,19.2-70.5,27.8-106
		C1013.4,145,1007,137.5,991.7,137.5z"/>
	<path style="fill:#FFFFFF;" d="M686.9,139.3H539.3c-0.1,37,30.5,15.6,45.9,25.5c-0.4,2.7-0.6,5.1-1.2,7.4
		c-7.3,25.1-14.8,50.1-21.9,75.3c-3.7,13,1.6,22.5,13.4,25.4c20.7,5,33.5,0.8,37-12.5c6.6-24.8,12.7-49.6,19.5-74.3
		c7.5-27.3,0.4-23.8,32.7-24.1C683.7,161.7,686.1,159.4,686.9,139.3z"/>
	<path style="fill:#FFFFFF;" d="M799.9,137.8c-32.4-0.3-64.9-0.6-97.3-0.1c-4,0.1-10.2,4.9-11.3,8.6c-10.4,34-20.3,68.2-29.6,102.5
		c-4.1,15.2,3.1,24.1,19.1,24.5c15.7,0.5,31.4,0.1,47.1,0.1l0,0.2c15.7,0,31.5,0.5,47.1-0.3c4.4-0.2,11.5-3.9,12.4-7.2
		c10.1-36.1,19.6-72.4,28.5-108.9C818.8,145.5,813,137.9,799.9,137.8z M743.8,235.7c-2.6,13.5-1.6,13.6-16.1,14.1
		c-4,0.1-12.2,1.6-11.3-1.8h0c6.4-24.9,14.2-60,22.2-84.1c1.6-4.7,22.9-3.5,24.2-2.1C760.6,170.7,746.5,221.3,743.8,235.7z"/>
	<path style="fill:#FFFFFF;" d="M1658,137.6c-9.5-0.4-13.2,3.6-15.3,12.3c-6.9,28.8-16.1,70.5-24,99c-0.9,3.4-11,5.3-11.8-2.4
		c-3.2-28.9-5.7-68.9-9.4-97.7c-0.5-4-0.3-9.6-3.8-9.5c-13.3,0.4-24.1,0.1-40,0.4c-4,0.1-5.5,6.9-5.4,8.8c3,35.3,4.7,71.1,8.1,106.4
		c1.3,13.1,9.5,17.5,25.4,17.5c22.9,0,37.7-0.3,59.1-0.3c14.6,0,21-0.2,23.7-11.8c3.9-17.3,9.3-34.3,13.9-51.4
		c6.2-22.7,12.2-45.5,19.1-71.3C1682.1,137.8,1670.1,138.2,1658,137.6z"/>
	<path style="fill:#FFFFFF;" d="M1829.7,137.9c-36.6,0-74.8-0.2-111.4,0.5c-3.1,0.1-7.8,5.8-8.9,9.7c-9.7,33.2-19,66.4-27.9,99.8
		c-4.4,16.6,2,24.5,19.6,24.6c27.3,0.2,68,0.2,96.4,0.1c2,0,3.7-1.2,4.3-3l2.8-15.5c0.8-2.2-0.9-4.5-3.3-4.5l-67.2,0
		c2.4-9.4,4.6-15.9,5.5-22.6c1.5-11.1,7.3-14,18.5-14.1c10-0.1,33.9,0.1,46.5,0.2c2.3,0,4.3-1.7,4.6-3.9l2.8-20
		c0.2-1.7-1.1-3.2-2.9-3.2h-56.3c1.1-21.7,1.9-22.5,20.3-22.6c11.7,0,37.4,0,51.2,0c1.8,0,3.4-1.2,3.9-2.9l4.4-19.2
		C1833,139.7,1831.6,138,1829.7,137.9z"/>
	<polygon style="fill:#FFFFFF;" points="1697.7,137.8 1697.7,137.8 1697.7,137.8 	"/>
	<path style="fill:#FFFFFF;" d="M543.7,253.1c-4.3-36.7-5.5-63.7-10-100.4c-1.3-10.3-7.7-15.5-18.7-15.4c-24.3,0.2-48.6,0.6-73,0.2
		c-10.2-0.2-13.7,4.3-16.1,13.3c-8.2,31.5-17.4,62.8-26.3,94.2c-2.4,8.4-5.1,18.1-8.4,28.7c16.7,0,33.3-0.1,53.3-0.1l9-34.3l38,0
		l2.4,34.4c4.6,0,47.4-0.1,51.9,0L543.7,253.1L543.7,253.1z M459.5,216.7l14.8-57H486l4,57H459.5z"/>
	<path style="fill:#FFFFFF;" d="M1415.1,137.7c-13.9,0-26,0.5-38-0.2c-10-0.6-14.3,3.3-16.6,12.7c-7.3,29.7-15.6,59.2-23.1,88.9
		c-2.2,8.8-5.7,13.6-17,8.2l30.5-109.6c-14.9,0-26.5,0.6-38-0.2c-10.7-0.7-15.3,3.5-17.7,13.4c-7.2,29.2-15.4,58.2-23.1,87.3
		c-2.3,8.6-5.6,15.1-17.8,8.9l31.3-109.3c-17.4,0-31.5-0.6-45.5,0.4c-3.5,0.3-8.5,5.2-9.6,8.9c-9.7,33.7-19.2,67.5-27.7,101.5
		c-4.3,17.3,2,24.3,20,24.4c47.6,0.2,95.3-0.2,142.9,0.3c10,0.1,14.1-3.5,16.5-12.7c9.6-36.3,20-72.3,30.1-108.5
		C1413.4,148.1,1413.9,144,1415.1,137.7z"/>
	<polygon style="fill:#FFFFFF;" points="1285.5,137.9 1285.5,137.9 1285.5,137.9 	"/>
	<path style="fill:#FFFFFF;" d="M1180.8,186.6c-15.6-0.1-31.2,0-47.8,0c3.2-24.9,3.2-24.9,25-24.9c11.7,0,23.3,0,35,0
		c20.3,0,21.5-1.2,22-22.1c-1.3-0.5-2.7-1.5-4.1-1.5c-24.3-0.2-48.7-0.3-73-0.4c-45.3,0-45.3,0-56,42.2c-5.5,21.6-0.4,28,22.5,28.1
		c15.4,0.1,30.7,0,48.3,0c-3,10.6-5.8,17.6-6.9,24.7c-1.8,11.4-7.7,15.6-19.6,14.9c-15.1-0.9-30.4-0.3-45.6-0.3
		c-19.2,0-22.5,3.8-20.6,25.7c39.2,0,78.7,0.3,118-0.5c3.6-0.1,9.1-5.9,10.3-10c5.3-17,9.5-34.2,13.6-51.5
		C1206.1,193.4,1200.1,186.7,1180.8,186.6z"/>
	<path style="fill:#FFFFFF;" d="M1079.2,137.8L1079.2,137.8c-14.3,0-26.8,0.3-39.2-0.1c-8.7-0.3-12.4,3.2-14.5,11.3
		c-8.9,33.4-18.6,66.5-27.9,99.8c-4.4,15.9,1.5,23.7,18.1,24.3c4.6,0.2,9.2-0.5,13.7,0.1c11.7,1.7,15.8-4.1,18.4-14.3
		c8.9-34.9,18.6-69.6,27.9-104.4C1076.8,150,1077.6,145.2,1079.2,137.8z"/>
	<path style="fill:#FFFFFF;" d="M1544.2,253c-4.3-36.7-5.5-63.7-10-100.4c-1.3-10.3-7.7-15.5-18.7-15.4c-24.3,0.2-48.6,0.6-73,0.2
		c-10.2-0.2-13.7,4.3-16.1,13.3c-8.2,31.5-17.4,62.8-26.3,94.2c-2.4,8.4-5.1,18.1-8.4,28.7c16.7,0,33.3-0.1,53.3-0.1l8.9-34.3l38,0
		l2.4,34.4c4.6,0,47.4-0.1,51.9,0L1544.2,253L1544.2,253z M1460,216.7l14.8-57h11.6l4,57H1460z"/>
	<polygon style="fill:#FFFFFF;" points="1835.9,232.8 1849.8,232.8 1849.8,274.9 1855.3,274.9 1855.3,232.8 1869.3,232.8 
		1869.3,227.5 1835.9,227.5 	"/>
	<polygon style="fill:#FFFFFF;" points="1911.7,227.5 1898.1,264 1884.4,227.5 1876.5,227.5 1876.5,274.9 1882,274.9 1882,235 
		1897,274.9 1899.2,274.9 1914.1,235 1914.1,274.9 1919.6,274.9 1919.6,227.5 	"/>
</g>
</svg>
