<?xml version="1.0" encoding="utf-8"?>
<!-- Generator: Adobe Illustrator 24.0.1, SVG Export Plug-In . SVG Version: 6.00 Build 0)  -->
<svg version="1.1" id="레이어_1" xmlns="http://www.w3.org/2000/svg" xmlns:xlink="http://www.w3.org/1999/xlink" x="0px"
	 y="0px" viewBox="0 0 850 250" style="enable-background:new 0 0 850 250;" xml:space="preserve">
<g>
	<path style="fill:#FFFFFF;" d="M130.1,146.1H66.7l-14.2,33.2h-6.6L94.7,65.5h7.4l48.8,113.8h-6.6L130.1,146.1z M127.5,140.3
		l-29-68.2l-29,68.2H127.5z"/>
	<path style="fill:#FFFFFF;" d="M173.1,179.3h-6V62.1h6V179.3z"/>
	<path style="fill:#FFFFFF;" d="M204.1,179.3h-6V62.1h6V179.3z"/>
	<path style="fill:#FFFFFF;" d="M378.3,102.1h-6.2c-4.8-19.4-25.2-33.6-49.4-33.6c-31,0-52.6,22.6-52.6,53.8
		c0,31.4,21.4,53.8,53,53.8c28,0,49.6-19,50.6-47.6h-54.2v-5.4h60.6v3.8c0,32.6-25.2,54.8-57.4,54.8c-34.4,0-58.6-25-58.6-59.4
		c0-34.2,24.2-59.4,58.6-59.4C351.1,62.9,373.1,79.9,378.3,102.1z"/>
	<path style="fill:#FFFFFF;" d="M396.9,138.9c0-24,16.6-42.4,39.2-42.4c19.2,0,31.6,12.2,34.8,21.4V98.7h6v80.6h-6v-19.2
		c-3.2,9-15.6,21.4-34.8,21.4C413.3,181.3,396.9,162.7,396.9,138.9z M470.9,138.9c0-20.8-14.2-36.8-34.4-36.8s-33.6,16-33.6,36.8
		s13.4,36.8,33.6,36.8S470.9,159.7,470.9,138.9z"/>
	<path style="fill:#FFFFFF;" d="M501.7,98.5h6v17.8c2.6-7,11.2-19.8,29-19.8c13.6,0,23,9,26,22.8c4.4-13.6,15.8-22.8,30.8-22.8
		c15.4,0,27.4,12.8,27.4,31.6v51.2h-6v-50.2c0-16.6-9-27-22.6-27c-15.6,0-28,16.4-28,34v43h-6v-49.2c0-17.6-9.2-28-22.6-28
		c-15.6,0-28,16.6-28,33.6v43.4h-6L501.7,98.5L501.7,98.5z"/>
	<path style="fill:#FFFFFF;" d="M639.5,138.9c0-24,16.6-42.4,39.2-42.4c22.6,0,39.2,18.2,39.2,42.4c0,0.8,0,2-0.2,2.8h-72
		c1.2,19.4,14.2,34,33,34c14.4,0,25.4-7.2,29-16.8h6.6c-4.4,12.8-18,22.4-35.6,22.4C656.1,181.3,639.5,162.9,639.5,138.9z
		 M711.7,136.1c-1.2-19.4-14.2-33.8-33-33.8s-31.8,14.4-33,33.8H711.7z"/>
	<path style="fill:#FFFFFF;" d="M802.1,117.5h-6c-0.4-8.8-12.6-15.6-28.2-15.6c-15.2,0-26.4,6.8-26.4,15.6c0,9,4.8,15.2,29.6,18.2
		c24.8,2.8,33.2,10.8,33.2,22.2c0,14.6-15.6,23.4-35.2,23.4c-22.2,0-34-10.6-35.2-22.2h6.2c0.8,7.6,9.4,16.8,29.6,16.8
		c16.4,0,28.8-7.2,28.8-17.6c0-9.2-6.6-14.2-30.6-17.2c-24.4-3-32.2-11-32.2-22.8c0-13.2,13.8-21.6,33-21.6
		C787.7,96.5,801.5,105.9,802.1,117.5z"/>
</g>
</svg>
