<?xml version="1.0" encoding="utf-8"?>
<!-- Generator: Adobe Illustrator 24.0.1, SVG Export Plug-In . SVG Version: 6.00 Build 0)  -->
<svg version="1.1" id="레이어_1" xmlns="http://www.w3.org/2000/svg" xmlns:xlink="http://www.w3.org/1999/xlink" x="0px"
	 y="0px" viewBox="0 0 850 250" style="enable-background:new 0 0 850 250;" xml:space="preserve">
<g>
	<path style="fill:#FFFFFF;" d="M85,64.1h76.2v5.8h-70v49.3h63.9v5.8H91.2v53H85V64.1z"/>
	<path style="fill:#FFFFFF;" d="M170.7,137.6c0-23.9,16.6-42.3,39.2-42.3c19.2,0,31.5,12.2,34.7,21.3V97.2h6v80.6h-6v-19.3
		c-3.2,9.1-15.6,21.3-34.7,21.3C187.2,179.9,170.7,161.5,170.7,137.6z M244.7,137.6c0-20.7-14.3-36.7-34.4-36.7s-33.6,16-33.6,36.7
		s13.4,36.7,33.6,36.7S244.7,158.3,244.7,137.6z"/>
	<path style="fill:#FFFFFF;" d="M347.6,97.2l-36.7,80.6h-6.8l-36.7-80.6h6.6l33.6,74.3l33.6-74.3C341.2,97.2,347.6,97.2,347.6,97.2z
		"/>
	<path style="fill:#FFFFFF;" d="M434,137.6c0,24.1-17,42.3-40,42.3s-40-18.3-40-42.3s17-42.3,40-42.3S434,113.5,434,137.6z
		 M360,137.6c0,20.9,13.8,36.7,34,36.7s34-15.8,34-36.7s-13.8-36.7-34-36.7C373.8,100.8,360,116.7,360,137.6z"/>
	<path style="fill:#FFFFFF;" d="M454.8,97.2h6v20c2.4-7.8,14.3-22,34.6-22c5.3,0,8.6,0.6,11.1,1.4v5.9c-2.7-1.2-6.5-1.7-11.4-1.7
		c-19.6,0-34.3,18.1-34.3,35v42.1h-6L454.8,97.2L454.8,97.2z"/>
	<path style="fill:#FFFFFF;" d="M529.6,66.4c0,2.9-2.2,5-5,5s-5-2.2-5-5c0-2.8,2.2-5,5-5S529.6,63.5,529.6,66.4z M527.6,177.9h-6
		V97.2h6V177.9z"/>
	<path style="fill:#FFFFFF;" d="M589.1,102.9h-19.6v75h-6v-75h-19.6v-5.6h19.6V72.2h6v25.1h19.6V102.9z"/>
	<path style="fill:#FFFFFF;" d="M596.9,137.6c0-24.1,16.6-42.3,39.2-42.3c22.6,0,39.2,18.3,39.2,42.3c0,0.9,0,2-0.1,2.7h-72
		c1.2,19.4,14.3,34,33,34c14.4,0,25.3-7.2,28.9-16.7h6.6c-4.5,12.8-18,22.3-35.6,22.3C613.4,179.9,596.9,161.6,596.9,137.6z
		 M669,134.7c-1.2-19.4-14.3-33.8-33-33.8s-31.8,14.4-33,33.8H669z"/>
	<path style="fill:#FFFFFF;" d="M759.5,116.2h-6c-0.4-8.8-12.5-15.6-28.2-15.6c-15.3,0-26.5,6.8-26.5,15.6c0,8.9,4.9,15.3,29.7,18.1
		c24.8,2.9,33.3,10.8,33.3,22.2c0,14.7-15.6,23.3-35.3,23.3c-22.2,0-34-10.5-35.3-22.2h6.2c0.9,7.6,9.4,16.7,29.5,16.7
		c16.4,0,28.8-7.2,28.8-17.6c0-9.2-6.6-14.3-30.7-17.3c-24.3-3-32.3-10.9-32.3-22.8c0-13.1,13.8-21.6,33-21.6
		C745.1,95.2,759,104.6,759.5,116.2z"/>
</g>
</svg>
