<?xml version="1.0" encoding="utf-8"?>
<!-- Generator: Adobe Illustrator 24.0.1, SVG Export Plug-In . SVG Version: 6.00 Build 0)  -->
<svg version="1.1" id="레이어_1" xmlns="http://www.w3.org/2000/svg" xmlns:xlink="http://www.w3.org/1999/xlink" x="0px"
	 y="0px" viewBox="0 0 850 250" style="enable-background:new 0 0 850 250;" xml:space="preserve">
<g>
	<path style="fill:#FFFFFF;" d="M6.3,65.8v108h67.2v5.8H0.1V65.8H6.3L6.3,65.8z"/>
	<path style="fill:#FFFFFF;" d="M83.3,139.2c0-24,16.6-42.4,39.2-42.4c19.2,0,31.6,12.2,34.8,21.4V99h6v80.6h-6v-19.4
		c-3.2,9-15.6,21.4-34.8,21.4C99.7,181.6,83.3,163.2,83.3,139.2z M157.3,139.2c0-20.8-14.2-36.8-34.4-36.8s-33.6,16-33.6,36.8
		s13.4,36.8,33.6,36.8S157.3,160,157.3,139.2z"/>
	<path style="fill:#FFFFFF;" d="M252.1,118h-6c-0.4-8.8-12.6-15.6-28.2-15.6c-15.2,0-26.4,6.8-26.4,15.6c0,9,4.8,15.2,29.6,18.2
		c24.8,2.8,33.2,10.8,33.2,22.2c0,14.6-15.6,23.4-35.2,23.4c-22.2,0-34-10.6-35.2-22.2h6.2c0.8,7.6,9.4,16.8,29.6,16.8
		c16.4,0,28.8-7.2,28.8-17.6c0-9.2-6.6-14.2-30.6-17.2c-24.4-3-32.2-11-32.2-22.8c0-13.2,13.8-21.6,33-21.6
		C237.7,96.8,251.7,106.2,252.1,118z"/>
	<path style="fill:#FFFFFF;" d="M310.1,104.6h-19.6v75h-6v-75h-19.6V99h19.6V74h6v25h19.6V104.6z"/>
	<path style="fill:#FFFFFF;" d="M365.9,65.8h37.6c29.6,0,46.8,14.6,46.8,37.4s-17.2,37.4-46.8,37.4h-31.4v38.8h-6.2V65.8z
		 M402.3,135c26,0,41.8-11,41.8-31.6c0-20.8-15.8-31.6-41.8-31.6h-30.2v63.4h30.2V135z"/>
	<path style="fill:#FFFFFF;" d="M474.1,179.6h-6V62.4h6V179.6z"/>
	<path style="fill:#FFFFFF;" d="M494.7,139.2c0-24,16.6-42.4,39.2-42.4c19.2,0,31.6,12.2,34.8,21.4V99h6v80.6h-6v-19.4
		c-3.2,9-15.6,21.4-34.8,21.4C511.3,181.6,494.7,163.2,494.7,139.2z M568.9,139.2c0-20.8-14.2-36.8-34.4-36.8s-33.6,16-33.6,36.8
		s13.4,36.8,33.6,36.8S568.9,160,568.9,139.2z"/>
	<path style="fill:#FFFFFF;" d="M671.7,99l-53.8,115.4h-6.4l16.8-36L591.5,99h6.6l33.6,72.6L665.3,99H671.7z"/>
	<path style="fill:#FFFFFF;" d="M679.3,139.2c0-24,16.6-42.4,39.2-42.4c22.6,0,39.2,18.2,39.2,42.4c0,0.8,0,2-0.2,2.8h-72
		c1.2,19.4,14.2,34,33,34c14.4,0,25.4-7.2,29-16.8h6.6c-4.4,12.8-18,22.4-35.6,22.4C695.9,181.6,679.3,163.2,679.3,139.2z
		 M751.5,136.4c-1.2-19.4-14.2-33.8-33-33.8s-31.8,14.4-33,33.8H751.5z"/>
	<path style="fill:#FFFFFF;" d="M770.1,139.2c0-24,16.6-42.4,39.2-42.4c19.2,0,31.6,12.2,34.8,21.4V62.4h6v117.2h-6v-19.4
		c-3.2,9-15.6,21.4-34.8,21.4C786.7,181.6,770.1,163.2,770.1,139.2z M844.1,139.2c0-20.8-14.2-36.8-34.4-36.8s-33.6,16-33.6,36.8
		s13.4,36.8,33.6,36.8C829.9,176,844.1,160,844.1,139.2z"/>
</g>
</svg>
