<?xml version="1.0" encoding="utf-8"?>
<!-- Generator: Adobe Illustrator 24.0.1, SVG Export Plug-In . SVG Version: 6.00 Build 0)  -->
<svg version="1.1" id="레이어_2_1_" xmlns="http://www.w3.org/2000/svg" xmlns:xlink="http://www.w3.org/1999/xlink" x="0px"
	 y="0px" viewBox="0 0 498.4 398.3" style="enable-background:new 0 0 498.4 398.3;" xml:space="preserve">
<g>
	<path style="fill:#FFFFFF;" d="M365.2,176.6c0-10.4,0-20.3,0-30c0-3.3-0.2-6.3-0.6-9.1c-4.7-31.5-31.3-54.3-63.2-54.3H196.7
		c-2.2,0-4.5,0.2-6.9,0.4c-32.3,3.5-56.7,30.6-56.7,63v105.1c0,3.3,0.2,6.3,0.6,9.1c4.7,31.5,31.3,54.3,63.2,54.3h104.3
		c2.7,0,5.1-0.1,7.2-0.4c32.3-3.5,56.7-30.6,56.7-63C365.2,223,365.2,198.3,365.2,176.6z M362.2,251.7L362.2,251.7
		c0,30.9-23.2,56.7-54,60.1c-2,0.3-4.2,0.4-6.8,0.4H197c-30.4,0-55.8-21.8-60.3-51.8c-0.4-2.7-0.6-5.5-0.6-8.7V146.6
		c0-30.9,23.2-56.7,54-60.1c2.2-0.2,4.5-0.4,6.6-0.4h104.6c30.4,0,55.8,21.8,60.3,51.8c0.4,2.7,0.6,5.5,0.6,8.7c0,9.7,0,19.6,0,30
		C362.2,198.3,362.2,223,362.2,251.7z"/>
</g>
<g>
	<path style="fill:#FFFFFF;" d="M318.3,197.3c-0.9-33-28.5-60.5-61.4-61.4c-0.6,0-1.2,0-1.8,0c-17.5,0-34.4,7.4-46.4,20.2
		c-12,12.8-17.9,29.5-16.9,47h-8.2c-1.5,0-2.8,0.9-3.3,2.2c-0.5,1.4-0.3,2.9,0.8,3.9l11.7,11.7c0.7,0.7,1.6,1.1,2.6,1.1
		c1,0,1.9-0.4,2.6-1.1l11.7-11.7c1.1-1.1,1.3-2.6,0.8-3.9c-0.5-1.4-1.8-2.2-3.3-2.2h-8c-1.1-15.6,4.2-30.5,14.8-42
		s25.7-18.1,41.3-18.1c0.2,0,0.5,0,0.7,0c30.1,0.4,54.9,25.2,55.3,55.3c0.2,15.2-5.5,29.5-16.2,40.2c-10.6,10.8-24.8,16.8-39.9,16.8
		c-12.4,0-24.6-4.2-34.3-11.9c-0.6-0.5-1.4-0.8-2.2-0.8c-0.9,0-1.8,0.4-2.5,1.1c-0.7,0.7-1.1,1.8-1.1,2.8c0,0.6,0.3,1.6,1.3,2.4l0,0
		c11.1,8.8,24.5,13.4,38.8,13.4c17.2,0,33.4-6.8,45.4-19.2C312.5,230.9,318.8,214.6,318.3,197.3z"/>
	<path style="fill:#FFFFFF;" d="M253.2,171.8c-1.6,0-3.1,1.4-3.1,3.1v27.5c0,1.7,1,3.3,2.4,4.3l23.3,13.8c0.5,0.3,1,0.4,1.6,0.4
		c1.1,0,2.1-0.5,2.6-1.4c0,0,0-0.1,0.1-0.1c0.8-1.5,0.3-3.3-1.1-4.2l-21.5-12.8c-0.8-0.5-1.2-1.3-1.2-2.2v-25.4
		C256.2,173.2,254.8,171.8,253.2,171.8z"/>
</g>
</svg>
