<?xml version="1.0" encoding="utf-8"?>
<!-- Generator: Adobe Illustrator 24.0.1, SVG Export Plug-In . SVG Version: 6.00 Build 0)  -->
<svg version="1.1" id="레이어_2_1_" xmlns="http://www.w3.org/2000/svg" xmlns:xlink="http://www.w3.org/1999/xlink" x="0px"
	 y="0px" viewBox="0 0 498.4 398.3" style="enable-background:new 0 0 498.4 398.3;" xml:space="preserve">
<g>
	<path style="fill:#FFFFFF;" d="M365.2,176.6c0-10.4,0-20.3,0-30c0-3.3-0.2-6.3-0.6-9.1c-4.7-31.5-31.3-54.3-63.2-54.3H196.7
		c-2.2,0-4.5,0.2-6.9,0.4c-32.3,3.5-56.7,30.6-56.7,63v105.1c0,3.3,0.2,6.3,0.6,9.1c4.7,31.5,31.3,54.3,63.2,54.3h104.3
		c2.7,0,5.1-0.1,7.2-0.4c32.3-3.5,56.7-30.6,56.7-63C365.2,223,365.2,198.3,365.2,176.6z M362.2,251.7L362.2,251.7
		c0,30.9-23.2,56.7-54,60.1c-2,0.3-4.2,0.4-6.8,0.4H197c-30.4,0-55.8-21.8-60.3-51.8c-0.4-2.7-0.6-5.5-0.6-8.7V146.6
		c0-30.9,23.2-56.7,54-60.1c2.2-0.2,4.5-0.4,6.6-0.4h104.6c30.4,0,55.8,21.8,60.3,51.8c0.4,2.7,0.6,5.5,0.6,8.7c0,9.7,0,19.6,0,30
		C362.2,198.3,362.2,223,362.2,251.7z"/>
</g>
<path style="fill:#FFFFFF;" d="M288.8,269.8c-1.6,0-3.2-0.4-4.7-1.2l-31.9-16.8c-1.8-0.9-4-0.9-5.7,0l-31.9,16.8
	c-3.4,1.7-7.5,1.5-10.6-0.7c-3.1-2.3-4.6-6-4-9.8l6.1-35.5c0.4-2-0.3-4.1-1.7-5.4L178.4,192c-2.8-2.7-3.7-6.6-2.6-10.2
	c1.2-3.7,4.3-6.3,8.1-6.8l35.7-5.2c2-0.3,3.8-1.6,4.6-3.4l15.9-32.3c1.7-3.4,5.2-5.6,9-5.6s7.3,2.1,9,5.6l15.9,32.3
	c0.9,1.8,2.7,3,4.6,3.4l35.7,5.2c3.8,0.6,6.9,3.1,8.1,6.8c1.2,3.7,0.2,7.5-2.6,10.2l-25.9,25.1c-1.5,1.4-2.1,3.5-1.7,5.4l6.1,35.5
	c0.6,3.8-0.9,7.5-4,9.8C292.8,269.2,290.8,269.8,288.8,269.8z M249.3,247.3c1.6,0,3.2,0.4,4.7,1.1l31.9,16.8
	c2.1,1.1,4.5,0.9,6.5-0.5c1.9-1.4,2.9-3.7,2.5-6.1l-6.1-35.5c-0.6-3.2,0.6-6.5,2.9-8.8l25.9-25.1c1.7-1.7,2.3-4.1,1.6-6.4
	c-0.7-2.3-2.6-3.9-5-4.2l-35.7-5.2c-3.2-0.5-6.1-2.5-7.5-5.4L255,135.6c-1.1-2.1-3.1-3.4-5.5-3.4s-4.5,1.3-5.5,3.4L228,167.9
	c-1.5,2.9-4.2,5-7.5,5.4l-35.7,5.2c-2.4,0.4-4.2,1.9-5,4.2s-0.2,4.6,1.6,6.4l25.9,25.1c2.4,2.3,3.4,5.6,2.9,8.8l-6.1,35.5
	c-0.4,2.4,0.6,4.6,2.5,6.1c1.9,1.4,4.3,1.6,6.5,0.5l31.9-16.8C246,247.7,247.7,247.3,249.3,247.3z"/>
</svg>
