<?xml version="1.0" encoding="utf-8"?>
<!-- Generator: Adobe Illustrator 24.0.1, SVG Export Plug-In . SVG Version: 6.00 Build 0)  -->
<svg version="1.1" id="Layer_3" xmlns="http://www.w3.org/2000/svg" xmlns:xlink="http://www.w3.org/1999/xlink" x="0px" y="0px"
	 viewBox="0 0 169.5 98.5" style="enable-background:new 0 0 169.5 98.5;" xml:space="preserve">
<g>
	<path style="fill:#FFFFFF;" d="M45.5,43c0-1-0.8-1.9-1.9-1.9c-1,0-1.9,0.8-1.9,1.9s0.8,1.9,1.9,1.9C44.7,44.8,45.5,44,45.5,43z"/>
	<path style="fill:#FFFFFF;" d="M48,67.9c0-1-0.8-1.9-1.9-1.9c-0.4,0-0.8,0.2-1.1,0.4c0.3-0.3,0.5-0.8,0.5-1.3c0-1-0.8-1.9-1.9-1.9
		c-1,0-1.9,0.8-1.9,1.9c0,1,0.8,1.9,1.9,1.9c0.4,0,0.8-0.2,1.1-0.4c-0.3,0.3-0.5,0.8-0.5,1.3c0,1,0.8,1.9,1.9,1.9
		C47.2,69.8,48,68.9,48,67.9z"/>
	<path style="fill:#FFFFFF;" d="M51.1,71.6c-0.4,0-0.8,0.1-1.1,0.4c0.3-0.3,0.5-0.8,0.5-1.2c0-1-0.8-1.9-1.9-1.9
		c-1,0-1.9,0.8-1.9,1.9s0.8,1.9,1.9,1.9c0.4,0,0.8-0.1,1.1-0.4c-0.3,0.3-0.5,0.8-0.5,1.2c0,1,0.8,1.9,1.9,1.9c1,0,1.9-0.8,1.9-1.9
		C52.9,72.4,52.1,71.6,51.1,71.6z"/>
	<path style="fill:#FFFFFF;" d="M43.1,62.3c0-1-0.8-1.9-1.9-1.9c-0.4,0-0.8,0.1-1.1,0.4c0.3-0.3,0.5-0.8,0.5-1.2
		c0-1-0.8-1.9-1.9-1.9c-1,0-1.9,0.8-1.9,1.9c0,0.4,0.2,0.8,0.4,1.1c-0.3-0.2-0.6-0.3-1-0.3c-0.4,0-0.8,0.1-1.1,0.4
		c0.3-0.3,0.5-0.8,0.5-1.2c0-1-0.8-1.9-1.9-1.9c-1,0-1.9,0.8-1.9,1.9c0,0.4,0.2,0.8,0.4,1.1c-0.3-0.2-0.6-0.3-1-0.3
		c-0.4,0-0.8,0.1-1.1,0.4c0.3-0.3,0.5-0.8,0.5-1.2c0-1-0.8-1.9-1.9-1.9c-1,0-1.9,0.8-1.9,1.9c0,0.4,0.2,0.8,0.4,1.1
		c-0.3-0.2-0.6-0.3-1-0.3c-0.4,0-0.8,0.1-1.1,0.4c0.3-0.3,0.5-0.8,0.5-1.2c0-1-0.8-1.9-1.9-1.9c-1,0-1.9,0.8-1.9,1.9
		c0,1,0.8,1.9,1.9,1.9c0.4,0,0.8-0.1,1.1-0.4c-0.3,0.3-0.5,0.8-0.5,1.2c0,1,0.8,1.9,1.9,1.9c1,0,1.9-0.8,1.9-1.9
		c0-0.4-0.2-0.8-0.4-1.1c0.3,0.2,0.6,0.3,1,0.3c0.4,0,0.8-0.1,1.1-0.4c-0.3,0.3-0.5,0.8-0.5,1.2c0,1,0.8,1.9,1.9,1.9
		c1,0,1.9-0.8,1.9-1.9c0-0.4-0.2-0.8-0.4-1.1c0.3,0.2,0.6,0.3,1,0.3c0.4,0,0.8-0.1,1.1-0.4c-0.3,0.3-0.5,0.8-0.5,1.2
		c0,1,0.8,1.9,1.9,1.9c1,0,1.9-0.8,1.9-1.9c0-0.4-0.2-0.8-0.4-1.1c0.3,0.2,0.6,0.3,1,0.3c0.4,0,0.8-0.1,1.1-0.4
		c-0.3,0.3-0.5,0.8-0.5,1.2c0,1,0.8,1.9,1.9,1.9C42.3,64.2,43.1,63.4,43.1,62.3z"/>
	<path style="fill:#FFFFFF;" d="M46.7,26.5c0,1,0.8,1.9,1.9,1.9c0.4,0,0.8-0.1,1.1-0.4c-0.3,0.3-0.5,0.8-0.5,1.2
		c0,1,0.8,1.9,1.9,1.9c1,0,1.9-0.8,1.9-1.9s-0.8-1.9-1.9-1.9c-0.4,0-0.8,0.1-1.1,0.4c0.3-0.3,0.5-0.8,0.5-1.2c0-1-0.8-1.9-1.9-1.9
		C47.5,24.6,46.7,25.4,46.7,26.5z"/>
	<path style="fill:#FFFFFF;" d="M38.7,68.9c-1,0-1.9,0.8-1.9,1.9s0.8,1.9,1.9,1.9c1,0,1.9-0.8,1.9-1.9S39.8,68.9,38.7,68.9z"/>
	<path style="fill:#FFFFFF;" d="M38.7,63.3c-1,0-1.9,0.8-1.9,1.9c0,0.4,0.2,0.8,0.4,1.2c-0.3-0.2-0.6-0.3-1-0.3
		c-1,0-1.9,0.8-1.9,1.9c0,1,0.8,1.9,1.9,1.9c1,0,1.9-0.8,1.9-1.9c0-0.4-0.2-0.8-0.4-1.2c0.3,0.2,0.6,0.3,1,0.3c1,0,1.9-0.8,1.9-1.9
		C40.6,64.1,39.8,63.3,38.7,63.3z"/>
	<path style="fill:#FFFFFF;" d="M51.1,60.5c-1,0-1.9,0.8-1.9,1.9c0,1,0.8,1.9,1.9,1.9c1,0,1.9-0.8,1.9-1.9
		C52.9,61.3,52.1,60.5,51.1,60.5z"/>
	<path style="fill:#FFFFFF;" d="M51.1,66c-1,0-1.9,0.8-1.9,1.9c0,1,0.8,1.9,1.9,1.9c1,0,1.9-0.8,1.9-1.9C52.9,66.9,52.1,66,51.1,66z
		"/>
	<path style="fill:#FFFFFF;" d="M51.1,44c-1,0-1.9,0.8-1.9,1.9c0,1,0.8,1.9,1.9,1.9c1,0,1.9-0.8,1.9-1.9C52.9,44.8,52.1,44,51.1,44z
		"/>
	<path style="fill:#FFFFFF;" d="M51.1,32.7c-1,0-1.9,0.8-1.9,1.9c0,1,0.8,1.9,1.9,1.9c1,0,1.9-0.8,1.9-1.9
		C52.9,33.6,52.1,32.7,51.1,32.7z"/>
	<path style="fill:#FFFFFF;" d="M51.1,25.5c1,0,1.9-0.8,1.9-1.9c0-1-0.8-1.9-1.9-1.9c-1,0-1.9,0.8-1.9,1.9
		C49.2,24.7,50,25.5,51.1,25.5z"/>
	<path style="fill:#FFFFFF;" d="M51.1,38.3c-0.4,0-0.8,0.1-1.1,0.4c0.3-0.3,0.5-0.8,0.5-1.2c0-1-0.8-1.9-1.9-1.9
		c-1,0-1.9,0.8-1.9,1.9c0,0.4,0.2,0.8,0.4,1.1c-0.3-0.2-0.6-0.3-1-0.3c-1,0-1.9,0.8-1.9,1.9c0,1,0.8,1.9,1.9,1.9
		c1,0,1.9-0.8,1.9-1.9c0-0.4-0.2-0.8-0.4-1.1c0.3,0.2,0.6,0.3,1,0.3c0.4,0,0.8-0.1,1.1-0.4c-0.3,0.3-0.5,0.8-0.5,1.2
		c0,1,0.8,1.9,1.9,1.9c1,0,1.9-0.8,1.9-1.9C52.9,39.1,52.1,38.3,51.1,38.3z"/>
	<path style="fill:#FFFFFF;" d="M51.1,49.5c-1,0-1.9,0.8-1.9,1.9c0,1,0.8,1.9,1.9,1.9c1,0,1.9-0.8,1.9-1.9
		C52.9,50.3,52.1,49.5,51.1,49.5z"/>
	<path style="fill:#FFFFFF;" d="M28.9,63.3c-1,0-1.9,0.8-1.9,1.9c0,0.4,0.2,0.8,0.4,1.2c-0.3-0.2-0.6-0.3-1-0.3
		c-1,0-1.9,0.8-1.9,1.9c0,1,0.8,1.9,1.9,1.9c1,0,1.9-0.8,1.9-1.9c0-0.4-0.2-0.8-0.4-1.2c0.3,0.2,0.6,0.3,1,0.3c1,0,1.9-0.8,1.9-1.9
		C30.8,64.1,29.9,63.3,28.9,63.3z"/>
	<path style="fill:#FFFFFF;" d="M51.1,54.9c-1,0-1.9,0.8-1.9,1.9c0,1,0.8,1.9,1.9,1.9c1,0,1.9-0.8,1.9-1.9
		C52.9,55.8,52.1,54.9,51.1,54.9z"/>
	<path style="fill:#FFFFFF;" d="M33.8,68.9c-1,0-1.9,0.8-1.9,1.9s0.8,1.9,1.9,1.9c1,0,1.9-0.8,1.9-1.9S34.8,68.9,33.8,68.9z"/>
	<path style="fill:#FFFFFF;" d="M28.9,44.8c1,0,1.9-0.8,1.9-1.9s-0.8-1.9-1.9-1.9c-1,0-1.9,0.8-1.9,1.9S27.9,44.8,28.9,44.8z"/>
	<path style="fill:#FFFFFF;" d="M29.5,45.8c0,1,0.8,1.9,1.9,1.9c1,0,1.9-0.8,1.9-1.9c0-1-0.8-1.9-1.9-1.9
		C30.4,44,29.5,44.8,29.5,45.8z"/>
	<path style="fill:#FFFFFF;" d="M35.7,43c0-1-0.8-1.9-1.9-1.9c-1,0-1.9,0.8-1.9,1.9s0.8,1.9,1.9,1.9C34.8,44.8,35.7,44,35.7,43z"/>
	<path style="fill:#FFFFFF;" d="M24.6,45.8c0,1,0.8,1.9,1.9,1.9c1,0,1.9-0.8,1.9-1.9c0-1-0.8-1.9-1.9-1.9
		C25.4,44,24.6,44.8,24.6,45.8z"/>
	<path style="fill:#FFFFFF;" d="M24,41.1c-1,0-1.9,0.8-1.9,1.9s0.8,1.9,1.9,1.9c1,0,1.9-0.8,1.9-1.9S25,41.1,24,41.1z"/>
	<path style="fill:#FFFFFF;" d="M14.1,68.9c-1,0-1.9,0.8-1.9,1.9s0.8,1.9,1.9,1.9c1,0,1.9-0.8,1.9-1.9S15.2,68.9,14.1,68.9z"/>
	<path style="fill:#FFFFFF;" d="M28.9,35.6c-1,0-1.9,0.8-1.9,1.9c0,1,0.8,1.9,1.9,1.9c0.4,0,0.8-0.1,1.1-0.4
		c-0.3,0.3-0.5,0.8-0.5,1.2c0,1,0.8,1.9,1.9,1.9c1,0,1.9-0.8,1.9-1.9c0-0.4-0.2-0.8-0.4-1.1c0.3,0.2,0.6,0.3,1,0.3
		c1,0,1.9-0.8,1.9-1.9c0-1-0.8-1.9-1.9-1.9c-1,0-1.9,0.8-1.9,1.9c0,0.4,0.2,0.8,0.4,1.1c-0.3-0.2-0.6-0.3-1-0.3
		c-0.4,0-0.8,0.1-1.1,0.4c0.3-0.3,0.5-0.8,0.5-1.2C30.8,36.4,29.9,35.6,28.9,35.6z"/>
	<path style="fill:#FFFFFF;" d="M18.5,51.4c0-0.4-0.2-0.8-0.4-1.1c0.3,0.2,0.6,0.3,1,0.3c0.4,0,0.8-0.1,1.1-0.4
		c-0.3,0.3-0.5,0.8-0.5,1.2c0,1,0.8,1.9,1.9,1.9c1,0,1.9-0.8,1.9-1.9c0-0.4-0.2-0.8-0.4-1.1c0.3,0.2,0.6,0.3,1,0.3
		c0.4,0,0.8-0.1,1.1-0.4c-0.3,0.3-0.5,0.8-0.5,1.2c0,1,0.8,1.9,1.9,1.9c1,0,1.9-0.8,1.9-1.9c0-0.4-0.2-0.8-0.4-1.1
		c0.3,0.2,0.6,0.3,1,0.3c0.4,0,0.8-0.1,1.1-0.4c-0.3,0.3-0.5,0.8-0.5,1.2c0,1,0.8,1.9,1.9,1.9c1,0,1.9-0.8,1.9-1.9
		c0-0.4-0.2-0.8-0.4-1.1c0.3,0.2,0.6,0.3,1,0.3c1,0,1.9-0.8,1.9-1.9c0-1-0.8-1.9-1.9-1.9c-1,0-1.9,0.8-1.9,1.9
		c0,0.4,0.2,0.8,0.4,1.1c-0.3-0.2-0.6-0.3-1-0.3c-0.4,0-0.8,0.1-1.1,0.4c0.3-0.3,0.5-0.8,0.5-1.2c0-1-0.8-1.9-1.9-1.9
		c-1,0-1.9,0.8-1.9,1.9c0,0.4,0.2,0.8,0.4,1.1c-0.3-0.2-0.6-0.3-1-0.3c-0.4,0-0.8,0.1-1.1,0.4c0.3-0.3,0.5-0.8,0.5-1.2
		c0-1-0.8-1.9-1.9-1.9c-1,0-1.9,0.8-1.9,1.9c0,0.4,0.2,0.8,0.4,1.1c-0.3-0.2-0.6-0.3-1-0.3c-0.4,0-0.8,0.1-1.1,0.4
		c0.3-0.3,0.5-0.8,0.5-1.2c0-1-0.8-1.9-1.9-1.9c-1,0-1.9,0.8-1.9,1.9c0,0.4,0.2,0.8,0.4,1.1c-0.3-0.2-0.6-0.3-1-0.3
		c-0.4,0-0.8,0.1-1.1,0.4c0.3-0.3,0.5-0.8,0.5-1.2c0-1-0.8-1.9-1.9-1.9c-1,0-1.9,0.8-1.9,1.9c0,1,0.8,1.9,1.9,1.9
		c0.4,0,0.8-0.1,1.1-0.4c-0.3,0.3-0.5,0.8-0.5,1.2c0,1,0.8,1.9,1.9,1.9C17.7,53.2,18.5,52.4,18.5,51.4z"/>
	<path style="fill:#FFFFFF;" d="M14.8,45.8c0,1,0.8,1.9,1.9,1.9c1,0,1.9-0.8,1.9-1.9c0-1-0.8-1.9-1.9-1.9
		C15.6,44,14.8,44.8,14.8,45.8z"/>
	<path style="fill:#FFFFFF;" d="M19.1,41.1c-1,0-1.9,0.8-1.9,1.9s0.8,1.9,1.9,1.9c1,0,1.9-0.8,1.9-1.9S20.1,41.1,19.1,41.1z"/>
	<path style="fill:#FFFFFF;" d="M24,68.9c-1,0-1.9,0.8-1.9,1.9s0.8,1.9,1.9,1.9c1,0,1.9-0.8,1.9-1.9S25,68.9,24,68.9z"/>
	<path style="fill:#FFFFFF;" d="M23.4,56.8c0-0.3-0.1-0.7-0.3-0.9c0.2,0.1,0.5,0.2,0.8,0.2c0.3,0,0.6-0.1,0.9-0.3
		c-0.2,0.3-0.3,0.6-0.3,1c0,1,0.8,1.9,1.9,1.9c1,0,1.9-0.8,1.9-1.9c0-0.3-0.1-0.7-0.3-0.9c0.2,0.1,0.5,0.2,0.8,0.2
		c0.3,0,0.6-0.1,0.9-0.3c-0.2,0.3-0.3,0.6-0.3,1c0,1,0.8,1.9,1.9,1.9c1,0,1.9-0.8,1.9-1.9c0-0.3-0.1-0.7-0.3-0.9
		c0.2,0.1,0.5,0.2,0.8,0.2c0.3,0,0.6-0.1,0.9-0.3c-0.2,0.3-0.3,0.6-0.3,1c0,1,0.8,1.9,1.9,1.9c1,0,1.9-0.8,1.9-1.9
		c0-1-0.8-1.9-1.9-1.9c-0.3,0-0.6,0.1-0.9,0.3c0.2-0.3,0.3-0.6,0.3-1c0-1-0.8-1.9-1.9-1.9c-1,0-1.9,0.8-1.9,1.9
		c0,0.3,0.1,0.7,0.3,0.9c-0.2-0.1-0.5-0.2-0.8-0.2c-0.3,0-0.6,0.1-0.9,0.3c0.2-0.3,0.3-0.6,0.3-1c0-1-0.8-1.9-1.9-1.9
		c-1,0-1.9,0.8-1.9,1.9c0,0.3,0.1,0.7,0.3,0.9c-0.2-0.1-0.5-0.2-0.8-0.2c-0.3,0-0.6,0.1-0.9,0.3c0.2-0.3,0.3-0.6,0.3-1
		c0-1-0.8-1.9-1.9-1.9c-1,0-1.9,0.8-1.9,1.9c0,0.3,0.1,0.7,0.3,0.9c-0.2-0.1-0.5-0.2-0.8-0.2c-0.3,0-0.6,0.1-0.9,0.3
		c0.2-0.3,0.3-0.6,0.3-1c0-1-0.8-1.9-1.9-1.9c-1,0-1.9,0.8-1.9,1.9s0.8,1.9,1.9,1.9c0.3,0,0.6-0.1,0.9-0.3c-0.2,0.3-0.3,0.6-0.3,1
		c0,1,0.8,1.9,1.9,1.9C22.6,58.7,23.4,57.8,23.4,56.8z"/>
	<path style="fill:#FFFFFF;" d="M40.6,43c0-1-0.8-1.9-1.9-1.9c-1,0-1.9,0.8-1.9,1.9s0.8,1.9,1.9,1.9C39.8,44.8,40.6,44,40.6,43z"/>
	<path style="fill:#FFFFFF;" d="M28.9,68.9c-1,0-1.9,0.8-1.9,1.9s0.8,1.9,1.9,1.9c1,0,1.9-0.8,1.9-1.9S29.9,68.9,28.9,68.9z"/>
	<path style="fill:#FFFFFF;" d="M14.1,41.1c-1,0-1.9,0.8-1.9,1.9s0.8,1.9,1.9,1.9c1,0,1.9-0.8,1.9-1.9S15.2,41.1,14.1,41.1z"/>
	<path style="fill:#FFFFFF;" d="M19.1,68.9c-1,0-1.9,0.8-1.9,1.9s0.8,1.9,1.9,1.9c1,0,1.9-0.8,1.9-1.9S20.1,68.9,19.1,68.9z"/>
	<path style="fill:#FFFFFF;" d="M19.7,45.8c0,1,0.8,1.9,1.9,1.9c1,0,1.9-0.8,1.9-1.9c0-1-0.8-1.9-1.9-1.9
		C20.5,44,19.7,44.8,19.7,45.8z"/>
	<path style="fill:#FFFFFF;" d="M11.7,47.7c1,0,1.9-0.8,1.9-1.9c0-1-0.8-1.9-1.9-1.9c-1,0-1.9,0.8-1.9,1.9
		C9.9,46.9,10.7,47.7,11.7,47.7z"/>
	<path style="fill:#FFFFFF;" d="M71,30.4c0-2.5-1.5-3.8-4.6-3.8c-1.4,0-2.6,0.1-3.7,0.3c0.1,1.4,0.2,3.9,0.2,7.4c0.5,0,1.1,0,1.6,0
		C68.8,34.4,71,33,71,30.4z"/>
	<path style="fill:#FFFFFF;" d="M11.7,25.5c1,0,1.9-0.8,1.9-1.9c0-1-0.8-1.9-1.9-1.9c-1,0-1.9,0.8-1.9,1.9
		C9.9,24.7,10.7,25.5,11.7,25.5z"/>
	<path style="fill:#FFFFFF;" d="M11.7,36.5c1,0,1.9-0.8,1.9-1.9c0-1-0.8-1.9-1.9-1.9c-1,0-1.9,0.8-1.9,1.9
		C9.9,35.6,10.7,36.5,11.7,36.5z"/>
	<path style="fill:#FFFFFF;" d="M11.7,31.1c1,0,1.9-0.8,1.9-1.9c0-0.4-0.2-0.8-0.4-1.1c0.3,0.2,0.6,0.3,1,0.3c1,0,1.9-0.8,1.9-1.9
		c0-1-0.8-1.9-1.9-1.9c-1,0-1.9,0.8-1.9,1.9c0,0.4,0.2,0.8,0.4,1.1c-0.3-0.2-0.6-0.3-1-0.3c-1,0-1.9,0.8-1.9,1.9
		S10.7,31.1,11.7,31.1z"/>
	<path style="fill:#FFFFFF;" d="M65.4,38.1c-0.9,0-1.7,0-2.4,0.1c0,3,0.1,5.7,0.2,8.2c0.5,0.1,1.2,0.2,2.1,0.2
		c2.5,0,4.3-0.3,5.5-0.9c1.2-0.6,1.7-1.7,1.7-3.3C72.5,39.5,70.1,38.1,65.4,38.1z"/>
	<path style="fill:#FFFFFF;" d="M11.7,42c1,0,1.9-0.8,1.9-1.9c0-0.4-0.2-0.8-0.4-1.1c0.3,0.2,0.6,0.3,1,0.3c0.4,0,0.8-0.1,1.1-0.4
		c-0.3,0.3-0.5,0.8-0.5,1.2c0,1,0.8,1.9,1.9,1.9c1,0,1.9-0.8,1.9-1.9c0-1-0.8-1.9-1.9-1.9c-0.4,0-0.8,0.1-1.1,0.4
		c0.3-0.3,0.5-0.8,0.5-1.2c0-1-0.8-1.9-1.9-1.9c-1,0-1.9,0.8-1.9,1.9c0,0.4,0.2,0.8,0.4,1.1c-0.3-0.2-0.6-0.3-1-0.3
		c-1,0-1.9,0.8-1.9,1.9C9.9,41.2,10.7,42,11.7,42z"/>
	<path style="fill:#FFFFFF;" d="M5.1,17.7v60.6h161.3V17.7H5.1z M55.5,76.9h-49V19h49V76.9z M69.8,64.5h-1.5v-9
		c0-0.1-0.1-0.1-0.1-0.1c-0.1,0-0.1,0-0.2,0.1l-3.2,9h-1.5l-3.2-9.1c0,0-0.1-0.1-0.1-0.1s-0.2,0.1-0.2,0.1v9h-1.5v-10h2.7l2.8,7.7
		c0,0.1,0.1,0.1,0.2,0.1c0.1,0,0.2-0.1,0.2-0.1l2.7-7.7h2.8V64.5z M77.6,55.5h-1.2v8.2h1.2v0.9h-4.1v-0.9h1.1v-8.2h-1.1v-0.9h4.1
		V55.5z M64.7,50.5c-1.5,0-3.9,0-7.2-0.1c0.2-4.3,0.3-9.1,0.3-14.4c0-5.1-0.1-9.5-0.3-13.2h3.3c0.6,0,1.7,0,3.1-0.1
		c1.5,0,2.6-0.1,3.4-0.1c6,0,9,2,9,6.1c0,3.1-1.5,5.2-4.6,6.2v0.3c1.6,0.3,3.1,0.9,4.3,2c1.2,1.1,1.8,2.7,1.8,4.8
		C78,47.7,73.5,50.5,64.7,50.5z M87.4,64c-1.1,0.9-2.4,0.9-2.9,0.9c-1.1,0-4.3-0.4-4.3-5.2c0-2.3,0.8-5.2,4.5-5.2
		c0.8,0,1.9,0.2,2.7,0.8c0.9,0.7,1.1,1.5,1.2,2l-1.7,0.2c-0.1-1-0.8-1.8-2.2-1.8c-1.3,0-1.9,0.8-2.2,1.3c-0.5,0.9-0.5,2.3-0.5,2.4
		c0,2.2,0.5,4.3,2.7,4.3c1,0,1.6-0.6,1.7-0.8c0.4-0.5,0.4-1,0.5-1.4l1.8,0.2C88.6,62.6,88.2,63.4,87.4,64z M99.1,64.5L96,60.1h-2
		v4.4h-1.8v-10h0h4.1c3.7,0,4.5,1.7,4.5,2.7c0,1.9-1.6,2.4-2.8,2.7l3.4,4.6H99.1z M89.6,50.5c-1.5,0-3.9,0-7.2-0.1
		c0.2-4.3,0.3-9.1,0.3-14.4c0-5.1-0.1-9.5-0.3-13.2h3.3c0.6,0,1.7,0,3.1-0.1c1.5,0,2.6-0.1,3.4-0.1c6,0,9,2,9,6.1
		c0,3.1-1.5,5.2-4.6,6.2v0.3c1.6,0.3,3.1,0.9,4.3,2c1.2,1.1,1.8,2.7,1.8,4.8C102.8,47.7,98.4,50.5,89.6,50.5z M107.4,64.8
		c-3.2,0-4.4-2.5-4.4-5.1c0-1.5,0.3-2.9,1.1-3.8c1.1-1.3,2.4-1.5,3.4-1.5c2.2,0,3.4,1.2,3.9,2.4c0.4,0.9,0.5,2,0.5,2.7
		C111.9,62,111,64.8,107.4,64.8z M125.9,50.2c-1.9,0.5-3.8,0.7-5.7,0.7c-4.6,0-8.2-1.3-10.6-4c-2.4-2.7-3.6-5.9-3.6-9.8
		c0-4,1.3-7.4,3.9-10.4c2.6-2.9,6.1-4.4,10.6-4.4c1.7,0,3.2,0.2,4.7,0.6l-0.7,4.9c-1.6-0.5-3.1-0.8-4.6-0.8c-2.8,0-4.8,0.9-6.1,2.7
		c-1.3,1.8-2,4-2,6.6c0,2.7,0.8,5,2.4,6.9c1.6,2,3.8,2.9,6.7,2.9c1.7,0,3.5-0.3,5.5-0.9L125.9,50.2z"/>
	<path style="fill:#FFFFFF;" d="M107.5,55.6c-1.1,0-1.8,0.6-2.2,1.5c-0.3,0.6-0.4,1.5-0.4,2.5c0,1.3,0.2,3.9,2.5,3.9
		c1.9,0,2.6-1.5,2.6-4C110,58.3,109.8,55.6,107.5,55.6z"/>
	<path style="fill:#FFFFFF;" d="M95.9,30.4c0-2.5-1.5-3.8-4.6-3.8c-1.4,0-2.6,0.1-3.7,0.3c0.1,1.4,0.2,3.9,0.2,7.4
		c0.5,0,1.1,0,1.6,0C93.7,34.4,95.9,33,95.9,30.4z"/>
	<path style="fill:#FFFFFF;" d="M98.8,57.4c0-1.2-1-1.7-3-1.7H94v0V59c1,0,2.3,0,3-0.1C97.7,58.8,98.8,58.5,98.8,57.4z"/>
	<path style="fill:#FFFFFF;" d="M90.3,38.1c-0.9,0-1.7,0-2.4,0.1c0,3,0.1,5.7,0.2,8.2c0.5,0.1,1.2,0.2,2.1,0.2
		c2.5,0,4.3-0.3,5.5-0.9c1.2-0.6,1.7-1.7,1.7-3.3C97.4,39.5,95,38.1,90.3,38.1z"/>
	<path style="fill:#FFFFFF;" d="M31.4,25.5c1,0,1.9-0.8,1.9-1.9c0-1-0.8-1.9-1.9-1.9c-1,0-1.9,0.8-1.9,1.9
		C29.5,24.7,30.4,25.5,31.4,25.5z"/>
	<path style="fill:#FFFFFF;" d="M26.5,25.5c1,0,1.9-0.8,1.9-1.9c0-1-0.8-1.9-1.9-1.9c-1,0-1.9,0.8-1.9,1.9
		C24.6,24.7,25.4,25.5,26.5,25.5z"/>
	<path style="fill:#FFFFFF;" d="M27,26.5c0,1,0.8,1.9,1.9,1.9c0.4,0,0.8-0.1,1.1-0.4c-0.3,0.3-0.5,0.8-0.5,1.2c0,1,0.8,1.9,1.9,1.9
		c1,0,1.9-0.8,1.9-1.9c0-0.4-0.2-0.8-0.4-1.1c0.3,0.2,0.6,0.3,1,0.3c1,0,1.9-0.8,1.9-1.9c0-1-0.8-1.9-1.9-1.9c-1,0-1.9,0.8-1.9,1.9
		c0,0.4,0.2,0.8,0.4,1.1c-0.3-0.2-0.6-0.3-1-0.3c-0.4,0-0.8,0.1-1.1,0.4c0.3-0.3,0.5-0.8,0.5-1.2c0-1-0.8-1.9-1.9-1.9
		C27.9,24.6,27,25.4,27,26.5z"/>
	<path style="fill:#FFFFFF;" d="M36.3,25.5c1,0,1.9-0.8,1.9-1.9c0-1-0.8-1.9-1.9-1.9c-1,0-1.9,0.8-1.9,1.9
		C34.4,24.7,35.3,25.5,36.3,25.5z"/>
	<path style="fill:#FFFFFF;" d="M46.1,25.5c1,0,1.9-0.8,1.9-1.9c0-1-0.8-1.9-1.9-1.9c-1,0-1.9,0.8-1.9,1.9
		C44.3,24.7,45.1,25.5,46.1,25.5z"/>
	<path style="fill:#FFFFFF;" d="M16.6,25.5c1,0,1.9-0.8,1.9-1.9c0-1-0.8-1.9-1.9-1.9c-1,0-1.9,0.8-1.9,1.9
		C14.8,24.7,15.6,25.5,16.6,25.5z"/>
	<path style="fill:#FFFFFF;" d="M36.9,32c0,1,0.8,1.9,1.9,1.9c0.3,0,0.6-0.1,0.9-0.2c-0.2,0.3-0.3,0.6-0.3,1c0,1,0.8,1.9,1.9,1.9
		c1,0,1.9-0.8,1.9-1.9c0-0.3-0.1-0.7-0.3-0.9c0.2,0.1,0.5,0.2,0.8,0.2c1,0,1.9-0.8,1.9-1.9c0-1-0.8-1.9-1.9-1.9
		c-1,0-1.9,0.8-1.9,1.9c0,0.3,0.1,0.7,0.3,0.9c-0.2-0.1-0.5-0.2-0.8-0.2c-0.3,0-0.6,0.1-0.9,0.3c0.2-0.3,0.3-0.6,0.3-1
		c0-1-0.8-1.9-1.9-1.9C37.7,30.1,36.9,31,36.9,32z"/>
	<path style="fill:#FFFFFF;" d="M41.2,31.1c1,0,1.9-0.8,1.9-1.9s-0.8-1.9-1.9-1.9c-1,0-1.9,0.8-1.9,1.9S40.2,31.1,41.2,31.1z"/>
	<path style="fill:#FFFFFF;" d="M17.2,32c0,1,0.8,1.9,1.9,1.9c0.3,0,0.6-0.1,0.9-0.2c-0.2,0.3-0.3,0.6-0.3,1c0,1,0.8,1.9,1.9,1.9
		c1,0,1.9-0.8,1.9-1.9c0-0.3-0.1-0.7-0.3-0.9c0.2,0.1,0.5,0.2,0.8,0.2c1,0,1.9-0.8,1.9-1.9c0-1-0.8-1.9-1.9-1.9
		c-1,0-1.9,0.8-1.9,1.9c0,0.3,0.1,0.7,0.3,0.9c-0.2-0.1-0.5-0.2-0.8-0.2c-0.3,0-0.6,0.1-0.9,0.3c0.2-0.3,0.3-0.6,0.3-1
		c0-1-0.8-1.9-1.9-1.9C18,30.1,17.2,31,17.2,32z"/>
	<path style="fill:#FFFFFF;" d="M21.6,31.1c1,0,1.9-0.8,1.9-1.9s-0.8-1.9-1.9-1.9c-1,0-1.9,0.8-1.9,1.9S20.5,31.1,21.6,31.1z"/>
	<path style="fill:#FFFFFF;" d="M41.2,25.5c1,0,1.9-0.8,1.9-1.9c0-1-0.8-1.9-1.9-1.9c-1,0-1.9,0.8-1.9,1.9
		C39.4,24.7,40.2,25.5,41.2,25.5z"/>
	<path style="fill:#FFFFFF;" d="M21.6,25.5c1,0,1.9-0.8,1.9-1.9c0-1-0.8-1.9-1.9-1.9c-1,0-1.9,0.8-1.9,1.9
		C19.7,24.7,20.5,25.5,21.6,25.5z"/>
</g>
</svg>
