<?xml version="1.0" encoding="utf-8"?>
<!-- Generator: Adobe Illustrator 24.0.1, SVG Export Plug-In . SVG Version: 6.00 Build 0)  -->
<svg version="1.1" id="Layer_4" xmlns="http://www.w3.org/2000/svg" xmlns:xlink="http://www.w3.org/1999/xlink" x="0px" y="0px"
	 viewBox="0 0 598.2 350.3" style="enable-background:new 0 0 598.2 350.3;" xml:space="preserve">
<g>
	<path style="fill:#FFFFFF;" d="M108.1,191.1c0,2,1.6,3.6,3.6,3.6c1.5,0,2.8-0.9,3.4-2.3c0.5,1.3,1.8,2.3,3.4,2.3
		c1.5,0,2.8-0.9,3.4-2.3c0.5,1.3,1.8,2.3,3.4,2.3c1.5,0,2.8-0.9,3.4-2.3c0.5,1.3,1.8,2.3,3.4,2.3c1.5,0,2.8-0.9,3.4-2.3
		c0.5,1.3,1.8,2.3,3.4,2.3c1.5,0,2.8-0.9,3.4-2.3c0.5,1.3,1.8,2.3,3.4,2.3c1.5,0,2.8-0.9,3.4-2.3c0.5,1.3,1.8,2.3,3.4,2.3
		c2,0,3.6-1.6,3.6-3.6V176c0-2-1.6-3.6-3.6-3.6c-1.5,0-2.8,0.9-3.4,2.3c-0.5-1.3-1.8-2.3-3.4-2.3c-1.5,0-2.8,0.9-3.4,2.3
		c-0.5-1.3-1.8-2.3-3.4-2.3c-1.5,0-2.8,0.9-3.4,2.3c-0.5-1.3-1.8-2.3-3.4-2.3c-1.5,0-2.8,0.9-3.4,2.3c-0.5-1.3-1.8-2.3-3.4-2.3
		c-1.5,0-2.8,0.9-3.4,2.3c-0.5-1.3-1.8-2.3-3.4-2.3c-1.5,0-2.8,0.9-3.4,2.3c-0.5-1.3-1.8-2.3-3.4-2.3c-2,0-3.6,1.6-3.6,3.6
		L108.1,191.1z"/>
	<path style="fill:#FFFFFF;" d="M98.8,331.9h385v-165h-385V331.9z M102.8,202.1h87.5c-0.1,0.3-0.2,0.5-0.2,0.8v17.4
		c0,0.1,0,0.2,0,0.3l-2,0c-0.3,0-0.6,0.1-0.8,0.2c-0.3-0.1-0.5-0.2-0.8-0.2l-18.3,0c-0.3,0-0.6,0.1-0.8,0.2
		c-0.3-0.1-0.5-0.2-0.8-0.2h-18.3c-1.3,0-2.4,1.1-2.4,2.4v17.4c0,0.5,0.1,0.9,0.4,1.3c-0.3,0.4-0.4,0.8-0.4,1.3l0,17.4
		c0,0.1,0,0.2,0,0.3h-3.7c-1.3,0-2.4,1.1-2.4,2.4v17.4c0,0.5,0.2,0.9,0.4,1.3c-0.3,0.4-0.4,0.8-0.4,1.3v17.4c0,1.3,1.1,2.4,2.4,2.4
		l18.3,0c0.3,0,0.6-0.1,0.8-0.2c0.3,0.1,0.5,0.2,0.8,0.2l28.1,0c0.3,0,0.6-0.1,0.8-0.2c0.3,0.1,0.5,0.2,0.8,0.2l17.1,0
		c0,0.1,0,0.2,0,0.3v17.4c0,1.3,1.1,2.4,2.4,2.4l159.2,0c1.3,0,2.4-1.1,2.4-2.4v-17.4c0-0.1,0-0.2,0-0.3l16.8,0
		c0.3,0,0.5-0.1,0.8-0.2c0.3,0.1,0.5,0.2,0.8,0.2l27.4,0c0.3,0,0.6-0.1,0.8-0.2c0.3,0.1,0.5,0.2,0.8,0.2h18.3c0.3,0,0.6-0.1,0.8-0.2
		c0.3,0.1,0.5,0.2,0.8,0.2l18.3,0c1,0,1.8-0.6,2.2-1.4h0.2v-18.4c0-0.5-0.2-1-0.4-1.3c0.1-0.1,0.1-0.2,0.2-0.3h0.2V263
		c0-0.1,0-0.2,0-0.3h13.8c1.3,0,2.4-1.1,2.4-2.4V243c0-1.3-1.1-2.4-2.4-2.4h-6.7c0-0.1,0-0.2,0-0.3V223c0-1.3-1.1-2.4-2.4-2.4h-18.3
		c-0.3,0-0.6,0.1-0.8,0.2c-0.3-0.1-0.5-0.2-0.8-0.2h-18.3c-0.3,0-0.6,0.1-0.8,0.2c-0.3-0.1-0.5-0.2-0.8-0.2h-13.1c0-0.1,0-0.2,0-0.3
		v-17.4c0-0.3-0.1-0.6-0.2-0.8h67.2v125.8h-377V202.1z M429,237.2c0.6,0.7,1.6,1.2,2.6,1.2l9.8,0c1.1,0,2-0.5,2.6-1.2v1.5H429
		L429,237.2z M432.2,234.5v-8.3h8.8v8.3L432.2,234.5z M460.9,226.1v8.3h-8.8v-8.3H460.9z M451.6,238.5h9.8c1.1,0,2-0.5,2.6-1.2v1.5
		H449l0-1.5C449.6,238,450.6,238.5,451.6,238.5z M445,294.6v-8.3h8.8v8.3H445z M441.9,297.4c0.6,0.7,1.6,1.2,2.6,1.2l9.8,0
		c1.1,0,2-0.5,2.6-1.2v1.5l-15.1,0V297.4z M155.8,286.3v8.3H147v-8.3L155.8,286.3z M143.8,297.4c0.6,0.7,1.6,1.2,2.6,1.2l9.8,0
		c1.1,0,2-0.5,2.6-1.2v1.5l-15.1,0V297.4z M181.8,226.2v8.3h-8.8v-8.3L181.8,226.2z M172.4,238.5l9.8,0c1.1,0,2-0.5,2.6-1.2v1.5
		h-15.1l0-1.5C170.4,238,171.4,238.5,172.4,238.5z M470,246.2v8.3l-8.8,0v-8.3H470z M206.1,206.1v8.3l-8.8,0v-8.3L206.1,206.1z
		 M194.1,217.2c0.6,0.7,1.6,1.2,2.6,1.2l9.8,0c1.1,0,2-0.5,2.6-1.2v1.5h-15.1V217.2z M376.1,294.6v-8.3l8.8,0v8.3H376.1z M373,297.4
		c0.6,0.7,1.6,1.2,2.6,1.2l9.8,0c1.1,0,2-0.5,2.6-1.2l0,1.5H373V297.4z M193.5,297.4c0.6,0.7,1.6,1.2,2.6,1.2l9.8,0
		c1.1,0,2-0.5,2.6-1.2v1.5h-15.1V297.4z M205.5,286.3v8.3h-8.8v-8.3L205.5,286.3z M170.8,246.2l0,8.3l-17.9,0v-8.3L170.8,246.2z
		 M201.7,226.2v8.3h-8.8v-8.3L201.7,226.2z M385.6,206.1v8.3h-8.8v-8.3L385.6,206.1z M376.3,218.4l9.8,0c1.1,0,2-0.5,2.6-1.2l0,1.5
		h-15.1v-1.5C374.3,217.9,375.2,218.4,376.3,218.4z M438.1,258.8v-1.5c0.6,0.7,1.6,1.2,2.6,1.2h9.8c1.1,0,2-0.5,2.6-1.2v1.5H438.1z
		 M441.2,254.5l0-8.3l8.8,0v8.3H441.2z M418.1,257.3c0.6,0.7,1.6,1.2,2.6,1.2l9.8,0c1.1,0,2-0.5,2.6-1.2l0,1.5h-15.1V257.3z
		 M421.3,254.5v-8.3h8.8v8.3L421.3,254.5z M213.5,297.4c0.6,0.7,1.6,1.2,2.6,1.2l9.8,0c1.1,0,2-0.5,2.6-1.2v1.5l-15.1,0V297.4z
		 M166.9,274.5v-8.3h8.8v8.3H166.9z M163.8,277.3c0.6,0.7,1.6,1.2,2.6,1.2h9.8c1.1,0,2-0.5,2.6-1.2v1.5h-15.1V277.3z M182,254.5
		v-8.3l8.8,0v8.3L182,254.5z M181.5,258.5l9.8,0c1.1,0,2-0.5,2.6-1.2v1.5h-15.1v-1.5C179.5,258,180.4,258.5,181.5,258.5z M226,206.1
		v8.3l-8.8,0v-8.3L226,206.1z M216.7,218.4l9.8,0c1.1,0,2-0.5,2.6-1.2v1.5h-15.1v-1.5C214.7,217.9,215.7,218.4,216.7,218.4z
		 M246,206.1v8.3l-8.8,0v-8.3L246,206.1z M236.7,218.4l9.8,0c1.1,0,2-0.5,2.6-1.2v1.5H234v-1.5C234.7,217.9,235.6,218.4,236.7,218.4
		z M392.3,234.5v-8.3l8.8,0v8.3L392.3,234.5z M391.8,238.5h9.8c1.1,0,2-0.5,2.6-1.2v1.5l-15.1,0v-1.5
		C389.8,238,390.7,238.5,391.8,238.5z M225.4,286.3v8.3h-8.8v-8.3L225.4,286.3z M209.7,237.2c0.6,0.7,1.6,1.2,2.6,1.2h9.8
		c1.1,0,2-0.5,2.6-1.2v1.5h-15.1V237.2z M398.2,258.8v-1.5c0.6,0.7,1.6,1.2,2.6,1.2l9.8,0c1.1,0,2-0.5,2.6-1.2l0,1.5L398.2,258.8z
		 M410.1,246.2v8.3h-8.8l0-8.3H410.1z M366.3,274.5v-8.3h8.8v8.3L366.3,274.5z M210.7,246.2v8.3h-8.8v-8.3H210.7z M198.8,257.3
		c0.6,0.7,1.6,1.2,2.6,1.2h9.8c1.1,0,2-0.5,2.6-1.2l0,1.5h-15.1V257.3z M253.4,297.4c0.6,0.7,1.6,1.2,2.6,1.2l9.8,0
		c1.1,0,2-0.5,2.6-1.2v1.5h-15.1L253.4,297.4z M233.4,297.4c0.6,0.7,1.6,1.2,2.6,1.2l9.8,0c1.1,0,2-0.5,2.6-1.2v1.5h-15.1
		L233.4,297.4z M372.3,234.5v-8.3h8.8v8.3H372.3z M371.8,238.5h9.8c1.1,0,2-0.5,2.6-1.2v1.5h-15.1v-1.5
		C369.8,238,370.8,238.5,371.8,238.5z M390.2,246.2v8.3l-8.8,0l0-8.3L390.2,246.2z M345.1,286.3v8.3h-8.8v-8.3L345.1,286.3z
		 M265.3,286.3v8.3h-8.8v-8.3L265.3,286.3z M241.6,226.2v8.3h-8.8v-8.3L241.6,226.2z M232.3,238.5l9.8,0c1.1,0,2-0.5,2.6-1.2v1.5
		h-15.1v-1.5C230.3,238,231.2,238.5,232.3,238.5z M341.3,226.2v8.3h-8.8v-8.3L341.3,226.2z M332,238.5l9.8,0c1.1,0,2-0.5,2.6-1.2
		l0,1.5h-15.1l0-1.5C330,238,331,238.5,332,238.5z M325.2,286.3v8.3h-8.8v-8.3L325.2,286.3z M285.3,286.3v8.3h-8.8v-8.3L285.3,286.3
		z M370.3,246.2v8.3l-8.8,0v-8.3L370.3,246.2z M255.5,266.2v8.3h-8.8v-8.3H255.5z M238.7,257.3c0.6,0.7,1.6,1.2,2.6,1.2l9.8,0
		c1.1,0,2-0.5,2.6-1.2v1.5l-15.1,0V257.3z M250.6,246.2v8.3l-8.8,0v-8.3L250.6,246.2z M350.4,246.2l0,8.3l-8.8,0l0-8.3L350.4,246.2z
		 M275.5,266.2v8.3l-8.8,0v-8.3H275.5z M290.5,246.2v8.3l-8.8,0v-8.3L290.5,246.2z M281.2,258.5l9.8,0c1.1,0,2-0.5,2.6-1.2v1.5
		h-15.1v-1.5C279.2,258,280.2,258.5,281.2,258.5z M318.5,258.8l0-1.5c0.6,0.7,1.6,1.2,2.6,1.2l9.8,0c1.1,0,2-0.5,2.6-1.2v1.5
		L318.5,258.8z M321.6,254.5v-8.3l8.8,0v8.3L321.6,254.5z M306.6,274.5v-8.3h8.8v8.3L306.6,274.5z M301.7,254.5l0-8.3h8.8v8.3H301.7
		z M301.2,258.5h9.8c1.1,0,2-0.5,2.6-1.2l0,1.5h-15.1v-1.5C299.2,258,300.1,258.5,301.2,258.5z M295.4,266.2v8.3l-8.8,0v-8.3H295.4z
		 M283.5,277.3c0.6,0.7,1.6,1.2,2.6,1.2l9.8,0c1.1,0,2-0.5,2.6-1.2v1.5h-15.1V277.3z M303.4,277.3c0.6,0.7,1.6,1.2,2.6,1.2l9.8,0
		c1.1,0,2-0.5,2.6-1.2l0,1.5h-15.1L303.4,277.3z M335.3,266.2v8.3l-8.8,0v-8.3H335.3z M261.8,254.5v-8.3l8.8,0v8.3L261.8,254.5z
		 M261.3,258.5l9.8,0c1.1,0,2-0.5,2.6-1.2l0,1.5h-15.1v-1.5C259.3,258,260.2,258.5,261.3,258.5z M323.4,277.3
		c0.6,0.7,1.6,1.2,2.6,1.2l9.8,0c1.1,0,2-0.5,2.6-1.2l0,1.5h-15.1V277.3z M263.5,277.3c0.6,0.7,1.6,1.2,2.6,1.2l9.8,0
		c1.1,0,2-0.5,2.6-1.2v1.5h-15.1L263.5,277.3z M338.4,258.8l0-1.5c0.6,0.8,1.6,1.2,2.7,1.2l9.8,0c1.1,0,2-0.5,2.6-1.2v1.5
		L338.4,258.8z M243.6,277.3c0.6,0.7,1.6,1.2,2.6,1.2h9.8c1.1,0,2-0.5,2.6-1.2l0,1.5h-15.1V277.3z M305.2,286.3v8.3h-8.8v-8.3
		L305.2,286.3z M361.3,226.2v8.3l-8.8,0v-8.3L361.3,226.2z M352,238.5l9.8,0c1.1,0,2-0.5,2.6-1.2l0,1.5h-15.1v-1.5
		C350,238,350.9,238.5,352,238.5z M321.4,226.2v8.3h-8.8v-8.3L321.4,226.2z M312.1,238.5l9.8,0c1.1,0,2-0.5,2.6-1.2v1.5h-15.1l0-1.5
		C310.1,238,311,238.5,312.1,238.5z M301.4,226.2v8.3h-8.8v-8.3L301.4,226.2z M292.1,238.5l9.8,0c1.1,0,2-0.5,2.6-1.2v1.5h-15.1
		v-1.5C290.1,238,291.1,238.5,292.1,238.5z M281.5,226.2v8.3h-8.8v-8.3L281.5,226.2z M272.2,238.5l9.8,0c1.1,0,2-0.5,2.6-1.2v1.5
		h-15.1l0-1.5C270.2,238,271.1,238.5,272.2,238.5z M261.5,226.2v8.3h-8.8v-8.3L261.5,226.2z M252.2,238.5l9.8,0c1.1,0,2-0.5,2.6-1.2
		l0,1.5h-15.1v-1.5C250.2,238,251.2,238.5,252.2,238.5z M230.7,246.2v8.3l-8.8,0l0-8.3L230.7,246.2z M218.7,257.3
		c0.6,0.7,1.6,1.2,2.6,1.2l9.8,0c1.1,0,2-0.5,2.6-1.2v1.5l-15.1,0V257.3z M235.6,266.2v8.3l-8.8,0v-8.3H235.6z M273.3,297.4
		c0.6,0.7,1.6,1.2,2.6,1.2l9.8,0c1.1,0,2-0.5,2.6-1.2v1.5l-15.1,0V297.4z M293.3,298.9v-1.5c0.6,0.7,1.6,1.2,2.6,1.2l9.8,0
		c1.1,0,2-0.5,2.6-1.2l0,1.5H293.3z M355.3,266.2v8.3l-8.8,0v-8.3H355.3z M358.4,257.3c0.6,0.7,1.6,1.2,2.6,1.2l9.8,0
		c1.1,0,2-0.5,2.6-1.2l0,1.5l-15.1,0L358.4,257.3z M223.6,277.3c0.6,0.7,1.6,1.2,2.6,1.2l9.8,0c1.1,0,2-0.5,2.6-1.2l0,1.5h-15.1
		V277.3z M245.4,286.3v8.3h-8.8v-8.3L245.4,286.3z M313.2,298.9l0-1.5c0.6,0.7,1.6,1.2,2.6,1.2l9.8,0c1.1,0,2-0.5,2.6-1.2l0,1.5
		L313.2,298.9z M343.3,278.8l0-1.5c0.6,0.7,1.6,1.2,2.6,1.2l9.8,0c1.1,0,2-0.5,2.6-1.2l0,1.5H343.3z M378.2,257.3
		c0.6,0.7,1.6,1.2,2.6,1.2l9.8,0c1.1,0,2-0.5,2.6-1.2v1.5h-15.1V257.3z M333.2,298.9v-1.5c0.6,0.7,1.6,1.2,2.6,1.2l9.8,0
		c1.1,0,2-0.5,2.6-1.2v1.5L333.2,298.9z M212.8,234.5v-8.3h8.8v8.3H212.8z M215.6,266.2v8.3l-8.8,0v-8.3H215.6z M395.1,266.2v8.3
		l-8.8,0v-8.3H395.1z M365.7,206.1v8.3h-8.8v-8.3L365.7,206.1z M353.7,217.2c0.6,0.7,1.6,1.2,2.6,1.2h9.8c1.1,0,2-0.5,2.6-1.2v1.5
		h-15.1L353.7,217.2z M333.8,217.2c0.6,0.7,1.6,1.2,2.6,1.2h9.8c1.1,0,2-0.5,2.6-1.2v1.5h-15.1L333.8,217.2z M336.9,214.4v-8.3h8.8
		v8.3H336.9z M313.8,217.2c0.6,0.7,1.6,1.2,2.6,1.2l9.8,0c1.1,0,2-0.5,2.6-1.2l0,1.5h-15.1L313.8,217.2z M317,214.4v-8.3l8.8,0v8.3
		L317,214.4z M305.8,206.1v8.3l-8.8,0v-8.3L305.8,206.1z M296.5,218.4l9.8,0c1.1,0,2-0.5,2.6-1.2l0,1.5h-15.1v-1.5
		C294.5,217.9,295.5,218.4,296.5,218.4z M285.9,206.1v8.3h-8.8v-8.3H285.9z M276.6,218.4h9.8c1.1,0,2-0.5,2.6-1.2v1.5h-15.1v-1.5
		C274.6,217.9,275.5,218.4,276.6,218.4z M254,217.2c0.6,0.7,1.6,1.2,2.6,1.2h9.8c1.1,0,2-0.5,2.6-1.2v1.5H254V217.2z M257.1,214.4
		v-8.3h8.8v8.3H257.1z M195.7,266.2v8.3l-8.8,0v-8.3H195.7z M203.7,277.3c0.6,0.7,1.6,1.2,2.6,1.2l9.8,0c1.1,0,2-0.5,2.6-1.2v1.5
		h-15.1L203.7,277.3z M365.1,286.3v8.3h-8.8v-8.3H365.1z M363.2,277.3c0.6,0.7,1.6,1.2,2.6,1.2l9.8,0c1.1,0,2-0.5,2.6-1.2l0,1.5
		h-15.1V277.3z M383.1,277.3c0.6,0.7,1.6,1.2,2.6,1.2l9.8,0c1.1,0,2-0.5,2.6-1.2v1.5h-15.1L383.1,277.3z M406.2,274.5v-8.3l8.8,0
		v8.3H406.2z M403.1,277.3c0.6,0.7,1.6,1.2,2.6,1.2h9.8c1.1,0,2-0.5,2.6-1.2l0,1.5h-15.1V277.3z M183.7,277.3
		c0.6,0.7,1.6,1.2,2.6,1.2l9.8,0c1.1,0,2-0.5,2.6-1.2v1.5h-15.1L183.7,277.3z M353.1,298.9v-1.5c0.6,0.7,1.6,1.2,2.6,1.2h9.8
		c1.1,0,2-0.5,2.6-1.2v1.5H353.1z M426.2,274.5v-8.3h27.6v8.3H426.2z M149.9,257.3c0.6,0.7,1.6,1.2,2.6,1.2l18.8,0
		c1.1,0,2-0.5,2.6-1.2v1.5h-24.1V257.3z M143.8,277.3c0.6,0.7,1.6,1.2,2.6,1.2l9.8,0c1.1,0,2-0.5,2.6-1.2v1.5h-15.1V277.3z
		 M147,274.5v-8.3h8.8v8.3L147,274.5z M163.8,297.4c0.6,0.7,1.6,1.2,2.6,1.2l19.6,0c1.1,0,2-0.5,2.6-1.2v1.5h-24.9V297.4z
		 M166.9,294.6v-8.3l18.6,0v8.3H166.9z M365.8,306.3v8.3H216.1v-8.3H365.8z M392.9,297.4c0.6,0.7,1.6,1.2,2.6,1.2l18.8,0
		c1.1,0,2-0.5,2.6-1.2v1.5h-24.1V297.4z M396.1,294.6v-8.3l17.9,0v8.3H396.1z M456.9,278.8l-33.9,0l0-1.5c0.6,0.7,1.6,1.2,2.6,1.2
		h28.6c1.1,0,2-0.5,2.6-1.2V278.8z M192.4,238.5l9.8,0c1.1,0,2-0.5,2.6-1.2v1.5h-15.1l0-1.5C190.4,238,191.3,238.5,192.4,238.5z
		 M213,317.4c0.6,0.7,1.6,1.2,2.6,1.2h150.7c1.1,0,2-0.5,2.6-1.2v1.5H213V317.4z M433.9,286.3v8.3l-8.8,0v-8.3L433.9,286.3z
		 M421.9,297.4c0.6,0.7,1.6,1.2,2.6,1.2h9.8c1.1,0,2-0.5,2.6-1.2v1.5h-15.1L421.9,297.4z M458,257.3c0.6,0.7,1.6,1.2,2.6,1.2l9.8,0
		c1.1,0,2-0.5,2.6-1.2v1.5H458L458,257.3z M424.2,238.7h-15.1v-1.5c0.6,0.7,1.6,1.2,2.6,1.2l9.8,0c1.1,0,2-0.5,2.6-1.2L424.2,238.7z
		 M412.2,234.5v-8.3h8.8v8.3H412.2z M396.8,214.4v-8.3l8.8,0v8.3H396.8z M396.3,218.4h9.8c1.1,0,2-0.5,2.6-1.2l0,1.5h-15.1v-1.5
		C394.3,217.9,395.2,218.4,396.3,218.4z M161.8,226.2v8.3H153v-8.3L161.8,226.2z M152.5,238.5l9.8,0c1.1,0,2-0.5,2.6-1.2v1.5h-15.1
		v-1.5C150.5,238,151.4,238.5,152.5,238.5z M478.5,171.8h0.5v25.4h-0.5V171.8z M474.5,198.1H107.8v-27.2h366.6V198.1z M103.8,171.7
		v25.4h-0.5v-25.4H103.8z"/>
	<path style="fill:#FFFFFF;" d="M154.8,316.4c-2.8,0-5.2,2.3-5.2,5.2s2.3,5.2,5.2,5.2c2.8,0,5.2-2.3,5.2-5.2
		S157.6,316.4,154.8,316.4z M154.8,322.7c-0.6,0-1.2-0.5-1.2-1.2c0-0.6,0.5-1.2,1.1-1.2c0.6,0,1.2,0.5,1.2,1.2
		C155.9,322.2,155.4,322.7,154.8,322.7z"/>
	<path style="fill:#FFFFFF;" d="M175.4,316.4c-2.8,0-5.2,2.3-5.2,5.2s2.3,5.2,5.2,5.2c2.8,0,5.2-2.3,5.2-5.2
		S178.2,316.4,175.4,316.4z M175.4,322.7c-0.6,0-1.2-0.5-1.2-1.2c0-0.6,0.5-1.2,1.1-1.2c0.6,0,1.2,0.5,1.2,1.2
		C176.6,322.2,176,322.7,175.4,322.7z"/>
	<path style="fill:#FFFFFF;" d="M196,316.4c-2.8,0-5.2,2.3-5.2,5.2c0,2.8,2.3,5.2,5.2,5.2c2.8,0,5.2-2.3,5.2-5.2
		C201.2,318.7,198.9,316.4,196,316.4z M194.9,321.5c0-0.6,0.5-1.2,1.1-1.2c0.6,0,1.2,0.5,1.2,1.2c0,0.6-0.5,1.2-1.2,1.2
		C195.4,322.7,194.9,322.2,194.9,321.5z"/>
	<path style="fill:#FFFFFF;" d="M506.5,154.8L506.5,154.8L495.3,14.9c0-4-3.3-7.2-7.3-7.2H94.5c-4,0-7.2,3.2-7.3,7.1l-11.3,141
		v182.6c0,4,3.3,7.3,7.3,7.3l416.1,0c4,0,7.3-3.3,7.3-7.3l0-181.6l0.1,0L506.5,154.8z M491.3,15l11.3,141v182.4
		c0,1.8-1.5,3.3-3.3,3.3l-416.1,0c-1.8,0-3.3-1.5-3.3-3.3l0-182.4L91.2,15v0c0-1.8,1.5-3.3,3.3-3.3H488
		C489.8,11.7,491.3,13.2,491.3,15z"/>
</g>
</svg>
