<?xml version="1.0" encoding="utf-8"?>
<!-- Generator: Adobe Illustrator 24.0.1, SVG Export Plug-In . SVG Version: 6.00 Build 0)  -->
<svg version="1.1"
	 id="svg2" inkscape:version="0.91 r13725" sodipodi:docname="c64.svg" xmlns:cc="http://creativecommons.org/ns#" xmlns:dc="http://purl.org/dc/elements/1.1/" xmlns:inkscape="http://www.inkscape.org/namespaces/inkscape" xmlns:rdf="http://www.w3.org/1999/02/22-rdf-syntax-ns#" xmlns:sodipodi="http://sodipodi.sourceforge.net/DTD/sodipodi-0.dtd" xmlns:svg="http://www.w3.org/2000/svg"
	 xmlns="http://www.w3.org/2000/svg" xmlns:xlink="http://www.w3.org/1999/xlink" x="0px" y="0px" viewBox="0 0 566.9 119"
	 style="enable-background:new 0 0 566.9 119;" xml:space="preserve">
<sodipodi:namedview  bordercolor="#666666" borderopacity="1" gridtolerance="10" guidetolerance="10" id="namedview20" inkscape:current-layer="g3" inkscape:cx="221.72113" inkscape:cy="37.687769" inkscape:pageopacity="0" inkscape:pageshadow="2" inkscape:window-height="480" inkscape:window-width="640" inkscape:zoom="1.0160002" objecttolerance="10" pagecolor="#ffffff" showgrid="false">
	</sodipodi:namedview>
<g id="g3">
	<g id="g4387">
		<path id="path1922" style="fill:#FFFFFF;" d="M56.3,42.7h36L76.6,59.1H56.3V42.7z"/>
		<path id="path3805" style="fill:#FFFFFF;" d="M56.3,79.8h36L76.5,63.4H56.3V79.8z"/>
		<path id="path4382" style="fill:#FFFFFF;" d="M55.5,19.7v20.7c-3.7-2.3-7.8-3.4-12.3-3.4c-4.3,0-8.3,1.1-12,3.3
			c-3.7,2.2-6.6,5.1-8.7,8.9c-2.1,3.7-3.2,7.7-3.2,12c0,4.3,1.1,8.3,3.2,12c2.1,3.7,5,6.6,8.7,8.7c3.7,2.1,7.7,3.2,12,3.2
			c4.5,0,8.6-1.1,12.3-3.3v20.8c-4,1.2-8.1,1.8-12.3,1.8c-7.7,0-14.9-1.9-21.6-5.8C15,94.7,9.7,89.4,5.8,82.8
			C1.9,76.1,0,68.9,0,61.1c0-5.8,1.1-11.3,3.4-16.6c2.3-5.3,5.4-10,9.4-14c4-4,8.6-7.1,13.8-9.3c5.2-2.2,10.7-3.3,16.7-3.3
			C47.3,18,51.4,18.6,55.5,19.7"/>
	</g>
	<g id="g4407">
		<path id="path4040" style="fill:#FFFFFF;" d="M566.3,46.6c0.3,0.3,0.5,0.8,0.6,1.6c0,0.4,0.1,1.3,0.1,1.9c0,2.1-0.1,3-0.6,3.5
			c-0.5,0.5-1.4,0.7-4,0.7c-2.2,0-3.7-0.1-4.3-0.2c-0.7-0.1-1.2-0.7-1.3-1.3c-0.1-0.5-0.2-1.3-0.2-2.7c0-2.2,0.2-3.1,0.8-3.6
			c0.4-0.3,0.9-0.4,2-0.5c0.5,0,1.9-0.1,2.6-0.1C564.8,45.9,565.7,46.1,566.3,46.6 M557.5,50c0,1.9,0,2.6,0.4,2.9
			c0.3,0.3,0.6,0.4,1.5,0.4l2.4,0.1c1.3,0,2.7-0.1,3.1-0.2c0.4-0.1,0.7-0.4,0.9-0.9c0.1-0.5,0.1-1.3,0.1-2.3c0-1.8-0.1-2.5-0.4-2.8
			c-0.4-0.4-0.9-0.5-4.2-0.5C557.5,46.8,557.5,46.9,557.5,50 M558.5,47.7h3.8c1.8,0,1.8,0,2.1,0.2c0.4,0.2,0.6,0.6,0.6,1.4
			c0,1-0.2,1.3-0.9,1.4c0.5,0.1,0.7,0.2,0.8,0.5c0,0.2,0.1,0.3,0.1,1v0.5h-1.7v-0.3c0-0.9,0-0.9-1-0.9h-2.1v1.2h-1.7L558.5,47.7
			L558.5,47.7z M562.3,50c1,0,1,0,1-0.5c0-0.5,0-0.5-1-0.5h-2.1V50L562.3,50L562.3,50z"/>
		<path id="path4340" style="fill:#FFFFFF;" d="M151.5,64.3c-0.2,5.1-0.8,7.4-2.8,9.4c-2.9,3-6.7,3.8-18.8,3.8
			c-9.4,0-13.4-0.7-16.4-2.9c-3-2.1-4-5.4-4-13.5c0-7.4,0.9-10.7,3.6-12.9c2.9-2.4,6.9-3.1,17.3-3.1c10.2,0,14.7,0.8,17.6,3.2
			c2.5,1.9,3.3,4.4,3.5,10.1h-11.7c-0.4-3.5-2.7-4.7-9.4-4.7c-8,0-9.5,1.2-9.5,7.7c0,4,0.6,5.6,2.7,6.4c1.4,0.6,3.8,0.9,6.9,0.9
			c6.8,0,8.7-0.9,9.2-4.4L151.5,64.3L151.5,64.3z"/>
		<path id="path4342" style="fill:#FFFFFF;" d="M193.4,48c3.1,2.3,4,5.1,4,12.8c0,8.4-0.8,11.3-3.6,13.6c-2.9,2.4-6.8,3.1-18.1,3.1
			c-11.5,0-15.3-0.7-18.2-3.1c-2.9-2.3-3.6-5.2-3.6-14.1c0-7.2,0.9-10.1,4-12.3c2.8-2.1,7.3-2.8,17.8-2.8
			C186.1,45.2,190.6,45.9,193.4,48 M165.3,61.5c0,4.1,0.5,5.5,2.6,6.3c1.4,0.6,4,1,7.7,1c8.7,0,10.2-1.1,10.2-7.6
			c0-4.2-0.7-5.6-2.8-6.5c-1.5-0.6-4.2-0.9-7.4-0.9C166.9,53.8,165.3,55,165.3,61.5"/>
		<path id="path4344" style="fill:#FFFFFF;" d="M210.5,46v4.6h0.6c1.7-3.7,5.6-5.4,12.4-5.4c7.4,0,11.5,1.9,14,6.4
			c2-4.6,5.7-6.4,13.2-6.4c6.4,0,10.2,1.2,12.8,4c2.7,2.7,3.3,5.3,3.3,13.2v14.4h-11.5V62.3c-0.1-5.1-0.2-5.7-1.3-6.8
			c-1.1-1.2-3.1-1.7-6.5-1.7c-3.5,0-5.6,0.6-6.8,2c-1.3,1.4-1.7,3.2-1.7,8.2v12.7h-11.5V62.3c0-4.8-0.1-5.6-1.2-6.8
			c-1.1-1.2-3.1-1.7-6.4-1.7c-3.5,0-5.7,0.6-7,1.9c-1.3,1.3-1.7,3.3-1.7,8.3v12.7h-11.5V46H210.5z"/>
		<path id="path4346" style="fill:#FFFFFF;" d="M280.3,46v4.6h0.5c1.7-3.7,5.6-5.4,12.4-5.4c7.4,0,11.5,1.9,14,6.4
			c2-4.6,5.7-6.4,13.3-6.4c6.4,0,10.1,1.2,12.8,4c2.7,2.7,3.3,5.3,3.3,13.2v14.4H325V62.3c0-5.1-0.2-5.7-1.3-6.8
			c-1.2-1.2-3.1-1.7-6.5-1.7c-3.4,0-5.6,0.6-6.8,2c-1.3,1.4-1.7,3.2-1.7,8.2v12.7h-11.5V62.3c0-4.8-0.1-5.6-1.2-6.8
			c-1.1-1.2-3.1-1.7-6.4-1.7c-3.4,0-5.7,0.6-7,1.9c-1.3,1.3-1.7,3.3-1.7,8.3v12.7h-11.5V46H280.3z"/>
		<path id="path4348" style="fill:#FFFFFF;" d="M378.6,48c3.1,2.3,3.9,5.1,3.9,12.8c0,8.4-0.8,11.3-3.6,13.6
			c-2.9,2.4-6.7,3.1-18.1,3.1c-11.5,0-15.3-0.7-18.2-3.1c-2.8-2.3-3.6-5.2-3.6-14.1c0-7.2,0.9-10.1,4-12.3c2.8-2.1,7.3-2.8,17.8-2.8
			C371.3,45.2,375.7,45.9,378.6,48 M350.5,61.5c0,4.1,0.5,5.5,2.6,6.3c1.4,0.6,4,1,7.7,1c8.7,0,10.2-1.1,10.2-7.6
			c0-4.2-0.6-5.6-2.8-6.5c-1.4-0.6-4.2-0.9-7.4-0.9C352,53.8,350.5,55,350.5,61.5"/>
		<path id="path4350" style="fill:#FFFFFF;" d="M428.3,76.7h-10.8v-4h-0.6c-2.2,3.7-5.3,4.8-13.6,4.8c-8.3,0-12.3-0.9-14.9-3.3
			c-2.5-2.3-3.3-5.5-3.3-13.1c0-7.8,1.2-11.5,4.5-13.6c2.8-1.8,6-2.3,13.9-2.3c8.1,0,10.7,1,12.9,4.9h0.5V33.4h11.5L428.3,76.7
			L428.3,76.7L428.3,76.7z M396.6,61c0,6.7,1.3,7.8,9.9,7.8c4.2,0,7.3-0.5,8.7-1.4c1.3-0.9,1.7-2.5,1.7-6c0-6.3-1.5-7.5-9.7-7.5
			C398.1,53.7,396.6,54.8,396.6,61"/>
		<path id="path4352" style="fill:#FFFFFF;" d="M469.9,48c3.1,2.3,4,5.1,4,12.8c0,8.4-0.8,11.3-3.6,13.6c-2.9,2.4-6.8,3.1-18.1,3.1
			c-11.5,0-15.3-0.7-18.2-3.1c-2.9-2.3-3.6-5.2-3.6-14.1c0-7.2,0.9-10.1,3.9-12.3c2.9-2.1,7.4-2.8,17.8-2.8
			C462.7,45.2,467.1,45.9,469.9,48 M441.9,61.5c0,4.1,0.5,5.5,2.6,6.3c1.4,0.6,4,1,7.7,1c8.7,0,10.2-1.1,10.2-7.6
			c0-4.2-0.6-5.6-2.8-6.5c-1.4-0.6-4.2-0.9-7.4-0.9C443.5,53.8,441.9,55,441.9,61.5"/>
		<path id="path4354" style="fill:#FFFFFF;" d="M487.1,46v4.6h0.6c2.1-3.9,5.4-5.4,11.8-5.4c9.2,0,12.4,3.1,12.4,12.3v2.1h-10.8
			c0-4.6-1.3-5.8-6-5.8c-2.6,0-4.8,0.8-5.9,2.2c-1.1,1.5-1.4,3.2-1.4,7.9v12.7h-11.5V46H487.1z"/>
		<path id="path4356" style="fill:#FFFFFF;" d="M555.1,66.9c-0.9,8.5-5.1,10.6-21.5,10.6c-8.9,0-13.1-0.8-15.9-2.9
			c-3-2.3-3.9-5.3-3.9-13.2c0-8.2,0.9-11.3,4.1-13.6c3-2.1,6.8-2.7,16.8-2.7c10.3,0,14,0.6,16.8,2.9c2.7,2.3,3.8,5.7,3.8,12.7
			c0,0.4,0,1.8,0,3.1h-30c0,3.1,0.4,4.2,1.5,5c1.2,0.9,3.6,1.3,7.8,1.3c7.3,0,8.7-0.5,9.2-3.3L555.1,66.9L555.1,66.9z M543.8,57.5
			c-0.1-2.4-0.2-3-0.9-3.7c-1.1-1.1-3.4-1.6-7.9-1.6c-7.7,0-9.6,1-9.7,5.3C525.2,57.5,543.8,57.5,543.8,57.5z"/>
	</g>
</g>
</svg>
