<?xml version="1.0" encoding="utf-8"?>
<!-- Generator: Adobe Illustrator 24.0.1, SVG Export Plug-In . SVG Version: 6.00 Build 0)  -->
<svg version="1.1"
	 id="Layer_3" xmlns:cc="http://creativecommons.org/ns#" xmlns:dc="http://purl.org/dc/elements/1.1/" xmlns:rdf="http://www.w3.org/1999/02/22-rdf-syntax-ns#"
	 xmlns="http://www.w3.org/2000/svg" xmlns:xlink="http://www.w3.org/1999/xlink" x="0px" y="0px" viewBox="0 0 598.2 350.3"
	 style="enable-background:new 0 0 598.2 350.3;" xml:space="preserve">
<g>
	<path style="fill:#FFFFFF;" d="M557.3,96.6c0-0.6-0.3-1.2-0.8-1.5c0.4-0.3,0.6-0.8,0.6-1.4V92c0-0.4-0.1-0.8-0.4-1.1
		c0.2-0.3,0.3-0.6,0.3-1l0.1-1.8c0-0.5-0.2-1-0.5-1.3c-0.1-0.1-0.3-0.3-0.4-0.3c0.6-0.3,0.9-0.9,0.9-1.6V83c0-0.6-0.3-1.2-0.8-1.5
		c0.5-0.3,0.8-0.9,0.8-1.5v-1.8c0-0.6-0.3-1.2-0.8-1.5c0.5-0.3,0.8-0.9,0.8-1.5v-1.8c0-0.4-0.1-0.7-0.3-1c0.3-0.3,0.5-0.8,0.5-1.3
		V59.5c0-2.6-2.1-4.7-4.7-4.7H40.7c-2.6,0-4.7,2.1-4.7,4.7V71c0,0.4,0.2,0.8,0.4,1.1c-0.3,0.3-0.5,0.8-0.5,1.2v1.8
		c0,0.5,0.2,1,0.6,1.3v0.4c-0.4,0.3-0.6,0.8-0.6,1.3V80c0,0.5,0.2,1,0.6,1.3v0.4c-0.4,0.3-0.6,0.8-0.6,1.3v1.8c0,0.5,0.2,1,0.6,1.3
		v0.5c-0.4,0.3-0.6,0.8-0.6,1.4l0.1,1.8c0,0.4,0.1,0.7,0.3,1c-0.2,0.3-0.4,0.7-0.4,1.1v1.8c0,0.5,0.2,1,0.6,1.3v0.3
		c-0.3,0.3-0.5,0.8-0.5,1.3v210.8c0,2.6,2.1,4.7,4.7,4.7h511.9c2.6,0,4.7-2.1,4.7-4.7L557.3,96.6z M501.6,81.5c0,1.2-1,2.3-2.3,2.3
		c-1.2,0-2.3-1-2.3-2.3c0-1.3,1-2.2,2.3-2.2C500.6,79.3,501.6,80.3,501.6,81.5z M493.4,81.5c0,1.7,0.7,3.2,1.8,4.3h-16
		c-2.4,0-4.3-2-4.3-4.4c0-2.4,1.9-4.3,4.3-4.3h16.2C494.2,78.2,493.4,79.7,493.4,81.5z M204.1,85.8h-130c-2.4,0-4.4-2-4.4-4.4
		c0-2.4,2-4.3,4.4-4.3h130c2.4,0,4.4,1.9,4.4,4.3C208.5,83.8,206.5,85.8,204.1,85.8z M553.7,59.5v9.7h-514v-9.7
		c0-0.6,0.5-1.1,1.1-1.1h511.9C553.2,58.4,553.7,58.9,553.7,59.5z M39.6,307.5l0-209h514v209c0,0.6-0.5,1.1-1.1,1.1H40.7
		C40.1,308.5,39.6,308.1,39.6,307.5z"/>
	<path style="fill:#FFFFFF;" d="M50.1,245.3h65.2v22.1c0,1,0.8,1.8,1.8,1.8h227.5c1,0,1.8-0.8,1.8-1.8V245h100.4
		c1,0,1.8-0.8,1.8-1.8v-47h5.4c1,0,1.8-0.8,1.8-1.8v-51.8c0-1-0.8-1.8-1.8-1.8l-397.4,0l-0.1,0l-0.1,0c-1,0.1-1.7,0.9-1.7,1.8v47
		h-4.8c-1,0-1.8,0.8-1.8,1.8v52.1C48.3,244.5,49.1,245.3,50.1,245.3z M52,240.5c0.5,0.5,1,0.9,1.7,1.2H52V240.5z M58.6,169.3v-2
		c0.4,0.4,0.8,0.8,1.3,1C59.4,168.5,58.9,168.9,58.6,169.3z M58.6,144.4h0.5c-0.2,0.1-0.3,0.3-0.5,0.5V144.4z M452.4,145.1
		c-0.2-0.3-0.4-0.5-0.7-0.7h0.7V145.1z M445.1,218.1c-0.4-0.4-0.8-0.8-1.3-1c0.5-0.2,1-0.6,1.3-1V218.1z M421.1,219.3
		c-0.3-0.7-0.7-1.4-1.4-1.8h2.7C421.8,217.9,421.3,218.5,421.1,219.3z M359.4,219.3c-0.3-0.7-0.7-1.4-1.3-1.8h2.7
		C360.2,217.9,359.7,218.5,359.4,219.3z M119,264.3c0.3,0.5,0.7,1,1.2,1.3H119V264.3z M112.6,219.3c-0.3-0.7-0.7-1.4-1.4-1.8h2.7
		C113.3,217.9,112.9,218.5,112.6,219.3z M75.9,219.3c-0.3-1-1.1-1.7-2-2.2c0.9-0.4,1.6-1.2,2-2.2c0.3,1,1.1,1.8,2,2.2
		C77,217.5,76.3,218.3,75.9,219.3z M82.6,166.1c0.3,0.7,0.7,1.3,1.3,1.8h-2.7C81.9,167.5,82.3,166.8,82.6,166.1z M107.3,166.1
		c0.3,0.7,0.7,1.3,1.3,1.8l-2.7,0C106.6,167.5,107,166.8,107.3,166.1z M131.9,166c0.2,0.8,0.7,1.4,1.4,1.9h-2.7
		C131.2,167.4,131.7,166.8,131.9,166z M156.7,166.1c0.3,0.7,0.7,1.3,1.3,1.8h-2.7C155.9,167.5,156.4,166.8,156.7,166.1z
		 M181.3,166.1c0.3,0.7,0.7,1.3,1.3,1.8H180C180.6,167.5,181.1,166.8,181.3,166.1z M206,166.1c0.3,0.7,0.7,1.4,1.3,1.8h-2.7
		C205.3,167.4,205.8,166.8,206,166.1z M230.7,166.1c0.3,0.7,0.7,1.4,1.3,1.8h-2.7C230,167.5,230.4,166.8,230.7,166.1z M255.4,166.1
		c0.3,0.7,0.7,1.3,1.3,1.8h-2.7C254.7,167.5,255.1,166.8,255.4,166.1z M280.1,166.1c0.3,0.7,0.7,1.3,1.3,1.8h-2.6
		C279.3,167.5,279.8,166.8,280.1,166.1z M304.8,166.1c0.3,0.7,0.7,1.4,1.3,1.8h-2.7C304,167.5,304.5,166.8,304.8,166.1z
		 M329.4,166.1c0.3,0.7,0.7,1.3,1.3,1.8h-2.7C328.7,167.5,329.2,166.8,329.4,166.1z M354.1,166.1c0.3,0.7,0.7,1.4,1.3,1.8h-2.7
		C353.4,167.4,353.9,166.8,354.1,166.1z M378.8,166.1c0.3,0.7,0.7,1.4,1.3,1.8h-2.7C378.1,167.5,378.5,166.8,378.8,166.1z
		 M403.5,166.1c0.3,0.7,0.7,1.3,1.3,1.8h-2.7C402.8,167.5,403.2,166.8,403.5,166.1z M428.2,166.1c0.3,0.7,0.7,1.3,1.3,1.8h-2.6
		C427.4,167.5,427.9,166.8,428.2,166.1z M340.3,262.4c0,0.1-0.1,0.2-0.2,0.2H122.4c-0.1,0-0.2-0.1-0.2-0.2V245
		c0-0.1,0.1-0.2,0.2-0.2h217.7c0.1,0,0.2,0.1,0.2,0.2V262.4z M61.4,147.3c0-0.1,0-0.2,0.1-0.2H79c0.1,0,0.2,0.1,0.2,0.2v17.5
		c0,0.1-0.1,0.2-0.2,0.2H61.5c-0.1,0-0.1-0.1-0.1-0.2V147.3z M419.7,171.7c0-0.1,0.1-0.2,0.2-0.2h29.4c0.1,0,0.2,0.1,0.2,0.2v17.5
		c0,0.1-0.1,0.1-0.2,0.1h-29.4c0,0-0.2,0-0.2-0.1V171.7z M416.3,170.2c-0.3-0.6-0.7-1.1-1.2-1.5h2.4
		C417,169.1,416.6,169.6,416.3,170.2z M362.9,220.5c0,0,0.1,0,0.1,0h30.4c0,0,0.2,0,0.2,0.1V238c0,0.1-0.1,0.2-0.2,0.2H363
		c-0.1,0-0.2-0.1-0.2-0.2L362.9,220.5z M334.7,219.3c-0.3-0.7-0.7-1.3-1.4-1.8h2.7C335.5,217.9,335,218.5,334.7,219.3z M137.3,219.3
		c-0.3-0.7-0.7-1.4-1.3-1.8h2.7C138,217.9,137.5,218.5,137.3,219.3z M79.4,220.5c0-0.1,0.1-0.1,0.2-0.1H109c0,0,0.2,0,0.2,0.1V238
		c0,0.1-0.1,0.2-0.2,0.2H79.6c-0.1,0-0.2-0.1-0.2-0.2V220.5z M95.4,171c-0.2-0.9-0.7-1.7-1.5-2.3h3C96.1,169.2,95.6,170,95.4,171z
		 M91.8,171.7v17.5c0,0.1-0.1,0.1-0.2,0.1H61.5c-0.1,0-0.1,0-0.1-0.1v-17.5c0,0,0-0.2,0.1-0.2h30.1
		C91.7,171.6,91.8,171.7,91.8,171.7z M395.2,171.7c0,0,0-0.1,0-0.1c0,0,0.1,0,0.1,0h17.5c0.1,0,0.1,0.1,0.1,0.2v17.5
		c0,0.1,0,0.1-0.1,0.1h-17.5c-0.1,0-0.2,0-0.2-0.1V171.7z M391.8,170.5c-0.3-0.7-0.7-1.3-1.3-1.8h2.7
		C392.5,169.1,392,169.7,391.8,170.5z M372.2,194.9c-0.3-0.7-0.7-1.4-1.4-1.8h2.7C372.9,193.5,372.4,194.1,372.2,194.9z
		 M347.5,194.9c-0.3-0.7-0.7-1.4-1.4-1.8h2.7C348.2,193.5,347.7,194.1,347.5,194.9z M310.1,219.3c-0.3-0.7-0.7-1.3-1.4-1.8h2.7
		C310.8,217.9,310.3,218.5,310.1,219.3z M285.4,219.3c-0.3-0.7-0.7-1.4-1.3-1.8h2.7C286.1,217.9,285.6,218.5,285.4,219.3z
		 M260.7,219.3c-0.3-0.7-0.7-1.4-1.4-1.8h2.7C261.4,217.9,261,218.5,260.7,219.3z M236,219.3c-0.3-0.7-0.7-1.4-1.4-1.8h2.7
		C236.8,217.9,236.3,218.5,236,219.3z M211.3,219.3c-0.3-0.7-0.7-1.4-1.3-1.8h2.7C212.1,217.9,211.6,218.5,211.3,219.3z
		 M186.6,219.3c-0.3-0.7-0.7-1.4-1.4-1.8h2.7C187.4,217.9,186.9,218.5,186.6,219.3z M162,219.3c-0.3-0.7-0.7-1.4-1.4-1.8h2.7
		C162.7,217.9,162.2,218.5,162,219.3z M125.3,194.9c-0.3-0.7-0.7-1.4-1.4-1.8h2.7C126.1,193.5,125.6,194.1,125.3,194.9z
		 M100.6,194.9c-0.3-0.7-0.7-1.4-1.4-1.8h2.7C101.4,193.5,100.9,194.1,100.6,194.9z M79.4,196.2c0-0.1,0.1-0.2,0.2-0.2H97
		c0.1,0,0.2,0.1,0.2,0.2v17.5c0,0.1-0.1,0.2-0.2,0.2H79.6c-0.1,0-0.2-0.1-0.2-0.2V196.2z M120.2,190.4c0.3,0.8,0.7,1.4,1.4,1.9
		l-2.7,0C119.5,191.9,119.9,191.2,120.2,190.4z M144.9,190.5c0.3,0.7,0.7,1.4,1.4,1.8h-2.7C144.2,191.9,144.7,191.2,144.9,190.5z
		 M169.6,190.5c0.3,0.7,0.7,1.4,1.4,1.8h-2.7C168.9,191.9,169.3,191.2,169.6,190.5z M194.3,190.5c0.3,0.7,0.7,1.4,1.4,1.8h-2.7
		C193.6,191.9,194,191.2,194.3,190.5z M219,190.5c0.3,0.7,0.7,1.4,1.4,1.8h-2.7C218.2,191.9,218.7,191.2,219,190.5z M243.6,190.5
		c0.3,0.7,0.7,1.4,1.4,1.8h-2.7C242.9,191.9,243.4,191.2,243.6,190.5z M268.3,190.5c0.3,0.7,0.7,1.4,1.4,1.8H267
		C267.6,191.9,268.1,191.2,268.3,190.5z M293,190.5c0.3,0.7,0.7,1.4,1.4,1.8h-2.7C292.3,191.9,292.8,191.2,293,190.5z M317.7,190.5
		c0.3,0.7,0.7,1.4,1.4,1.8h-2.7C317,191.9,317.4,191.2,317.7,190.5z M342.4,190.5c0.3,0.7,0.7,1.3,1.4,1.8H341
		C341.6,191.9,342.1,191.2,342.4,190.5z M367.1,190.5c0.3,0.7,0.7,1.4,1.4,1.8h-2.7C366.3,191.9,366.8,191.2,367.1,190.5z
		 M388.3,189.2c0,0.1-0.1,0.1-0.2,0.1h-17.5c0,0-0.2,0-0.2-0.1v-17.5c0,0,0-0.1,0-0.1c0,0,0.1,0,0.1,0h17.5c0.1,0,0.2,0.1,0.2,0.2
		V189.2z M363.6,189.2c0,0.1-0.1,0.1-0.2,0.1H346c0,0-0.2,0-0.2-0.1v-17.5c0,0,0-0.1,0-0.1s0.1,0,0.1,0h17.5c0.1,0,0.2,0.1,0.2,0.2
		V189.2z M140.7,220.5c0-0.1,0.1-0.1,0.2-0.1h17.5c0,0,0.2,0,0.2,0.1V238c0,0.1-0.1,0.2-0.2,0.2h-17.5c-0.1,0-0.2-0.1-0.2-0.2V220.5
		z M326.2,196.2c0,0,0-0.2,0.1-0.2h17.5c0.1,0,0.2,0.1,0.2,0.2v17.5c0,0.1-0.1,0.2-0.2,0.2h-17.5c-0.1,0-0.1-0.1-0.1-0.2V196.2z
		 M322.8,194.9c-0.3-0.7-0.7-1.4-1.4-1.8h2.7C323.5,193.5,323.1,194.1,322.8,194.9z M153.4,196.2c0-0.1,0.1-0.2,0.2-0.2h17.5
		c0.1,0,0.2,0.1,0.2,0.2v17.5c0,0.1-0.1,0.2-0.2,0.2h-17.5c-0.1,0-0.2-0.1-0.2-0.2V196.2z M174.7,214.9c0.3,0.7,0.7,1.4,1.4,1.8
		h-2.7C174,216.3,174.4,215.6,174.7,214.9z M178.2,196.2c0-0.1,0-0.1,0-0.1c0,0,0,0,0.1,0h17.5c0.1,0,0.2,0.1,0.2,0.2v17.5
		c0,0.1-0.1,0.2-0.2,0.2h-17.5c-0.1,0-0.1-0.1-0.1-0.2V196.2z M199.4,214.9c0.3,0.7,0.7,1.4,1.4,1.8H198
		C198.6,216.3,199.1,215.6,199.4,214.9z M202.8,196.2c0-0.1,0.1-0.2,0.2-0.2h17.5c0.1,0,0.1,0.1,0.1,0.2v17.5c0,0,0,0.2-0.1,0.2H203
		c-0.1,0-0.2-0.1-0.2-0.2V196.2z M224.1,214.9c0.3,0.7,0.7,1.4,1.4,1.8h-2.7C223.3,216.3,223.8,215.6,224.1,214.9z M227.5,196.2
		c0-0.1,0.1-0.2,0.2-0.2h17.5c0.1,0,0.2,0.1,0.2,0.2v17.5c0,0.1-0.1,0.2-0.2,0.2h-17.5c-0.1,0-0.2-0.1-0.2-0.2V196.2z M248.7,214.9
		c0.3,0.7,0.7,1.4,1.3,1.8h-2.7C248,216.3,248.5,215.6,248.7,214.9z M252.2,196.2c0,0,0-0.2,0.1-0.2h17.5c0.1,0,0.2,0.1,0.2,0.2
		v17.5c0,0.1-0.1,0.2-0.2,0.2h-17.5c-0.1,0-0.1-0.1-0.1-0.2V196.2z M273.4,214.9c0.3,0.7,0.7,1.4,1.4,1.8h-2.7
		C272.7,216.3,273.2,215.6,273.4,214.9z M276.9,196.2c0-0.1,0.1-0.2,0.2-0.2h17.5c0.1,0,0.1,0.1,0.1,0.2v17.5c0,0,0,0.2-0.1,0.2H277
		c-0.1,0-0.2-0.1-0.2-0.2V196.2z M298.1,214.9c0.3,0.7,0.7,1.4,1.4,1.8h-2.7C297.4,216.3,297.8,215.6,298.1,214.9z M301.5,196.2
		c0-0.1,0.1-0.2,0.2-0.2h17.5c0.1,0,0.2,0.1,0.2,0.2v17.5c0,0.1-0.1,0.2-0.2,0.2h-17.5c-0.1,0-0.2-0.1-0.2-0.2V196.2z M298.1,194.9
		c-0.3-0.7-0.7-1.4-1.4-1.8h2.7C298.8,193.5,298.4,194.1,298.1,194.9z M273.4,194.9c-0.3-0.7-0.7-1.4-1.4-1.8h2.7
		C274.2,193.5,273.7,194.1,273.4,194.9z M248.7,194.9c-0.3-0.7-0.7-1.4-1.4-1.8h2.7C249.5,193.5,249,194.1,248.7,194.9z
		 M224.1,194.9c-0.3-0.7-0.7-1.4-1.4-1.8h2.7C224.8,193.5,224.3,194.1,224.1,194.9z M199.4,194.9c-0.3-0.7-0.7-1.4-1.4-1.8h2.7
		C200.1,193.5,199.6,194.1,199.4,194.9z M174.7,194.9c-0.3-0.7-0.7-1.4-1.4-1.8h2.7C175.4,193.5,175,194.1,174.7,194.9z M150,194.9
		c-0.3-0.7-0.7-1.4-1.4-1.8h2.7C150.7,193.5,150.3,194.1,150,194.9z M128.8,196.2c0-0.1,0.1-0.2,0.2-0.2h17.5c0.1,0,0.1,0.1,0.1,0.2
		v17.5c0,0.1,0,0.2-0.1,0.2h-17.5c-0.1,0-0.2-0.1-0.2-0.2V196.2z M150,214.9c0.3,0.7,0.7,1.4,1.4,1.8h-2.7
		C149.3,216.3,149.7,215.6,150,214.9z M165.4,220.5c0-0.1,0.1-0.1,0.2-0.1H183c0.1,0,0.2,0,0.2,0.1V238c0,0.1-0.1,0.2-0.2,0.2h-17.5
		c-0.1,0-0.2-0.1-0.2-0.2V220.5z M190.1,220.5c0-0.1,0.1-0.1,0.2-0.1h17.5c0.1,0,0.1,0,0.1,0.1V238c0,0,0,0.2-0.1,0.2h-17.5
		c-0.1,0-0.2-0.1-0.2-0.2V220.5z M214.8,220.5c0-0.1,0.1-0.1,0.2-0.1h17.5c0.1,0,0.2,0,0.2,0.1V238c0,0.1-0.1,0.2-0.2,0.2h-17.5
		c-0.1,0-0.2-0.1-0.2-0.2V220.5z M239.5,220.5c0-0.1,0.1-0.1,0.2-0.1h17.5c0,0,0.2,0,0.2,0.1V238c0,0.1-0.1,0.2-0.2,0.2h-17.5
		c-0.1,0-0.2-0.1-0.2-0.2V220.5z M264.1,220.5c0-0.1,0.1-0.1,0.2-0.1h17.5c0.1,0,0.1,0,0.1,0.1V238c0,0,0,0.2-0.1,0.2h-17.5
		c-0.1,0-0.2-0.1-0.2-0.2V220.5z M288.8,220.5c0-0.1,0.1-0.1,0.2-0.1h17.5c0,0,0.2,0,0.2,0.1V238c0,0.1-0.1,0.2-0.2,0.2H289
		c-0.1,0-0.2-0.1-0.2-0.2V220.5z M313.5,220.5c0-0.1,0.1-0.1,0.2-0.1h17.5c0,0,0.2,0,0.2,0.1V238c0,0.1-0.1,0.2-0.2,0.2h-17.5
		c-0.1,0-0.2-0.1-0.2-0.2V220.5z M322.8,214.9c0.3,0.7,0.7,1.4,1.3,1.8h-2.7C322.1,216.3,322.5,215.6,322.8,214.9z M338.9,189.2
		c0,0.1,0,0.1-0.1,0.1h-17.5c0,0-0.2,0-0.2-0.1v-17.5c0-0.1,0.1-0.2,0.2-0.2h17.5c0.1,0,0.1,0.1,0.1,0.2V189.2z M314.3,189.2
		c0,0.1-0.1,0.1-0.2,0.1h-17.5c0,0-0.2,0-0.2-0.1v-17.5c0-0.1,0.1-0.2,0.2-0.2h17.5c0.1,0,0.2,0.1,0.2,0.2V189.2z M289.6,189.2
		c0,0.1-0.1,0.1-0.2,0.1h-17.5c0,0-0.2,0-0.2-0.1v-17.5c0-0.1,0.1-0.2,0.2-0.2h17.5c0.1,0,0.2,0.1,0.2,0.2V189.2z M264.9,189.2
		c0,0.1,0,0.1-0.1,0.1h-17.5c0,0-0.2,0-0.2-0.1v-17.5c0-0.1,0.1-0.2,0.2-0.2h17.5c0.1,0,0.1,0.1,0.1,0.2V189.2z M240.2,189.2
		c0,0.1-0.1,0.1-0.2,0.1h-17.5c0,0-0.2,0-0.2-0.1v-17.5c0-0.1,0.1-0.2,0.2-0.2H240c0.1,0,0.2,0.1,0.2,0.2V189.2z M215.5,189.2
		c0,0.1-0.1,0.1-0.2,0.1h-17.5c-0.1,0-0.1,0-0.1-0.1v-17.5c0,0,0-0.2,0.1-0.2h17.5c0.1,0,0.2,0.1,0.2,0.2V189.2z M190.8,189.2
		c0,0.1,0,0.1-0.1,0.1h-17.5c0,0-0.2,0-0.2-0.1v-17.5c0-0.1,0.1-0.2,0.2-0.2h17.5c0.1,0,0.1,0.1,0.1,0.2V189.2z M166.1,189.2
		c0,0.1-0.1,0.1-0.2,0.1h-17.5c0,0-0.2,0-0.2-0.1v-17.5c0-0.1,0.1-0.2,0.2-0.2H166c0.1,0,0.2,0.1,0.2,0.2V189.2z M141.5,189.2
		c0,0.1-0.1,0.1-0.2,0.1h-17.5c0,0-0.2,0-0.2-0.1v-17.5c0-0.1,0.1-0.2,0.2-0.2h17.5c0.1,0,0.2,0.1,0.2,0.2V189.2z M116.8,189.2
		c0,0.1,0,0.1-0.1,0.1H99.1c0,0-0.2,0-0.2-0.1v-17.5c0-0.1,0.1-0.2,0.2-0.2l17.5,0c0.1,0,0.2,0.1,0.2,0.2L116.8,189.2z M104.1,196.2
		c0-0.1,0-0.2,0.1-0.2h17.5c0.1,0,0.2,0.1,0.2,0.2l0,17.3c0,0.1,0,0.1,0,0.2c0,0.1-0.1,0.2-0.2,0.2h-17.5c-0.1,0-0.1-0.1-0.1-0.2
		V196.2z M350.9,196.2c0-0.1,0.1-0.2,0.2-0.2h17.5c0.1,0,0.1,0.1,0.1,0.2v17.5c0,0,0,0.2-0.1,0.2h-17.5c-0.1,0-0.2-0.1-0.2-0.2
		V196.2z M375.6,213.6v-17.5c0-0.1,0.1-0.2,0.2-0.2h17.5c0.1,0,0.2,0.1,0.2,0.2v17.5c0,0.1-0.1,0.2-0.2,0.2h-17.5
		C375.7,213.8,375.6,213.7,375.6,213.6z M367.1,170.5c-0.3-0.7-0.7-1.4-1.3-1.8h2.7C367.8,169.1,367.3,169.7,367.1,170.5z
		 M342.4,170.5c-0.3-0.7-0.7-1.3-1.3-1.8h2.6C343.1,169.1,342.6,169.7,342.4,170.5z M317.7,170.5c-0.3-0.7-0.7-1.3-1.3-1.8h2.7
		C318.4,169.1,318,169.7,317.7,170.5z M293,170.5c-0.3-0.7-0.7-1.3-1.3-1.8h2.7C293.7,169.1,293.3,169.7,293,170.5z M268.3,170.5
		c-0.3-0.7-0.7-1.3-1.3-1.8h2.6C269,169.1,268.6,169.7,268.3,170.5z M243.6,170.5c-0.3-0.7-0.7-1.3-1.3-1.8h2.7
		C244.4,169.1,243.9,169.7,243.6,170.5z M219,170.5c-0.3-0.7-0.7-1.3-1.3-1.8h2.7C219.7,169.1,219.2,169.7,219,170.5z M194.3,170.5
		c-0.3-0.7-0.7-1.4-1.3-1.8h2.7C195,169.1,194.5,169.8,194.3,170.5z M169.6,170.5c-0.3-0.7-0.7-1.3-1.3-1.8h2.7
		C170.3,169.1,169.9,169.7,169.6,170.5z M144.9,170.5c-0.3-0.7-0.7-1.3-1.3-1.8h2.7C145.6,169.1,145.2,169.7,144.9,170.5z
		 M120.2,170.4c-0.3-0.7-0.7-1.3-1.3-1.8h2.6C121,169.1,120.5,169.7,120.2,170.4z M100.6,214.9c0.3,0.7,0.7,1.4,1.4,1.8h-2.7
		C99.9,216.3,100.4,215.6,100.6,214.9z M125.3,214.8c0.3,0.8,0.7,1.4,1.4,1.9h-2.8C124.5,216.3,125,215.6,125.3,214.8z M116,220.5
		c0-0.1,0.1-0.1,0.2-0.1h17.5c0.1,0,0.1,0,0.1,0.1V238c0,0,0,0.2-0.1,0.2h-17.5c-0.1,0-0.2-0.1-0.2-0.2V220.5z M162,239.3
		c0.3,0.7,0.7,1.3,1.3,1.8h-2.7C161.2,240.7,161.7,240,162,239.3z M186.6,239.3c0.3,0.7,0.7,1.3,1.3,1.8h-2.7
		C185.9,240.7,186.4,240,186.6,239.3z M211.3,239.3c0.3,0.7,0.7,1.4,1.3,1.8H210C210.6,240.7,211.1,240,211.3,239.3z M236,239.3
		c0.3,0.7,0.7,1.3,1.3,1.8h-2.7C235.3,240.7,235.8,240,236,239.3z M260.7,239.3c0.3,0.7,0.7,1.3,1.3,1.8h-2.7
		C260,240.7,260.4,240,260.7,239.3z M285.4,239.3c0.3,0.7,0.7,1.4,1.3,1.8H284C284.7,240.7,285.1,240,285.4,239.3z M310.1,239.3
		c0.3,0.7,0.7,1.3,1.3,1.8h-2.7C309.3,240.7,309.8,240,310.1,239.3z M338.2,220.5c0,0,0.1,0,0.1,0h17.5c0.1,0,0.1,0,0.1,0.1V238
		c0,0,0,0.2-0.1,0.2h-17.5c-0.1,0-0.2-0.1-0.2-0.2L338.2,220.5z M347.5,214.9c0.3,0.7,0.7,1.4,1.4,1.8h-2.7
		C346.7,216.3,347.2,215.6,347.5,214.9z M372.2,214.9c0.3,0.7,0.7,1.4,1.4,1.8h-2.7C371.4,216.3,371.9,215.6,372.2,214.9z
		 M390.4,192.3c0.6-0.4,1.1-1.1,1.4-1.8c0.3,0.7,0.7,1.4,1.4,1.8H390.4z M424.7,164.8c0,0,0,0.2-0.1,0.2h-17.5
		c-0.1,0-0.2-0.1-0.2-0.2v-17.5c0-0.1,0.1-0.2,0.2-0.2h17.5c0.1,0,0.1,0.1,0.1,0.2V164.8z M400,164.8c0,0.1-0.1,0.2-0.2,0.2h-17.5
		c-0.1,0-0.2-0.1-0.2-0.2v-17.5c0,0,0-0.1,0-0.1c0,0,0.1,0,0.1,0h17.5c0.1,0,0.2,0.1,0.2,0.2V164.8z M375.4,164.8
		c0,0.1-0.1,0.2-0.2,0.2h-17.5c-0.1,0-0.1-0.1-0.1-0.2v-17.5c0,0,0-0.2,0.1-0.2h17.5c0.1,0,0.2,0.1,0.2,0.2V164.8z M350.7,164.8
		c0,0,0,0.2-0.1,0.2H333c-0.1,0-0.2-0.1-0.2-0.2v-17.5c0-0.1,0.1-0.2,0.2-0.2h17.5c0.1,0,0.1,0.1,0.1,0.2V164.8z M326,164.8
		c0,0.1-0.1,0.2-0.2,0.2h-17.5c-0.1,0-0.2-0.1-0.2-0.2v-17.5c0-0.1,0.1-0.2,0.2-0.2h17.5c0.1,0,0.2,0.1,0.2,0.2V164.8z M301.3,164.8
		c0,0.1-0.1,0.2-0.2,0.2h-17.5c-0.1,0-0.2-0.1-0.2-0.2v-17.5c0-0.1,0.1-0.2,0.2-0.2h17.5c0.1,0,0.2,0.1,0.2,0.2V164.8z M276.6,164.8
		c0,0,0,0.2-0.1,0.2H259c-0.1,0-0.2-0.1-0.2-0.2v-17.5c0-0.1,0.1-0.2,0.2-0.2h17.5c0.1,0,0.1,0.1,0.1,0.2V164.8z M251.9,164.8
		c0,0.1-0.1,0.2-0.2,0.2h-17.5c-0.1,0-0.2-0.1-0.2-0.2v-17.5c0-0.1,0.1-0.2,0.2-0.2h17.5c0.1,0,0.2,0.1,0.2,0.2V164.8z M227.3,164.8
		c0,0.1-0.1,0.2-0.2,0.2h-17.5c-0.1,0-0.1-0.1-0.1-0.2v-17.5c0,0,0-0.2,0.1-0.2h17.5c0.1,0,0.2,0.1,0.2,0.2V164.8z M184.9,165
		c-0.1,0-0.2-0.1-0.2-0.2v-17.5c0-0.1,0.1-0.2,0.2-0.2h17.5c0.1,0,0.1,0.1,0.1,0.2v17.5c0,0,0,0.2-0.1,0.2H184.9z M160.3,165
		c-0.1,0-0.2-0.1-0.2-0.2v-17.5c0-0.1,0.1-0.2,0.2-0.2h17.5c0.1,0,0.2,0.1,0.2,0.2v17.5c0,0.1-0.1,0.2-0.2,0.2H160.3z M135.6,165
		c-0.1,0-0.1-0.1-0.1-0.2v-17.5c0-0.1,0-0.2,0.1-0.2H153c0.1,0,0.2,0.1,0.2,0.2v17.5c0,0.1-0.1,0.2-0.2,0.2H135.6z M128.5,164.8
		c0,0,0,0.2-0.1,0.2h-17.5c-0.1,0-0.2-0.1-0.2-0.2v-17.5c0-0.1,0.1-0.2,0.2-0.2h17.5c0.1,0,0.2,0.1,0.2,0.2L128.5,164.8z M86.2,165
		c-0.1,0-0.2-0.1-0.2-0.2v-17.5c0-0.1,0.1-0.2,0.2-0.2h17.5c0.1,0,0.2,0.1,0.2,0.2v17.5c0,0.1-0.1,0.2-0.2,0.2H86.2z M95.4,190
		c0.2,0.9,0.8,1.8,1.5,2.3h-3C94.6,191.8,95.2,191,95.4,190z M137.3,239.3c0.3,0.7,0.7,1.3,1.3,1.8h-2.7
		C136.6,240.7,137,240,137.3,239.3z M334.7,239.3c0.3,0.7,0.7,1.3,1.3,1.8h-2.7C334,240.7,334.5,240,334.7,239.3z M401.1,196h41.1
		c0.1,0,0.1,0.1,0.1,0.2v17.5c0,0,0,0.2-0.1,0.2h-41.1c-0.1,0-0.2-0.1-0.2-0.2v-17.5C401,196.1,401,196,401.1,196z M399.9,220.5
		c0-0.1,0.1-0.1,0.2-0.1h17.5c0.1,0,0.2,0,0.2,0.1V238c0,0.1-0.1,0.2-0.2,0.2H400c-0.1,0-0.2-0.1-0.2-0.2V220.5z M424.6,220.5
		c0,0,0.1,0,0.1,0h17.5c0.1,0,0.1,0,0.1,0.1V238c0,0,0,0.2-0.1,0.2h-17.5c-0.1,0-0.2-0.1-0.2-0.2L424.6,220.5z M416.3,190.8
		c0.3,0.6,0.7,1.1,1.2,1.5h-2.5C415.6,191.9,416,191.4,416.3,190.8z M431.6,164.8v-17.5c0-0.1,0.1-0.2,0.2-0.2h17.5
		c0.1,0,0.2,0.1,0.2,0.2v17.5c0,0.1-0.1,0.2-0.2,0.2h-17.5C431.7,165,431.6,164.9,431.6,164.8z M75.9,194.9
		c-0.3-0.7-0.7-1.4-1.4-1.8h2.7C76.7,193.5,76.2,194.1,75.9,194.9z M54.7,196.2c0-0.1,0.1-0.2,0.2-0.2h17.5c0.1,0,0.1,0.1,0.1,0.2
		v17.5c0,0.1,0,0.2-0.1,0.2H54.9c-0.1,0-0.2-0.1-0.2-0.2V196.2z M72.5,220.5V238c0,0,0,0.2-0.1,0.2H54.9c-0.1,0-0.2-0.1-0.2-0.2
		v-17.5c0-0.1,0.1-0.1,0.2-0.1h17.5C72.5,220.4,72.5,220.4,72.5,220.5z M342.8,265.2v0.4h-0.5C342.5,265.5,342.7,265.3,342.8,265.2z
		 M395,217c1.3-0.6,2.1-1.9,2.1-3.4v-17.5c0-1.3-0.6-2.4-1.6-3.1h3.4c-1,0.7-1.6,1.8-1.6,3.1v17.5c0,1.4,0.7,2.6,1.8,3.2
		c-1,0.3-1.8,0.9-2.3,1.7C396.3,217.9,395.7,217.4,395,217z M428.2,146c-0.2-0.6-0.6-1.2-1.1-1.6h2.3
		C428.8,144.8,428.4,145.4,428.2,146z M403.5,146c-0.2-0.6-0.6-1.2-1.1-1.6h2.3C404.1,144.8,403.7,145.4,403.5,146z M378.8,146.1
		c-0.2-0.6-0.6-1.2-1.1-1.6h2.3C379.4,144.8,379,145.4,378.8,146.1z M354.1,146.1c-0.2-0.7-0.6-1.2-1.1-1.7h2.3
		C354.7,144.9,354.3,145.4,354.1,146.1z M329.4,146c-0.2-0.6-0.6-1.2-1.1-1.6h2.3C330.1,144.8,329.7,145.4,329.4,146z M304.8,146.1
		c-0.2-0.6-0.6-1.2-1.1-1.6h2.3C305.4,144.8,305,145.4,304.8,146.1z M280.1,146c-0.2-0.6-0.6-1.2-1.1-1.6h2.3
		C280.7,144.8,280.3,145.4,280.1,146z M255.4,146c-0.2-0.6-0.6-1.2-1.1-1.6h2.3C256,144.8,255.6,145.4,255.4,146z M230.7,146.1
		c-0.2-0.6-0.6-1.2-1.1-1.6h2.3C231.3,144.8,230.9,145.4,230.7,146.1z M206,146.1c-0.2-0.7-0.6-1.2-1.1-1.7h2.3
		C206.6,144.9,206.2,145.4,206,146.1z M181.3,146c-0.2-0.6-0.6-1.2-1.1-1.6h2.3C182,144.8,181.6,145.4,181.3,146z M156.7,146.1
		c-0.2-0.6-0.6-1.2-1.1-1.6h2.3C157.3,144.8,156.9,145.4,156.7,146.1z M132,146c-0.2-0.6-0.6-1.2-1.1-1.6h2.3
		C132.6,144.8,132.2,145.4,132,146z M107.3,146c-0.2-0.6-0.6-1.2-1.1-1.6h2.3C107.9,144.8,107.5,145.4,107.3,146z M82.6,146.1
		c-0.2-0.6-0.6-1.2-1.1-1.6h2.3C83.2,144.8,82.8,145.4,82.6,146.1z M75.9,239.3c0.4,1.1,1.3,2,2.4,2.3h-4.8
		C74.7,241.3,75.6,240.4,75.9,239.3z M112.6,239.2c0.4,1.1,1.3,2,2.4,2.4h-4.8C111.3,241.3,112.2,240.4,112.6,239.2z M120.1,241.9
		c-0.5,0.3-0.9,0.8-1.1,1.3c-0.1-0.6-0.5-1.1-1-1.3H120.1z M343,242.4c-0.2-0.2-0.4-0.4-0.6-0.6h1C343.2,242,343.1,242.2,343,242.4z
		 M359.4,239.3c0.3,0.9,0.9,1.6,1.7,2h-3.4C358.5,240.9,359.1,240.2,359.4,239.3z M396.7,240c0.3,0.6,0.8,1,1.4,1.3h-2.7
		C395.9,241,396.4,240.6,396.7,240z M421.1,239.3c0.3,0.9,0.9,1.6,1.7,2h-3.4C420.2,240.9,420.8,240.2,421.1,239.3z M445.1,240.5
		v0.9h-1C444.5,241.1,444.8,240.8,445.1,240.5z M445.2,193.8c-0.2-0.3-0.5-0.6-0.8-0.8h1.3C445.4,193.3,445.3,193.5,445.2,193.8z
		 M452.4,191.4v1.1h-1.2C451.6,192.2,452.1,191.9,452.4,191.4z M452.4,169.5c-0.4-0.5-0.9-1-1.5-1.3c0.6-0.3,1.1-0.7,1.5-1.2V169.5z
		 M58.6,191.6c0.2,0.3,0.4,0.5,0.7,0.7h-0.9C58.5,192.1,58.5,191.9,58.6,191.6z M52,193.7v-0.5h0.4C52.2,193.4,52.1,193.5,52,193.7z
		 M52,216.1c0.4,0.4,0.8,0.8,1.3,1c-0.5,0.2-0.9,0.6-1.3,1V216.1z"/>
	<path style="fill:#FFFFFF;" d="M478.3,244.5h40.2c1,0,1.8-0.8,1.8-1.8v-99.6c0-1-0.8-1.8-1.8-1.8l-40.1,0c-0.1,0-0.1,0-0.2,0
		l-0.1,0c-0.9,0.1-1.6,0.9-1.6,1.8v99.6C476.5,243.7,477.3,244.5,478.3,244.5z M514.4,171.6c0.1,0,0.2,0.1,0.2,0.2v17.5
		c0,0.1-0.1,0.1-0.2,0.1h-31.8c0,0-0.2,0-0.2-0.1v-17.5c0,0,0-0.1,0-0.1c0,0,0.1,0,0.1,0H514.4z M514.4,196c0.1,0,0.2,0.1,0.2,0.2
		v17.5c0,0.1-0.1,0.2-0.2,0.2h-31.8c-0.1,0-0.2-0.1-0.2-0.2v-17.5c0,0,0-0.1,0-0.1c0,0,0.1,0,0.1,0H514.4z M482.5,220.5
		c0,0,0.1,0,0.1,0h31.8c0,0,0.2,0,0.2,0.1V238c0,0.1-0.1,0.2-0.2,0.2h-31.8c-0.1,0-0.2-0.1-0.2-0.2L482.5,220.5z M514.4,165h-31.8
		c-0.1,0-0.2-0.1-0.2-0.2v-17.5c0,0,0-0.1,0-0.1c0,0,0.1,0,0.1,0h31.8c0.1,0,0.2,0.1,0.2,0.2v17.5C514.5,164.9,514.5,165,514.4,165z
		 M481,168.3c-0.3,0.1-0.6,0.3-0.8,0.5v-1.1C480.4,168,480.7,168.1,481,168.3z M481,192.7c-0.3,0.1-0.6,0.3-0.9,0.6v-1.1
		C480.4,192.4,480.7,192.5,481,192.7z M481,217.1c-0.3,0.1-0.6,0.3-0.9,0.6v-1.1C480.4,216.8,480.7,216.9,481,217.1z M516,217.1
		c0.2-0.1,0.4-0.2,0.6-0.4v0.8C516.4,217.3,516.2,217.2,516,217.1z M516,192.7c0.2-0.1,0.4-0.2,0.6-0.4v0.8
		C516.4,192.9,516.2,192.8,516,192.7z M516,168.3c0.2-0.1,0.4-0.2,0.6-0.4v0.7C516.5,168.5,516.2,168.4,516,168.3z"/>
	<path style="fill:#FFFFFF;" d="M553,136.8c0-2.7-2.2-4.8-4.8-4.8H45.8c-2.7,0-4.8,2.2-4.8,4.8v137.5c0,2.7,2.2,4.8,4.8,4.8h502.4
		c2.7,0,4.8-2.2,4.8-4.8V136.8z M44.6,136.8c0-0.6,0.5-1.1,1.2-1.1h502.4c0.6,0,1.1,0.5,1.1,1.1v137.5c0,0.6-0.5,1.2-1.1,1.2H45.8
		c-0.6,0-1.2-0.5-1.2-1.2V136.8z"/>
</g>
</svg>
