<?xml version="1.0" encoding="utf-8"?>
<!-- Generator: Adobe Illustrator 24.0.1, SVG Export Plug-In . SVG Version: 6.00 Build 0)  -->
<svg version="1.1" id="Layer_1" xmlns:svg="http://www.w3.org/2000/svg"
	 xmlns="http://www.w3.org/2000/svg" xmlns:xlink="http://www.w3.org/1999/xlink" x="0px" y="0px" viewBox="0 0 568.9 140.1"
	 style="enable-background:new 0 0 568.9 140.1;" xml:space="preserve">
<path style="fill:#FFFFFF;" d="M486.8,120.3c-15.8,0-31.1-2.5-38.5-4.1l0,0c-3.8-0.8-7.4-2.1-10.2-5l0,0c-2.8-2.9-4.8-7.2-5.8-13.6
	l0,0c-1.1-6.5-1.7-19-1.7-31.3l0,0c0-11.7,0.5-22.9,2-28.7l0,0c0.7-3,2-5.7,4.2-8l0,0c2.1-2.3,5.1-4.2,9-5.6l0,0
	c7.9-2.8,19.9-4.1,38.8-4.1l0,0h26c14.2,0,24.5,0.7,32.1,2.3l0,0c7.6,1.5,12.6,3.9,15.8,7.4l0,0c2.1,2.3,3.4,5.1,4.2,8l0,0
	c1.4,5.8,2,17,2,28.7l0,0c0,12.3-0.6,24.8-1.7,31.3l0,0c-1,6.4-3,10.7-5.8,13.6l0,0c-2.8,2.9-6.4,4.2-10.2,5l0,0
	c-7.4,1.5-22.7,4.1-38.5,4.1l0,0v-1.9v-1.9c15.4,0,30.6-2.5,37.8-4l0,0c3.5-0.7,6.2-1.8,8.3-4l0,0c2.1-2.2,3.8-5.6,4.8-11.6l0,0
	c1-6.1,1.6-18.6,1.6-30.7l0,0c0-11.5-0.6-22.8-1.9-27.7l0,0c-0.6-2.5-1.6-4.6-3.3-6.4l0,0c-1.6-1.8-4-3.3-7.6-4.6l0,0
	c-7.1-2.6-18.8-3.9-37.5-3.9l0,0h-26c-14,0-24.1,0.7-31.3,2.2l0,0c-7.2,1.5-11.3,3.6-13.8,6.3l0,0c-1.6,1.8-2.6,3.8-3.3,6.4l0,0
	c-1.3,5-1.9,16.3-1.9,27.7l0,0c0,12.1,0.6,24.6,1.6,30.7l0,0c1,5.9,2.7,9.4,4.8,11.6l0,0c2.1,2.2,4.8,3.2,8.3,4l0,0
	c7.2,1.5,22.3,4,37.8,4l0,0h21.5v1.9v1.9H486.8L486.8,120.3z"/>
<polygon style="fill:#FFFFFF;" points="475,30.6 475,109.7 493.7,109.7 493.7,79.7 520.1,79.7 520.1,63 493.7,63 493.7,47.3 
	519.8,47.3 519.8,30.5 "/>
<g>
	<g>
		<path style="fill:#FFFFFF;" d="M124.3,97.1V33.9h-18.1v27.8H84.4V33.9H65.6v73h18.8V79h22.6v27.8h32.4c7.9-15,8-15.6,15.1-27.8
			c5.2,0.1,9.8-0.1,14.3,0v27.8h18.8v-73h-28.6C146.6,54.2,136.7,76.9,124.3,97.1z M166.6,51.5h2.3v9.8h-6
			C164.2,58.1,165.4,55.5,166.6,51.5z M4.6,66.2l-0.2,4.4l0.2,4.6C7.9,99,31.2,114.7,58,105.4V82.8c-3.8,2.9-7.9,7.4-15.8,7.5
			c-27.4,0.3-23.6-38.1-0.8-38.4c8.2-0.1,11.3,2.8,16.6,8.3V36.9C32.6,25.9,7.4,42.6,4.6,66.2z M237.9,71.5
			c-10.5-13.8-17.9-24.6-28.6-37.6h-15.8v73h18.8V70c11,10.8,17.6,26.1,28.6,36.9h15.8v-73h-18.8L237.9,71.5L237.9,71.5z
			 M396.7,91.1V33.9h-18.8v73h39.9V91.1H396.7z M331.2,106.9h41.4V90.3h-21.8V79.8h21.8V61.7h-21.8V51.2h21.8V33.9h-41.4
			L331.2,106.9L331.2,106.9z M306.4,71.5c-11.4-14.3-17.5-23.3-28.6-37.6H262v73h18.8V70c11,12.8,17.6,23.7,28.6,36.9h15.8v-73
			h-18.8V71.5z"/>
	</g>
</g>
</svg>
