<?xml version="1.0" encoding="utf-8"?>
<!-- Generator: Adobe Illustrator 24.0.1, SVG Export Plug-In . SVG Version: 6.00 Build 0)  -->
<svg version="1.1" id="Layer_3" xmlns="http://www.w3.org/2000/svg" xmlns:xlink="http://www.w3.org/1999/xlink" x="0px" y="0px"
	 viewBox="0 0 598.2 350.3" style="enable-background:new 0 0 598.2 350.3;" xml:space="preserve">
<g>
	<path style="fill:#FFFFFF;" d="M164.9,149.1c6.4,0,11.5-5.2,11.5-11.5c0-6.4-5.2-11.5-11.5-11.5c-6.4,0-11.5,5.2-11.5,11.5v0
		C153.4,143.9,158.5,149.1,164.9,149.1z M172.4,137.6c0,4.1-3.4,7.5-7.5,7.5c-4.1,0-7.5-3.4-7.5-7.5c0-4.1,3.4-7.5,7.5-7.5
		C169,130.1,172.4,133.4,172.4,137.6z"/>
	<path style="fill:#FFFFFF;" d="M573,149.1c6.4,0,11.5-5.2,11.5-11.5s-5.2-11.5-11.5-11.5c-6.4,0-11.5,5.2-11.5,11.5
		S566.6,149.1,573,149.1z M580.5,137.6c0,4.1-3.4,7.5-7.5,7.5c-4.1,0-7.5-3.4-7.5-7.5c0-4.1,3.4-7.5,7.5-7.5
		C577.1,130.1,580.5,133.4,580.5,137.6z"/>
	<path style="fill:#FFFFFF;" d="M592.2,196.7c0-24.3-1.5-51.7-2.3-59c-0.4-3.7-1.9-8.9-6.9-13c-5.1-4.2-12.9-6.3-23.1-6.3H175.7
		l-0.3,0c-6.5,0-13.9,0-20.1,4.8c-6.7,5.1-10.6,15-11.8,30h-14.1l-0.6,0.5c-1.3,1.1-6.8,7.5-8.4,33c-1.2-0.6-2.6-1.1-4-1.5
		c-1.6-0.5-3.4-1-5-1.4c-1.5-0.4-2.9-0.7-4.1-1.1c-5.6-1.7-24.4-9-31.3-32.1c-2-6.6-3-11.8-3.9-16c-0.7-3.5-1.3-6.2-2.1-8.6
		c-2-5.7-5.8-8.5-14.3-10.3c-0.4-0.1-0.7-0.2-1.1-0.2c0,0,0,0,0,0c-1.6,0.1-2.6,1.2-3.2,2.3c-0.8-0.7-1.7-1.1-2.7-1.1
		c-1.7,0-3.4,0.9-5.5,2.4c-2.9,2-10.7,9.6-19.1,23.8c-7.2,12.1-16.7,32.8-21.7,62.1c-0.9,5.1-1.3,10.1-1.3,15
		c0,24.2,10.5,40.1,19.3,49.3l0,0c10.9,11.2,22.9,16.3,29.9,16.4c0.6,0,1.2,0,1.8-0.1l1-0.1l0-0.1c0.7,0.1,1.5,0.2,2.3,0.2
		c4.9,0,10.5-2.2,16.8-6.4c6.4-4.4,8.6-10.3,10.8-16.1c0.4-1.1,0.8-2.2,1.3-3.3c2.6-6.3,6-12.8,17.4-17.4c0.8-0.3,3-0.4,5.3-0.6
		c1.6-0.1,3.4-0.2,5.1-0.4c3.1-0.4,6.2-0.9,8.6-2.3c1.7,24.5,7.1,30.6,8.4,31.7l0.5,0.4h14.1c1.2,15,5.1,24.8,11.8,30
		c6.2,4.7,13.6,4.7,20.1,4.8h0.3c13,0,362.4,0,384.2,0c10.2,0,18-2.1,23.1-6.3c5-4.1,6.5-9.3,6.9-13c0.8-7.3,2.3-34.7,2.3-59
		L592.2,196.7z M559.9,301.4H175.7c-6,0-12.8,0-18-3.9c-5.9-4.5-9.3-13.8-10.3-28.4c0.9,0.4,1.7,0.5,2,0.6l0.1,0h0.1
		c0.2,0,6.9,0,18.3,0c79.1,0,388.4,0,419.2,0c-0.4,7.4-0.8,13.2-1.1,16c-0.5,4.3-2.3,7.8-5.5,10.4
		C576.1,299.6,569.1,301.4,559.9,301.4z M80.3,257.7c-0.5,1.1-0.9,2.2-1.3,3.3c-2.2,5.8-4,10.7-9.4,14.3c-7,4.7-11.8,5.7-14.6,5.7
		c-3.1,0-5-1.2-5.6-2.3c-3.7-13.6-5.6-31.9-5.6-54.6c0-45.1,7.6-93,8.6-97.9c0.3-1.4,0.6-2.5,0.8-3.5l0.1,0l0-0.2
		c0.4-1.4,0.7-2.2,1-2.8c0.1-0.2,0.2-0.4,0.3-0.5c7.9,1.8,9.8,3.6,11.4,7.7c0.7,2,1.2,4.6,1.9,7.9c0.9,4.3,1.9,9.6,4,16.5
		c7.5,25.1,27.9,33,34,34.8c1.3,0.4,2.8,0.8,4.3,1.2c1.6,0.4,3.3,0.9,4.8,1.3c3.2,0.9,4.7,1.9,5,2.3c-0.1,3.1-0.2,6.5-0.2,10.1v21.1
		c0,4,0.1,7.6,0.2,11l0,0c-0.8,1.7-4,2.9-8.7,3.4c-1.6,0.2-3.2,0.3-4.8,0.4c-2.7,0.2-5,0.3-6.6,0.9C87.7,243,83.3,250.5,80.3,257.7z
		 M4.9,219.7c0-4.6,0.4-9.4,1.2-14.3c4.8-28.7,14.2-48.9,21.2-60.7c8.3-14.1,15.9-21.1,17.9-22.5c2-1.4,3-1.7,3.2-1.7c0,0,0,0,0,0
		c0,0,0.1,0.1,0.1,0.1c0.3,0.5,0.6,1.5,0.8,2.1c-0.2,0.9-0.4,1.8-0.7,2.8c-1.1,5.2-8.7,52.8-8.7,98.7c0,23.1,2,41.9,5.8,55.9
		l0.1,0.3c0,0.1,0.1,0.2,0.2,0.3c-6.4-1.6-15.3-6.6-23-14.6C14.8,257.6,4.9,242.5,4.9,219.7z M157.7,126.2c5.1-3.9,12-3.9,18-3.9
		c13,0,362.4,0,384.2,0c9.3,0,16.2,1.8,20.6,5.4c3.1,2.6,5,6.1,5.5,10.4c0.3,2.8,0.7,8.6,1.1,16H149.5l-0.2,0c-0.3,0-1,0.2-1.9,0.5
		C148.4,140.1,151.8,130.8,157.7,126.2z M588.2,196.7V227c0,13.1-0.4,27.1-1,38.3c-2.6-0.7-5.6-2.8-8-5.8c-3.2-3.8-5.2-8.6-5.2-12.5
		c0.1-1.5,0.2-3,0.2-4.7v-61.1c0-1.6-0.1-3.2-0.2-4.7c0-3.9,2-8.6,5.2-12.5c2.4-2.9,5.4-5,8-5.8
		C587.8,169.6,588.2,183.6,588.2,196.7z M123.9,222.4v-21.1c0-4.1,0.1-7.8,0.2-11.2l0.2-0.1l-0.2-0.2c0.5-10,1.5-17.1,2.7-21.9
		c2.2,0.9,5.5,1.7,9.9,2.5c5.9,1,12.2,1.6,17.6,1.6c3.4,0,6.4-0.2,9-0.7l0.9-0.2l-0.3-3.8l-0.9,0c-1.3,0-4.4-0.7-8.7-1.7
		c-2.4-0.5-5.4-1.2-8.7-1.9c0.2-2.1,1-3.6,2.2-4.7c0.6-0.4,1.1-0.7,1.5-0.8c0.2-0.1,0.3-0.1,0.5-0.1H169c-0.4,0.2-0.7,0.5-1.1,0.8
		c-1.5,1.4-2.2,3.7-2.2,7v91.9c0,3.3,0.7,5.6,2.2,7c0.3,0.3,0.7,0.6,1.1,0.8h-19.4l-0.1,0c-0.9-0.3-3.5-1-4.1-5.6
		c3.3-0.7,6.3-1.4,8.7-1.9c4.2-1,7.3-1.7,8.6-1.7c0,0,0,0,0,0l0.9,0l0.3-3.8l-0.9-0.2c-2.6-0.4-5.6-0.7-9-0.7
		c-5.4,0-11.7,0.6-17.6,1.6c-4.4,0.8-7.7,1.6-9.9,2.5C125.3,249.1,123.9,238.6,123.9,222.4z M178.3,167.3c0.8,0.5,1.7,0.7,2.7,0.7
		c0,0,0,0,0.1,0c1.1,0,2.1-0.3,3-0.9v89.6c-0.9-0.6-1.9-0.9-3-0.9c0,0,0,0,0,0c-1,0-1.9,0.3-2.7,0.7V167.3z M274.5,262.4
		c-0.5,0-0.8-0.1-1.2-0.5c-0.1-0.1-0.3-0.3-0.4-0.5v-99.2c0.7-0.8,1-1,1.6-1c0.5,0,0.8,0.1,1.2,0.5c0.1,0.1,0.2,0.2,0.3,0.3v99.6
		C275.3,262.3,274.9,262.4,274.5,262.4z M195.9,167.6c0.7,0.3,1.4,0.4,2.1,0.4c0,0,0,0,0.1,0c1.3,0,2.6-0.5,3.6-1.4v90.5
		c-1.1-0.9-2.3-1.4-3.6-1.4c-0.7,0-1.5,0.2-2.1,0.4V167.6z M205.6,161.6c0.3-0.2,0.5-0.3,0.9-0.3c0.5,0,0.8,0.1,1.2,0.5
		c0,0,0.1,0.1,0.1,0.1v99.9c-0.5,0.5-0.8,0.6-1.3,0.6c-0.4,0-0.6-0.1-0.9-0.3V161.6z M211.8,167c1,0.7,2,1.1,3.2,1.1c0,0,0,0,0.1,0
		c0.9,0,1.7-0.2,2.5-0.6v89c-0.8-0.4-1.6-0.6-2.5-0.6c-1.1,0-2.3,0.4-3.2,1.1V167z M221.5,162.8c0-0.1,0.1-0.1,0.1-0.2
		c0.8-1.1,1.2-1.3,1.8-1.3c0.5,0,0.8,0.1,1.2,0.5c0.2,0.2,0.5,0.5,0.7,0.9v98.4c0,0,0,0,0,0.1c-0.8,1.1-1.2,1.3-1.8,1.3
		c-0.5,0-0.7-0.1-1.2-0.5c-0.3-0.2-0.5-0.6-0.8-1V162.8z M229.4,167.3c0.8,0.4,1.7,0.7,2.6,0.7c0,0,0,0,0.1,0c1.1,0,2.2-0.3,3.1-1
		v89.7c-0.9-0.6-2-1-3.1-1c0,0-0.1,0-0.1,0c-0.9,0-1.8,0.3-2.6,0.7V167.3z M239.1,261.7V162c0.5-0.6,0.9-0.7,1.3-0.7
		c0.4,0,0.7,0.1,1.1,0.4V262c-0.4,0.3-0.7,0.4-1,0.4c-0.5,0-0.7-0.1-1.2-0.5C239.3,261.9,239.2,261.8,239.1,261.7z M245.5,166.8
		c1,0.8,2.2,1.2,3.4,1.2c0,0,0,0,0.1,0c0.8,0,1.6-0.2,2.3-0.5v88.8c-0.7-0.3-1.5-0.5-2.3-0.5c-1.3,0-2.4,0.4-3.4,1.2V166.8z
		 M255.3,260.6v-97.5c0.1-0.2,0.2-0.3,0.3-0.5c0.8-1.1,1.2-1.3,1.8-1.3c0.5,0,0.8,0.1,1.2,0.5c0.2,0.2,0.3,0.4,0.5,0.6v99
		c-0.7,0.9-1.1,1.1-1.6,1.1c-0.5,0-0.7-0.1-1.2-0.5C256,261.6,255.7,261.1,255.3,260.6z M263.1,167.2c0.9,0.5,1.8,0.8,2.8,0.8
		c0,0,0,0,0.1,0c1,0,2-0.3,2.9-0.8v89.4c-0.9-0.6-1.8-0.8-2.9-0.8c0,0,0,0,0,0c-1,0-2,0.3-2.8,0.8V167.2z M279.9,167.1
		c0.9,0.6,2,1,3.1,0.9c1,0,1.9-0.3,2.7-0.7v89.1c-0.8-0.5-1.7-0.7-2.7-0.7c-1.1,0-2.2,0.3-3.1,0.9V167.1z M289.6,162.6
		c0.8-1.1,1.2-1.3,1.8-1.3c0.5,0,0.8,0.1,1.2,0.5c0.3,0.3,0.6,0.6,0.8,1.1v98c-0.1,0.1-0.1,0.2-0.2,0.3c-0.8,1.1-1.2,1.3-1.8,1.3
		c-0.5,0-0.8-0.1-1.2-0.5c-0.2-0.2-0.4-0.5-0.7-0.8V162.6z M297.4,167.4c0.8,0.4,1.6,0.6,2.5,0.6c0,0,0,0,0.1,0
		c1.2,0,2.3-0.4,3.2-1.1v89.9c-1-0.7-2.1-1.1-3.2-1.1c0,0,0,0,0,0c-0.9,0-1.7,0.2-2.5,0.6V167.4z M309.3,262.1
		c-0.3,0.2-0.6,0.3-0.9,0.3c-0.5,0-0.8-0.1-1.2-0.5c0,0,0-0.1-0.1-0.1v-100c0.5-0.5,0.8-0.6,1.2-0.6c0.4,0,0.6,0.1,0.9,0.3V262.1z
		 M313.3,166.7c1.1,0.9,2.2,1.3,3.5,1.3c0,0,0,0,0.1,0c0.7,0,1.5-0.2,2.1-0.5v88.6c-0.7-0.3-1.4-0.4-2.1-0.4c0,0,0,0,0,0
		c-1.3,0-2.6,0.5-3.6,1.3V166.7z M323.1,163.3c0.2-0.3,0.3-0.5,0.5-0.7c0.8-1.1,1.2-1.3,1.8-1.3c0.5,0,0.8,0.1,1.2,0.5
		c0.1,0.1,0.2,0.2,0.3,0.4v99.3c-0.6,0.7-1,0.9-1.5,0.9c-0.5,0-0.7-0.1-1.2-0.5c-0.4-0.3-0.8-0.9-1.2-1.5V163.3z M330.9,167.1
		c0.9,0.6,1.9,0.9,3,0.9c1,0,1.9-0.3,2.8-0.8v89.2c-0.8-0.5-1.8-0.8-2.7-0.8c0,0,0,0,0,0c-1.1,0-2.1,0.3-3,0.9V167.1z M340.7,261.3
		v-98.8c0.7-1,1.1-1.2,1.7-1.2c0.5,0,0.8,0.1,1.2,0.5c0.2,0.2,0.4,0.4,0.5,0.6v98.8c-0.7,1-1.1,1.1-1.7,1.1c-0.5,0-0.7-0.1-1.2-0.5
		C341.1,261.7,340.9,261.5,340.7,261.3z M348.1,167.2c0.8,0.5,1.8,0.8,2.8,0.8c0,0,0,0,0.1,0c0.7,0,1.3-0.1,1.9-0.4v88.5
		c-0.6-0.2-1.3-0.4-1.9-0.4c0,0-0.1,0-0.1,0c-1,0-1.9,0.3-2.8,0.8V167.2z M356.9,260.1v-96.4c0.2-0.4,0.5-0.7,0.7-1.1
		c0.8-1.1,1.2-1.3,1.8-1.3c0.5,0,0.8,0.1,1.2,0.5c0,0,0.1,0.1,0.1,0.1v99.8c-0.5,0.5-0.8,0.6-1.3,0.6c-0.5,0-0.8-0.1-1.2-0.5
		C357.8,261.5,357.3,260.8,356.9,260.1z M364.7,167c1,0.7,2,1,3.2,1c0,0,0,0,0.1,0c0.9,0,1.7-0.2,2.5-0.7v89
		c-0.8-0.4-1.6-0.6-2.5-0.6c0,0,0,0-0.1,0c-1.1,0-2.2,0.4-3.2,1V167z M378.3,261C378.2,261.1,378.2,261.1,378.3,261
		c-0.9,1.2-1.3,1.4-1.9,1.4c-0.5,0-0.7-0.1-1.2-0.5c-0.3-0.2-0.5-0.6-0.8-1v-98.2c0-0.1,0.1-0.1,0.1-0.2c0.8-1.1,1.2-1.3,1.8-1.3
		c0.5,0,0.8,0.1,1.2,0.5c0.2,0.2,0.5,0.5,0.7,0.9V261z M382.3,167.3c0.8,0.4,1.7,0.7,2.6,0.7c0,0,0,0,0.1,0c1.1,0,2.2-0.4,3.1-1
		v89.7c-0.9-0.7-2-1-3.1-1c0,0,0,0-0.1,0c-0.9,0-1.8,0.3-2.6,0.7V167.3z M392,261.7V162c0.5-0.6,0.9-0.7,1.3-0.7
		c0.5,0,0.8,0.1,1.2,0.5c0.4,0.4,0.9,1.1,1.3,1.8v96.6c-0.2,0.3-0.4,0.7-0.6,1c-0.8,1.1-1.2,1.3-1.8,1.3c-0.5,0-0.8-0.1-1.2-0.5
		C392.2,261.9,392.1,261.8,392,261.7z M399.8,167.6c0.6,0.3,1.3,0.4,2,0.4c0,0,0,0,0.1,0c1,0,1.9-0.3,2.7-0.8v89.2
		c-0.8-0.5-1.7-0.7-2.7-0.7c0,0,0,0,0,0c-0.7,0-1.4,0.1-2,0.4V167.6z M408.6,162.5c0.8-1,1.2-1.2,1.7-1.2c0.5,0,0.8,0.1,1.2,0.5
		c0.1,0.1,0.2,0.2,0.2,0.2v99.6c-0.5,0.6-0.9,0.7-1.4,0.8c-0.5,0-0.7-0.1-1.2-0.5c-0.2-0.2-0.4-0.4-0.6-0.7V162.5z M415.7,167
		c0.9,0.6,2,1,3.1,1c0,0,0,0,0.1,0c0.9,0,1.8-0.3,2.6-0.7v89.1c-0.8-0.5-1.7-0.7-2.6-0.7c0,0,0,0-0.1,0c-1.1,0-2.2,0.3-3.1,1V167z
		 M429.3,260.9c-0.1,0.1-0.1,0.2-0.2,0.2c-0.8,1.1-1.2,1.3-1.8,1.3c-0.5,0-0.8-0.1-1.2-0.5c-0.2-0.2-0.5-0.5-0.7-0.8v-98.5
		c0,0,0,0,0,0c0.8-1.1,1.2-1.3,1.8-1.3c0.5,0,0.8,0.1,1.2,0.5c0.3,0.2,0.5,0.6,0.8,1V260.9z M433.3,167.4c0.8,0.4,1.6,0.6,2.5,0.6
		c0,0,0,0,0.1,0c1.2,0,2.3-0.4,3.2-1.1v89.9c-1-0.7-2-1.1-3.2-1.1c0,0,0,0-0.1,0c-0.9,0-1.7,0.2-2.5,0.6V167.4z M445.5,261.9
		c-0.4,0.4-0.7,0.5-1.2,0.5c-0.5,0-0.7-0.1-1.2-0.5c0,0-0.1-0.1-0.1-0.1v-99.9c0.5-0.5,0.8-0.6,1.2-0.6c0.5,0,0.8,0.1,1.2,0.5
		c0,0,0,0,0,0V261.9z M449.5,166.9c1,0.7,2.1,1.1,3.3,1.1c0,0,0,0,0.1,0c0.8,0,1.7-0.2,2.4-0.6v88.9c-0.7-0.4-1.5-0.6-2.4-0.6
		c0,0,0,0-0.1,0c-1.2,0-2.3,0.4-3.3,1.1V166.9z M459.3,163c0.1-0.1,0.2-0.2,0.2-0.4c0.8-1.1,1.2-1.3,1.8-1.3c0.5,0,0.8,0.1,1.2,0.5
		c0.2,0.2,0.4,0.4,0.6,0.7v98.7c-0.8,1-1.2,1.2-1.7,1.2c-0.5,0-0.7-0.1-1.2-0.5c-0.3-0.3-0.6-0.7-0.9-1.1V163z M467.1,167.3
		c0.8,0.5,1.7,0.7,2.7,0.7c0,0,0,0,0.1,0c1.1,0,2.1-0.3,3-0.9v89.5c-0.9-0.6-1.9-0.9-3-0.9c0,0,0,0,0,0c-0.9,0-1.9,0.3-2.8,0.8
		V167.3z M476.8,162.2c0.6-0.7,1-0.8,1.5-0.9c0.5,0,0.8,0.1,1.2,0.5c0.1,0.1,0.2,0.2,0.3,0.4v99.3c-0.6,0.7-1,0.9-1.5,0.9
		c-0.5,0-0.8-0.1-1.2-0.5c-0.1-0.1-0.2-0.2-0.3-0.3V162.2z M483.8,167.1c0.9,0.6,1.9,0.9,3,0.9c0,0,0,0,0.1,0c1,0,1.9-0.3,2.7-0.8
		v89.2c-0.8-0.5-1.8-0.7-2.7-0.7c0,0,0,0-0.1,0c-1.1,0-2.1,0.3-3,0.9V167.1z M493.6,261.3v-98.8c0.7-1,1.1-1.2,1.7-1.2
		c0.5,0,0.8,0.1,1.2,0.5c0.2,0.2,0.4,0.5,0.7,0.8v98.5c-0.8,1.1-1.2,1.3-1.8,1.3c-0.5,0-0.7-0.1-1.2-0.5
		C494,261.7,493.8,261.5,493.6,261.3z M501.1,167.3c0.8,0.5,1.7,0.7,2.6,0.7c0,0,0,0,0.1,0c1.1,0,2.1-0.3,3.1-0.9v89.6
		c-0.9-0.6-1.9-1-3-1c0,0,0,0-0.1,0c-0.9,0-1.8,0.3-2.6,0.7V167.3z M510.9,261.6v-99.5c0.6-0.6,0.9-0.8,1.4-0.8
		c0.5,0,0.8,0.1,1.2,0.5c0.2,0.2,0.5,0.5,0.7,0.8v98.5c0,0,0,0,0,0c-0.8,1.1-1.2,1.3-1.8,1.3c-0.5,0-0.8-0.1-1.2-0.5
		C511.1,261.8,511,261.7,510.9,261.6z M518.1,167.3c0.8,0.5,1.7,0.7,2.6,0.7c1.1,0,2.2-0.3,3.1-1v89.7c-0.9-0.6-2-1-3.1-1
		c0,0,0,0,0,0c-1,0-1.8,0.3-2.7,0.7V167.3z M527.9,162.1c0.5-0.6,0.9-0.8,1.4-0.8c0.5,0,0.8,0.1,1.2,0.5c0.1,0.1,0.3,0.3,0.4,0.5
		v99.1c-0.7,0.8-1.1,1-1.6,1c-0.5,0-0.8-0.1-1.2-0.5c-0.1-0.1-0.2-0.2-0.2-0.2V162.1z M534.9,167.2c0.9,0.6,1.8,0.8,2.9,0.8
		c0,0,0,0,0.1,0c1,0,2-0.3,2.8-0.8v89.3c-0.9-0.5-1.8-0.8-2.8-0.8c0,0,0,0,0,0c-1,0-2,0.3-2.9,0.8V167.2z M546.3,161.3
		c1.7,0,3.6,0.7,3.7,5v91c-0.1,4.4-2,5-3.6,5.1c-0.5,0-0.8-0.1-1.2-0.5c-0.2-0.1-0.3-0.3-0.5-0.6v-99
		C545.3,161.5,545.7,161.3,546.3,161.3z M553.9,257.4v-91c0-2-0.4-3.7-1.1-5.1c4.8,0.1,8.7,0.7,11.5,2.8c3.2,2.3,5.1,6.5,5.7,12.7
		c0,0,0,0,0,0l0,1h0.1c0.1,1.1,0.1,2.3,0.1,3.5l0,23.4c0,0.1,0,0.2,0,0.4h0l0,13.5c0,0.1,0,0.1,0,23.8c0,1.2,0,2.4-0.1,3.5H570l0,1
		c0,0,0,0,0,0c-0.6,6.2-2.5,10.3-5.7,12.7c-3,2.2-7.2,2.7-11.5,2.8C553.5,261.1,553.9,259.4,553.9,257.4z M191.9,163.4v96.9
		c-0.2,0.3-0.4,0.6-0.5,0.8c-0.8,1.1-1.2,1.3-1.8,1.3c-0.5,0-0.7-0.1-1.2-0.5c-0.1-0.1-0.2-0.2-0.3-0.3v-99.4c0.6-0.7,1-0.8,1.4-0.8
		c0.5,0,0.8,0.1,1.2,0.5C191.1,162.2,191.5,162.8,191.9,163.4z M174.3,162.5v98.7c-0.8,1-1.2,1.2-1.8,1.2c-0.9,0-1.5-0.1-1.8-0.5
		c-0.4-0.4-1-1.4-1-4.1c0-6.1,0-36.2,0-36.6v-19.1l0,0c0-3.9,0-30.4,0-36.1c0-2.8,0.6-3.8,1-4.1c0.4-0.3,0.9-0.5,1.8-0.5
		c0.5,0,0.8,0.1,1.2,0.5C173.9,162,174.1,162.3,174.3,162.5z M566.7,160.8c-1.9-1.4-3.9-2.2-6.1-2.7h19c-1.2,1-2.4,2.2-3.5,3.6
		c-1.7,2-3,4.2-4,6.4C570.9,165,569.1,162.6,566.7,160.8z M542.4,158.9c-0.7,0.7-1.3,1.5-1.7,2.2h0v0c-0.1,0.2-0.2,0.3-0.3,0.5
		c-0.2,0.4-0.5,0.8-0.7,1.1c-0.8,1.1-1.2,1.3-1.8,1.3c-0.5,0-0.8-0.1-1.2-0.5c-0.4-0.4-0.9-1.1-1.4-1.9c-0.3-0.4-0.6-0.9-0.9-1.3
		c-0.7-1-1.4-1.7-2.2-2.2h11.3C543.1,158.3,542.7,158.6,542.4,158.9z M525.4,158.9c-0.4,0.4-0.7,0.8-1,1.2h-0.4v0.6
		c-0.2,0.3-0.4,0.6-0.6,0.9c-0.2,0.4-0.5,0.8-0.7,1.1c-0.8,1.1-1.2,1.3-1.8,1.3c-0.5,0-0.8-0.1-1.2-0.5c-0.4-0.4-0.9-1.1-1.4-1.9
		c0-0.1-0.1-0.1-0.1-0.2v-0.4h-0.2c-0.2-0.3-0.4-0.6-0.5-0.8c-0.7-1-1.4-1.7-2.2-2.2h11.3C526.1,158.3,525.7,158.6,525.4,158.9z
		 M508.4,158.9c-0.5,0.5-1,1.1-1.4,1.6h-0.2v0.2c-0.2,0.3-0.4,0.6-0.5,0.8c-0.2,0.4-0.5,0.8-0.7,1.1c-0.8,1.1-1.2,1.3-1.8,1.3
		c-0.5,0-0.8-0.1-1.2-0.5c-0.4-0.4-0.9-1.1-1.4-1.9c0-0.1-0.1-0.1-0.1-0.2v-0.9h-0.6c-0.1-0.1-0.1-0.2-0.2-0.3
		c-0.7-1-1.4-1.7-2.2-2.2h11.3C509.1,158.3,508.7,158.6,508.4,158.9z M491.4,158.9c-0.4,0.4-0.8,0.9-1.2,1.4h-0.7v1
		c-0.1,0.1-0.2,0.2-0.2,0.4c-0.2,0.4-0.5,0.8-0.7,1.1c-0.8,1.1-1.2,1.3-1.8,1.3c-0.5,0-0.8-0.1-1.2-0.5c-0.4-0.4-0.9-1.1-1.4-1.9
		c-0.1-0.2-0.3-0.4-0.4-0.7v-0.7h-0.5c-0.7-1-1.4-1.7-2.2-2.2h11.3C492.1,158.3,491.7,158.6,491.4,158.9z M474.4,158.9
		c-0.9,0.8-1.5,1.8-2.1,2.7c-0.2,0.4-0.5,0.8-0.7,1.1c-0.8,1.1-1.2,1.3-1.8,1.3c-0.5,0-0.8-0.1-1.2-0.5c-0.4-0.4-0.9-1.1-1.4-1.9
		c-0.1-0.1-0.1-0.2-0.2-0.3v-0.6h-0.4c-0.1-0.1-0.2-0.3-0.3-0.4c-0.7-1-1.4-1.7-2.2-2.2h11.3C475.1,158.3,474.7,158.6,474.4,158.9z
		 M457.4,158.9c-0.7,0.7-1.3,1.5-1.7,2.2h-0.4v0.7c-0.2,0.3-0.4,0.7-0.6,0.9c-0.8,1.1-1.2,1.3-1.8,1.3c-0.5,0-0.8-0.1-1.2-0.5
		c-0.4-0.4-0.9-1.1-1.4-1.9c-0.2-0.4-0.5-0.8-0.8-1.2v-0.3h-0.2c-0.6-0.9-1.3-1.5-2.1-2h11.3C458.1,158.3,457.8,158.6,457.4,158.9z
		 M440.4,158.9c-0.4,0.4-0.7,0.8-1,1.2h-0.3v0.4c-0.3,0.4-0.5,0.7-0.7,1.1c-0.2,0.4-0.5,0.8-0.7,1.1c-0.8,1.1-1.2,1.3-1.8,1.3
		c-0.5,0-0.8-0.1-1.2-0.5c-0.4-0.4-0.9-1.1-1.4-1.8v-0.6H433c-0.2-0.3-0.4-0.6-0.5-0.8c-0.7-1-1.4-1.7-2.2-2.2h11.3
		C441.1,158.3,440.8,158.6,440.4,158.9z M423.4,158.9c-0.7,0.7-1.3,1.5-1.7,2.2h-0.2v0.3c0,0.1-0.1,0.1-0.1,0.2
		c-0.2,0.4-0.5,0.8-0.7,1.1c-0.8,1.1-1.2,1.3-1.8,1.3c-0.5,0-0.8-0.1-1.2-0.5c-0.4-0.4-0.9-1.1-1.4-1.9c-0.3-0.4-0.6-0.9-0.9-1.3
		c-0.7-1-1.4-1.7-2.2-2.2h11.3C424.1,158.3,423.8,158.6,423.4,158.9z M406.4,158.9c-0.7,0.7-1.3,1.5-1.7,2.2h-0.1v0.2
		c-0.1,0.1-0.1,0.2-0.2,0.3c-0.2,0.4-0.5,0.8-0.7,1.1c-0.8,1.1-1.2,1.3-1.8,1.3c-0.5,0-0.8-0.1-1.2-0.5c-0.3-0.3-0.6-0.6-0.9-1.1
		v-0.3h-0.2c-0.1-0.2-0.2-0.3-0.3-0.5c-0.3-0.4-0.6-0.9-0.9-1.3c-0.7-1-1.4-1.7-2.2-2.2h11.3C407.1,158.3,406.8,158.6,406.4,158.9z
		 M389.5,158.9c-0.4,0.4-0.7,0.8-1,1.2H388v0.6c-0.2,0.3-0.4,0.6-0.6,0.9c-0.2,0.4-0.5,0.8-0.7,1.1c-0.8,1.1-1.2,1.3-1.8,1.3
		c-0.5,0-0.8-0.1-1.2-0.5c-0.4-0.4-0.9-1.1-1.4-1.9c0,0,0-0.1-0.1-0.1v-0.4H382c-0.2-0.3-0.4-0.6-0.5-0.8c-0.7-1-1.4-1.7-2.2-2.2
		h11.3C390.2,158.3,389.8,158.6,389.5,158.9z M372.5,158.9c-0.7,0.7-1.3,1.5-1.7,2.2h-0.3v0.5c0,0,0,0,0,0c-0.2,0.4-0.5,0.8-0.7,1.1
		c-0.8,1.1-1.2,1.3-1.8,1.3c-0.5,0-0.8-0.1-1.2-0.5c-0.4-0.4-0.9-1.1-1.4-1.9c-0.2-0.3-0.4-0.7-0.7-1v-0.5h-0.4
		c-0.6-0.9-1.3-1.5-2.1-2h11.3C373.2,158.3,372.8,158.6,372.5,158.9z M355.5,158.9c-0.9,0.8-1.5,1.8-2.1,2.7
		c-0.1,0.2-0.2,0.3-0.3,0.5h-0.3v0.4c-0.1,0.1-0.1,0.2-0.2,0.2c-0.8,1.1-1.2,1.3-1.8,1.3c-0.5,0-0.8-0.1-1.2-0.5
		c-0.4-0.4-0.9-1.1-1.4-1.9c-0.1-0.1-0.2-0.2-0.2-0.4v-0.1H348c-0.2-0.3-0.4-0.6-0.5-0.8c-0.7-1-1.4-1.7-2.2-2.2h11.3
		C356.2,158.3,355.8,158.6,355.5,158.9z M338.5,158.9c-0.7,0.7-1.3,1.5-1.7,2.2h-0.1v0.1c-0.1,0.1-0.2,0.3-0.2,0.4
		c-0.2,0.4-0.5,0.8-0.7,1.1c-0.8,1.1-1.2,1.3-1.8,1.3c-0.5,0-0.8-0.1-1.2-0.5c-0.4-0.4-0.9-1.1-1.4-1.9c-0.3-0.4-0.6-0.9-0.9-1.3
		c-0.7-1-1.4-1.7-2.2-2.2h11.3C339.2,158.3,338.8,158.6,338.5,158.9z M321.5,158.9c-0.9,0.8-1.5,1.8-2,2.7c-0.1,0.2-0.2,0.3-0.3,0.5
		h0v0.1c-0.1,0.2-0.2,0.4-0.4,0.5c-0.8,1.1-1.2,1.3-1.8,1.3c-0.5,0-0.8-0.1-1.2-0.5c-0.4-0.4-0.9-1.1-1.4-1.9
		c-0.3-0.4-0.6-0.9-0.9-1.3c-0.7-1-1.4-1.7-2.2-2.2h11.3C322.2,158.3,321.8,158.6,321.5,158.9z M304.5,158.9c-0.4,0.4-0.7,0.8-1,1.2
		h-0.3v0.4c-0.3,0.4-0.5,0.8-0.7,1.1c-0.2,0.4-0.5,0.8-0.7,1.1c-0.8,1.1-1.2,1.3-1.8,1.3c-0.5,0-0.8-0.1-1.2-0.5
		c-0.4-0.4-0.9-1.1-1.3-1.8v-0.6H297c-0.2-0.3-0.4-0.6-0.5-0.8c-0.7-1-1.4-1.7-2.2-2.2h11.3C305.2,158.3,304.9,158.6,304.5,158.9z
		 M287.5,158.9c-0.7,0.7-1.3,1.5-1.7,2.2h-0.2v0.3c0,0.1-0.1,0.1-0.1,0.2c-0.2,0.4-0.5,0.8-0.7,1.1c-0.8,1.1-1.2,1.3-1.8,1.3
		c-0.5,0-0.8-0.1-1.2-0.5c-0.4-0.4-0.9-1.1-1.4-1.9c-0.2-0.3-0.4-0.5-0.5-0.8v-0.7h-0.5c-0.6-0.9-1.3-1.5-2.1-2h11.3
		C288.2,158.3,287.9,158.6,287.5,158.9z M270.5,158.9c-0.9,0.8-1.5,1.8-2,2.7c-0.2,0.4-0.5,0.8-0.7,1.1c-0.8,1.1-1.2,1.3-1.8,1.3
		c-0.5,0-0.8-0.1-1.2-0.5c-0.4-0.4-0.9-1.1-1.4-1.9c-0.1-0.1-0.2-0.3-0.3-0.4v-0.1h0c-0.2-0.3-0.4-0.6-0.5-0.8
		c-0.7-1-1.4-1.7-2.2-2.2h11.3C271.2,158.3,270.9,158.6,270.5,158.9z M253.6,158.9c-0.7,0.7-1.3,1.5-1.7,2.2h-0.5v0.8
		c-0.2,0.3-0.3,0.5-0.5,0.8c-0.8,1.1-1.2,1.3-1.8,1.3c-0.5,0-0.8-0.1-1.2-0.5c-0.4-0.4-0.9-1.1-1.4-1.9c-0.3-0.4-0.6-0.9-0.9-1.3
		c0,0,0,0,0,0v-0.2h-0.1c-0.6-0.9-1.3-1.5-2.1-2h11.3C254.3,158.3,253.9,158.6,253.6,158.9z M236.6,158.9c-0.4,0.4-0.7,0.8-1,1.2
		h-0.4v0.6c-0.2,0.3-0.4,0.6-0.6,0.9c-0.2,0.4-0.5,0.8-0.7,1.1c-0.8,1.1-1.2,1.3-1.8,1.3c-0.5,0-0.8-0.1-1.2-0.5
		c-0.4-0.4-0.9-1.1-1.4-1.9c0,0-0.1-0.1-0.1-0.1v-0.4h-0.3c-0.2-0.3-0.4-0.6-0.5-0.8c-0.7-1-1.4-1.7-2.2-2.2h11.3
		C237.3,158.3,236.9,158.6,236.6,158.9z M219.6,158.9c-0.7,0.7-1.3,1.5-1.7,2.2h-0.3v0.5c0,0,0,0,0,0c-0.2,0.4-0.5,0.8-0.7,1.1
		c-0.8,1.1-1.2,1.3-1.8,1.3c-0.5,0-0.8-0.1-1.2-0.5c-0.4-0.4-0.9-1.1-1.4-1.9c-0.2-0.3-0.4-0.7-0.7-1v-0.5h-0.3
		c-0.6-0.9-1.3-1.5-2.1-2h11.4C220.3,158.3,219.9,158.6,219.6,158.9z M202.6,158.9c-0.9,0.8-1.5,1.8-2,2.7c-0.2,0.4-0.5,0.8-0.7,1.1
		c-0.8,1.1-1.2,1.3-1.8,1.3c-0.5,0-0.8-0.1-1.2-0.5c-0.3-0.3-0.6-0.7-1-1.3v-0.1h-0.1c-0.1-0.2-0.2-0.3-0.3-0.5
		c-0.3-0.4-0.6-0.9-0.9-1.3c-0.7-1-1.4-1.7-2.2-2.2h11.3C203.3,158.3,202.9,158.6,202.6,158.9z M193.4,264.8c0.9-0.8,1.5-1.8,2-2.7
		h0.4v-0.7c0.1-0.2,0.2-0.3,0.3-0.5c0.8-1.1,1.2-1.3,1.8-1.3c0.5,0,0.8,0.1,1.2,0.5c0.4,0.4,0.9,1.1,1.4,1.9
		c0.3,0.4,0.6,0.9,0.9,1.3c0.1,0.1,0.1,0.2,0.2,0.3v0.1h0.1c0.6,0.8,1.2,1.4,1.9,1.8h-11.3C192.7,265.4,193.1,265.1,193.4,264.8z
		 M210.4,264.8c0.5-0.4,0.9-0.9,1.2-1.4h0.2v-0.2c0.2-0.4,0.5-0.7,0.7-1c0.2-0.4,0.5-0.8,0.7-1.1c0.8-1.1,1.2-1.3,1.8-1.3
		c0.5,0,0.8,0.1,1.2,0.5c0.4,0.4,0.9,1.1,1.4,1.9v0.4h0.3c0.2,0.3,0.4,0.6,0.6,0.9c0.7,1,1.4,1.7,2.2,2.2h-11.3
		C209.7,265.4,210.1,265.1,210.4,264.8z M227.4,264.8c0.6-0.6,1.1-1.2,1.5-1.8h0.5v-0.7c0,0,0.1-0.1,0.1-0.1
		c0.2-0.4,0.5-0.8,0.7-1.1c0.8-1.1,1.2-1.3,1.8-1.3c0.5,0,0.8,0.1,1.2,0.5c0.4,0.4,0.9,1.1,1.4,1.9c0.2,0.3,0.4,0.6,0.6,0.9v0.4h0.3
		c0,0,0,0,0,0.1c0.7,1,1.4,1.7,2.2,2.2h-11.3C226.7,265.4,227.1,265.1,227.4,264.8z M244.4,264.8c0.9-0.8,1.5-1.8,2.1-2.7
		c0.2-0.4,0.5-0.8,0.7-1.1c0.8-1.1,1.2-1.3,1.8-1.3c0.5,0,0.7,0.1,1.2,0.5c0.4,0.3,0.8,0.9,1.2,1.6v0.3h0.2c0.3,0.4,0.6,0.9,0.9,1.3
		c0.7,1,1.4,1.7,2.2,2.2h-11.3C243.7,265.4,244.1,265.1,244.4,264.8z M261.4,264.8c0.6-0.6,1.1-1.2,1.5-1.8h0.3v-0.4
		c0.1-0.2,0.2-0.3,0.3-0.5c0.2-0.4,0.5-0.8,0.7-1.1c0.8-1.1,1.2-1.3,1.8-1.3c0.5,0,0.8,0.1,1.2,0.5c0.4,0.4,0.9,1.1,1.4,1.9
		c0.1,0.2,0.3,0.4,0.4,0.6v0.3h0.2c0.1,0.2,0.2,0.3,0.3,0.5c0.7,1,1.4,1.7,2.2,2.2h-11.3C260.7,265.4,261,265.1,261.4,264.8z
		 M278.4,264.8c0.6-0.6,1.1-1.2,1.5-1.8h0v0c0.2-0.3,0.4-0.6,0.5-0.8c0.2-0.4,0.5-0.8,0.7-1.1c0.8-1.1,1.2-1.3,1.8-1.3
		c0.5,0,0.8,0.1,1.2,0.5c0.4,0.4,0.9,1.1,1.4,1.9c0,0.1,0.1,0.1,0.1,0.2v0.7h0.4c0.1,0.2,0.2,0.3,0.3,0.5c0.7,1,1.4,1.7,2.2,2.2
		h-11.3C277.7,265.4,278,265.1,278.4,264.8z M295.3,264.8c0.7-0.7,1.3-1.5,1.8-2.3h0.3V262c0.2-0.4,0.4-0.7,0.7-1
		c0.8-1.1,1.2-1.3,1.8-1.3c0.5,0,0.8,0.1,1.2,0.5c0.4,0.4,0.9,1.1,1.4,1.9c0.2,0.4,0.5,0.7,0.7,1.1v0.2h0.1c0,0,0,0,0,0.1
		c0.7,1,1.4,1.7,2.2,2.2h-11.3C294.7,265.4,295,265.1,295.3,264.8z M312.3,264.8c0.3-0.3,0.6-0.7,0.9-1h0.1v-0.2
		c0.4-0.5,0.7-1,1-1.5c0.2-0.4,0.5-0.8,0.7-1.1c0.8-1.1,1.2-1.3,1.8-1.3c0.5,0,0.8,0.1,1.2,0.5c0.3,0.3,0.7,0.8,1,1.3v0.6h0.4
		c0.3,0.4,0.6,0.9,0.9,1.3c0.7,1,1.4,1.7,2.2,2.2h-11.3C311.7,265.4,312,265.1,312.3,264.8z M329.3,264.8c0.6-0.6,1.1-1.2,1.5-1.8
		h0.1v-0.2c0.2-0.2,0.3-0.5,0.4-0.7c0.2-0.4,0.5-0.8,0.7-1.1c0.8-1.1,1.2-1.3,1.8-1.3c0.5,0,0.8,0.1,1.2,0.5
		c0.4,0.4,0.9,1.1,1.4,1.9c0.1,0.1,0.2,0.2,0.2,0.4v0.5h0.3c0.1,0.2,0.2,0.3,0.3,0.5c0.7,1,1.4,1.7,2.2,2.2h-11.3
		C328.6,265.4,329,265.2,329.3,264.8z M346.3,264.8c0.5-0.5,0.9-1,1.3-1.6h0.5v-0.7c0.1-0.1,0.2-0.3,0.3-0.4
		c0.2-0.4,0.5-0.8,0.7-1.1c0.8-1.1,1.2-1.3,1.8-1.3c0.5,0,0.8,0.1,1.2,0.5c0.3,0.2,0.5,0.6,0.8,1v0.5h0.3c0.1,0.1,0.2,0.3,0.3,0.4
		c0.3,0.4,0.6,0.9,0.9,1.3c0.7,1,1.4,1.7,2.2,2.2h-11.3C345.6,265.4,346,265.1,346.3,264.8z M363.3,264.8c0.5-0.4,0.9-0.9,1.2-1.4
		h0.2v-0.3c0.2-0.3,0.5-0.7,0.7-1c0.2-0.4,0.5-0.8,0.7-1.1c0.8-1.1,1.2-1.3,1.8-1.3c0.5,0,0.8,0.1,1.2,0.5c0.4,0.4,0.9,1.1,1.4,1.9
		c0,0,0,0,0,0v0.4h0.3c0.2,0.3,0.4,0.6,0.6,0.9c0.7,1,1.4,1.7,2.2,2.2h-11.3C362.6,265.4,363,265.1,363.3,264.8z M380.3,264.8
		c0.6-0.6,1.1-1.2,1.5-1.8h0.5v-0.7c0,0,0-0.1,0.1-0.1c0.2-0.4,0.5-0.8,0.7-1.1c0.8-1.1,1.2-1.3,1.8-1.3c0.5,0,0.8,0.1,1.2,0.5
		c0.4,0.4,0.9,1.1,1.4,1.9c0.2,0.3,0.4,0.6,0.6,0.9v0.4h0.2c0,0,0,0,0,0.1c0.7,1,1.4,1.7,2.2,2.2h-11.3
		C379.6,265.4,379.9,265.2,380.3,264.8z M397.3,264.8c0.9-0.8,1.5-1.8,2.1-2.7c0.2-0.4,0.5-0.8,0.7-1.1c0.8-1.1,1.2-1.3,1.8-1.3
		c0.5,0,0.8,0.1,1.2,0.5c0.4,0.4,0.9,1.1,1.4,1.9c0.1,0.1,0.1,0.2,0.2,0.3v1.8h1.3c0.5,0.6,1,1,1.6,1.4h-11.3
		C396.6,265.4,396.9,265.1,397.3,264.8z M414.3,264.8c0.5-0.4,0.9-0.9,1.2-1.4h0.3V263c0.2-0.3,0.4-0.6,0.6-0.9
		c0.2-0.4,0.5-0.8,0.7-1.1c0.8-1.1,1.2-1.3,1.8-1.3c0.5,0,0.7,0.1,1.2,0.5c0.4,0.4,0.9,1.1,1.4,1.9c0,0.1,0.1,0.1,0.1,0.2v0.7h0.5
		c0.1,0.2,0.2,0.3,0.3,0.5c0.7,1,1.4,1.7,2.2,2.2h-11.3C413.6,265.4,413.9,265.1,414.3,264.8z M431.2,264.8c0.7-0.7,1.3-1.5,1.8-2.3
		h0.3v-0.5c0.2-0.4,0.5-0.7,0.7-1.1c0.8-1.1,1.2-1.3,1.8-1.3c0.5,0,0.8,0.1,1.2,0.5c0.4,0.4,0.9,1.1,1.4,1.9
		c0.2,0.3,0.5,0.7,0.7,1.1v0.2h0.1c0,0,0,0,0,0.1c0.7,1,1.4,1.7,2.2,2.2h-11.3C430.6,265.4,430.9,265.1,431.2,264.8z M448.2,264.8
		c0.5-0.4,0.9-0.9,1.2-1.4h0.1v-0.1c0.3-0.4,0.5-0.8,0.8-1.2c0.2-0.4,0.5-0.8,0.7-1.1c0.8-1.1,1.2-1.3,1.8-1.3
		c0.5,0,0.8,0.1,1.2,0.5c0.4,0.4,0.8,1,1.3,1.7v0.6h0.4c0.2,0.3,0.4,0.6,0.6,0.9c0.7,1,1.4,1.7,2.2,2.2h-11.3
		C447.6,265.4,447.9,265.1,448.2,264.8z M465.2,264.8c0.7-0.7,1.3-1.5,1.8-2.3h0.1v-0.1c0.1-0.1,0.1-0.2,0.2-0.3
		c0.2-0.4,0.5-0.8,0.7-1.1c0.8-1.1,1.2-1.3,1.8-1.3c0.5,0,0.8,0.1,1.2,0.5c0.4,0.4,0.9,1.1,1.4,1.9c0.2,0.2,0.3,0.5,0.5,0.7v0.1h0.1
		c0.1,0.2,0.2,0.3,0.3,0.5c0.7,1,1.4,1.7,2.2,2.2h-11.3C464.5,265.4,464.9,265.1,465.2,264.8z M482.2,264.8c0.6-0.6,1.1-1.2,1.5-1.8
		h0.1v-0.2c0.2-0.2,0.3-0.5,0.4-0.7c0.2-0.4,0.5-0.8,0.7-1.1c0.8-1.1,1.2-1.3,1.8-1.3c0.5,0,0.8,0.1,1.2,0.5
		c0.4,0.4,0.9,1.1,1.4,1.9c0.1,0.1,0.2,0.2,0.2,0.3v0.1h0.1c0.2,0.3,0.4,0.6,0.6,0.9c0.7,1,1.4,1.7,2.2,2.2h-11.3
		C481.5,265.4,481.9,265.1,482.2,264.8z M499.2,264.8c0.8-0.7,1.4-1.6,1.9-2.4h0.1v-0.1c0-0.1,0.1-0.1,0.1-0.2
		c0.2-0.4,0.5-0.8,0.7-1.1c0.8-1.1,1.2-1.3,1.8-1.3c0.5,0,0.8,0.1,1.2,0.5c0.4,0.4,0.9,1.1,1.4,1.9c0.2,0.3,0.4,0.5,0.5,0.8v0.3h0.2
		c0,0.1,0.1,0.1,0.1,0.2c0.7,1,1.4,1.7,2.2,2.2h-11.3C498.5,265.4,498.9,265.1,499.2,264.8z M516.2,264.8c0.6-0.6,1.1-1.2,1.5-1.8
		h0.5v-0.7c0-0.1,0.1-0.1,0.1-0.2c0.2-0.4,0.5-0.8,0.7-1.1c0.8-1.1,1.2-1.3,1.8-1.3c0.5,0,0.8,0.1,1.2,0.5c0.4,0.4,0.9,1.1,1.4,1.9
		c0.2,0.3,0.4,0.6,0.6,0.9v0.4h0.3c0,0,0,0,0,0.1c0.7,1,1.4,1.7,2.2,2.2h-11.3C515.5,265.4,515.9,265.1,516.2,264.8z M533.2,264.8
		c0.6-0.6,1.1-1.2,1.5-1.8h0.2v-0.3c0.1-0.2,0.2-0.4,0.4-0.6c0.2-0.4,0.5-0.8,0.7-1.1c0.8-1.1,1.2-1.3,1.8-1.3
		c0.5,0,0.8,0.1,1.2,0.5c0.4,0.4,0.9,1.1,1.4,1.9c0.1,0.2,0.2,0.3,0.3,0.5v0.4h0.2c0.1,0.2,0.2,0.3,0.3,0.5c0.7,1,1.4,1.7,2.2,2.2
		h-11.3C532.5,265.4,532.9,265.1,533.2,264.8z M566.7,262.9c2.4-1.7,4.2-4.1,5.4-7.2c1,2.2,2.4,4.4,4,6.4c1.1,1.3,2.3,2.5,3.5,3.5
		h-19C562.8,265.1,564.8,264.3,566.7,262.9z M186.7,158.1c-0.4,0.2-0.8,0.5-1.1,0.8c-0.4,0.4-0.7,0.8-1,1.2h-0.5v0.7
		c-0.2,0.3-0.3,0.5-0.5,0.8c-0.2,0.4-0.5,0.8-0.7,1.1c-0.8,1.1-1.2,1.3-1.8,1.3c-0.5,0-0.8-0.1-1.2-0.5c-0.4-0.4-0.9-1.1-1.4-1.9
		c-0.1-0.1-0.1-0.2-0.2-0.3v-0.2h-0.2c-0.2-0.3-0.4-0.6-0.5-0.8c-0.7-1-1.4-1.7-2.2-2.2H186.7z M176.4,264.8
		c0.6-0.6,1.1-1.2,1.5-1.8h0.4v-0.6c0.1-0.1,0.1-0.2,0.2-0.3c0.2-0.4,0.5-0.8,0.7-1.1c0.8-1.1,1.2-1.3,1.8-1.3
		c0.5,0,0.8,0.1,1.2,0.5c0.4,0.4,0.9,1.1,1.4,1.9c0.2,0.2,0.3,0.5,0.5,0.8v0.1h0.1c0.1,0.2,0.2,0.3,0.3,0.5c0.7,1,1.4,1.7,2.2,2.2
		h-11.3C175.8,265.4,176.1,265.1,176.4,264.8z M130.5,157.7c0.2-0.3,0.3-0.5,0.5-0.7h13.1c-1.3,1.5-2.6,4.1-2.6,8.3v1.6l0.9,0.2
		c-1.7-0.2-3.3-0.5-5-0.7c-4.4-0.8-7.9-1.7-9.5-2.4c0,0,0-0.1,0-0.1C128.9,160.7,129.8,158.8,130.5,157.7z M137.4,257.3
		c1.6-0.3,3.3-0.5,5-0.7l-0.9,0.2v1.6c0,4.2,1.3,6.8,2.6,8.3c-4.4,0-10.8,0-13.1,0c-0.6-0.8-1.8-2.8-3.1-6.9
		C129.5,259.1,132.9,258.1,137.4,257.3z"/>
	<path style="fill:#FFFFFF;" d="M164.9,274.6c-6.4,0-11.5,5.2-11.5,11.5c0,6.4,5.2,11.5,11.5,11.5s11.5-5.2,11.5-11.5
		C176.4,279.8,171.2,274.6,164.9,274.6z M157.4,286.2c0-4.1,3.4-7.5,7.5-7.5c4.1,0,7.5,3.4,7.5,7.5c0,4.1-3.4,7.5-7.5,7.5
		C160.8,293.7,157.4,290.3,157.4,286.2z"/>
	<path style="fill:#FFFFFF;" d="M573,274.6c-6.4,0-11.5,5.2-11.5,11.5s5.2,11.5,11.5,11.5c6.4,0,11.5-5.2,11.5-11.5
		S579.3,274.6,573,274.6z M580.5,286.2c0,4.1-3.4,7.5-7.5,7.5c-4.1,0-7.5-3.4-7.5-7.5c0-4.1,3.4-7.5,7.5-7.5
		C577.1,278.6,580.5,282,580.5,286.2z"/>
</g>
</svg>
