<?xml version="1.0" encoding="utf-8"?>
<!-- Generator: Adobe Illustrator 24.0.1, SVG Export Plug-In . SVG Version: 6.00 Build 0)  -->
<svg version="1.1"
	 id="Layer_3" xmlns:cc="http://creativecommons.org/ns#" xmlns:dc="http://purl.org/dc/elements/1.1/" xmlns:rdf="http://www.w3.org/1999/02/22-rdf-syntax-ns#"
	 xmlns="http://www.w3.org/2000/svg" xmlns:xlink="http://www.w3.org/1999/xlink" x="0px" y="0px" viewBox="0 0 598.2 350.3"
	 style="enable-background:new 0 0 598.2 350.3;" xml:space="preserve">
<g>
	<path style="fill:#FFFFFF;" d="M466.3,200.2h-10.4v-22.1c0-1.2-1-2.2-2.2-2.2l-22.2,0c-0.3,0-0.6,0.1-0.9,0.2
		c-0.3-0.1-0.6-0.2-0.9-0.2l-22.2,0c-0.3,0-0.6,0.1-0.9,0.2c-0.3-0.1-0.6-0.2-0.9-0.2h-22.2c-0.3,0-0.6,0.1-0.9,0.2
		c-0.3-0.1-0.6-0.2-0.9-0.2l-22.2,0c-0.3,0-0.6,0.1-0.9,0.2c-0.3-0.1-0.6-0.2-0.9-0.2h-22.2c-0.3,0-0.6,0.1-0.9,0.2
		c-0.3-0.1-0.6-0.2-0.9-0.2h-22.2c-0.3,0-0.6,0.1-0.9,0.2c-0.3-0.1-0.6-0.2-0.9-0.2h-22.2c-0.3,0-0.6,0.1-0.9,0.2
		c-0.3-0.1-0.6-0.2-0.9-0.2h-22.2c-0.3,0-0.6,0.1-0.9,0.2c-0.3-0.1-0.6-0.2-0.9-0.2h-22.2c-0.3,0-0.6,0.1-0.9,0.2
		c-0.3-0.1-0.6-0.2-0.9-0.2h-22.2c-0.3,0-0.6,0.1-0.9,0.2c-0.3-0.1-0.6-0.2-0.9-0.2h-22.2c-0.3,0-0.6,0.1-0.9,0.2
		c-0.3-0.1-0.6-0.2-0.9-0.2h-22.2c-0.3,0-0.6,0.1-0.9,0.2c-0.3-0.1-0.6-0.2-0.9-0.2h-22.2c-1.2,0-2.2,1-2.2,2.2v22.1l-10.2,0
		c-1.2,0-2.2,1-2.2,2.2v22.2c0,1.2,1,2.2,2.2,2.2l4.1,0v22.1c0,0.3,0.1,0.7,0.2,0.9c-0.2,0.3-0.3,0.7-0.3,1.1V273
		c0,1.2,1,2.2,2.2,2.2h34.9c0.3,0,0.6-0.1,0.9-0.2c0.3,0.1,0.6,0.2,0.9,0.2h22.2c0.3,0,0.6-0.1,0.9-0.2c0.3,0.1,0.6,0.2,0.9,0.2
		l2.8,0l0,21.8c0,1.2,1,2.2,2.2,2.2H398c1.2,0,2.2-1,2.2-2.2v-21.8l12.2,0c0.3,0,0.6-0.1,0.9-0.2c0.3,0.1,0.6,0.2,0.9,0.2h36.7
		c1.2,0,2.2-1,2.2-2.2v-22h9.2c1.2,0,2.2-1,2.2-2.2v-22l1.9,0c1.2,0,2.2-1,2.2-2.2v-22.2C468.5,201.1,467.5,200.2,466.3,200.2z
		 M204.6,290.6c0.7,2.6,3.1,4.6,5.9,4.6l180.1,0c2.9,0,5.2-2,5.9-4.6v4.9h-192L204.6,290.6z M208,289v-6.3c0-1.4,1.1-2.5,2.5-2.5
		h180.1c1.4,0,2.5,1.1,2.5,2.5v6.3c0,1.4-1.1,2.5-2.5,2.5H210.5C209.1,291.6,208,290.4,208,289z M396.5,281.1
		c-0.7-2.6-3.1-4.6-5.9-4.6H210.5c-2.9,0-5.2,1.9-5.9,4.6l0-4.9h192V281.1z M433,193.9c0.7,2.6,3.1,4.6,5.9,4.6l7.4,0
		c2.9,0,5.3-2,5.9-4.6l0,4.9l-19.3,0L433,193.9z M436.4,192.4V186c0-1.4,1.1-2.5,2.5-2.5l7.4,0c1.4,0,2.5,1.1,2.5,2.5v6.3
		c0,1.4-1.1,2.5-2.5,2.5h-7.4C437.5,194.9,436.4,193.8,436.4,192.4z M452.3,184.5c-0.7-2.6-3.1-4.6-5.9-4.6h-7.4
		c-2.9,0-5.2,2-5.9,4.6l0-4.9l19.3,0L452.3,184.5z M410.9,257.1c-0.7-2.6-3.1-4.6-5.9-4.6l-7.4,0c-2.9,0-5.3,2-5.9,4.6v-4.9h19.3
		L410.9,257.1z M407.5,258.7v6.3c0,1.4-1.1,2.5-2.5,2.5h-7.4c-1.4,0-2.5-1.1-2.5-2.5l0-6.3c0-1.4,1.1-2.5,2.5-2.5h7.4
		C406.3,256.1,407.5,257.3,407.5,258.7z M391.6,266.6c0.7,2.6,3.1,4.6,5.9,4.6l7.4,0c2.8,0,5.2-2,5.9-4.6l0,4.9l-19.3,0V266.6z
		 M218.9,257.1c-0.7-2.6-3.1-4.6-5.9-4.6h-7.4c-2.9,0-5.3,2-5.9,4.6v-4.9l19.3,0V257.1z M215.5,258.7v6.3c0,1.4-1.1,2.5-2.5,2.5
		h-7.4c-1.4,0-2.5-1.1-2.5-2.5v-6.3c0-1.4,1.1-2.5,2.5-2.5h7.4C214.4,256.1,215.5,257.3,215.5,258.7z M199.6,266.6
		c0.7,2.6,3.1,4.6,5.9,4.6h7.4c2.9,0,5.2-2,5.9-4.6v4.9h-19.3V266.6z M170.9,257.1c-0.7-2.6-3.1-4.6-5.9-4.6h-20.1
		c-2.9,0-5.2,2-5.9,4.6l0-4.9h32V257.1z M167.5,258.7l0,6.3c0,1.4-1.1,2.5-2.5,2.5h-20.1c-1.4,0-2.5-1.1-2.5-2.5v-6.3
		c0-1.4,1.1-2.5,2.5-2.5H165C166.4,256.1,167.5,257.3,167.5,258.7z M138.9,266.6c0.7,2.6,3.1,4.6,5.9,4.6H165c2.9,0,5.3-2,5.9-4.6
		v4.9h-32L138.9,266.6z M436.8,232.9c-0.7-2.6-3.1-4.6-5.9-4.6h-21.9c-2.9,0-5.3,2-5.9,4.6V228l33.8,0V232.9z M433.4,234.5v6.3
		c0,1.4-1.1,2.5-2.5,2.5h-21.9c-1.4,0-2.5-1.1-2.6-2.5v-6.3c0-1.4,1.1-2.5,2.5-2.5h21.9C432.2,231.9,433.4,233.1,433.4,234.5z
		 M402.9,242.4c0.7,2.6,3.1,4.6,5.9,4.6h21.9c2.8,0,5.2-2,5.9-4.6v4.9l-33.8,0V242.4z M206.3,232.9c-0.7-2.6-3.1-4.6-5.9-4.6h-7.4
		c-2.9,0-5.3,2-5.9,4.6V228h19.3V232.9z M202.9,234.5v6.3c0,1.4-1.1,2.5-2.5,2.5h-7.4c-1.4,0-2.5-1.1-2.5-2.5v-6.3
		c0-1.4,1.1-2.5,2.5-2.5h7.4C201.7,231.9,202.9,233.1,202.9,234.5z M187,242.4c0.7,2.6,3.1,4.6,5.9,4.6h7.4c2.9,0,5.2-2,5.9-4.6v4.9
		l-19.3,0V242.4z M182.3,232.9c-0.7-2.6-3.1-4.6-5.9-4.6l-7.4,0c-2.8,0-5.2,1.9-5.9,4.6V228h19.3V232.9z M178.9,240.8
		c0,1.4-1.1,2.5-2.5,2.5h-7.4c-1.4,0-2.5-1.1-2.5-2.5v-6.3c0-1.4,1.1-2.5,2.5-2.5h7.4c1.4,0,2.5,1.1,2.5,2.5L178.9,240.8z
		 M163,242.4c0.7,2.6,3.1,4.6,5.9,4.6l7.4,0c2.9,0,5.3-2,5.9-4.6v4.9H163V242.4z M156.7,218.2c0.7,2.6,3.1,4.6,5.9,4.6l7.4,0
		c2.9,0,5.3-2,5.9-4.6v4.9h-19.3V218.2z M160.1,216.6v-6.3c0-1.4,1.1-2.5,2.5-2.5h7.4c1.4,0,2.5,1.1,2.5,2.5v6.3
		c0,1.4-1.1,2.5-2.5,2.5l-7.4,0C161.2,219.1,160.1,218,160.1,216.6z M176,208.7c-0.7-2.6-3.1-4.6-5.9-4.6h-7.4c-2.8,0-5.2,2-5.9,4.6
		v-4.9H176V208.7z M180.7,218.2c0.7,2.6,3.1,4.6,5.9,4.6h7.4c2.9,0,5.2-2,5.9-4.6l0,4.9h-19.3V218.2z M184.1,216.6v-6.3
		c0-1.4,1.1-2.5,2.5-2.5h7.4c1.4,0,2.5,1.1,2.5,2.5l0,6.3c0,1.4-1.1,2.5-2.5,2.5h-7.4C185.2,219.1,184.1,218,184.1,216.6z
		 M200,208.7c-0.7-2.6-3.1-4.6-5.9-4.6h-7.4c-2.9,0-5.3,2-5.9,4.6v-4.9H200L200,208.7z M204.7,218.2c0.7,2.6,3.1,4.6,5.9,4.6l7.4,0
		c2.9,0,5.3-2,5.9-4.6v4.9h-19.3V218.2z M208.1,216.6v-6.3c0-1.4,1.1-2.5,2.5-2.5h7.4c1.4,0,2.5,1.1,2.5,2.5v6.3
		c0,1.4-1.1,2.5-2.5,2.5h-7.4C209.2,219.1,208.1,218,208.1,216.6z M224,208.7c-0.7-2.6-3.1-4.6-5.9-4.6h-7.4c-2.9,0-5.3,2-5.9,4.6
		v-4.9H224V208.7z M228.7,218.2c0.7,2.6,3.1,4.6,5.9,4.6l7.4,0c2.9,0,5.2-2,5.9-4.6l0,4.9h-19.3V218.2z M232.1,216.6v-6.3
		c0-1.4,1.1-2.5,2.5-2.5h7.4c1.4,0,2.5,1.1,2.5,2.5v6.3c0,1.4-1.1,2.5-2.5,2.5l-7.4,0C233.2,219.1,232.1,218,232.1,216.6z
		 M248,208.7c-0.7-2.6-3.1-4.6-5.9-4.6h-7.4c-2.8,0-5.2,1.9-5.9,4.6v-4.9H248L248,208.7z M252.7,218.2c0.7,2.6,3.1,4.6,5.9,4.6
		l7.4,0c2.8,0,5.2-1.9,5.9-4.6v4.9h-19.3L252.7,218.2z M256.1,216.6v-6.3c0-1.4,1.1-2.5,2.5-2.5h7.4c1.4,0,2.5,1.1,2.5,2.5v6.3
		c0,1.4-1.1,2.5-2.5,2.5l-7.4,0C257.2,219.1,256.1,218,256.1,216.6z M272,208.7c-0.7-2.6-3.1-4.6-5.9-4.6h-7.4c-2.9,0-5.3,2-5.9,4.6
		l0-4.9H272V208.7z M276.7,218.2c0.7,2.6,3.1,4.6,5.9,4.6h7.4c2.9,0,5.2-2,5.9-4.6l0,4.9h-19.3V218.2z M280.1,216.6v-6.3
		c0-1.4,1.1-2.5,2.5-2.5h7.4c1.4,0,2.5,1.1,2.5,2.5v6.3c0,1.4-1.1,2.5-2.5,2.5l-7.4,0C281.2,219.1,280.1,218,280.1,216.6z
		 M296,208.7c-0.7-2.6-3.1-4.6-5.9-4.6h-7.4c-2.9,0-5.3,2-5.9,4.6v-4.9H296L296,208.7z M300.7,218.2c0.7,2.6,3.1,4.6,5.9,4.6l7.4,0
		c2.8,0,5.2-2,5.9-4.6l0,4.9h-19.3V218.2z M304.1,216.6v-6.3c0-1.4,1.1-2.5,2.5-2.5h7.4c1.4,0,2.5,1.1,2.5,2.5v6.3
		c0,1.4-1.1,2.5-2.5,2.5l-7.4,0C305.2,219.1,304.1,218,304.1,216.6z M320,208.7c-0.7-2.6-3.1-4.6-5.9-4.6h-7.4
		c-2.9,0-5.2,1.9-5.9,4.6v-4.9H320L320,208.7z M324.7,218.2c0.7,2.6,3.1,4.6,5.9,4.6l7.4,0c2.8,0,5.2-2,5.9-4.6v4.9l-19.3,0
		L324.7,218.2z M328.1,216.6v-6.3c0-1.4,1.1-2.5,2.5-2.5h7.4c1.4,0,2.5,1.1,2.5,2.5l0,6.3c0,1.4-1.1,2.5-2.5,2.5h-7.4
		C329.2,219.1,328.1,218,328.1,216.6z M344,208.7c-0.7-2.6-3.1-4.6-5.9-4.6h-7.4c-2.9,0-5.3,2-5.9,4.6l0-4.9l19.3,0V208.7z
		 M348.7,218.2c0.7,2.6,3.1,4.6,5.9,4.6l7.4,0c2.8,0,5.2-2,5.9-4.6l0,4.9h-19.3V218.2z M352.1,216.6v-6.3c0-1.4,1.1-2.5,2.5-2.6
		l7.4,0c1.4,0,2.5,1.1,2.5,2.5v6.3c0,1.4-1.1,2.5-2.5,2.5h-7.4C353.2,219.1,352.1,218,352.1,216.6z M368,208.7
		c-0.7-2.6-3.1-4.6-5.9-4.6h-7.4c-2.9,0-5.2,1.9-5.9,4.6v-4.9H368L368,208.7z M372.7,218.2c0.7,2.6,3.1,4.6,5.9,4.6h7.4
		c2.9,0,5.3-2,5.9-4.6v4.9l-19.3,0V218.2z M376,216.6v-6.3c0-1.4,1.1-2.5,2.5-2.5h7.4c1.4,0,2.5,1.1,2.5,2.5v6.3
		c0,1.4-1.1,2.5-2.5,2.5h-7.4C377.2,219.1,376,218,376,216.6z M392,208.7c-0.7-2.6-3.1-4.6-5.9-4.6h-7.4c-2.9,0-5.2,1.9-5.9,4.6
		v-4.9H392V208.7z M396.6,218.2c0.7,2.6,3.1,4.6,5.9,4.6h7.4c2.9,0,5.2-2,5.9-4.6l0,4.9h-19.3V218.2z M400,216.6v-6.3
		c0-1.4,1.1-2.5,2.5-2.5h7.4c1.4,0,2.5,1.1,2.5,2.5l0,6.3c0,1.4-1.1,2.5-2.5,2.5h-7.4C401.2,219.1,400,218,400,216.6z M416,208.7
		c-0.7-2.6-3.1-4.6-5.9-4.6h-7.4c-2.8,0-5.2,1.9-5.9,4.6v-4.9H416L416,208.7z M398.3,232.9c-0.7-2.6-3.1-4.6-5.9-4.6l-7.4,0
		c-2.9,0-5.3,2-5.9,4.6V228h19.3L398.3,232.9z M394.9,240.8c0,1.4-1.1,2.5-2.5,2.5h-7.4c-1.4,0-2.5-1.1-2.5-2.5v-6.3
		c0-1.4,1.1-2.5,2.5-2.5l7.4,0c1.4,0,2.5,1.1,2.5,2.5L394.9,240.8z M378.9,242.4c0.7,2.6,3.1,4.6,5.9,4.6h7.4c2.9,0,5.2-2,5.9-4.6
		l0,4.9h-19.3V242.4z M242.9,257.1c-0.7-2.6-3.1-4.6-5.9-4.6l-7.4,0c-2.9,0-5.2,2-5.9,4.6l0-4.9h19.3V257.1z M239.5,258.7l0,6.3
		c0,1.4-1.1,2.5-2.5,2.5l-7.4,0c-1.4,0-2.5-1.1-2.5-2.5l0-6.3c0-1.4,1.1-2.5,2.5-2.5h7.4C238.4,256.1,239.5,257.3,239.5,258.7z
		 M223.6,266.6c0.7,2.6,3.1,4.6,5.9,4.6h7.4c2.9,0,5.3-2,5.9-4.6v4.9h-19.3L223.6,266.6z M230.3,232.9c-0.7-2.6-3.1-4.6-5.9-4.6
		l-7.4,0c-2.9,0-5.2,2-5.9,4.6V228h19.3L230.3,232.9z M226.9,234.5v6.3c0,1.4-1.1,2.5-2.5,2.5h-7.4c-1.4,0-2.5-1.1-2.5-2.5v-6.3
		c0-1.4,1.1-2.5,2.5-2.5h7.4C225.7,231.9,226.9,233.1,226.9,234.5z M211,242.4c0.7,2.6,3.1,4.6,5.9,4.6l7.4,0c2.8,0,5.2-2,5.9-4.6
		l0,4.9l-19.3,0V242.4z M374.3,232.9c-0.7-2.6-3.1-4.6-5.9-4.6l-7.4,0c-2.8,0-5.2,2-5.9,4.6l0-4.9l19.3,0L374.3,232.9z M370.9,234.5
		v6.3c0,1.4-1.1,2.5-2.5,2.5l-7.4,0c-1.4,0-2.5-1.1-2.5-2.5v-6.3c0-1.4,1.1-2.5,2.5-2.5h7.4C369.7,231.9,370.9,233.1,370.9,234.5z
		 M354.9,242.4c0.7,2.6,3.1,4.6,5.9,4.6h7.4c2.9,0,5.2-2,5.9-4.6l0,4.9l-19.3,0L354.9,242.4z M259,242.4c0.7,2.6,3.1,4.6,5.9,4.6
		h7.4c2.8,0,5.2-1.9,5.9-4.6l0,4.9l-19.3,0V242.4z M262.4,240.8v-6.3c0-1.4,1.1-2.5,2.5-2.5h7.4c1.4,0,2.5,1.1,2.5,2.5l0,6.3
		c0,1.4-1.1,2.5-2.5,2.5h-7.4C263.5,243.4,262.4,242.2,262.4,240.8z M278.3,232.9c-0.7-2.6-3.1-4.6-5.9-4.6l-7.4,0
		c-2.9,0-5.3,2-5.9,4.6V228h19.3L278.3,232.9z M283,242.4c0.7,2.6,3.1,4.6,5.9,4.6h7.4c2.8,0,5.2-1.9,5.9-4.6v4.9l-19.3,0V242.4z
		 M286.4,240.8v-6.3c0-1.4,1.1-2.5,2.5-2.5h7.4c1.4,0,2.5,1.1,2.5,2.5v6.3c0,1.4-1.1,2.5-2.5,2.5h-7.4
		C287.5,243.4,286.4,242.2,286.4,240.8z M302.3,232.9c-0.7-2.6-3.1-4.6-5.9-4.6h-7.4c-2.9,0-5.2,2-5.9,4.6V228h19.3V232.9z
		 M306.9,242.4c0.7,2.6,3.1,4.6,5.9,4.6l7.4,0c2.9,0,5.3-2,5.9-4.6v4.9l-19.3,0V242.4z M310.3,240.8v-6.3c0-1.4,1.1-2.5,2.5-2.5h7.4
		c1.4,0,2.5,1.1,2.5,2.5v6.3c0,1.4-1.1,2.5-2.5,2.5h-7.4C311.5,243.4,310.3,242.2,310.3,240.8z M326.3,232.9
		c-0.7-2.6-3.1-4.6-5.9-4.6l-7.4,0c-2.8,0-5.2,2-5.9,4.6V228h19.3V232.9z M330.9,242.4c0.7,2.6,3.1,4.6,5.9,4.6h7.4
		c2.9,0,5.3-2,5.9-4.6v4.9l-19.3,0L330.9,242.4z M334.3,240.8v-6.3c0-1.4,1.1-2.5,2.5-2.5h7.4c1.4,0,2.5,1.1,2.5,2.5l0,6.3
		c0,1.4-1.1,2.5-2.5,2.5h-7.4C335.5,243.4,334.3,242.2,334.3,240.8z M350.3,232.9c-0.7-2.6-3.1-4.6-5.9-4.6h-7.4
		c-2.8,0-5.2,2-5.9,4.6l0-4.9h19.3V232.9z M254.3,232.9c-0.7-2.6-3.1-4.6-5.9-4.6l-7.4,0c-2.9,0-5.3,2-5.9,4.6V228h19.3L254.3,232.9
		z M250.9,240.8c0,1.4-1.1,2.5-2.5,2.5h-7.4c-1.4,0-2.5-1.1-2.6-2.5v-6.3c0-1.4,1.1-2.5,2.5-2.5h7.4c1.4,0,2.5,1.1,2.5,2.5
		L250.9,240.8z M235,242.4c0.7,2.6,3.1,4.6,5.9,4.6h7.4c2.8,0,5.2-2,5.9-4.6l0,4.9H235V242.4z M266.9,257.1
		c-0.7-2.6-3.1-4.6-5.9-4.6l-7.4,0c-2.9,0-5.3,2-5.9,4.6v-4.9h19.3V257.1z M263.5,258.7v6.3c0,1.4-1.1,2.5-2.5,2.5l-7.4,0
		c-1.4,0-2.5-1.1-2.5-2.5v-6.3c0-1.4,1.1-2.5,2.5-2.5l7.4,0C262.4,256.1,263.5,257.3,263.5,258.7z M247.6,266.6
		c0.7,2.6,3.1,4.6,5.9,4.6l7.4,0c2.9,0,5.3-2,5.9-4.6v4.9h-19.3V266.6z M290.9,257.1c-0.7-2.6-3.1-4.6-5.9-4.6l-7.4,0
		c-2.9,0-5.2,2-5.9,4.6l0-4.9l19.3,0V257.1z M287.5,258.7v6.3c0,1.4-1.1,2.5-2.5,2.5l-7.4,0c-1.4,0-2.5-1.1-2.5-2.5v-6.3
		c0-1.4,1.1-2.5,2.5-2.5l7.4,0C286.4,256.1,287.5,257.3,287.5,258.7z M271.6,266.6c0.7,2.6,3.1,4.6,5.9,4.6l7.4,0
		c2.9,0,5.3-2,5.9-4.6v4.9h-19.3L271.6,266.6z M314.9,257.1c-0.7-2.6-3.1-4.6-5.9-4.6h-7.4c-2.9,0-5.2,2-5.9,4.6v-4.9l19.3,0V257.1z
		 M311.5,258.7l0,6.3c0,1.4-1.1,2.5-2.5,2.5h-7.4c-1.4,0-2.5-1.1-2.5-2.5l0-6.3c0-1.4,1.1-2.5,2.5-2.5l7.4,0
		C310.4,256.1,311.5,257.3,311.5,258.7z M295.6,266.6c0.7,2.6,3.1,4.6,5.9,4.6l7.4,0c2.9,0,5.2-2,5.9-4.6v4.9h-19.3V266.6z
		 M338.9,257.1c-0.7-2.6-3.1-4.6-5.9-4.6l-7.4,0c-2.9,0-5.3,2-5.9,4.6l0-4.9l19.3,0V257.1z M335.5,258.7l0,6.3
		c0,1.4-1.1,2.5-2.5,2.5l-7.4,0c-1.4,0-2.5-1.1-2.6-2.5v-6.3c0-1.4,1.1-2.5,2.5-2.5h7.4C334.4,256.1,335.5,257.3,335.5,258.7z
		 M319.6,266.6c0.7,2.6,3.1,4.6,5.9,4.6h7.4c2.9,0,5.3-2,5.9-4.6v4.9h-19.3L319.6,266.6z M362.9,257.1c-0.7-2.6-3.1-4.6-5.9-4.6
		l-7.4,0c-2.9,0-5.2,2-5.9,4.6v-4.9l19.3,0V257.1z M359.5,258.7v6.3c0,1.4-1.1,2.5-2.5,2.5l-7.4,0c-1.4,0-2.5-1.1-2.5-2.5v-6.3
		c0-1.4,1.1-2.5,2.5-2.5l7.4,0C358.4,256.1,359.5,257.3,359.5,258.7z M343.6,266.6c0.7,2.6,3.1,4.6,5.9,4.6l7.4,0
		c2.9,0,5.3-2,5.9-4.6v4.9h-19.3V266.6z M367.6,266.6c0.7,2.6,3.1,4.6,5.9,4.6h7.4c2.9,0,5.2-2,5.9-4.6v4.9h-19.3V266.6z M371,258.7
		c0-1.4,1.1-2.5,2.5-2.5h7.4c1.4,0,2.5,1.1,2.5,2.5l0,6.3c0,1.4-1.1,2.5-2.5,2.5h-7.4c-1.4,0-2.5-1.1-2.5-2.5L371,258.7z
		 M386.9,257.1c-0.7-2.6-3.1-4.6-5.9-4.6h-7.4c-2.9,0-5.2,2-5.9,4.6v-4.9l19.3,0V257.1z M420.6,218.2c0.7,2.6,3.1,4.6,5.9,4.6h7.4
		c2.9,0,5.2-2,5.9-4.6l0,4.9l-19.3,0L420.6,218.2z M424,216.6v-6.3c0-1.4,1.1-2.5,2.5-2.5h7.4c1.4,0,2.5,1.1,2.5,2.5v6.3
		c0,1.4-1.1,2.5-2.5,2.5h-7.4C425.2,219.1,424,218,424,216.6z M440,208.7c-0.7-2.6-3.1-4.6-5.9-4.6h-7.4c-2.8,0-5.2,2-5.9,4.6l0-4.9
		l19.3,0L440,208.7z M409,194c0.7,2.6,3.1,4.6,5.9,4.6l7.4,0c2.9,0,5.2-2,5.9-4.6v4.9l-19.3,0L409,194z M412.4,192.4V186
		c0-1.4,1.1-2.5,2.5-2.5h7.4c1.4,0,2.5,1.1,2.5,2.5v6.3c0,1.4-1.1,2.5-2.5,2.5h-7.4C413.5,194.9,412.4,193.8,412.4,192.4z
		 M428.3,184.5c-0.7-2.6-3.1-4.6-5.9-4.6h-7.4c-2.8,0-5.2,2-5.9,4.6l0-4.9h19.3V184.5z M385,194c0.7,2.6,3.1,4.6,5.9,4.6h7.4
		c2.9,0,5.3-2,5.9-4.6v4.9H385V194z M388.4,192.4V186c0-1.4,1.1-2.5,2.5-2.5l7.4,0c1.4,0,2.5,1.1,2.5,2.5v6.3c0,1.4-1.1,2.5-2.5,2.5
		l-7.4,0C389.5,194.9,388.4,193.8,388.4,192.4z M404.3,184.5c-0.7-2.6-3.1-4.6-5.9-4.6l-7.4,0c-2.8,0-5.2,1.9-5.9,4.6v-4.9h19.3
		V184.5z M361,194c0.7,2.6,3.1,4.6,5.9,4.6h7.4c2.8,0,5.2-2,5.9-4.6v4.9H361L361,194z M364.4,192.4V186c0-1.4,1.1-2.5,2.5-2.5l7.4,0
		c1.4,0,2.5,1.1,2.5,2.5v6.3c0,1.4-1.1,2.5-2.5,2.5h-7.4C365.5,194.9,364.4,193.8,364.4,192.4z M380.3,184.5
		c-0.7-2.6-3.1-4.6-5.9-4.6h-7.4c-2.8,0-5.2,1.9-5.9,4.6l0-4.9h19.3V184.5z M337,193.9c0.7,2.6,3.1,4.6,5.9,4.6l7.4,0
		c2.9,0,5.2-2,5.9-4.6l0,4.9H337L337,193.9z M340.4,186c0-1.4,1.1-2.5,2.5-2.5l7.4,0c1.4,0,2.5,1.1,2.5,2.5v6.3
		c0,1.4-1.1,2.5-2.5,2.5h-7.4c-1.4,0-2.5-1.1-2.5-2.5L340.4,186z M356.3,184.5c-0.7-2.6-3.1-4.6-5.9-4.6l-7.4,0
		c-2.9,0-5.2,2-5.9,4.6l0-4.9h19.3L356.3,184.5z M313,194c0.7,2.6,3.1,4.6,5.9,4.6h7.4c2.9,0,5.3-2,5.9-4.6v4.9l-19.3,0V194z
		 M316.4,186c0-1.4,1.1-2.5,2.5-2.5l7.4,0c1.4,0,2.5,1.1,2.5,2.5v6.3c0,1.4-1.1,2.5-2.5,2.5h-7.4c-1.4,0-2.5-1.1-2.5-2.5L316.4,186z
		 M332.3,184.5c-0.7-2.6-3.1-4.6-5.9-4.6h-7.4c-2.8,0-5.2,1.9-5.9,4.6v-4.9h19.3V184.5z M289,194c0.7,2.6,3.1,4.6,5.9,4.6l7.4,0
		c2.9,0,5.2-2,5.9-4.6l0,4.9l-19.3,0L289,194z M292.4,192.4V186c0-1.4,1.1-2.5,2.5-2.5h7.4c1.4,0,2.5,1.1,2.5,2.5v6.3
		c0,1.4-1.1,2.5-2.5,2.5h-7.4C293.5,194.9,292.4,193.8,292.4,192.4z M308.3,184.5c-0.7-2.6-3.1-4.6-5.9-4.6h-7.4
		c-2.9,0-5.2,1.9-5.9,4.6l0-4.9h19.3L308.3,184.5z M265,194c0.7,2.6,3.1,4.6,5.9,4.6l7.4,0c2.9,0,5.3-2,5.9-4.6v4.9l-19.3,0V194z
		 M268.4,186c0-1.4,1.1-2.5,2.5-2.5h7.4c1.4,0,2.5,1.1,2.5,2.5l0,5.3l0,1c0,1.4-1.1,2.5-2.5,2.5h-7.4c-1.4,0-2.5-1.1-2.5-2.5
		L268.4,186z M284.3,184.5c-0.7-2.6-3.1-4.6-5.9-4.6h-7.4c-2.8,0-5.2,1.9-5.9,4.6v-4.9h19.3V184.5z M241,194
		c0.7,2.6,3.1,4.6,5.9,4.6h7.4c2.9,0,5.3-2,5.9-4.6v4.9l-19.3,0V194z M244.4,192.4V186c0-1.4,1.1-2.5,2.5-2.5h7.4
		c1.4,0,2.5,1.1,2.5,2.5v6.3c0,1.4-1.1,2.5-2.5,2.5H247C245.5,194.9,244.4,193.8,244.4,192.4z M260.3,184.5
		c-0.7-2.6-3.1-4.6-5.9-4.6h-7.4c-2.8,0-5.2,1.9-5.9,4.6v-4.9h19.3V184.5z M217,194c0.7,2.6,3.1,4.6,5.9,4.6h7.4
		c2.9,0,5.3-2,5.9-4.6v4.9H217L217,194z M220.4,192.4V186c0-1.4,1.1-2.5,2.5-2.5h7.4c1.4,0,2.5,1.1,2.5,2.5v6.3
		c0,1.4-1.1,2.5-2.5,2.5H223C221.6,194.9,220.4,193.8,220.4,192.4z M236.3,184.5c-0.7-2.6-3.1-4.6-5.9-4.6H223
		c-2.9,0-5.2,1.9-5.9,4.6l0-4.9h19.3V184.5z M193,193.9c0.7,2.6,3.1,4.6,5.9,4.6l7.4,0c2.8,0,5.2-1.9,5.9-4.6v4.9l-19.3,0V193.9z
		 M196.4,192.4V186c0-1.4,1.1-2.5,2.5-2.5h7.4c1.4,0,2.5,1.1,2.5,2.5v6.3c0,1.4-1.1,2.5-2.5,2.5H199
		C197.6,194.9,196.4,193.8,196.4,192.4z M212.3,184.5c-0.7-2.6-3.1-4.6-5.9-4.6H199c-2.9,0-5.3,2-5.9,4.6v-4.9h19.3V184.5z M169,194
		c0.7,2.6,3.1,4.6,5.9,4.6l7.4,0c2.9,0,5.2-2,5.9-4.6v4.9H169V194z M172.4,192.4V186c0-1.4,1.1-2.5,2.5-2.5h7.4
		c1.4,0,2.5,1.1,2.5,2.5v6.3c0,1.4-1.1,2.5-2.5,2.5H175C173.6,194.9,172.4,193.8,172.4,192.4z M188.3,184.5
		c-0.7-2.6-3.1-4.6-5.9-4.6H175c-2.8,0-5.2,1.9-5.9,4.6v-4.9h19.3V184.5z M164.3,184.5c-0.7-2.6-3.1-4.6-5.9-4.6H151
		c-2.8,0-5.2,1.9-5.9,4.6v-4.9h19.3V184.5z M160.9,186v6.3c0,1.4-1.1,2.5-2.5,2.5H151c-1.4,0-2.5-1.1-2.5-2.5V186
		c0-1.4,1.1-2.5,2.5-2.5h7.4C159.8,183.5,160.9,184.6,160.9,186z M145,194c0.7,2.6,3.1,4.6,5.9,4.6h7.4c2.9,0,5.3-2,5.9-4.6v4.9
		l-19.3,0V194z M152,208.7c-0.7-2.6-3.1-4.6-5.9-4.6h-7.4c-2.9,0-5.3,2-5.9,4.6v-4.9H152V208.7z M148.6,210.3l0,6.3
		c0,1.4-1.1,2.5-2.5,2.5h-7.4c-1.4,0-2.5-1.1-2.5-2.5v-6.3c0-1.4,1.1-2.5,2.5-2.5h7.4C147.5,207.7,148.6,208.9,148.6,210.3z
		 M132.7,218.2c0.7,2.6,3.1,4.6,5.9,4.6l7.4,0c2.8,0,5.2-2,5.9-4.6v4.9h-19.3V218.2z M139,242.4c0.7,2.6,3.1,4.6,5.9,4.6l7.4,0
		c2.9,0,5.3-2,5.9-4.6v4.9l-19.3,0V242.4z M142.4,240.8v-6.3c0-1.4,1.1-2.5,2.5-2.5h7.4c1.4,0,2.5,1.1,2.5,2.5l0,6.3
		c0,1.4-1.1,2.5-2.5,2.5h-7.4C143.5,243.4,142.4,242.2,142.4,240.8z M158.3,232.9c-0.7-2.6-3.1-4.6-5.9-4.6l-7.4,0
		c-2.9,0-5.3,2-5.9,4.6V228h19.3V232.9z M194.9,257.1c-0.7-2.6-3.1-4.6-5.9-4.6l-7.4,0c-2.9,0-5.3,2-5.9,4.6v-4.9h19.3L194.9,257.1z
		 M191.5,258.7v6.3c0,1.4-1.1,2.5-2.5,2.5l-7.4,0c-1.4,0-2.5-1.1-2.5-2.5l0-6.3c0-1.4,1.1-2.5,2.5-2.5h7.4
		C190.4,256.1,191.5,257.3,191.5,258.7z M175.6,266.6c0.7,2.6,3.1,4.6,5.9,4.6h7.4c2.9,0,5.2-1.9,5.9-4.6l0,4.9h-19.3V266.6z
		 M415.6,266.6c0.7,2.6,3.1,4.6,5.9,4.6l21.9,0c2.8,0,5.2-2,5.9-4.6v4.9h-33.8V266.6z M419,265v-6.3c0-1.4,1.1-2.5,2.5-2.5h21.9
		c1.4,0,2.5,1.1,2.5,2.5l0,6.3c0,1.4-1.1,2.5-2.5,2.5l-21.9,0C420.1,267.6,419,266.4,419,265z M449.4,257.1
		c-0.7-2.6-3.1-4.6-5.9-4.6h-21.9c-2.9,0-5.2,1.9-5.9,4.6v-4.9l33.8,0V257.1z M441.4,242.4c0.7,2.6,3.1,4.6,5.9,4.6h7.4
		c2.9,0,5.2-2,5.9-4.6l0,4.9l-19.3,0L441.4,242.4z M444.8,240.8v-6.3c0-1.4,1.1-2.5,2.5-2.6l7.4,0c1.4,0,2.5,1.1,2.5,2.5l0,6.3
		c0,1.4-1.1,2.5-2.5,2.5h-7.4C446,243.4,444.8,242.2,444.8,240.8z M460.8,232.9c-0.7-2.6-3.1-4.6-5.9-4.6h-7.4
		c-2.8,0-5.2,1.9-5.9,4.6l0-4.9h19.3L460.8,232.9z M445.5,218.2c0.7,2.6,3.1,4.6,5.9,4.6l7.4,0c2.8,0,5.2-2,5.9-4.6v4.9h-19.3
		L445.5,218.2z M448.9,216.6v-6.3c0-1.4,1.1-2.5,2.5-2.5h7.4c1.4,0,2.5,1.1,2.5,2.5l0,6.3c0,1.4-1.1,2.5-2.5,2.5h-7.4
		C450.1,219.1,448.9,218,448.9,216.6z M464.9,208.7c-0.7-2.6-3.1-4.6-5.9-4.6h-7.4c-2.9,0-5.2,2-5.9,4.6l0-4.9l19.3,0V208.7z"/>
	<path style="fill:#FFFFFF;" d="M125.1,305.5l349.8,0c3.4,0,6.2-2.8,6.2-6.2V172.1c0-3.4-2.8-6.2-6.2-6.2H125.1
		c-3.4,0-6.2,2.8-6.2,6.2v127.3C118.9,302.8,121.7,305.5,125.1,305.5z M477.4,299.4c0,1.4-1.1,2.5-2.5,2.5H125.1
		c-1.4,0-2.5-1.1-2.5-2.5V172.1c0-1.4,1.1-2.5,2.5-2.5h349.8c1.4,0,2.5,1.1,2.5,2.5V299.4z"/>
	<path style="fill:#FFFFFF;" d="M533.8,19.6H66c-2.8,0-5.1,2.3-5.1,5.1v306.2c0,2.8,2.3,5.1,5.1,5.1h467.8c2.8,0,5.1-2.3,5.1-5.1
		V24.7C538.9,21.9,536.6,19.6,533.8,19.6z M535.3,158.3c-0.9-1.6-2.5-2.7-4.5-2.7H69c-1.9,0-3.6,1.1-4.5,2.7V80.6
		c1,1.5,2.6,2.5,4.5,2.5h461.6c1.9,0,3.6-1,4.5-2.5V158.3z M69,159.2l461.8,0c0.8,0,1.5,0.7,1.5,1.5v149c0,0.8-0.7,1.5-1.5,1.5H69
		c-0.8,0-1.5-0.7-1.5-1.5l0-149v0C67.6,159.9,68.2,159.2,69,159.2z M67.3,33.7c0-1,0.8-1.8,1.8-1.8h461.6c1,0,1.8,0.8,1.8,1.8
		l0,42.9l0,1c0,1-0.8,1.8-1.8,1.8H69.1c-1,0-1.8-0.8-1.8-1.8L67.3,33.7z M535.3,30.8c-1-1.5-2.6-2.5-4.5-2.5H69.1
		c-1.9,0-3.6,1-4.5,2.5v-6.1c0-0.8,0.7-1.5,1.5-1.5h467.8c0.8,0,1.5,0.7,1.5,1.5V30.8z M64.6,312.1c0.9,1.6,2.5,2.7,4.5,2.7l461.8,0
		c1.9,0,3.6-1.1,4.5-2.7v18.8c0,0.8-0.7,1.5-1.5,1.5H66c-0.8,0-1.5-0.7-1.5-1.5V312.1z"/>
	<path style="fill:#FFFFFF;" d="M375.4,95.2H222.6c-1.2,0-2.2,1-2.2,2.2l0,13.6c0,1.2,1,2.2,2.2,2.2h152.9c1.2,0,2.2-1,2.2-2.2V97.3
		C377.6,96.1,376.6,95.2,375.4,95.2z M224,109.5V98.8l150,0l0,10.7H224z"/>
	<path style="fill:#FFFFFF;" d="M101.3,77.6h190c1.4,0,2.5-1.1,2.5-2.5v-2.7c0-1.1-0.7-2-1.6-2.4c1-0.4,1.6-1.3,1.6-2.4v-2.7
		c0-1.1-0.7-2-1.6-2.4c1-0.4,1.6-1.3,1.6-2.4v-2.7c0-1.1-0.7-2-1.6-2.4c1-0.4,1.6-1.3,1.6-2.4V50c0-1.1-0.7-2-1.6-2.4
		c0.9-0.4,1.6-1.3,1.6-2.4v-2.7c0-1.1-0.7-2-1.6-2.4c1-0.4,1.6-1.3,1.6-2.4v-2.7c0-1.4-1.1-2.5-2.5-2.5h-190c-1.4,0-2.5,1.1-2.5,2.5
		v2.7c0,1.1,0.7,2,1.6,2.4c-1,0.4-1.6,1.3-1.6,2.4v2.7c0,1.1,0.7,2,1.6,2.4c-0.9,0.4-1.6,1.3-1.6,2.4v2.7c0,1.1,0.7,2,1.6,2.4
		c-1,0.4-1.6,1.3-1.6,2.4v2.7c0,1.1,0.7,2,1.6,2.4c-1,0.4-1.6,1.3-1.6,2.4v2.7c0,1.1,0.7,2,1.6,2.4c-1,0.4-1.6,1.3-1.6,2.4V75
		C98.7,76.4,99.9,77.6,101.3,77.6z M103.1,74h-0.7v-0.6h0.7V74z M106.7,73.4h47.6V74h-47.6V73.4z M163.4,73.4h26.7V74h-26.7V73.4z
		 M196.2,73.4h43.3V74h-43.3V73.4z M245.5,73.4h44.7V74h-44.7V73.4z M103.1,66.5h-0.7V66h0.7V66.5z M106.7,66h47.6v0.6h-47.6V66z
		 M163.4,66h26.7v0.6h-26.7V66z M196.2,66h43.3v0.6h-43.3V66z M245.5,66h44.7v0.6h-44.7V66z M103.1,59.1h-0.7v-0.6h0.7V59.1z
		 M106.7,58.5h47.6v0.6l-47.6,0V58.5z M163.4,58.5h26.7v0.6l-26.7,0V58.5z M196.2,58.5h43.3v0.6l-43.3,0V58.5z M245.5,58.5h44.7v0.6
		l-44.7,0V58.5z M103.1,51.7h-0.7v-0.6h0.7V51.7z M106.7,51.1h47.6v0.6h-47.6V51.1z M163.4,51.1h26.7v0.6h-26.7V51.1z M196.2,51.1
		h43.3v0.6h-43.3V51.1z M245.5,51.1h44.7v0.6h-44.7V51.1z M103.1,44.2h-0.7v-0.6h0.7V44.2z M106.7,43.7l47.6,0v0.6h-47.6V43.7z
		 M163.4,43.7l26.7,0v0.6h-26.7V43.7z M196.2,43.7l43.3,0v0.6h-43.3V43.7z M245.5,43.7l44.7,0v0.6h-44.7V43.7z M245.5,36.2h44.7v0.6
		h-44.7V36.2z M239.4,36.8h-43.3v-0.6h43.3V36.8z M190.1,36.8h-26.7v-0.6h26.7V36.8z M154.3,36.8h-47.6v-0.6h47.6V36.8z M103.1,36.8
		h-0.7v-0.6h0.7V36.8z"/>
	<path style="fill:#FFFFFF;" d="M307.7,70c-0.9,0.4-1.6,1.3-1.6,2.3v2.7c0,1.4,1.1,2.5,2.5,2.5h190c1.4,0,2.5-1.1,2.5-2.5v-2.7
		c0-1.1-0.7-2-1.7-2.4c0.9-0.4,1.6-1.3,1.6-2.4v-2.7c0-1.1-0.7-2-1.6-2.4c1-0.4,1.6-1.3,1.6-2.4v-2.7c0-1.1-0.7-2-1.6-2.4
		c1-0.4,1.6-1.3,1.6-2.4V50c0-1.1-0.7-2-1.6-2.4c1-0.4,1.6-1.3,1.6-2.4v-2.7c0-1.1-0.7-2-1.6-2.4c1-0.4,1.6-1.3,1.6-2.4v-2.7
		c0-1.4-1.1-2.5-2.5-2.5h-190c-1.4,0-2.5,1.1-2.5,2.5v2.7c0,1.1,0.7,2,1.6,2.4c-1,0.4-1.6,1.3-1.6,2.4v2.7c0,1.1,0.7,2,1.6,2.4
		c-1,0.4-1.6,1.3-1.6,2.4v2.7c0,1.1,0.7,2,1.6,2.4c-1,0.4-1.6,1.3-1.6,2.4v2.7c0,1.1,0.7,2,1.6,2.4c-1,0.4-1.6,1.3-1.6,2.4v2.7
		C306,68.7,306.7,69.6,307.7,70z M456.2,66h41.2v0.6h-41.2V66z M450.1,66.5h-43.5V66h43.5V66.5z M400.5,66.5H357V66h43.5V66.5z
		 M350.8,66.5h-41.2V66h41.2V66.5z M350.9,74l-41.2,0v-0.6h41.2V74z M357.1,73.4h43.5V74l-43.5,0V73.4z M406.7,73.4h43.5V74l-43.5,0
		V73.4z M456.3,73.4h41.2V74l-41.2,0V73.4z M350.8,59.1l-41.2,0v-0.6h41.2V59.1z M357,58.5h43.5v0.6l-43.5,0V58.5z M406.6,58.5h43.5
		v0.6l-43.5,0V58.5z M456.2,58.5h41.2v0.6l-41.2,0V58.5z M350.8,51.7h-41.2v-0.6h41.2V51.7z M357,51.1h43.5v0.6H357V51.1z
		 M406.6,51.1h43.5v0.6h-43.5V51.1z M456.2,51.1h41.2v0.6h-41.2V51.1z M350.8,44.2h-41.2v-0.6h41.2V44.2z M357,43.7h43.5v0.6H357
		V43.7z M406.6,43.7h43.5v0.6h-43.5V43.7z M456.2,43.7h41.2v0.6h-41.2V43.7z M456.2,36.2l41.2,0v0.6l-41.2,0V36.2z M450.1,36.8
		l-43.5,0v-0.6l43.5,0V36.8z M400.5,36.8l-43.5,0v-0.6l43.5,0V36.8z M350.8,36.8l-41.2,0v-0.6l41.2,0V36.8z"/>
</g>
</svg>
