<?xml version="1.0" encoding="utf-8"?>
<!-- Generator: Adobe Illustrator 24.0.1, SVG Export Plug-In . SVG Version: 6.00 Build 0)  -->
<svg version="1.1"
	 id="Ebene_1" xmlns:cc="http://creativecommons.org/ns#" xmlns:dc="http://purl.org/dc/elements/1.1/" xmlns:rdf="http://www.w3.org/1999/02/22-rdf-syntax-ns#"
	 xmlns="http://www.w3.org/2000/svg" xmlns:xlink="http://www.w3.org/1999/xlink" x="0px" y="0px" viewBox="0 0 353.6 108"
	 style="enable-background:new 0 0 353.6 108;" xml:space="preserve">
<g id="g4569" transform="matrix(0.81916268,0,0,0.81916268,-1.6623689e-5,0)">
	<path id="path3999-4" style="fill:#FFFFFF;" d="M339.3,108.9h34.4l51.7-86h-34.4L339.3,108.9"/>
	<path id="path3912-8" style="fill:#FFFFFF;" d="M140.8,46.4v46.9h28.1c8.7-1.4,13.8-6.3,15.7-14.1c0-6.3,0-12.5,0-18.7
		c-1.9-7.7-6.9-12.6-15.7-14.1L140.8,46.4L140.8,46.4z M151.8,55.8h12.5c3.9,0.7,7.6,1.9,9.4,7.8l0,12.5c-1.8,5.9-5.5,7.1-9.4,7.8
		h-12.5L151.8,55.8L151.8,55.8z"/>
	<path id="path3896" style="fill:#FFFFFF;" d="M20.5,93.3V57.3H6.4l0-10.9h43.8l-4.7,10.9l-10.9,0v35.9L20.5,93.3"/>
	<path id="path3900" style="fill:#FFFFFF;" d="M54.9,46.4L37.7,93.3h14.1l5.4-17.2l5.5,7.8H72l3.1,9.3h14.2L72,46.4L54.9,46.4
		L54.9,46.4z M63.4,58.9L68.9,73H58L63.4,58.9L63.4,58.9z"/>
	<path id="path3908" style="fill:#FFFFFF;" d="M90.8,93.3V46.4H108l17.2,34.4V46.4h10.9l0,46.9h-17.2l-17.2-34.4l0,34.4H90.8"/>
	<path id="path3991" style="fill:#FFFFFF;" d="M197.1,71.4l-18.7-25h14.1L202.6,62l10.1-15.6h15.6l-18.8,24.9l0,21.9h-12.5
		L197.1,71.4"/>
	<path id="path3999-4-5" style="fill:#FFFFFF;" d="M294.1,108.9h34.4l51.7-86h-34.4L294.1,108.9"/>
	<path id="path3999-4-5-7" style="fill:#FFFFFF;" d="M248.9,108.9h34.4l51.7-86h-34.4L248.9,108.9"/>
</g>
<g id="flowRoot4066" transform="translate(-94.313277,-12.248728)">
</g>
</svg>
