<?xml version="1.0" encoding="utf-8"?>
<!-- Generator: Adobe Illustrator 24.0.1, SVG Export Plug-In . SVG Version: 6.00 Build 0)  -->
<svg version="1.1"
	 id="Layer_3" inkscape:version="0.91 r13725" sodipodi:docname="controller.svg" xmlns:cc="http://creativecommons.org/ns#" xmlns:dc="http://purl.org/dc/elements/1.1/" xmlns:inkscape="http://www.inkscape.org/namespaces/inkscape" xmlns:ns="&#38;ns_sfw;" xmlns:rdf="http://www.w3.org/1999/02/22-rdf-syntax-ns#" xmlns:sodipodi="http://sodipodi.sourceforge.net/DTD/sodipodi-0.dtd" xmlns:svg="http://www.w3.org/2000/svg"
	 xmlns="http://www.w3.org/2000/svg" xmlns:xlink="http://www.w3.org/1999/xlink" x="0px" y="0px" viewBox="0 0 378 350.3"
	 style="enable-background:new 0 0 378 350.3;" xml:space="preserve">
<sodipodi:namedview  bordercolor="#666666" borderopacity="1" gridtolerance="10" guidetolerance="10" id="namedview28" inkscape:current-layer="Layer_3" inkscape:cx="238.17075" inkscape:cy="175.13" inkscape:guide-bbox="true" inkscape:pageopacity="0" inkscape:pageshadow="2" inkscape:window-height="1017" inkscape:window-maximized="1" inkscape:window-width="1920" inkscape:window-x="-8" inkscape:window-y="-8" inkscape:zoom="2.4210586" objecttolerance="10" pagecolor="#ffffff" showgrid="false" showguides="true">
	<sodipodi:guide  id="guide4186" orientation="1,0" position="284.1732,267.23846"></sodipodi:guide>
	<sodipodi:guide  id="guide4188" orientation="0,1" position="400.23813,250.30372"></sodipodi:guide>
</sodipodi:namedview>
<g>
	<path style="fill:#FFFFFF;" d="M260.8,2.1H120.6c-3.1,0-5.7,2.5-5.7,5.6v334.7c0,3.1,2.5,5.7,5.7,5.7h140.2c3.1,0,5.6-2.5,5.6-5.7
		V7.8C266.4,4.7,263.9,2.1,260.8,2.1z M118.1,102.6l5.2-0.1v34l-5.2,0.1V102.6z M118.1,140.9h9.1V98.2h-9.1V7.8
		c0-1.4,1.1-2.5,2.5-2.5h140.2c1.4,0,2.5,1.1,2.5,2.5v90.4h-8.9v42.7h8.9v201.6c0,1.4-1.1,2.5-2.5,2.5H120.6c-1.4,0-2.5-1.1-2.5-2.5
		V140.9z M263.3,136.5l-5.1-0.1v-34l5.1,0.1V136.5z"/>
	<path style="fill:#FFFFFF;" d="M135.7,338.9h21.4c5.5,0,10-4.5,10-10v-20.1c0-5.5-4.5-10-10-10h-21.4c-5.5,0-10,4.5-10,10v20.1
		C125.7,334.4,130.2,338.9,135.7,338.9z M135.7,302.6h21.4c3.5,0,6.2,2.7,6.2,6.2v20.1c0,3.5-2.7,6.2-6.2,6.2h-21.4
		c-3.5,0-6.2-2.7-6.2-6.2v-20.1C129.6,305.3,132.3,302.6,135.7,302.6z"/>
	<path style="fill:#FFFFFF;" d="M246.5,299.9h-21.4c-5.5,0-10,4.5-10,10V330c0,5.5,4.5,10,10,10h21.4c5.5,0,10-4.5,10-10v-20.1
		C256.5,304.4,252,299.9,246.5,299.9z M225.1,303.7h21.4c3.5,0,6.2,2.7,6.2,6.2V330c0,3.5-2.7,6.2-6.2,6.2h-21.4
		c-3.5,0-6.2-2.7-6.2-6.2v-20.1C218.9,306.4,221.6,303.7,225.1,303.7z"/>
	<path style="fill:#FFFFFF;" d="M246.7,256.2h-21.4c-5.5,0-10,4.5-10,10v20.1c0,5.5,4.5,10,10,10h21.4c5.5,0,10-4.5,10-10v-20.1
		C256.8,260.7,252.3,256.2,246.7,256.2z M252.9,266.2v20.1c0,3.5-2.7,6.2-6.2,6.2h-21.4c-3.5,0-6.2-2.7-6.2-6.2v-20.1
		c0-3.5,2.7-6.2,6.2-6.2h21.4C250.2,260,252.9,262.8,252.9,266.2z"/>
	<path style="fill:#FFFFFF;" d="M247,212.1h-21.4c-5.5,0-10,4.5-10,10v20.1c0,5.5,4.5,10,10,10H247c5.5,0,10-4.5,10-10v-20.1
		C257,216.6,252.5,212.1,247,212.1z M253.2,222.1v20.1c0,3.5-2.7,6.2-6.2,6.2h-21.4c-3.5,0-6.2-2.7-6.2-6.2v-20.1
		c0-3.5,2.7-6.2,6.2-6.2H247C250.5,216,253.2,218.7,253.2,222.1z"/>
	<path style="fill:#FFFFFF;" d="M247,169.6h-21.4c-5.5,0-10,4.5-10,10v20.1c0,5.5,4.5,10,10,10H247c5.5,0,10-4.5,10-10v-20.1
		C257,174.1,252.5,169.6,247,169.6z M253.2,179.6v20.1c0,3.5-2.7,6.2-6.2,6.2h-21.4c-3.5,0-6.2-2.7-6.2-6.2v-20.1
		c0-3.5,2.7-6.2,6.2-6.2H247C250.5,173.5,253.2,176.2,253.2,179.6z"/>
	<path style="fill:#FFFFFF;" d="M181.1,209.8h21.4c5.5,0,10-4.5,10-10v-20.1c0-5.5-4.5-10-10-10h-21.4c-5.5,0-10,4.5-10,10v20.1
		C171.1,205.3,175.6,209.8,181.1,209.8z M208.7,179.6v20.1c0,3.5-2.7,6.2-6.2,6.2h-21.4c-3.5,0-6.2-2.7-6.2-6.2v-20.1
		c0-3.5,2.7-6.2,6.2-6.2h21.4C206,173.5,208.7,176.2,208.7,179.6z"/>
	<path style="fill:#FFFFFF;" d="M202.7,211.9h-21.4c-5.5,0-10,4.5-10,10V242c0,5.5,4.5,10,10,10h21.4c5.5,0,10-4.5,10-10v-20.1
		C212.8,216.4,208.3,211.9,202.7,211.9z M202.7,248.2h-21.4c-3.5,0-6.2-2.7-6.2-6.2v-20.1c0-3.5,2.7-6.2,6.2-6.2h21.4
		c3.5,0,6.2,2.7,6.2,6.2V242C208.9,245.5,206.2,248.2,202.7,248.2z"/>
	<path style="fill:#FFFFFF;" d="M202.7,256h-21.4c-5.5,0-10,4.5-10,10v20.1c0,5.5,4.5,10,10,10h21.4c5.5,0,10-4.5,10-10V266
		C212.8,260.5,208.3,256,202.7,256z M202.7,292.3h-21.4c-3.5,0-6.2-2.7-6.2-6.2V266c0-3.5,2.7-6.2,6.2-6.2h21.4
		c3.5,0,6.2,2.7,6.2,6.2v20.1C208.9,289.5,206.2,292.3,202.7,292.3z"/>
	<path style="fill:#FFFFFF;" d="M202.5,299.6h-21.4c-5.5,0-10,4.5-10,10v20.1c0,5.5,4.5,10,10,10h21.4c5.5,0,10-4.5,10-10v-20.1
		C212.5,304.1,208,299.6,202.5,299.6z M202.5,335.9h-21.4c-3.5,0-6.2-2.7-6.2-6.2v-20.1c0-3.5,2.7-6.2,6.2-6.2h21.4
		c3.5,0,6.2,2.7,6.2,6.2v20.1C208.7,333.2,206,335.9,202.5,335.9z"/>
	<path style="fill:#FFFFFF;" d="M158,255.7h-21.4c-5.5,0-10,4.5-10,10v20.1c0,5.5,4.5,10,10,10H158c5.5,0,10-4.5,10-10v-20.1
		C168,260.2,163.5,255.7,158,255.7z M136.6,259.6H158c3.5,0,6.2,2.7,6.2,6.2v20.1c0,3.5-2.7,6.2-6.2,6.2h-21.4
		c-3.5,0-6.2-2.7-6.2-6.2v-20.1C130.4,262.3,133.2,259.6,136.6,259.6z"/>
	<path style="fill:#FFFFFF;" d="M158,211.9h-21.4c-5.5,0-10,4.5-10,10V242c0,5.5,4.5,10,10,10H158c5.5,0,10-4.5,10-10v-20.1
		C168,216.4,163.5,211.9,158,211.9z M136.6,215.7H158c3.5,0,6.2,2.7,6.2,6.2V242c0,3.5-2.7,6.2-6.2,6.2h-21.4
		c-3.5,0-6.2-2.7-6.2-6.2v-20.1C130.4,218.4,133.2,215.7,136.6,215.7z"/>
	<path style="fill:#FFFFFF;" d="M136.1,209.8h21.4c5.5,0,10-4.5,10-10v-20.1c0-5.5-4.5-10-10-10h-21.4c-5.5,0-10,4.5-10,10v20.1
		C126.1,205.3,130.6,209.8,136.1,209.8z M157.5,205.9h-21.4c-3.5,0-6.2-2.7-6.2-6.2v-20.1c0-3.5,2.7-6.2,6.2-6.2h21.4
		c3.5,0,6.2,2.7,6.2,6.2v20.1C163.7,203.2,161,205.9,157.5,205.9z"/>
	<path style="fill:#FFFFFF;" d="M191.6,90.4c22.7,0,41.2-18.5,41.2-41.2c0-22.7-18.5-41.2-41.2-41.2c-22.7,0-41.2,18.5-41.2,41.2
		C150.3,71.9,168.8,90.4,191.6,90.4z M191.6,11.8c20.6,0,37.4,16.8,37.4,37.4s-16.8,37.4-37.4,37.4s-37.4-16.8-37.4-37.4
		S170.9,11.8,191.6,11.8z"/>
	<path style="fill:#FFFFFF;" d="M191.9,84c19.4,0,35.2-15.8,35.2-35.2s-15.8-35.2-35.2-35.2s-35.2,15.8-35.2,35.2S172.5,84,191.9,84
		z M191.9,17.2c17.4,0,31.6,14.2,31.6,31.6c0,17.4-14.2,31.6-31.6,31.6c-17.4,0-31.6-14.2-31.6-31.6
		C160.3,31.4,174.5,17.2,191.9,17.2z"/>
	<polygon style="fill:#FFFFFF;" points="249.1,146.3 258.2,146.3 258.6,257.3 258.2,290.8 258.2,343.4 261.7,343.4 261.7,290.8 
		262.1,257.4 261.7,142.8 252.6,142.8 252.6,97.8 128,97.8 128,101.3 249.1,101.3 	"/>
</g>
</svg>
