<?xml version="1.0" encoding="utf-8"?>
<!-- Generator: Adobe Illustrator 24.0.1, SVG Export Plug-In . SVG Version: 6.00 Build 0)  -->
<svg version="1.1" id="레이어_1" xmlns="http://www.w3.org/2000/svg" xmlns:xlink="http://www.w3.org/1999/xlink" x="0px"
	 y="0px" viewBox="0 0 696.4 235" style="enable-background:new 0 0 696.4 235;" xml:space="preserve">
<title>cps1</title>
<g>
	<path style="fill-rule:evenodd;clip-rule:evenodd;fill:#FFFFFF;" d="M0,86.6c0-2.2,0-4.5,0-6.7c0.2-0.7,0.3-1.4,0.5-2.1
		c0.3-1.9,0.5-3.9,0.9-5.8C4.2,58.3,11,46.9,21.9,38.1c16.6-13.4,35.5-17.4,56.2-12.6c15.8,3.7,28.4,12.5,37.5,26
		c0.2,0.4,0.5,0.7,0.7,1.2c-10.4,10.9-20.8,21.8-31.2,32.7c-3.2-1.9-19.6-13.3-20.1-14c0.5-0.6,1-1.3,1.4-2c0.5-1,1.1-2,1.4-3
		c1.3-4-2.6-7.5-6.1-6.8c-2.5,0.5-4.8,1.4-6.8,3.1c-2,1.8-3.8,3.6-4.9,6c-1.8,3.9-2.5,8-2.1,12.3c0.4,4.4,1.5,8.6,3.2,12.6
		c3.4,8.2,12,14.8,22.4,13.5c5.3-0.7,9.3-3.3,11.6-8.3c0.1-0.2,0.2-0.4,0.3-0.6c2.8-0.3,24.1-0.1,25.1,0.2c0,6.1,0,12.2,0,18.3
		c0,0,0,0.1,0.1,0.1s0.1,0,0.2,0c11.5-30,23-60.1,34.5-90.2c13.5,0,26.8,0,40.1,0c0.2,0.5,0.4,1,0.6,1.5
		c10.2,26.3,20.3,52.6,30.5,79c0.8,2,1.8,3.7,3,5.4c0.6,0.9,1.5,1.6,2.6,2.3c0-0.6,0.1-1.1,0.1-1.5c0-4.7,0-9.4,0-14.2
		c0-10.4,0-20.7,0-31.1c0-3.2,0.1-6.5,0-9.7c-0.1-2.4-0.9-4.4-3.4-5.3c-0.6-0.2-1.2-0.5-1.8-0.8c0-8.6,0-17,0-25.7
		c0.6,0,1.2,0,1.7,0c19.4,0,38.9,0,58.3,0c5.7,0,11.4,0.7,17,2c8.7,2,15.5,6.7,20.1,14.4c1.2,2,2.2,4,3.3,6c0.2,0.3,0.3,0.6,0.6,0.9
		c0.8-1.2,1.6-2.3,2.4-3.4c10.9-14,25.3-21.3,42.9-22.7c8-0.6,16.1,0.2,24,1.9c9.2,1.9,17.3,5.9,24,12.6c2.3,2.3,4.4,4.8,6.6,7.3
		c0.3,0.3,0.5,0.6,0.8,1c1.5-1.5,2.8-3,4.3-4.4C434.4,31,448.4,25,464.5,23.7c3.1-0.2,6.2-0.2,9.2-0.2c5.3-0.1,10.6,0.4,15.8,1.7
		c13.9,3.5,25.1,10.8,33.5,22.6c1,1.4,2.1,2.8,3.1,4.3c0.1,0.2,0.3,0.4,0.7,0.8c0-8.9,0-17.5,0-26.2c18.1,0,36.2,0,54.2,0
		c1,3,5.3,12.9,5.9,13.5c1.3-4.5,2.7-9,4-13.5c18.5,0,37,0,55.6,0c0,8.4,0,16.8,0,25.1c-0.9,0.4-1.6,0.8-2.4,1.2
		c-0.8,0.4-1.4,1.1-1.7,2c-0.5,1.7-0.8,3.3-0.5,5.1c1.4,8.8,2.7,17.5,4,26.3c1.2,7.9,2.4,15.9,3.6,23.8c0.3,1.7,1.2,3.1,2.4,4.3
		c0.4,0.4,1,0.6,1.6,0.8c0.6,0.2,1.3,0.3,2,0.4c0,9.5,0,18.9,0,28.3c-18.7,0-37.3,0-56,0c0-1.5,0-19.9,0-21.5c-2.5,0-30.8,0-32.1,0
		c-0.1,7.2-0.2,14.4-0.3,21.5c-1.5,0.3-51.7,0.2-52.5-0.1c0-4.5,0-9.1,0-13.6c-0.2,0-0.3,0-0.3,0c-0.2,0.2-0.4,0.3-0.7,0.5
		c-3.1,2.6-6.4,4.8-9.8,6.8c-13.9,8-28.8,11.2-44.6,8.2c-15.7-3-29.4-10-40.8-21.4c-0.2-0.2-0.5-0.4-0.9-0.8c0,2.5,0,4.7,0,6.9
		c0,2.2,0.1,4.4,0,6.6c0,2.2,0.2,4.4,0,6.8c-0.6,0-1.1,0-1.5,0c-13,0-26.1,0-39.1,0c-1,0-2.1,0-3.1,0c-4-0.3-7.9-0.8-11.8-1.6
		c-11.8-2.6-22.5-7.6-31.6-15.6c-10-8.8-16.6-19.6-19.3-32.6c-0.1-0.5-0.2-1.1-0.4-1.7c-0.4,0.4-0.7,0.6-1,0.9
		c-1.7,1.4-3.4,2.8-5.1,4.1c-8,5.9-16.9,10.1-26.3,13c-3,0.9-6.1,1.6-9.2,2.4c-1.7,0.4-2.2,1.6-1.5,3.2c0.4,1,1.2,1.7,2.2,2.1
		c1.3,0.5,2.6,0.9,4,1.4c0,8.1,0,16.2,0,24.3c-0.3,0-0.5,0.1-0.8,0.1c-2.4,0-4.9,0.1-7.3,0.1c-13.3,0-26.6,0-39.8,0
		c-52.6,0-105.3,0-157.9,0c-8.7,0-17.2-1.4-25.4-4.3c-11.5-4.1-21.4-10.5-29.3-20c-7.5-9-11.8-19.3-12.9-31C0.4,88,0.1,87.3,0,86.6z
		 M526.1,126.2c0,2.3-0.1,4.5,0,6.6c1.9,0.2,29.5,0.2,30.4-0.1c0-2,0-4,0-6.1c-0.7-0.2-1.4-0.4-2.1-0.7c-1.9-0.7-3-2-3.1-4
		c-0.1-1.4-0.1-2.9,0.1-4.3c0.7-5.1,1.5-10.3,2.3-15.4c1.6-11,3.2-22.1,4.9-33.1c0-0.2,0.1-0.5,0.2-0.7c0.1,0,0.1,0,0.2,0
		c5,14.3,9.9,28.7,14.9,43c6.2,0.1,12.4,0.2,18.6,0.3c2.5-7.8,4.9-15.5,7.4-23.3c2.5-7.8,4.9-15.5,7.4-23.3c0.3,0.4,0.4,0.8,0.4,1.2
		c0.3,1.8,0.6,3.6,0.8,5.5c1,6.5,2,13,3,19.4c1,6.5,2,13,3,19.4c0.5,3.1,1.1,6.2,1.4,9.4c0.4,3.6-1.2,5.5-4.1,6.4
		c-0.4,0.1-0.8,0.2-1.3,0.4c0,1.9,0,3.7,0,5.6c0,0.2,0,0.4,0.1,0.6c11.7,0,23.3,0,35,0c0-2.2,0-4.4,0-6.5c-0.2-0.1-0.3-0.1-0.5-0.2
		c-1.9-0.6-3.1-1.8-3.4-3.8c0-0.3-0.2-0.5-0.2-0.8c-0.7-4.6-1.5-9.2-2.1-13.9c-0.7-4.8-1.4-9.7-2-14.5c-0.8-5.4-1.5-10.8-2.3-16.3
		c-0.8-5.5-1.5-10.9-2.3-16.4c-0.5-3.6-1.1-7.2-1.5-10.8c-0.3-2.5,0.5-4.5,2.8-5.7c0.6-0.3,1.2-0.6,1.8-0.9c0-1.9,0-3.7,0-5.6
		c-12.2,0-24.4,0-36.6,0c-4.4,12.7-8.8,25.3-13.2,38c-0.1,0-0.2,0-0.2,0c-4.2-12.7-8.4-25.3-12.6-38c-11.6,0-23.1,0-34.7,0
		c0,2.3,0,4.5,0,6.7c1.1,0.4,2.1,0.7,3.1,1.2c1.8,0.8,2.3,1.9,2,3.9c-1.1,7.1-2.3,14.2-3.4,21.3c-1.2,7.2-2.3,14.4-3.5,21.7
		c-1.2,7.3-2.3,14.5-3.5,21.8c-0.4,2.1-0.7,4.3-1.2,6.4c-0.6,2.6-2.3,4.3-4.8,5.2C526.9,125.9,526.6,126,526.1,126.2z M469.1,135.8
		c5.1,0,9-0.4,12.9-1.2c12.5-2.6,23.2-8.6,31.5-18.5c11.5-13.6,14.6-31.9,8.3-48.2c-5-12.7-13.9-21.9-26.1-27.8
		c-12.2-5.9-25-7.3-38.2-4.4c-12.6,2.8-23.2,9.2-31.3,19.4c-8.9,11.4-12.2,24.3-9.7,38.6c1.9,10.5,6.9,19.3,14.6,26.6
		C442,130.7,455.2,135.5,469.1,135.8z M257.6,105.7c1.9-0.5,3.6-1,5.3-1.5c8.6-2.6,16.8-6,24.9-9.6c4.3-1.9,8.2-4.3,11.7-7.4
		c4.4-3.9,7.7-8.5,9.1-14.2c1.5-5.9,1.4-11.7-0.2-17.5c-2.3-7.9-7.5-13-15.4-15.2c-1.8-0.5-3.6-0.8-5.3-1.3c-3.7-1-7.5-1.5-11.4-1.5
		c-4.9,0.1-9.8,0-14.8-0.1c-10.7,0-21.4-0.1-32.2-0.1c-0.3,0-0.6,0.1-1,0.1c-0.1,2.6-0.1,5.2-0.2,7.6c1.4,1,2.6,1.8,3.9,2.7
		c0.8,0.6,1.1,1.4,1.1,2.3c0.1,1.4,0.2,2.8,0.2,4.2c0,4.4-0.2,8.7-0.2,13.1c0,17.1,0,34.2,0,51.2c0,0.5,0,1,0,1.4
		c0.2,1.3-0.3,2.4-1.2,3.4c-1.1,1.1-2.2,2.1-3.8,2.4c-0.1,2.4-0.3,4.7-0.2,7c2.4,0.3,33,0.2,34-0.1c0-2.3,0-4.7,0-6.9
		c-0.9-0.7-1.8-1.3-2.6-2c-1.4-1.1-2.1-2.6-2.1-4.5c0.1-4.3,0.1-8.6,0.2-12.8C257.5,106.3,257.5,106,257.6,105.7z M216.7,126
		c-0.2-0.1-0.3-0.2-0.4-0.2c-2.7-0.8-4.8-2.5-6.2-4.9c-0.9-1.6-1.8-3.2-2.4-4.9c-9.8-25.6-19.5-51.3-29.3-77
		c-0.2-0.4-0.4-0.9-0.6-1.4c-8.4,0-16.8,0-25.2,0c-0.2,0.5-0.3,0.9-0.5,1.3c-9.2,25.1-18.5,50.2-27.8,75.2c-0.7,1.9-1.5,3.7-2.4,5.5
		c-1.5,2.8-3.3,5.4-6.7,6.3c0.1,2.4,0.2,4.7,0.4,6.9c1.6,0.3,28.1,0.2,29-0.1c0-2.2,0-4.4,0-6.7c-0.4-0.1-0.7-0.2-1-0.3
		c-2.3-0.7-3.5-2.1-3.6-4.5c-0.1-1.5,0.1-3,0.7-4.5c2-5.2,4.1-10.4,6.1-15.6c0.1-0.3,0.3-0.6,0.4-0.8c9.9,0,19.8,0,29.7,0
		c0.5,1.2,1,2.3,1.4,3.5c1.8,4.9,3.7,9.8,5.5,14.7c0.3,0.9,0.6,1.8,0.6,2.7c0.2,2.5-0.9,4-3.3,4.5c-0.3,0.1-0.6,0.2-0.9,0.2
		c0,2.4,0,4.6,0,6.9c12.2,0,24.4,0,36.6,0C216.7,130.5,216.7,128.3,216.7,126z M97.8,108.9c-1.8,0-3.6,0-5.3,0
		c-0.2,0-0.5,0.3-0.7,0.5c-0.7,0.9-1.3,1.9-2.2,2.7c-4.3,3.7-9.3,5.8-15,5.6c-2.3-0.1-4.6-0.2-6.8-0.4c-6.4-0.5-12.1-2.8-17.1-6.8
		c-4.6-3.7-7.9-8.4-10.1-13.9c-3.3-8.1-4.8-16.5-3.3-25.1c1.4-8.1,5.5-14.6,12.4-19.2c3.2-2.1,6.7-3.3,10.5-3.3
		c2.3,0,4.6,0.1,6.8,0.2c4.1,0.3,7.5,2,10.3,5c3.8,4,3.9,9.8,1.8,13.1c-0.4,0.7-0.4,0.8,0.3,1.4c0.6,0.5,1.3,1,1.9,1.5
		c1.8,1.4,3,1.3,4.6-0.3c4.9-5.2,9.9-10.4,14.8-15.5c0.3-0.3,0.5-0.6,0.8-0.9c-0.3-0.4-0.5-0.7-0.7-1c-2.3-2.9-5-5.4-8-7.6
		c-8.7-6.2-18.4-9.5-29.1-9.9c-6.3-0.3-12.5,0.8-18.5,2.8C34,41.4,24.9,47.9,18.4,57.8C11.7,68,9.5,79.1,11.7,91.1
		c1.6,8.6,5.5,16.2,11.4,22.6c11.3,12.4,25.6,18.6,42.3,18.9c10.4,0.2,20.8,0.1,31.2,0.1c0.4,0,0.8,0,1.2-0.1
		C97.8,124.7,97.8,116.9,97.8,108.9z M411.1,53.3c-1.4-1.6-2.7-3.2-4.2-4.6c-9-8.5-19.8-12.7-32-13.7c-6.8-0.6-13.6,0.5-20.1,2.6
		c-11.3,3.7-20.5,10.3-27.1,20.4c-6.3,9.7-8.6,20.4-6.8,31.8c1.2,8,4.5,15.2,9.6,21.4c11.1,13.7,25.8,20.7,43.3,21.3
		c10.8,0.4,21.7,0.1,32.5,0.1c0.3,0,0.6-0.1,0.9-0.1c0-7.9,0-15.7,0-23.6c-1.9,0-3.8,0-5.5,0c-0.8,1-1.3,2-2.2,2.7
		c-4,3.8-8.8,5.9-14.4,6c-2.1,0.1-4.2-0.1-6.2-0.2c-4-0.2-7.9-1-11.6-2.6c-6.8-2.9-12-7.7-15.4-14.1c-4.2-7.9-6.2-16.5-5.7-25.5
		c0.4-7.5,3.2-13.9,8.4-19.2c4.5-4.6,9.9-7.2,16.5-7c1.7,0.1,3.4,0.1,5,0.2c4.3,0.3,7.8,2.1,10.7,5.2c1.1,1.2,1.9,2.5,2.4,4
		c0.9,3.1,0.9,6.1-0.7,8.9c-0.3,0.5-0.3,0.9,0.2,1.3c0.9,0.7,1.8,1.5,2.8,2.1c1.1,0.8,2.4,0.6,3.4-0.3c0.2-0.2,0.3-0.3,0.5-0.5
		c4.9-5.2,9.9-10.4,14.8-15.5C410.4,54,410.7,53.7,411.1,53.3z"/>
	<path style="fill-rule:evenodd;clip-rule:evenodd;fill:#FFFFFF;" d="M47,205.9c-0.8-0.2-1.6-0.3-2.3-0.5
		c-10.9-2-19.3-11.2-20.5-22.2c-1.5-12.9,7.2-25.3,20.5-27.8c1.5-0.3,3-0.3,4.5-0.5c0.3,0,0.6,0,0.8,0c185.6,0,371.3,0,556.9,0
		c6.2,0,11.8,1.8,16.5,5.7c5.7,4.7,8.8,10.7,9.4,18.1c0.9,12.9-8.1,24.7-21.3,26.9c-0.5,0.1-1,0.2-1.5,0.3
		C422.4,205.9,234.7,205.9,47,205.9z M465.9,193.7c0-3.7,0-14.8,0-18.8c2.1,5.7,3.6,10.9,5.6,16.4c1.1,0,2.2,0,3.2,0
		c1-2.8,2.1-5.6,3.1-8.4c1-2.8,2-5.6,3-8.3c-0.4,5.7-0.6,17.3-0.2,19.2c1.5,0,3.1,0,4.6,0c0.3-1.9,0.2-25.8-0.1-26.6
		c-1.9,0-3.8,0-5.8,0c-2,5.8-4,11.5-6.1,17.4c-1-3-2-5.8-3-8.7c-1-2.9-2.1-5.8-3.1-8.6c-1.1,0-4.5,0.1-5.9,0.1c0,3.6,0,24.5,0,26.4
		C463.1,193.7,464,193.7,465.9,193.7z M245.5,187c0.6,2.2,1.2,4.5,1.9,6.8c1.9,0,3.7,0,5.6,0c-2.9-9-5.7-17.8-8.6-26.6
		c-2.2,0-4.2,0-6.4,0c-2.8,8.8-5.6,17.7-8.5,26.6c1.9,0,3.7,0,5.5,0c0.6-2.3,1.3-4.5,1.9-6.7C239.8,187,242.6,187,245.5,187z
		 M445.4,177.6c-3.1,0-6.2,0-9.2,0c0-2.1,0-4,0-6c3.7-0.1,7.3,0.1,10.9-0.1c0-1.6,0.1-3-0.1-4.4c-1.9-0.2-15.4-0.1-16.3,0.1
		c-0.2,1.5-0.2,25.6,0.1,26.4c5.5,0,11,0,16.5,0c0-1.5,0-2.9,0-4.5c-3.8,0-7.5,0-11.2,0c0-2.4,0-4.7,0-7c3.1-0.1,6.2,0,9.2-0.1
		C445.4,180.5,445.4,179.2,445.4,177.6z M177.2,193.7c0.1-3.3,0-6.3,0.1-9.5c1.4,0,2.6,0.1,3.8,0c1.5-0.1,3-0.3,4.5-0.8
		c3.1-1,4.9-3.2,5.5-6.4c0.1-0.8,0.1-1.7,0.1-2.5c-0.1-3.3-1.9-5.8-5.1-6.8c-1.5-0.5-3.1-0.7-4.7-0.8c-2.8-0.1-5.6,0-8.4,0
		c-0.3,0-0.6,0.1-0.9,0.1c0,8.9,0,17.7,0,26.5c0.4,0,0.8,0.1,1.1,0.1C174.4,193.7,175.7,193.7,177.2,193.7z M367.6,190.3
		c0.3,0.3,0.6,0.6,0.9,0.8c3.3,2.6,7.1,3.6,11.3,3c2.2-0.3,4.1-1.3,5.6-3c2.4-2.6,2.9-7.9-1.1-10.7c-0.8-0.5-1.6-1-2.5-1.4
		c-1.5-0.7-3.1-1.3-4.6-2c-0.8-0.3-1.5-0.8-2.1-1.3c-0.5-0.4-0.8-1-0.8-1.7c-0.1-1.4,0.8-2.4,2.3-2.7c2.2-0.5,4.2,0,6.1,1.3
		c0.4,0.2,0.7,0.5,1.1,0.8c0.9-1.2,1.8-2.2,2.8-3.5c-0.3-0.2-0.6-0.4-0.8-0.6c-2.3-1.9-4.9-2.8-7.9-2.8c-2.2,0-4.2,0.6-6,1.8
		c-4.2,3-4.1,9,0.2,11.9c0.8,0.5,1.7,0.9,2.5,1.3c1.5,0.7,3.1,1.3,4.6,2c0.5,0.2,0.9,0.4,1.4,0.8c1.8,1.3,1.6,3.8-0.5,4.8
		c-0.6,0.3-1.2,0.4-1.9,0.4c-2.4,0.2-4.5-0.7-6.4-2.1c-0.4-0.3-0.7-0.5-1.1-0.8C369.6,187.9,368.6,189.1,367.6,190.3z M326.6,170
		c-0.4-0.4-0.7-0.7-1.1-0.9c-2.3-1.8-4.9-2.6-7.8-2.5c-2.1,0.1-4.1,0.7-5.8,1.9c-4,3-3.9,8.9,0.3,11.7c0.8,0.5,1.7,1,2.5,1.3
		c1.5,0.7,3.1,1.3,4.6,2c0.5,0.2,1,0.5,1.5,0.8c1.7,1.3,1.5,3.8-0.5,4.7c-0.6,0.3-1.3,0.4-2,0.5c-2.4,0.2-4.5-0.7-6.4-2.1
		c-0.3-0.2-0.6-0.5-1-0.7c-1,1.3-2,2.4-3,3.6c0.2,0.2,0.4,0.4,0.5,0.5c3.4,2.9,7.4,3.9,11.7,3.2c2.1-0.3,3.9-1.2,5.3-2.8
		c2.5-2.6,3.1-8-0.9-10.9c-0.8-0.5-1.6-1-2.5-1.4c-1.6-0.7-3.2-1.3-4.7-2c-0.8-0.4-1.7-0.9-2.3-1.6c-1-1-0.7-2.7,0.5-3.5
		c0.4-0.3,0.9-0.5,1.4-0.6c2.1-0.5,4,0.1,5.8,1.2c0.4,0.3,0.8,0.5,1.2,0.8C324.8,172.2,325.7,171.1,326.6,170z M274,193.7
		c0-0.5,0.1-0.9,0.1-1.3c0-2.4,0-4.9,0-7.3c0-0.7,0.1-1.4,0.5-2.1c2.3-4.9,4.7-9.8,7-14.7c0.2-0.4,0.3-0.8,0.5-1.2c-2,0-3.7,0-5.6,0
		c-1.7,4.1-3.3,8.1-5,12.4c-1.7-4.3-3.4-8.4-5-12.4c-1,0-2,0-2.9,0c-0.9,0-1.8-0.1-2.8,0.1c0.2,0.5,0.4,0.9,0.6,1.3
		c2.3,4.8,4.6,9.7,6.9,14.5c0.4,0.7,0.5,1.5,0.5,2.3c0,2.4,0,4.8,0,7.2c0,0.4,0,0.8,0.1,1.2C270.6,193.7,272.2,193.7,274,193.7z
		 M344.8,193.6c1.4,0.3,4.4,0.2,5.3-0.1c0-0.4,0-0.8,0-1.2c0-2.3,0-4.6,0-7c0-1,0.2-1.9,0.6-2.8c2.3-4.7,4.5-9.5,6.8-14.3
		c0.2-0.4,0.3-0.8,0.5-1.3c-1.9,0-3.7,0-5.5,0c-1.8,4-3.3,8.1-5.1,12.3c-1.7-4.3-3.3-8.3-5-12.4c-1,0-1.9,0-2.8,0
		c-0.9,0-1.8,0-2.9,0c0.3,0.6,0.4,1,0.6,1.4c2.3,4.8,4.5,9.6,6.8,14.4c0.4,0.8,0.6,1.6,0.6,2.5c0,2.3,0,4.6,0,7
		C344.8,192.7,344.8,193.2,344.8,193.6z M405.3,171.6c0,7.4,0,14.7,0,22.1c1.8,0,3.5,0,5.4,0c0-7.4,0-14.7,0-22c2.6-0.1,5,0,7.5-0.1
		c0-1.6,0-3,0-4.4c-1.6-0.3-19.5-0.2-20.3,0.1c0,1.4-0.1,2.8,0,4.3C400.4,171.6,402.8,171.6,405.3,171.6z M220.2,189.2
		c-3.7,0-7.2,0-10.8,0c0-0.6,0-1.1,0-1.6c0-6.4,0-12.8,0-19.2c0-0.5-0.1-0.9-0.1-1.4c-1,0-1.8,0-2.7,0c-0.9,0-1.7,0-2.6,0
		c0,9,0,17.8,0,26.6c5.4,0,10.7,0,16,0c0-0.3,0.1-0.6,0.1-0.9C220.2,191.7,220.2,190.6,220.2,189.2z"/>
	<path style="fill-rule:evenodd;clip-rule:evenodd;fill:#FFFFFF;" d="M680.9,23c0.6,0.2,1.2,0.3,1.8,0.5c7.1,1.8,11.8,6.2,13.3,13.3
		c2.4,11.8-5.8,19.8-14.5,21.1c-9.6,1.4-18.6-5.5-19.8-15.1c-1.1-9.4,5-17.7,14.4-19.5c0.3-0.1,0.7-0.2,1-0.3
		C678.3,23,679.6,23,680.9,23z M678.9,55.7c8.3,0,15.1-6.7,15.2-15c0-8.4-6.7-15.2-15.1-15.2c-8.3,0-15.2,6.8-15.2,15
		C663.8,48.9,670.6,55.7,678.9,55.7z"/>
	<path style="fill-rule:evenodd;clip-rule:evenodd;fill:#FFFFFF;" d="M257.9,52.1c-0.3,1.5-0.1,39.3,0.1,40.2
		c0.2-0.1,0.4-0.1,0.5-0.2c5.8-2.6,11.1-6.1,16.2-9.8c0.2-0.1,0.4-0.3,0.5-0.5c2.2-2.4,4.5-4.8,6.6-7.2c2.6-3.1,3.7-6.8,3.3-10.9
		c-0.5-5.4-3.4-8.9-8.3-10.9C270.7,50.1,264.3,50.8,257.9,52.1z"/>
	<path style="fill-rule:evenodd;clip-rule:evenodd;fill:#FFFFFF;" d="M498.6,84.6c-0.3,3.5-0.2,7.3-0.9,11
		c-1.8,10.4-7.2,18.2-17,22.5c-4,1.8-8.2,2.1-12.5,1.8c-2.4-0.2-4.7-0.5-7-1.2c-6.7-1.9-11.6-6-14.7-12.1c-2.2-4.3-3.4-8.8-4-13.5
		c-0.8-5.5-0.7-10.9,0-16.4c1-7,3.5-13.4,8.5-18.5c4.5-4.6,10-7.1,16.4-7.8c3.3-0.4,6.6-0.2,9.9,0.6c4.9,1.2,9.1,3.7,12.4,7.5
		c4.5,5.1,7.1,11.1,8.3,17.7C498.5,78.8,498.4,81.6,498.6,84.6z"/>
	<path style="fill-rule:evenodd;clip-rule:evenodd;fill:#FFFFFF;" d="M257.9,52.1c6.4-1.3,12.8-2,19,0.6c4.8,2,7.8,5.5,8.3,10.9
		c0.3,4.1-0.7,7.8-3.3,10.9c-2.1,2.5-4.4,4.8-6.6,7.2c-0.2,0.2-0.3,0.3-0.5,0.5c-5.1,3.7-10.4,7.2-16.2,9.8
		c-0.2,0.1-0.4,0.1-0.5,0.2C257.8,91.4,257.6,53.6,257.9,52.1z"/>
	<path style="fill-rule:evenodd;clip-rule:evenodd;fill:#FFFFFF;" d="M152,85.1C155,76,158,67,161.1,57.9c0.1,0,0.1,0,0.2,0
		c3.2,9,6.5,18,9.8,27.2C164.6,85.1,158.4,85.1,152,85.1z"/>
	<path style="fill-rule:evenodd;clip-rule:evenodd;fill:#FFFFFF;" d="M244.2,182.6c-2.1,0-4.1,0-6.1,0c1-3.8,2-7.4,3-11.1
		c0.1,0,0.1,0,0.2,0C242.2,175.2,243.2,178.8,244.2,182.6z"/>
	<path style="fill-rule:evenodd;clip-rule:evenodd;fill:#FFFFFF;" d="M177.3,180c0-2.9,0-5.8,0-8.7c1.9,0,3.7-0.1,5.4,0.2
		c1.9,0.4,2.8,1.4,3,3.1c0.3,2.4-0.5,4-2.3,4.8c-0.3,0.1-0.5,0.2-0.8,0.3C180.9,180.2,179.1,179.9,177.3,180z"/>
	<path style="fill-rule:evenodd;clip-rule:evenodd;fill:#FFFFFF;" d="M689.9,50.8c-1.6,0-2.9,0-4.2,0c-0.6,0-0.9-0.2-1.2-0.6
		c-1.1-1.7-2.2-3.4-3.4-5.1c-1.3-1.9-0.7-1.5-2.8-1.6c-1.3,0-2.5,0-4,0c0,2.4,0,4.7,0,7.1c-1.5,0-2.8,0-4.2,0
		c-0.3-0.8-0.4-18.5-0.1-20.5c0.2,0,0.5-0.1,0.8-0.1c3.4,0,6.8,0,10.2,0c3.4,0,6,2,6.8,5c0.8,3-0.4,6-3,7.6
		c-0.2,0.1-0.5,0.3-0.8,0.5C686,45.6,687.8,48.1,689.9,50.8z M674.4,39.5c2.5,0,5,0.1,7.4,0c1.9-0.1,2.9-2.9,1.7-4.4
		c-0.2-0.2-0.5-0.4-0.8-0.5c-0.4-0.2-0.9-0.3-1.4-0.3c-2.1,0-4.2,0-6.3,0c-0.2,0-0.4,0.1-0.7,0.1C674.4,36.1,674.4,37.8,674.4,39.5z
		"/>
</g>
</svg>
