<?xml version="1.0" encoding="utf-8"?>
<!-- Generator: Adobe Illustrator 24.0.1, SVG Export Plug-In . SVG Version: 6.00 Build 0)  -->
<svg version="1.1"
	 id="Layer_3" xmlns:cc="http://creativecommons.org/ns#" xmlns:dc="http://purl.org/dc/elements/1.1/" xmlns:rdf="http://www.w3.org/1999/02/22-rdf-syntax-ns#"
	 xmlns="http://www.w3.org/2000/svg" xmlns:xlink="http://www.w3.org/1999/xlink" x="0px" y="0px" viewBox="0 0 598.2 350.3"
	 style="enable-background:new 0 0 598.2 350.3;" xml:space="preserve">
<g>
	<path style="fill:#FFFFFF;" d="M107.5,99.1h-1v0c-49.1,0.5-89,40.7-89,90c0,49.6,40.4,90,90,90c49.6,0,90-40.4,90-90
		S157.1,99.1,107.5,99.1z M107.5,102.9h0.2l0,0c47.4,0.1,85.9,38.7,85.9,86.1c0,47.5-38.6,86.1-86.1,86.1
		c-47.5,0-86.1-38.6-86.1-86.1C21.4,141.6,60,102.9,107.5,102.9z"/>
	<path style="fill:#FFFFFF;" d="M107.5,227.6c21.2,0,38.5-17.3,38.5-38.5c0-21.2-17.3-38.5-38.5-38.5c-21.2,0-38.5,17.3-38.5,38.5
		C69,210.3,86.3,227.6,107.5,227.6z M107.5,154.4c19.1,0,34.7,15.6,34.7,34.7c0,19.1-15.6,34.7-34.7,34.7s-34.7-15.6-34.7-34.7
		C72.8,169.9,88.4,154.4,107.5,154.4z"/>
	<polygon style="fill:#FFFFFF;" points="107.5,126 101.7,148.1 113.4,148.1 	"/>
	<polygon style="fill:#FFFFFF;" points="82.7,156 62.9,144.4 74.5,164.2 	"/>
	<polygon style="fill:#FFFFFF;" points="66.6,194.9 66.6,183.2 44.4,189.1 	"/>
	<polygon style="fill:#FFFFFF;" points="62.9,233.7 82.7,222.1 74.5,213.9 	"/>
	<polygon style="fill:#FFFFFF;" points="107.5,252.1 113.4,230 101.7,230 	"/>
	<polygon style="fill:#FFFFFF;" points="132.4,222.1 152.1,233.6 140.6,213.9 	"/>
	<polygon style="fill:#FFFFFF;" points="148.5,194.9 170.7,189.1 148.5,183.2 	"/>
	<polygon style="fill:#FFFFFF;" points="152.1,144.5 132.4,156 140.6,164.2 	"/>
	<path style="fill:#FFFFFF;" d="M299.9,133.2c-18.7,0-33.9,15.2-33.9,33.9c0,18.7,15.2,33.9,33.9,33.9c18.7,0,33.9-15.2,33.9-33.9
		C333.8,148.4,318.6,133.2,299.9,133.2z M299.9,197.2c-16.6,0-30-13.5-30-30.1c0-16.6,13.5-30,30-30c16.6,0,30.1,13.5,30.1,30
		C329.9,183.7,316.5,197.2,299.9,197.2z"/>
	<path style="fill:#FFFFFF;" d="M299.9,143.7c-12.9,0-23.4,10.5-23.4,23.4c0,12.9,10.5,23.4,23.4,23.4c12.9,0,23.4-10.5,23.4-23.4
		C323.2,154.2,312.8,143.7,299.9,143.7z M299.9,186.6c-10.8,0-19.5-8.8-19.5-19.5c0-10.8,8.8-19.5,19.5-19.5
		c10.8,0,19.5,8.8,19.5,19.5C319.4,177.8,310.6,186.6,299.9,186.6z"/>
	<path style="fill:#FFFFFF;" d="M383.4,114.6c-18.7,0-33.9,15.2-33.9,33.9c0,18.7,15.2,33.9,33.9,33.9c18.7,0,33.9-15.2,33.9-33.9
		C417.3,129.8,402.1,114.6,383.4,114.6z M383.4,118.4c16.6,0,30.1,13.5,30.1,30c0,16.6-13.5,30-30.1,30c-16.6,0-30-13.5-30-30
		C353.3,131.9,366.8,118.4,383.4,118.4z"/>
	<path style="fill:#FFFFFF;" d="M383.4,171.8c12.9,0,23.4-10.5,23.4-23.4c0-12.9-10.5-23.4-23.4-23.4c-12.9,0-23.4,10.5-23.4,23.4
		C360,161.4,370.5,171.8,383.4,171.8z M383.4,128.9c10.8,0,19.5,8.8,19.5,19.5s-8.8,19.5-19.5,19.5c-10.8,0-19.5-8.8-19.5-19.5
		S372.6,128.9,383.4,128.9z"/>
	<path style="fill:#FFFFFF;" d="M466.8,114.6c-18.7,0-33.9,15.2-33.9,33.9c0,18.7,15.2,33.9,33.9,33.9c18.7,0,33.9-15.2,33.9-33.9
		C500.8,129.8,485.5,114.6,466.8,114.6z M466.8,118.4c16.6,0,30.1,13.5,30.1,30c0,16.6-13.5,30-30.1,30c-16.6,0-30-13.5-30-30
		C436.8,131.9,450.3,118.4,466.8,118.4z"/>
	<path style="fill:#FFFFFF;" d="M466.8,171.8c12.9,0,23.4-10.5,23.4-23.4c0-12.9-10.5-23.4-23.4-23.4s-23.4,10.5-23.4,23.4
		C443.5,161.4,454,171.8,466.8,171.8z M466.8,128.9c10.8,0,19.5,8.8,19.5,19.5s-8.8,19.5-19.5,19.5c-10.8,0-19.5-8.8-19.5-19.5
		S456.1,128.9,466.8,128.9z"/>
	<path style="fill:#FFFFFF;" d="M548,33.5C548,33.5,548,33.5,548,33.5c-18.7,0-33.9,15.2-33.9,33.9c0,18.7,15.2,33.9,33.9,33.9
		c18.7,0,33.9-15.2,33.9-33.9C581.8,48.7,566.6,33.5,548,33.5z M548,37.3c16.6,0,30,13.5,30,30c0,16.6-13.5,30.1-30,30.1
		s-30-13.5-30-30.1C517.9,50.8,531.4,37.3,548,37.3z"/>
	<path style="fill:#FFFFFF;" d="M548,90.7c12.9,0,23.4-10.5,23.4-23.4c0-12.9-10.5-23.4-23.4-23.4c-12.9,0-23.4,10.5-23.4,23.4
		C524.6,80.3,535.1,90.7,548,90.7z M548,47.8c10.8,0,19.5,8.8,19.5,19.5c0,10.8-8.8,19.6-19.5,19.6c-10.8,0-19.5-8.8-19.5-19.6
		C528.4,56.6,537.2,47.8,548,47.8z"/>
	<path style="fill:#FFFFFF;" d="M299.9,215.1c-18.7,0-33.9,15.2-33.9,33.9c0,18.7,15.2,33.9,33.9,33.9c18.7,0,33.9-15.2,33.9-33.9
		C333.8,230.3,318.6,215.1,299.9,215.1z M299.9,279.1c-16.6,0-30-13.5-30-30c0-16.6,13.5-30.1,30-30.1c16.6,0,30.1,13.5,30.1,30.1
		C329.9,265.6,316.5,279.1,299.9,279.1z"/>
	<path style="fill:#FFFFFF;" d="M299.9,225.7c-12.9,0-23.4,10.5-23.4,23.4s10.5,23.4,23.4,23.4c12.9,0,23.4-10.5,23.4-23.4
		S312.8,225.7,299.9,225.7z M299.9,268.6c-10.8,0-19.5-8.8-19.5-19.5s8.8-19.5,19.5-19.5c10.8,0,19.5,8.8,19.5,19.5
		S310.6,268.6,299.9,268.6z"/>
	<path style="fill:#FFFFFF;" d="M383.4,196.5c-18.7,0-33.9,15.2-33.9,33.9c0,18.7,15.2,33.9,33.9,33.9c18.7,0,33.9-15.2,33.9-33.9
		C417.3,211.7,402.1,196.5,383.4,196.5z M383.4,200.4c16.6,0,30.1,13.5,30.1,30.1c0,16.6-13.5,30-30.1,30c-16.6,0-30-13.5-30-30
		C353.3,213.8,366.8,200.4,383.4,200.4z"/>
	<path style="fill:#FFFFFF;" d="M383.4,253.8c12.9,0,23.4-10.5,23.4-23.4s-10.5-23.4-23.4-23.4c-12.9,0-23.4,10.5-23.4,23.4
		S370.5,253.8,383.4,253.8z M383.4,210.9c10.8,0,19.5,8.8,19.5,19.5s-8.8,19.5-19.5,19.5c-10.8,0-19.5-8.8-19.5-19.5
		S372.6,210.9,383.4,210.9z"/>
	<path style="fill:#FFFFFF;" d="M466.8,196.5c-18.7,0-33.9,15.2-33.9,33.9c0,18.7,15.2,33.9,33.9,33.9c18.7,0,33.9-15.2,33.9-33.9
		C500.8,211.7,485.5,196.5,466.8,196.5z M466.8,200.4c16.6,0,30.1,13.5,30.1,30.1c0,16.6-13.5,30-30.1,30c-16.6,0-30-13.5-30-30
		C436.8,213.8,450.3,200.4,466.8,200.4z"/>
	<path style="fill:#FFFFFF;" d="M466.8,253.8c12.9,0,23.4-10.5,23.4-23.4s-10.5-23.4-23.4-23.4s-23.4,10.5-23.4,23.4
		S454,253.8,466.8,253.8z M466.8,210.9c10.8,0,19.5,8.8,19.5,19.5s-8.8,19.5-19.5,19.5c-10.8,0-19.5-8.8-19.5-19.5
		c0-5.2,2-10.1,5.7-13.8C456.7,212.9,461.6,210.9,466.8,210.9z"/>
</g>
</svg>
