<?xml version="1.0" encoding="utf-8"?>
<!-- Generator: Adobe Illustrator 24.0.1, SVG Export Plug-In . SVG Version: 6.00 Build 0)  -->
<svg version="1.1" id="레이어_1" xmlns="http://www.w3.org/2000/svg" xmlns:xlink="http://www.w3.org/1999/xlink" x="0px"
	 y="0px" viewBox="0 0 850 250" style="enable-background:new 0 0 850 250;" xml:space="preserve">
<g>
	<path style="fill:#FFFFFF;" d="M17.2,122c0-34.2,24.6-59.4,58.4-59.4c28,0,47.6,15.6,54.8,39.2H124c-6.6-20.4-23.6-33.4-48.2-33.4
		c-30.4,0-52.2,22.4-52.2,53.6s22.2,53.6,52.4,53.6c25.4,0,43.4-14,49.2-35h6.4c-6.2,24.4-27,40.8-55.8,40.8
		C42,181.4,17.2,156.2,17.2,122z"/>
	<path style="fill:#FFFFFF;" d="M227.8,138.6c0,24-17,42.4-40,42.4s-40-18.2-40-42.4s17-42.4,40-42.4S227.8,114.6,227.8,138.6z
		 M153.8,138.6c0,20.8,13.8,36.8,34,36.8s34-15.8,34-36.8c0-20.8-13.8-36.8-34-36.8C167.6,101.8,153.8,117.8,153.8,138.6z"/>
	<path style="fill:#FFFFFF;" d="M254.6,179h-6V61.8h6V179z"/>
	<path style="fill:#FFFFFF;" d="M285.8,179h-6V61.8h6V179z"/>
	<path style="fill:#FFFFFF;" d="M306.4,138.6c0-24,16.6-42.4,39.2-42.4s39.2,18.2,39.2,42.4c0,0.8,0,2-0.2,2.8h-72
		c1.2,19.4,14.2,34,33,34c14.4,0,25.4-7.2,29-16.8h6.6c-4.4,12.8-18,22.4-35.6,22.4C323,181,306.4,162.6,306.4,138.6z M378.6,135.8
		c-1.2-19.4-14.2-33.8-33-33.8s-31.8,14.4-33,33.8H378.6z"/>
	<path style="fill:#FFFFFF;" d="M441,181c-23.2,0-40.4-18.2-40.4-42.4s17-42.4,39.8-42.4c17.4,0,31.6,11.2,36.2,27.6h-6.2
		c-4.4-13.2-15.6-22-30-22c-20,0-33.8,15.8-33.8,36.8c0,20.8,13.8,36.8,33.8,36.8c14.6,0,26.2-9.2,30.2-22.4h6.2
		C472.6,169.6,458.6,181,441,181z"/>
	<path style="fill:#FFFFFF;" d="M529.6,103.8H510v75h-6v-75h-19.6v-5.6H504v-25h6v25h19.6V103.8z"/>
	<path style="fill:#FFFFFF;" d="M554,67.4c0,2.8-2.2,5-5,5s-5-2.2-5-5c0-2.8,2.2-5,5-5S554,64.6,554,67.4z M552,179h-6V98.4h6V179z"
		/>
	<path style="fill:#FFFFFF;" d="M652.8,138.6c0,24-17,42.4-40,42.4s-40-18.2-40-42.4s17-42.4,40-42.4S652.8,114.6,652.8,138.6z
		 M578.8,138.6c0,20.8,13.8,36.8,34,36.8s34-15.8,34-36.8c0-20.8-13.8-36.8-34-36.8S578.8,117.8,578.8,138.6z"/>
	<path style="fill:#FFFFFF;" d="M673.4,98.2h6v20c2.4-7.6,13.6-22,33.2-22c18.2,0,31.6,13.8,31.6,35v47.6h-6v-46.6
		c0-19.8-10.4-30.4-26.8-30.4c-17.8,0-31.8,18.2-31.8,35v42h-6V98.2H673.4z"/>
	<path style="fill:#FFFFFF;" d="M830.8,117.2h-6c-0.4-8.8-12.6-15.6-28.2-15.6c-15.2,0-26.4,6.8-26.4,15.6c0,9,4.8,15.2,29.6,18.2
		c24.8,2.8,33.2,10.8,33.2,22.2c0,14.6-15.6,23.4-35.2,23.4c-22.2,0-34-10.6-35.2-22.2h6.2c0.8,7.6,9.4,16.8,29.6,16.8
		c16.4,0,28.8-7.2,28.8-17.6c0-9.2-6.6-14.2-30.6-17.2c-24.4-3-32.2-11-32.2-22.8c0-13.2,13.8-21.6,33-21.6
		C816.4,96.2,830.4,105.6,830.8,117.2z"/>
</g>
</svg>
