<?xml version="1.0" encoding="utf-8"?>
<!-- Generator: Adobe Illustrator 24.0.1, SVG Export Plug-In . SVG Version: 6.00 Build 0)  -->
<svg version="1.1" id="레이어_2_1_" xmlns="http://www.w3.org/2000/svg" xmlns:xlink="http://www.w3.org/1999/xlink" x="0px"
	 y="0px" viewBox="0 0 498.4 398.3" style="enable-background:new 0 0 498.4 398.3;" xml:space="preserve">
<g>
	<path style="fill:#FFFFFF;" d="M190.9,178.5c6.3,0,12.5,0.1,18.5,0.1c6.1,0,12,0,17.8-0.1c4.5,0,7.3-2.9,7.3-7.5v-36.1
		c0-4.1-3.3-7.4-7.4-7.4h-36.2c-4.5,0-7.3,2.9-7.3,7.5c0,4.3,0,8.3-0.1,12.4v23.4C183.5,175.7,186.2,178.5,190.9,178.5z M186.6,135
		c0-3,1.4-4.5,4.3-4.5h36.2c2.4,0,4.4,2,4.4,4.4V171c0,3-1.4,4.5-4.3,4.5c-11.5,0.1-23.8,0.1-36.3,0c-2,0-4.4-0.5-4.4-4.7l0-23.4
		C186.6,143.3,186.6,139.3,186.6,135z"/>
	<path style="fill:#FFFFFF;" d="M365.2,176.6c0-10.4,0-20.3,0-30c0-3.3-0.2-6.3-0.6-9.1c-4.7-31.5-31.3-54.3-63.2-54.3H196.7
		c-2.2,0-4.5,0.2-6.9,0.4c-32.3,3.5-56.7,30.6-56.7,63v105.1c0,3.3,0.2,6.3,0.6,9.1c4.7,31.5,31.3,54.3,63.2,54.3h104.3
		c2.7,0,5.1-0.1,7.2-0.4c32.3-3.5,56.7-30.6,56.7-63C365.2,223,365.2,198.3,365.2,176.6z M362.2,251.7L362.2,251.7
		c0,30.9-23.2,56.7-54,60.1c-2,0.3-4.2,0.4-6.8,0.4H197c-30.4,0-55.8-21.8-60.3-51.8c-0.4-2.7-0.6-5.5-0.6-8.7V146.6
		c0-30.9,23.2-56.7,54-60.1c2.2-0.2,4.5-0.4,6.6-0.4h104.6c30.4,0,55.8,21.8,60.3,51.8c0.4,2.7,0.6,5.5,0.6,8.7c0,9.7,0,19.6,0,30
		C362.2,198.3,362.2,223,362.2,251.7z"/>
	<path style="fill:#FFFFFF;" d="M287.7,212.5h-0.1c-7.6,0-14.8,3-20.3,8.4c-5.4,5.3-8.4,12.5-8.4,20.3c0,15.7,12.8,28.5,28.6,28.5
		s28.6-12.8,28.6-28.5c0.1-7.6-2.9-14.9-8.3-20.3C302.4,215.5,295.3,212.5,287.7,212.5z M287.5,266.7c-14.1,0-25.6-11.4-25.6-25.5
		c0-6.9,2.7-13.4,7.6-18.1c4.8-4.8,11.4-7.6,18.1-7.6h0.1c6.8,0,13.1,2.7,18,7.5c4.8,4.9,7.5,11.3,7.4,18.2
		C313.1,255.2,301.6,266.7,287.5,266.7z"/>
	<path style="fill:#FFFFFF;" d="M226.2,247.6l-4.8-4.8l3-3c0.6-0.6,1.3-1.3,1.9-1.9c0.7-0.6,1.3-1.3,2-1.9l1.1-1.1
		c1.5-1.4,3.2-3.1,4.6-4.6c2.2-2.3,3-5.4,2.2-8.3c-0.7-2.7-2.8-4.9-5.8-5.8c-3.5-1-6.4-0.2-9,2.4L209.2,231l-1.1-1.1
		c-1.2-1.2-2.4-2.4-3.5-3.6c-0.7-0.7-1.4-1.4-2-2.1c-1.9-2-3.7-3.9-5.6-5.7c-2.5-2.4-5.7-3.1-9-1.9c-3.1,1-5,3.2-5.6,6.7
		c-0.5,2.9,0.4,5.4,2.6,7.6l12.2,12.2l-4.6,4.6c-0.9,0.9-1.8,1.8-2.7,2.7c-1.8,1.8-3.5,3.4-5.1,5.1c-2.5,2.7-3.1,6.2-1.6,9.6
		c1.6,3.1,4.7,4.9,8.4,4.8c2.3-0.1,4.2-1.1,5.9-2.8c1.3-1.3,2.6-2.6,3.9-3.9c1.3-1.3,2.5-2.6,3.8-3.9l4.1-4.1l1.1,1.1
		c1.3,1.2,2.5,2.4,3.7,3.6l0.1,0.1c2.7,2.6,5.2,5,7.6,7.5c2.1,2.2,4.6,3.4,7.2,3.4c2.2,0,4.2-0.9,5.9-2.5c1.6-1.6,2.5-3.7,2.5-5.9
		c0-2.3-1.2-4.8-3.4-7C231.5,252.9,228.9,250.3,226.2,247.6z M232.8,266.2c-1.1,1.1-2.3,1.7-3.7,1.7c-1.7,0-3.5-0.9-5-2.4
		c-2.5-2.6-5-5-7.7-7.6l-0.1-0.1c-1.2-1.2-2.4-2.4-3.7-3.6l-3.2-3.2l-6.3,6.3c-1.3,1.3-2.6,2.6-3.9,3.9c-1.3,1.3-2.5,2.6-3.9,3.9
		c-1.2,1.2-2.4,1.8-3.9,1.9c-2.5,0.1-4.6-1.1-5.6-3.1c-1-2.2-0.7-4.5,1-6.2c1.6-1.7,3.3-3.4,5.1-5.1c0.9-0.9,1.8-1.8,2.7-2.7
		l6.8-6.8l-14.4-14.4c-1.5-1.5-2.1-3.1-1.8-5c0.4-2.4,1.5-3.7,3.6-4.3c2.3-0.8,4.2-0.4,6,1.3c1.9,1.8,3.7,3.7,5.5,5.6
		c0.7,0.7,1.3,1.4,2,2.1c1.1,1.2,2.4,2.5,3.5,3.6l3.2,3.3l14.4-14.4c1.8-1.8,3.6-2.3,6-1.6c1.9,0.6,3.2,1.9,3.7,3.7
		c0.5,1.9,0,3.9-1.5,5.5c-1.4,1.5-2.9,3-4.5,4.5l-1.1,1.1c-0.6,0.6-1.3,1.3-1.9,1.9c-0.7,0.6-1.3,1.3-2,1.9l-5.2,5.1l7,7
		c2.7,2.7,5.3,5.3,7.9,7.8c1.6,1.6,2.5,3.3,2.5,4.8C234.5,263.8,233.9,265.1,232.8,266.2z"/>
	<path style="fill:#FFFFFF;" d="M264.1,177.5h47.5c2.4,0,3.3-1.1,3.5-1.5c0.6-0.9,0.4-2.5-0.4-4l-5.5-9.5
		c-6-10.4-12.2-21.1-18.4-31.8c-1.2-2-2.4-2.4-3.2-2.4c-1.1,0-2.2,0.8-3.2,2.5c-4,6.8-7.9,13.6-11.8,20.5
		c-3.9,6.8-7.8,13.6-11.8,20.4l0,0c-1.2,2-1.3,3.5-0.5,4.4C261,177,262.3,177.5,264.1,177.5z M263.4,173.2c4-6.8,7.9-13.6,11.8-20.5
		c3.9-6.8,7.8-13.6,11.8-20.4c0.3-0.4,0.5-0.7,0.7-0.9c0.1,0.2,0.3,0.4,0.6,0.8c6.2,10.6,12.4,21.4,18.4,31.8l5.5,9.5
		c0.2,0.4,0.3,0.6,0.4,0.8c-0.2,0.1-0.5,0.1-0.9,0.1h-47.5c-0.6,0-1-0.1-1.2-0.1C263,174.1,263.1,173.7,263.4,173.2z"/>
</g>
</svg>
