<?xml version="1.0" encoding="utf-8"?>
<!-- Generator: Adobe Illustrator 24.0.1, SVG Export Plug-In . SVG Version: 6.00 Build 0)  -->
<svg version="1.1"
	 id="Layer_3" xmlns:cc="http://creativecommons.org/ns#" xmlns:dc="http://purl.org/dc/elements/1.1/" xmlns:rdf="http://www.w3.org/1999/02/22-rdf-syntax-ns#"
	 xmlns="http://www.w3.org/2000/svg" xmlns:xlink="http://www.w3.org/1999/xlink" x="0px" y="0px" viewBox="0 0 499.2 350.3"
	 style="enable-background:new 0 0 499.2 350.3;" xml:space="preserve">
<g>
	<path style="fill:#F4F4F4;" d="M234.3,192.1c2.9,1.5,8.1,1.4,14.1,0.8c0,0,0,0,0,0c-0.8,0.8-1.6,1.7-1.6,3.1c0,1.1,0.6,2.1,1.4,2.8
		c0.8,0.8,2,1.4,3.5,2.2c2.3,1.1,5.3,1.5,8.5,1.5c7.1,0,15.6-2.1,21.5-5.3c1.7-0.7,2.8-1.1,3.5-1.3c0.4-0.1,0.6-0.2,0.7-0.2
		c0.1,0,0.1,0,0.1,0l5.2-0.6l-4.7-2.2c-0.9-0.4-2.1-1.5-3.1-2.5c-0.4-0.4-0.7-0.7-1.1-1.1c10.8-1.1,23.2-3.3,24.6-7
		c-9.3,1.7-12.8,1.8-30.7,1.7c0,0,1-0.2,4.5-3.5C269.3,186,247.6,190.3,234.3,192.1z M280.4,194.4L280.4,194.4l-0.1,0.1
		c-5.2,2.9-13.5,5-20.1,5c-2,0-3.9-0.2-5.4-0.6c0.9-1.7,0.7-4-1.1-6c0.8-0.3,1.9-0.7,3.2-1.1c5.3-0.8,10.6-1.6,14.6-1.8
		c1.3-0.1,2.7-0.1,4.2-0.2c1.5,0.1,2.6,0.3,2.9,0.5l0.1,0.1l0.2,0c0.2,0,1.3,0.9,2.3,2c0.4,0.4,0.8,0.8,1.3,1.2
		C281.9,193.8,281.2,194.1,280.4,194.4z"/>
	<path style="fill:#F4F4F4;" d="M231.8,174.8l-2.8-1.1v0c-2.5,6.3-3.8,17.5-3.9,20.7l3,0.1C228.2,191.7,229.6,180.2,231.8,174.8z"/>
	<path style="fill:#F4F4F4;" d="M241.4,201.7c11.7,8.9,30.4,15.7,42.9,18.8l0.7-2.9c-12.2-2.9-30.8-9.8-41.8-18.2L241.4,201.7z"/>
	<path style="fill:#F4F4F4;" d="M209.3,196.1c-10,5.4-15.9,8.1-22.1,8c-0.5,0-1,0-1.5-0.1l-0.2,3c0.6,0,1.2,0.1,1.7,0.1
		c7.1,0,13.5-3,23.6-8.4L209.3,196.1z"/>
	<path style="fill:#F4F4F4;" d="M231.3,238.5l0-3c-1.5-0.1-3.2-0.6-4.5-1.1c-0.3-0.1-0.5-0.2-0.8-0.4c0.6-0.2,1.4-0.4,2.5-0.5
		c1.9-0.2,4.6-0.4,8.2-0.4c1.8,0,3.9,0,6.2,0.1l1.4,0l0.2-1.3c0.1-1,0.2-2.1,0.2-3.1c0-6.7-2.6-13-3.6-15.4l-2.7,1.2
		c1,2.2,3.4,8.3,3.4,14.2c0,0.4,0,0.9,0,1.3c-1.8-0.1-3.4-0.1-4.9-0.1c-4.9,0-8.2,0.3-10.3,0.7c-1.1,0.2-1.9,0.5-2.6,0.9
		c-0.7,0.4-1.4,1.1-1.4,2.1c0,1.1,0.6,1.7,1.2,2.1c-1.1,0-2.2,0.1-3.3,0.1c-11.2,0-18.1-2.4-22.3-5.3c-3.9-2.7-5.7-5.9-6.8-8.5
		c1.5-2.1,3.4-4,7.9-6.9c5-3.1,13.2-7.3,27.2-13.9l-1.3-2.7v0c-14,6.6-22.3,10.8-27.5,14.1c-5.2,3.3-7.5,5.7-9.3,8.5l-0.4,0.6
		l0.3,0.7c1.1,3,3.3,7.2,8.2,10.6c4.9,3.4,12.4,5.9,24,5.9C223.6,239.1,227.3,238.9,231.3,238.5z"/>
	<path style="fill:#F4F4F4;" d="M227.4,261.2c-3.3,0-7.1,1.1-24.2,8.4l1.2,2.8c0,0,0,0,0,0h0v0c17.1-7.3,20.7-8.2,23-8.1
		c0.6,0,1.1,0,1.8,0.1c3.1,0.1,12.2,3.6,17.6,7.2l1.7-2.5c-6-4-14.8-7.5-19.1-7.8C228.7,261.3,228.1,261.2,227.4,261.2z"/>
	<path style="fill:#F4F4F4;" d="M206.5,281c-0.9,0.1-1.6,0.2-2.1,0.2c-0.6,0-0.9-0.1-1-0.1c-0.1-0.1-0.2-0.1-0.5-0.9
		c-0.3-0.7-0.6-1.9-1.3-3.4l-2.8,1.2c0.8,1.8,1.1,3.1,1.7,4.3c0.3,0.6,0.9,1.2,1.6,1.5c0.7,0.3,1.5,0.4,2.3,0.4
		c0.7,0,1.5-0.1,2.5-0.2c3-0.4,8-1.5,13.3-1.5c4.9,0,9.8,0.9,13.6,4l1.9-2.3c-4.6-3.7-10.3-4.6-15.5-4.6
		C214.4,279.5,209.2,280.6,206.5,281z"/>
	<path style="fill:#F4F4F4;" d="M185.3,117.9c-5.5,0-9.9,4.4-9.9,9.9c0,5.5,4.4,9.9,9.9,9.9c5.5,0,9.9-4.4,9.9-9.9
		C195.1,122.3,190.7,117.9,185.3,117.9z M185.3,134.6c-3.8,0-6.9-3.1-6.9-6.9c0-3.8,3.1-6.9,6.9-6.9c3.8,0,6.9,3.1,6.9,6.9
		C192.1,131.6,189.1,134.6,185.3,134.6z"/>
	<path style="fill:#F4F4F4;" d="M283.1,128.4c-5.7,0-10.2,4.6-10.3,10.3c0,5.7,4.6,10.2,10.3,10.3c5.7,0,10.2-4.6,10.3-10.3
		C293.4,133,288.8,128.4,283.1,128.4z M283.1,145.9c-4,0-7.2-3.2-7.3-7.3c0-4,3.2-7.2,7.3-7.3c4,0,7.2,3.2,7.3,7.3
		C290.4,142.6,287.1,145.9,283.1,145.9z"/>
	<path style="fill:#F4F4F4;" d="M345.2,169.6c-0.7-2.7-1.8-5.1-3-7.3c-0.1-6.5-1-16.4-1-28.3h-0.4l0.3-0.3l0-0.6
		c0.3-7.4,0.3-8,0.3-8c2-0.6,3.5-1.6,4.5-3c1.5-2,1.7-4.5,1.7-6.5c0-1-0.1-1.9-0.1-2.7c-0.2-2.8-2-4.6-3.9-5.6
		c-1.4-0.8-2.9-1.2-4.2-1.4c0-1.3-0.1-3.2-0.3-5.2c-0.2-1.7-0.4-3.4-0.8-4.8c-0.2-0.7-0.5-1.3-0.9-1.9c-0.2-0.3-0.5-0.6-0.9-0.8
		c-8.9-29.8-30-57.6-81.4-85.8l-1.2-0.9l-0.7,1c-38.4,19.6-71.2,51.7-87.5,87.2c0,0,0,0-0.1,0l-2-1.1l-0.2,2.3c0,0-1.7,22-3.3,39.3
		l-0.1,1l0.9,0.5c0,0,0,0,0,0c-3.1,17.1-5.2,35.7-5.2,53.1c0,10.1,0.7,19.8,2.5,28.5c2.4,12,7.8,29.1,12.9,44.8
		c5.1,15.6,9.8,30,10.8,35.9l0.8-0.1c0.2,2,0.4,3.8,0.5,5.3c0.7,9.9,1.9,15.2,5.6,18.9c3.7,3.7,9,5.5,17.6,9.3
		c8.6,3.8,20.9,7,33.2,7c0,0,0,0,0,0c13.1,0,26.3-3.7,34-14.8c1.8-2.6,3.4-5.3,4.8-8l0.3,0.3c13.8-11.8,33-32.6,43.8-59.9l-2.8-1.1
		l0,0c-9.4,23.8-25.4,42.7-38.4,54.7c7.6-17.5,10.5-37.4,21.1-59.8c5.2-11.1,9.6-18.4,12.8-24.5c3.1-6.1,5.1-11.3,5.1-17.7
		c0-3.9-0.7-8.2-2.1-13.5c-6-22.4-11.2-36.2-11.3-43.7c0.2-0.1,0.4-0.1,0.6-0.2c13.2-5,24.6-10.7,30.7-15c0.1,8.6,0.5,16,0.8,21.7
		c-1.9-2.2-3.9-3.7-6.2-3.8c-0.9,0-1.9,0.3-2.5,1c-0.7,0.7-1.1,1.6-1.4,2.6c-1.4,5.6-5.7,16.1-5.7,47.3c0,4.8,0.1,10,0.3,15.8l3-0.1
		v0c-0.2-5.8-0.3-11-0.3-15.7c0-31,4.1-40.6,5.6-46.5c0.2-0.7,0.4-1,0.6-1.2c0.2-0.1,0.2-0.2,0.5-0.2c0.7-0.1,2.8,1.1,4.6,3.6
		c0.6,0.7,1.2,1.6,1.7,2.5c0,0.3,0,0.6,0,0.8h0.5c1,1.9,1.9,4.1,2.6,6.4c1.1,3.9,2,9,2,15c0,10.5-3,23.7-13.8,38l1.9,1.5
		c-6,15.5-16.2,24.4-20.4,31.3l2.6,1.5c4-6.9,16.7-17.6,22.5-37.3l-0.7-0.2c8.4-13,10.9-25,10.9-34.8
		C347.4,179,346.4,173.7,345.2,169.6z M344.7,113.1c0,0.8,0.1,1.6,0.1,2.5c0,1.8-0.3,3.6-1.1,4.8c-0.8,1.1-2.2,2.1-5.3,2.2
		c-0.6-0.3-1.1-1.2-1.5-2.4c-0.4-1.4-0.6-3.2-0.6-4.6c0-0.2,0-0.3,0-0.4c0-2.4,1.2-5.3,2.4-6.4c1.1,0.1,2.6,0.5,3.7,1.1
		C343.8,110.7,344.6,111.6,344.7,113.1z M333.7,93.7c-1.6,1.2-3.8,2.4-6.3,3.7c-10.2-33.8-24.7-52.1-52.6-74.8
		C310.5,46.1,326.3,69.2,333.7,93.7z M254.8,10.8c40.2,30.5,57.8,47.8,69.9,88c-6.8,3.1-15.8,6.4-25.9,9.1
		c-16.4,4.5-35.8,7.8-53.4,7.8c-4,0-8-0.2-11.8-0.5c-3.3-0.3-6.3-0.7-9.2-1C225.3,74.8,236.1,39.1,254.8,10.8z M250.1,12.6
		c-17.6,28.2-27.8,63-28.7,101.1c-26.4-3.7-38-9.5-52.9-17.6C183.8,62.7,214.2,32.2,250.1,12.6z M174.1,262.1
		c-5.1-15.7-10.5-32.7-12.8-44.4c-1.7-8.5-2.4-18-2.4-28c0-16.8,2.1-34.9,5-51.6c3.9,2,7.7,3.8,11.4,5.5c-3.3,6.4-4.9,11.2-6.1,15.5
		c-2.8,0.1-5.3,0.7-6.9,1.9c0.9,1.9,2.3,2.8,5.5,3.6c-0.8,3.3-1.5,6.7-2.8,10.6c-2.1,6.7-4.5,10.7-4.5,17.4c0,4.3,1,9.5,3.5,17.2
		c4.5,13.8,11.8,46.6,16.1,71.1C178.3,275.2,176.2,268.8,174.1,262.1z M315.3,195.7c1.4,5.1,2,9.2,2,12.7c0,5.9-1.7,10.4-4.7,16.4
		c-3.1,6-7.5,13.4-12.8,24.6c-13.8,29.3-14.8,53.6-28.5,73.5c-6.8,10-18.9,13.5-31.5,13.5c-11.7,0-23.8-3.1-32-6.7
		c-8.7-3.8-13.9-5.7-16.7-8.7c-2.8-2.9-4.1-7.3-4.7-17.1c-1.4-20-13-75.5-19.4-95c-2.5-7.5-3.4-12.5-3.4-16.3
		c0-5.8,2.1-9.4,4.4-16.4c1.4-4.2,2.1-7.6,2.9-11c0.4,0.1,0.8,0.1,1.2,0.2c5.5,0.9,13.2,4,21.5,10.5c-3.8-1.5-8.9-2.8-16.5-3.2
		l-0.2,3c1,0.1,2,0.1,2.9,0.2c0,3.9,0.2,8.1,1.4,11.8c1.2,4.1,3.9,7.7,8.7,9.1c2.1,0.6,4,0.9,5.8,0.9c0,0,0,0,0,0
		c6,0,10.1-2.5,13.6-2.5h1.6l-0.2-1.6c-0.2-2.2-0.9-4.2-2.1-6.1c5.2,3.1,9.7,4.9,12.2,5.2c-17-12.7-17.8-17.5-25-24.7
		s-11.7-10.2-15.3-11.5c3.7,2.8,4.2,6.3,4.2,6.3c-3.3-2-8-3.3-12.3-3.6c1.1-4,2.8-8.5,5.8-14.4c29.4,12.5,55.4,15.6,79.3,16.7
		c0.9,0,1.9,0.1,2.9,0.1c13.4,0,29.4-4,43.7-9.2C304.6,161,309.7,174.2,315.3,195.7z M182.7,179.5c-0.1-1.1-0.1-2.2-0.1-3.3
		c7.5,1,11.4,3,14.4,4.7c5.9,3.5,9.4,7.3,10.3,11.3c-4,0.5-7.5,2.4-11.9,2.3c-1.5,0-3.1-0.2-5-0.7c-1.7-0.5-2.9-1.3-4-2.3
		C190.3,185.3,187,180.7,182.7,179.5z M306.5,148.2c-15,5.7-32.4,10.3-46.2,10.3c-0.9,0-1.8,0-2.7-0.1c-28-1.3-58.4-5.2-94.1-24
		c1.3-13.8,2.6-30.1,3.1-36c17.3,9.4,30.8,16.2,66.9,19.7c3.9,0.4,7.9,0.6,12.1,0.6c17.9,0,37.5-3.4,54.2-7.9
		c15.9-4.4,29-9.7,35.8-14.5c0.2,0.4,0.4,1.1,0.5,1.9c0.4,1.8,0.5,4.1,0.6,6c0.1,1,0.1,1.9,0.1,2.5c-2.2,2-3.3,5.4-3.4,8.5
		c0,0.2,0,0.4,0,0.5c0,1.6,0.2,3.6,0.8,5.5c0.6,1.8,1.5,3.6,3.5,4.5l0.3,0.1l0.3,0c0.2,0,0.3,0,0.5,0c0,0.8-0.1,2.6-0.3,6.7
		C333.4,136.2,321,142.8,306.5,148.2z"/>
</g>
</svg>
