<?xml version="1.0" encoding="utf-8"?>
<!-- Generator: Adobe Illustrator 24.0.1, SVG Export Plug-In . SVG Version: 6.00 Build 0)  -->
<svg version="1.1" id="Layer_1" xmlns:svg="http://www.w3.org/2000/svg"
	 xmlns="http://www.w3.org/2000/svg" xmlns:xlink="http://www.w3.org/1999/xlink" x="0px" y="0px" viewBox="0 0 568.9 116.1"
	 style="enable-background:new 0 0 568.9 116.1;" xml:space="preserve">
<g>
	<path style="fill:#FFFFFF;stroke:#FFFFFF;stroke-width:2;" d="M96.8,37.6c-1.4-1.2-3.2-2.1-5.4-2.8c-2.3-0.6-5-0.9-8.2-0.9h-48
		v53.2h48c3.2,0,6-0.3,8.2-0.9c2.3-0.6,4.1-1.5,5.4-2.8c1.4-1.2,2.4-2.7,3-4.5c0.6-1.8,0.9-3.9,0.9-6.2V48.3c0-2.4-0.3-4.4-0.9-6.2
		C99.2,40.3,98.2,38.8,96.8,37.6z M90,72.2c0,1.5-0.5,2.6-1.6,3.3c-1.1,0.7-2.8,1.1-5.1,1.1H45.7V44.3h37.6c2.4,0,4.1,0.4,5.1,1.1
		c1.1,0.7,1.6,1.9,1.6,3.3V72.2z"/>
	<polygon style="fill:#FFFFFF;stroke:#FFFFFF;stroke-width:2;" points="120.4,61 165.4,61 165.4,51.3 120.4,51.3 120.4,44.3 
		175.4,44.3 175.4,33.9 110,33.9 110,87.1 175.5,87.1 175.5,76.6 120.4,76.6 	"/>
	<path style="fill:#FFFFFF;stroke:#FFFFFF;stroke-width:2;" d="M242.8,55.5c-1.4-1.2-3.2-2.1-5.4-2.8c-2.3-0.6-5-0.9-8.2-0.9h-31
		c-1.6,0-2.7-0.2-3.3-0.5c-0.6-0.4-0.9-1-0.9-1.8v-3.2c0-0.7,0.3-1.2,0.9-1.5c0.6-0.3,1.7-0.5,3.2-0.5h46.5V33.9h-46.2
		c-10.2,0-15.3,3.4-15.3,10.2v6.7c0,7.6,5.1,11.4,15.4,11.4h30.7c2.4,0,4.1,0.4,5.1,1.1c1.1,0.7,1.6,1.9,1.6,3.3v5.5
		c0,1.5-0.5,2.6-1.6,3.3c-1.1,0.7-2.8,1.1-5.1,1.1h-46.1v10.4h46c3.2,0,6-0.3,8.2-0.9c2.3-0.6,4.1-1.5,5.4-2.8
		c1.4-1.2,2.4-2.7,3-4.5c0.6-1.8,0.9-3.9,0.9-6.2v-6.3c0-2.4-0.3-4.4-0.9-6.2C245.2,58.2,244.2,56.7,242.8,55.5z"/>
	<polygon style="fill:#FFFFFF;stroke:#FFFFFF;stroke-width:2;" points="324.7,33.9 304.9,33.9 272.6,53.9 266.3,53.9 266.3,33.9 
		255.8,33.9 255.8,87.1 266.3,87.1 266.3,63.1 272.6,63.1 308,87.1 327.3,87.1 283.1,58.5 324.7,33.9 324.7,44.3 352.3,44.3 
		352.3,87.1 362.7,87.1 362.7,44.3 390.3,44.3 390.3,33.9 324.7,33.9 	"/>
	<path style="fill:#FFFFFF;stroke:#FFFFFF;stroke-width:2;" d="M456.2,37.6c-1.4-1.2-3.2-2.1-5.4-2.8c-2.3-0.6-5-0.9-8.2-0.9h-30.5
		c-3.3,0-6,0.3-8.2,0.9c-2.2,0.6-4,1.5-5.4,2.8c-1.4,1.2-2.4,2.7-3,4.5c-0.6,1.8-0.9,3.9-0.9,6.2v24.3c0,2.4,0.3,4.4,0.9,6.2
		c0.6,1.8,1.6,3.3,3,4.5c1.4,1.2,3.2,2.1,5.4,2.8c2.2,0.6,5,0.9,8.2,0.9h30.5c3.2,0,6-0.3,8.2-0.9c2.3-0.6,4.1-1.5,5.4-2.8
		c1.4-1.2,2.4-2.7,3-4.5c0.6-1.8,0.9-3.9,0.9-6.2V48.3c0-2.4-0.3-4.4-0.9-6.2C458.6,40.3,457.6,38.8,456.2,37.6z M449.4,72.2
		c0,1.5-0.5,2.6-1.6,3.3c-1.1,0.7-2.8,1.1-5.1,1.1h-30.6c-2.4,0-4.1-0.4-5.1-1.1c-1.1-0.7-1.6-1.9-1.6-3.3V48.8
		c0-1.5,0.5-2.6,1.6-3.3c1.1-0.7,2.8-1.1,5.1-1.1h30.6c2.4,0,4.1,0.4,5.1,1.1c1.1,0.7,1.6,1.9,1.6,3.3V72.2z"/>
	<path style="fill:#FFFFFF;stroke:#FFFFFF;stroke-width:2;" d="M534,42.1c-0.6-1.8-1.6-3.3-3-4.5s-3.2-2.1-5.4-2.8
		c-2.3-0.6-5-0.9-8.2-0.9h-48v53.2v0h10.4V69.7h37.6c3.2,0,6-0.3,8.2-0.9c2.3-0.6,4.1-1.5,5.4-2.8c1.4-1.2,2.4-2.7,3-4.5
		c0.6-1.8,0.9-3.9,0.9-6.2v-6.9C535,46,534.7,43.9,534,42.1z M524.2,55.5c0,1.5-0.5,2.6-1.6,3.3c-1.1,0.7-2.8,1.1-5.1,1.1h-37.7
		V44.3h37.7c2.4,0,4.1,0.4,5.1,1.1c1.1,0.7,1.6,1.9,1.6,3.3V55.5z"/>
</g>
</svg>
