<?xml version="1.0" encoding="utf-8"?>
<!-- Generator: Adobe Illustrator 24.0.1, SVG Export Plug-In . SVG Version: 6.00 Build 0)  -->
<svg version="1.1"
	 id="svg2" inkscape:version="0.91 r13725" sodipodi:docname="dragon32.svg" xmlns:cc="http://creativecommons.org/ns#" xmlns:dc="http://purl.org/dc/elements/1.1/" xmlns:inkscape="http://www.inkscape.org/namespaces/inkscape" xmlns:ns="http://ns.adobe.com/SaveForWeb/1.0/" xmlns:rdf="http://www.w3.org/1999/02/22-rdf-syntax-ns#" xmlns:sodipodi="http://sodipodi.sourceforge.net/DTD/sodipodi-0.dtd" xmlns:svg="http://www.w3.org/2000/svg"
	 xmlns="http://www.w3.org/2000/svg" xmlns:xlink="http://www.w3.org/1999/xlink" x="0px" y="0px" viewBox="0 0 559.2 132"
	 style="enable-background:new 0 0 559.2 132;" xml:space="preserve">
<sodipodi:namedview  bordercolor="#666666" borderopacity="1" fit-margin-bottom="0" fit-margin-left="0" fit-margin-right="0" fit-margin-top="0" gridtolerance="10" guidetolerance="10" id="namedview18" inkscape:current-layer="svg2" inkscape:cx="271.23988" inkscape:cy="27.671951" inkscape:pageopacity="0" inkscape:pageshadow="2" inkscape:window-height="988" inkscape:window-maximized="1" inkscape:window-width="1680" inkscape:window-x="-8" inkscape:window-y="-8" inkscape:zoom="2.5520865" objecttolerance="10" pagecolor="#ffffff" showgrid="false">
	</sodipodi:namedview>
<path id="path21" inkscape:connector-curvature="0" style="fill:#FFFFFF;stroke:#FFFFFF;" d="M159.9,45.1h22.1
	c14.6,0,19.8,10.8,19.8,21.8c0,13.4-7.1,22-22.4,22h-19.5L159.9,45.1L159.9,45.1z M173.4,77.7h5.3c8.4,0,9.6-6.8,9.6-10.9
	c0-2.8-0.9-10.4-10.6-10.4h-4.3L173.4,77.7L173.4,77.7z M206.4,45.1h25.7c7.7,0,14.3,4.2,14.3,12.5c0,4.5-2.1,9.3-6.6,11
	c3.7,1.4,5.9,5.5,6.4,10.9c0.2,2.1,0.2,7.4,1.5,9.4h-13.5c-0.7-2.2-0.9-4.5-1.1-6.7c-0.4-4.2-0.7-8.5-6.1-8.5h-7.2v15.3h-13.5
	L206.4,45.1L206.4,45.1L206.4,45.1z M219.9,64.2h7.1c2.5,0,6-0.4,6-4.4c0-2.8-1.5-4.4-6.7-4.4h-6.3V64.2L219.9,64.2z M266.5,45.1
	h13.2l15.9,43.8h-14l-1.8-6.3h-13.9l-2,6.3h-13.6L266.5,45.1L266.5,45.1L266.5,45.1z M277.1,73.2l-3.9-13.5h-0.1l-4.2,13.5H277.1z
	 M329.5,84.4c-3,3.9-7.7,5.5-12.5,5.5c-12.9,0-20.9-10.1-20.9-22.5c0-16.7,11.7-23.4,21.6-23.4c11.2,0,18.2,6.1,20.2,16.4H325
	c-0.5-3.2-3.2-5.5-6.4-5.5c-9.3,0-9,9.8-9,12.8c0,4.1,1.7,11.3,9.9,11.3c3.1,0,6.3-1.6,7-4.8h-5.9v-9.4h17.9v24.1h-8.5L329.5,84.4
	L329.5,84.4z M367.3,44c13.3,0,22.2,9.6,22.2,22.9s-8.9,22.9-22.2,22.9c-13.3,0-22.2-9.6-22.2-22.9C345.1,53.6,354,44,367.3,44z
	 M367.3,79c3.4,0,8.7-2.3,8.7-12c0-9.8-5.3-12-8.7-12c-3.4,0-8.7,2.3-8.7,12C358.6,76.7,363.8,79,367.3,79z M395.3,45.1h13.8
	l12.8,23.4h0.1V45.1h12.8v43.8h-13.1L408.1,65H408v23.9h-12.8L395.3,45.1L395.3,45.1z"/>
<path id="path23" inkscape:connector-curvature="0" style="fill:#FFFFFF;" d="M447.3,60.4c0.1-5,2.1-8.7,5.3-11.2
	c3.3-2.4,7.7-3.6,12.5-3.6c12.4,0,16.5,7.4,16.5,11c0,9-5.6,9-5.6,9.1v0.1c0,0.5,7,0.5,7,10c0,5.2-3.9,13.4-17.9,13.4
	c-19.2,0-19.3-13.5-19-16.7h11.7c-0.1,2.3,0.5,4,1.7,5.1c1.2,1.4,2.9,1.9,5.1,1.9c3.5,0,5.7-1.3,5.7-4.8c0-3.7-2.9-4.4-5.7-4.4
	c-1.8,0-2.6,0.2-3.6,0.3v-8.3c0.9,0.1,1.9,0.2,3.6,0.2c2.6,0,5.8-0.6,5.8-3.9c0-2.7-3.1-3.7-5.6-3.7c-3.3,0-6,1.8-5.9,5.3
	L447.3,60.4L447.3,60.4z M485.6,64.2c-0.7-11.7,6.6-18.5,18.1-18.5c10.4,0,17.4,4.4,17.4,13.4c0,10.9-10.7,14.4-18.7,19.3v0.1h19.3
	v10.4h-37c-0.2-4.1,1-7.7,3.1-10.6c3.6-5,9.7-8.2,15.2-11.5c2.2-1.3,5.8-3.1,5.8-6.2c0-3.9-2.3-5.2-5.2-5.2c-4.9,0-6.6,3.6-6.4,8.8
	H485.6L485.6,64.2L485.6,64.2z"/>
<path id="path25" inkscape:connector-curvature="0" style="fill:#FFFFFF;" d="M373.4,94.4h3.9c2.6,0,3.5,1.9,3.5,3.8
	c0,2.4-1.2,3.9-3.9,3.9h-3.4L373.4,94.4L373.4,94.4L373.4,94.4z M375.8,100.1h0.9c1.5,0,1.7-1.2,1.7-1.9c0-0.5-0.2-1.8-1.9-1.8h-0.8
	L375.8,100.1C375.8,100.1,375.8,100.1,375.8,100.1z M383.9,94.4h2.3l2.8,7.7h-2.5l-0.3-1.1h-2.4l-0.3,1.1h-2.4L383.9,94.4
	L383.9,94.4L383.9,94.4z M385.8,99.3l-0.7-2.4h0l-0.7,2.4L385.8,99.3L385.8,99.3z M390.7,96.3h-2.2v-2h6.7v2H393v5.7h-2.4
	L390.7,96.3L390.7,96.3L390.7,96.3z M397.4,94.4h2.3l2.8,7.7H400l-0.3-1.1h-2.4l-0.3,1.1h-2.4L397.4,94.4L397.4,94.4z M399.3,99.3
	l-0.7-2.4h0l-0.7,2.4L399.3,99.3L399.3,99.3z M412.7,94.4h2.4v5.7h3.4v2h-5.8L412.7,94.4L412.7,94.4L412.7,94.4z M419.9,96.3h-2.2
	v-2h6.7v2h-2.2v5.7h-2.4L419.9,96.3L419.9,96.3L419.9,96.3z M425.3,94.4h3.9c2.6,0,3.5,1.9,3.5,3.8c0,2.4-1.2,3.9-3.9,3.9h-3.4
	L425.3,94.4L425.3,94.4L425.3,94.4z M427.6,100.1h0.9c1.5,0,1.7-1.2,1.7-1.9c0-0.5-0.2-1.8-1.9-1.8h-0.8L427.6,100.1
	C427.6,100.1,427.6,100.1,427.6,100.1z M433.7,99.9h2.2v2.1h-2.2C433.7,102,433.7,99.9,433.7,99.9z"/>
<path id="path24" inkscape:connector-curvature="0" style="fill:#F5FFFF;" d="M76.1,68.7h-6.6l15.8-27.4c3.1-5.3,8.7-8.6,14.9-8.6
	h32.7l-3.3,5.8h-29.4c-4.1,0-7.9,2.2-9.9,5.7L76.1,68.7z M93.8,46.3c1.3-2.2,3.7-3.6,6.2-3.6H127l1.4-2.5h-28.4
	c-3.5,0-6.7,1.9-8.4,4.9L78,68.7h2.9L93.8,46.3z M96.4,56.9h22.5l3.9-6.7l1.2-2l2.1-3.7h-25.9c-2,0-3.8,1.1-4.8,2.8L82.9,68.7h6.6
	L96.4,56.9z M45.3,56.9C45.3,56.9,45.3,57,45.3,56.9c-0.1,0.2-0.3,0.8-1.1,2.2c-1.8,3-3.6,6.8-3.6,11.8c0,9.4,7.7,17.1,17.1,17.1
	H123l-6.8,11.7h6.6l5.3-9.2c0.5-0.8,0.8-1.8,0.8-2.8c0-3-2.5-5.5-5.5-5.5H57.7c-6.3,0-11.4-5.1-11.4-11.4c0-3.5,1.1-6,2.8-8.9
	c1.6-2.6,2-3.5,2-5.4c0-3-2.5-5.5-5.5-5.5H26.3l3.3,5.8L45.3,56.9L45.3,56.9z M123.4,78.1H57.7c-4,0-7.2-3.2-7.2-7.2
	c0-2.2,0.6-4,2.2-6.7c1.7-2.9,2.6-4.6,2.6-7.5c0-5.3-4.3-9.7-9.7-9.7H19.1l-0.9-1.6l-6.3,2.8l9.7,3.1l-1.1-1.9h25.1
	c4,0,7.2,3.2,7.2,7.2c0,2.2-0.5,3.4-2.2,6.3c-1.8,3.1-2.6,5.3-2.6,8c0,5.3,4.3,9.7,9.7,9.7h65.7c4,0,7.2,3.2,7.2,7.2
	c0,1.3-0.3,2.6-1,3.7l-4.8,8.3h2.9l4.1-7.1c0.9-1.5,1.4-3.2,1.4-4.9C133.1,82.4,128.8,78.1,123.4,78.1z M63.8,89.9h-6.6l-5.7,9.9
	h6.6L63.8,89.9z M63,99.7l5.7-9.9h-2.9l-5.7,9.9C60.1,99.7,63,99.7,63,99.7z M77.3,89.9h-6.6L65,99.7h6.6L77.3,89.9z M123.4,70.6H58
	c0-0.4,0.2-1.1,1.2-2.6c2-3.4,3.6-6.4,3.6-11.4c0-9.4-7.7-17.1-17.1-17.1h-0.5l-3.8,3.8l-3.8-3.8h-18l3.3,5.8h22.7
	c6.3,0,11.4,5.1,11.4,11.4c0,3.5-1.1,5.5-2.8,8.4c-1.5,2.4-2,4-2,5.9c0,3,2.5,5.5,5.5,5.5h65.7c6.3,0,11.4,5.1,11.4,11.4
	c0,2-0.5,4-1.6,5.8l-3.6,6.2h6.6l1.9-3.3c1.5-2.6,2.4-5.6,2.4-8.7C140.6,78.3,132.9,70.6,123.4,70.6z M47,38.7l-5.7-5.7l-5.7,5.7
	h2.6l3-3l3,3H47z"/>
</svg>
