<?xml version="1.0" encoding="utf-8"?>
<!-- Generator: Adobe Illustrator 24.0.1, SVG Export Plug-In . SVG Version: 6.00 Build 0)  -->
<svg version="1.1"
	 id="Layer_3" xmlns:cc="http://creativecommons.org/ns#" xmlns:dc="http://purl.org/dc/elements/1.1/" xmlns:rdf="http://www.w3.org/1999/02/22-rdf-syntax-ns#"
	 xmlns="http://www.w3.org/2000/svg" xmlns:xlink="http://www.w3.org/1999/xlink" x="0px" y="0px" viewBox="0 0 507.2 350.3"
	 style="enable-background:new 0 0 507.2 350.3;" xml:space="preserve">
<g>
	<path style="fill:#FFFFFF;" d="M274.4,156.4l-41.6,0V198h41.6V156.4z M270.4,160.4V194h-33.6v-33.6L270.4,160.4z"/>
	<path style="fill:#FFFFFF;" d="M267.9,162.9h-28.7v28.7h28.7V162.9z M243.3,187.5v-20.7h20.7v20.7H243.3z"/>
	<path style="fill:#FFFFFF;" d="M325,148.8L325,6H182.2v142.9h19.5c1.6,0.1,1.7,0.5,1.8,1.2l8.6,190.5c0,1.9,1.4,3.8,3.6,3.8h75.7
		c0.1,0,0.2,0,0.2,0l0.1,0c1.1,0,2.2-0.6,2.8-1.5c0.5-0.7,0.6-1.5,0.7-2.2l8.6-190.5c0.1-0.7,0.2-1.2,1.8-1.3H325z M217.5,296.3
		h72.2l-2,40.7c-0.1,0-0.3,0-0.4,0h-67.4c-0.2,0-0.3,0-0.4,0L217.5,296.3z M216.6,340.2c0,0,0.1,0.1,0.1,0.1H216l0-0.8
		C216.2,339.7,216.4,340,216.6,340.2z M219.8,340.3L219.8,340.3L219.8,340.3L219.8,340.3z M291.1,340.3h-0.7c0.1,0,0.1-0.1,0.2-0.1
		c0.2-0.2,0.4-0.4,0.5-0.6L291.1,340.3z M299.7,149.8l-6.2,139h-79.7l-6.2-138.9c0-0.4-0.1-0.7-0.1-1h92.5
		C299.8,149.1,299.7,149.5,299.7,149.8z M201.1,144.8l-0.4-0.4v0.4h-14.5l0-134.8H321l0,134.8H201.1z"/>
	<path style="fill:#FFFFFF;" d="M299.6,26.1h-92.1c-2.9,0-5.3,2.4-5.3,5.3v92.1c0,2.9,2.4,5.3,5.3,5.3l92.1,0c2.9,0,5.3-2.4,5.3-5.3
		V31.3C304.9,28.4,302.5,26.1,299.6,26.1z M206.3,123.4V31.3c0-0.7,0.6-1.3,1.3-1.3h92.1c0.7,0,1.3,0.6,1.3,1.3v92.1
		c0,0.7-0.6,1.3-1.3,1.3h-92.1C206.8,124.7,206.3,124.1,206.3,123.4z"/>
	<path style="fill:#FFFFFF;" d="M226.2,62.2v0.2l-0.1,0.1c-2.5,4.5-3.7,9.7-3.7,14.8c0,5.2,1.3,10.4,3.8,14.9v0.2l-6.6,6.6l-8.7-9.3
		v29.7h29.7l-9.4-8.8l5.9-5.9h1.7c4.5,2.5,9.7,3.8,14.8,3.8c0,0,0,0,0,0c5.2,0,10.3-1.3,14.8-3.8h1.7l5.9,5.9l-9.4,8.8h29.7l0-29.7
		l-8.7,9.3l-6.7-6.7c2.5-4.6,3.9-9.8,3.9-15.1c0-5.3-1.4-10.5-3.9-15.1l6.7-6.7l8.7,9.3V35.2l-29.7,0L276,44l-6.1,6.1l-1,0
		c-4.7-2.6-9.9-4-15.3-4c-5.4,0-10.6,1.4-15.3,4l-1,0l-6.1-6.1l9.4-8.8h-29.7v29.7l8.7-9.3L226.2,62.2z M214.9,54.8V39.2l15.6,0
		l-5,4.7l6.2,6.2c-3,0.1-5.5,2.5-5.5,5.6v0.8l-6.7-6.7L214.9,54.8z M214.9,115.5V99.9l4.6,4.9l6.7-6.7v1.1c0,3,2.3,5.4,5.2,5.6l-6,6
		l5,4.7H214.9z M271.5,54.2L271.5,54.2l3.8-0.1c0.9,0,1.6,0.7,1.6,1.6v6.8l-0.3,0.2l0.3,0.5v28.3c0,0,0,0,0,0.1l-0.5,0.9l0.6,0.3
		v6.5c0,0.7-0.4,1.3-1,1.5l-0.2-0.2l-0.2,0.2c0,0-0.1,0-0.1,0h-3.5l-0.3-0.3l-0.3,0.3h-2.4l-0.4-0.6l-0.9,0.5
		c-0.1,0-0.1,0.1-0.2,0.1h-27.7l-0.5-0.3l-0.1,0.3H236l-0.3-0.3l-0.3,0.3h-3.6c-0.9,0-1.6-0.7-1.6-1.6l0-6.7l0.6-0.3l-0.5-0.9
		c0,0,0-0.1-0.1-0.1l0-35.6c0-0.9,0.7-1.5,1.6-1.5h3.9l0.1,0.1l0.1-0.1h2.8l0.2,0.3l0.6-0.3h28.5l0.3,0.2l0.1-0.2L271.5,54.2
		L271.5,54.2z M275.3,103.9l0,0.5l0,0V103.9z M280.9,99.3l0-1.2l6.8,6.8l4.6-4.9l0,15.6h-15.6l5-4.7l-6-6
		C278.6,104.6,280.9,102.2,280.9,99.3z M292.3,39.2v15.6l-4.6-4.9l-6.8,6.8l0-1c0-3-2.4-5.4-5.3-5.6l6.2-6.2l-5-4.7H292.3z
		 M253.4,50.1c0.1,0,0.1,0,0.2,0c0.1,0,0.1,0,0.2,0H253.4z"/>
	<path style="fill:#FFFFFF;" d="M238.8,57.3c-2.9,0-5.3,2.4-5.3,5.3v29.6c0,2.9,2.4,5.3,5.3,5.3l29.6,0c2.9,0,5.3-2.4,5.3-5.3
		l0-29.6c0-2.9-2.4-5.3-5.3-5.3L238.8,57.3z M269.7,62.6l0,29.6c0,0.7-0.6,1.3-1.3,1.3h-29.6c-0.7,0-1.3-0.6-1.3-1.3V62.6
		c0-0.7,0.6-1.3,1.3-1.3h29.6C269.1,61.3,269.7,61.9,269.7,62.6z"/>
	<path style="fill:#FFFFFF;" d="M253.6,64.6c-5,0-9.4,2.9-11.5,7.1l-0.2-0.5L242,72c-0.8,1.6-1.2,3.4-1.2,5.3c0,0.1,0,0.2,0,0.2
		c0.1,7,5.8,12.7,12.8,12.7c7.1,0,12.8-5.8,12.8-12.8C266.4,70.3,260.7,64.6,253.6,64.6z M262.4,77.4c0,4.9-4,8.8-8.8,8.8
		c-4.9,0-8.8-4-8.8-8.8c0-4.9,4-8.8,8.8-8.8C258.4,68.6,262.4,72.5,262.4,77.4z"/>
</g>
</svg>
