<?xml version="1.0" encoding="utf-8"?>
<!-- Generator: Adobe Illustrator 24.0.1, SVG Export Plug-In . SVG Version: 6.00 Build 0)  -->
<svg version="1.1"
	 id="Layer_1" inkscape:version="0.91 r13725" sodipodi:docname="dreamcast1.svg" xmlns:cc="http://creativecommons.org/ns#" xmlns:dc="http://purl.org/dc/elements/1.1/" xmlns:inkscape="http://www.inkscape.org/namespaces/inkscape" xmlns:rdf="http://www.w3.org/1999/02/22-rdf-syntax-ns#" xmlns:sodipodi="http://sodipodi.sourceforge.net/DTD/sodipodi-0.dtd" xmlns:svg="http://www.w3.org/2000/svg"
	 xmlns="http://www.w3.org/2000/svg" xmlns:xlink="http://www.w3.org/1999/xlink" x="0px" y="0px" viewBox="0 0 566.9 128"
	 style="enable-background:new 0 0 566.9 128;" xml:space="preserve">
<sodipodi:namedview  bordercolor="#666666" borderopacity="1" gridtolerance="10" guidetolerance="10" id="namedview29" inkscape:current-layer="g3" inkscape:cx="340.6061" inkscape:cy="56.452645" inkscape:pageopacity="0" inkscape:pageshadow="2" inkscape:window-height="480" inkscape:window-width="640" inkscape:zoom="1.0159985" objecttolerance="10" pagecolor="#ffffff" showgrid="false">
	</sodipodi:namedview>
<g id="g3">
	<g id="g5">
		<polygon id="polygon7" style="fill:#FFFFFF;" points="556.4,92.9 554.1,92.9 554.1,92.1 559.5,92.1 559.5,92.9 557.3,92.9 
			557.3,99.1 556.4,99.1 		"/>
		<polygon id="polygon9" style="fill:#FFFFFF;" points="563.2,99.1 561.3,93.4 561.3,99.1 560.4,99.1 560.4,92.1 561.7,92.1 
			563.7,98 565.7,92.1 566.9,92.1 566.9,99.1 566,99.1 566,93.4 564.1,99.1 		"/>
		<path id="path11" style="fill:#FFFFFF;" d="M122.8,33.3c0-2.4-0.5-5.5-1.5-6.8c7,0,22,0,28.5,0c14.9,0,37.3,8.2,37.3,36.1
			c0,20.6-15.8,36-37.3,36c-4.7,0-22.7-0.1-29-0.1c1.3-2.4,2.1-5.7,2.1-8.3L122.8,33.3L122.8,33.3z M133.5,91.5
			c6.9,0.9,13.2,1.2,18.9,0.3c5.5-0.8,24.2-4.8,24-29.5c-0.1-23.4-14.6-28.8-25.7-29.4c-5.8-0.3-11.4-0.1-17.2,0.9L133.5,91.5
			L133.5,91.5z"/>
		<path id="path13" style="fill:#FFFFFF;" d="M193.2,48.6l10.7-1.7c0,2.2,0,8.6,0,9.4c2.7-6.8,11.3-12.2,23.4-7.5l-2.8,7.4
			c-11.1-5.3-20.5-0.6-20.5,11.7v25.4c0,1.2,0.3,3.6,1,5.2h-11.1c1.1-1.4,1.6-4,1.6-5.2V56.7C195.4,54.1,194.9,50,193.2,48.6
			L193.2,48.6z"/>
		<path id="path15" style="fill:#FFFFFF;" d="M530.7,53.7c0,0.7,0,30.2,0,32.4c0,10.2,7,12.9,12.2,12.9c2.2,0.1,5.3-0.4,7.5-0.9
			l1.3-6.3c-2.5,1-5.5,1.2-7.3,1.2c-3.3,0-5.6-2.2-5.6-5.5c0-3-0.1-32.8,0-33.8h0c0.4,0,7.2,0,7.9,0c2.2,0.1,3.9,0.2,5.4,0.8l0-5.9
			c0,0-13,0-13.2,0l0.1-15.2l-9.8,2.7c1.4,1.3,1.8,5,1.8,7.4c0,0,0,4.5,0,5.1c-0.4,0-5.4,0-6.3,0v5
			C525.5,53.7,530.7,53.7,530.7,53.7L530.7,53.7z"/>
		<path id="path17" style="fill:#FFFFFF;" d="M488.2,88c4.2,3,10.9,5.7,15.7,5.7c6.8,0,11.6-3.3,11.6-9.5c0-11.4-26-9.5-26-24
			c0-9.8,8.8-13.5,17.1-13.5c2.7,0,8.8,0.6,12.7,2.1l0,6.7c-3.5-3-8.7-3.7-12.2-3.7c-5.5,0-9.7,2.7-9.7,8.1c0,7.9,26,7.4,26,23.6
			c0,10.5-9.1,15.4-19.1,15.4c-4.9,0-9.9-0.9-14.2-2.1L488.2,88L488.2,88z"/>
		<path id="path19" style="fill:#FFFFFF;" d="M331.1,53.8c0-0.6,0-5.9,0-6.6l-10.8,1.7c1.3,1.4,2.3,5.6,2.3,8.7V93
			c0,1.2-0.5,4.1-1.6,5.5h11.8c-1.1-1.4-1.6-4.3-1.6-5.5V66.4c0-9.8,6-13.2,12-13.2c5.4,0,10.3,2.4,10.3,13.2V93
			c0,1.2-0.5,4.1-1.6,5.5h11.4c-1.1-1.4-1.6-4.3-1.6-5.5V66.4c0-10.8,6.7-13.2,12.1-13.2c5.4,0,11.1,3.4,11.1,13.2V93
			c0,1.2-0.5,4.1-1.6,5.5h11c-1.1-1.4-1.6-4.3-1.6-5.5V61.3c0-5.4-5.5-14.1-18.4-14.1c-7.5,0-11.8,3.3-15.1,6.2
			c-2.8-3.3-7.3-6.3-14.6-6.3C337.4,47.1,333.2,51.3,331.1,53.8L331.1,53.8z"/>
		<path id="path21" style="fill:#FFFFFF;" d="M305.6,70.5c-1.5,1.5-4.8,2.6-8.1,3c-8.8,1.1-16.4,2.6-16.4,11.1c0,5.1,5.5,9,9.9,9
			c11.6,0,14.6-8.4,14.6-14.9L305.6,70.5L305.6,70.5L305.6,70.5z M278.3,49.6c4.4-1.8,11.5-2.6,16-2.6c11.4,0,19,5.7,19,18.9v22
			c0,4.1,0.1,7.9,1.5,10.6h-9.2l-0.3-5.8c-3.5,4.5-7.6,6.5-14.7,6.5c-13.9,0-16.9-9.5-16.9-14.1c0-16.3,15.5-16.5,22.2-17.4
			c3.7-0.5,8.5-1.6,9.2-5.1c1.2-5.8-2.9-10.1-11.4-10.1c-6.2,0-11.3,1.9-15.5,4.4L278.3,49.6L278.3,49.6z M475.6,70.5
			c-1.5,1.5-4.8,2.6-8.1,3c-8.8,1.1-16.3,2.6-16.3,11.1c0,5.1,5.5,9,9.9,9c11.6,0,14.6-8.4,14.6-14.9V70.5L475.6,70.5z M448.2,49.6
			c4.4-1.8,11.6-2.6,16-2.6c11.4,0,19,5.7,19,18.9v22c0,4.1-0.9,7.8,1.5,10.6h-9.2l-0.3-5.8c-3.5,4.5-7.6,6.5-14.7,6.5
			c-13.9,0-16.9-9.5-16.9-14.1c0-16.3,15.5-16.5,22.2-17.4c3.7-0.5,8.5-1.6,9.2-5.1c1.2-5.8-2.9-10.1-11.4-10.1
			c-6.2,0-11.3,1.9-15.5,4.4L448.2,49.6L448.2,49.6L448.2,49.6z"/>
		<path id="path23" style="fill:#FFFFFF;" d="M438.5,56.3c-3.4-2-8.9-3.6-12.7-3.6c-13.3,0-19.4,8.2-19.4,20c0,11.7,6,20.6,19,20.6
			c4.5,0,10.5-2,15.3-4.9l-1.9,8.6c-4.8,1.4-8.8,2.1-14.2,2.1c-18.3,0-26.9-13-26.9-26.5c0-14.9,11.5-25.4,27.1-25.4
			c6.8,0,11.8,1.7,13.8,2.2L438.5,56.3L438.5,56.3z"/>
		<path id="path25" style="fill:#FFFFFF;" d="M233.6,73.3c0-1.2,0.2-2.4,0.3-3.5h35.4c0-12.2-6.1-22.6-20.5-22.6
			c-15,0-23.9,11.7-23.9,26.6c0,13.5,9.9,25.6,26.8,25.6c5.4,0,9.8-1.3,14.7-3l1.7-8.6c-4.1,3.4-10.8,5.4-16.8,5.4
			C240.5,93.1,233.6,85.3,233.6,73.3L233.6,73.3z M235.1,64.4c1.1-5.9,6.6-12,13.2-12c10,0,12.9,7.8,12.9,12
			C261.2,64.4,235.1,64.4,235.1,64.4L235.1,64.4z"/>
	</g>
	<path id="path27" style="fill:#FFFFFF;" d="M65.1,15.3c4,0.6,8,2,10.1,2.6c4.3,1.3,11.2,5.4,13.6,7.3c1.2,0.9,3.6,3.3,4.5,4.5
		c0.9,1.2,2.7,3.7,3.8,5.3c1.8,2.6,3.9,6.5,5.6,10c2,4,2.1,5.1,2.7,8.5l1.3,5.9c0.1,1,0.2,4.7-2,5.3c-2.2,0.5-4.2-0.5-5.2-2
		c-1.3-2-1.1-4.9-2.6-8.2c-1.2-2.7-1.7-6.6-3.5-9.4l-1.5-2.5c-2.6-4-5.3-7.1-6.9-9.2c-1.4-1.7-4-4.1-6.5-5.7c-2.3-1.4-6-3-8.7-3.8
		c-0.9-0.3-4.5-1.4-6.8-1.7c-3.1-0.3-5.1-0.8-8.1-1c-3.6-0.3-5.4-0.6-10.1,0c-1.8,0.5-4.6,0.7-7.1,1.6c-2.1,0.8-4.9,2.2-7.7,3.8
		c-3,1.7-7.6,5-10.6,7.9c-3.1,3.3-4.6,5-6.7,9.1c-0.9,2-2.7,5.2-3.5,7.4C9,53.5,8,57.7,8.2,59.8c0.1,3.7-0.3,4.4,0,7.5
		c0,2.7,0.9,4.6,1.3,6.8c0.3,1.5,1.8,6.8,2.7,8.1C16.3,91,21.8,94.8,28,97.6c1.7,0.9,7.2,2.3,8.8,2.8c2.7,0.5,6.2,0.8,9.6,0.9
		c3.6,0.1,8.5-0.4,11.5-1.5c3.2-1.2,7-2.9,7-2.8c1.5-0.8,3.8-2.2,4.5-2.8c1.4-0.9,2.2-1.2,3-2.1c1.2-1,1.9-1.6,2.8-2.9
		c0.5-0.7,1.3-1.8,2.1-2.8c0.8-1.4,1.3-2.8,2.1-4.6c1-2.6,0.8-2.5,1-5.3c0.2-0.8,0-3.5-0.2-4c-0.4-2.5-0.3-4.7-0.9-7.1
		c-0.8-3.3-1.4-5.7-2.4-8.9c-0.9-3.5-3.7-6.8-5.7-9.2c-1.3-1.5-5.2-4.9-10.7-7c-1.5-0.5-4-1.1-5.6-1.4c-3.4-0.4-4-0.1-7.2,0.1
		c-1.1,0.2-3.7,0.7-4.7,1.1c-2.8,1-3.8,1.6-6.7,3.4C35,44.1,34,44.7,32.7,46c-1.1,1-1.9,2.7-2.7,3.7c-1.2,1.6-2.6,3.8-3.5,6.2
		c-1,2.4-1.3,5.7-1.1,7.8c0,1.6,0.4,4.6,0.6,5.2c0.2,0.7,0.6,2.7,0.7,3.1c0.1,0.4,1.1,2.5,1.3,2.9c0.6,1.3,1.7,3.1,3.6,4.9
		c1.4,1.5,4.1,3.1,6.2,3.6c1.8,1,4.9,1.2,6.6,1.2c0.8-0.1,3-0.2,4.1-0.5c2.3-0.5,2.7-0.6,5-1.6c2.1-1,3.5-1.3,5-2.4
		c0,0,2-1.6,2.9-2.7c0.5-0.6,1.3-3.5,1.2-5.3c-0.1-2.5,0.3-3.8-0.2-5.9c-0.5-2-1.4-4.4-2.3-5.8c-0.9-1.5-3-2.9-5.3-4
		c-1.3-0.6-4.3-1.2-5.6-1.4c-2.5-0.3-4.5,0.8-5.8,2.1c-1.1,1.2-3.2,3.8-2.4,6.5c0.8,2.4,1.7,5,5.3,4.8c2.5,0.5,5.3-0.2,6.3,0.2
		c1.4,0.8,2,2.6,1.4,3.8c-0.4,2.4-2.6,2.7-5.1,2.9c-2.2,0.4-7.7-0.7-8.9-1.6c-0.8-0.5-2.1-1.6-2.9-2.4c-0.6-0.6-1.3-1.8-1.8-2.7
		c-0.6-1.1-0.9-1.9-1.1-2.7c-0.2-0.9-0.6-2.5-0.4-4.2c0.1-1.1,0.4-1.6,0.7-3.2c0.6-1.8,1.3-3.2,2.5-4.8c1.5-1.6,3.5-3.4,5.4-4.3
		c1.7-0.9,4.6-1.2,7.3-1.1c2.2,0.2,4.7,0.5,6.4,1c2.9,1,3.7,1.2,6.1,2.7c2,1.2,4,3.5,5.1,5.4c2.4,4.9,3.8,10.3,2.8,17.7
		c-0.1,1.2-0.5,2.4-1.2,4.1c-0.7,1.5-2,3.3-3.8,4.7c-0.8,0.7-1.9,1.6-2.9,2.1c-1.4,0.8-2.3,1.3-3.7,2c-1.3,0.6-2.7,1.3-4.6,1.8
		c-2.1,0.8-3.7,0.9-6.3,1.2c-2.6,0.6-9.6,0.2-13.8-1.7c-2.9-1.2-6.1-3.3-8.5-5.9c-1.4-1.4-2.7-4-3.1-4.5c-1.9-3.7-2.3-7.2-2.6-8
		c-0.4-1-0.6-3.2-0.9-4.8c-0.3-1.7-0.1-8.9,1.6-13.6c1-1.8,1.6-3.5,2.2-4.4c1.2-1.7,1.8-2.8,2.8-4c1.5-1.9,2.6-3.4,4.1-4.4
		c3.8-3.1,7-4.7,11.2-6.7c5.3-2.2,6.9-1.7,12-1.6c2.3,0,5.6,0.7,7.2,1c3,0.4,4.7,1.1,6.8,1.7c2.2,0.6,3.4,1.6,5.2,2.7
		c1.5,0.9,3.2,2.3,4.3,3.3c2.9,2.1,4.3,4.4,6.1,7.2c0.3,0.5,2.5,5,2.8,6.3c0.2,0.6,0.6,2.4,0.9,3.5c0.4,1.7,0.6,3.2,1,5.1
		c0.4,2,1.1,5.7,1.4,9.1c0.5,3-0.3,9-0.8,10.9c-1,3.5-2.8,7.7-6.4,11.8c-1.5,1.8-3.1,3.2-5,4.7c-1.4,1.2-2.7,1.9-4.9,3.2
		c-3,1.8-5.3,2.9-9.5,4.6c-1.7,0.5-3.9,1.3-6.2,1.8c-4.5,0.4-9.1,0.8-14.2,0.2c-5-0.6-10.1-2-13.1-2.9c-1.6-0.6-4.8-2-6.2-2.7
		c-0.9-0.4-3.8-2.4-4.3-2.9c-2-1.2-6.5-5.4-9.4-9.4c-0.6-1.2-2.9-4.9-3.4-6.4c-1.3-2.7-2.2-6-2.8-7.4c-0.6-3.3-1.5-5.3-1.9-8.6
		c0-0.8-0.2-2.6-0.3-3.6c0.3-2.2-0.1-4.3,0.4-6.8c0.4-2.1,0.9-2.9,1-4.8c0.1-0.8,1.1-3.2,1.4-4.2c0.8-1.8,1-3.2,2.1-5.1
		c1.5-3,3.2-6.6,5.7-9.6c0.7-1,2.7-3.2,3.4-4c1.6-1.6,2.6-1.9,4.4-3.5c0.2-0.1,1.4-1.5,2.7-2c2.1-1.6,3.9-2.2,5.9-3.7
		c4-2,5.5-2.7,9.5-4.4c2.3-0.8,5.5-1.3,6.7-1.7c2.2-0.1,4.5-0.8,6.8-0.7c2.6,0,5.2,0.2,7.9,0.4C59.6,14.5,61.9,14.6,65.1,15.3
		L65.1,15.3z"/>
</g>
</svg>
