<?xml version="1.0" encoding="utf-8"?>
<!-- Generator: Adobe Illustrator 24.0.1, SVG Export Plug-In . SVG Version: 6.00 Build 0)  -->
<svg version="1.1"
	 id="Layer_3" xmlns:cc="http://creativecommons.org/ns#" xmlns:dc="http://purl.org/dc/elements/1.1/" xmlns:rdf="http://www.w3.org/1999/02/22-rdf-syntax-ns#"
	 xmlns="http://www.w3.org/2000/svg" xmlns:xlink="http://www.w3.org/1999/xlink" x="0px" y="0px" viewBox="0 0 491 366.3"
	 style="enable-background:new 0 0 491 366.3;" xml:space="preserve">
<g>
	<path style="fill:#F4F4F4;" d="M371.2,135.8c0,9.5-0.9,17.6-2.9,26.4l-0.1,0.3l2.7,2.1l0.2-0.8c2.1-9.1,3.1-18.5,3.1-28
		c0-1,0-1.9,0-2.9l0-0.8l-2.6,1.4h-0.4l0,0.5c0,0.5,0,0.7,0,0.9C371.2,135.1,371.2,135.4,371.2,135.8z"/>
	<path style="fill:#F4F4F4;" d="M127.8,161.5l-0.1-0.4l-3-0.1l0.1,0.6c1.4,6.7,3.4,13.3,5.8,19.7l0.4,1l1.9-3.1l-0.1-0.2
		C130.3,172.6,129.1,167.9,127.8,161.5z"/>
	<path style="fill:#F4F4F4;" d="M215.4,144.5h65.7c3.1,0,5.7-2.5,5.7-5.7V80.2c0-3.1-2.5-5.7-5.7-5.7h-65.7c-3.1,0-5.7,2.5-5.7,5.7
		v58.6C209.7,141.9,212.2,144.5,215.4,144.5z M215.4,77.6h65.7c1.4,0,2.6,1.2,2.6,2.6v58.6c0,1.4-1.2,2.6-2.6,2.6h-65.7
		c-1.4,0-2.6-1.2-2.6-2.6V80.2C212.8,78.7,213.9,77.6,215.4,77.6z"/>
	<path style="fill:#F4F4F4;" d="M221.8,67.2c-4.3,1-7.4,2-9.3,2.7c-2.5,0.9-4,1.5-4.8,2.2c-1.9,1.9-2.9,4.4-2.9,7v60.3
		c0,2.6,1,5.1,2.9,7c0.9,0.7,2.3,1.3,4.9,2.2l0,0c8.1,2.8,22.2,6,35.2,6c8.8,0,18.2-1.5,24.6-2.8c4.4-0.9,7.6-1.7,9.5-2.2
		c2.9-0.8,4.4-1.3,5.2-1.8c2.9-1.8,4.6-4.9,4.6-8.3V79.1c0-3.4-1.7-6.5-4.6-8.3c-0.8-0.5-2.3-1-5.2-1.8c-6.8-1.9-21.6-5.1-34.1-5.1
		C237.9,63.9,228.2,65.7,221.8,67.2z M209.8,74.3c0.3-0.2,1.7-0.8,3.7-1.5c6.4-2.2,20.7-5.9,34.2-5.9c0,0,0,0,0,0
		c9,0,18.8,1.7,23.9,2.8c3.4,0.7,6.7,1.5,9.3,2.2c2.6,0.7,4.2,1.3,4.4,1.5c2,1.2,3.1,3.4,3.1,5.7v60.3c0,2.3-1.2,4.5-3.2,5.7
		c-0.2,0.2-1.9,0.8-4.4,1.5c-8.6,2.4-22.6,5-33.3,5c0,0,0,0,0,0c-10.1,0-20.1-2.1-25.2-3.3c-3.2-0.8-6.4-1.7-9-2.6
		c-2.1-0.7-3.6-1.4-3.8-1.5c-1.2-1.2-1.9-2.9-1.9-4.7V79.1C207.8,77.3,208.5,75.6,209.8,74.3z"/>
	<path style="fill:#F4F4F4;" d="M360.9,136.1c7.9,0,14.3-6.4,14.3-14.3c0-7.9-6.4-14.3-14.3-14.3c-7.9,0-14.3,6.4-14.3,14.3
		C346.6,129.6,353,136.1,360.9,136.1z M349.6,121.7c0-6.2,5.1-11.3,11.3-11.3c6.2,0,11.3,5.1,11.3,11.3c0,6.2-5.1,11.3-11.3,11.3
		C354.7,133,349.6,127.9,349.6,121.7z"/>
	<path style="fill:#F4F4F4;" d="M375.2,177.8c0-7.9-6.4-14.3-14.3-14.3c-7.9,0-14.3,6.4-14.3,14.3c0,7.9,6.4,14.3,14.3,14.3
		C368.8,192.2,375.2,185.8,375.2,177.8z M372.2,177.8c0,6.2-5.1,11.3-11.3,11.3c-6.2,0-11.3-5.1-11.3-11.3c0-6.2,5.1-11.3,11.3-11.3
		C367.1,166.6,372.2,171.6,372.2,177.8z"/>
	<path style="fill:#F4F4F4;" d="M331.4,134.8c-7.9,0-14.3,6.4-14.3,14.3c0,7.9,6.4,14.3,14.3,14.3c7.9,0,14.3-6.4,14.3-14.3
		C345.8,141.2,339.3,134.8,331.4,134.8z M342.7,149.1c0,6.2-5.1,11.3-11.3,11.3c-6.2,0-11.3-5.1-11.3-11.3c0-6.2,5.1-11.3,11.3-11.3
		C337.6,137.9,342.7,142.9,342.7,149.1z"/>
	<path style="fill:#F4F4F4;" d="M388.3,163.5c7.9,0,14.3-6.4,14.3-14.3c0-7.9-6.4-14.3-14.3-14.3c-7.9,0-14.3,6.4-14.3,14.3
		S380.4,163.5,388.3,163.5z M377,149.1c0-6.2,5.1-11.3,11.3-11.3c6.2,0,11.3,5.1,11.3,11.3c0,6.2-5.1,11.3-11.3,11.3
		C382.1,160.4,377.1,155.3,377,149.1z"/>
	<path style="fill:#F4F4F4;" d="M407.5,96.7c-3.7-12-7.4-19-8.4-20.5c-0.7-1.3-1.8-2.3-3.2-2.9c-0.7-0.3-2.6-1-5.9-2
		c-11.2-3.5-28.3-8.1-39.7-9.4C326.6,29.3,288.5,9.8,248.2,9.8c-40.3,0-78.4,19.5-102.1,52.1c-8.7,1-20,3.8-27.8,5.9
		c-4,1.1-8.2,2.3-11.8,3.5c-3.2,1-5.2,1.7-5.9,2c-1.3,0.6-2.5,1.6-3.1,2.8c-1,1.5-4.8,8.6-8.5,20.6c-3.2,10.4-6.9,27-6.9,47.6
		c0,64.6,12.7,117.4,16.9,134.7l0.6,2.4c4.3,18.2,16.5,45.9,31.2,63.6c1.4,1.6,4,4.6,7.4,4.7c1.5,0,2.9-0.7,4-1.9
		c1.1-1.3,2.1-3.1,2.9-5.7c1.2-4,2.7-9.7,4.4-16.3c1.8-7.1,3.9-15.1,6.2-22.9c25.7-9.1,58.7-14.1,92.7-14.1c34.1,0,67,5,92.8,14.1
		c2.3,7.8,4.4,15.8,6.2,22.9c1.7,6.6,3.2,12.2,4.4,16.2c0.8,2.6,1.7,4.4,2.9,5.7c1.1,1.2,2.5,1.9,4,1.9c0,0,0,0,0,0
		c3.4-0.1,5.9-3.1,7.3-4.7c14.7-17.6,26.8-45.3,31.2-63.6l0.6-2.4c4.2-17.4,16.9-70.2,16.9-134.7
		C414.4,123.8,410.6,107.1,407.5,96.7z M262.5,270.5L262.5,270.5C262.4,270.5,262.4,270.5,262.5,270.5l-0.5,0l0,0
		c-0.2,0-0.3,0-0.5,0.1c-2.2,0.3-7.5,1-13.3,1c-0.1,0-0.1,0-0.2,0c-7.5,0-13.6-0.9-14-1.1c-0.1,0-0.1-0.1-0.1-0.3
		c0.1-0.3,2.5-6.5,6.1-12.8c1.8-3.1,3.9-6.3,5-7.9c0.8-1.1,1.5-2.1,2.1-2.9c0.3-0.4,0.5-0.6,0.7-0.9c0.1-0.1,0.1-0.2,0.2-0.2l0,0
		c0.1-0.1,0.1-0.1,0.2-0.1c0.1,0,0.1,0,0.1,0c0.1,0.1,1.5,1.8,3.1,3.9c1.2,1.6,3.4,4.6,5.1,7.6c1.7,3,3.3,6.3,4.1,8
		c1.1,2.4,1.9,4.4,1.9,4.6l0.2,0.5C262.6,270.3,262.6,270.4,262.5,270.5z M157,185.9c0.5,0.6,1.2,0.8,1.7,0.8h14.8
		c1.3,3.3,1.9,6.6,1.9,10.2c0,3.5-0.6,6.9-1.8,10.2l-14.9,0c-0.3,0-0.8,0-1.3,0.4c-0.6,0.5-0.8,1.2-0.8,1.7v14.8
		c-3.3,1.3-6.6,1.9-10.2,1.9c-3.5,0-6.9-0.6-10.2-1.8l0-14.9c0-0.2,0-0.7-0.4-1.2c-0.4-0.6-1.1-0.9-1.8-0.9h-14.9
		c-1.2-3.3-1.8-6.7-1.8-10.2c0-3.5,0.6-6.9,1.8-10.2H134c0.5,0,1.3-0.2,1.8-0.8c0.4-0.6,0.4-1.2,0.4-1.5v-14.7
		c3.2-1.2,6.6-1.8,10.2-1.8c3.5,0,6.9,0.6,10.2,1.8v14.8C156.6,184.8,156.6,185.3,157,185.9z M159.3,290.5
		c4.6-13.7,15-32.4,20.5-42.5c1.1-1.9,1.9-3.5,2.5-4.6c14,8.6,29.3,14.3,45.5,16.9c-3.1,5.2-5,11.4-5.7,18.1l0,0.5l3.1,0.3l0-0.5
		c0.6-6.7,2.7-12.8,5.9-17.9c1.1,0.1,2.2,0.3,3.4,0.4c-2.2,4.4-3.5,7.7-3.7,8.2c-0.1,0.3-0.2,0.7-0.2,1.1c0,1.4,1,2.7,2.3,3.1
		c1.3,0.3,7.4,1.2,15.1,1.2c6.1,0,11.7-0.8,13.8-1.1c0.4-0.1,0.7-0.1,0.8-0.1c1.1-0.1,2.1-0.8,2.7-1.7h0.4v-1.5
		c0-0.5-0.1-0.9-0.3-1.3c-0.2-0.8-0.9-2.5-2.1-5.1c-0.4-0.9-0.9-1.8-1.3-2.8c1.1-0.1,2.1-0.2,3.2-0.4c3.2,5,5.2,11.2,5.9,17.9l0,0.5
		l3.1-0.3l0-0.5c-0.6-6.6-2.6-12.8-5.7-18c16.2-2.6,31.5-8.3,45.5-16.9c0.6,1.1,1.5,2.7,2.5,4.6c5.6,10.1,15.9,28.9,20.5,42.6
		c0.9,2.6,1.8,5.6,2.8,8.8c-25.7-8.7-58.2-13.5-91.7-13.5c-33.4,0-66,4.8-91.7,13.5C157.5,296,158.4,293.1,159.3,290.5z
		 M359.2,195.5l0.3-0.6l-3-0.8l-0.2,0.3c-19.3,35.8-55.1,59.6-95.8,63.6c-0.5-1-1-1.9-1.4-2.6c-1.7-2.9-3.8-5.9-5.3-7.9
		c-1.6-2.2-3-3.9-3.5-4.4c-0.6-0.5-1.4-0.8-2.1-0.8c-0.1,0-0.2,0-0.2,0c-0.8,0-1.5,0.3-2.1,0.8c-0.3,0.3-0.6,0.6-1.1,1.2l-0.3,0.3
		c-1.9,2.5-5,7.1-7.3,11.1c-0.4,0.7-0.8,1.5-1.2,2.2c-28.9-2.8-54.6-14.8-74.3-34.8l-0.5-0.5l-0.9,1.8l-0.7-0.7v-13.8l15.5,0
		l0.8-0.7l0.1-0.3c1.6-3.9,2.4-8,2.4-12.2c0-4.2-0.8-8.2-2.4-12.1l-0.1-0.2l-0.9-1h-15.5v-15l-0.3-1.2l-0.7-0.3
		c-3.9-1.6-8-2.4-12.2-2.4c0,0,0,0,0,0c-4.3,0-8.3,0.8-12.1,2.4l-0.4,0.2l-0.7,1v15.4h-15.4l-0.9,0.5l-0.2,0.5
		c-1.6,3.9-2.4,8-2.4,12.2c0,4.3,0.8,8.4,2.4,12.3l0.4,0.9l1.3,0.1h14.8l0,14.9l0.2,1.2l0.8,0.3c3.9,1.6,8,2.4,12.3,2.4l0.1,0
		c4.2,0,8.2-0.8,12.1-2.4l0.5-0.2l0.6-1c6.1,6.1,12.9,11.5,20.2,16.2c-0.6,1.1-1.5,2.7-2.6,4.8c-5.6,10.2-16,29.1-20.8,43
		c-3.8,11.2-7.3,24.7-10.1,35.5c-1.7,6.5-3.2,12.1-4.4,16.1c-0.8,2.6-1.6,3.9-2.2,4.5c-0.7,0.8-1.3,0.9-1.8,0.9
		c-1.4,0-3.5-1.8-4.9-3.6c-14.5-17.3-26.3-44.4-30.5-62.3l-0.6-2.3c-4.2-17.3-16.8-69.8-16.8-134c0-8,0.6-15.4,1.5-22
		c1,20.4,17.9,36.7,38.5,36.7c21.3,0,38.6-17.3,38.6-38.6c0-21.3-17.3-38.6-38.6-38.6c-15.6,0-29,9.3-35.1,22.6
		c0.6-2.5,1.3-4.7,1.9-6.8c3.7-12.1,7.5-18.9,8.1-19.8l0.1-0.1c0.4-0.7,1-1.2,1.7-1.6l0.1,0c0.2-0.1,2.1-0.8,5.5-1.9
		c8-2.5,24.4-7.2,36.4-8.9c-3.4,5-6.4,10.2-9,15.6l-0.3,0.6l3.2,0.8v-0.5c10.9-22.5,28.2-40.8,50.1-53.1V130
		c0,33.4,27.1,60.5,60.5,60.5c33.4,0,60.5-27.1,60.5-60.5c0-12,0-37.9,0-60.8c0-11.5,0-22.2,0-30l0-10.7
		c29.6,16.5,50.9,44.7,58.7,77.7l0.1,0.3l3.6,1.3l-0.2-0.9c-3.5-14.8-9.6-28.7-18.2-41.4c8.2,1.2,17.8,3.6,24.7,5.5
		c4,1.1,8.2,2.3,11.7,3.4c3.3,1,5.2,1.8,5.5,1.9c0.8,0.3,1.4,0.9,1.8,1.6l0.1,0.1c0.9,1.3,4.7,8.7,8.1,19.7
		c3.1,10.2,6.8,26.5,6.8,46.7c0,64.2-12.7,116.8-16.8,134l-0.6,2.3c-4.2,17.9-16.1,45.1-30.6,62.3c-1.4,1.8-3.6,3.6-5,3.6
		c-0.5,0-1-0.1-1.7-0.9c-0.6-0.6-1.4-1.9-2.2-4.5c-1.2-3.9-2.7-9.5-4.4-16c-2.8-10.8-6.3-24.3-10.1-35.6c-4.8-14-15.2-32.9-20.8-43
		c-1.1-2-2-3.7-2.6-4.8C334.4,230.1,349.2,214.2,359.2,195.5z M89.6,120.4c0-9.5,3.7-18.4,10.4-25.1c6.7-6.7,15.6-10.4,25.1-10.4
		c0,0,0,0,0,0c9.5,0,18.4,3.7,25.1,10.4c6.7,6.7,10.4,15.6,10.4,25.1c0,9.5-3.7,18.4-10.4,25.1c-6.7,6.7-15.6,10.4-25.1,10.4
		c-9.5,0-18.4-3.7-25.1-10.4C93.3,138.8,89.6,129.9,89.6,120.4z M305.6,130c0,15.3-6,29.8-16.8,40.6c-10.9,10.8-25.3,16.8-40.6,16.8
		c-15.3,0-29.8-6-40.6-16.8c-10.8-10.9-16.8-25.3-16.8-40.6v-103c17.5-9.2,37.4-14.1,57.4-14.1c20.1,0,40,4.8,57.4,13.9V130z"/>
	<path style="fill:#F4F4F4;" d="M146.4,187.7c-5.1,0-9.2,4.1-9.2,9.2c0,5.1,4.1,9.2,9.2,9.2h0c5.1,0,9.2-4.1,9.2-9.2
		C155.5,191.9,151.4,187.7,146.4,187.7z M152.5,196.9c0,3.4-2.7,6.1-6.1,6.1c-3.4,0-6.1-2.7-6.1-6.1c0-3.4,2.7-6.1,6.1-6.1
		C149.7,190.8,152.5,193.6,152.5,196.9z"/>
	<path style="fill:#F4F4F4;" d="M125.1,147.4c14.9,0,27.1-12.1,27.1-27.1c0-14.9-12.1-27.1-27.1-27.1c-14.9,0-27.1,12.1-27.1,27.1
		C98,135.3,110.2,147.4,125.1,147.4z M101.1,120.4c0-13.2,10.8-24,24-24c13.2,0,24,10.8,24,24c0,13.2-10.8,24-24,24
		C111.9,144.3,101.1,133.6,101.1,120.4z"/>
</g>
</svg>
