<?xml version="1.0" encoding="utf-8"?>
<!-- Generator: Adobe Illustrator 24.0.1, SVG Export Plug-In . SVG Version: 6.00 Build 0)  -->
<svg version="1.1" id="Ebene_1" xmlns="http://www.w3.org/2000/svg" xmlns:xlink="http://www.w3.org/1999/xlink" x="0px" y="0px"
	 viewBox="0 0 1222 497" style="enable-background:new 0 0 1222 497;" xml:space="preserve">
<g>
	<path style="fill:#F4F4F4;" d="M1041.2,240.8c-27,0-53.6,0-80.5,0c-0.1-1.6-0.3-3.1-0.3-4.6c0-30.8,0-61.5,0-92.3c0-1.5,0-3,0-4.9
		c-1.6-0.1-3-0.4-4.4-0.4c-18.7,0-37.5,0-56.2,0c-4.8,0-4.8,0-4.8-4.7c0-4.4,0-8.8,0-13.1c0-3.3,0.1-3.5,3.4-3.5
		c8.6,0,17.1,0,25.7,0c10.6,0,21.2,0,31.8,0c1.3,0,2.6-0.1,4.2-0.2c0.1-1.3,0.3-2.3,0.3-3.4c0-18.7,0-37.5,0.1-56.2
		c0-2.6-1-3.8-3.1-4.9c-9.5-4.7-18.9-9.6-28.4-14.2c-2.6-1.3-3.4-2.9-3.4-5.7c0.2-9,0.1-17.9,0.1-26.9c0-0.9-0.1-1.9,0.1-2.7
		c0.2-0.6,0.9-1.3,1.6-1.5c0.8-0.3,1.8-0.1,2.7-0.1c35.7,0,71.3,0,107,0c0.1,0,0.2,0,0.3,0c4,0,4.1,0.1,4.1,4.1c0,48.5,0,97,0,145.5
		c0,28.4,0,56.8,0,85.3C1041.4,237.7,1041.3,239,1041.2,240.8z"/>
	<path style="fill:#F4F4F4;" d="M669.5,177.9c-31-29.6-62-59.1-93.1-88.8c-1.2,1.2-0.8,2.5-0.8,3.6c0,13.7,0,27.5,0,41.2
		c0,1.3-0.2,2.5-0.3,4.2c-1.4-0.3-2.5-0.5-3.5-0.8c-24.7-7.8-49.3-15.6-74-23.5c-3.1-1-3.1-1-3.1-4.3c0-16.5,0-33,0-49.5
		c0-0.9-0.1-1.8,0-2.7c0.3-2.3-0.6-3.7-2.8-4.8c-4.2-1.9-8.2-4.1-12.3-6.1c-5.5-2.8-11-5.7-16.6-8.4c-2.2-1.1-3.2-2.4-3.1-4.9
		c0.1-9.3,0-18.5,0.1-27.8c0-3.8,0.2-4,4-4c34.8,0,69.7,0,104.5,0c10,0,20,0.1,29.9,0c2.5,0,4.4,0.8,6.2,2.5
		C625.3,23.6,646,43.3,666.7,63c0.7,0.7,1.4,1.4,2.2,2.1c1.1,0.9,1.6,2.1,1.5,3.5c0,0.8,0,1.6,0,2.4c0,34.2,0,68.4,0,102.7
		c0,1.2,0,2.4,0,3.6C670.1,177.7,669.8,177.8,669.5,177.9z"/>
	<path style="fill:#F4F4F4;" d="M977.4,343.9c0,16.1,0,32.3,0,48.8c-1.4-0.3-2.4-0.5-3.3-0.8c-24.8-7.8-49.5-15.7-74.3-23.5
		c-3.2-1-3.2-1-3.2-4.5c0-16.6,0-33.2,0-49.8c0-1-0.1-2,0-3.1c0.1-1.7-0.5-2.9-2.2-3.6c-2.3-1-4.6-2.3-6.8-3.4
		c-7.7-3.9-15.4-7.9-23.2-11.7c-2-1-2.7-2.3-2.7-4.5c0.1-9.5,0-18.9,0.1-28.4c0-1.1,0.1-2.2,0.2-3.5c1.3-0.1,2.4-0.3,3.5-0.3
		c45.1,0,90.2,0,135.4-0.1c2.1,0,3.7,0.7,5.2,2.1c21.4,20.4,42.7,40.8,64.1,61.1c1.4,1.4,2.1,2.8,2.1,4.8c0,35.2,0,70.5,0,105.7
		c0,0.9-0.1,1.7-0.3,3.4c-16.1-15.2-31.5-30-47-44.8s-31.1-29.6-46.6-44.4C978,343.7,977.7,343.8,977.4,343.9z"/>
	<path style="fill:#F4F4F4;" d="M124.5,1.5c38.5,0,77,0.1,115.5,0c14.6,0,27,5.3,37.5,15.2c9.8,9.3,16,20.7,19.6,33.6
		c0.4,1.4,0.5,2.8,0.5,4.2c0,12.6,0,25.3,0,37.9c0,0.5,0,1,0,1.5c-0.2,1.9-0.5,2.2-2.4,2.4c-0.6,0.1-1.2,0-1.8,0
		c-28.8,0-57.7,0-86.5-0.1c-2,0-4.1-0.3-6-0.9C135.7,74.8,70.6,54.1,5.4,33.5c-0.6-0.2-1.2-0.4-1.7-0.6c-1.7-0.4-2.3-1.5-2.3-3.1
		c0-2.9,0-5.7,0-8.6c0-5.2,0-10.4,0-15.6c0-3.8,0.3-4.1,4.2-4.1c18.5,0,37.1,0,55.6,0C82.3,1.5,103.4,1.5,124.5,1.5L124.5,1.5z"/>
	<path style="fill:#F4F4F4;" d="M234.9,495c-33.2,0-65.9,0-98.8,0c-0.1-1.2-0.3-2.2-0.3-3.1c0-9.6,0.1-19.1-0.1-28.7
		c0-2.3,0.9-3.5,2.8-4.4c4.2-2,8.3-4.3,12.6-6.3c2.3-1,3-2.5,3-5c-0.1-21.1,0-42.2,0-63.3c0-1,0-2,0.1-3.1c0-1.2,0.7-1.9,1.9-1.9
		c0.8,0,1.6-0.1,2.4-0.1c63,0,126.1,0,189.1,0c4.4,0,4.4,0,4.4,4.4c0,19.9,0,39.7,0,59.6c0,2.2-0.3,4.5-1,6.6
		c-4.1,13.7-11.1,25.6-22.3,34.7c-3.3,2.7-7,4.9-10.7,7c-4.9,2.7-10.1,4-15.8,3.9c-18.5-0.2-37.1-0.1-55.6-0.1
		c-1.4,0-2.8-0.1-4.1-0.2c-0.8-2.6-1-42.1-0.1-45.5c1-0.1,2.1-0.2,3.2-0.2c4.7,0,9.4-0.1,14.1,0c18.5,0.2,33.2-7.6,44.8-21.7
		c1.1-1.3,1.7-2.7,1.7-4.4c-0.1-6.6,0-13.2,0-19.9c0-3.2-0.2-3.4-3.2-3.4c-21.5,0-43,0-64.5,0c-0.9,0-1.8,0.2-3,0.3
		c-0.1,1.6-0.2,3.1-0.2,4.6c0,28.5,0,57,0,85.6C235.1,491.8,235,493.2,234.9,495z"/>
	<path style="fill:#F4F4F4;" d="M1161.9,495.1c-27.2,0-53.8,0-80.9,0c-0.1-1.6-0.3-3-0.3-4.5c0-43.5,0-87,0-130.5
		c0-33.2,0-66.4,0-99.6c0-4.8,0-4.8,4.9-4.8c23.9,0,47.9,0,71.8,0c4.4,0,4.4,0,4.4,4.4c0,77,0,154,0,231
		C1161.9,492.2,1161.9,493.4,1161.9,495.1z"/>
	<path style="fill:#F4F4F4;" d="M679.2,240.5c-0.1-1.7-0.2-3.3-0.2-4.9c0-52.6,0-105.1,0-157.7c0-23.9,0-47.9,0-71.8
		c0-4.7,0-4.7,4.8-4.7c23.7,0,47.5,0,71.2,0c0.1,0,0.2,0,0.3,0c4.4,0,4.4,0,4.4,4.4c0,76.9,0,153.8,0.1,230.7c0,1.3-0.1,2.6-0.2,3.8
		C757,241,683.6,241.2,679.2,240.5z"/>
	<path style="fill:#F4F4F4;" d="M363.4,377c1.8,0.5,3,0.8,4.2,1.1c24.3,7.7,48.5,15.4,72.8,23.1c0.1,0,0.2,0.1,0.3,0.1
		c3.5,1.1,3.5,1.1,3.5,4.6s0,6.9,0,10.4c0,2.9,0,5.7,0,8.6c0,1.1,0.1,2.2,0.2,3.6c1.7,0.1,3.2,0.2,4.7,0.2c24.4,0,48.9,0,73.3,0
		c2.8,0,5.4,0.4,8.1,1.3c24.6,7.9,49.3,15.7,73.9,23.6c0.7,0.2,1.3,0.5,2,0.6c1.7,0.4,2.3,1.4,2.2,3.1c-0.1,5.5,0,11,0,16.5
		c0,6,0,12,0,18c0,3.9,0,3.9-3.9,3.9c-27.2,0-54.4,0-81.6,0c-51.6,0-103.3,0-154.9,0c-5.1,0-5.1,0-5.1-5c0-36.3,0-72.5,0-108.8
		C363.2,380.4,363.3,378.9,363.4,377z"/>
	<path style="fill:#F4F4F4;" d="M135.9,240.8c-22,0-44,0-66,0c-5,0-5,0-5-4.8c0-8.9,0.1-17.7,0-26.6c0-2.6,0.8-4.1,3.2-5.2
		c9.3-4.6,18.5-9.4,27.9-13.9c2.9-1.4,3.9-3,3.9-6.3c-0.1-36.6-0.1-73.1,0-109.7c0-1,0-2,0-3.1c0.1-1.3,0.7-1.9,2-1.5
		c0.8,0.2,1.6,0.4,2.3,0.7c24.1,7.6,48.2,15.3,72.2,22.9c0.8,0.2,1.5,0.5,2.3,0.8c1.3,0.4,1.8,1.2,1.8,2.5c0,1,0,2,0,3.1
		c0,22.7,0,45.4,0,68.2c0,4.8,0,4.8,4.9,4.8c6,0,12,0,18,0c3,0,3.3,0.3,3.3,3.4c0,20.5,0,41,0,61.4c0,3.3-0.2,3.5-3.8,3.5
		C180.7,240.9,158.3,240.9,135.9,240.8C135.9,240.9,135.9,240.9,135.9,240.8z"/>
	<path style="fill:#F4F4F4;" d="M851.3,377.2c-1.4-0.3-2.5-0.5-3.5-0.8c-20.8-6.5-41.6-13-62.4-19.5c-3-0.9-3-1-2.8-4
		c1.1-0.1,2.3-0.2,3.5-0.3c5.4,0,10.8,0,16.2,0c3,0,3.2-0.2,3.2-3.1c0-6.8,0.1-13.7,0-20.5c0-1.2-0.5-2.7-1.3-3.6
		c-10-12.4-22.5-20.7-38.8-21.8c-9.5-0.6-19.1-0.3-28.7-0.4c-0.6,0-1.2,0.2-2.1,0.5c0,12.1,0,24.2,0,36.8c-1.7-0.4-3-0.5-4.2-0.9
		c-12.6-3.9-25.3-7.9-37.9-11.8c-11.9-3.7-23.7-7.4-35.6-11.1c-3.4-1.1-3.5-1.1-3.3-4.7c0.1-2.6-0.8-4-3.1-5.2
		c-9.6-4.7-19.1-9.6-28.7-14.4c-2.2-1.1-3.2-2.3-3.1-4.9c0.2-9.4,0.1-18.7,0.1-28.1c0-0.6,0-1.2,0.1-1.8c0.1-1.2,0.8-1.9,2-1.9
		c1.1-0.1,2.2-0.1,3.4-0.1c56.4,0,112.9,0.1,169.3-0.1c16.9,0,30.6,6.7,41.7,19c7.6,8.5,12.7,18.4,15.8,29.3
		c0.4,1.5,0.7,3.2,0.7,4.8c0,21.6,0,43.2,0,64.8C851.5,374.7,851.4,375.8,851.3,377.2z"/>
	<path style="fill:#F4F4F4;" d="M1051.6,240.7c-0.7-4.5-0.5-134.1,0.2-136.6c1,0.3,2.1,0.5,3.2,0.8c24.6,7.8,49.1,15.6,73.7,23.3
		c3.4,1.1,3.4,1.1,3.4,4.7c0,17,0,34,0,51c0,4.4,0,4.4,4.3,4.4c26.5,0,53,0,79.4,0c4.7,0,4.7,0,4.7,4.7c0,14.4,0,28.7,0,43.1
		c0,0.7,0,1.4,0,2.1c-0.1,2-0.4,2.2-2.4,2.4c-0.9,0.1-1.8,0-2.7,0c-13.6,0-27.3,0-40.9,0c-39.4,0.1-78.8,0.1-118.2,0.2
		C1054.7,240.9,1053.2,240.8,1051.6,240.7z"/>
	<path style="fill:#F4F4F4;" d="M804.9,112.6c0-1.2,0-2.6,0-4c0-16.8-0.1-33.6,0.1-50.4c0-3-1-4.5-3.6-5.8
		c-9.5-4.6-18.9-9.6-28.4-14.2c-2.2-1.1-2.9-2.3-2.9-4.7c0.1-9.4,0-18.7,0.1-28.1c0-3.8,0.1-3.9,4-3.9c17.2,0,34.4,0,51.6,0
		c28.7,0,57.4,0,86.2,0c4.7,0,4.7,0,4.7,4.7c0,10.5,0.1,21,0,31.5c0,2.4,0.8,3.7,2.9,4.7c9.7,4.8,19.3,9.7,29,14.5
		c2.2,1.1,3.3,2.4,3.1,4.9c-0.2,1.9-0.1,3.9-0.1,5.8c0,1.5-0.7,2.3-2.2,2.2c-1,0-2,0-3.1,0c-18.5,0-37.1,0-55.6,0
		c-4.9,0-4.9,0-4.9,4.8c0,19.9,0,39.7,0,59.6c0,1.3-0.1,2.6-0.2,3.9C883,137.9,808.4,114.4,804.9,112.6z"/>
	<path style="fill:#F4F4F4;" d="M608.4,444.7c-1.5-0.4-2.7-0.6-3.8-0.9c-24.5-7.7-48.9-15.5-73.4-23.2c-3.7-1.2-3.7-1.2-3.7-5.1
		c0-49.3,0-98.6,0-147.9c0-2.6,0-5.3,0-7.9c0-1,0.1-2,0.3-3.3c1.3-0.1,2.3-0.3,3.4-0.3c24.5,0,49.1,0,73.6,0c0.6,0,1.2,0,1.8,0
		c1.3,0,1.8,0.7,1.8,1.9c0,0.7,0,1.4,0,2.1c0,60.3,0,120.6,0,180.8C608.6,442.1,608.5,443.2,608.4,444.7z"/>
	<path style="fill:#F4F4F4;" d="M440.8,240.7c-1.3,0.1-2.4,0.2-3.5,0.2c-44.8,0-89.7,0-134.5,0c-0.6,0-1.2,0-1.8,0
		c-1.3,0-1.8-0.7-1.9-1.9c0-0.6-0.1-1.2-0.1-1.8c0-9.3,0.1-18.5-0.1-27.8c0-2.7,1-4,3.3-5.1c9.3-4.6,18.5-9.5,27.9-13.9
		c3-1.4,3.8-3.2,3.8-6.3c-0.1-16.3-0.1-32.6-0.1-48.9c0-0.8,0-1.6,0-2.4c0.1-3,0.1-3.1,3-4.1c24.9-7.9,49.7-15.8,74.6-23.6
		c0.8-0.2,1.6-0.4,2.8-0.7c0.2,1.3,0.5,2.4,0.5,3.5c0,6.7,0,13.4,0,20.2c0,13.1,0,26.3,0,39.4c0,0.7,0,1.4,0,2.1
		c0.1,2.9,0.2,3.1,3.2,3.1c6.2,0,12.4,0,18.6,0c0.8,0,1.6,0,2.4,0.1c1.2,0,1.9,0.7,1.9,1.9c0,0.8,0.1,1.6,0.1,2.4
		c0,19.9,0,39.7,0,59.6C441.1,237.9,440.9,239.2,440.8,240.7z"/>
	<path style="fill:#F4F4F4;" d="M734.3,494.9c-3.9,0.7-78,0.5-80.3-0.1c-0.7-2.6-0.7-168.2,0.1-171.2c0.9,0.2,1.9,0.4,2.8,0.6
		c24.8,7.9,49.7,15.7,74.5,23.6c3.1,1,3.1,1,3.1,4.3c0,46.5,0,93.1,0,139.6C734.6,492.8,734.4,493.8,734.3,494.9z"/>
	<path style="fill:#F4F4F4;" d="M334.2,119.9c-0.1-1.8-0.3-3.1-0.3-4.3c0-13.7,0-27.5,0-41.2c0-4.6,0-4.6-4.8-4.7c-6,0-12,0-18,0
		c-3.2,0-3.5-0.3-3.5-3.5c0-20.4,0-40.7,0-61.1c0-3.2,0.4-3.6,3.8-3.6c14.8,0,29.5,0,44.3,0c29.6,0,59.3,0,88.9,0c4.9,0,5,0,5,4.9
		c0,9-0.1,17.9,0.1,26.9c0,2.4-0.7,3.7-2.9,4.7c-9.2,4.5-18.4,9.2-27.5,13.9c-5,2.6-4.4,1.4-4.4,7.4c0,10.6,0,21.2,0,31.8
		c0,3.6,0,3.6-3.4,4.7c-24.6,7.8-49.1,15.6-73.7,23.3C336.8,119.3,335.8,119.5,334.2,119.9z"/>
	<path style="fill:#F4F4F4;" d="M242.6,303.1c-0.2-1.2-0.4-2.3-0.4-3.4c0-13.4,0-26.9,0-40.3c0-3.5,0.2-3.6,3.7-3.6
		c17.2,0,34.4-0.2,51.6,0c10,0.1,19.2,3.6,27.4,9.3c11.7,8.2,19.5,19.5,24.6,32.7c1.8,4.8,2.8,9.7,2.7,14.9
		c-0.2,18.2-0.1,36.5-0.1,54.7c0,1.4-0.1,2.8-0.2,4.6c-1.8,0.1-3.4,0.2-5,0.2c-47.4,0-94.7,0-142.1,0c-15.2,0-30.3,0-45.5,0
		c-0.9,0-1.8,0-2.7,0c-1.9-0.1-2.3-0.5-2.3-2.4c-0.1-4.8-0.1-9.6,0-14.4c0-2.2,0.4-2.5,2.5-2.6c1.2-0.1,2.4,0,3.7,0
		c46.8,0,93.7,0,140.5,0c5.6,0,5.2,0.4,5.2-5.4c0-5.9,0-11.8,0-17.7c0-1.6-0.3-3-1.3-4.2c-9-11.1-20-18.8-34.3-21.2
		c-3.1-0.5-6.3-0.8-9.4-0.8c-5-0.1-10,0-15,0C245,303.2,243.9,303.1,242.6,303.1z"/>
	<path style="fill:#F4F4F4;" d="M165.9,255.7c21.5,0,43,0,64.4,0c4.7,0,4.7,0,4.7,4.7c0,27.3,0,54.6,0,81.9c0,4.8,0,4.8-4.6,4.8
		c-23.9,0-47.9,0-71.8,0c-4.5,0-4.5,0-4.5-4.6c0-8.8,0-17.5,0-26.3c0-3.7,0-3.7-3.6-4.8c-16.9-5.4-33.8-10.7-50.6-16.1
		c-0.6-0.2-1.2-0.4-1.7-0.6c-1.7-0.4-2.3-1.4-2.3-3.1c0-11.1,0-22.2,0-33.3c0-2.1,0.4-2.5,2.5-2.6c1-0.1,2,0,3.1,0
		C122.9,255.7,144.4,255.7,165.9,255.7L165.9,255.7z"/>
	<path style="fill:#F4F4F4;" d="M363,256.7c3.1-0.8,77.7-0.8,81.1-0.2c0.1,1.1,0.3,2.3,0.3,3.4c0,20.5,0,40.9,0,61.4
		c0,22.4-0.1,44.8-0.2,67.2c0,1.3-0.1,2.6-0.2,4.3c-1.2-0.2-2.1-0.3-2.9-0.6c-25-7.9-50.1-15.9-75.1-23.8c-2.8-0.9-2.8-1-2.8-3.9
		c0-0.3,0-0.6,0-0.9c-0.1-34.1-0.1-68.2-0.2-102.3C363,259.8,363,258.3,363,256.7z"/>
	<path style="fill:#F4F4F4;" d="M851.1,495c-26.9,0-53.5,0-80.5,0c-0.1-1.5-0.3-2.8-0.3-4.2c0-22.6,0-45.2,0-67.8c0-1.4,0-2.8,0-4.5
		c-1.6-0.1-2.8-0.3-3.9-0.3c-6.1,0-12.2,0-18.3,0c-1.2,0-2.4-0.1-3.5-0.2c-0.8-2.4-1-55.4-0.2-59.6c1-0.1,2-0.3,3.1-0.3
		c4.9,0,9.8-0.1,14.7,0c1.9,0.1,3.8,0.5,5.6,1.1c25.2,7.9,50.3,15.9,75.4,23.8c2.2,0.7,4.5,1.4,6.7,2.1c1.1,0.3,1.9,0.9,1.7,2.2
		c-0.1,1.5,0.7,3.4-1.1,4.4c-0.8,0.5-1.6,0.8-2.5,1.2c-8.9,4-17.8,8-26.8,11.9c-2.1,0.9-2.8,2.1-2.8,4.4c0.1,10.4,0.1,20.8,0,31.2
		c0,2.2,0.8,3.5,2.8,4.5c9.1,4.5,18.2,9.2,27.3,13.7c2.2,1.1,3.1,2.4,3,4.9c-0.1,9.4,0,18.7-0.1,28.1
		C851.3,492.7,851.2,493.8,851.1,495z"/>
	<path style="fill:#F4F4F4;" d="M1132.1,1.7c0,39.4,0,78.6,0,118.2c-1.6-0.4-2.9-0.6-4.1-1c-18.2-5.7-36.3-11.5-54.4-17.3
		c-6.2-2-12.4-3.9-18.6-5.9c-1.1-0.4-2.3-0.8-3.5-1.3c-0.1-1.4-0.2-2.6-0.2-3.8c0-28.3,0-56.6,0-84.9c0-4.4,0-4.4,4.4-4.4
		c24,0,48.1,0,72.1,0C1129.1,1.4,1130.4,1.6,1132.1,1.7z"/>
	<path style="fill:#F4F4F4;" d="M885.5,240.7c-27,0-53.5,0-80,0c-0.8-2.8-0.9-115.1,0-118.2c1,0.3,2.1,0.5,3.2,0.8
		c24.6,7.8,49.1,15.5,73.7,23.3c3.4,1.1,3.4,1.1,3.4,4.7c0,28.5,0,57,0,85.5C885.7,238,885.6,239.2,885.5,240.7z"/>
	<path style="fill:#F4F4F4;" d="M575.3,240.4c-2.7,0.7-77.2,0.8-80.1,0.1c-1-2.9-0.8-89.5,0.3-94.5c1.2,0.3,2.5,0.5,3.7,0.9
		c20.4,6.4,40.8,12.8,61.2,19.2c4.1,1.3,8.2,2.5,12.2,3.8c2.9,0.9,2.9,0.9,2.9,3.8c0,21.4,0,42.8,0,64.1
		C575.6,238.7,575.4,239.6,575.3,240.4z"/>
	<path style="fill:#F4F4F4;" d="M977.3,495.1c-26.9,0-53.5,0-80.4,0c-0.1-1.2-0.3-2.2-0.3-3.3c0-29.5,0-59.1,0-88.6
		c0-1,0.1-2,0.2-3.4c1.3,0.3,2.4,0.5,3.4,0.8c24.8,7.7,49.5,15.5,74.3,23.3c2.9,0.9,3,1,3,4c0,21.3,0,42.6,0,63.8
		C977.5,492.7,977.4,493.7,977.3,495.1z"/>
	<path style="fill:#F4F4F4;" d="M297.6,163.6c-1.6,0.1-2.7,0.3-3.8,0.3c-33.3,0-66.6,0-99.9,0c-0.5,0-1,0-1.5,0
		c-2-0.2-2.2-0.4-2.4-2.4c-0.1-0.8,0-1.6,0-2.4c0-16.7,0-33.4,0-50.1c0-0.5,0-1,0-1.5c0.1-3.3,0.2-3.4,3.5-3.4c33.5,0,67,0,100.5,0
		c0.6,0,1.2,0,1.8,0.1c1.1,0.1,1.6,0.7,1.7,1.8c0,0.8,0.1,1.6,0.1,2.4c0,17.1,0,34.2,0,51.3C297.6,160.7,297.6,161.9,297.6,163.6z"
		/>
	<path style="fill:#F4F4F4;" d="M495,122.5c1.4,0.3,2.3,0.5,3.3,0.8c24.7,7.8,49.3,15.6,74,23.4c3.3,1,3.3,1.1,3.3,4.5
		c0,2.6,0,5.3,0,7.9c0,1-0.1,2-0.2,3.4c-1.5-0.3-2.8-0.5-4-0.9c-13.6-4.3-27.2-8.6-40.8-12.8c-10.7-3.4-21.4-6.7-32-10.1
		c-3.6-1.1-3.5-1.1-3.5-4.6c0-2.8-0.3-5.7-0.3-8.5C494.6,124.7,494.9,123.7,495,122.5z"/>
	<path style="fill:#F4F4F4;" d="M977.5,417c-2.2-0.6-3.7-1-5.1-1.4c-24-7.5-47.9-15.1-71.9-22.7c-4.2-1.3-3.9-0.8-3.9-5.2
		c0-3.5,0-7.1,0-11.1c1.4,0.3,2.4,0.5,3.3,0.8c24.9,7.9,49.9,15.8,74.8,23.7c2.8,0.9,2.8,0.9,2.8,3.8
		C977.5,408.8,977.5,412.6,977.5,417z"/>
</g>
</svg>
