<?xml version="1.0" encoding="utf-8"?>
<!-- Generator: Adobe Illustrator 24.0.1, SVG Export Plug-In . SVG Version: 6.00 Build 0)  -->
<svg version="1.1" id="Layer_2" xmlns="http://www.w3.org/2000/svg" xmlns:xlink="http://www.w3.org/1999/xlink" x="0px" y="0px"
	 viewBox="0 0 567.2 144.9" style="enable-background:new 0 0 567.2 144.9;" xml:space="preserve">
<g>
	<path style="fill:#FFFFFF;" d="M161.6,56.2c1.7,1.1,2.9,2.4,3.7,3.7c0.9,1.6,1.4,3.4,1.6,5.4v44.2c0,2.7-0.5,4.8-1.5,6.3
		c-1,1.5-2.1,2.7-3.3,3.6c-1.4,1-3,1.7-4.8,2.1h-29.8V54.3h26.9C157.5,54.4,159.9,55,161.6,56.2z M163.7,65.1
		c-0.2-1.4-0.6-2.7-1.2-3.8c-0.5-1-1.3-1.8-2.4-2.6c-1.1-0.8-2.6-1.1-4.4-1l-25,0.1v60.6H156c1.3-0.3,2.6-0.7,3.6-1.3
		c0.9-0.5,1.8-1.3,2.6-2.3c0.8-1,1.3-2.4,1.4-4.2L163.7,65.1L163.7,65.1z M149.6,69c0.6,0.5,1,1.1,1.3,1.8c0.3,0.7,0.5,1.5,0.6,2.4
		v27.8c0.1,1.6-0.1,2.8-0.4,3.7c-0.4,0.9-0.8,1.5-1.3,1.9c-0.6,0.5-1.2,0.8-1.9,0.9h-5.7L141.9,68h5.2C148.2,68.1,149,68.4,149.6,69
		z M148.4,73.2c-0.1-0.5-0.3-0.9-0.6-1.2c-0.6-0.7-1.6-0.9-3-0.6v33c0.6,0.2,1.1,0.3,1.6,0.2c0.4-0.1,0.8-0.3,1.2-0.6
		c0.4-0.3,0.6-0.9,0.7-1.8V73.2z"/>
	<path style="fill:#FFFFFF;" d="M189.7,54.6v66.7h-18.6V54.6H189.7z M186.5,58.4h-12.3v59.2h12.3V58.4z"/>
	<path style="fill:#FFFFFF;" d="M214.2,76.4v-2.8c0.1-1.3-0.2-2-0.9-2.3c-0.3-0.1-0.6-0.1-1.1,0c-0.5,0-0.9,0.1-1.1,0.3
		c-0.2,0.2-0.4,0.5-0.4,0.8c-0.1,0.3-0.1,0.7,0,1.1v3.6l14.8,9.6c1.9,1,3.3,2.1,4.3,3.3c1,1.2,1.7,2.2,2.1,3.3
		c0.4,1.1,0.7,2.4,0.7,3.6v14.7c-0.1,2.1-0.7,3.8-1.6,5.1s-2,2.3-3.3,3c-1.4,0.8-3,1.4-4.7,1.8h-19.4c-2.4-0.1-4.3-0.7-5.7-1.8
		c-1.4-1.1-2.4-2.4-3-3.6c-0.8-1.5-1.2-3.3-1.4-5.2V89.2l17.4,10.6v3.7c0,0.6,0.1,1,0.2,1.3c0.2,0.3,0.4,0.5,0.6,0.6
		c0.3,0.2,0.6,0.3,1,0.3c1-0.1,1.5-0.4,1.6-1.1c0.1-0.3,0-0.6-0.1-1.1v-4.4l-12.7-7.7c-2.2-1.2-3.9-2.5-5-3.9
		c-1.1-1.4-1.9-2.6-2.4-3.7c-0.6-1.3-0.9-2.6-0.9-3.8V64.3c0.1-2.4,0.7-4.3,1.7-5.7c1-1.3,2.2-2.3,3.4-3c1.5-0.7,3.1-1.1,4.9-1.2
		h17.1c2.9,0.1,5.2,0.7,6.8,1.6c1.6,1,2.8,2,3.6,3.3c0.9,1.4,1.5,3,1.7,4.7v24.4L214.2,76.4z M212.6,68.1c1,0.1,1.8,0.4,2.3,0.7
		c0.5,0.4,1,0.8,1.3,1.2c0.3,0.5,0.5,1.1,0.7,1.7v2.8l12.5,7.5l-0.2-16.4c0.1-1.7-0.3-3-1.1-4.1c-0.8-1.1-1.7-1.9-2.6-2.4
		c-1.1-0.7-2.5-1.1-3.9-1.3H203c-1.5,0.1-2.6,0.5-3.4,1.2c-0.8,0.7-1.5,1.4-1.9,2.1c-0.5,0.9-0.9,1.9-1.1,2.9v15.5
		c-0.1,1.3,0.2,2.4,0.8,3.4c0.6,1,1.2,1.8,1.9,2.5c0.8,0.8,1.7,1.6,2.8,2.2l15.7,10.2v6.2c0,1.2-0.3,2.2-0.8,2.8
		c-0.5,0.7-1.1,1.2-1.7,1.5c-0.7,0.4-1.5,0.6-2.5,0.8c-1.2-0.1-2.1-0.4-2.8-0.8c-0.6-0.4-1.1-0.9-1.4-1.4c-0.4-0.6-0.6-1.2-0.8-2
		v-3.1l-11.2-6.7l-0.2,15.7c0.1,1.9,0.5,3.3,1.2,4.3c0.7,1,1.5,1.7,2.4,2.3c1,0.6,2.2,0.9,3.5,1.1h18.7c1.9-0.1,3.2-0.5,4.2-1.2
		c0.9-0.8,1.6-1.6,2.1-2.5c0.5-1.1,0.8-2.3,0.8-3.6V96.5c0.1-0.8-0.1-1.5-0.6-2.3c-0.4-0.8-1-1.4-1.5-2c-0.7-0.7-1.5-1.4-2.3-2
		l-17.1-11v-7.1c0.1-1.1,0.4-1.9,0.9-2.4c0.5-0.5,1.1-0.9,1.7-1.2C211,68.3,211.8,68.1,212.6,68.1z"/>
	<path style="fill:#FFFFFF;" d="M273.6,79.7l-6.9,8l6.9,8.4v25.2h-17.7v-18.6l-2.5-2.3v21.1h-17.9v-67h17.9v21.1l2.5-3V54.5h17.7
		V79.7z M270.5,58.3h-11.1l-0.1,16l-9,9.2l-0.4-25.6h-11.2v59.6h11.1V92.8l8.7,8.2v16.6h11.8V96.4l-7.6-8.8l7.8-9L270.5,58.3
		L270.5,58.3z"/>
	<path style="fill:#FFFFFF;" d="M325.6,76.4v-2.8c0.1-1.3-0.2-2-0.9-2.3c-0.3-0.1-0.6-0.1-1.1,0c-0.5,0-0.9,0.1-1.1,0.3
		c-0.2,0.2-0.4,0.5-0.4,0.8c-0.1,0.3-0.1,0.7,0,1.1v3.6l14.8,9.6c1.9,1,3.3,2.1,4.3,3.3c1,1.2,1.7,2.2,2.1,3.3
		c0.4,1.1,0.7,2.4,0.7,3.6v14.7c-0.1,2.1-0.7,3.8-1.6,5.1c-1,1.3-2,2.3-3.3,3c-1.4,0.8-3,1.4-4.7,1.8H315c-2.4-0.1-4.3-0.7-5.7-1.8
		c-1.4-1.1-2.4-2.4-3-3.6c-0.8-1.5-1.2-3.3-1.4-5.2V89.2l17.4,10.6v3.7c0,0.6,0.1,1,0.2,1.3c0.2,0.3,0.4,0.5,0.6,0.6
		c0.3,0.2,0.6,0.3,1,0.3c1-0.1,1.5-0.4,1.6-1.1c0.1-0.3,0-0.6-0.1-1.1v-4.4l-12.7-7.7c-2.2-1.2-3.9-2.5-5-3.9
		c-1.1-1.4-1.9-2.6-2.4-3.7c-0.6-1.3-0.9-2.6-0.9-3.8V64.3c0.1-2.4,0.7-4.3,1.7-5.7c1-1.3,2.2-2.3,3.4-3c1.5-0.7,3.1-1.1,4.9-1.2
		h17.1c2.9,0.1,5.2,0.7,6.8,1.6c1.6,1,2.8,2,3.6,3.3c0.9,1.4,1.5,3,1.7,4.7v24.4L325.6,76.4z M324.1,68.1c1,0.1,1.8,0.4,2.3,0.7
		c0.5,0.4,1,0.8,1.3,1.2c0.3,0.5,0.5,1.1,0.7,1.7v2.8l12.5,7.5l-0.2-16.4c0.1-1.7-0.3-3-1.1-4.1c-0.8-1.1-1.7-1.9-2.6-2.4
		c-1.1-0.7-2.5-1.1-3.9-1.3h-18.6c-1.5,0.1-2.6,0.5-3.5,1.2c-0.8,0.7-1.5,1.4-1.9,2.1c-0.5,0.9-0.9,1.9-1.1,2.9v15.5
		c-0.1,1.3,0.2,2.4,0.8,3.4c0.6,1,1.2,1.8,1.9,2.5c0.8,0.8,1.7,1.6,2.8,2.2l15.7,10.2v6.2c0,1.2-0.3,2.2-0.8,2.8
		c-0.5,0.7-1.1,1.2-1.7,1.5c-0.7,0.4-1.5,0.6-2.5,0.8c-1.2-0.1-2.1-0.4-2.8-0.8c-0.6-0.4-1.1-0.9-1.4-1.4c-0.4-0.6-0.6-1.2-0.8-2
		v-3.1L308,94.9l-0.2,15.7c0.1,1.9,0.5,3.3,1.2,4.3c0.7,1,1.5,1.7,2.4,2.3c1,0.6,2.2,0.9,3.5,1.1h18.7c1.9-0.1,3.2-0.5,4.2-1.2
		c0.9-0.8,1.6-1.6,2.1-2.5c0.5-1.1,0.8-2.3,0.8-3.6V96.5c0.1-0.8-0.1-1.5-0.6-2.3c-0.4-0.8-1-1.4-1.5-2c-0.7-0.7-1.5-1.4-2.3-2
		l-17.1-11v-7.1c0.1-1.1,0.4-1.9,0.9-2.4c0.5-0.5,1.1-0.9,1.7-1.2C322.5,68.3,323.2,68.1,324.1,68.1z"/>
	<path style="fill:#FFFFFF;" d="M387.1,54.7v56.9c-0.1,2.2-0.5,4-1.4,5.3c-0.9,1.3-1.8,2.3-2.9,3c-1.2,0.8-2.6,1.3-4.2,1.6h-28.3
		v-16.3h18v-3.2h-12.3c-2.4-0.1-4.2-0.7-5.4-1.7c-1.2-1-2.1-2.2-2.6-3.4c-0.6-1.5-1-3.1-1-4.9V54.7h18.4v30.6h3.2V54.7H387.1z
		 M384,58.2h-11.6v26.2c-0.1,0.8-0.3,1.6-0.7,2.2c-0.3,0.6-0.8,1.1-1.5,1.5c-0.7,0.4-1.6,0.7-2.9,0.8c-1,0.1-1.8,0-2.5-0.3
		c-0.6-0.3-1.2-0.7-1.7-1.3c-0.5-0.6-0.8-1.7-0.9-3.1v-26H351v34c0.1,1.3,0.4,2.4,0.9,3.4c0.4,0.9,1.1,1.7,2.1,2.4
		c0.9,0.7,2.3,1.1,4.1,1.1h14.3v5c-0.1,0.8-0.4,1.6-0.9,2.2c-0.4,0.5-1,1-1.7,1.4c-0.8,0.4-1.8,0.7-3.1,0.7h-12.8v9.5h24.4
		c1.1-0.1,2-0.4,2.9-1c0.7-0.4,1.4-1.1,2-2c0.6-0.9,0.9-2.1,0.9-3.6L384,58.2L384,58.2z"/>
	<path style="fill:#FFFFFF;" d="M411.5,76.4v-2.8c0.1-1.3-0.2-2-0.9-2.3c-0.3-0.1-0.6-0.1-1.1,0c-0.5,0-0.9,0.1-1.1,0.3
		c-0.2,0.2-0.4,0.5-0.4,0.8c-0.1,0.3-0.1,0.7,0,1.1v3.6l14.8,9.6c1.9,1,3.3,2.1,4.3,3.3c1,1.2,1.7,2.2,2.1,3.3
		c0.4,1.1,0.7,2.4,0.7,3.6v14.7c-0.1,2.1-0.7,3.8-1.6,5.1c-1,1.3-2,2.3-3.3,3c-1.4,0.8-3,1.4-4.7,1.8h-19.4
		c-2.4-0.1-4.3-0.7-5.7-1.8c-1.4-1.1-2.4-2.4-3-3.6c-0.8-1.5-1.2-3.3-1.4-5.2V89.2l17.4,10.6v3.7c0,0.6,0.1,1,0.2,1.3
		s0.4,0.5,0.6,0.6c0.3,0.2,0.6,0.3,1,0.3c1-0.1,1.5-0.4,1.6-1.1c0.1-0.3,0-0.6-0.1-1.1v-4.4l-12.7-7.7c-2.2-1.2-3.9-2.5-5-3.9
		c-1.1-1.4-1.9-2.6-2.4-3.7c-0.6-1.3-0.9-2.6-0.9-3.8V64.3c0.1-2.4,0.7-4.3,1.7-5.7c1-1.3,2.2-2.3,3.4-3c1.5-0.7,3.1-1.1,4.9-1.2
		h17.1c2.9,0.1,5.2,0.7,6.8,1.6c1.6,1,2.8,2,3.6,3.3c0.9,1.4,1.5,3,1.7,4.7v24.4L411.5,76.4z M409.9,68.1c1,0.1,1.8,0.4,2.3,0.7
		c0.5,0.4,1,0.8,1.3,1.2c0.3,0.5,0.5,1.1,0.7,1.7v2.8l12.5,7.5l-0.2-16.4c0.1-1.7-0.3-3-1.1-4.1s-1.7-1.9-2.6-2.4
		c-1.1-0.7-2.5-1.1-3.9-1.3h-18.6c-1.5,0.1-2.6,0.5-3.4,1.2c-0.8,0.7-1.5,1.4-1.9,2.1c-0.5,0.9-0.9,1.9-1.1,2.9v15.5
		c-0.1,1.3,0.2,2.4,0.8,3.4c0.6,1,1.2,1.8,1.9,2.5c0.8,0.8,1.7,1.6,2.8,2.2L415,97.6v6.2c0,1.2-0.3,2.2-0.8,2.8
		c-0.5,0.7-1.1,1.2-1.7,1.5c-0.7,0.4-1.5,0.6-2.5,0.8c-1.2-0.1-2.1-0.4-2.8-0.8c-0.6-0.4-1.1-0.9-1.4-1.4c-0.4-0.6-0.6-1.2-0.8-2
		v-3.1l-11.2-6.7l-0.2,15.7c0.1,1.9,0.5,3.3,1.2,4.3c0.7,1,1.5,1.7,2.4,2.3c1,0.6,2.2,0.9,3.5,1.1h18.7c1.9-0.1,3.2-0.5,4.2-1.2
		c0.9-0.8,1.6-1.6,2.1-2.5c0.5-1.1,0.8-2.3,0.8-3.6V96.5c0.1-0.8-0.1-1.5-0.6-2.3c-0.4-0.8-1-1.4-1.5-2c-0.7-0.7-1.5-1.4-2.3-2
		l-17.1-11v-7.1c0.1-1.1,0.4-1.9,0.9-2.4c0.5-0.5,1.1-0.9,1.7-1.2C408.3,68.3,409.1,68.1,409.9,68.1z"/>
	<path style="fill:#FFFFFF;" d="M468.1,54.9v17.4h-8.2v49.2h-19.4V72.3h-7.9V54.5L468.1,54.9z M464.3,58.3h-28.3v10.2h8V118h11.7
		V68.7h8.5L464.3,58.3L464.3,58.3z"/>
	<path style="fill:#FFFFFF;" d="M489.9,72.1v7.8h12.3v17.4h-12.6v7.4h12.6v17.1l-31.1-0.2V54.5h31.5v17.6L489.9,72.1L489.9,72.1z
		 M486.2,83.4V68.6h12.6V58.4h-24.2V119h24.2v-10.6H486V93.8h13V83.4H486.2z"/>
	<path style="fill:#FFFFFF;" d="M563.6,56.9c1.3,1.1,2.2,2.2,2.7,3.3c0.6,1.3,0.9,2.8,0.9,4.4v57.2h-18.2V73.7
		c-0.1-0.7-0.3-1.1-0.8-1.3c-0.3-0.1-0.5-0.1-0.8-0.1c-0.4,0-0.7,0.1-0.9,0.3c-0.2,0.2-0.4,0.4-0.5,0.6c-0.2,0.3-0.3,0.5-0.3,0.8
		v47.7h-18V74c0-0.7-0.3-1.2-0.8-1.6c-0.3-0.2-0.5-0.3-0.8-0.4c-0.4,0-0.8,0.1-1.1,0.3c-0.3,0.2-0.4,0.4-0.6,0.7
		c-0.2,0.3-0.3,0.6-0.3,1v47.4h-17.4V54.6h22.3c1.4-0.1,2.6,0,3.7,0.3c1.1,0.4,2,0.8,2.7,1.3c0.8,0.6,1.6,1.2,2.3,2
		c0.4-0.7,0.9-1.3,1.4-1.7c0.6-0.4,1.1-0.8,1.7-1c0.6-0.3,1.3-0.5,2-0.7h15C560.5,55.2,562.3,55.9,563.6,56.9z M563.8,64.1
		c-0.1-1.1-0.3-2-0.8-2.9c-0.4-0.7-1-1.4-2-2c-0.9-0.6-2.2-0.9-3.9-0.9h-13.1c-1,0.1-2,0.3-2.9,0.8c-0.8,0.4-1.5,1-2.3,1.7
		s-1.4,1.8-1.9,3.1c-0.5-1.2-1.1-2.3-1.8-3.2c-0.7-0.8-1.6-1.5-2.6-2.1c-1-0.6-2.4-0.9-4-0.9L510.6,58v60h10.6V73.5
		c-0.1-0.9,0.1-1.7,0.5-2.4c0.3-0.6,0.8-1.2,1.6-1.7c0.7-0.5,1.8-0.8,3.3-0.8c0.8,0,1.5,0.2,2.2,0.6c0.5,0.3,1,0.9,1.5,1.7
		c0.5,0.8,0.7,2,0.7,3.5V118h11.3V73.5c0-0.8,0.2-1.5,0.6-2.2c0.3-0.6,0.8-1.1,1.5-1.6c0.7-0.5,1.8-0.7,3.2-0.7
		c0.8-0.1,1.5,0,2.2,0.3c0.6,0.3,1.1,0.7,1.6,1.3c0.5,0.6,0.7,1.7,0.7,3.1V118h11.7L563.8,64.1L563.8,64.1z"/>
</g>
<polygon style="fill:#FFFFFF;" points="127.8,21 139.5,21 139.5,25.1 131.9,25.1 131.9,30 139.5,30 139.5,34.3 131.9,34.3 
	131.9,43.1 127.8,43.1 "/>
<path style="fill:#FFFFFF;" d="M152.8,43.1h-4v-3.4h-7.7l-2.3,3.4h-4.7L149.6,21h3.3L152.8,43.1L152.8,43.1z M148.8,35.5V29
	l-4.7,6.4C144.1,35.5,148.8,35.5,148.8,35.5z"/>
<polygon style="fill:#FFFFFF;" points="154.4,21 159,21 165.6,35.8 172.1,21 176.8,21 176.8,43.1 172.7,43.1 172.7,32 167.6,43.1 
	163.4,43.1 158.5,32 158.5,43.1 154.4,43.1 "/>
<polygon style="fill:#FFFFFF;" points="253.8,21 258.4,21 264.9,35.8 271.5,21 276.2,21 276.2,43.1 272.1,43.1 272.1,32 267,43.1 
	262.8,43.1 257.9,32 257.9,43.1 253.8,43.1 "/>
<rect x="178.1" y="21" style="fill:#FFFFFF;" width="4.3" height="22.1"/>
<polygon style="fill:#FFFFFF;" points="183.6,21 187.9,21 187.9,39.1 193.4,39.1 193.4,43.1 183.6,43.1 "/>
<polygon style="fill:#FFFFFF;" points="188.7,21 193.4,21 197.9,30 202.3,21 207,21 199.9,35 199.9,43.1 195.7,43.1 195.7,35 "/>
<path style="fill:#FFFFFF;stroke:#FFFFFF;stroke-width:0.3451;" d="M230.2,37.4"/>
<path style="fill:#FFFFFF;" d="M230.2,27.1c-1.9-3.6-5.6-6-9.9-6c-6.2,0-11.2,5-11.2,11.2c0,6.2,5,11.2,11.2,11.2
	c4.3,0,8.1-2.5,10-6.1l-5.1,0c-1.3,1.2-2.9,1.9-4.8,1.9c-3.9,0-7-3.1-7-7c0-3.9,3.1-7,7-7c1.8,0,3.5,0.7,4.7,1.8L230.2,27.1z"/>
<path style="fill:#FFFFFF;" d="M241.3,43.6c-6.2,0-11.3-5-11.3-11.3S235,21,241.3,21c6.2,0,11.3,5,11.3,11.3
	C252.5,38.5,247.5,43.6,241.3,43.6z M248.4,32.3c0-3.9-3.2-7.1-7.1-7.1c-3.9,0-7.1,3.2-7.1,7.1s3.2,7.1,7.1,7.1
	S248.4,36.2,248.4,32.3z"/>
<path style="fill:#FFFFFF;" d="M285,21c3.7,0.3,6.7,3.4,6.7,7.2c0,3.8-2.9,6.9-6.7,7.2l-3.2,0v7.6h-4.1V21h4.1L285,21z M281.8,25.3
	v6l3.2,0c1.4-0.3,2.5-1.5,2.5-3c0-1.5-1.1-2.7-2.5-3L281.8,25.3z"/>
<path style="fill:#FFFFFF;" d="M337.2,43.4h-4.1V21.2l5.7,0l3.2,0c3.7,0.3,6.7,3.4,6.7,7.2c0,3.1-2,5.8-4.7,6.8l4.8,8.1h-4.5
	l-6.7-11.4h-0.4L337.2,43.4L337.2,43.4z M342,31.4c1.4-0.3,2.5-1.5,2.5-3c0-1.5-1.1-2.7-2.5-3h-4.8v6L342,31.4z"/>
<path style="fill:#FFFFFF;" d="M297.1,33.8l0,3.2c0.3,1.4,1.5,2.5,3,2.5c1.5,0,2.7-1.1,3-2.5l0-3.2l0-12.6h4.2v12.6l0,3.2
	c-0.3,3.7-3.4,6.7-7.2,6.7s-6.9-2.9-7.2-6.7l0-3.2l0-12.6h4.3L297.1,33.8z"/>
<polygon style="fill:#FFFFFF;" points="311.6,43.4 315.7,43.4 315.7,25.4 319.5,25.4 319.5,21.2 307.9,21.2 307.9,25.4 311.6,25.4 
	"/>
<polygon style="fill:#FFFFFF;" points="332,43.4 320.5,43.4 320.5,21.2 332,21.2 332,25.3 324.6,25.3 324.6,30.5 332,30.5 332,34.7 
	324.6,34.7 324.6,39.3 332,39.3 "/>
<path style="fill:#FFFFFF;stroke:#FFFFFF;stroke-width:0.3451;" d="M337.2,32"/>
<g>
	<g>
		<path style="fill:#FFFFFF;" d="M3,110.4c0-4.5,2.6-8.5,6.4-10.3l0,0c0-1.9,0-4,0-6.2l0,0C3.8,90.7,0,84.7,0,77.8l0,0
			c0-6.9,3.8-12.9,9.4-16.1l0,0c0-13.8,0-25.6,0-27.8l0,0c0-7,5.7-12.7,12.7-12.7l0,0h68.3c7,0,12.7,5.7,12.7,12.7l0,0
			c0,2.2,0,14,0,27.8l0,0c5.6,3.1,9.4,9.2,9.4,16.1l0,0c0,6.9-3.8,12.9-9.4,16.1l0,0c0,2.2,0,4.2,0,6.2l0,0
			c3.8,1.9,6.4,5.8,6.4,10.3l0,0c0,6.3-5.1,11.5-11.5,11.5l0,0H65.3v-2.5c0-4.9-4-9-9-9l0,0v-2.5v-2.5c6.9,0,12.6,5,13.8,11.5l0,0
			h28.1c3.6,0,6.4-2.9,6.4-6.4l0,0c0-2.9-2-5.4-4.6-6.2l0,0l-1-0.3l-0.8-1.5v-0.6c0-2.8,0-5.9,0-9.3l0,0v-0.6l0.7-1.4l0.9-0.4
			c4.7-2.1,7.9-6.8,7.9-12.2l0,0c0-5.4-3.2-10.1-7.8-12.2l0,0l-0.2-0.1l-1.4-0.9v-1.4c0-14.5,0-27,0-29.3l0,0c0-4.3-3.4-7.7-7.7-7.7
			l0,0H22.2c-4.3,0-7.7,3.4-7.7,7.7l0,0c0,2.3,0,14.9,0,29.3l0,0v1.4l-1.1,0.7L13,65.6l-0.2,0.1C8.2,67.7,5,72.4,5,77.8l0,0
			c0,5.4,3.2,10.1,7.9,12.2l0,0l0.9,0.4l0.7,1.4v0.6c0,3.4,0,6.5,0,9.3l0,0v0.6l-0.8,1.5l-1,0.3C10,105,8,107.4,8,110.4l0,0
			c0,3.6,2.9,6.4,6.4,6.4l0,0h28.1c1.2-6.5,6.9-11.5,13.8-11.5l0,0h0.1v2.5v2.5h-0.1c-4.9,0-9,4-9,9l0,0v2.5H14.5
			C8.1,121.8,3,116.7,3,110.4L3,110.4z"/>
	</g>
	<path style="fill:#FFFFFF;" d="M11.9,112.7"/>
	<path style="fill:#FFFFFF;" d="M16.6,59.3c0-10.4,8.5-18.9,18.9-18.9l0,0c10.4,0,18.9,8.5,18.9,18.9l0,0c0,10.4-8.5,18.9-18.9,18.9
		l0,0C25.1,78.2,16.6,69.8,16.6,59.3L16.6,59.3z M19.8,59.3c0,8.7,7.1,15.8,15.8,15.8l0,0c8.7,0,15.8-7.1,15.8-15.8l0,0
		c0-8.7-7.1-15.8-15.8-15.8l0,0C26.8,43.6,19.8,50.6,19.8,59.3L19.8,59.3z"/>
	<circle style="fill:#FFFFFF;" cx="47.7" cy="59.4" r="4.4"/>
	<path style="fill:#FFFFFF;" d="M58.2,59.3L58.2,59.3c0-10.4,8.5-18.9,18.9-18.9l0,0c10.4,0,18.9,8.5,18.9,18.9l0,0
		c0,10.4-8.5,18.9-18.9,18.9l0,0C66.7,78.2,58.2,69.8,58.2,59.3L58.2,59.3z M77.1,75.1c8.7,0,15.8-7.1,15.8-15.8l0,0
		c0-8.7-7.1-15.8-15.8-15.8l0,0c-8.7,0-15.8,7.1-15.8,15.8l0,0C61.4,68,68.4,75.1,77.1,75.1L77.1,75.1z"/>
	<circle style="fill:#FFFFFF;" cx="64.9" cy="59.4" r="4.4"/>
</g>
</svg>
