<?xml version="1.0" encoding="utf-8"?>
<!-- Generator: Adobe Illustrator 24.0.1, SVG Export Plug-In . SVG Version: 6.00 Build 0)  -->
<svg version="1.1"
	 id="Layer_3" xmlns:cc="http://creativecommons.org/ns#" xmlns:dc="http://purl.org/dc/elements/1.1/" xmlns:rdf="http://www.w3.org/1999/02/22-rdf-syntax-ns#"
	 xmlns="http://www.w3.org/2000/svg" xmlns:xlink="http://www.w3.org/1999/xlink" x="0px" y="0px" viewBox="0 0 598.2 350.3"
	 style="enable-background:new 0 0 598.2 350.3;" xml:space="preserve">
<g>
	<path style="fill:#FFFFFF;" d="M510.9,158H252c-2.4,0-4-0.5-5.1-1.6c-0.7-0.7-1.1-1.7-1.2-3c1.4,2.6,4.2,4.4,7.3,4.4h80.9
		c4.6,0,8.3-3.7,8.3-8.3v-48.9c0-4.6-3.7-8.3-8.3-8.3h-81.2l0,0c-3.1,0.1-5.8,2-7.1,4.6v-0.6c0-4.6-3.7-8.3-8.3-8.3h-35.2
		c-4.6,0-8.3,3.7-8.3,8.3V111c0,1.3-0.2,2.2-0.6,2.8c-0.3,0.5-0.8,0.9-2.4,0.9h-67.5c-1,0-1.6-0.2-2-0.6c-0.5-0.5-0.8-1.6-0.8-3.1
		V96.3c0-4.6-3.7-8.3-8.3-8.3H75.8l0.1,0.1c-4,0.6-7.2,4-7.2,8.2v152.1c0,4.6,3.7,8.3,8.3,8.3h433.9c4.6,0,8.3-3.7,8.3-8.3v-82.2
		C519.2,161.7,515.4,158,510.9,158z M76.8,90.6h35.4c3.2,0,5.8,2.6,5.8,5.7V111c0,2.2,0.5,3.8,1.4,4.8c0.9,1,2.2,1.4,3.9,1.4h67.5
		c2,0,3.6-0.7,4.5-2c0.9-1.3,1-3,1-4.2V96.3c0-3.2,2.6-5.7,5.8-5.7h35.2c3.2,0,5.7,2.6,5.7,5.7v55.5c0,2.7,0.7,4.8,2,6.2
		c1.5,1.6,3.8,2.5,6.9,2.5h258.9c3.2,0,5.7,2.6,5.7,5.7v82.2c0,3.2-2.6,5.8-5.7,5.8H77c-3.2,0-5.7-2.6-5.7-5.8V96.3
		C71.3,93.2,73.7,90.7,76.8,90.6z M247.3,149.5v-48.9c0-3.2,2.6-5.7,5.7-5.7h80.9c3.2,0,5.7,2.6,5.7,5.7v48.9c0,3.2-2.6,5.7-5.7,5.7
		H253C249.9,155.2,247.3,152.6,247.3,149.5z"/>
	<path style="fill:#FFFFFF;" d="M254.5,107.8c3,0,5.4-2.4,5.4-5.3c0-3-2.4-5.4-5.4-5.4c-2.9,0-5.3,2.4-5.3,5.4
		C249.2,105.4,251.6,107.8,254.5,107.8z M251.7,102.5c0-1.6,1.3-2.8,2.8-2.8c1.6,0,2.8,1.3,2.8,2.8c0,1.5-1.3,2.8-2.8,2.8
		C253,105.3,251.7,104,251.7,102.5z"/>
	<path style="fill:#FFFFFF;" d="M273.4,107.8c2.9,0,5.3-2.4,5.3-5.3c0-3-2.4-5.4-5.3-5.4c-2.9,0-5.3,2.4-5.3,5.4
		C268,105.4,270.4,107.8,273.4,107.8z M273.4,99.7c1.5,0,2.8,1.3,2.8,2.8c0,1.6-1.2,2.8-2.8,2.8s-2.8-1.2-2.8-2.8
		C270.6,100.9,271.9,99.7,273.4,99.7z"/>
	<path style="fill:#FFFFFF;" d="M292.3,107.8c3,0,5.4-2.4,5.4-5.3c0-3-2.4-5.4-5.4-5.4c-2.9,0-5.3,2.4-5.3,5.4
		C286.9,105.4,289.3,107.8,292.3,107.8z M289.5,102.5c0-1.6,1.3-2.8,2.8-2.8c1.6,0,2.8,1.3,2.8,2.8c0,1.5-1.3,2.8-2.8,2.8
		C290.7,105.3,289.5,104,289.5,102.5z"/>
	<path style="fill:#FFFFFF;" d="M311.2,107.8c2.9,0,5.3-2.4,5.3-5.3c0-3-2.4-5.4-5.3-5.4c-2.9,0-5.3,2.4-5.3,5.4
		C305.8,105.4,308.2,107.8,311.2,107.8z M308.4,102.5c0-1.6,1.3-2.8,2.8-2.8c1.5,0,2.8,1.3,2.8,2.8c0,1.6-1.2,2.8-2.8,2.8
		C309.6,105.3,308.4,104,308.4,102.5z"/>
	<path style="fill:#FFFFFF;" d="M263.8,118.5c2.9,0,5.3-2.4,5.3-5.3c0-2.9-2.4-5.3-5.3-5.3c-3,0-5.4,2.4-5.4,5.3
		C258.4,116.1,260.8,118.5,263.8,118.5z M261,113.2c0-0.7,0.3-1.5,0.8-2s1.2-0.8,2-0.8c1.6,0,2.8,1.2,2.8,2.8c0,1.6-1.2,2.8-2.8,2.8
		C262.2,116,261,114.7,261,113.2z"/>
	<path style="fill:#FFFFFF;" d="M282.6,118.5c2.9,0,5.3-2.4,5.3-5.3c0-1.4-0.6-2.8-1.6-3.8c-1-1-2.4-1.6-3.8-1.6
		c-2.9,0-5.3,2.4-5.3,5.3C277.3,116.1,279.7,118.5,282.6,118.5z M279.9,113.2c0-1.6,1.2-2.8,2.8-2.8s2.8,1.2,2.8,2.8
		c0,1.6-1.2,2.8-2.8,2.8S279.9,114.8,279.9,113.2z"/>
	<path style="fill:#FFFFFF;" d="M301.5,118.5c2.9,0,5.3-2.4,5.3-5.3c0-2.9-2.4-5.3-5.3-5.3c-3,0-5.4,2.4-5.4,5.3
		C296.2,116.1,298.6,118.5,301.5,118.5z M301.5,110.4c1.6,0,2.8,1.2,2.8,2.8c0,1.6-1.2,2.8-2.8,2.8c-1.6,0-2.8-1.3-2.8-2.8
		S300,110.4,301.5,110.4z"/>
	<path style="fill:#FFFFFF;" d="M320.4,118.5c2.9,0,5.3-2.4,5.3-5.3c0-2.9-2.4-5.3-5.3-5.3c-2.9,0-5.3,2.4-5.3,5.3
		C315.1,116.1,317.5,118.5,320.4,118.5z M317.6,113.2c0-1.6,1.2-2.8,2.8-2.8s2.8,1.2,2.8,2.8c0,1.6-1.2,2.8-2.8,2.8
		S317.6,114.8,317.6,113.2z"/>
	<path style="fill:#FFFFFF;" d="M263.8,129.3c-3,0-5.4,2.4-5.4,5.3s2.4,5.3,5.4,5.3c2.9,0,5.3-2.4,5.3-5.3
		C269.1,131.7,266.7,129.3,263.8,129.3z M266.6,134.7c0,1.6-1.2,2.8-2.8,2.8c-1.6,0-2.8-1.3-2.8-2.8s1.3-2.8,2.8-2.8
		C265.4,131.9,266.6,133.1,266.6,134.7z"/>
	<path style="fill:#FFFFFF;" d="M286.4,130.9c-1-1-2.4-1.6-3.8-1.6c-2.9,0-5.3,2.4-5.3,5.3s2.4,5.3,5.3,5.3c2.9,0,5.3-2.4,5.3-5.3
		C288,133.2,287.4,131.9,286.4,130.9z M285.4,134.7c0,1.6-1.2,2.8-2.8,2.8s-2.8-1.2-2.8-2.8s1.2-2.8,2.8-2.8
		S285.4,133.1,285.4,134.7z"/>
	<path style="fill:#FFFFFF;" d="M301.5,129.3c-3,0-5.4,2.4-5.4,5.3s2.4,5.3,5.4,5.3c2.9,0,5.3-2.4,5.3-5.3S304.5,129.3,301.5,129.3z
		 M301.5,137.4c-1.6,0-2.8-1.3-2.8-2.8s1.3-2.8,2.8-2.8c1.6,0,2.8,1.2,2.8,2.8S303.1,137.4,301.5,137.4z"/>
	<path style="fill:#FFFFFF;" d="M320.4,129.3c-2.9,0-5.3,2.4-5.3,5.3s2.4,5.3,5.3,5.3c2.9,0,5.3-2.4,5.3-5.3
		S323.4,129.3,320.4,129.3z M323.2,134.7c0,1.6-1.2,2.8-2.8,2.8s-2.8-1.2-2.8-2.8s1.2-2.8,2.8-2.8S323.2,133.1,323.2,134.7z"/>
	<path style="fill:#FFFFFF;" d="M330,107.8c3,0,5.4-2.4,5.4-5.3c0-1.4-0.6-2.8-1.6-3.8c-1-1-2.4-1.6-3.8-1.6c-2.9,0-5.3,2.4-5.3,5.4
		C324.7,105.4,327.1,107.8,330,107.8z M327.2,102.5c0-1.6,1.3-2.8,2.8-2.8c1.6,0,2.8,1.3,2.8,2.8c0,1.5-1.3,2.8-2.8,2.8
		C328.5,105.3,327.2,104,327.2,102.5z"/>
	<path style="fill:#FFFFFF;" d="M254.5,129c3,0,5.4-2.4,5.4-5.3c0-3-2.4-5.4-5.4-5.4c-2.9,0-5.3,2.4-5.3,5.4
		C249.2,126.6,251.6,129,254.5,129z M251.7,123.7c0-0.8,0.3-1.5,0.8-2c0.5-0.5,1.2-0.8,2-0.8c1.6,0,2.8,1.3,2.8,2.8
		c0,1.5-1.3,2.8-2.8,2.8C253,126.5,251.7,125.2,251.7,123.7z"/>
	<path style="fill:#FFFFFF;" d="M273.4,129c2.9,0,5.3-2.4,5.3-5.3c0-3-2.4-5.4-5.3-5.4c-2.9,0-5.3,2.4-5.3,5.4
		C268,126.6,270.4,129,273.4,129z M273.4,120.8c1.5,0,2.8,1.3,2.8,2.8c0,1.5-1.3,2.8-2.8,2.8c-1.6,0-2.8-1.2-2.8-2.8
		C270.6,122.1,271.9,120.8,273.4,120.8z"/>
	<path style="fill:#FFFFFF;" d="M292.3,129c3,0,5.4-2.4,5.4-5.3c0-3-2.4-5.4-5.4-5.4c-2.9,0-5.3,2.4-5.3,5.4
		C286.9,126.6,289.3,129,292.3,129z M289.5,123.7c0-0.8,0.3-1.5,0.8-2s1.2-0.8,2-0.8c1.6,0,2.8,1.3,2.8,2.8c0,1.5-1.3,2.8-2.8,2.8
		C290.7,126.5,289.5,125.2,289.5,123.7z"/>
	<path style="fill:#FFFFFF;" d="M311.2,129c2.9,0,5.3-2.4,5.3-5.3c0-3-2.4-5.4-5.3-5.4c-2.9,0-5.3,2.4-5.3,5.4
		C305.8,126.6,308.2,129,311.2,129z M308.4,123.7c0-1.6,1.3-2.8,2.8-2.8c1.5,0,2.8,1.3,2.8,2.8c0,1.5-1.3,2.8-2.8,2.8
		C309.6,126.5,308.4,125.2,308.4,123.7z"/>
	<path style="fill:#FFFFFF;" d="M330,118.3c-2.9,0-5.3,2.4-5.3,5.4c0,2.9,2.4,5.3,5.3,5.3c3,0,5.4-2.4,5.4-5.3
		c0-1.4-0.6-2.8-1.6-3.8C332.8,118.9,331.4,118.3,330,118.3z M332.8,123.7c0,1.5-1.3,2.8-2.8,2.8c-1.6,0-2.8-1.2-2.8-2.8
		c0-1.6,1.3-2.8,2.8-2.8C331.6,120.8,332.8,122.1,332.8,123.7z"/>
	<path style="fill:#FFFFFF;" d="M254.5,150.2c3,0,5.4-2.4,5.4-5.3c0-2.9-2.4-5.3-5.4-5.3c-2.9,0-5.3,2.4-5.3,5.3
		C249.2,147.8,251.6,150.2,254.5,150.2z M251.7,144.9c0-0.8,0.3-1.5,0.8-2c0.5-0.5,1.2-0.8,2-0.8c1.6,0,2.8,1.3,2.8,2.8
		c0,1.5-1.3,2.8-2.8,2.8C253,147.6,251.7,146.4,251.7,144.9z"/>
	<path style="fill:#FFFFFF;" d="M273.4,139.5c-2.9,0-5.3,2.4-5.3,5.3c0,2.9,2.4,5.3,5.3,5.3c2.9,0,5.3-2.4,5.3-5.3
		C278.7,141.9,276.3,139.5,273.4,139.5z M273.4,147.6c-1.6,0-2.8-1.2-2.8-2.8c0-1.6,1.2-2.8,2.8-2.8s2.8,1.2,2.8,2.8
		C276.2,146.4,275,147.6,273.4,147.6z"/>
	<path style="fill:#FFFFFF;" d="M292.3,139.5c-2.9,0-5.3,2.4-5.3,5.3c0,2.9,2.4,5.3,5.3,5.3c3,0,5.4-2.4,5.4-5.3
		C297.6,141.9,295.2,139.5,292.3,139.5z M295.1,144.9c0,1.5-1.3,2.8-2.8,2.8c-1.6,0-2.8-1.2-2.8-2.8c0-0.8,0.3-1.5,0.8-2
		c0.5-0.5,1.2-0.8,2-0.8C293.8,142.1,295.1,143.3,295.1,144.9z"/>
	<path style="fill:#FFFFFF;" d="M311.2,139.5c-2.9,0-5.3,2.4-5.3,5.3c0,2.9,2.4,5.3,5.3,5.3c2.9,0,5.3-2.4,5.3-5.3
		C316.5,141.9,314.1,139.5,311.2,139.5z M313.9,144.9c0,1.6-1.2,2.8-2.8,2.8c-1.5,0-2.8-1.3-2.8-2.8c0-1.5,1.3-2.8,2.8-2.8
		C312.7,142.1,313.9,143.3,313.9,144.9z"/>
	<path style="fill:#FFFFFF;" d="M330,139.5c-2.9,0-5.3,2.4-5.3,5.3c0,2.9,2.4,5.3,5.3,5.3c3,0,5.4-2.4,5.4-5.3
		c0-1.4-0.6-2.8-1.6-3.8C332.8,140.1,331.4,139.5,330,139.5z M332.8,144.9c0,1.5-1.3,2.8-2.8,2.8c-1.6,0-2.8-1.2-2.8-2.8
		c0-1.6,1.2-2.8,2.8-2.8C331.6,142.1,332.8,143.3,332.8,144.9z"/>
	<path style="fill:#FFFFFF;" d="M125.9,112.8h62.8c1.9,0,3.5-1.6,3.5-3.5v-6.5c0-1.9-1.6-3.5-3.5-3.5h-29.3h-24.2h-9.3
		c-1.9,0-3.5,1.6-3.5,3.5v6.5C122.4,111.2,123.9,112.8,125.9,112.8z M162.7,101.9h25.9c0.5,0,0.9,0.4,0.9,1v6.5c0,0.5-0.4,1-0.9,1
		h-26c0.2-0.4,0.3-0.9,0.3-1.3v-6.1C162.9,102.5,162.8,102.2,162.7,101.9z M160.3,102.8v6.1c0,0.5-0.4,1-1,1h-24.2c-0.5,0-1-0.4-1-1
		v-6.1c0-0.5,0.4-1,1-1h24.2C159.9,101.9,160.3,102.3,160.3,102.8z M131.9,110.3h-6c-0.5,0-1-0.4-1-1v-6.5c0-0.5,0.4-1,1-1h5.9
		c-0.1,0.3-0.1,0.6-0.1,1v6.1C131.6,109.4,131.7,109.8,131.9,110.3z"/>
	<path style="fill:#FFFFFF;" d="M394.4,243c15.6,0,28.2-12.7,28.2-28.2s-12.7-28.2-28.2-28.2s-28.2,12.7-28.2,28.2
		S378.8,243,394.4,243z M368.7,214.8c0-14.1,11.5-25.7,25.7-25.7s25.7,11.5,25.7,25.7s-11.5,25.7-25.7,25.7S368.7,229,368.7,214.8z"
		/>
	<path style="fill:#FFFFFF;" d="M394.4,238c12.7,0,23.1-10.4,23.1-23.1c0-12.7-10.4-23.1-23.1-23.1c-12.7,0-23.1,10.4-23.1,23.1
		C371.3,227.6,381.6,238,394.4,238z M373.8,214.8c0-11.3,9.2-20.5,20.6-20.5c11.3,0,20.6,9.2,20.6,20.5c0,11.3-9.2,20.6-20.6,20.6
		S373.8,226.2,373.8,214.8z"/>
	<path style="fill:#FFFFFF;" d="M458.3,243c15.6,0,28.2-12.7,28.2-28.2s-12.7-28.2-28.2-28.2s-28.2,12.7-28.2,28.2
		S442.7,243,458.3,243z M432.6,214.8c0-14.1,11.5-25.7,25.7-25.7s25.7,11.5,25.7,25.7s-11.5,25.7-25.7,25.7S432.6,229,432.6,214.8z"
		/>
	<path style="fill:#FFFFFF;" d="M458.3,238c12.7,0,23.1-10.4,23.1-23.1c0-12.7-10.4-23.1-23.1-23.1c-12.7,0-23.1,10.4-23.1,23.1
		C435.1,227.6,445.5,238,458.3,238z M437.7,214.8c0-11.3,9.2-20.5,20.6-20.5c11.3,0,20.5,9.2,20.5,20.5c0,11.3-9.2,20.6-20.5,20.6
		C446.9,235.4,437.7,226.2,437.7,214.8z"/>
	<path style="fill:#FFFFFF;" d="M89.6,214.5h19.6c0.5,0,0.9,0,1.2,0c0,0,0,0.1,0,0.1l0,20.6c0,4,3.2,7.2,7.2,7.2h30.9
		c4,0,7.2-3.2,7.2-7.2v-20.1c0-0.3,0-0.5,0-0.6c0.2,0,0.5-0.1,1.1-0.1h19.7c4,0,7.2-3.2,7.2-7.2v-30.9c0-4-3.2-7.2-7.2-7.2h-19.7
		c-0.4,0-0.8,0-0.9,0c0-0.1-0.2-0.5-0.2-1.5v-19.3c0-4-3.2-7.2-7.2-7.2l-30.9,0c-4,0-7.2,3.2-7.2,7.2v19.2c0,0.9-0.1,1.4-0.1,1.6
		c-0.1,0-0.4,0.1-0.9,0.1H89.6c-4,0-7.2,3.2-7.2,7.2v30.9C82.4,211.2,85.7,214.5,89.6,214.5z M113,148.4c0-2.6,2.1-4.6,4.7-4.6h0.7
		l0,0h30.2c2.6,0,4.6,2.1,4.6,4.6v19.3c0,1.2,0,2.2,0.7,3.1c0.3,0.4,0.8,0.7,1.4,0.9c0.5,0.1,1,0.1,1.5,0.1h19.7
		c2.6,0,4.7,2.1,4.7,4.7v30.9c0,2.6-2.1,4.6-4.7,4.6h-19.7c-1.3,0-2.3,0.1-3,0.8c-0.3,0.3-0.5,0.7-0.6,1.3c-0.1,0.4-0.1,0.7-0.1,1.2
		v20.1c0,2.6-2.1,4.7-4.6,4.7h-30.9c-2.6,0-4.7-2.1-4.7-4.7v-20.2l0-0.3c0-0.3,0-0.6,0-0.9c0-0.4-0.2-1-0.7-1.4
		c-0.4-0.4-1-0.5-1.4-0.6c-0.4-0.1-1-0.1-1.6-0.1H89.6c-2.6,0-4.6-2.1-4.6-4.6v-30.9c0-2.6,2.1-4.7,4.6-4.7h19.9c0.6,0,1,0,1.5-0.1
		c0.6-0.1,1.1-0.5,1.4-0.9c0.6-0.8,0.6-1.7,0.6-2.9L113,148.4z"/>
	<path style="fill:#FFFFFF;" d="M87.2,176.2v31.1c0,1.3,1,2.3,2.3,2.3l25.7,0v26c0,1.3,1.1,2.3,2.3,2.3h31.1c1.3,0,2.3-1,2.3-2.3
		v-26h25.7c1.3,0,2.3-1,2.3-2.3v-31.1c0-1.3-1.1-2.4-2.3-2.4H151v-25.7c0-1.3-1-2.3-2.3-2.3l-31.1,0c-1.3,0-2.3,1.1-2.3,2.3l0,25.7
		H89.5C88.2,173.8,87.2,174.9,87.2,176.2z M117.7,174.1v-25.7h30.7v25.8c0,1.2,1,2.2,2.2,2.2h25.9v30.7h-25.8c-1.2,0-2.2,1-2.2,2.1
		v26.3h-30.7v-26.3c0-0.6-0.3-1.2-0.7-1.6c-0.4-0.4-0.9-0.5-1.5-0.5H89.7v-30.7h25.9C116.9,176.4,117.7,175.2,117.7,174.1z"/>
	<path style="fill:#FFFFFF;" d="M133.1,204.4c6.9,0,12.5-5.6,12.5-12.5c0-6.9-5.6-12.5-12.5-12.5c-6.9,0-12.5,5.6-12.5,12.5
		C120.5,198.8,126.2,204.4,133.1,204.4z M123.1,191.9c0-5.5,4.5-10,10-10c5.5,0,10,4.5,10,10c0,5.5-4.5,10-10,10
		C127.6,201.8,123.1,197.4,123.1,191.9z"/>
	<path style="fill:#FFFFFF;" d="M105.1,179.4l-12.4,12.4l12.4,12.4v-4.5h9v-15.9h-9V179.4z M111.6,186.5v10.8h-9v0.8l-6.2-6.2
		l6.2-6.2v0.9H111.6z"/>
	<path style="fill:#FFFFFF;" d="M141,210.8h-15.9v9h-4.5l12.4,12.4l10.2-10.2l2.1-2.2H141V210.8z M139.3,222.4l-6.3,6.3l-6.2-6.3
		h0.9l0-9h10.8v9H139.3z"/>
	<path style="fill:#FFFFFF;" d="M161,204.2l11.5-11.5l0.9-0.9l-12.6-12.6l0.2,1.4v3.2h-9v15.9h9V204.2z M154.6,197.2v-10.8h9v-0.9
		l6.3,6.3l-6.3,6.2v-0.8H154.6z"/>
	<path style="fill:#FFFFFF;" d="M125.1,172.9H141v-9h4.5L134,152.4l-0.9-0.9l-10.2,10.2l-2.2,2.2h4.5V172.9z M126.8,161.3l6.2-6.3
		l6.3,6.3h-0.8v9h-10.8v-9H126.8z"/>
	<path style="fill:#FFFFFF;" d="M517.3,72.3H72.2c-9.3,0-16.9,7.8-16.9,17.4v167.2c0,9.6,7.6,17.4,16.9,17.4h445.1
		c9.3,0,16.9-7.8,16.9-17.4V89.7C534.2,80.1,526.6,72.3,517.3,72.3z M531.6,89.7v167.2c0,8.2-6.4,14.8-14.3,14.8H72.2
		c-7.9,0-14.4-6.6-14.4-14.8V89.7c0-8.2,6.4-14.8,14.4-14.8h445.1C525.2,74.9,531.6,81.5,531.6,89.7z"/>
	<path style="fill:#FFFFFF;" d="M294.9,169.2c-5.6,0-10.1,4.5-10.1,10.1v1.3H305v-1.3C305,173.7,300.5,169.2,294.9,169.2z
		 M302.3,178h-14.7c0.6-3.6,3.7-6.3,7.3-6.3C298.6,171.7,301.7,174.4,302.3,178z"/>
	<path style="fill:#FFFFFF;" d="M284.6,179.3c0-5.7,4.6-10.3,10.3-10.3c5.7,0,10.3,4.6,10.3,10.3v0.5h2.6v-0.5
		c0-7.1-5.8-12.9-12.9-12.9c-7.1,0-12.8,5.8-12.8,12.9v0.5h2.5V179.3z"/>
</g>
</svg>
