<?xml version="1.0" encoding="utf-8"?>
<!-- Generator: Adobe Illustrator 24.0.1, SVG Export Plug-In . SVG Version: 6.00 Build 0)  -->
<svg version="1.1"
	 id="Layer_3" xmlns:cc="http://creativecommons.org/ns#" xmlns:dc="http://purl.org/dc/elements/1.1/" xmlns:rdf="http://www.w3.org/1999/02/22-rdf-syntax-ns#"
	 xmlns="http://www.w3.org/2000/svg" xmlns:xlink="http://www.w3.org/1999/xlink" x="0px" y="0px" viewBox="0 0 598.2 350.3"
	 style="enable-background:new 0 0 598.2 350.3;" xml:space="preserve">
<g>
	<path style="fill:#FFFFFF;" d="M144.2,114.2c0.6,1.3,1,2.3,1.2,2.9c0.3,0.7,0.8,2.2,1.6,4.4c2.6,7,7.4,19.9,12.7,33.6
		c9.2,23.9,15.3,38.3,18.5,44c4.5,8,9.7,16.2,18.7,22c9.3,5.9,21.7,8.7,39,8.7h130.2c17.4,0,29.8-2.8,39-8.7c9-5.8,14.2-14,18.7-22
		c3.3-5.7,9.3-20.1,18.5-44c5.3-13.7,10.1-26.7,12.7-33.7c0.8-2.1,1.4-3.6,1.6-4.3c0.2-0.6,0.7-1.6,1.2-2.8c1.9-4.3,5-11.5,7.3-19.4
		c4-13.7,3.9-23.5-0.3-30c-4.4-6.7-13-11.6-26.2-14.8c-11.5-2.8-24.5-3.9-34.6-4.5c-12.9-0.8-47.9-1.1-76.5-1.1l-53.2,0
		c-28.5,0-63.6,0.3-76.4,1.1c-10.1,0.6-23.1,1.7-34.6,4.5c-13.2,3.3-21.8,8.1-26.2,14.8c-4.2,6.4-4.4,16.2-0.3,30
		C139.2,102.8,142.3,109.9,144.2,114.2z M140.3,67c3.8-5.8,11.9-10.3,24-13.3c11.2-2.8,24-3.8,33.9-4.4c12.8-0.8,47.8-1.1,76.2-1.1
		l53.2,0c28.4,0,63.4,0.3,76.2,1.1c9.9,0.6,22.7,1.7,33.9,4.4c12.1,3,20.2,7.5,24,13.3c4.4,6.7,2.4,18.3-0.1,26.9
		c-2.2,7.5-5.2,14.5-7,18.6c-0.6,1.4-1.1,2.5-1.4,3.3c-0.3,0.7-0.8,2.2-1.6,4.4c-2.6,7-7.4,19.9-12.7,33.6
		c-8.9,23.2-15.3,38.2-18.3,43.5c-4.3,7.6-9.2,15.4-17.5,20.7c-8.6,5.5-20.4,8.1-37,8.1H236c-16.6,0-28.4-2.6-37-8.1
		c-8.3-5.3-13.2-13.1-17.5-20.7c-3-5.3-9.5-20.8-18.3-43.5c-5.2-13.6-10-26.5-12.6-33.5c-0.8-2.2-1.4-3.8-1.7-4.5
		c-0.3-0.8-0.8-1.9-1.4-3.3c-1.8-4.2-4.8-11.1-7-18.6C137.9,85.3,135.9,73.7,140.3,67z"/>
	<path style="fill:#FFFFFF;" d="M209.2,211.2H393c3,0,5.4-2.4,5.4-5.4V60.2c0-3-2.4-5.4-5.4-5.4H209.2c-3,0-5.4,2.4-5.4,5.4v145.5
		C203.7,208.8,206.2,211.2,209.2,211.2z M394.8,205.8c0,1-0.8,1.7-1.7,1.7H209.2c-1,0-1.8-0.8-1.8-1.7V60.2c0-1,0.8-1.7,1.8-1.7H393
		c1,0,1.7,0.8,1.7,1.7V205.8z"/>
	<path style="fill:#FFFFFF;" d="M383.1,68.4l-164,0c-1.4,0-2.6,1.2-2.6,2.6v123.8c0,1.4,1.2,2.6,2.6,2.6h164c1.4,0,2.6-1.2,2.6-2.6
		V71C385.7,69.5,384.5,68.4,383.1,68.4z M220.1,193.7V72H382v121.7H220.1z"/>
	<path style="fill:#FFFFFF;" d="M182.6,118.8c2.7,0,5-2.2,5-5s-2.2-5-5-5c-2.7,0-4.9,2.2-4.9,5S179.8,118.8,182.6,118.8z"/>
	<path style="fill:#FFFFFF;" d="M98.1,175.3c19.5,0,35.3-15.8,35.3-35.3c0-19-15.2-34.6-34-35.3l0,0h-1.3
		c-19.5,0-35.3,15.8-35.3,35.3C62.7,159.5,78.6,175.3,98.1,175.3z M98,108.4h0.4c17.2,0.2,31.2,14.3,31.2,31.6
		c0,17.4-14.2,31.6-31.6,31.6S66.4,157.4,66.4,140c0-8.4,3.3-16.4,9.3-22.4C81.7,111.7,89.6,108.4,98,108.4z"/>
	<path style="fill:#FFFFFF;" d="M98.1,171.6c17.4,0,31.6-14.2,31.6-31.6c0-17.4-14.2-31.6-31.6-31.6c-17.4,0-31.6,14.2-31.6,31.6
		C66.5,157.4,80.6,171.6,98.1,171.6z M105,128.4c0,0.3,0.1,0.6,0.2,0.9l-7.2,7.2l-7.2-7.2c0.2-0.3,0.3-0.6,0.3-1v-14
		c1.9-0.5,4.4-0.9,7-0.9c2.5,0,5.1,0.3,7,0.9v14L105,128.4z M90.8,150.7l7.2-7.2l7.2,7.2c-0.2,0.3-0.3,0.6-0.3,1v14.1
		c-1.8,0.5-4.4,0.8-6.9,0.8c0,0-0.1,0-0.1,0c-2.6,0-5.1-0.3-7-0.8v-14.1C91.1,151.3,91,150.9,90.8,150.7z M108.7,147.2l-7.2-7.2
		l7.3-7.2c0.3,0.2,0.6,0.3,0.9,0.3h14.1c0.5,1.9,0.9,4.4,0.9,7c0,2.5-0.3,5-0.9,6.9h-14.1C109.3,146.9,109,147,108.7,147.2z
		 M87.4,132.7l7.2,7.2l-7.2,7.3c-0.3-0.2-0.6-0.3-1-0.3H72.3c-0.5-1.9-0.9-4.4-0.9-7c0-2.5,0.3-5.1,0.9-7h14.1
		C86.8,133,87.1,132.9,87.4,132.7z M84.6,150.6v0.1c0,0.5,0.2,1,0.5,1.3c0.1,0.1,0.3,0.2,0.5,0.3c0.1,0.2,0.2,0.4,0.3,0.5
		c0.4,0.4,0.9,0.6,1.3,0.6h0.1v12.3c-2.8-1.2-5.5-2.8-7.7-4.8c0.6,0,1.1-0.3,1.5-0.7l3-3c0.9-0.9,0.9-2.5,0-3.4
		c-0.9-0.9-2.5-0.9-3.4,0l-3,3l-0.3,0.3v0.1c-0.2,0.3-0.4,0.7-0.4,1.1c-2-2.3-3.7-4.9-4.8-7.8H84.6z M119,158.4
		c0-0.6-0.3-1.1-0.7-1.5l-3-3c-0.2-0.2-0.4-0.4-0.7-0.5v-0.2h-1c-0.7,0-1.3,0.2-1.7,0.7c-0.5,0.4-0.7,1.1-0.7,1.7
		c0,0.6,0.2,1.3,0.7,1.7l3,3c0.4,0.4,1,0.6,1.5,0.7c-2.3,2-4.9,3.7-7.8,4.8v-12.3h0.1c0.8,0,1.4-0.4,1.7-1.1
		c0.2-0.1,0.3-0.2,0.4-0.3c0.4-0.3,0.6-0.8,0.6-1.3v-0.1h12.4C122.7,153.5,121,156.1,119,158.4z M111.5,129.3L111.5,129.3
		c0-0.8-0.4-1.4-1.1-1.7c-0.1-0.2-0.2-0.4-0.4-0.5c-0.3-0.3-0.8-0.5-1.3-0.5h-0.1v-12.4c2.9,1.2,5.5,2.8,7.8,4.8
		c-0.6,0-1.1,0.3-1.5,0.7l-3,3c-0.9,0.9-0.9,2.5,0,3.4c0.5,0.5,1.1,0.7,1.7,0.7s1.2-0.2,1.7-0.7l3-3c0.4-0.4,0.6-0.9,0.7-1.5
		c2,2.3,3.7,4.9,4.8,7.7H111.5z M77.1,121.6c0,0.6,0.3,1.1,0.7,1.5l3,3c0.5,0.5,1.1,0.7,1.7,0.7c0.6,0,1.2-0.2,1.7-0.7
		c0.5-0.5,0.7-1.1,0.7-1.7c0-0.6-0.2-1.3-0.7-1.7l-3-3c-0.2-0.2-0.4-0.3-0.7-0.5V119h-0.8c2.3-2,4.9-3.6,7.7-4.8v12.4h-0.1
		c-0.7,0-1.3,0.4-1.6,1c-0.7,0.3-1.1,1-1.1,1.7v0.1H72.3C73.5,126.5,75.1,123.9,77.1,121.6z"/>
	<path style="fill:#FFFFFF;" d="M555.5,64.4c-1-5.3-1.9-8.7-3.1-11.3c-1.4-3-3.1-5.2-5.6-6.8c-4.7-3-11.6-3.8-23.1-5.2l-0.8-0.1
		c-5.2-0.6-14.9-1.4-28-2.4c-0.1,0-0.3,0-0.4,0c-0.6,0.1-1.2,0.3-1.6,0.6c-0.1,0.1-0.2,0.1-0.2,0.2l-1.7-0.1
		c-0.1-0.1-0.1-0.2-0.2-0.3c-0.2-0.2-0.4-0.4-0.6-0.5c-0.1-0.1-0.3-0.2-0.5-0.2c-0.2-0.1-0.4-0.1-0.6-0.1
		c-47.5-3.3-119.7-6.8-166-6.8l-43.9,0c-23,0-52.4,0.9-81.9,2.1l-0.1-1.1c0-0.5-0.2-0.9-0.6-1.3c-0.3-0.3-0.8-0.5-1.2-0.5l0,0
		l-45.9,2.3c-0.5,0-0.9,0.2-1.3,0.6c-0.3,0.4-0.5,0.8-0.5,1.4l0.1,1.1c-12.4,0.7-24,1.4-34.5,2.2c-0.2,0-0.5,0.1-0.7,0.2
		c-0.1,0.1-0.2,0.1-0.3,0.2c-0.1,0.1-0.4,0.3-0.6,0.5c-0.1,0.1-0.1,0.2-0.2,0.3l-1.7,0.1c-0.1-0.1-0.2-0.2-0.2-0.2
		c-0.4-0.3-1-0.5-1.6-0.6c-0.1,0-0.2,0-0.3,0l-0.5,0c-12.8,0.9-22.3,1.7-27.5,2.3l-0.8,0.1c-11.5,1.3-18.4,2.1-23.1,5.2
		c-2.5,1.6-4.2,3.7-5.6,6.8c-1.2,2.6-2.1,6-3.1,11.3c-8.6,45.2-10.1,124.4-8.4,166.2l0.1,2.5c0.8,18.9,1.3,33.8,8.2,45.3
		c7.6,12.9,22.3,19.9,47.8,22.7c59.4,6.7,178,6.8,179.1,6.8h55.1c1.2,0,119.7-0.1,179.1-6.8c25.5-2.9,40.2-9.9,47.8-22.7
		c6.8-11.6,7.4-26.5,8.2-45.5l0.1-2.3C565.5,188.9,564,109.7,555.5,64.4z M279.1,35.2h43.9c45.7,0,116.7,3.4,164.1,6.7
		c-3,7.9-9.7,27.1-17.3,49.1c-2.8,8-5.7,16.5-8.7,25c-11.3,32.4-23.6,67.1-28.6,78.4c-6,13.6-12.5,23-20.4,29.6
		c-9.4,7.8-21,11.6-35.4,11.6H225.5c-14.5,0-26.1-3.8-35.5-11.6c-7.9-6.5-14.4-15.9-20.4-29.6c-5.1-11.6-18-48-28.6-78.4
		c-3-8.7-6-17.3-8.9-25.5C124.6,68.7,118,49.7,115,41.8C162.3,38.6,233.4,35.2,279.1,35.2z M129.4,93.7c2.6,7.6,5.4,15.5,8.2,23.4
		c11.4,32.5,23.6,67.3,28.7,78.7c6.2,14.2,13,24,21.4,30.9c10.1,8.4,22.4,12.4,37.8,12.4h151.3c15.3,0,27.7-4.1,37.8-12.4
		c8.4-6.9,15.2-16.8,21.4-30.9c5-11.4,16.7-44.5,28.7-78.7c2.5-7.1,4.9-14.1,7.3-20.9c8.3-23.9,15.6-44.8,18.7-53l0.3,0
		c-1.7,4.4-4.3,11.8-8,22.4l-0.1,0.3l0,0c-0.4,1.2-0.3,2.3,0.1,3.2c0.2,0.5,0.6,0.9,1,1.3c-0.3,0-0.7,0.1-1.1,0.2
		c-0.8,0.3-1.4,1-1.8,1.9l-8.3,24.6l0,0.1c-0.2,0.6-0.3,1.1-0.3,1.5c0,0.7,0.1,1.3,0.5,1.8c0.2,0.4,0.5,0.6,0.8,0.8
		c-0.8,0-1.5,0.1-2.1,0.4c-0.8,0.4-1.4,1.1-1.9,2c0,0.1-0.1,0.1-0.1,0.2l0,0.1c-13.8,39.5-28.9,82.6-34.4,95.2
		c-11.6,26.7-31.5,40.2-59,40.2H226.1c-27.5,0-47.4-13.5-59-40.2c-5-11.5-18.3-49.2-29.4-80.8c-2.6-7.4-5.1-14.7-7.6-21.7
		c-8.3-23.8-15.6-44.7-19-53.7l0.3,0C114.6,51.1,121.5,70.9,129.4,93.7z M493,86.3c0,7.1-5.8,12.9-12.9,12.9c-1.3,0-2.6-0.2-3.6-0.5
		c-0.1,0-0.2-0.1-0.3-0.1c0-0.1,0-0.1,0.1-0.2l8.2-24.2l0.1-0.1C489.5,76,493,80.8,493,86.3z M107,42.4c2.9,7.4,10.6,29.6,19.5,55.1
		c2.5,7.2,5.1,14.7,7.8,22.2c12.4,35.5,24.6,69.9,29.4,81.1c12.3,28.2,33.2,42.4,62.4,42.4H376c29.1,0,50.1-14.3,62.4-42.4
		c5.5-12.5,19.4-52.2,34.4-95.2l0,0c0.2-0.4,0.4-0.5,0.4-0.5c0.1,0,0.2-0.1,0.7,0l0.2,0.1h0c1.9,0.6,3.8,0.9,5.7,0.9
		c10.9,0,19.7-8.9,19.7-19.7c0-8.1-5-15.5-12.5-18.4c-0.5-0.2-0.7-0.4-0.7-0.4c-0.1-0.2,0-0.5,0.1-0.7c4.2-12,7.3-20.5,8.8-24.4
		c12.4,0.9,22,1.7,27.3,2.3c12.1,1.4,18.6,2.3,22.4,4.7c1.8,1.2,3.1,2.8,4.2,5.2c1,2.3,1.9,5.5,2.8,10.5c8.5,45,10,123.8,8.3,165.4
		l-0.1,1.5c-0.8,18.9-1.4,33.8-7.7,44.5c-7,11.8-20.9,18.3-45.1,21c-49,5.5-145.6,6.7-178.7,6.7h-55.1c-33.1,0-129.7-1.2-178.7-6.7
		c-24.2-2.7-38.1-9.2-45.1-21c-6.3-10.7-6.9-25.5-7.7-44.3l-0.1-1.8c-1.7-41.6-0.2-120.5,8.3-165.4c0.9-4.8,1.8-8.1,2.9-10.5
		c1.1-2.4,2.4-4,4.2-5.2c3.8-2.4,10.3-3.3,22.3-4.7C84.9,44.1,94.6,43.3,107,42.4z"/>
	<path style="fill:#FFFFFF;" d="M481.1,87.4c0,2.2,1.8,3.9,3.9,3.9c2.2,0,4-1.8,4-3.9c0-2.2-1.8-4-4-4
		C482.9,83.4,481.1,85.2,481.1,87.4z"/>
	<path style="fill:#FFFFFF;" d="M456.1,222.3c2.4,2.1,5.7,3.1,9.5,3.1c0.9,0,1.8-0.1,2.7-0.2c4.6-0.5,9.9-2.4,15.8-5.5
		c11.8-6.3,24.5-17.1,35.8-30.5c11.3-13.3,19.9-27.7,24.3-40.3c2.1-6.2,3.1-11.8,2.9-16.5c-0.2-5.1-1.9-9.1-4.9-11.6
		c-1.4-1.1-3-2-4.9-2.5c-0.1,0-0.3,0-0.3,0c0,0-0.4-0.1-0.8-0.4c-3.6-4.5-8.8-7.2-14.6-7.4l-0.7,0c-10.7,0-19.4,8.7-19.4,19.4l0,0.2
		c0,0.1,0,0.3,0,0.4c0,0.2,0,0.3,0,0.5c0,0.2,0,0.5,0,0.6c0,0,0,0,0,0c-4,3-8,6.5-12,10.3c-0.1,0-0.2,0-0.5-0.1l-0.2-0.1l-0.1,0
		c-2.2-0.8-4.5-1.3-6.9-1.3c-10.7,0-19.4,8.7-19.4,19.4c0,3.6,1,7.1,2.9,10.2l0.2,0.3c0.2,0.3,0.2,0.4,0.2,0.4c0,0,0,0,0,0.2l0,0
		c-7,10.9-11.7,21.4-13.6,30.4C450.1,211.1,451.5,218.3,456.1,222.3z M503.9,134.5c0.8-0.6,1.1-1.5,1.3-2.1
		c1.2,7.6,7.8,13.5,15.8,13.5c8.9,0,16.1-7.2,16.1-16c0-3.2-1-6.2-2.6-8.7c0.8,0.5,1.5,0.7,2.1,0.8l0,0c1.3,0.4,2.4,1,3.3,1.8
		c2.2,1.9,3.4,4.9,3.6,9c0.2,4.2-0.7,9.4-2.7,15.1c-4.2,12.2-12.5,26.1-23.6,39.1c-11,13-23.4,23.5-34.7,29.6
		c-5.3,2.9-10.3,4.6-14.5,5.1c-4.1,0.5-7.2-0.2-9.4-2.1c-3.5-3-4.5-9.2-2.8-17.3c1.8-8.5,6.5-18.9,13.1-29.2l0.2-0.3
		c0.4-0.8,0.5-1.7,0.4-2.5c0-0.1-0.1-0.2-0.1-0.3c2.9,3.7,7.5,6.1,12.6,6.1c8.9,0,16.1-7.2,16.1-16.1c0-6.2-3.6-11.6-8.8-14.3
		c0.9,0.1,1.8-0.1,2.6-0.6c0.1,0,0.2-0.1,0.3-0.2C495.9,141,499.9,137.6,503.9,134.5z M512.3,121.1c2.3-2.3,5.4-3.6,8.7-3.6
		c6.8,0,12.4,5.6,12.4,12.4c0,6.8-5.6,12.4-12.4,12.4c-6.8,0-12.4-5.5-12.4-12.4C508.7,126.6,509.9,123.5,512.3,121.1z M481.8,147.5
		c6.8,0,12.4,5.5,12.4,12.4c0,6.8-5.6,12.4-12.4,12.4c-6.8,0-12.4-5.6-12.4-12.4c0-3.3,1.3-6.4,3.6-8.7
		C475.4,148.8,478.5,147.5,481.8,147.5z"/>
</g>
</svg>
