<?xml version="1.0" encoding="utf-8"?>
<!-- Generator: Adobe Illustrator 24.0.1, SVG Export Plug-In . SVG Version: 6.00 Build 0)  -->
<svg version="1.1"
	 id="Layer_1" inkscape:version="0.91 r13725" sodipodi:docname="gg.svg" xmlns:cc="http://creativecommons.org/ns#" xmlns:dc="http://purl.org/dc/elements/1.1/" xmlns:inkscape="http://www.inkscape.org/namespaces/inkscape" xmlns:rdf="http://www.w3.org/1999/02/22-rdf-syntax-ns#" xmlns:sodipodi="http://sodipodi.sourceforge.net/DTD/sodipodi-0.dtd" xmlns:svg="http://www.w3.org/2000/svg"
	 xmlns="http://www.w3.org/2000/svg" xmlns:xlink="http://www.w3.org/1999/xlink" x="0px" y="0px" viewBox="0 0 566.9 100.8"
	 style="enable-background:new 0 0 566.9 100.8;" xml:space="preserve">
<sodipodi:namedview  bordercolor="#666666" borderopacity="1" gridtolerance="10" guidetolerance="10" id="namedview20" inkscape:current-layer="Layer_1" inkscape:cx="225.89076" inkscape:cy="87.003895" inkscape:pageopacity="0" inkscape:pageshadow="2" inkscape:window-height="480" inkscape:window-width="640" inkscape:zoom="0.93662519" objecttolerance="10" pagecolor="#ffffff" showgrid="false">
	</sodipodi:namedview>
<g id="g3">
	<g id="g5">
		<path id="path5" style="fill:#FFFFFF;" d="M213.3,72c-4.8,6.5-9.5,8.3-11.6,9.3c-2.1,1-5.2,1.8-7.9,1.8c-7.7,0-13.7-2.5-18-7.5
			c-4.3-5-6.5-12-6.5-21.2c0-10.8,2.7-19.9,8.2-27.5c5.5-7.5,12.7-11.3,21.7-11.3c6.8,0,12.4,1.9,16.8,5.8c4.4,3.8,6.6,9.9,6.6,18.1
			h-13.2c0-3.9-0.9-6.7-2.6-8.3c-1.7-1.6-4.2-2.4-7.5-2.4c-5.3,0-9.4,2.6-12.4,7.8c-2.9,5.2-4.4,11.1-4.4,17.7c0,4.5,1,8.2,2.8,11.1
			c1.9,2.9,4.7,4.3,8.5,4.3c3.9,0,7-1.1,9.2-3.4c2.2-2.2,3.8-5.1,4.8-8.6h-12.3l2-12h24l-2,11.6C219.6,57.6,218.1,65.5,213.3,72
			L213.3,72z"/>
		<polygon id="polygon9" style="fill:#FFFFFF;" points="327.6,17.4 316.9,81.5 305.3,81.5 314.4,31.8 294.3,81.5 284.8,81.5 
			280.4,31.8 273.5,81.5 261.8,81.5 272.5,17.4 288.9,17.4 292.6,62.5 311.1,17.2 		"/>
		<polygon id="polygon11" style="fill:#FFFFFF;" points="339.9,42.2 358.8,42.2 356.8,54.7 337.9,54.7 335.5,68.3 356.8,68.3 
			354.7,81.5 321.1,81.5 331.7,17.3 365,17.3 362.9,30.6 342,30.6 		"/>
		<path id="path13" style="fill:#FFFFFF;" d="M239.1,17.2l-25.9,64.3h12.6l4.6-12.5h16.5l1.1,12.5h12.2l-7.3-64.3L239.1,17.2
			L239.1,17.2z M234.4,58l9.4-25.6L246,58H234.4z"/>
	</g>
	<g id="g11">
		<path id="path5_1_" style="fill:#FFFFFF;" d="M430.3,72c-4.8,6.5-9.5,8.3-11.6,9.3c-2.1,1-5.2,1.8-7.9,1.8c-7.7,0-13.7-2.5-18-7.5
			c-4.3-5-6.5-12-6.5-21.2c0-10.8,2.7-19.9,8.2-27.5c5.5-7.5,12.7-11.3,21.7-11.3c6.8,0,12.4,1.9,16.8,5.8c4.4,3.8,6.6,9.9,6.6,18.1
			h-13.2c0-3.9-0.9-6.7-2.6-8.3c-1.7-1.6-4.2-2.4-7.5-2.4c-5.3,0-9.4,2.6-12.4,7.8c-2.9,5.2-4.4,11.1-4.4,17.7c0,4.5,1,8.2,2.8,11.1
			c1.9,2.9,4.7,4.3,8.5,4.3c3.9,0,7-1.1,9.2-3.4c2.2-2.2,3.8-5.1,4.8-8.6h-12.3l2-12h24l-2,11.6C436.6,57.6,435,65.5,430.3,72
			L430.3,72z"/>
		<polygon id="polygon15" style="fill:#FFFFFF;" points="455,42.2 473.9,42.2 471.9,54.7 453,54.7 450.6,68.3 471.9,68.3 
			469.8,81.6 436.2,81.6 446.8,17.3 480.1,17.3 478,30.6 457.1,30.6 		"/>
		<path id="path17" style="fill:#FFFFFF;" d="M496.8,17.3l-25.9,64.3h12.6l4.6-12.5h16.5l1.1,12.5h12.2l-7.3-64.3
			C510.6,17.3,496.8,17.3,496.8,17.3z M492.2,58l9.4-25.6l2.2,25.6H492.2z"/>
		<path id="path19" style="fill:#FFFFFF;" d="M537.5,45.5l2.8-15.8h6.8c2.5,0,4.3,0.4,5.6,1.3c1.2,0.9,1.9,2.7,1.9,5.4
			c0,3-1,5.3-3,6.8c-2,1.5-4.6,2.2-7.7,2.2L537.5,45.5L537.5,45.5z M529.9,17.3l-10.6,64.3h12.3l4.1-24.5h5.7l9.5,24.5H565
			l-10.5-27.1c3.7-1.9,6.8-5,9-8.3c2.3-3.4,3.4-7.3,3.4-11.7c0-6.1-1.4-10.4-4.1-13.1c-2.7-2.7-6.6-4-11.6-4L529.9,17.3L529.9,17.3z
			"/>
	</g>
	<path id="path21" style="fill:#FFFFFF;" d="M10.3,42c10.9-18.2,25.8-29.6,33.4-25.4c7.6,4.2,4.9,22.3-6,40.5
		C26.8,75.3,11.9,86.6,4.3,82.5C-3.3,78.3-0.6,60.2,10.3,42z"/>
	<path id="path21_2_" style="fill:#FFFFFF;" d="M58.8,42c10.9-18.2,25.8-29.6,33.4-25.4c7.6,4.2,4.9,22.3-6,40.5
		C75.4,75.3,60.4,86.6,52.9,82.5C45.3,78.3,48,60.2,58.8,42z"/>
	<path id="path21_3_" style="fill:#FFFFFF;" d="M107.4,42c10.9-18.2,25.8-29.6,33.4-25.4c7.6,4.2,4.9,22.3-6,40.5
		C124,75.3,109,86.6,101.5,82.5C93.9,78.3,96.6,60.2,107.4,42z"/>
</g>
</svg>
