<?xml version="1.0" encoding="utf-8"?>
<!-- Generator: Adobe Illustrator 24.0.1, SVG Export Plug-In . SVG Version: 6.00 Build 0)  -->
<svg version="1.1" id="레이어_1" xmlns="http://www.w3.org/2000/svg" xmlns:xlink="http://www.w3.org/1999/xlink" x="0px"
	 y="0px" viewBox="0 0 566.9 129.2" style="enable-background:new 0 0 566.9 129.2;" xml:space="preserve">
<g>
	<path style="fill:#FFFFFF;" d="M295,58l-8.5-0.1l-4.4,10.1l-6.9-6.2c5.2-5,5.8-6.2,6.1-11c0.3-4.8-4.1-10.8-12.3-10.8
		c-8.2,0-11.4,6.7-11.4,11.2c0,4.4,2.4,7.2,5.4,10c-5,3.3-9,6.4-9,16.1c0,7.4,6.6,14,16,14c9.4,0,13.4-7.5,14.7-10.2
		c3.1,2.9,10.2,9.3,10.2,9.3l5.2-5.7l-11.9-11.2L295,58z M269.5,47.8c2,0,4,1.1,4,3.6c0,2.9-4,5.2-4,5.2c-3.3-2.7-4.1-3.2-4.1-5.5
		C265.4,48.7,267.7,47.8,269.5,47.8z M270,83.7c-3.1,0-8.3-0.9-8.3-6.7c0-5.8,2.2-7.1,7.4-10.4c0,0,8.2,7.4,9.9,8.9
		C276.4,82.3,273.1,83.7,270,83.7z"/>
	<polygon style="fill:#FFFFFF;" points="163.4,74.4 163.4,39.2 155.1,39.2 121.2,90.1 131.5,90.1 155,54.8 155,90.3 163.4,90.3 
		187.1,55 187.1,90.1 195.6,90.1 195.6,39.3 187.1,39.3 	"/>
	<polygon style="fill:#FFFFFF;" points="202.9,90.2 229,90.2 229,81.6 211.4,81.6 211.4,69.6 229.1,69.6 229.1,60.9 211.5,60.9 
		211.5,47.9 229.1,47.9 229.1,39.3 202.9,39.3 	"/>
	<path style="fill:#FFFFFF;" d="M76.3,90.4h10.4l7.2-11.1h16.4v11.1h8.4V39.3h-8.6L76.3,90.4z M110.2,70.5H99.8l10.4-15.6V70.5z"/>
	<path style="fill:#FFFFFF;" d="M82.4,73.9v-8.5H55.3v0v8.3v0.1h17.2c-3,6.7-9.7,11.3-17.5,11.3c-10.6,0-19.2-8.6-19.2-19.2
		c0-10.6,8.6-19.2,19.2-19.2c6.6,0,12.4,3.3,15.8,8.4l8.8,0c-4.2-9.4-13.6-16-24.6-16c-14.8,0-26.9,12-26.9,26.9
		c0,14.8,12,26.9,26.9,26.9c12.1,0,22.3-8,25.7-19H82.4z"/>
	<rect x="62" y="55.2" style="fill:#FFFFFF;" width="26.3" height="5.3"/>
	<path style="fill:#FFFFFF;" d="M367.8,88.9h10.4l7.2-11.1h16.3v11.1h8.4V37.9h-8.6L367.8,88.9z M401.7,69h-10.3l10.3-15.6V69z"/>
	<path style="fill:#FFFFFF;" d="M466.1,81.6c-10.2,0-18.4-8.3-18.4-18.4c0-10.2,8.3-18.4,18.4-18.4c5.4,0,10.2,2.3,13.6,5.9l9.9,0
		c-4.5-8.4-13.4-14.2-23.6-14.2c-14.7,0-26.7,12-26.7,26.7c0,14.7,12,26.7,26.7,26.7c10.4,0,19.4-6,23.8-14.7l-9.7,0
		C476.7,79.2,471.7,81.6,466.1,81.6z"/>
	<polygon style="fill:#FFFFFF;" points="384.9,38.1 361.7,73.3 361.7,38.2 353,38.2 329.7,73.4 329.7,38.1 320.9,38.1 320.9,89 
		329.7,89 352.9,54.2 352.9,88.9 361.8,88.9 395.4,38.1 	"/>
	<polygon style="fill:#FFFFFF;" points="441.5,38 413.3,38 413.2,46.7 423,46.7 423,88.8 431.7,88.8 431.7,46.6 441.5,46.6 	"/>
	<polygon style="fill:#FFFFFF;" points="516.7,58.7 500.8,58.7 500.8,38.1 492.2,38.1 492.2,89 500.8,89 500.8,67.4 516.5,67.4 
		516.5,88.9 525.3,88.9 525.3,38.1 516.7,38.1 	"/>
	<path style="fill:#FFFFFF;" d="M551.9,22H11.5c-4.7,0-8.6,3.8-8.6,8.6v66.3c0,4.7,3.8,8.6,8.6,8.6h540.4c4.7,0,8.6-3.8,8.6-8.6
		V30.5C560.5,25.8,556.6,22,551.9,22z M558.9,96.7c0,4.1-3.3,7.4-7.4,7.4H11.9c-4.1,0-7.4-3.3-7.4-7.4V30.8c0-4.1,3.3-7.4,7.4-7.4
		h539.6c4.1,0,7.4,3.3,7.4,7.4V96.7z"/>
</g>
</svg>
