<?xml version="1.0" encoding="utf-8"?>
<!-- Generator: Adobe Illustrator 24.0.1, SVG Export Plug-In . SVG Version: 6.00 Build 0)  -->
<svg version="1.1" id="Layer_4" xmlns="http://www.w3.org/2000/svg" xmlns:xlink="http://www.w3.org/1999/xlink" x="0px" y="0px"
	 viewBox="0 0 598.2 350.3" style="enable-background:new 0 0 598.2 350.3;" xml:space="preserve">
<g>
	<path style="fill:#FFFFFF;" d="M131.3,213.7c-14.7,0-26.7,12-26.7,26.7c0,14.7,12,26.7,26.7,26.7c14.7,0,26.7-12,26.7-26.7
		C158,225.7,146,213.7,131.3,213.7z M153.6,240.4c0,12.3-10,22.3-22.3,22.3c-12.3,0-22.3-10-22.3-22.3c0-12.3,10-22.3,22.3-22.3
		C143.6,218.1,153.6,228.1,153.6,240.4z"/>
	<path style="fill:#FFFFFF;" d="M131.3,220.5c-10.9,0-19.9,8.9-19.9,19.9c0,10.9,8.9,19.9,19.9,19.9c10.9,0,19.9-8.9,19.9-19.9
		C151.1,229.5,142.2,220.5,131.3,220.5z M146.8,240.4c0,8.5-7,15.5-15.5,15.5c-8.5,0-15.5-7-15.5-15.5c0-8.5,7-15.5,15.5-15.5
		C139.8,224.9,146.8,231.9,146.8,240.4z"/>
	<path style="fill:#FFFFFF;" d="M483.5,267.1c14.7,0,26.7-12,26.7-26.7c0-14.7-12-26.7-26.7-26.7c-14.7,0-26.7,12-26.7,26.7
		C456.9,255.1,468.8,267.1,483.5,267.1z M461.2,240.4c0-12.3,10-22.3,22.3-22.3c12.3,0,22.3,10,22.3,22.3c0,12.3-10,22.3-22.3,22.3
		C471.3,262.7,461.3,252.7,461.2,240.4z"/>
	<path style="fill:#FFFFFF;" d="M483.5,260.3L483.5,260.3c11,0,19.9-8.9,19.9-19.9c0-10.9-8.9-19.9-19.9-19.9
		c-10.9,0-19.9,8.9-19.9,19.9c0,5.3,2.1,10.3,5.8,14C473.2,258.2,478.2,260.3,483.5,260.3z M468,240.4c0-8.5,7-15.5,15.5-15.5
		c8.5,0,15.5,7,15.5,15.5c0,8.5-7,15.5-15.5,15.5C475,255.9,468.1,248.9,468,240.4z"/>
	<path style="fill:#FFFFFF;" d="M227.4,279.4c-4.5,0-8.1,3.6-8.1,8.1c0,4.5,3.6,8.1,8.1,8.1c4.5,0,8.1-3.6,8.1-8.1
		C235.5,283.1,231.9,279.4,227.4,279.4z M231.1,287.5c0,2.1-1.7,3.7-3.7,3.7c-2.1,0-3.7-1.7-3.7-3.7c0-2.1,1.7-3.7,3.7-3.7
		C229.4,283.8,231.1,285.5,231.1,287.5z"/>
	<path style="fill:#FFFFFF;" d="M320,272.1h-11.8c-8.5,0-15.4,6.9-15.4,15.4c0,8.2,6.4,14.9,14.4,15.4l2,0H320
		c8.5,0,15.4-6.9,15.4-15.4C335.4,279,328.5,272.1,320,272.1z M308.1,276.5H320c6.1,0,11,5,11,11c0,6.1-5,11-11,11h-11.8
		c-6.1,0-11-5-11-11C297.1,281.5,302.1,276.5,308.1,276.5z"/>
	<path style="fill:#FFFFFF;" d="M307.9,296.6L307.9,296.6l12.5,0.1c5.2,0,9.5-4.3,9.5-9.5c0-5.2-4.3-9.5-9.5-9.5h-11.5
		c-5.2,0-9.5,4.3-9.5,9.5C299.4,292,303.2,296.1,307.9,296.6z M308.9,282h11.5c2.8,0,5.1,2.3,5.1,5.1c0,2.8-2.3,5.1-5.1,5.1h-11.5
		c-2.8,0-5.1-2.3-5.1-5.1C303.8,284.3,306.1,282,308.9,282z"/>
	<path style="fill:#FFFFFF;" d="M370,272.1h-11.9c-8.5,0-15.4,6.9-15.4,15.4c0,8.2,6.4,14.9,14.4,15.4l2,0H370
		c8.5,0,15.4-6.9,15.4-15.4C385.4,279,378.4,272.1,370,272.1z M358.1,276.5h11.8c6.1,0,11,5,11,11c0,6.1-5,11-11,11h-11.8
		c-6.1,0-11-5-11-11C347.1,281.5,352,276.5,358.1,276.5z"/>
	<path style="fill:#FFFFFF;" d="M420.5,272.1h-11.8c-8.5,0-15.4,6.9-15.4,15.4c0,8.2,6.4,14.9,14.4,15.4l2,0h10.8
		c8.5,0,15.4-6.9,15.4-15.4C435.9,279,429,272.1,420.5,272.1z M408.6,276.5h11.8c6.1,0,11,5,11,11c0,6.1-5,11-11,11h-11.8
		c-6.1,0-11-5-11-11C397.6,281.5,402.6,276.5,408.6,276.5z"/>
	<path style="fill:#FFFFFF;" d="M357.9,296.6L357.9,296.6l12.5,0.1c5.2,0,9.5-4.3,9.5-9.5c0-5.2-4.3-9.5-9.5-9.5h-11.5
		c-5.2,0-9.5,4.3-9.5,9.5C349.4,292,353.1,296.1,357.9,296.6z M358.9,282h11.5c2.8,0,5.1,2.3,5.1,5.1c0,2.8-2.3,5.1-5.1,5.1h-11.6
		c-2.8-0.1-5-2.3-5-5.1C353.8,284.3,356.1,282,358.9,282z"/>
	<path style="fill:#FFFFFF;" d="M204.6,236.1l204.6,0c6.7,0,12.3-5.2,12.8-11.8h0V89c0-7.1-5.8-12.8-12.8-12.8l-204.6,0
		c-7.1,0-12.8,5.8-12.8,12.8v134.3C191.8,230.4,197.5,236.1,204.6,236.1z M204.6,80.5h204.6c4.7,0,8.5,3.8,8.5,8.5v134.3
		c0,4.7-3.8,8.5-8.5,8.5H204.6c-4.7,0-8.5-3.8-8.5-8.5V89C196.2,84.3,200,80.5,204.6,80.5z"/>
	<path style="fill:#FFFFFF;" d="M205.8,228.8H408c3.8,0,6.9-3.1,6.9-6.9V90.4c0-3.8-3.1-6.9-6.9-6.9H205.8c-3.8,0-6.9,3.1-6.9,6.9
		v131.5C198.9,225.7,202,228.8,205.8,228.8z M203.3,221.9V90.4c0-1.4,1.1-2.6,2.6-2.6H408c1.4,0,2.6,1.1,2.6,2.6v131.5
		c0,1.4-1.1,2.6-2.6,2.6l-202.2,0C204.4,224.4,203.3,223.3,203.3,221.9z"/>
	<path style="fill:#FFFFFF;" d="M176.6,269.6l260.6,0c3.8,0,6.9-3.1,6.9-6.9V53c0-3.8-3.1-6.9-6.9-6.9H176.6c-3.8,0-6.9,3.1-6.9,6.9
		v209.7C169.7,266.5,172.8,269.6,176.6,269.6z M176.6,50.4h260.6c1.4,0,2.6,1.1,2.6,2.6v209.7c0,1.4-1.1,2.6-2.6,2.6H176.6
		c-1.4,0-2.6-1.1-2.6-2.6V53C174,51.6,175.2,50.4,176.6,50.4z"/>
	<path style="fill:#FFFFFF;" d="M83.8,317.1l445.8,0c1.9,0,3.4-1.5,3.4-3.4v-280c0-1.9-1.5-3.4-3.4-3.4H83.8c-1.9,0-3.4,1.5-3.4,3.4
		v280C80.4,315.6,81.9,317.1,83.8,317.1z M528.6,34.7l0,278H84.8v-278L528.6,34.7z"/>
	<path style="fill:#FFFFFF;" d="M540,15.5H73.3c-4.5,0-8.1,3.6-8.1,8.1l0,300.1c0,4.5,3.6,8.1,8.1,8.1l466.8,0
		c4.5,0,8.1-3.6,8.1-8.1V23.7C548.2,19.2,544.5,15.5,540,15.5z M73.3,19.9H540c2.1,0,3.7,1.7,3.7,3.7l0,300.1c0,2.1-1.7,3.7-3.7,3.7
		H73.3c-2.1,0-3.7-1.7-3.7-3.7V23.7C69.6,21.6,71.2,19.9,73.3,19.9z"/>
	<path style="fill:#FFFFFF;" d="M108.9,106.9h44.6c4.5,0,8.1-3.6,8.1-8.1V62.1c0-4.5-3.6-8.1-8.1-8.1h-44.6c-4.5,0-8.1,3.6-8.1,8.1
		v36.7C100.8,103.3,104.5,106.9,108.9,106.9z M105.2,98.8V62.1c0-2.1,1.7-3.7,3.7-3.7h44.6c2.1,0,3.7,1.7,3.7,3.7v36.7
		c0,2.1-1.7,3.7-3.7,3.7h-44.6C106.9,102.5,105.2,100.8,105.2,98.8z"/>
</g>
</svg>
