<?xml version="1.0" encoding="utf-8"?>
<!-- Generator: Adobe Illustrator 24.0.1, SVG Export Plug-In . SVG Version: 6.00 Build 0)  -->
<svg version="1.1"
	 id="svg2" xmlns:cc="http://creativecommons.org/ns#" xmlns:dc="http://purl.org/dc/elements/1.1/" xmlns:rdf="http://www.w3.org/1999/02/22-rdf-syntax-ns#"
	 xmlns="http://www.w3.org/2000/svg" xmlns:xlink="http://www.w3.org/1999/xlink" x="0px" y="0px" viewBox="0 0 566.9 146.9"
	 style="enable-background:new 0 0 566.9 146.9;" xml:space="preserve">
<g id="g4" transform="translate(.0055519 -.00064086)">
	<polygon id="_43443024" style="fill:#FFFFFF;" points="542.3,26.8 566.9,26.8 532.2,80.8 526.6,123 504.3,123 510.9,74.9 
		488.6,26.8 512.6,26.8 524.5,54.1 	"/>
	<polygon id="_43441624" style="fill:#FFFFFF;" points="283,85 312.4,85 315.4,63.6 286.3,63.6 288.4,48.2 322.2,48.2 325.5,26.8 
		269.4,26.8 256,123 311.8,123 314.8,101.6 281,101.6 	"/>
	<path id="_43775888" style="fill:#FFFFFF;" d="M112.2,75.5l7.4-19.9l2.4,19.9H112.2L112.2,75.5z M104.1,94.5h20.2l3.6,28.5h36.5
		l16.9-52.2l8.3,52.2h19.3l21.4-55.2l3.6,55.2h21.4l-5.9-96.1h-25.5l-19.9,50.7l-7.7-50.7h-22.8l-26.1,78.9l-9.8-78.9h-28.5
		l-31.7,79.8l4.2-31.1H42.7l-2.7,19H57l-1.2,6.5c-3,1.8-9.8,2.1-12.5,2.1s-22.5-1.8-21.7-23.1C22.5,58.6,51,38.7,84.8,49.7l3.3-20.5
		C65.6,21.5,6.3,25.8,0.3,78.7c-3.6,31.1,24.9,46,43.9,45.7c11,0.6,23.4-3.6,27.9-5.9l-1.5,4.5h22.5L104.1,94.5L104.1,94.5z"/>
	<path id="_44102912" style="fill:#FFFFFF;" d="M464.6,25.9c-15.4-0.6-37.7,8.3-45.1,44.2c-7.4,35.9,12.5,50.4,30.9,52.8
		c18.4,2.4,44.2-9.2,49-43.6C504,44.9,487.1,26.8,464.6,25.9L464.6,25.9z M462.2,46.4c6.2,0,19.6,4.2,16.3,29.1
		c-3.3,24.9-18.7,27.9-24.3,27.3c-5.6-0.6-17.2-4.4-13.9-27.3C443.5,52.6,455.7,46.1,462.2,46.4L462.2,46.4z"/>
	<path id="_44104296" style="fill:#FFFFFF;" d="M370.8,63.6h12.5c9.2,0,11-5.9,11.3-8.3c0.3-2.4-2.4-7.1-7.1-7.1h-14.5L370.8,63.6
		L370.8,63.6z M365.5,101.6h16.9c9.2,0,11.3-7.1,11.6-9.5c0.3-2.4-2.4-7.1-7.1-7.1h-19L365.5,101.6L365.5,101.6z M340.6,123
		l13.4-96.1h40.9c9.8,0,24,11.3,22.3,26.4c-1.8,15.1-6.5,16-9.8,18.4c5,4.4,10.1,11.6,8,24.9c-2.1,13.4-13.1,26.4-32.3,26.4
		L340.6,123L340.6,123z"/>
	<path id="_44106160" style="fill:#FFFFFF;" d="M538.6,108.4c-3.7,0-6.6,3-6.6,6.6c0,3.7,3,6.6,6.6,6.6c3.6,0,6.6-3,6.6-6.6
		C545.2,111.4,542.3,108.4,538.6,108.4l0-0.9c4.2,0,7.5,3.4,7.5,7.5c0,4.2-3.3,7.5-7.5,7.5c-4.2,0-7.5-3.4-7.5-7.5
		c0-4.1,3.4-7.5,7.5-7.5L538.6,108.4L538.6,108.4z"/>
	<path id="_42975192" style="fill:#FFFFFF;" d="M536.8,111.6h2.4c1,0,2.2,0.2,2.2,1.5c0,1.7-1.8,1.5-3,1.5l-1.6,0v0.8h1.9l2.4,3.9
		h1.2l-2.5-3.9c1.5,0,2.7-0.6,2.7-2.3c0-0.7-0.3-1.5-0.9-1.8c-0.6-0.4-1.3-0.4-2-0.4h-3.7v8.4h1L536.8,111.6L536.8,111.6
		L536.8,111.6z"/>
</g>
</svg>
