<?xml version="1.0" encoding="utf-8"?>
<!-- Generator: Adobe Illustrator 24.0.1, SVG Export Plug-In . SVG Version: 6.00 Build 0)  -->
<svg version="1.1"
	 id="Layer_3" xmlns:cc="http://creativecommons.org/ns#" xmlns:dc="http://purl.org/dc/elements/1.1/" xmlns:rdf="http://www.w3.org/1999/02/22-rdf-syntax-ns#"
	 xmlns="http://www.w3.org/2000/svg" xmlns:xlink="http://www.w3.org/1999/xlink" x="0px" y="0px" viewBox="0 0 413 350.3"
	 style="enable-background:new 0 0 413 350.3;" xml:space="preserve">
<g>
	<path style="fill:#FFFFFF;" d="M176,235.9v-12.1c0-2.3-1.9-4.2-4.2-4.2h-10.2v-10.2c0-2.3-1.9-4.2-4.2-4.2l-12.1,0
		c-2.3,0-4.2,1.9-4.2,4.2v10.2H131c-2.3,0-4.2,1.9-4.2,4.2v12.1c0,2.3,1.9,4.2,4.2,4.2h10.2v10.2c0,2.3,1.9,4.2,4.2,4.2h12.1
		c2.3,0,4.2-1.9,4.2-4.2V240h10.2C174.2,240,176,238.2,176,235.9z M145.6,236.2c-0.4-0.6-1.1-0.9-1.9-0.9h-11.3
		c-0.5,0-0.8-0.4-0.8-0.8v-9.2c0-0.5,0.4-0.8,0.8-0.8h11.3c0.9,0,1.4-0.4,1.7-0.7c0.6-0.6,0.6-1.4,0.6-1.7v-11.2
		c0-0.5,0.4-0.8,0.8-0.8h9.2c0.5,0,0.8,0.4,0.8,0.8v11.3c0,0.7,0.3,1.5,0.9,1.9c0.6,0.4,1.2,0.4,1.5,0.4h11.2c0.5,0,0.8,0.4,0.8,0.8
		v9.2c0,0.5-0.4,0.8-0.8,0.8h-11.2c-1,0-1.5,0.4-1.8,0.8c-0.5,0.6-0.5,1.3-0.5,1.6v11.2c0,0.5-0.3,0.8-0.8,0.8h-9.2
		c-0.5,0-0.8-0.4-0.8-0.8l0-11.3C146,237.3,146,236.8,145.6,236.2z"/>
	<path style="fill:#FFFFFF;" d="M188,263.8L188,263.8c-1,0-1.9,0.2-2.8,0.6l-15,6.7c-3.7,1.7-5.4,6-3.7,9.7c1.2,2.7,3.9,4.3,6.7,4.3
		c1,0,2-0.2,3-0.6l15-6.7c3.7-1.7,5.4-6,3.7-9.7C193.6,265.4,190.9,263.7,188,263.8z M188.8,271.9l-15.3,7.3c-0.6,0.3-1.4,0-1.7-0.6
		c-0.3-0.6,0-1.4,0.6-1.7l15.3-7.3c0.1-0.1,0.3-0.1,0.5-0.1c0.5,0,1,0.3,1.2,0.7C189.7,270.9,189.4,271.6,188.8,271.9z"/>
	<path style="fill:#FFFFFF;" d="M226.6,268.1c-1.2-2.7-3.9-4.4-6.9-4.3h0c-1,0-1.9,0.2-2.8,0.6l-15,6.7c-3.7,1.6-5.4,6-3.7,9.7
		c0.8,1.8,2.2,3.2,4.1,3.9c0.9,0.3,1.7,0.5,2.6,0.5c1,0,2-0.2,3-0.6l15-6.7C226.6,276.1,228.2,271.8,226.6,268.1z M220.6,271.9
		l-15.3,7.3c-0.3,0.1-0.6,0.2-1,0.1c-0.3-0.1-0.6-0.3-0.7-0.6c-0.1-0.3-0.2-0.6-0.1-1c0.1-0.3,0.3-0.6,0.6-0.7l15.3-7.3
		c0.1-0.1,0.3-0.1,0.5-0.1c0.5,0,1,0.3,1.2,0.7C221.5,270.9,221.2,271.6,220.6,271.9z"/>
	<path style="fill:#FFFFFF;" d="M233.3,294.3c-0.7-1.3-2.2-2.1-3.7-2l0,0c-0.5,0-1,0.2-1.4,0.5c-0.9,0.5-1.5,1.3-1.8,2.3
		s-0.2,2,0.3,2.9l12.7,23.1c0.5,0.9,1.3,1.5,2.3,1.8c0.4,0.1,0.7,0.2,1.1,0.2c0.6,0,1.2-0.2,1.8-0.5c0.9-0.5,1.5-1.3,1.8-2.3
		c0.3-1,0.2-2-0.3-2.9L233.3,294.3z M230.3,295.9L243,319c0.1,0.2,0.1,0.5-0.2,0.6c-0.1,0.1-0.2,0.1-0.4,0c-0.1,0-0.2-0.1-0.3-0.2
		l-12.7-23.1c-0.1-0.1-0.1-0.2,0-0.4c0-0.1,0.1-0.2,0.2-0.3c0.1,0,0.2-0.1,0.2-0.1c0,0,0.1,0,0.1,0l0.1,0
		C230.2,295.7,230.3,295.8,230.3,295.9z"/>
	<path style="fill:#FFFFFF;" d="M242.4,289.3c-0.7-1.3-2.2-2.1-3.7-2c-0.5,0-1,0.2-1.4,0.5c-0.9,0.5-1.5,1.3-1.8,2.3
		c-0.3,1-0.2,2,0.3,2.9l12.7,23.1c0.5,0.9,1.3,1.5,2.3,1.8c0.4,0.1,0.7,0.2,1.1,0.2c0.6,0,1.2-0.2,1.8-0.5c0.9-0.5,1.5-1.3,1.8-2.3
		c0.3-1,0.2-2-0.3-2.9L242.4,289.3z M251.3,314.5l-12.7-23.1c-0.1-0.1-0.1-0.3,0-0.3c0-0.1,0.1-0.2,0.2-0.3c0.1,0,0.1-0.1,0.2-0.1
		c0,0,0.1,0,0.1,0c0.1,0,0.2,0.1,0.3,0.2l12.7,23.1c0.1,0.1,0.1,0.3,0,0.3c0,0.1-0.1,0.2-0.2,0.3c-0.1,0.1-0.2,0.1-0.4,0
		C251.5,314.6,251.4,314.6,251.3,314.5z"/>
	<path style="fill:#FFFFFF;" d="M251.5,284.3c-0.7-1.3-2.2-2.1-3.7-1.9c-0.5,0.1-1,0.2-1.4,0.4c-0.9,0.5-1.5,1.3-1.8,2.3
		c-0.3,1-0.2,2,0.3,2.9l12.7,23.1c0.7,1.3,2,2,3.3,2c0.6,0,1.2-0.1,1.7-0.4l0.2-0.1l0.1-0.1c1.7-1.1,2.3-3.3,1.3-5L251.5,284.3z
		 M248.6,285.9l12.7,23.1c0.1,0.1,0.1,0.2,0,0.4c0,0.1-0.1,0.2-0.2,0.3c-0.1,0.1-0.3,0.1-0.3,0c-0.1,0-0.2-0.1-0.3-0.2l-12.7-23.1
		c-0.1-0.1-0.1-0.2,0-0.4c0-0.1,0.1-0.2,0.2-0.3c0.1,0,0.1-0.1,0.2-0.1c0,0,0.1,0,0.1,0C248.4,285.7,248.5,285.8,248.6,285.9z"/>
	<path style="fill:#FFFFFF;" d="M269.7,274.3c-0.7-1.3-2.2-2.1-3.7-2c-0.4,0-0.7,0.1-1.1,0.3l-0.1,0l-0.4,0.3
		c-1.7,1.1-2.3,3.3-1.3,5l1.5,2.7l-3.8-1.1l-0.2-0.3c-0.7-1.3-2.2-2.1-3.7-2l-2.3,0.2l0.5,0.4c-0.3,0.2-0.5,0.4-0.8,0.7h-3.7
		l3.1,0.9c-0.1,0.1-0.1,0.3-0.1,0.4c-0.3,1-0.2,2,0.3,2.9l12.7,23.1c0.5,0.9,1.3,1.5,2.3,1.8c0.4,0.1,0.7,0.2,1.1,0.2
		c0.6,0,1.3-0.2,1.8-0.5c0.9-0.5,1.5-1.3,1.8-2.3c0.3-1,0.2-2-0.3-2.9l-11.9-21.7h3.2l11.2,20.4c0.5,0.9,1.3,1.5,2.3,1.8
		c0.4,0.1,0.7,0.2,1.1,0.2c0.6,0,1.3-0.2,1.8-0.5c1.8-1,2.5-3.3,1.5-5.2L269.7,274.3z M257.7,280.9l12.7,23.1c0.1,0.1,0.1,0.3,0,0.3
		c0,0.1-0.1,0.2-0.2,0.3c-0.1,0.1-0.3,0.1-0.3,0c-0.1,0-0.2-0.1-0.3-0.2l-12.7-23.1c-0.1-0.2,0-0.5,0.2-0.6c0.1,0,0.1-0.1,0.2-0.1
		c0,0,0.1,0,0.1,0l0,0C257.5,280.7,257.6,280.8,257.7,280.9z M266.8,275.9l12.7,23.1c0.1,0.2,0.1,0.5-0.2,0.6
		c-0.1,0.1-0.3,0.1-0.4,0c-0.1,0-0.2-0.1-0.3-0.2L266,276.3c-0.1-0.1-0.1-0.2,0-0.4c0-0.1,0.1-0.2,0.2-0.3c0.1,0,0.2-0.1,0.2-0.1
		c0,0,0.1,0,0.1,0l0.1,0C266.7,275.7,266.7,275.8,266.8,275.9z"/>
	<path style="fill:#FFFFFF;" d="M287.1,297.9c0.4,0.1,0.7,0.2,1.1,0.2c0.6,0,1.3-0.2,1.8-0.5c0.9-0.5,1.5-1.3,1.8-2.3
		c0.3-1,0.2-2-0.3-2.9l-12.7-23.1c-0.7-1.3-2.2-2.1-3.7-2c-0.5,0-1,0.2-1.4,0.5c-0.1,0.1-0.2,0.1-0.3,0.2l-1.5-0.4l1,0.9
		c-0.5,0.5-0.8,1-1,1.7c-0.3,1-0.2,2,0.3,2.9l12.7,23.1C285.3,296.9,286.1,297.6,287.1,297.9z M275.9,270.9l12.7,23.1
		c0.1,0.1,0.1,0.3,0,0.3c0,0.1-0.1,0.2-0.2,0.3c-0.1,0.1-0.3,0.1-0.3,0c-0.1,0-0.2-0.1-0.3-0.2l-12.7-23.1c-0.1-0.1-0.1-0.3,0-0.3
		c0-0.1,0.1-0.2,0.2-0.3c0.1,0,0.1-0.1,0.2-0.1c0,0,0.1,0,0.1,0l0,0C275.8,270.7,275.8,270.8,275.9,270.9z"/>
	<path style="fill:#FFFFFF;" d="M299.4,39C299.3,38.9,299.3,38.9,299.4,39l-0.1-0.7c0.4-0.4,0.6-0.9,0.6-1.5v-6.1
		c0-5.1-4.1-9.2-9.2-9.2h-5.2l-0.1,0c-0.6,0-1.3,0.3-1.7,0.9c0,0-0.1,0.1-0.1,0.1h-0.6c-0.1-0.1-0.2-0.3-0.3-0.4
		c-0.4-0.4-1-0.6-1.7-0.6H150.6c-0.5,0-1.2,0.2-1.7,0.8c-0.3-0.4-0.9-0.8-1.6-0.8H146c-0.5,0-1,0.2-1.3,0.6c0,0,0,0,0,0.1
		c-0.4-0.4-0.9-0.7-1.5-0.7l-1.2,0c-0.5,0-1,0.2-1.3,0.6c-0.1,0.1-0.2,0.3-0.3,0.4c0,0,0-0.1-0.1-0.1c-0.4-0.5-1-0.8-1.7-0.8l-6.9,0
		c-0.7,0-1.4,0.3-1.8,0.9c0,0-0.1,0.1-0.1,0.1h-0.3c0,0-0.1-0.1-0.1-0.1c-0.4-0.6-1.1-0.9-1.8-0.9l-5.2,0c-5.1,0-9.2,4.1-9.2,9.2
		v6.1c0,0.4,0.1,0.8,0.4,1.2v1.3c0,0,0,0,0,0c-0.3,0.6-0.4,1.1-0.4,1.5v279.9c0,4.6,3.7,8.3,8.3,8.3h74.2c0.6,0,1.3-0.3,1.7-0.9
		c0.1,0.2,0.3,0.4,0.5,0.5c0.4,0.3,0.8,0.3,1.1,0.3h1.2c0.5,0,1-0.2,1.3-0.5c0.1-0.1,0.1-0.1,0.2-0.2c0.1,0.1,0.1,0.2,0.2,0.2
		c0.3,0.3,0.8,0.4,1.2,0.4h1.3c0.5,0,1.1-0.3,1.4-0.7c0.1-0.1,0.1-0.1,0.1-0.2c0.1,0.2,0.2,0.3,0.4,0.4c0.3,0.3,0.8,0.4,1.2,0.4
		h49.4c23.7,0,43-19.3,43-43V40.5C299.9,39.9,299.7,39.4,299.4,39z M208.8,325.6v-2.4c2-1,3.3-3,3.3-5.2c0-3.2-2.6-5.8-5.8-5.8
		h-21.3c-3.2,0-5.8,2.6-5.8,5.8c0,3.2,2.6,5.8,5.8,5.8h9.3v1.8h-73c0,0,0,0,0,0c-1.3,0-2.6-0.5-3.5-1.4c-0.9-0.9-1.5-2.2-1.5-3.5
		l0-279.1h180.1v244.4c0,21.9-17.8,39.7-39.6,39.7H208.8z M140.6,33.5h-0.8c-1.1,0-2-0.7-2.3-1.7L140.6,33.5z M166.8,28.6
		c0.9,0,1.7,0.5,2.1,1.2L166.8,28.6L166.8,28.6z M169.1,32c-0.4,0.9-1.2,1.5-2.3,1.5h-0.4L169.1,32z M148.6,28.1
		c0.1-0.1,0.2-0.2,0.3-0.3c0.1,0.1,0.1,0.2,0.2,0.3c0.4,0.3,0.9,0.5,1.4,0.5h13.2v4.9h-20.5v-4.9c0.6,0,1.1-0.3,1.4-0.7
		c0.4,0.4,0.9,0.7,1.5,0.7h1.1C147.7,28.6,148.2,28.4,148.6,28.1z M140.4,27.8c0,0.1,0.1,0.1,0.1,0.2c0.1,0.1,0.2,0.2,0.3,0.3
		l-3.2,1.8c0.3-0.7,0.9-1.2,1.6-1.4C139.8,28.5,140.2,28.2,140.4,27.8z M137.4,25.9c-2,1-3.3,3-3.3,5.2c0,1.8,0.8,3.4,2.1,4.5h-3.6
		V24.7h4.7V25.9z M172.6,31c0-3.2-2.6-5.8-5.8-5.8h-15v-0.6h128.3v10.8H170.5C171.8,34.5,172.6,32.8,172.6,31z M296.6,35.5h-10V24.7
		h4.2c3.2,0,5.9,2.6,5.9,5.9V35.5z M283.2,37.7c0-0.1,0-0.1,0.1-0.2c0.1,0.3,0.2,0.5,0.4,0.7H283C283.1,38,283.2,37.8,283.2,37.7z
		 M129.6,37.8c0.1,0.1,0.1,0.2,0.2,0.4h-0.5C129.4,38,129.5,37.9,129.6,37.8z M122.3,24.7h4.2v10.8h-10v-4.9c0-1.6,0.6-3.1,1.7-4.2
		C119.3,25.3,120.7,24.7,122.3,24.7z M206.2,320.5v0.2c-0.2,0.1-0.3,0.3-0.4,0.5c0-0.1-0.1-0.1-0.2-0.2c-0.4-0.4-0.9-0.6-1.4-0.6
		l-1.1,0c-0.6,0-1.1,0.3-1.5,0.7c-0.4-0.4-0.9-0.7-1.5-0.7l-1.1,0c-0.5,0-1,0.2-1.3,0.5c-0.1,0.1-0.2,0.2-0.3,0.3
		c-0.1-0.1-0.1-0.2-0.2-0.3c-0.4-0.3-0.9-0.5-1.4-0.5h-10.6c-1.4,0-2.5-1.1-2.5-2.4c0-1.4,1.1-2.5,2.5-2.5h21.3
		c1.4,0,2.5,1.1,2.5,2.5c0,1.1-0.8,2.1-1.8,2.4L206.2,320.5z"/>
	<path style="fill:#FFFFFF;" d="M230,234c0,7.4,6,13.4,13.4,13.4c7.4,0,13.4-6,13.4-13.4s-6-13.4-13.4-13.4
		C236,220.7,230,226.7,230,234z M252.5,234c0,5.1-4.1,9.2-9.2,9.2s-9.2-4.1-9.2-9.2c0-5.1,4.1-9.2,9.2-9.2S252.5,229,252.5,234z"/>
	<path style="fill:#FFFFFF;" d="M273.9,206.7c-7.4,0-13.4,6-13.4,13.4c0,7.4,6,13.4,13.4,13.4s13.4-6,13.4-13.4
		C287.2,212.7,281.2,206.7,273.9,206.7z M283,220.1c0,5.1-4.1,9.2-9.2,9.2c-5.1,0-9.2-4.1-9.2-9.2c0-5.1,4.1-9.2,9.2-9.2
		C278.9,210.9,283,215,283,220.1z"/>
	<path style="fill:#FFFFFF;" d="M134.7,167.7h126.2c5.9,0,12.2-2.9,17.1-7.8c5-5,7.8-11.3,7.8-17.4V54.7c0-4.4-3.6-8.1-8.1-8.1
		l-143,0c-4.4,0-8,3.6-8,8.1v104.9C126.6,164,130.2,167.7,134.7,167.7z M130,159.6V54.7c0-2.6,2-4.7,4.6-4.7h143.1
		c2.6,0,4.7,2.1,4.7,4.7v87.7c0,5.2-2.5,10.7-6.8,15c-4.3,4.4-9.7,6.9-14.7,6.9H134.7C132.1,164.3,130,162.2,130,159.6z"/>
	<path style="fill:#FFFFFF;" d="M158.3,153.7h96.8c1.5,0,2.7-1.2,2.7-2.7V62.9c0-1.5-1.2-2.7-2.7-2.7h-96.8c-1.5,0-2.7,1.2-2.7,2.7
		v88.1C155.5,152.5,156.7,153.7,158.3,153.7z M254.5,63.5v86.9h-95.6V63.5H254.5z"/>
	<path style="fill:#FFFFFF;" d="M140.5,96.9c2.4,0,4.4-2,4.4-4.4s-2-4.4-4.4-4.4s-4.4,2-4.4,4.4S138.1,96.9,140.5,96.9z"/>
	<path style="fill:#FFFFFF;" d="M151.5,237.3c4.1,0,7.5-3.4,7.5-7.5c0-4.1-3.3-7.5-7.5-7.5c-4.1,0-7.5,3.3-7.5,7.5
		C144,234,147.3,237.3,151.5,237.3z M151.5,225.7c2.3,0,4.1,1.8,4.1,4.1c0,2.3-1.9,4.1-4.1,4.1c-2.3,0-4.1-1.9-4.1-4.1
		C147.3,227.6,149.2,225.7,151.5,225.7z"/>
</g>
</svg>
