<?xml version="1.0" encoding="utf-8"?>
<!-- Generator: Adobe Illustrator 16.0.0, SVG Export Plug-In . SVG Version: 6.00 Build 0)  -->
<!DOCTYPE svg PUBLIC "-//W3C//DTD SVG 1.1//EN" "http://www.w3.org/Graphics/SVG/1.1/DTD/svg11.dtd">
<svg version="1.1"
	 id="svg2" sodipodi:docname="gba.svg" sodipodi:version="0.32" inkscape:version="0.91 r13725" xmlns:dc="http://purl.org/dc/elements/1.1/" xmlns:cc="http://creativecommons.org/ns#" xmlns:rdf="http://www.w3.org/1999/02/22-rdf-syntax-ns#" xmlns:svg="http://www.w3.org/2000/svg" xmlns:sodipodi="http://sodipodi.sourceforge.net/DTD/sodipodi-0.dtd" xmlns:inkscape="http://www.inkscape.org/namespaces/inkscape"
	 xmlns="http://www.w3.org/2000/svg" xmlns:xlink="http://www.w3.org/1999/xlink" x="0px" y="0px" width="276.578px"
	 height="90.386px" viewBox="141.552 -15.404 276.578 90.386" enable-background="new 141.552 -15.404 276.578 90.386"
	 xml:space="preserve">
<sodipodi:namedview  height="206.5px" width="1772.6px" inkscape:window-height="844" inkscape:pageopacity="0.0" inkscape:window-x="-4" inkscape:window-width="1440" inkscape:pageshadow="2" inkscape:current-layer="svg2" inkscape:window-y="-4" showgrid="false" gridtolerance="10.0" bordercolor="#666666" inkscape:zoom="1.28" pagecolor="#ffffff" guidetolerance="10.0" inkscape:cy="54.912297" borderopacity="1.0" objecttolerance="10.0" inkscape:cx="242.03236" id="base">
	</sodipodi:namedview>
<path id="path12" fill="#FFFFFF" d="M169.476,41.935h-8.318l-19.605,33.008h23.344v-7.317h-9.516l9.516-17.063l13.789,24.42h10.631
	v-0.076h16.6c14.367,0,21.57-5.547,21.57-16.522c0-1.888-0.23-3.659-0.732-5.315l13.25,21.84h6.355l19.064-32.932h-10.092
	l-11.902,21.565l-12.557-21.567h-10.861l3.004,4.93c-3.504-3.313-8.551-4.93-15.137-4.93h-21.84v27.383L169.476,41.935
	L169.476,41.935z M195.437,49.405h12.52c6.508,0,9.82,2.851,9.82,8.551c0,3.429-1.039,5.932-3.004,7.24
	c-1.887,1.349-5.469,2.004-10.477,2.004h-8.82V49.405H195.437z"/>
<polygon id="polygon14" fill="#FFFFFF" points="279.482,41.935 271.125,41.935 251.595,74.942 261.457,74.942 261.457,74.864 
	274.937,74.864 274.937,67.508 265.501,67.508 274.861,50.522 288.65,74.942 299.396,74.942 299.396,74.864 304.865,74.864 
	304.865,54.952 329.787,74.864 336.257,74.864 336.257,41.935 327.628,41.935 327.628,61.614 302.476,41.935 296.044,41.935 
	296.044,69.317 "/>
<path id="path16" fill="#FFFFFF" d="M341.187,43.78c-1.348,1.195-2.041,3.353-2.041,6.435v16.33c0,3.159,0.693,5.315,2.002,6.51
	c1.271,1.195,3.582,1.812,6.973,1.812h19.373c3.354,0,5.777-0.616,7.049-1.812c1.271-1.192,2.004-3.351,2.004-6.51v-4.583
	l-9.514-0.154v5.086h-18.412V49.599h18.412v4.506h9.514v-3.89c0-3.235-0.73-5.394-2.004-6.435c-1.27-1.271-3.504-1.887-7.049-1.887
	h-19.373C344.769,41.935,342.458,42.512,341.187,43.78L341.187,43.78z"/>
<polygon id="polygon18" fill="#FFFFFF" points="389.218,54.144 389.218,49.405 414.908,49.405 414.908,41.935 379.705,41.935 
	379.705,74.864 415.332,74.864 415.332,67.239 389.218,67.239 389.218,61.385 404.279,61.385 404.279,54.144 "/>
<path id="path20" fill="#FFFFFF" d="M184.022-13.269c-10.322-3.735-20.299-2.541-29.851,3.352
	c-9.436,5.777-13.557,14.598-12.44,26.113c0.307,3.353,1.578,6.434,3.736,9.13c2.156,2.696,4.93,4.62,8.242,6.123
	c3.35,1.503,6.895,2.079,10.631,1.888c4.121-0.23,7.857-1.425,11.516-3.429l0.385-0.23l-1.424,3.158h10.014l6.434-13.981h11.092
	l2.465,13.981h16.41l8.396-26.19l5.393,26.19h6.508l12.557-29.041l1.271,29.041h9.592l-1.965-46.914h-11.673l-10.938,25.652
	l-4.699-25.652h-9.592L213.72,23.86l-6.356-37.938H195.54l-18.104,40.944l2.619-17.141h-17.873l-1.348,8.82h7.473l-0.732,4.698
	l-7.857,0.54c-3.158-0.809-5.393-2.465-6.895-5.085c-1.271-2.466-1.887-5.007-1.578-7.856c0.385-3.968,2.311-7.55,5.969-10.785
	c3.313-2.928,7.551-4.584,12.635-5.238c4.854-0.731,9.129-0.23,12.711,1.349L184.022-13.269L184.022-13.269z M200.932,9.688h-5.931
	l4.121-9.052L200.932,9.688z"/>
<polygon id="polygon22" fill="#FFFFFF" points="299.96,-14.115 273.266,-14.115 265.757,32.837 292.641,32.837 294.375,22.86 
	277.427,22.86 278.774,14.464 293.451,14.464 295.029,4.373 280.2,4.373 281.472,-4.022 298.38,-4.022 "/>
<polygon id="polygon24" fill="#FFFFFF" points="418.13,-14.115 406.921,-14.115 397.332,1.252 391.361,-14.115 380.268,-14.115 
	391.746,10.649 388.126,32.837 397.871,32.837 400.798,13.271 "/>
<path id="path26" fill="#FFFFFF" d="M371.061-13.653c-5.469-1.271-10.478,0-15.33,3.736c-4.852,3.582-8.012,8.743-9.668,15.253
	c-1.424,6.433-0.729,12.519,1.89,17.871c2.772,5.547,6.74,8.897,12.209,10.092c5.393,1.271,10.399,0,15.254-3.659
	c4.854-3.736,8.088-8.896,9.59-15.406c1.502-6.433,0.811-12.44-1.887-17.871C380.421-9.108,376.378-12.459,371.061-13.653
	L371.061-13.653z M370.253-4.294c2.619,1.04,4.275,3.429,5.162,6.972c0.885,3.582,0.692,7.318-0.617,11.285
	c-1.271,3.892-3.35,6.817-6.047,8.667c-2.773,2.003-5.394,2.389-7.857,1.271c-2.619-1.041-4.352-3.43-5.238-6.973
	c-0.963-3.658-0.617-7.396,0.654-11.285c1.271-3.813,3.352-6.817,6.047-8.82C365.014-5.063,367.712-5.488,370.253-4.294
	L370.253-4.294z"/>
<path id="path28" fill="#FFFFFF" d="M338.207-11.997c-1.887-1.193-3.736-1.811-5.545-1.811h-17.949l-7.396,46.645h21.57
	c2.311,0,4.699-0.73,7.203-2.232c2.465-1.504,4.352-3.353,5.854-5.625c1.58-2.617,2.156-5.16,1.889-7.855
	c-0.309-2.928-1.889-5.701-4.623-8.32c5.47-5.623,6.74-10.939,3.892-16.023C341.867-9.108,340.326-10.728,338.207-11.997z
	 M321.529,4.758l1.502-8.666h6.278c1.58,0,2.772,0.461,3.582,1.349c0.692,0.809,0.963,1.811,0.81,3.004
	c-0.154,1.195-0.73,2.156-1.656,3.005c-1.039,0.886-2.312,1.349-3.813,1.349h-6.702l10.86,11.092
	c0.888,0.887,1.351,2.043,1.271,3.313c-0.076,1.271-0.692,2.312-1.811,3.235c-1.115,0.886-2.695,1.426-4.852,1.426h-8.476
	l1.502-9.438h8.089c1.811,0,3.235,0.539,4.274,1.502L321.529,4.758L321.529,4.758z"/>
<path id="path30" fill="#FFFFFF" d="M409.619,28.64c0-1.35-0.539-2.39-1.351-3.275c-0.885-0.885-2.002-1.424-3.312-1.424
	c-1.271,0-2.389,0.539-3.274,1.424c-0.885,0.887-1.349,1.965-1.349,3.275c0,1.271,0.464,2.311,1.349,3.233
	c0.888,0.887,2.004,1.426,3.274,1.426s2.388-0.539,3.312-1.426C409.08,30.949,409.619,29.91,409.619,28.64z M407.729,25.864
	c0.693,0.693,1.117,1.656,1.117,2.773c0,1.04-0.461,1.965-1.117,2.773c-0.653,0.654-1.655,1.04-2.771,1.04
	c-1.117,0-2.08-0.386-2.773-1.04c-0.811-0.809-1.195-1.732-1.195-2.773c0-1.117,0.387-2.08,1.195-2.773
	c0.654-0.809,1.656-1.193,2.773-1.193C406.113,24.671,407.076,25.019,407.729,25.864z"/>
<path id="path32" fill="#FFFFFF" d="M406.615,26.25l-1.271-0.308h-2.234v5.237h0.732v-2.388h1.039l1.426,2.388h0.809l-1.58-2.388
	c1.041,0,1.656-0.462,1.656-1.502C407.229,26.828,407.076,26.403,406.615,26.25z M406.46,27.291c0,0.616-0.617,0.885-1.734,0.885
	h-0.885v-1.655h1.424C406.113,26.521,406.46,26.828,406.46,27.291L406.46,27.291z"/>
</svg>
