<?xml version="1.0" encoding="utf-8"?>
<!-- Generator: Adobe Illustrator 24.0.1, SVG Export Plug-In . SVG Version: 6.00 Build 0)  -->
<svg version="1.1"
	 id="Layer_3" xmlns:cc="http://creativecommons.org/ns#" xmlns:dc="http://purl.org/dc/elements/1.1/" xmlns:rdf="http://www.w3.org/1999/02/22-rdf-syntax-ns#"
	 xmlns="http://www.w3.org/2000/svg" xmlns:xlink="http://www.w3.org/1999/xlink" x="0px" y="0px" viewBox="0 0 598.2 350.3"
	 style="enable-background:new 0 0 598.2 350.3;" xml:space="preserve">
<g>
	<path style="fill:#FFFFFF;" d="M569.7,209.9c-0.2-2.9-0.4-5.7-0.5-8.1c-0.7-19.2-4.1-83-5.4-101.3c-0.6-9.1-1.7-13.5-3.7-15.9
		c-0.9-1-2.1-1.7-3.5-1.9c-0.5-0.1-0.9-0.1-1.4-0.2c-0.1,0-0.1,0-0.2,0c-0.2-1.1-0.4-2.2-0.6-3.2c0.6-0.8,1-1.7,1.2-2.7
		c0.3,0,0.6-0.1,1-0.2c1-0.3,1.7-0.9,2.2-1.7c0.6-0.9,0.8-2.1,0.6-3.4l0-0.3c-0.6-4.1-2.1-15-11.2-20.7c-2.2-1.4-6-2.6-12.5-3.9
		c-5.5-1.1-12.4-2.2-19.6-3.2l-3-0.4c-13.8-2-28.1-4.1-38-7c-9.6-2.7-16.4-4.2-20.8-4.6l-0.1,0l0,0c-1.7-0.1-3-0.1-4.1,0.2
		c-0.4,0.1-0.8,0.2-1.1,0.4c-4.3-1.7-8-3.1-11.5-4.1c-8.7-2.7-15.8-3.6-28.3-3.6H188.6l0,0c-11.6,0.1-18.6,1-26.9,3.6
		c-3.5,1.1-7.1,2.4-11.4,4.1c-0.3-0.2-0.7-0.3-1.1-0.4c-1.1-0.3-2.4-0.3-4.2-0.2v0c-4.4,0.4-11.2,1.9-20.8,4.6
		c-9.9,2.8-24.2,4.9-38,7l-3,0.4c-7.2,1.1-14.1,2.1-19.6,3.2C57,47.7,53.2,48.9,51,50.3C41.9,56,40.4,66.9,39.8,70.9l0,0.3
		c-0.2,1.3,0,2.5,0.6,3.4c0.5,0.8,1.3,1.3,2.3,1.7c0.3,0.1,0.7,0.2,1,0.2c0.1,0.7,0.4,1.6,1.1,2.5V80c-0.1,0.8-0.3,1.6-0.4,2.4
		c-0.1,0-0.1,0-0.2,0c-0.4,0-0.9,0.1-1.4,0.2c-1.5,0.3-2.6,0.9-3.5,1.9c-2,2.3-3,6.8-3.7,15.9c-1.3,18.3-4.6,82.1-5.4,101.3
		c-0.1,2.4-0.3,5.2-0.5,8.1c-0.5,8.4-1.2,18.8-0.4,29c1.4,17,6.6,29.1,15.9,37c3.7,3.1,7.1,5.5,10.2,7c2.8,1.4,5.3,2.1,7.4,2.1
		c0.7,0,1.4-0.1,2-0.2c14.5,6,26.4,8.8,38.9,11.7c12.4,2.9,25.3,6,41.3,12.4c31.4,12.6,81.9,19.9,138.6,19.9h32
		c56.7,0,107.3-7.2,138.6-19.9c16-6.5,28.9-9.5,41.3-12.4c12.5-3,24.3-5.8,38.9-11.7c0.6,0.1,1.3,0.2,2,0.2c2.2,0,4.6-0.7,7.4-2.1
		c3.1-1.5,6.6-3.9,10.2-7c9.3-7.9,14.5-20,15.9-37C570.9,228.6,570.3,218.2,569.7,209.9z M534,280.8l-0.1,0.2
		c-14.6,6.1-26.5,8.9-39,11.8c-12.6,3-25.6,6-41.9,12.6c-30.8,12.4-80.5,19.6-136.4,19.6h-32.9c-56.2,0-106.3-7.2-137.2-19.6
		c-16.4-6.6-29.4-9.7-41.9-12.6c-12.6-3-24.5-5.8-39.1-11.8l-0.1-0.2l-0.3,0.1c-0.6-0.3-1.3-0.5-1.9-0.8c-14.3-6.2-21.9-16-24.6-32
		c-1.8-10.3-1.3-22.2-0.9-34.7c0.2-4.7,0.3-9.5,0.4-14.3c0.5-37.4,6-86.2,8.4-105.4c1.4-11.4,2.7-19.4,5.1-24
		c2.1-4.1,4.8-5.8,10.4-6.5c1.6-0.2,3.3-0.3,5.1-0.5c10.6-0.9,25.1-2.2,57.5-16c2.9-1.2,5.7-2.4,8.2-3.5c14.1-6,22.7-9.7,30.1-12
		c8-2.5,14.4-3.3,25.8-3.4h220.8c12.2,0,18.8,0.8,27.2,3.4c7.5,2.3,16.1,6,30.4,12.1c2.5,1.1,5.1,2.2,7.9,3.4
		c32.4,13.8,46.9,15,57.5,16c1.8,0.2,3.5,0.3,5.1,0.5c5.6,0.7,8.3,2.4,10.3,6.5c2.4,4.7,3.7,12.7,5.1,24
		c2.4,19.2,7.9,67.9,8.4,105.4c0.1,4.8,0.2,9.7,0.4,14.3c0.5,12.6,0.9,24.4-0.9,34.7c-2.7,16-10.3,25.9-24.6,32
		c-0.7,0.3-1.3,0.6-2,0.8L534,280.8z M43.5,71.8l0-0.2c0.6-4,1.9-13.3,9.5-18.1c1.2-0.7,4.1-1.9,11.3-3.4c5.7-1.1,12.7-2.2,19.5-3.2
		l3.6-0.5c13.6-2,27.7-4.1,37.7-6.9l0.2,0c6.7-1.9,12.2-3.2,16.2-3.9c-3,1.3-6.3,2.7-10,4.3c-2.6,1.1-5.3,2.3-8.3,3.5
		C91.2,56.7,77.1,58,66.8,58.9c-1.9,0.2-3.6,0.3-5.3,0.5c-6.6,0.8-10.6,3.5-13.2,8.5c-0.7,1.4-1.3,3-1.9,4.9L45.1,73
		c-0.2,0-0.8,0-1.2-0.1c-0.3-0.1-0.3-0.2-0.3-0.2C43.4,72.5,43.4,72.1,43.5,71.8z M42.8,93.1c-2.4,19.2-7.9,68.1-8.4,105.8
		c-0.1,4.8-0.2,9.6-0.4,14.2c-0.5,12.7-0.9,24.7,0.9,35.5c0.7,4.1,1.7,7.9,3.1,11.4c-2.7-5.9-4.3-13-5-21.4
		c-0.8-9.9-0.1-20.1,0.4-28.3c0.2-3,0.4-5.8,0.5-8.3c0.8-19.4,4.1-83.2,5.4-101.2c0.7-9.4,1.9-12.7,2.8-13.7
		c0.4-0.5,0.7-0.6,1.3-0.7c0.1,0,0.3,0,0.4,0C43.4,88.4,43.1,90.7,42.8,93.1z M555.9,72.7c0,0-0.1,0.1-0.3,0.2
		c-0.4,0.2-1,0.1-1.2,0.1l-1.3-0.2c-0.6-1.8-1.2-3.5-1.9-4.9c-2.6-5.1-6.6-7.7-13.2-8.6c-1.7-0.2-3.5-0.4-5.3-0.5
		c-10.3-0.9-24.4-2.1-56.3-15.7c-2.8-1.2-5.4-2.3-7.9-3.4c-3.8-1.6-7.2-3.1-10.4-4.4c4,0.7,9.4,2,16.2,4l0.2,0
		c10.1,2.8,24.2,4.9,37.8,6.9l3.4,0.5c6.7,1,13.7,2.1,19.4,3.2c5.6,1.1,9.7,2.3,11.3,3.4c7.6,4.8,8.9,14.1,9.5,18.1l0,0.2
		C556,72.1,556,72.5,555.9,72.7z M564.5,248.6c1.8-10.8,1.4-22.8,0.9-35.5c-0.2-4.6-0.4-9.4-0.4-14.2c-0.5-37.7-6.1-86.5-8.4-105.8
		c-0.3-2.5-0.6-4.7-0.9-6.9c0.1,0,0.2,0,0.4,0c0.6,0.1,1,0.2,1.4,0.7c0.9,1,2.1,4.3,2.8,13.6l0,0.1c1.3,18.3,4.6,82,5.4,101.2
		c0.1,2.5,0.3,5.3,0.5,8.3c0.5,8.2,1.2,18.5,0.4,28.4c-0.7,8.4-2.3,15.4-5,21.3C562.8,256.5,563.8,252.7,564.5,248.6z"/>
	<path style="fill:#FFFFFF;" d="M434.1,73.3c-3-5.5-7.9-8.5-15-9.2c-1.8-0.2-3.9-0.5-6.4-0.8c-16-1.9-49.1-5.9-104.7-5.9h-16.8
		c-55.5,0-88.7,4-104.7,5.9c-2.5,0.3-4.6,0.6-6.4,0.8c-7.1,0.8-12,3.8-15,9.2c-2.7,5-3.9,11.7-4.9,20.9c-2,18.4-9,128.6-5.5,160.6
		l0.1,0.8c0.5,4.5,1.1,10.7,5.5,16.7c5.4,7.5,15,12.7,29.5,16c33.2,7.6,75.4,11.8,91.9,11.8h35.9c16.4,0,58.6-4.2,91.9-11.8
		c14.4-3.3,24.1-8.5,29.5-16c4.3-6,5-12.2,5.5-16.7l0.1-0.8c3.7-33.4-3.8-144.4-5.6-160.6C438,85.1,436.9,78.3,434.1,73.3z
		 M190.7,284.8c-13.5-3.1-22.5-7.9-27.3-14.6c-3.8-5.2-4.3-10.6-4.8-14.9l-0.1-0.8c-3.5-31.7,3.6-141.4,5.6-159.8
		c0.9-8.5,2-15.1,4.4-19.5c2.4-4.5,6.1-6.7,12.1-7.4c1.8-0.2,3.9-0.5,6.5-0.8c17.1-2.1,48.9-5.9,104.2-5.9h16.8
		c55.3,0,87.1,3.8,104.2,5.9c2.5,0.3,4.6,0.6,6.5,0.8c6,0.7,9.7,2.9,12.1,7.4c2.4,4.5,3.5,11,4.4,19.5c2,18.4,9,128.1,5.5,159.8
		l-0.1,0.8c-0.5,4.3-1,9.7-4.8,14.9c-4.9,6.7-13.8,11.5-27.3,14.6c-33,7.5-74.7,11.7-91,11.7h-35.9
		C265.4,296.5,223.6,292.3,190.7,284.8z"/>
	<path style="fill:#FFFFFF;" d="M421.8,241.3V85.8c0-2-1.7-3.7-3.7-3.7l-236.8,0c-2,0-3.7,1.7-3.7,3.7v155.5c0,2,1.7,3.7,3.7,3.7
		h236.8C420.2,245,421.8,243.4,421.8,241.3z M181.3,85.8l236.8,0l0,155.5l-236.8,0L181.3,85.8C181.3,85.9,181.3,85.8,181.3,85.8z"/>
	<path style="fill:#FFFFFF;" d="M142.4,218.4L142.4,218.4L101,207.8c-0.8-0.2-1.7-0.3-2.6-0.3c-4.8,0-8.9,3.2-10.1,7.8
		c-0.2,0.8-0.3,1.7-0.3,2.6c0,4.7,3.2,8.9,7.8,10.1l41.5,10.5l0-0.1c0.5,0.1,1,0.1,1.6,0.1c5.7,0,10.4-4.7,10.4-10.4
		C149.3,223.7,146.4,219.8,142.4,218.4z M138.9,234.8c-3.7,0-6.7-3-6.7-6.7c0-3.7,3-6.7,6.7-6.7c3.7,0,6.7,3,6.7,6.7
		C145.6,231.8,142.6,234.8,138.9,234.8z M98.4,211.2c0.6,0,1.1,0.1,1.6,0.2l32.8,8.3c-2.6,1.9-4.3,5-4.3,8.4c0,1.6,0.4,3.2,1,4.5
		l-32.8-8.3c-3-0.7-5-3.4-5-6.5c0-0.6,0.1-1.1,0.2-1.6C92.7,213.3,95.4,211.2,98.4,211.2z"/>
	<path style="fill:#FFFFFF;" d="M142.4,247.8L142.4,247.8L101,237.2c-0.8-0.2-1.7-0.3-2.6-0.3c-4.8,0-8.9,3.2-10.1,7.8
		c-0.2,0.8-0.3,1.7-0.3,2.6c0,4.8,3.2,8.9,7.8,10.1h0l41.5,10.5l0-0.1c0.5,0.1,1,0.1,1.6,0.1c5.7,0,10.4-4.7,10.4-10.4
		C149.3,253.1,146.4,249.3,142.4,247.8z M138.9,264.3c-3.7,0-6.7-3-6.7-6.7c0-3.7,3-6.7,6.7-6.7c3.7,0,6.7,3,6.7,6.7
		C145.6,261.2,142.6,264.2,138.9,264.3z M98.4,240.6c0.6,0,1.1,0.1,1.6,0.2l32.8,8.3c-2.6,1.9-4.3,5-4.3,8.4c0,1.6,0.4,3.2,1.1,4.5
		l-32.8-8.3c-3-0.7-5-3.4-5-6.5c0-0.6,0.1-1.1,0.2-1.6C92.7,242.7,95.4,240.6,98.4,240.6z"/>
	<path style="fill:#FFFFFF;" d="M515,204L515,204c-0.6-0.1-1.2-0.1-1.8,0l-55.7,13.6c-1.2,0.3-2.1,1-2.7,2c-0.6,1-0.8,2.2-0.5,3.4
		c0.3,1.2,1,2.1,2,2.8c0.7,0.4,1.5,0.6,2.3,0.6c0.3,0,0.7,0,1-0.1l55.7-13.6c2.4-0.6,3.9-3,3.3-5.4C518.2,205.6,516.7,204.3,515,204
		z M457.8,222.1c0-0.2,0-0.4,0.1-0.6c0.1-0.2,0.3-0.3,0.5-0.3l55.7-13.5h0c0.1,0,0.1,0,0.2,0c0.1,0,0.3,0,0.4,0.1
		c0.1,0.1,0.3,0.2,0.3,0.4c0.1,0.4-0.1,0.8-0.6,0.9l-55.7,13.5C458.3,222.7,457.9,222.5,457.8,222.1z"/>
	<path style="fill:#FFFFFF;" d="M515,214.9c-0.6-0.1-1.2-0.1-1.8,0.1l-55.7,13.6c-2.4,0.6-3.8,3-3.3,5.4c0.5,2,2.3,3.4,4.3,3.4
		c0.3,0,0.7,0,1-0.1l55.7-13.5c2.4-0.6,3.9-3,3.3-5.4c-0.3-1.3-1.2-2.4-2.4-3l0.1-0.2L515,214.9z M457.8,233.1
		c-0.1-0.4,0.1-0.8,0.6-0.9l55.7-13.6h0c0.1,0,0.1,0,0.2,0c0.1,0,0.3,0,0.4,0.1c0.2,0.1,0.3,0.3,0.3,0.5c0.1,0.4-0.1,0.8-0.6,0.9
		l-55.7,13.5C458.3,233.7,457.9,233.5,457.8,233.1z"/>
	<path style="fill:#FFFFFF;" d="M515,225.9L515,225.9c-0.6-0.1-1.2-0.1-1.8,0.1l-55.7,13.6c-1.2,0.3-2.1,1-2.7,2
		c-0.6,1-0.8,2.2-0.5,3.4c0.3,1.2,1,2.1,2,2.8c0.7,0.4,1.5,0.6,2.3,0.6c0.3,0,0.7,0,1-0.1l55.7-13.5c2.4-0.6,3.9-3,3.3-5.4
		C518.2,227.5,516.7,226.2,515,225.9z M457.8,244.1c-0.1-0.4,0.1-0.8,0.6-0.9l55.7-13.6c0.2-0.1,0.4,0,0.5,0.1
		c0.2,0.1,0.3,0.3,0.3,0.5c0.1,0.4-0.1,0.8-0.6,0.9l-55.7,13.6C458.3,244.7,457.9,244.5,457.8,244.1z"/>
	<path style="fill:#FFFFFF;" d="M456.2,258.7c0.7,0.4,1.5,0.7,2.3,0.7c0.3,0,0.7,0,1-0.1l55.7-13.6c1.2-0.3,2.1-1,2.7-2
		c0.6-1,0.8-2.2,0.5-3.4c-0.3-1.1-1-2.1-1.9-2.7l0.4-0.3l-2.1-0.3c-0.6-0.1-1.2-0.1-1.8,0.1l-55.7,13.6c-1.2,0.3-2.1,1-2.7,2
		c-0.6,1-0.8,2.2-0.5,3.4C454.5,257.1,455.2,258.1,456.2,258.7z M514.6,240.7c0.2,0.1,0.3,0.3,0.3,0.5c0.1,0.4-0.1,0.8-0.6,0.9
		l-55.7,13.6c-0.2,0.1-0.4,0-0.5-0.1c-0.2-0.1-0.3-0.3-0.3-0.5c-0.1-0.4,0.1-0.8,0.5-0.9l55.4-13.5l0,0l0.3-0.1
		C514.3,240.6,514.5,240.6,514.6,240.7z"/>
	<path style="fill:#FFFFFF;" d="M515,247.9c-0.6-0.1-1.2-0.1-1.8,0.1l-55.7,13.5c-2.4,0.6-3.8,3-3.3,5.4c0.3,1.2,1,2.1,2,2.7
		c0.7,0.4,1.5,0.7,2.3,0.7c0.3,0,0.7,0,1-0.1l55.7-13.6c2.4-0.6,3.9-3,3.3-5.4C518.2,249.6,516.7,248.2,515,247.9z M457.8,266.1
		c-0.1-0.4,0.1-0.8,0.6-0.9l55.8-13.6c0.2,0,0.4,0,0.5,0.1c0.2,0.1,0.3,0.3,0.3,0.5c0.1,0.4-0.1,0.8-0.6,0.9l-55.7,13.6
		C458.3,266.7,457.9,266.5,457.8,266.1z"/>
	<path style="fill:#FFFFFF;" d="M475.9,86.3c3.8,0,6.9-3.1,6.9-6.9s-3.1-6.9-6.9-6.9s-6.9,3.1-6.9,6.9S472.1,86.3,475.9,86.3z
		 M475.9,76.2c1.8,0,3.2,1.4,3.2,3.2s-1.4,3.2-3.2,3.2c-1.8,0-3.2-1.4-3.2-3.2S474.1,76.2,475.9,76.2z"/>
	<path style="fill:#FFFFFF;" d="M111.6,191.4c2.6,0,4.8-2.2,4.8-4.8v-17.5h17.6c2.7,0,4.8-2.2,4.8-4.8v-21.5c0-2.7-2.2-4.8-4.8-4.8
		l-17.6,0v-17.6c0-2.7-2.2-4.8-4.8-4.8l-21.5,0c-2.6,0-4.8,2.2-4.8,4.8v17.6H67.7c-2.7,0-4.8,2.2-4.8,4.8v21.5
		c0,2.7,2.2,4.8,4.8,4.8l17.6,0v17.5c0,2.7,2.2,4.8,4.8,4.8H111.6z M68.8,159.9v-12.9c0-1.6,1.3-3,3-3h14.5l-11.2,6.2
		c-1.2,0.6-1.9,1.8-1.9,3.2c0,1.4,0.8,2.6,2,3.2l8.2,4.6c0.6,0.4,1.4,0.7,2.1,0.7c2,0,3.5-1.6,3.5-3.6v-9.8c0-1.6-1-2.9-2.5-3.4
		v-1.1h2c0.8,0,1.6-0.3,2.1-0.9c0.5-0.5,0.7-1.3,0.7-2.2v-16.6c0-0.8,0.3-1.5,0.9-2.1c0.6-0.6,1.3-0.9,2.1-0.9h12.9c1.6,0,3,1.3,3,3
		v16.5c0,0.8,0.2,1.5,0.7,2.1c0.5,0.7,1.5,1.1,2.4,1.1h16.5c1.6,0,3,1.3,3,3v12.9c0,1.6-1.3,3-3,3h-16.5c-0.6,0-1.4,0.1-2.1,0.6
		c-0.7,0.5-1.1,1.4-1.1,2.4v16.7c0,1.6-1.3,3-3,3H94.4c-1.6,0-3-1.3-3-3v-16.4c0-1-0.3-1.8-0.9-2.4c-0.6-0.5-1.3-0.8-2.1-0.8H71.7
		C70.1,162.9,68.8,161.5,68.8,159.9z M85.3,148.9v9.2l-8.3-4.6L85.3,148.9z M112.7,186.4v0.2c0,0.6-0.5,1.1-1.1,1.1h-0.1
		C111.9,187.3,112.3,186.9,112.7,186.4z M135,164.1v0.1c0,0.6-0.5,1.1-1.1,1.1h-0.2C134.2,165,134.7,164.6,135,164.1z M135,142.7
		v0.1c-0.4-0.5-0.8-0.9-1.3-1.2h0.2C134.5,141.6,135,142.1,135,142.7z M112.7,120.5c-0.3-0.5-0.8-0.9-1.2-1.3h0.1
		c0.6,0,1.1,0.5,1.1,1.1V120.5z M88.9,120.6v-0.2c0-0.6,0.5-1.1,1.1-1.1h0.2C89.7,119.6,89.3,120.1,88.9,120.6z M66.6,142.9v-0.1
		c0-0.6,0.5-1.1,1.1-1.1h0.2C67.4,142,66.9,142.4,66.6,142.9z M66.6,164.1c0.4,0.5,0.8,0.9,1.3,1.3h-0.2c-0.6,0-1.1-0.5-1.1-1.1
		V164.1z M88.9,186.4c0.3,0.5,0.8,0.9,1.2,1.3H90c-0.6,0-1.1-0.5-1.1-1.1V186.4z"/>
	<path style="fill:#FFFFFF;" d="M100.8,162.8c5.1,0,9.3-4.2,9.3-9.3c0-5.1-4.2-9.3-9.3-9.3s-9.3,4.2-9.3,9.3
		C91.5,158.6,95.7,162.8,100.8,162.8z M100.8,147.9c3.1,0,5.6,2.5,5.6,5.6s-2.5,5.6-5.6,5.6s-5.6-2.5-5.6-5.6
		S97.7,147.9,100.8,147.9z"/>
	<path style="fill:#FFFFFF;" d="M95.9,141.7h9.8c2,0,3.5-1.6,3.5-3.5c0-0.4-0.1-0.8-0.2-1.2v-0.1l-5.1-9.1c-0.6-1.2-1.8-1.9-3.2-1.9
		c-1.4,0-2.6,0.8-3.2,2l-4.6,8.2c-0.5,0.6-0.7,1.4-0.7,2.1C92.4,140.1,94,141.7,95.9,141.7z M100.8,129.7l4.6,8.3h-9.2L100.8,129.7z
		"/>
	<path style="fill:#FFFFFF;" d="M105.7,165.2h-9.8c-2,0-3.5,1.6-3.5,3.5c0,0.4,0.1,0.8,0.2,1.2v0.1l5.1,9.1c0.6,1.2,1.8,1.9,3.1,1.9
		c0,0,0,0,0,0c1.4,0,2.6-0.8,3.2-2l4.6-8.2c0.4-0.6,0.7-1.4,0.7-2.1C109.2,166.8,107.6,165.2,105.7,165.2z M96.2,169h9.2l-4.6,8.3
		L96.2,169z"/>
	<path style="fill:#FFFFFF;" d="M116.1,161.9c0.6,0,1.2-0.1,1.7-0.4l8.7-4.9c1.2-0.6,1.9-1.8,1.9-3.2c0-1.4-0.8-2.6-2-3.2l-8.2-4.6
		c-0.6-0.5-1.3-0.7-2.1-0.7c-2,0-3.5,1.6-3.5,3.5v9.8C112.6,160.3,114.2,161.9,116.1,161.9z M116.3,158.1v-9.2l8.3,4.6L116.3,158.1z
		"/>
	<path style="fill:#FFFFFF;" d="M475.4,183.5c12.1,0,21.9-9.8,21.9-21.9c0-5.9-2.3-11.4-6.4-15.5c-4.1-4.1-9.7-6.4-15.5-6.4
		c-12.1,0-21.9,9.8-21.9,21.9C453.4,173.7,463.3,183.5,475.4,183.5z M459.8,161.6c0-8.6,7-15.6,15.5-15.6c8.6,0,15.6,7,15.6,15.6
		c0,8.6-7,15.6-15.6,15.6C466.8,177.2,459.8,170.2,459.8,161.6z"/>
	<path style="fill:#FFFFFF;" d="M546.9,144.9c0-5.9-2.3-11.4-6.4-15.5c-4.1-4.1-9.7-6.4-15.5-6.4c-12.1,0-21.9,9.8-21.9,21.9
		c0,12.1,9.8,21.9,21.9,21.9S546.9,157,546.9,144.9z M540.5,144.9c0,8.6-7,15.6-15.6,15.6c-8.6,0-15.5-7-15.5-15.6
		c0-8.6,7-15.6,15.5-15.6C533.5,129.3,540.5,136.3,540.5,144.9z"/>
</g>
</svg>
