<?xml version="1.0" encoding="utf-8"?>
<!-- Generator: Adobe Illustrator 24.0.1, SVG Export Plug-In . SVG Version: 6.00 Build 0)  -->
<svg version="1.1"
	 id="Ebene_2" inkscape:version="0.91 r13725" sodipodi:docname="gbc.svg" xmlns:cc="http://creativecommons.org/ns#" xmlns:dc="http://purl.org/dc/elements/1.1/" xmlns:inkscape="http://www.inkscape.org/namespaces/inkscape" xmlns:rdf="http://www.w3.org/1999/02/22-rdf-syntax-ns#" xmlns:sodipodi="http://sodipodi.sourceforge.net/DTD/sodipodi-0.dtd" xmlns:svg="http://www.w3.org/2000/svg"
	 xmlns="http://www.w3.org/2000/svg" xmlns:xlink="http://www.w3.org/1999/xlink" x="0px" y="0px" viewBox="0 0 566.9 109.8"
	 style="enable-background:new 0 0 566.9 109.8;" xml:space="preserve">
<sodipodi:namedview  bordercolor="#666666" borderopacity="1" gridtolerance="10" guidetolerance="10" id="namedview14" inkscape:current-layer="Ebene_2" inkscape:cx="258.74733" inkscape:cy="18.757209" inkscape:pageopacity="0" inkscape:pageshadow="2" inkscape:window-height="480" inkscape:window-width="640" inkscape:zoom="1.3245858" objecttolerance="10" pagecolor="#ffffff" showgrid="false">
	</sodipodi:namedview>
<path id="path5256" style="fill:#FFFFFF;" d="M437,47.4c-1.2-3.6-4.3-7-4.3-7s-4.7-6.1-14-8.2c-8-1.7-14.2,1.8-14.2,1.8
	s-5.7,2.3-9.9,7c-6.8,6.5-8.7,16.1-8.7,16.1s-2.6,8.3,1.5,14.9l4.5,5.4c6.3,5.3,13.1,5.8,13.1,5.8s5.5,1.2,11.8-0.4
	c5.6-1.1,9.6-3.9,9.6-3.9s9.2-5.1,11.7-15.5L437,47.4z M422.7,64.7c0,0-3.7,6.4-11.8,5.7c-9.5-1-10.6-9.3-10.6-9.3
	s-1.3-6.1,4.6-11.5c5.9-5,12.1-4.2,12.1-4.2s4.2,0.4,6.3,7.3C426,61.3,422.7,64.7,422.7,64.7"/>
<path id="path5262" style="fill:#FFFFFF;" d="M467.8,64.8c-3-0.7-7.9,0.6-7.9,0.6s-6.8,2.5-7.8,2.5c-0.4-0.6-1.3-11.7-1-16.1
	c0.1-7.8-0.5-14.2-0.5-14.2s-0.3-7.6-4.4-12c-4.8-4.8-8.1-2.7-10-1.6c-4.6,4.1-2.5,9.1-2.5,9.1l2.4,6.8c0,0,1.2,2.9,1,7.6l1,15.9
	c0,2.1,1.7,16.5,1.7,16.5s0.2,4.7,4.7,5.5c4.6,0.8,9.1-1.5,11-2.4c1.9-0.9,4.4-1.7,4.4-1.7s2.1-0.5,4.2-0.7c4.9-0.5,6.7-1.3,6.7-1.3
	s1.9-0.3,3.2-2.1C475.3,75.3,476.8,66.8,467.8,64.8"/>
<path id="path5264" style="fill:#FFFFFF;" d="M387.3,71.9c-3.2-1-6.9-0.3-6.9-0.3s-10.5,1-15.9-0.1c-8.5-1.5-8.2-10.6-8.2-10.6
	s-0.3-6,4.8-14.2c6.3-10.1,13.2-11.9,13.2-11.9s1.7-0.6,3.4,0.2c1,5.9,6.7,5.8,6.7,5.8s8.2,0.5,7.8-9.4c-0.9-8.1-8.8-9.3-12.1-10
	c-9.9-1.8-16.3,3.5-16.3,3.5s-6.6,3.6-14.5,16.1c-5.4,7.7-6,13.8-6,13.8s-0.6,1.4-0.4,7.9c-0.1,5,1.7,8.7,1.7,8.7s2.9,8.6,11.9,12.2
	c5.5,2.3,13.5,2.2,13.5,2.2s7.8-0.1,13.7-0.4c3.3,0.3,4.8-1.4,4.8-1.4s3.6-2.4,3.3-6.5C391.8,77.3,391.1,73,387.3,71.9"/>
<path id="path5266" style="fill:#FFFFFF;" d="M152.8,83.5h-12l-1.6-36l-15.5,36h-8l-6.6-32.6L98.7,83.5H78.4l-3.1-17.4H61.5
	l-7.8,17.4H41.2l25.7-58.2h14.7l7.8,47l15.3-47h11.8l5.8,31.9l13.6-31.9h14.4L152.8,83.5z M73.5,54.8l-2.2-11.3l-5,11.3H73.5"/>
<path id="path5268" style="fill:#FFFFFF;" d="M187.1,83.5l2-12.5h-20.9l1.7-10.4H188l2-12.5h-18.3l1.6-10.4h20.9l2-12.5H163
	l-9.3,58.2H187.1"/>
<path id="path5270" style="fill:#FFFFFF;" d="M342.4,25.3h-14l-11.8,19l-7.4-19h-13.7L309.6,56l-4.3,27.5h12l3.7-24.3L342.4,25.3"/>
<path id="path5272" style="fill:#FFFFFF;" d="M253.3,49.4c3.7-16.1,17.5-26.7,30.7-23.6c13.3,3.1,21,18.6,17.3,34.7
	c-3.7,16.1-17.5,26.7-30.7,23.6C257.3,81,249.6,65.5,253.3,49.4z M271.4,72.4c6.3,2.8,14.1-2.7,17.3-12.4c3.2-9.7,0.7-19.8-5.6-22.7
	c-6.3-2.8-14.1,2.7-17.3,12.4C262.6,59.4,265.1,69.6,271.4,72.4"/>
<path id="path5276" style="fill:#FFFFFF;" d="M224.6,37.9c0,0,0.3,0,7.8,0c8.4,0,6.7,10.8-1.3,10.8c-6.6,0-8.3,0-8.3,0L224.6,37.9z
	 M220.9,60.6c0,0,2.5,0,10,0c9.5,0,9.2,11.6-1.3,11.6c-6.6,0-10.6,0-10.6,0L220.9,60.6L220.9,60.6z M214.3,25.6l-9.2,57.8
	c0,0,19.1,0,26.9,0c11.1,0,27.3-16.3,12.5-29.7c15.2-15.7,0.1-28-7.9-28.1c-6.5-0.1-22.4,0-22.4,0L214.3,25.6"/>
<path id="path5274" style="fill:#FFFFFF;" d="M15.6,30.5C4.3,37.5-1.2,48.3,0.2,62.9c1.7,17,23.7,27.6,42.3,16.9
	c1.6-0.9,1-0.8,1.6-1.3l3.7-23.7H25.6l-1.7,10.9h9.3l-1.1,5.8c-5.3,2.1-14.4,1.3-18.2-5.6c-2.4-4.4-4.7-14.1,5.6-23.1
	c8.4-7.3,22.9-8.6,31.2-4.8c0,0,1.1-6.1,1.9-11.8C36.5,20.6,24,25.3,15.6,30.5"/>
<path id="path5258" style="fill:#FFFFFF;" d="M518.6,45.4c-6.3-10.3-17.5-11.9-17.5-11.9s-3.5-1.2-11.1-0.2
	C475.8,36.1,470.8,47,470.8,47s-5.1,8-3.1,17.8l6.2,12.3c4.6,4.3,6.5,4.3,6.8,4.6c6.1,2.7,13.1,1.2,13.1,1.2s8.9-0.9,17-7.2
	c6.5-4.8,9.3-11.8,9.3-11.8l0.9-9.4L518.6,45.4L518.6,45.4z M501.3,66.6c-10.2,6.1-16.7-0.6-16.7-0.6s-2.9-1.9-3.5-7.6
	c-0.4-6.6,6.1-10,6.1-10s3.5-2.1,7.8-1.8c4.3,0.3,5.7,0,9.2,2.6c3.3,3,3.1,5.2,3.1,5.2S508.7,61.8,501.3,66.6"/>
<path id="path5260" style="fill:#FFFFFF;" d="M520.2,63.8c0,0,0.2,5.8-0.7,7.2c-1.2,2.6-1,5.2-1,5.2s-0.8,7.8,8.2,9.1
	c6.2,0,7-5.2,7.1-7.4c0.4-1.7,0.2-9.8,0.2-9.8l8.1,6.6c0,0,5.9,4.9,9.3,7.8c3.6,2.8,4.5,3.3,4.5,3.3s0.8,0.9,3.5,0.6
	c2.2,0,4.2-2,4.2-2s2.6-1.9,3.2-5.2c0.8-3.9-2.2-5.8-2.2-5.8s-11.2-9-18.8-15.3c5.1-2.8,7.6-4.7,7.6-4.7s7.1-4.7,8.6-11.9
	c2.1-7.9-3.9-11-3.9-11s-3.7-2.7-6.9-4.1c-7.9-3.9-15.3-3.1-15.3-3.1s-10.5-0.7-17.3,7.7c-3.1,4.1-1.2,9.4-1.2,9.4s0.4,0.9,1.3,4.9
	C520.4,53.6,520.2,63.8,520.2,63.8L520.2,63.8z M534,47.8l-0.7-9.4c0,0,6.6-0.1,9.4,0.3c5.4,0.8,5.1,2.4,5.1,2.4s-0.2,1.9-4.3,3.8
	C539,47,534,47.8,534,47.8"/>
</svg>
