<?xml version="1.0" encoding="utf-8"?>
<!-- Generator: Adobe Illustrator 24.0.1, SVG Export Plug-In . SVG Version: 6.00 Build 0)  -->
<svg version="1.1"
	 id="Layer_3" xmlns:cc="http://creativecommons.org/ns#" xmlns:dc="http://purl.org/dc/elements/1.1/" xmlns:rdf="http://www.w3.org/1999/02/22-rdf-syntax-ns#"
	 xmlns="http://www.w3.org/2000/svg" xmlns:xlink="http://www.w3.org/1999/xlink" x="0px" y="0px" viewBox="0 0 456.2 350.3"
	 style="enable-background:new 0 0 456.2 350.3;" xml:space="preserve">
<g>
	<path style="fill:#FFFFFF;" d="M325.1,96.1c-0.2-33.8-0.4-67.2-0.5-71.4c-0.2-4.4-1-7.2-2.8-9.2c-2-2.2-5-2.7-7.3-2.9
		c-5.3-0.4-20.5-1.5-26.2-1.5H167.8v0c-5.7,0-20.9,1-26.2,1.5c-2.3,0.2-5.3,0.7-7.3,2.9c-1.7,1.9-2.6,4.7-2.7,9.2
		c-0.1,3.6-0.3,30.3-0.5,71.4c-0.2,34.3-0.3,69-0.3,76c0,7.4,0.3,40.4,0.6,70.7c0.2,16.2,0.4,31.6,0.6,43.2
		c0.2,14.1,0.4,20.8,0.5,22.7c0.4,6.1,1.5,10.5,3.6,14c2,3.3,4.8,5.6,8.8,7.3c5,2.1,11.2,2.9,19.2,3.9c3.4,0.4,7.2,0.9,11.2,1.6
		c24.3,3.9,37.6,3.8,42.6,3.7c0.4,0,0.8,0,1.1,0h18.5c0.3,0,0.7,0,1.1,0c0.7,0,1.5,0,2.4,0c6.3,0,19.1-0.4,40.1-3.8
		c4-0.7,7.9-1.2,11.2-1.6c7.9-1,14.2-1.9,19.2-3.9c3.9-1.6,6.8-4,8.8-7.3c2.1-3.5,3.2-7.9,3.6-14c0.1-1.9,0.3-8.9,0.5-22.7
		c0.2-12.3,0.4-28,0.6-43.2c0.4-33.5,0.7-63.9,0.7-70.7C325.5,164.7,325.3,128.2,325.1,96.1z M175.6,332c-4.1-0.7-7.9-1.2-11.3-1.6
		c-7.7-1-13.8-1.8-18.2-3.7c-3.3-1.4-5.6-3.2-7.2-5.9c-1.8-2.9-2.8-7-3.1-12.4c-0.1-1.7-0.3-9.7-0.5-22.5
		c-0.2-11.5-0.4-26.9-0.6-43.2c-0.3-30.3-0.6-63.3-0.6-70.6c0-7,0.1-41.7,0.3-76c0.2-30.3,0.4-67.1,0.5-71.3c0.1-3.5,0.7-5.7,1.9-7
		c1-1.1,2.5-1.6,5.1-1.8c5.1-0.4,20.4-1.5,25.9-1.5v0h120.5c5.5,0,20.8,1.1,25.9,1.5c2.6,0.2,4.1,0.8,5.1,1.8c1.1,1.2,1.7,3.5,1.9,7
		c0.1,3.2,0.3,27.9,0.5,71.3c0.2,31.3,0.3,68.5,0.3,76c0,6.8-0.3,37.8-0.7,70.6c-0.2,16.1-0.4,31.4-0.6,43.2
		c-0.2,13-0.4,20.8-0.5,22.5c-0.3,5.4-1.4,9.5-3.1,12.4c-1.6,2.7-3.9,4.5-7.2,5.9c-4.5,1.9-10.5,2.7-18.2,3.7
		c-3.4,0.5-7.3,1-11.4,1.6c-24,3.9-37,3.7-41.9,3.7c-0.5,0-0.9,0-1.2,0h-18.5c-0.3,0-0.7,0-1.2,0c-4.9,0.1-18,0.2-41.9-3.7
		L175.6,332z"/>
	<path style="fill:#FFFFFF;" d="M187.1,174.9c13.6,0.7,28.2,1.2,35.6,1.2h10.8c7.4,0,22-0.5,35.6-1.2c9.4-0.5,26.2-1.4,32.5-2.6
		c5-0.9,8.2-1.9,10.1-4.1c1.9-2.2,1.9-5.2,2-8.6c0.1-4,0.1-37.9,0.1-63.1c0-19.2,0-38.3-0.1-50.3c0-6.6,0-11.1,0-12.3
		c0-3.7-1-6.2-3.1-7.6c-1.9-1.3-4.3-1.4-7.5-1.5c-6.2-0.2-55.4-0.6-70.7-0.6l-8.9,0c-15.4,0-64.5,0.4-70.7,0.6
		c-3.2,0.1-5.6,0.3-7.5,1.5c-2.1,1.4-3.1,3.8-3.1,7.6c0,1.2,0,5.8,0,12.5c0,12.1,0,31.1-0.1,50.1c0,27.3,0,59.2,0.1,63.1
		c0.1,3.6,0.2,6.5,2,8.6c1.9,2.2,5.2,3.2,10.1,4.1C160.9,173.4,177.7,174.4,187.1,174.9z M223.6,27.5h8.9c15.1,0,64.8,0.4,70.6,0.6
		c2.3,0.1,4.6,0.2,5.7,1c0.8,0.5,1.5,1.4,1.5,4.7c0,1.2,0,5.7,0,12.3c0,12.1,0,31.2,0.1,50.3c0,38.3,0,60.1-0.1,63
		c-0.1,3.6-0.3,5.4-1.2,6.5c-1,1.2-3.5,2.1-8.1,3c-4.4,0.8-16.4,1.7-32.1,2.5c-13.6,0.7-28.1,1.2-35.4,1.2h-10.8
		c-7.3,0-21.9-0.5-35.4-1.2c-15.7-0.8-27.7-1.7-32.1-2.5c-4.7-0.9-7.1-1.7-8.1-3c-1-1.2-1.1-3.3-1.2-6.5c-0.1-2.9-0.1-24.7-0.1-63
		c0-19,0-38,0.1-50.1c0-6.8,0-11.3,0-12.5c0-3.3,0.8-4.2,1.5-4.7c1.2-0.8,3.4-0.9,5.7-1C158.8,27.9,208.5,27.5,223.6,27.5z"/>
	<path style="fill:#FFFFFF;" d="M173.8,142.2h108.5c1.6,0,2.8-1.3,2.8-2.8V42.8c0-1.6-1.3-2.8-2.8-2.8H173.8c-1.6,0-2.8,1.3-2.8,2.8
		v96.7C171,141,172.3,142.2,173.8,142.2z M281.8,43.4v95.5H174.4V43.4H281.8z"/>
	<path style="fill:#FFFFFF;" d="M222.2,287.9c1.1-0.4,1.9-0.8,2.5-1.4c0.8-0.8,1.2-1.7,1.2-2.8c0-1-0.4-2-1.2-2.8
		c-0.6-0.6-1.4-1.1-2.5-1.4c-1.7-0.6-3.9-0.9-6.6-0.9c-2.7,0-5,0.3-6.6,0.9c-1.1,0.4-1.9,0.8-2.5,1.4c-0.8,0.8-1.2,1.7-1.2,2.8
		c0,1,0.4,2,1.2,2.8c0.6,0.6,1.4,1.1,2.5,1.4c1.6,0.6,3.8,0.8,6.6,0.8S220.5,288.5,222.2,287.9z M215.5,285.3
		c-2.3,0-4.3-0.2-5.5-0.7c-0.8-0.3-1.1-0.5-1.2-0.6c-0.2-0.2-0.2-0.2-0.2-0.3c0-0.1,0-0.2,0.2-0.4c0.1-0.1,0.4-0.4,1.2-0.6
		c1.2-0.4,3.2-0.7,5.5-0.7c2.3,0,4.3,0.2,5.5,0.7c0.8,0.3,1.1,0.5,1.2,0.6c0.2,0.2,0.2,0.2,0.2,0.4c0,0.1,0,0.2-0.2,0.3
		c-0.1,0.1-0.4,0.4-1.2,0.6C219.8,285.1,217.8,285.3,215.5,285.3z"/>
	<path style="fill:#FFFFFF;" d="M251.1,279.5c-1.7-0.6-3.9-0.9-6.6-0.9c-2.7,0-5,0.3-6.6,0.9c-1.1,0.4-1.9,0.8-2.5,1.4
		c-0.8,0.7-1.2,1.7-1.2,2.8c0,1,0.4,2,1.2,2.8c0.6,0.6,1.4,1.1,2.5,1.4c1.6,0.6,3.8,0.8,6.6,0.8c2.8,0,5-0.3,6.6-0.8
		c1.1-0.4,1.9-0.8,2.5-1.4c0.8-0.8,1.2-1.7,1.2-2.8c0-1-0.4-2-1.2-2.8C253,280.3,252.1,279.9,251.1,279.5z M244.5,282.1
		c2.3,0,4.3,0.2,5.5,0.7c0.8,0.3,1.1,0.5,1.2,0.6c0.2,0.2,0.2,0.2,0.2,0.4c0,0.1,0,0.2-0.2,0.3c-0.1,0.1-0.4,0.4-1.2,0.6
		c-1.2,0.4-3.2,0.7-5.5,0.7s-4.3-0.2-5.5-0.7c-0.8-0.3-1.1-0.5-1.2-0.6c-0.1-0.1-0.1-0.2-0.1-0.3c0-0.2,0-0.2,0.1-0.4
		c0.1-0.1,0.4-0.4,1.2-0.6C240.2,282.3,242.2,282.1,244.5,282.1z"/>
	<path style="fill:#FFFFFF;" d="M191.3,219.4H181v-10.4c0-2.6-2.1-4.7-4.7-4.7l-8.2,0c-2.6,0-4.7,2.1-4.7,4.7v10.4h-10.3
		c-2.6,0-4.7,2.1-4.7,4.7v8.2c0,2.6,2.1,4.7,4.7,4.7h10.3v10.3c0,2.6,2.1,4.7,4.7,4.7h8.2c2.6,0,4.7-2.1,4.7-4.7V237h10.4
		c2.6,0,4.7-2.1,4.7-4.7v-8.2C196,221.5,193.9,219.4,191.3,219.4z M166.8,247.3l0-7l3.2,6.1l0.1,0.2c0.5,0.6,1.2,1,2,1c0,0,0,0,0,0
		c0.8,0,1.5-0.3,2-1l3.4-6.3v7c0,0.7-0.5,1.3-1.2,1.3h-8.2C167.4,248.6,166.8,248,166.8,247.3z M170.3,239.5h3.8l-1.9,3.6
		L170.3,239.5z M178,234.5c-0.4,0.6-0.4,1.1-0.4,1.6v1c-0.3-0.3-0.6-0.6-1-0.7v-0.2h-0.9c0,0,0,0-0.1,0l-6.8,0c-0.8,0-1.5,0.4-2,1
		l0-1.2c0-0.2,0-0.7-0.3-1.3c-0.4-0.6-1.2-1-2-1h-1.2c0.6-0.5,1-1.2,1-2v-6.8c0-0.8-0.4-1.5-0.9-2h1.2c0.7,0,1.5-0.3,1.9-1
		c0.3-0.6,0.3-1.1,0.3-1.5v-1c0.5,0.6,1.2,1,2,1l6.8,0c0.8,0,1.5-0.4,2-1v1.1c0,0.7,0.2,1.3,0.6,1.7c0.4,0.5,1.1,0.8,1.8,0.8h1.1
		c-0.6,0.5-0.9,1.2-1,2v6.8c0,0.8,0.4,1.5,1,2h-1.1C179.1,233.6,178.4,233.9,178,234.5z M151.8,232.3v-8.2c0-0.7,0.6-1.2,1.3-1.2h7
		l-6.1,3.2l-0.2,0.1c-0.6,0.5-1,1.2-1,2c0,0.8,0.3,1.5,1,2l6.3,3.4h-7C152.4,233.6,151.8,233,151.8,232.3z M160.8,226.3v3.8
		l-3.6-1.9L160.8,226.3z M177.5,216l-3.2-6.1l-0.1-0.2c-0.5-0.6-1.2-1-2-1c-0.8,0-1.5,0.3-2,1l-3.4,6.3v-7c0-0.7,0.6-1.3,1.3-1.3
		h8.2c0.7,0,1.2,0.6,1.2,1.3V216z M174.1,216.8h-3.8l1.9-3.6L174.1,216.8z M183.5,230.1v-3.8l3.6,1.9L183.5,230.1z M190.4,230.3
		l0.2-0.1c0.6-0.5,1-1.2,1-2c0-0.8-0.3-1.5-1-2l-6.3-3.4h7c0.7,0,1.3,0.5,1.3,1.2v8.2c0,0.7-0.6,1.3-1.3,1.3h-7L190.4,230.3z"/>
	<path style="fill:#FFFFFF;" d="M172.2,221.6c-3.6,0-6.6,3-6.6,6.6c0,3.6,2.9,6.6,6.6,6.6c3.6,0,6.6-2.9,6.6-6.6
		C178.8,224.6,175.8,221.6,172.2,221.6z M172.2,231.3c-1.8,0-3.1-1.4-3.1-3.1c0-0.9,0.3-1.6,0.9-2.2c0.6-0.6,1.4-0.9,2.2-0.9
		c1.7,0,3.2,1.4,3.2,3.2C175.3,229.9,173.9,231.3,172.2,231.3z"/>
	<path style="fill:#FFFFFF;" d="M277,233.4c0-7.5-6.1-13.7-13.7-13.7s-13.7,6.1-13.7,13.7c0,7.6,6.1,13.7,13.7,13.7
		S277,241,277,233.4z M263.3,243.7c-5.7,0-10.3-4.6-10.3-10.3c0-5.7,4.6-10.3,10.3-10.3c5.7,0,10.3,4.6,10.3,10.3
		C273.6,239.1,269,243.7,263.3,243.7z"/>
	<path style="fill:#FFFFFF;" d="M298.5,208.3c-7.6,0-13.7,6.1-13.7,13.7s6.1,13.7,13.7,13.7c7.5,0,13.7-6.1,13.7-13.7
		S306.1,208.3,298.5,208.3z M298.5,211.7c5.7,0,10.3,4.6,10.3,10.3c0,5.7-4.6,10.3-10.3,10.3c-5.7,0-10.3-4.6-10.3-10.3
		C288.3,216.3,292.9,211.7,298.5,211.7z"/>
	<path style="fill:#FFFFFF;" d="M274.6,287.4c-1.8,0-3.2,1.4-3.2,3.2c0,1.8,1.4,3.2,3.2,3.2c1.7,0,3.2-1.4,3.2-3.2
		c0-0.8-0.3-1.6-0.9-2.2C276.3,287.8,275.5,287.4,274.6,287.4z"/>
	<path style="fill:#FFFFFF;" d="M274.6,298.1c-1.8,0-3.2,1.4-3.2,3.2c0,1.7,1.4,3.1,3.2,3.1c1.7,0,3.2-1.4,3.2-3.1
		c0-0.8-0.3-1.6-0.9-2.2C276.3,298.5,275.5,298.1,274.6,298.1z"/>
	<path style="fill:#FFFFFF;" d="M274.6,308.9c-1.8,0-3.2,1.4-3.2,3.2c0,1.8,1.4,3.2,3.2,3.2c1.7,0,3.2-1.4,3.2-3.2
		C277.8,310.3,276.4,308.9,274.6,308.9z"/>
	<path style="fill:#FFFFFF;" d="M280.2,281.3c-1.7,0-3.2,1.4-3.2,3.1c0,1.8,1.4,3.2,3.2,3.2c1.7,0,3.2-1.4,3.2-3.2
		C283.4,282.7,281.9,281.3,280.2,281.3z"/>
	<path style="fill:#FFFFFF;" d="M280.2,291.9c-1.7,0-3.2,1.4-3.2,3.2c0,1.7,1.4,3.2,3.2,3.2c1.7,0,3.2-1.4,3.2-3.2
		C283.4,293.4,281.9,291.9,280.2,291.9z"/>
	<path style="fill:#FFFFFF;" d="M280.2,308.9c1.7,0,3.2-1.4,3.2-3.2c0-1.7-1.4-3.1-3.2-3.1c-1.7,0-3.2,1.4-3.2,3.1
		C277,307.5,278.5,308.9,280.2,308.9z"/>
	<path style="fill:#FFFFFF;" d="M283.4,316.3c0-1.7-1.4-3.1-3.2-3.1c-1.7,0-3.2,1.4-3.2,3.1c0,1.8,1.4,3.2,3.2,3.2
		C281.9,319.5,283.4,318.1,283.4,316.3z"/>
	<path style="fill:#FFFFFF;" d="M282.4,289c0,1.7,1.4,3.2,3.2,3.2c1.7,0,3.2-1.4,3.2-3.2c0-1.8-1.4-3.2-3.2-3.2
		C283.8,285.8,282.4,287.2,282.4,289z"/>
	<path style="fill:#FFFFFF;" d="M285.6,296.5c-1.7,0-3.2,1.4-3.2,3.2c0,1.8,1.4,3.2,3.2,3.2c1.7,0,3.2-1.4,3.2-3.2
		C288.7,297.9,287.3,296.5,285.6,296.5z"/>
	<path style="fill:#FFFFFF;" d="M285.6,313.4c1.7,0,3.2-1.4,3.2-3.2c0-1.8-1.4-3.2-3.2-3.2c-1.7,0-3.2,1.4-3.2,3.2
		C282.4,312,283.8,313.4,285.6,313.4z"/>
	<path style="fill:#FFFFFF;" d="M285.6,317.7c-1.7,0-3.2,1.4-3.2,3.2c0,1.7,1.4,3.2,3.2,3.2c1.7,0,3.2-1.4,3.2-3.2
		C288.7,319.1,287.3,317.7,285.6,317.7z"/>
	<path style="fill:#FFFFFF;" d="M291.2,279.3c-1.7,0-3.1,1.4-3.1,3.2c0,1.8,1.4,3.2,3.1,3.2c1.8,0,3.2-1.4,3.2-3.2
		C294.4,280.8,293,279.3,291.2,279.3z"/>
	<path style="fill:#FFFFFF;" d="M291.2,296.3c1.8,0,3.2-1.4,3.2-3.2c0-1.8-1.4-3.2-3.2-3.2c-1.7,0-3.1,1.4-3.1,3.2
		C288.1,294.9,289.5,296.3,291.2,296.3z"/>
	<path style="fill:#FFFFFF;" d="M291.2,306.9c1.8,0,3.2-1.4,3.2-3.2c0-1.8-1.4-3.2-3.2-3.2c-1.7,0-3.1,1.4-3.1,3.2
		C288.1,305.5,289.5,306.9,291.2,306.9z"/>
	<path style="fill:#FFFFFF;" d="M294.4,314.4c0-1.7-1.4-3.2-3.2-3.2c-1.7,0-3.1,1.4-3.1,3.2c0,1.8,1.4,3.2,3.1,3.2
		C293,317.6,294.4,316.1,294.4,314.4z"/>
	<path style="fill:#FFFFFF;" d="M296.5,283.7c-1.7,0-3.1,1.4-3.1,3.2c0,1.8,1.4,3.2,3.1,3.2c1.8,0,3.2-1.4,3.2-3.2
		C299.7,285.1,298.3,283.7,296.5,283.7z"/>
	<path style="fill:#FFFFFF;" d="M296.5,294.3c-1.7,0-3.1,1.4-3.1,3.2c0,1.7,1.4,3.2,3.1,3.2c1.8,0,3.2-1.4,3.2-3.2
		C299.7,295.7,298.3,294.3,296.5,294.3z"/>
	<path style="fill:#FFFFFF;" d="M296.5,311.2c1.8,0,3.2-1.4,3.2-3.2s-1.4-3.2-3.2-3.2c-1.7,0-3.1,1.4-3.1,3.2
		S294.8,311.2,296.5,311.2z"/>
	<path style="fill:#FFFFFF;" d="M296.5,315.5c-1.7,0-3.1,1.4-3.1,3.2c0,1.8,1.4,3.2,3.1,3.2c1.8,0,3.2-1.4,3.2-3.2
		C299.7,317,298.3,315.5,296.5,315.5z"/>
	<path style="fill:#FFFFFF;" d="M305.1,280.3c0-1.7-1.4-3.2-3.2-3.2c-1.7,0-3.2,1.4-3.2,3.2c0,1.7,1.4,3.1,3.2,3.1
		C303.7,283.4,305.1,282,305.1,280.3z"/>
	<path style="fill:#FFFFFF;" d="M302,294.1c1.7,0,3.2-1.4,3.2-3.2c0-1.7-1.4-3.2-3.2-3.2c-1.7,0-3.2,1.4-3.2,3.2
		C298.8,292.6,300.2,294.1,302,294.1z"/>
	<path style="fill:#FFFFFF;" d="M302,304.7c1.7,0,3.2-1.4,3.2-3.2c0-1.8-1.4-3.2-3.2-3.2c-1.7,0-3.2,1.4-3.2,3.2
		C298.8,303.3,300.2,304.7,302,304.7z"/>
	<path style="fill:#FFFFFF;" d="M305.1,312.2c0-1.8-1.4-3.2-3.2-3.2c-1.7,0-3.2,1.4-3.2,3.2c0,1.7,1.4,3.2,3.2,3.2
		C303.7,315.3,305.1,313.9,305.1,312.2z"/>
	<path style="fill:#FFFFFF;" d="M310.4,284.3c0-1.7-1.4-3.1-3.2-3.1c-1.7,0-3.2,1.4-3.2,3.2c0,1.8,1.4,3.2,3.2,3.2
		C309,287.5,310.4,286,310.4,284.3z"/>
	<path style="fill:#FFFFFF;" d="M310.4,294.9c0-1.7-1.4-3.2-3.2-3.2c-1.7,0-3.2,1.4-3.2,3.2c0,1.8,1.4,3.2,3.2,3.2
		C309,298.1,310.4,296.7,310.4,294.9z"/>
	<path style="fill:#FFFFFF;" d="M307.3,308.7c1.7,0,3.2-1.4,3.2-3.2c0-1.8-1.4-3.2-3.2-3.2c-1.7,0-3.2,1.4-3.2,3.2
		C304.1,307.3,305.5,308.7,307.3,308.7z"/>
	<path style="fill:#FFFFFF;" d="M309.4,288.1c0,1.7,1.4,3.2,3.2,3.2c1.7,0,3.2-1.4,3.2-3.2c0-1.8-1.4-3.2-3.2-3.2
		C310.8,285,309.4,286.4,309.4,288.1z"/>
	<path style="fill:#FFFFFF;" d="M312.6,295.6c-1.8,0-3.2,1.4-3.2,3.2c0,1.8,1.4,3.2,3.2,3.2c1.7,0,3.2-1.4,3.2-3.2
		C315.7,297,314.3,295.6,312.6,295.6z"/>
	<path style="fill:#FFFFFF;" d="M312.6,306.2c-1.8,0-3.2,1.4-3.2,3.2c0,1.7,1.4,3.2,3.2,3.2c1.7,0,3.2-1.4,3.2-3.2
		C315.7,307.6,314.3,306.2,312.6,306.2z"/>
	<path style="fill:#FFFFFF;" d="M307.3,313c-1.7,0-3.2,1.4-3.2,3.2c0,1.8,1.4,3.2,3.2,3.2c1.7,0,3.2-1.4,3.2-3.2
		C310.4,314.4,309,313,307.3,313z"/>
</g>
</svg>
