<?xml version="1.0" encoding="utf-8"?>
<!-- Generator: Adobe Illustrator 24.0.1, SVG Export Plug-In . SVG Version: 6.00 Build 0)  -->
<svg version="1.1"
	 id="Ebene_1" inkscape:version="0.91 r13725" sodipodi:docname="int.svg" xmlns:cc="http://creativecommons.org/ns#" xmlns:dc="http://purl.org/dc/elements/1.1/" xmlns:inkscape="http://www.inkscape.org/namespaces/inkscape" xmlns:rdf="http://www.w3.org/1999/02/22-rdf-syntax-ns#" xmlns:sodipodi="http://sodipodi.sourceforge.net/DTD/sodipodi-0.dtd" xmlns:svg="http://www.w3.org/2000/svg"
	 xmlns="http://www.w3.org/2000/svg" xmlns:xlink="http://www.w3.org/1999/xlink" x="0px" y="0px" viewBox="0 0 566.9 132.6"
	 style="enable-background:new 0 0 566.9 132.6;" xml:space="preserve">
<sodipodi:namedview  bordercolor="#666666" borderopacity="1" gridtolerance="10" guidetolerance="10" id="namedview9" inkscape:current-layer="Ebene_1" inkscape:cx="179.10721" inkscape:cy="65.768432" inkscape:pageopacity="0" inkscape:pageshadow="2" inkscape:window-height="480" inkscape:window-width="640" inkscape:zoom="0.93662358" objecttolerance="10" pagecolor="#ffffff" showgrid="false">
	</sodipodi:namedview>
<g id="g3" transform="translate(-6.84376 -490.88)">
	<path id="path5" style="fill:#FFFFFF;" d="M429,513.1c-0.6,0-1,0.5-1,1.2l-0.1,13.1c0,0.6,0.5,1,1.2,1l6,0c0.7,0,1.2-0.4,1.2-1
		v-2.4c0-0.6-0.5-1-1.2-1l-3.9,0c-0.7,0-1.2-0.3-1.2-1v-8.6C430,513.6,429.7,513.1,429,513.1L429,513.1z M458.4,513.1
		c-0.1,0-0.2,0-0.2,0c-0.5,0.1-0.8,0.6-0.8,1.2l-0.1,13.1c0,0.4,0.2,0.7,0.5,0.8c0.1,0,0.1,0.1,0.2,0.1c0.1,0,0.1,0,0.2,0
		s0.2,0,0.2,0l6,0c0.7,0,1.2-0.4,1.2-1v-2.4c0-0.6-0.5-1-1.2-1l-3.9,0c-0.7,0-1.2-0.3-1.2-1l0-8.6
		C459.4,513.6,459.1,513.1,458.4,513.1L458.4,513.1z M364.4,513.1c-0.7,0-1.2,0.4-1.2,1l0.1,2l-0.1,11c0,0.7,0.3,1.2,1,1.2
		c0.1,0,0.1,0,0.2,0c0.5-0.1,0.8-0.6,0.8-1.2v-8.6c0-0.6,0.5-1,1.2-1h0.8c0.7,0,1.2,0.4,1.2,1l0.8,4.6c0,0.7,0.3,1.2,1,1.2h2.1
		c0.1,0,0.2,0,0.2,0c0.5-0.1,0.8-0.5,1.1-1.1c0,0,2.5-5.9,2.6-6.1c0.2-0.5,0.8-0.4,0.8,0.1v8.8l0,1.3c0,0.7,0.3,1.2,1,1.2l2.5,0
		c0.1,0,0.1,0,0.2,0c0.1,0,0.1,0,0.2-0.1c0.3-0.2,0.5-0.6,0.8-1.1l1.9-4c0.3-0.6,0.7-1,1.2-1h3.1c0.7,0,1.2,0.4,1.2,1l0.2,4.3
		c0,0.4,0.2,0.7,0.6,0.8c0.1,0,0.3,0.1,0.4,0.1c0.6,0.1,1.3,0.1,1.9,0.1c0.6,0,1.4-0.4,1.4-1l0-13.4c0-0.6-0.5-1-1.2-1h-6.5
		c-0.7,0-1,0.3-1.2,1c0,0-4.3,10.8-4.4,11c0,0,0,0.1-0.1,0.1c-0.1,0.1-0.2,0.1-0.3,0.1c-0.2,0.1-0.5,0-0.5-0.3c0-0.5,0-10.5,0-10.5
		c0-0.7-0.3-1.3-0.9-1.3h-2.3c-0.6,0-0.9,0.4-1.3,1.2c0,0-2.7,6.7-2.9,7c0,0.1-0.1,0.1-0.2,0.2c-0.1,0.1-0.1,0.1-0.2,0.1
		c-0.2,0-0.3,0-0.3-0.3c-0.1-0.4-1.3-7.3-1.3-7.3c0-0.6-0.5-1-1.2-1L364.4,513.1L364.4,513.1z M482.8,513.1c-0.7,0-1.2,0.3-1.2,1
		l-0.1,13.2c0,0.2,0.1,0.4,0.2,0.6c0.1,0.2,0.3,0.3,0.5,0.3c0.1,0,0.1,0,0.2,0c0.1,0,0.2,0,0.2,0l2.1,0v0h5c0.1,0,0.2,0,0.2,0
		c0.1,0,0.2,0,0.2,0c0.4-0.1,0.7-0.4,0.7-0.9c0-0.6-0.5-1-1.2-1h-5v0c-0.6,0-1.2-0.4-1.2-1l0.1-7c0-0.6,0.5-1,1.2-1h5
		c0.7,0,1.2-0.3,1.2-1v-2.3c0-0.6-0.6-1-1.2-1L482.8,513.1L482.8,513.1z M504.5,513.1c-0.1,0-0.2,0-0.2,0c-0.6,0.1-1,0.4-1,1
		c0,0.3,0,0.7,0,1c0,3.8-0.1,7.5,0,11.3c0,0.2,0,0.5-0.1,0.7c0,0.1,0,0.2,0,0.4c0,0.1,0.1,0.2,0.1,0.3c0.2,0.3,0.4,0.4,0.6,0.5
		c0.3,0.1,0.5,0.1,0.8,0.1c0.4,0,0.9,0,1.3,0c0.1,0,0.3,0,0.4,0c0.5-0.1,0.9-0.3,1.2-1l0.2-4.3c0-0.6,0.5-1,1.2-1h3.3
		c0.7,0,1.2,0.4,1.2,1l0,4c0,0.7,0.3,1.2,1,1.2c0.1,0,0.2,0,0.2,0c0.5-0.1,0.8-0.6,0.8-1.2v-3.5v-2c0-1-0.8-1.3-1.5-1.6
		c-0.2-0.1-0.4-0.2-0.5-0.3c-0.1-0.1-0.2-0.2-0.2-0.4c0-0.8,0-5.3,0-5.3c0-0.6-0.5-1-1.2-1L504.5,513.1L504.5,513.1z M519,513.1
		c-0.1,0-0.2,0-0.2,0c-0.6,0.1-1,0.4-1,1l-0.1,13.2c0,0.3,0.1,0.6,0.4,0.7c0.1,0,0.1,0.1,0.2,0.1c0.2,0.1,0.4,0.1,0.7,0.1h8.4
		c0.7,0,1.2-0.4,1.2-1l-0.1-13.2c0-0.6-0.5-1-1.2-1L519,513.1L519,513.1z M532.1,513.1c-0.1,0-0.2,0-0.2,0c-0.2,0-0.3,0.1-0.4,0.1
		c-0.3,0.2-0.5,0.5-0.5,0.9l0.1,2l-0.1,11c0,0.6,0.3,1.1,0.8,1.2c0.1,0,0.1,0,0.2,0c0.1,0,0.2,0,0.2,0c0.5-0.1,0.8-0.6,0.8-1.2v-8.6
		c0-0.6,0.5-1,1.2-1h4.4c0.7,0,1.2,0.4,1.2,1l0,8.6c0,0.7,0.3,1.2,1,1.2c0.1,0,0.2,0,0.2,0c0.5-0.1,0.8-0.6,0.8-1.2l0-9.6l0-3.3
		c0-0.6-0.6-1-1.2-1H532.1L532.1,513.1z M552.9,513.1c-0.5,0-0.9,0.2-1.1,0.6c-0.1,0.1-0.1,0.3-0.1,0.4l-0.1,13.2
		c0,0.2,0.1,0.4,0.2,0.6c0.2,0.3,0.6,0.4,1,0.4l7.1,0c0.7,0,1.2-0.3,1.2-1c0-0.6-0.5-1-1.2-1l-5,0c-0.7,0-1.2-0.4-1.2-1l0.1-7
		c0-0.6,0.5-1,1.2-1h5c0.7,0,1.2-0.3,1.2-1v-2.3c0-0.6-0.6-1-1.2-1L552.9,513.1L552.9,513.1z M547,513.1c-0.4,0-0.7,0.2-0.8,0.5
		c-0.1,0.1-0.1,0.3-0.1,0.4c0,0.1,0,0.2,0,0.2l0.1,8.7c0,0.5-0.3,0.8-0.7,0.9c-0.1,0-0.1,0-0.2,0s-0.2,0-0.2,0h-0.5
		c-0.7,0-1.3,0.3-1.3,1v2.3c0,0.3,0.2,0.6,0.4,0.7c0.1,0,0.1,0.1,0.2,0.1c0.2,0.1,0.5,0.1,0.7,0.1h4c0.7,0,1.2-0.4,1.2-1V525
		c0-0.1,0-0.2,0-0.3c-0.1-0.6-0.5-0.6-0.9-0.7c-0.2,0-0.3-0.1-0.5-0.1c-0.2-0.1-0.4-0.3-0.4-0.9v-8.7
		C548,513.6,547.6,513.1,547,513.1z M396.5,513.1c-0.7,0-1.2,0.4-1.2,1v2.3c0,0.6,0.6,1,1.2,1h1.5c0.7,0,1.2,0.3,1.2,1l-0.1,8.7
		c0,0.7,0.3,1.2,1,1.2c0.1,0,0.1,0,0.2,0c0.5-0.1,0.8-0.6,0.8-1.2v-8.7c0-0.6,0.4-0.9,1-0.9c0.1,0,0.2,0,0.2,0h4.2
		c0.7,0,1.2,0.3,1.2,1v8.7c0,0.7,0.4,1.2,1,1.2c0.1,0,0.2,0,0.2,0c0.5-0.1,0.7-0.6,0.7-1.2l-0.1-8.7c0-0.6,0.4-0.9,1-0.9
		c0.1,0,0.2,0,0.2,0h1.5c0.7,0,1.2-0.3,1.2-1v-2.3c0-0.6-0.5-1-1.2-1H396.5L396.5,513.1z M493.3,513.1c-0.2,0-0.3,0-0.5,0.1
		c-0.1,0-0.1,0-0.2,0.1c-0.3,0.2-0.5,0.5-0.5,0.9v2.3c0,0.6,0.6,1,1.2,1h1.5c0.7,0,1.2,0.3,1.2,1l-0.1,8.7c0,0.3,0.1,0.6,0.2,0.9
		c0,0.1,0.1,0.1,0.1,0.1c0.1,0.1,0.2,0.1,0.4,0.2c0.1,0,0.1,0,0.2,0c0.1,0,0.1,0,0.2,0c0.5-0.1,0.8-0.6,0.8-1.2v-8.7
		c0-0.6,0.4-0.9,1-0.9c0.1,0,0.2,0,0.2,0h1.5c0.7,0,1.2-0.3,1.2-1v-2.3c0-0.6-0.5-1-1.2-1L493.3,513.1L493.3,513.1L493.3,513.1z
		 M571.7,513.1l-7.2,0c-0.1,0-0.2,0-0.2,0c-0.6,0.1-1,0.4-1,1l0.1,6.7c0,0.6,0.5,1,1.2,1l3.5,0.1c0.7,0,1.2,0.4,1.2,1l-0.1,2.4
		c0,0.2,0,0.3-0.1,0.4c-0.1,0.2-0.3,0.4-0.6,0.5c-0.1,0-0.2,0-0.2,0s-0.2,0-0.2,0l-5,0c-0.1,0-0.2,0-0.2,0c-0.6,0.1-1,0.4-1,1
		c0,0.3,0.1,0.6,0.3,0.7c0.2,0.2,0.5,0.3,0.9,0.3h9.4c0.3,0,0.6-0.1,0.9-0.2c0.2-0.2,0.4-0.4,0.4-0.7l0.1-6.6c0-0.6-0.6-1-1.2-1
		h-5.8c-0.7,0-1.2-0.3-1.2-1l-0.1-2.8c0-0.6,0.6-1,1.2-1l5.1,0c0.7,0,1.2-0.4,1.2-1C572.9,513.5,572.4,513.1,571.7,513.1
		L571.7,513.1z M418.2,513.3c-0.7,0-1.2,0.3-1.2,1v4.6c0,0.7-0.3,1.2-1,1.2l-1.3,0c-0.7,0-1.2,0.3-1.2,1l-0.1,6.3
		c0,0.5,0.3,0.8,0.8,0.9c0.1,0,0.1,0,0.2,0c0.1,0,0.2,0,0.2,0l9.8,0c0.7,0,1.2-0.3,1.2-1s-0.5-1-1.2-1l-7.7,0c-0.7,0-1.2-0.4-1.2-1
		l0.1-2.3c0-0.6,0.5-1,1.2-1l7.6,0c0.1,0,0.2,0,0.2,0c0.1,0,0.1,0,0.2,0c0.4-0.1,0.8-0.4,0.8-0.9c0-0.6-0.4-0.9-1-1
		c-0.1,0-0.2,0-0.2,0l-1.7,0c-0.1,0-0.2,0-0.2,0c-0.3,0-0.6-0.2-0.8-0.4c-0.1-0.2-0.2-0.4-0.2-0.6l0.1-2.9c0-0.6,0.6-1,1.2-1h1.6
		c0.7,0,1.2-0.3,1.2-1c0-0.6-0.5-1-1.2-1L418.2,513.3L418.2,513.3z M447.6,513.3c-0.4,0-0.8,0.1-1,0.4c0,0-0.1,0.1-0.1,0.2
		c-0.1,0.1-0.1,0.3-0.1,0.4v4.6c0,0.7-0.3,1.2-1,1.2l-1.3,0c-0.7,0-1.2,0.3-1.2,1l-0.1,6.3c0,0.2,0.1,0.4,0.2,0.6
		c0.1,0.2,0.3,0.3,0.5,0.3c0.1,0,0.1,0,0.2,0s0.2,0,0.2,0l9.8,0c0.7,0,1.2-0.3,1.2-1c0-0.6-0.5-1-1.2-1l-7.7,0c-0.7,0-1.2-0.4-1.2-1
		l0.1-2.3c0-0.6,0.6-1,1.2-1l7.6,0c0.1,0,0.2,0,0.2,0c0.1,0,0.2,0,0.2,0c0.4-0.1,0.7-0.4,0.7-0.9c0-0.6-0.4-0.9-1-1
		c-0.1,0-0.2,0-0.2,0l-1.7,0c-0.1,0-0.2,0-0.2,0c-0.3,0-0.6-0.2-0.8-0.4c-0.1-0.2-0.2-0.4-0.2-0.6l0.1-2.9c0-0.6,0.5-1,1.2-1h1.6
		c0.7,0,1.2-0.3,1.2-1c0-0.6-0.5-1-1.2-1H447.6L447.6,513.3z M471.9,513.3c-0.4,0-0.8,0.1-1,0.4c0,0-0.1,0.1-0.1,0.2
		c-0.1,0.1-0.1,0.3-0.1,0.4l0,4.6c0,0.7-0.3,1.2-1,1.2l-1.3,0c-0.7,0-1.2,0.3-1.2,1l-0.1,6.3c0,0.2,0.1,0.4,0.2,0.6
		c0.1,0.2,0.3,0.3,0.5,0.3c0.1,0,0.1,0,0.2,0c0.1,0,0.2,0,0.2,0l9.8,0c0.7,0,1.2-0.3,1.2-1c0-0.6-0.6-1-1.2-1l-7.7,0
		c-0.7,0-1.2-0.4-1.2-1l0.1-2.3c0-0.6,0.5-1,1.2-1l7.6,0c0.1,0,0.2,0,0.2,0c0.1,0,0.2,0,0.2,0c0.4-0.1,0.8-0.4,0.8-0.9
		c0-0.6-0.4-0.9-1-1c-0.1,0-0.2,0-0.2,0l-1.7,0c-0.1,0-0.2,0-0.2,0c-0.3,0-0.6-0.2-0.8-0.4c-0.1-0.2-0.2-0.4-0.2-0.6l0.1-2.9
		c0-0.6,0.5-1,1.2-1h1.6c0.7,0,1.2-0.3,1.2-1c0-0.6-0.6-1-1.2-1H471.9L471.9,513.3z M387.5,515.3h2.7c0.7,0,1.2,0.3,1.2,1l0.1,2.8
		c0,0.6-0.5,1-1.2,1h-4c-1.4,0-1.2-1-1.1-1.3l1.1-2.5C386.6,515.7,386.8,515.3,387.5,515.3L387.5,515.3z M506.6,515.3h3.3
		c0.7,0,1.2,0.3,1.2,1l0.1,2.8c0,0.6-0.6,1-1.2,1h-3.5c-0.7,0-1.2-0.4-1.2-1l0.1-2.8C505.4,515.6,505.9,515.3,506.6,515.3z
		 M520.9,515.3h4.4c0.7,0,1.2,0.3,1.2,1l0.1,7c0,0.6-0.5,1-1.2,1h-4.5c-0.7,0-1.2-0.4-1.2-1l0.1-7
		C519.7,515.6,520.2,515.3,520.9,515.3L520.9,515.3z"/>
	<path id="path7" style="fill:#FFFFFF;" d="M340.8,518.9c0,0-15.5,59.5-15.9,60.9c-0.5,1.8-2.2,2.3-3.1,0.3
		c-1.1-2.2-12.8-42.4-12.8-42.4h-21.4c0,0,16,52.4,16.7,53.9c7.6,16.2,24.3,9.8,27.7-2.2c3.5-12.3,18.6-70.6,18.6-70.6H340.8
		L340.8,518.9z M120,523.3l-33.2,21.2c0-4.1,0-6.7,0-6.7H76.3V567c0,0.7-1.4,2.1-2.6,0.3c0,0-14.1-20.2-19.1-26.2
		c-4.2-5.1-19-4.8-19,7.2c0,7.6,0,52.2,0,52.2h10.6v-36.8c0-2,1.8-1.3,2.9-0.1c0.5,0.6,23.1,35,24.1,36.4c2.3,3.1,13.7,5.4,13.7-6.4
		c0-8.4,0-33.4,0-46.8h10.3c1.1,0,2.5,1.2,2.5,1.2c0,1-0.2,33.1-0.2,37.4c0,9.5,7.9,16,16.4,16h19V592h-8.8c-3.1,0-5.6-2.3-5.6-5.4
		v-36.1c0-1.9,1.6-4.7,4.7-4.7c3.1,0,9.8-0.1,9.8-0.1v-8h-13.1c-1.2,0-1.9-1-1.9-1.9L120,523.3L120,523.3z M7,523.7
		c0,0-0.2,73.3-0.2,77.7l20.5,0v-77.6L7,523.7L7,523.7z M485.7,537c-9.8,0-18.7,4.1-24.8,10.6c-0.4,0.4-0.7,0.8-1,1.2
		c-4.8,5.6-7.7,12.8-7.7,20.6c0,4.5,1,8.8,2.7,12.7c0.2,0.5,0.4,1,0.7,1.4c4,8,11.3,14.2,20.2,16.9c0.5,0.2,1.1,0.3,1.6,0.4
		c2.7,0.7,5.5,1,8.4,1c18.5,0,33.6-14.5,33.6-32.5C519.2,551.5,504.2,537,485.7,537L485.7,537z M396.2,537.4
		c-12.3,0-21.9,8.8-21.9,21.3c0,12.9,14.2,17,21.7,17.8c4.7,0.5,9.3,3.8,9.3,8.4c0,3.7-3.2,6.7-6.7,6.7l-22-0.1v9.3H401
		c0.4,0,0.8,0,1.1,0c11.8-0.6,21.1-10,21.1-21.7c0-1.9-0.1-3.6-0.4-5.2c-0.1-0.4-0.1-0.7-0.2-1.1c-2.1-9.8-9.8-11.6-21.7-14.8
		c0,0-6.3-2-6.3-5.8c0-2.4,1.4-4,3.3-4.9c0.2-0.1,0.4-0.2,0.6-0.2c1-0.4,2.1-0.5,3.1-0.5l14.9,0.1v-9.2L396.2,537.4L396.2,537.4z
		 M262.4,537.5c0,0-0.2,6.5-0.2,10.9l20.5-0.1v-10.8L262.4,537.5L262.4,537.5z M349.3,537.5c0,0-0.1,6.5-0.1,10.9l20.4-0.1v-10.8
		L349.3,537.5L349.3,537.5z M427.6,537.5c0,0-0.1,6.5-0.1,10.9l20.4-0.1v-10.8L427.6,537.5L427.6,537.5z M153,537.6
		c-5.9,0-10.1,3-12.2,8c-0.2,0.5-0.3,0.9-0.5,1.4c-0.6,1.9-0.9,4.1-0.9,6.5v31.2c0,9.5,5.1,16.3,13.7,16.3h30.7v-9.2h-18.3
		c-3.1,0-5.6-2.7-5.6-5.8v-12.2h21v-9.2l-21-0.1l-0.1-12.3c0-3.1,2.5-5.4,5.6-5.4h18.3v-9.3L153,537.6L153,537.6z M187.9,537.7
		c0,0-0.2,43.2-0.2,47.6c0,1.8,0.3,3.5,0.7,5c0.2,0.5,0.3,1,0.5,1.5c2.2,5.3,7.2,8.8,12.9,9.4c0.5,0,1.1,0.1,1.6,0.1h19V592h-8.4
		c-3.1,0-5.6-2.3-5.6-5.4v-48.9H187.9L187.9,537.7z M224.2,537.7c0,0-0.1,43.2-0.1,47.6c0,8.9,6.4,15.1,14.2,15.9
		c0.5,0,1,0.1,1.6,0.1h19V592h-8.7c-3.1,0-5.6-2.3-5.6-5.4v-48.9H224.2L224.2,537.7z M563.2,537.8V567c0,0.7-1.4,2.1-2.6,0.3
		c0,0-14-20.2-19.1-26.2c-4.2-5.1-19-4.8-19.1,7.2c0,7.6,0,52.2,0,52.2H533v-36.8c0-2,1.8-1.3,2.9-0.1c0.5,0.6,23.2,35,24.2,36.4
		c0.4,0.6,1.2,1.1,2.1,1.6c0.3,0.1,0.6,0.3,1,0.4c4.2,1.4,10.6,0.5,10.6-8.3c0-11.8,0-55.7,0-55.7L563.2,537.8L563.2,537.8z
		 M485.7,544.5c8.1,0,11.4,11.1,11.4,24.9c0,13.7-3.8,24.9-11.4,24.9c-2.1,0-3.8-0.7-5.2-1.9c-0.2-0.2-0.4-0.3-0.5-0.5
		c-0.5-0.5-1-1.1-1.4-1.8c-0.1-0.2-0.3-0.5-0.4-0.7c-2.6-4.5-3.7-11.8-3.7-20c0-0.9,0-1.7,0-2.5c0.1-7.5,1-14.1,3.6-18.1
		c0.1-0.2,0.3-0.4,0.4-0.6C480.1,545.9,482.4,544.5,485.7,544.5L485.7,544.5z M262.4,552.4c0,0-0.2,44.6-0.2,49l20.5,0v-49
		L262.4,552.4L262.4,552.4z M349.3,552.4c0,0-0.1,44.6-0.1,49l20.4,0v-49L349.3,552.4L349.3,552.4z M427.6,552.4
		c0,0-0.1,44.6-0.1,49l20.4,0v-49L427.6,552.4L427.6,552.4z"/>
</g>
</svg>
