<?xml version="1.0" encoding="utf-8"?>
<!-- Generator: Adobe Illustrator 24.0.1, SVG Export Plug-In . SVG Version: 6.00 Build 0)  -->
<svg version="1.1"
	 id="Layer_3" xmlns:cc="http://creativecommons.org/ns#" xmlns:dc="http://purl.org/dc/elements/1.1/" xmlns:rdf="http://www.w3.org/1999/02/22-rdf-syntax-ns#"
	 xmlns="http://www.w3.org/2000/svg" xmlns:xlink="http://www.w3.org/1999/xlink" x="0px" y="0px" viewBox="0 0 398.2 350.3"
	 style="enable-background:new 0 0 398.2 350.3;" xml:space="preserve">
<g>
	<path style="fill:#FFFFFF;" d="M265.4,16.8l-6.9,0v-0.4c0-0.7-0.2-1.3-0.7-1.8c-0.5-0.5-1.1-0.8-1.8-0.8H142.2
		c-1.4,0-2.5,1.1-2.5,2.5v0.4l-6.9,0c-3,0-5.5,2.5-5.5,5.5v308.5c0,3,2.5,5.5,5.5,5.5h132.7c2.4,0,4.4-1.5,5.1-3.8h0.4V22.3
		C271,19.3,268.5,16.8,265.4,16.8z M130.7,22.3c0-1.2,0.9-2.1,2.1-2.1h132.7c1.2,0,2.1,0.9,2.1,2.1v308.5c0,1.2-0.9,2.1-2.1,2.1
		H132.7c-1.2,0-2.1-0.9-2.1-2.1V22.3z"/>
	<path style="fill:#FFFFFF;" d="M150.3,211.2h97.7c9.3,0,16.9-7.6,16.9-16.9V70.8c0-9.3-7.6-16.9-16.9-16.9h-97.7
		c-9.3,0-16.9,7.6-16.9,16.9v123.5C133.4,203.6,141,211.2,150.3,211.2z M247.9,207.8h-97.7c-7.4,0-13.4-6-13.4-13.4V70.8
		c0-7.4,6-13.4,13.4-13.4h97.7c7.4,0,13.4,6,13.4,13.4v123.5C261.4,201.7,255.3,207.8,247.9,207.8z"/>
	<path style="fill:#FFFFFF;" d="M241.3,63.1h-84.5c-5.8,0-10.5,4.7-10.5,10.5v114.4c0,5.8,4.7,10.5,10.5,10.5h84.5
		c5.8,0,10.5-4.7,10.5-10.5V73.6C251.8,67.8,247.1,63.1,241.3,63.1z M248.4,73.6v114.4c0,3.9-3.2,7.1-7,7.1h-84.5
		c-3.9,0-7-3.2-7-7.1V73.6c0-3.9,3.2-7.1,7-7.1h84.5C245.2,66.5,248.4,69.7,248.4,73.6z"/>
	<path style="fill:#FFFFFF;" d="M199.1,214.1c-28.7,0-52.1,23.4-52.1,52.1c0,28.7,23.4,52.1,52.1,52.1c28.7,0,52.1-23.4,52.1-52.1
		C251.2,237.5,227.9,214.1,199.1,214.1z M199.1,315c-26.9,0-48.7-21.8-48.7-48.7c0-26.9,21.8-48.7,48.7-48.7s48.7,21.8,48.7,48.7
		C247.8,293.1,226,315,199.1,315z"/>
	<path style="fill:#FFFFFF;" d="M199.1,228.5c-21.2,0-38.4,17.2-38.4,38.4s17.2,38.4,38.4,38.4c21.2,0,38.4-17.2,38.4-38.4
		S220.3,228.5,199.1,228.5z M199.1,301.8c-19.3,0-35-15.7-35-35c0-19.3,15.7-35,35-35c19.3,0,34.9,15.7,34.9,35
		S218.4,301.8,199.1,301.8z"/>
	<path style="fill:#FFFFFF;" d="M177.7,70.2h-20.3c-2.7,0-4.9,2.2-4.9,4.9v19.1c0,2.7,2.2,4.9,4.9,4.9l20.3,0c2.7,0,4.9-2.2,4.9-4.9
		V75.1C182.6,72.4,180.4,70.2,177.7,70.2z M155.9,75.1c0-0.8,0.7-1.5,1.5-1.5h6.8c-4.7,1.5-8.1,5.9-8.1,11c0,5.2,3.4,9.6,8.1,11
		h-6.7c-0.8,0-1.5-0.7-1.5-1.5V75.1z M167.6,76.5c4.5,0,8.1,3.6,8.1,8.1c0,4.5-3.6,8.1-8.1,8.1c-4.5,0-8.1-3.6-8.1-8.1
		C159.4,80.2,163.1,76.5,167.6,76.5z M171,95.7c4.7-1.5,8.1-5.9,8.1-11c0-5.2-3.4-9.6-8.1-11h6.7c0.8,0,1.5,0.7,1.5,1.5v19.1
		c0,0.8-0.7,1.5-1.5,1.5H171z"/>
	<path style="fill:#FFFFFF;" d="M209.3,70.2h-20.3c-2.7,0-4.9,2.2-4.9,4.9v19.1c0,2.7,2.2,4.9,4.9,4.9h20.3c1.6,0,3.1-0.8,4-2
		l0.9,0.8V75.1C214.2,72.4,212,70.2,209.3,70.2z M187.5,75.1c0-0.8,0.7-1.5,1.5-1.5h6.8c-4.7,1.5-8.2,5.9-8.2,11
		c0,5.2,3.4,9.6,8.1,11h-6.7c-0.8,0-1.5-0.7-1.5-1.5V75.1z M199.1,76.5c4.5,0,8.1,3.6,8.1,8.1c0,4.5-3.6,8.1-8.1,8.1
		c-4.5,0-8.1-3.6-8.1-8.1C191,80.2,194.6,76.5,199.1,76.5z M202.6,95.7c4.7-1.5,8.1-5.9,8.1-11c0-3.1-1.2-6-3.4-8.2
		c-1.4-1.4-3-2.3-4.7-2.9h6.7c0.8,0,1.5,0.7,1.5,1.5v16l0,0v3.1c0,0.8-0.7,1.5-1.5,1.5H202.6z"/>
	<path style="fill:#FFFFFF;" d="M240.8,70.2h-20.3c-2.7,0-4.9,2.2-4.9,4.9v19.1c0,2.7,2.2,4.9,4.9,4.9h20.3c2.7,0,4.9-2.2,4.9-4.9
		V75.1C245.7,72.4,243.5,70.2,240.8,70.2z M219,75.1c0-0.8,0.7-1.5,1.5-1.5h6.8c-4.7,1.5-8.1,5.9-8.1,11c0,5.2,3.4,9.6,8.1,11h-6.7
		c-0.8,0-1.5-0.7-1.5-1.5V75.1z M230.7,76.5c4.5,0,8.1,3.6,8.1,8.1c0,4.5-3.6,8.1-8.1,8.1c-4.5,0-8.1-3.6-8.1-8.1
		C222.5,80.2,226.2,76.5,230.7,76.5z M242.2,84.6c0-5.2-3.4-9.6-8.1-11h6.8c0.8,0,1.5,0.7,1.5,1.5v19.1c0,0.8-0.7,1.5-1.5,1.5h-6.7
		C238.8,94.2,242.2,89.8,242.2,84.6z"/>
	<path style="fill:#FFFFFF;" d="M177.7,101.2h-20.3c-2.7,0-4.9,2.2-4.9,4.9v19.1c0,2.7,2.2,4.9,4.9,4.9h20.3c1.5,0,2.9-0.7,3.8-1.8
		l1.1,1.1v-23.3C182.6,103.4,180.4,101.2,177.7,101.2z M155.9,106.1c0-0.8,0.7-1.5,1.5-1.5h6.7c-4.7,1.5-8.1,5.9-8.1,11
		c0,5.2,3.4,9.6,8.1,11h-6.7c-0.8,0-1.5-0.7-1.5-1.5V106.1z M167.6,107.6c4.5,0,8.1,3.6,8.1,8.1c0,4.5-3.6,8.1-8.1,8.1
		c-4.5,0-8.1-3.6-8.1-8.1C159.4,111.2,163.1,107.6,167.6,107.6z M171,126.7c4.7-1.5,8.1-5.9,8.1-11c0-5.2-3.4-9.6-8.1-11h6.7
		c0.8,0,1.5,0.7,1.5,1.5v19.1c0,0.8-0.7,1.5-1.5,1.5H171z"/>
	<path style="fill:#FFFFFF;" d="M209.3,101.2h-20.3c-2.7,0-4.9,2.2-4.9,4.9v19.1c0,2.7,2.2,4.9,4.9,4.9h20.3c1.9,0,3.6-1.1,4.4-2.7
		l0.5,0.2v-21.5C214.2,103.4,212,101.2,209.3,101.2z M187.5,106.1c0-0.8,0.7-1.5,1.5-1.5h6.7c-4.7,1.5-8.1,5.9-8.1,11
		c0,5.2,3.4,9.6,8.1,11h-6.7c-0.8,0-1.5-0.7-1.5-1.5V106.1z M199.1,107.6c4.5,0,8.1,3.6,8.1,8.1c0,4.5-3.6,8.1-8.1,8.1
		c-4.5,0-8.1-3.6-8.1-8.1C191,111.2,194.6,107.6,199.1,107.6z M202.5,126.7c4.7-1.5,8.1-5.9,8.1-11c0-3.1-1.2-6-3.4-8.2
		c-1.3-1.3-3-2.3-4.7-2.9h6.7c0.8,0,1.5,0.7,1.5,1.5l0,19.1c0,0.8-0.7,1.5-1.5,1.5H202.5z"/>
	<path style="fill:#FFFFFF;" d="M240.8,101.2h-20.3c-2.7,0-4.9,2.2-4.9,4.9v19.1c0,2.7,2.2,4.9,4.9,4.9h20.3c2.7,0,4.9-2.2,4.9-4.9
		v-19.1C245.7,103.4,243.5,101.2,240.8,101.2z M219,106.1c0-0.8,0.7-1.5,1.5-1.5h6.7c-4.7,1.5-8.1,5.9-8.1,11c0,5.2,3.4,9.6,8.1,11
		h-6.7c-0.8,0-1.5-0.7-1.5-1.5V106.1z M230.7,107.6c4.5,0,8.1,3.6,8.1,8.1c0,4.5-3.6,8.1-8.1,8.1c-4.5,0-8.1-3.6-8.1-8.1
		C222.5,111.2,226.2,107.6,230.7,107.6z M242.2,115.7c0-5.2-3.4-9.6-8.1-11h6.7c0.8,0,1.5,0.7,1.5,1.5v19.1c0,0.8-0.7,1.5-1.5,1.5
		h-6.7C238.8,125.3,242.2,120.9,242.2,115.7z"/>
	<path style="fill:#FFFFFF;" d="M176.8,132.3h-20.3c-2.7,0-4.9,2.2-4.9,4.9v19.1c0,2.7,2.2,4.9,4.9,4.9h20.3c2.6,0,4.8-2.1,4.9-4.8
		l0-19.2C181.8,134.5,179.6,132.3,176.8,132.3z M155,137.2c0-0.8,0.7-1.5,1.5-1.5h6.8c-4.7,1.4-8.2,5.8-8.2,11c0,5.2,3.4,9.6,8.1,11
		h-6.8c-0.8,0-1.5-0.7-1.5-1.5V137.2z M166.7,138.6c4.5,0,8.1,3.6,8.1,8.1c0,4.5-3.6,8.1-8.1,8.1c-4.5,0-8.1-3.6-8.1-8.1
		C158.6,142.3,162.2,138.6,166.7,138.6z M178.2,146.7c0-5.2-3.4-9.6-8.2-11h6.8c0.8,0,1.5,0.7,1.5,1.5l0,19.1c0,0.8-0.7,1.5-1.5,1.5
		h-6.8C174.8,156.3,178.2,151.9,178.2,146.7z"/>
	<path style="fill:#FFFFFF;" d="M188.1,161.2h20.3c2.7,0,4.9-2.2,4.9-4.9v-19.1c0-2.7-2.2-4.9-4.9-4.9h-20.3c-2.7,0-4.9,2.2-4.9,4.9
		v19.1C183.2,159,185.4,161.2,188.1,161.2z M209.9,156.3c0,0.8-0.7,1.5-1.5,1.5h-6.8c4.7-1.5,8.2-5.9,8.2-11c0-5.2-3.4-9.6-8.2-11
		h6.8c0.8,0,1.5,0.7,1.5,1.5V156.3z M198.2,154.8c-4.5,0-8.1-3.6-8.1-8.1c0-4.5,3.6-8.1,8.1-8.1c4.5,0,8.1,3.6,8.1,8.1
		C206.3,151.2,202.7,154.8,198.2,154.8z M186.7,146.7c0,5.2,3.4,9.6,8.1,11h-6.8c-0.8,0-1.5-0.7-1.5-1.5v-19.1
		c0-0.8,0.7-1.5,1.5-1.5h6.8C190.1,137.1,186.7,141.5,186.7,146.7z"/>
	<path style="fill:#FFFFFF;" d="M240,132.3h-20.3c-2.7,0-4.9,2.2-4.9,4.9v19.1c0,2.7,2.2,4.9,4.9,4.9H240c2.7,0,4.9-2.2,4.9-4.9
		v-19.1C244.9,134.5,242.7,132.3,240,132.3z M218.2,156.3v-19.1c0-0.8,0.7-1.5,1.5-1.5h6.8c-4.7,1.4-8.2,5.8-8.2,11
		c0,5.2,3.4,9.6,8.1,11h-6.8C218.8,157.8,218.2,157.1,218.2,156.3z M229.8,138.6c4.5,0,8.1,3.6,8.1,8.1c0,4.5-3.6,8.1-8.1,8.1
		c-4.5,0-8.1-3.6-8.1-8.1C221.7,142.3,225.3,138.6,229.8,138.6z M241.3,146.7c0-5.2-3.4-9.6-8.2-11h6.8c0.8,0,1.5,0.7,1.5,1.5v19.1
		c0,0.8-0.7,1.5-1.5,1.5h-6.8C237.9,156.3,241.3,151.9,241.3,146.7z"/>
	<path style="fill:#FFFFFF;" d="M176.8,163.3h-20.3c-2.7,0-4.9,2.2-4.9,4.9v19.1c0,2.7,2.2,4.9,4.9,4.9h20.3c2.7,0,4.9-2.2,4.9-4.9
		v-19.1C181.8,165.5,179.6,163.3,176.8,163.3z M155.1,168.2c0-0.8,0.7-1.5,1.5-1.5h6.8c-4.7,1.5-8.1,5.9-8.1,11
		c0,5.2,3.4,9.6,8.2,11h-6.8c-0.8,0-1.5-0.7-1.5-1.5V168.2z M166.7,169.7c4.5,0,8.1,3.6,8.1,8.1c0,4.5-3.6,8.1-8.1,8.1
		c-4.5,0-8.1-3.6-8.1-8.1C158.6,173.3,162.2,169.7,166.7,169.7z M178.2,177.8c0-5.2-3.4-9.6-8.2-11h6.8c0.8,0,1.5,0.7,1.5,1.5v19.1
		c0,0.8-0.7,1.5-1.5,1.5H170C174.8,187.4,178.2,183,178.2,177.8z"/>
	<path style="fill:#FFFFFF;" d="M208.4,163.3h-20.3c-2.7,0-4.9,2.2-4.9,4.9v19.1c0,2.7,2.2,4.9,4.9,4.9h20.3c2.7,0,4.9-2.2,4.9-4.9
		v-19.1C213.3,165.5,211.1,163.3,208.4,163.3z M186.6,187.3v-19.1c0-0.8,0.7-1.5,1.5-1.5h6.8c-4.7,1.5-8.1,5.9-8.1,11
		c0,5.2,3.4,9.6,8.2,11h-6.8C187.3,188.8,186.6,188.2,186.6,187.3z M198.2,169.7c4.5,0,8.1,3.6,8.1,8.1c0,4.5-3.6,8.1-8.1,8.1
		c-4.5,0-8.1-3.6-8.1-8.1C190.1,173.3,193.8,169.7,198.2,169.7z M209.8,177.8c0-5.2-3.4-9.6-8.2-11h6.8c0.8,0,1.5,0.7,1.5,1.5v19.1
		c0,0.8-0.7,1.5-1.5,1.5h-6.8C206.3,187.4,209.8,183,209.8,177.8z"/>
	<path style="fill:#FFFFFF;" d="M240,163.3h-20.3c-2.7,0-4.9,2.2-4.9,4.9v19.1c0,2.7,2.2,4.9,4.9,4.9H240c2.7,0,4.9-2.2,4.9-4.9
		v-19.1C244.9,165.5,242.7,163.3,240,163.3z M218.2,187.3v-19.1c0-0.8,0.7-1.5,1.5-1.5h6.8c-4.7,1.5-8.1,5.9-8.1,11
		c0,5.2,3.5,9.6,8.2,11h-6.8C218.8,188.8,218.2,188.2,218.2,187.3z M229.8,169.7c4.5,0,8.1,3.6,8.1,8.1c0,4.5-3.6,8.1-8.1,8.1
		c-4.5,0-8.1-3.6-8.1-8.1C221.7,173.3,225.3,169.7,229.8,169.7z M241.3,177.8c0-5.2-3.4-9.6-8.2-11h6.8c0.8,0,1.5,0.7,1.5,1.5v19.1
		c0,0.8-0.7,1.5-1.5,1.5h-6.8C237.9,187.4,241.3,183,241.3,177.8z"/>
</g>
</svg>
