<?xml version="1.0" encoding="utf-8"?>
<!-- Generator: Adobe Illustrator 24.0.1, SVG Export Plug-In . SVG Version: 6.00 Build 0)  -->
<svg version="1.1" id="레이어_1" xmlns="http://www.w3.org/2000/svg" xmlns:xlink="http://www.w3.org/1999/xlink" x="0px"
	 y="0px" viewBox="0 0 239.8 120" style="enable-background:new 0 0 239.8 120;" xml:space="preserve">
<g id="g5">
	<path style="fill:#FFFFFF;" d="M159.4,36.8c0.4,0,0.8,0.1,1.2,0.1c3.1,0.2,6.1,0.9,8.9,2.4c2,1,3.7,2.4,5.3,4
		c1.7,1.7,3.1,3.7,4.2,5.8c0.8,1.6,1.3,3.3,1.7,5c0.5,2.1,0.6,4.3,0.5,6.5c-0.1,3.5-0.9,6.8-2.6,9.9c-1.1,2.2-2.6,4.1-4.4,5.7
		c-2.9,2.7-6.2,4.4-10,5.3c-1.4,0.3-2.9,0.5-4.3,0.5c-0.1,0-0.1,0-0.2,0h-1.7c-0.4,0-0.7-0.1-1.1-0.1c-4.4-0.3-8.5-1.7-12-4.5
		c-2.8-2.2-4.9-4.9-6.4-8.1c-0.8-1.6-1.3-3.4-1.6-5.1c-0.4-2-0.5-4-0.4-6.1c0.2-4.3,1.3-8.3,3.8-11.8c2.9-4.1,6.7-7.1,11.6-8.5
		c1.5-0.4,3-0.7,4.6-0.8c0.5,0,1-0.1,1.5-0.1c0.1,0,0.2,0,0.2,0L159.4,36.8L159.4,36.8z M158.7,76.2c1.6,0,3.1-0.1,4.6-0.5
		c3.3-0.8,6-2.5,8.1-5.1c2.2-2.6,3.4-5.7,3.7-9.1c0.1-1.2,0.1-2.3,0.1-3.5c-0.1-1.3-0.2-2.5-0.6-3.7c-1-3.8-3.2-6.9-6.5-9.1
		c-2.5-1.6-5.2-2.4-8.2-2.6c-1.6-0.1-3.2,0-4.8,0.3c-2.8,0.5-5.2,1.6-7.4,3.5c-2.1,1.8-3.6,4-4.5,6.6c-0.7,2-1,4-1,6
		c0,1.6,0.1,3.2,0.4,4.8c0.6,2.8,1.9,5.3,3.9,7.5c1.8,1.9,3.8,3.2,6.3,4.1C154.7,76,156.7,76.2,158.7,76.2z"/>
	<path style="fill:#FFFFFF;" d="M239.8,81c-0.2,0.4-0.3,0.5-0.8,0.5c-1.5,0-3,0-4.5,0c-0.5,0-0.7-0.2-0.7-0.7V38.1
		c0-0.5,0.2-0.7,0.7-0.7c1.5,0,3,0,4.5,0c0.2,0,0.4,0.1,0.5,0.2c0.1,0.1,0.1,0.2,0.2,0.3L239.8,81L239.8,81z"/>
	<path style="fill:#FFFFFF;" d="M118.1,55.3c0.8,1,1.5,2,2.2,3c1.6,2.1,3.2,4.2,4.7,6.3c2,2.7,4.1,5.4,6.1,8.1c2,2.6,4,5.3,6,7.9
		c0.1,0.2,0.2,0.4,0.1,0.6c-0.1,0.2-0.3,0.3-0.6,0.3c-0.1,0-0.2,0-0.3,0c-1.8,0-3.7,0-5.5,0c-0.3,0-0.5-0.1-0.7-0.4
		c-3.5-4.6-6.9-9.3-10.4-13.9c-2-2.6-3.9-5.3-5.9-7.9c0,0,0,0-0.1-0.1c-0.2,0.2-0.5,0.4-0.7,0.7c-1.6,1.5-3.2,3-4.8,4.5
		c-0.9,0.8-1.8,1.6-2.6,2.5c-0.1,0.1-0.2,0.2-0.2,0.4c0,4.5,0,9,0,13.4c0,0.1,0,0.1,0,0.2c0,0.4-0.2,0.6-0.6,0.6c-1.6,0-3.1,0-4.7,0
		c-0.4,0-0.6-0.2-0.6-0.6c0,0,0-0.1,0-0.1V38.1v0c0-0.5,0.2-0.7,0.7-0.7c1.4,0,2.9,0,4.3,0c0.1,0,0.2,0,0.3,0c0.4,0,0.6,0.2,0.6,0.6
		c0,0.1,0,0.1,0,0.2v20.7v0.3c0.4-0.3,0.7-0.6,1-0.9c1.9-1.8,3.8-3.5,5.7-5.3c2.5-2.3,5-4.6,7.4-7c2.1-1.9,4.2-3.9,6.2-5.8
		c0.9-0.8,1.8-1.6,2.6-2.5c0.2-0.2,0.4-0.3,0.6-0.3c2.2,0,4.4,0,6.6,0c0.4,0,0.6,0.1,0.7,0.4c0.1,0.2,0,0.4-0.2,0.6
		c-0.6,0.6-1.3,1.2-1.9,1.8c-1.1,1.1-2.3,2.1-3.4,3.2c-1.6,1.5-3.1,2.9-4.7,4.4c-1.6,1.5-3.2,3-4.8,4.5
		C120.2,53.2,119.2,54.3,118.1,55.3z"/>
	<path style="fill:#FFFFFF;" d="M187.9,59.4V38.2c0-0.1,0-0.1,0-0.2c0-0.4,0.2-0.6,0.6-0.6c0,0,0.1,0,0.1,0c6.1,0,12.2,0,18.3,0
		c2.8,0,5.5,0.6,8,1.8c2.2,1,4.2,2.4,5.9,4.1c2.8,2.8,4.6,6.2,5.5,10c0.5,2.2,0.7,4.5,0.7,6.8c-0.1,3.1-0.6,6-1.8,8.9
		c-1,2.4-2.4,4.5-4.1,6.4c-2.7,2.9-5.9,4.8-9.8,5.7c-1.6,0.4-3.3,0.6-5,0.6c-5.9,0-11.8,0-17.7,0c-0.1,0-0.2,0-0.3,0
		c-0.2,0-0.4-0.2-0.4-0.4c0-0.1,0-0.2,0-0.3C187.9,73.7,187.9,66.6,187.9,59.4z M193.9,75.8h0.3c4,0,7.9,0,11.9,0
		c0.7,0,1.4,0,2.1-0.1c1.5-0.1,2.9-0.5,4.2-1.1c1.8-0.8,3.2-2,4.5-3.4c1.2-1.3,2.1-2.8,2.8-4.5c0.7-1.8,1.1-3.6,1.3-5.5
		c0.1-1.7,0.1-3.5-0.2-5.2c-0.3-2-1-3.9-2-5.7c-1.1-2-2.6-3.7-4.5-5c-2.2-1.6-4.8-2.3-7.5-2.3c-4.2,0-8.5,0-12.7,0h-0.2L193.9,75.8
		L193.9,75.8L193.9,75.8z"/>
</g>
<g id="g15">
	<path style="fill:#FFFFFF;" d="M79.1,60c-0.3,0.8-0.8,1.4-1.4,2c-4,4-8,8-12,12c-1.4,1.4-3,1.4-4.4,0c-4.1-4.1-8.3-8.3-12.4-12.4
		c-1.4-1.4-1.4-2.9,0-4.4c4.2-4.2,8.3-8.3,12.5-12.5c1.4-1.4,2.9-1.4,4.3,0c4,4,8,8.1,12.1,12.1c0.6,0.6,1.2,1.2,1.4,2V60L79.1,60
		L79.1,60z"/>
	<path style="fill:#FFFFFF;" d="M39.3,98.8c-0.8-0.3-1.4-0.8-2-1.4c-4-4-8-8-12-12c-1.4-1.4-1.4-3,0-4.4c4.1-4.1,8.3-8.3,12.4-12.4
		c1.4-1.4,3-1.4,4.3,0c4.1,4.1,8.3,8.3,12.4,12.4c1.4,1.4,1.4,3,0,4.4c-4,4-8.1,8.1-12.1,12.1c-0.6,0.6-1.2,1.1-2,1.3H39.3
		L39.3,98.8z"/>
	<path style="fill:#FFFFFF;" d="M24.7,49.6c0-4.6,0-9.2,0-13.8c0-1.3,0.3-2.4,1.3-3.3c0.8-0.7,1.5-1.5,2.3-2.3c3-3,6.1-6.1,9.1-9.1
		c1.4-1.4,3-1.4,4.4,0c4.1,4.1,8.3,8.3,12.4,12.4c1.4,1.4,1.4,3,0,4.4c-4.9,4.9-9.8,9.8-14.7,14.7c-4.3,4.3-8.6,8.6-12.9,13
		c-0.8,0.8-1.5,0.6-1.8-0.5c-0.1-0.3-0.1-0.7-0.1-1.1C24.7,59.1,24.7,54.4,24.7,49.6z"/>
	<path style="fill:#FFFFFF;" d="M14.8,59.5c0,4.2,0,8.5,0,12.7c0,0.4-0.1,0.8-0.2,1.2c-0.3,0.7-0.8,0.8-1.4,0.3
		c-1.9-1.9-3.9-3.9-5.8-5.8c-2.2-2.2-4.5-4.5-6.7-6.7c-0.9-0.9-0.9-2.2,0-3.2c4.1-4.2,8.3-8.4,12.4-12.5c0.3-0.3,0.5-0.7,1-0.5
		c0.4,0.2,0.6,0.6,0.7,1c0,0.3,0.1,0.6,0.1,0.8C14.8,51.1,14.8,55.3,14.8,59.5L14.8,59.5L14.8,59.5z"/>
</g>
</svg>
