<?xml version="1.0" encoding="utf-8"?>
<!-- Generator: Adobe Illustrator 24.0.1, SVG Export Plug-In . SVG Version: 6.00 Build 0)  -->
<svg version="1.1"
	 id="Layer_3" xmlns:cc="http://creativecommons.org/ns#" xmlns:dc="http://purl.org/dc/elements/1.1/" xmlns:rdf="http://www.w3.org/1999/02/22-rdf-syntax-ns#"
	 xmlns="http://www.w3.org/2000/svg" xmlns:xlink="http://www.w3.org/1999/xlink" x="0px" y="0px" viewBox="0 0 473 350.3"
	 style="enable-background:new 0 0 473 350.3;" xml:space="preserve">
<g>
	<path style="fill:#FFFFFF;" d="M392.6,172.3c-1.2-3.8-3.7-6.5-6.1-8.9c-11.3-11.3-22.7-22.6-34-34l-13-13
		c-3.1-3.1-6.5-4.7-10.1-4.7c0,0,0,0,0,0c-3.6,0-7,1.6-10.1,4.7c-16.2,16.2-32.3,32.3-48.4,48.5c-3.2,3.2-4.9,6.7-4.9,10.3
		c0,3.5,1.7,7.1,4.8,10.2c12.4,12.4,24.8,24.8,37.2,37.3l11,11c3,3.1,6.3,4.7,9.6,4.9l0.8,0c0,0,0,0,0,0c3.6,0,7.1-1.7,10.3-4.9
		l10.4-10.4c12.1-12.1,24.2-24.2,36.3-36.3c2.6-2.6,5-5.2,6.1-8.9l0.1-0.2l0-5L392.6,172.3z M322.9,119.9c2.1-2.1,4.3-3.2,6.6-3.2
		c2.2,0,4.4,1.1,6.6,3.2c4.9,4.9,9.8,9.8,14.7,14.8c10.7,10.7,21.5,21.5,32.2,32.2c1.9,1.9,3.9,4,4.7,6.5v3.4
		c-0.8,2.3-2.4,4.1-4.8,6.5c-11.7,11.7-23.4,23.3-35,35l-11.7,11.7c-2.3,2.3-4.6,3.5-6.8,3.5c-2.2,0-4.5-1.2-6.9-3.5l-10.1-10.1
		c-12.7-12.7-25.4-25.4-38-38.1c-2.2-2.2-3.4-4.5-3.4-6.7c0-2.2,1.1-4.5,3.4-6.7C290.6,152.2,306.7,136,322.9,119.9z"/>
	<path style="fill:#FFFFFF;" d="M255.2,215.7l-7.4-7.4c-3.1-3.1-6.6-4.7-10.1-4.7c0,0,0,0,0,0c-3.5,0-7.1,1.6-10.2,4.8
		c-16.1,16.1-32.2,32.2-48.3,48.4c-3.2,3.2-4.9,6.8-4.9,10.3c0,3.6,1.6,7.1,4.9,10.3l11.9,11.9c11.6,11.6,23.2,23.2,34.7,34.8
		c2.2,2.2,4.9,4.9,8.8,6.2l3.3,1v-0.9h1.9l0.5-0.1c3.8-1.1,6.5-3.6,8.8-5.8c10.9-11,21.8-21.9,32.8-32.8c4.8-4.8,9.5-9.5,14.3-14.3
		c3.2-3.2,4.9-6.7,4.9-10.3c0-3.6-1.7-7.2-4.9-10.4C282.5,243,268.9,229.3,255.2,215.7z M296,267c0,2.2-1.1,4.5-3.4,6.8l-14.4,14.4
		c-10.9,10.9-21.8,21.8-32.7,32.7c-2.1,2.1-4,3.7-6.3,4.4h-3.5c-2.4-0.9-4.4-2.7-6.5-4.8c-11.1-11.2-22.3-22.4-33.5-33.6l-13.2-13.2
		c-2.3-2.3-3.4-4.6-3.4-6.8c0-2.2,1.2-4.5,3.4-6.8l7.2-7.2c13.7-13.7,27.4-27.5,41.2-41.2c2.2-2.2,4.4-3.3,6.7-3.3
		c2.2,0,4.4,1.1,6.6,3.3c16.1,16.1,32.2,32.2,48.3,48.4C294.9,262.4,296,264.7,296,267z"/>
	<path style="fill:#FFFFFF;" d="M176.4,106.8c0,4.8,0,9.7,0,14.5c0,5,0,10.1,0,15.1l0,21.1c0,11.6,0,23.2,0,34.7
		c0,1.4,0,3.1,0.5,4.8c0.4,1.7,1.1,2.9,2,3.9c1,1.1,2.4,1.8,3.9,1.8c1.8,0,3.6-0.9,5.3-2.6c16.8-16.8,33.6-33.6,50.3-50.4l11.4-11.4
		c15.2-15.2,30.4-30.4,45.6-45.6c3.2-3.2,4.9-6.8,4.9-10.3c0-3.6-1.7-7.1-4.9-10.3l-5.4-5.4c-14.3-14.3-28.6-28.6-42.8-42.9
		c-3.2-3.2-6.8-4.9-10.3-4.9c0,0,0,0,0,0c-3.5,0-7.1,1.7-10.3,4.9c-9.5,9.5-19,19-28.5,28.6l-6.9,6.9c-0.9,0.9-1.8,1.9-2.8,2.8
		c-2.1,2.1-4,4.2-6.1,6c-4.1,3.5-6,8.1-6,14.1l0,0.5C176.4,89.7,176.4,97.4,176.4,106.8z M181.3,82.7l0-0.4c0-4.8,1.2-7.6,4.3-10.3
		c2.3-2,4.4-4.2,6.5-6.3c0.9-0.9,1.8-1.8,2.7-2.7l13.1-13.1c7.4-7.5,14.9-14.9,22.3-22.3c2.3-2.3,4.6-3.4,6.8-3.4
		c2.2,0,4.5,1.2,6.8,3.4c14.7,14.7,29.4,29.5,44.2,44.2l4,4c2.3,2.3,3.4,4.6,3.4,6.8c0,2.2-1.1,4.5-3.4,6.8
		c-13.2,13.3-26.5,26.5-39.7,39.8l-28.2,28.2c-13.1,13.1-26.3,26.3-39.4,39.4c-0.9,0.9-1.6,1.2-1.8,1.2c0,0-0.1,0-0.2-0.2
		c-0.1-0.1-0.5-0.6-0.8-1.8c-0.3-1-0.3-2.3-0.3-3.5c0-11.6,0-23.2,0-34.7l0-21.1c0-4.9,0-9.9,0-14.8c0-4.9,0-9.9,0-14.8
		C181.4,97.4,181.4,89.8,181.3,82.7z"/>
	<path style="fill:#FFFFFF;" d="M143,125.8c0-1.3-0.2-2.5-0.3-3.6c-0.4-2.9-1.9-5.1-4.2-5.9c-0.6-0.2-1.2-0.3-1.8-0.3c0,0,0,0,0,0
		c-1.1,0-2.3,0.4-3.2,1.3c-0.5,0.4-0.8,0.8-1.2,1.1c-0.1,0.1-0.2,0.3-0.4,0.4c-16.1,16.2-32.1,32.5-48.2,48.7
		c-2.2,2.2-3.4,5-3.4,7.9c0,2.9,1.2,5.7,3.4,7.9c7.7,7.7,15.5,15.5,23.2,23.2l9.3,9.3c5.5,5.5,10.9,10.9,16.4,16.4l0,0
		c1.4,1.4,2.9,2.1,4.4,2.1c2.2,0,4.1-1.6,5-4c0.6-1.6,1-3.6,1-5.6c0-9,0-17.9,0-26.9l0-41.1C143,146.3,143,136.1,143,125.8z
		 M138,197.8c0,9,0,17.9,0,26.9c0,1.4-0.2,2.7-0.6,3.8c-0.2,0.5-0.3,0.7-0.4,0.8c-0.2-0.1-0.4-0.3-0.8-0.6
		c-5.3-5.3-10.6-10.6-15.9-15.9l-11.5-11.5c-7.1-7.2-14.3-14.3-21.4-21.5c-1.3-1.3-2-2.8-2-4.4c0-1.6,0.7-3.1,2-4.4
		c16.1-16.2,32.1-32.5,48.2-48.7c0.2-0.2,0.3-0.3,0.5-0.5c0.3-0.3,0.5-0.5,0.7-0.7c0,0,0.1-0.1,0.1-0.1c0.4,0.2,0.8,0.5,1,1.9
		c0.2,1.2,0.2,2.1,0.3,2.9c0,10.3,0,20.6,0,30.8L138,197.8z"/>
</g>
</svg>
