<?xml version="1.0" encoding="utf-8"?>
<!-- Generator: Adobe Illustrator 24.0.1, SVG Export Plug-In . SVG Version: 6.00 Build 0)  -->
<svg version="1.1"
	 id="svg2" inkscape:version="0.91 r13725" sodipodi:docname="system.svg" xmlns:cc="http://creativecommons.org/ns#" xmlns:dc="http://purl.org/dc/elements/1.1/" xmlns:inkscape="http://www.inkscape.org/namespaces/inkscape" xmlns:rdf="http://www.w3.org/1999/02/22-rdf-syntax-ns#" xmlns:sodipodi="http://sodipodi.sourceforge.net/DTD/sodipodi-0.dtd" xmlns:svg="http://www.w3.org/2000/svg"
	 xmlns="http://www.w3.org/2000/svg" xmlns:xlink="http://www.w3.org/1999/xlink" x="0px" y="0px" viewBox="0 0 373.8 157.3"
	 style="enable-background:new 0 0 373.8 157.3;" xml:space="preserve">
<sodipodi:namedview  bordercolor="#666666" borderopacity="1" gridtolerance="10" guidetolerance="10" id="namedview55" inkscape:current-layer="svg2" inkscape:cx="178.37905" inkscape:cy="104.29902" inkscape:pageopacity="0" inkscape:pageshadow="2" inkscape:window-height="706" inkscape:window-maximized="1" inkscape:window-width="1366" inkscape:window-x="-8" inkscape:window-y="-8" inkscape:zoom="2.1790248" objecttolerance="10" pagecolor="#ffffff" showgrid="false">
	</sodipodi:namedview>
<g id="Layer_10">
</g>
<g id="Layer_2">
</g>
<g id="Layer_1">
</g>
<g id="Layer_4">
</g>
<g id="Layer_5">
</g>
<g id="Layer_7">
</g>
<g>
	<circle style="fill:#FFFFFF;" cx="114.3" cy="29.7" r="10"/>
	<circle style="fill:#FFFFFF;" cx="139.6" cy="29.3" r="10"/>
	<path style="fill:#FFFFFF;" d="M126.4,44.2c-16.1,0.2-30.6,7.2-39.2,20.9c-7.7,12.1-9.1,27.8-5.3,41.5
		c4.1,14.5,14.8,25.8,29.1,30.5c15.5,5.1,33.6,1.7,46-8.9c14.4-12.3,18.6-33.7,13.7-51.3C165.1,56.6,147,44.4,126.4,44.2z
		 M156.2,114c-8.2,12.9-24.4,17.4-38.9,14.4c-14.1-2.9-23.5-14-26.6-27.7c-2.4-10.6-0.3-22.1,5.5-31.3c6.6-10.4,18.2-15.1,30.2-15.3
		c14.6,0.1,27.7,7.5,33.3,21.4C164.7,88.1,163.4,102.7,156.2,114z"/>
	<path style="fill:#FFFFFF;" d="M278.1,46.7c-9.6,21.2-18.9,42.7-30.6,62.8c-3.2,5.5-6.6,11-11,15.5c-1.5,1.6-2.5,2.4-4.3,3.4
		c-1.2,0.7-2.1,0.9-3.4,0.8c0,0,0,0-0.1,0c-0.4-0.1-0.7-0.2-1.1-0.3c-0.2,0-0.8-0.3-1.7-0.9c-1.6-1-3-2.4-4.5-4.2
		c-4.2-4.7-7.4-10.6-10.4-16.1c-10.7-19.7-19.4-40.6-28.4-61.1c-2.6-5.9-11.2-0.8-8.6,5c9.6,21.7,18.7,44,30.4,64.7
		c5.2,9.3,12.6,21.9,24.5,22.8c11.6,0.9,20-12.9,25.1-21.2c12.9-20.9,22.6-44,32.7-66.3C289.4,45.9,280.8,40.9,278.1,46.7z"/>
	<path style="fill:#FFFFFF;" d="M351.9,48.6c-17.4-7.9-37.9-4.6-51.3,9.4c-13.1,13.8-17.4,35.9-9.8,53.3c4.8,11,12.7,20.2,24,24.6
		c10.2,4,21.3,3.8,32,2.7c6.3-0.7,6.4-10.7,0-10c-9.5,1-19.2,1.3-28.3-1.9c-10.2-3.6-17.1-13.4-20.1-23.5
		c-5.3-17.5,3.7-39.3,20.8-46.5c13.8-5.8,32.8-1.3,41.3,11.5c9.1,13.7-4,24.9-16.2,29.7c-4.2,1.7-8.5,2.8-12.9,3.9
		c-6.3,1.5-3.6,11.1,2.7,9.6c16.1-3.8,37.6-12.3,39.4-31.4C375.1,65.9,364,54,351.9,48.6z"/>
	<path style="fill:#FFFFFF;" d="M71.1,127.4c-18.7,4.8-39.4,1.7-51.5-14.7C6.1,94.6,8.6,70,15.6,49.9c2.1-6.1-7.5-8.7-9.6-2.7
		c-8.2,23.5-9.7,51.8,6.3,72.4c14.7,19,39.2,23.1,61.4,17.4C80,135.5,77.3,125.8,71.1,127.4z"/>
	<path style="fill:#FFFFFF;" d="M364.5,119.9L364.5,119.9c-5.1,0-9.2,4.1-9.2,9.3c0,5.2,4.1,9.3,9.2,9.3c5.1,0,9.2-4.1,9.2-9.3
		C373.6,124,369.6,119.9,364.5,119.9z"/>
</g>
<g id="Layer_11">
</g>
</svg>
