<?xml version="1.0" encoding="utf-8"?>
<!-- Generator: Adobe Illustrator 24.0.1, SVG Export Plug-In . SVG Version: 6.00 Build 0)  -->
<svg version="1.1" id="Layer_4" xmlns="http://www.w3.org/2000/svg" xmlns:xlink="http://www.w3.org/1999/xlink" x="0px" y="0px"
	 viewBox="-31.8 621.5 598.2 350.3" style="enable-background:new -31.8 621.5 598.2 350.3;" xml:space="preserve">
<g>
	<path style="fill:#FFFFFF;" d="M279.5,689.1c-49.4,0-92.6,33.4-104.9,81.2c-3.9,13.7-6.7,23.1-9.4,28.7c-2.9,5.9-5,7.1-8,7.2
		l-0.7,0c-3.3-0.1-4.1-0.7-5.4-2.4c-0.6-0.8-1.2-1.9-1.9-3.3c-1-1.9-2.3-4.2-4.1-6.9c-2.1-3-3.9-5-6.4-5.1c-1.1,0-2.2,0.5-2.9,1.4
		c-1.8,2.1-2,5.5-2.1,8.8c0,1.3,0.1,2.7,0.2,4.2c0.7,6.8,1.2,23.3,1.2,33.5c0,2.2,0,4.1-0.1,5.4c0,0.3,0,0.6,0,0.9
		c0,2.8,0.5,4.9,1.6,6.3c1.1,1.4,2.6,1.9,3.7,1.9c0.3,0,0.7,0,1-0.1c1.1-0.1,5.7-1.1,9.3-10.4c0.6-1.6,2.4-5.8,4.9-9.3
		c2-2.8,4.1-4.5,5.7-4.5c0,0,0,0,0.1,0c0.6,0,1.6,0.2,2.9,1.6c1.4,1.5,2.7,3.9,4,7.2l0,0c4.4,11.4,15.5,28.9,33.4,43.4
		c21.8,17.7,48.8,27.1,78,27.1c59.7,0,108.3-48.6,108.4-108.3C387.9,737.7,339.3,689.1,279.5,689.1z M138.3,802.3
		c-0.1-1.3-0.2-2.5-0.2-3.7c0-2,0.2-3.9,0.6-5c0.1-0.3,0.2-0.6,0.3-0.7c0.5,0.3,1.5,1.2,2.6,3c1.7,2.5,2.8,4.6,3.8,6.5
		c0.8,1.5,1.5,2.8,2.3,3.9c2,3,4.9,4.4,8.9,4.3c0.2,0,0.5,0,0.7,0l0.1,0c5-0.1,8.7-3.2,11.7-9.6c2.8-5.8,5.4-14.7,9.4-28.5l0,0
		l0.2-1c0,0,0,0,0,0l0.3-0.9l0,0c12.2-45.4,53.3-77,100.5-77c27.8,0,53.9,10.8,73.6,30.5c19.6,19.7,30.5,45.8,30.5,73.6
		s-10.8,53.9-30.5,73.6c-19.7,19.6-45.8,30.5-73.6,30.5c0,0,0,0-0.1,0c-66.7,0-100.1-48.9-107.3-67.8c-1.5-3.8-3.1-6.6-4.8-8.6
		c-1.8-2-3.9-3-6.1-3c-4.2,0.1-7.3,3.6-9.2,6.3c-2.7,3.7-4.5,8-5.4,10.2c-1.6,4.2-3.3,6.1-4.4,7c-0.5,0.4-0.9,0.6-1.1,0.6
		c-0.1,0-0.1,0-0.1,0h-0.3l-0.3,0.1c0,0-0.1,0-0.1,0c0,0-0.1,0-0.2-0.2c-0.1-0.1-0.7-1-0.7-3.6c0-0.2,0-0.5,0-0.7
		c0.1-1.5,0.1-3.3,0.1-5.6C139.5,825.9,139,809.4,138.3,802.3z"/>
	<path style="fill:#FFFFFF;" d="M242.6,837c7.8,0,14.2-6.4,14.2-14.2c0-7.8-6.4-14.2-14.2-14.2c-7.8,0-14.2,6.4-14.2,14.2
		S234.8,837,242.6,837z M232.7,822.7c0-5.4,4.5-9.9,9.9-9.9c5.4,0,9.9,4.5,9.9,9.9c0,5.4-4.4,9.9-9.9,9.9
		C237.2,832.6,232.7,828.2,232.7,822.7z"/>
	<path style="fill:#FFFFFF;" d="M360,837c7.8,0,14.2-6.4,14.2-14.2c0-7.8-6.4-14.2-14.2-14.2c-7.8,0-14.2,6.4-14.2,14.2
		C345.8,830.6,352.2,837,360,837z M350.1,822.7c0-5.4,4.5-9.9,9.9-9.9c5.4,0,9.9,4.4,9.9,9.9c0,5.4-4.4,9.9-9.9,9.9
		C354.6,832.6,350.1,828.2,350.1,822.7z"/>
	<path style="fill:#FFFFFF;" d="M368.4,804.7c3.2,0,5.8-2.6,5.8-5.8s-2.6-5.8-5.8-5.8s-5.8,2.6-5.8,5.8S365.2,804.7,368.4,804.7z"/>
	<path style="fill:#FFFFFF;" d="M238,804.7c3.2,0,5.8-2.6,5.8-5.8s-2.6-5.8-5.8-5.8c-3.2,0-5.8,2.6-5.8,5.8S234.8,804.7,238,804.7z"
		/>
	<path style="fill:#FFFFFF;" d="M293.9,819c1.2,2.3,3.7,3.7,6.4,3.7c0.1,0,0.2,0,0.3,0c1,0,2.1-0.1,3.3-0.4c2-0.5,3.7-2.2,4.5-4.2
		c0.7-1.8,1.1-4.1,1.1-7.5l0-1h-6.7l0,1c0,3.4-0.5,4.9-0.7,5.2c0,0-0.1,0-0.1,0c-0.2,0.1-0.6,0.1-1.3,0.1c-0.2,0-0.7-0.1-0.8-0.1
		c-0.1-0.1-0.1-0.2-0.2-0.3c-0.3-0.4-0.7-2.1-0.7-5.3l0-1h-6.7l0,1C292.3,813.9,292.6,816.7,293.9,819z"/>
	<path style="fill:#FFFFFF;" d="M259.9,625.5c-35.1,0-68.6,10.5-97.2,30.4c-1.4-5.9-6.6-10.2-12.7-10.2c-4.9,0-9.3,2.7-11.5,6.9
		c-2.3-4.2-6.6-6.9-11.5-6.9c-7.2,0-13.1,5.9-13.1,13.1c0,4.2,2.7,10.8,7.3,18.2c1.6,2.6,4.2,6.4,7.6,10.1
		c-25.5,30.6-39.5,69.3-39.5,109.2c0,94.1,76.6,170.7,170.7,170.7c94.1,0,170.7-76.6,170.7-170.7C430.6,702,354,625.5,259.9,625.5z
		 M259.9,962.5c-44.4,0-86.2-17.3-117.6-48.7c-31.4-31.4-48.7-73.2-48.7-117.6c0-38.7,13.6-76.3,38.2-106.1c1.9,1.8,3.9,3.5,6.1,4.8
		l1.1,0.7l1.1-0.7c11.9-7.2,21.7-23.7,22.8-34c28.4-20.4,61.8-31.1,96.9-31.1c44.4,0,86.2,17.3,117.6,48.7
		c31.4,31.4,48.7,73.2,48.7,117.6s-17.3,86.2-48.7,117.6C346.1,945.2,304.3,962.5,259.9,962.5z M158.8,658.8c0,0.1,0,0.3,0,0.4
		c0.1,8.1-9.4,24.5-19.7,31.3c-4.9-3.4-10-9.2-14.3-16c-4.4-6.9-6.6-13.2-6.6-15.8v0c0-4.8,3.9-8.8,8.8-8.8c4.8,0,8.8,3.9,8.8,8.9
		c0.1,1.5,1.2,2.6,2.8,2.6c0,0,0,0,0,0c0.7,0,1.3-0.3,1.8-0.7c0.5-0.5,0.8-1.2,0.8-2c0-4.8,3.9-8.8,8.8-8.8c4.7,0,8.5,3.7,8.8,8.7
		l-0.1,0L158.8,658.8z"/>
</g>
</svg>
