<?xml version="1.0" encoding="utf-8"?>
<!-- Generator: Adobe Illustrator 24.0.1, SVG Export Plug-In . SVG Version: 6.00 Build 0)  -->
<svg version="1.1"
	 id="Layer_3" xmlns:cc="http://creativecommons.org/ns#" xmlns:dc="http://purl.org/dc/elements/1.1/" xmlns:rdf="http://www.w3.org/1999/02/22-rdf-syntax-ns#"
	 xmlns="http://www.w3.org/2000/svg" xmlns:xlink="http://www.w3.org/1999/xlink" x="0px" y="0px" viewBox="0 0 442.2 350.3"
	 style="enable-background:new 0 0 442.2 350.3;" xml:space="preserve">
<g>
	<path style="fill:#FFFFFF;" d="M128.6,191.3h184.9c2.9,0,5.3-2.4,5.3-5.3V47.8c0-2.9-2.4-5.3-5.3-5.3H128.6c-2.9,0-5.3,2.4-5.3,5.3
		V186C123.3,188.9,125.7,191.3,128.6,191.3z M315.4,186c0,1-0.8,1.9-1.8,1.9H128.6c-1,0-1.9-0.8-1.9-1.9V47.8c0-1,0.8-1.9,1.9-1.9
		h184.9c1,0,1.8,0.8,1.8,1.9V186z"/>
	<path style="fill:#FFFFFF;" d="M325.9,25.2l-209.6,0c-2.9,0-5.3,2.4-5.3,5.3v253.3c0,2.9,2.4,5.3,5.3,5.3h209.6
		c2.9,0,5.3-2.4,5.3-5.3V30.5C331.2,27.6,328.8,25.2,325.9,25.2z M114.4,30.5c0-1,0.8-1.9,1.9-1.9h209.6c1,0,1.9,0.8,1.9,1.9v253.3
		c0,1-0.8,1.9-1.9,1.9H116.3c-1,0-1.9-0.8-1.9-1.9V30.5z"/>
	<path style="fill:#FFFFFF;" d="M327.7,14.1l-213.2,0c-6.2,0-11.3,5-11.3,11.3v256.9c0,4,2.2,7.6,5.4,9.6v39.1
		c0,2.9,2.4,5.3,5.3,5.3h214.3c2.9,0,5.3-2.4,5.3-5.3v-39.2c3.2-2,5.3-5.5,5.3-9.6V25.3C338.9,19.1,333.9,14.1,327.7,14.1z
		 M330.1,330.9c0,1-0.8,1.8-1.9,1.8H113.9c-1,0-1.9-0.8-1.9-1.8v-37.7c0.8,0.2,1.6,0.3,2.4,0.3h4.6c2.8,3.9,7.3,6.2,12.1,6.2
		c4.9,0,9.4-2.3,12.2-6.2h184.3c0.9,0,1.7-0.1,2.5-0.3V330.9z M125.6,293.5c1.7,1.1,3.6,1.7,5.6,1.7c2,0,3.9-0.6,5.6-1.7h1.9
		c-2.1,1.8-4.7,2.8-7.5,2.8c-2.8,0-5.4-1-7.5-2.8H125.6z M327.7,290H114.5c0,0,0,0,0,0c-0.8,0-1.7-0.1-2.4-0.4v-0.1h-0.2
		c-1.1-0.4-2-1-2.9-1.8c-1.5-1.5-2.3-3.4-2.3-5.5V25.3c0-4.3,3.5-7.8,7.8-7.8h213.1c4.3,0,7.8,3.5,7.8,7.8v256.9
		C335.5,286.5,332,290,327.7,290z"/>
	<path style="fill:#FFFFFF;" d="M124.8,259.9h13.5c1.6,0,2.9-1.3,2.9-2.9v-13.4c0-1.6-1.3-2.9-2.9-2.9h-13.5c-1.6,0-2.9,1.3-2.9,2.9
		V257C121.9,258.6,123.2,259.9,124.8,259.9z M125.3,256.4v-12.4h12.5v12.4H125.3z"/>
	<path style="fill:#FFFFFF;" d="M307.8,303.2h-32.3c-2.5,0-4.5,2-4.5,4.5v15c0,2.5,2,4.5,4.5,4.5h32.3c2.5,0,4.5-2,4.5-4.5v-15
		C312.3,305.2,310.3,303.2,307.8,303.2z M274.5,307.7c0-0.6,0.5-1.1,1.1-1.1h18.1c-0.7,0.4-1.2,1.2-1.2,2.1v11.6
		c0,1.4,1.1,2.5,2.5,2.5h10.6c1.4,0,2.5-1.1,2.5-2.5v-11.6c0-0.9-0.5-1.7-1.2-2.1h0.9c0.6,0,1.1,0.5,1.1,1.1v15
		c0,0.6-0.5,1.1-1.1,1.1h-32.3c-0.6,0-1.1-0.5-1.1-1.1V307.7z M304.6,309.6v9.7h-8.8v-9.7H304.6z"/>
	<path style="fill:#FFFFFF;" d="M281.2,218.8L281.2,218.8c-2.7,0.6-4.7,2.9-4.7,5.7l0,0.3h-60.3c-2.3,0-4.1,1.8-4.1,4.1v6.6
		c0,2.3,1.8,4.1,4.1,4.1h60.3v1.1c0,3.1,2.6,5.7,5.7,5.7h33.2c3.1,0,5.7-2.6,5.7-5.7v-16.2c0-3.1-2.6-5.7-5.7-5.7H281.2z
		 M317.7,235.2c-0.5-0.5-1.3-0.9-2.1-0.9c-1.6,0-2.9,1.3-2.9,2.8c0,1.6,1.3,2.9,2.9,2.9c0.8,0,1.5-0.3,2.1-0.9v1.6
		c0,1.3-1,2.3-2.3,2.3H312c0.2-0.4,0.4-0.8,0.4-1.3v-11.5c0-1.4-1.1-2.5-2.5-2.5h-31.2c0.2-0.1,0.4-0.3,0.6-0.5
		c0.5-0.5,0.7-1.2,0.7-2v-0.6c0-1.3,1-2.3,2.3-2.3h33.2c1.3,0,2.3,1,2.3,2.3V235.2z M279.3,237.3c-0.3-0.4-0.7-0.6-1.2-0.8h5.6v5.2
		c0,0.5,0.1,0.9,0.4,1.3h-1.9c-1.3,0-2.3-1-2.3-2.3v-1.3C280,238.7,279.9,238,279.3,237.3z M215.6,235.6v-6.6c0-0.4,0.3-0.7,0.7-0.7
		h5.4c-0.6,0.5-1,1.2-1,2v3.7c0,1,0.6,1.9,1.5,2.3h-5.8C215.9,236.2,215.6,236,215.6,235.6z M286.5,233.9c-0.5-0.5-1.2-0.9-2.1-0.9
		h-0.8l-1.9-1.9h27.1v9.6h-21.7v-5C287.2,235,287,234.4,286.5,233.9z M282.2,233H224v-1.9h57.2L282.2,233z"/>
	<path style="fill:#FFFFFF;" d="M296.4,50.1c-24.9-2.7-49.2-3.9-74.2-3.9l-0.1,0c-24.3,0-49.2,1.3-76.2,3.9l-0.1,0
		c-8.7,1-15.3,8.3-15.3,16.8v99.9c0,8.6,6.6,15.8,15.4,16.9c27.2,2.6,52.7,3.9,77.5,3.9c24.8,0,48.9-1.3,73.1-3.9
		c8.8-0.9,15.4-8.2,15.4-16.9V66.9C311.8,58.3,305.2,51,296.4,50.1z M146.2,180.3l-0.1,0c-7-0.9-12.2-6.6-12.2-13.4V66.9
		c0-6.8,5.3-12.6,12.2-13.4l0.1,0c27.1-2.6,51.9-3.9,76-3.9c24.9,0,49,1.2,73.8,3.9c7,0.8,12.3,6.5,12.3,13.4v99.9
		c0,6.9-5.3,12.7-12.3,13.4C247.9,185.4,200.3,185.4,146.2,180.3z"/>
</g>
</svg>
