<?xml version="1.0" encoding="utf-8"?>
<!-- Generator: Adobe Illustrator 24.0.1, SVG Export Plug-In . SVG Version: 6.00 Build 0)  -->
<svg version="1.1" id="레이어_1" xmlns="http://www.w3.org/2000/svg" xmlns:xlink="http://www.w3.org/1999/xlink" x="0px"
	 y="0px" viewBox="0 0 565.2 177.2" style="enable-background:new 0 0 565.2 177.2;" xml:space="preserve">
<g>
	<path style="fill:#F4F4F4;" d="M359.7,126.6c3.1-2.8,5.6-5.1,8.1-7.5c0-9.7,0-19.3,0-29.7c-14.5,13.1-28.7,25.9-43.4,39.1
		c0-15.6,0-29,0-44.6c-16.8,15.1-32.8,29.4-48.9,43.7c-17.7,0-35.3,0-53.4,0c0-11.6,0-23,0-35.5c-26.8,23.3-52.9,46-79.2,68.8
		c-16.1,0-31.3,0-48.4,0c15.5-13.5,30.4-26.4,45.3-39.4c0-10.1,0-20.2,0-31c-14.4,13-28.6,25.5-43.2,38.5c0-15,0-29.3,0-44.8
		c-16.7,14.6-32.7,28.5-48.7,42.5c-15.6,0-31.3,0-47.9,0C39.7,91.6,78.8,57.2,118.8,22c0,14.9,0,28.7,0,43.7
		c17.5-14.9,34-29,51.1-43.6c0,24.1,0,47.5,0,71.6c27.8-23.9,54.7-47.1,82.3-70.8c0,27.2,0,53.9,0,81.8
		C283.9,77,315,49.9,346.7,22.2c0,15.4,0,30.4,0,45.9c17.8-15.1,34.7-29.5,52.2-44.3c0,22.7,0,44.8,0,67.9
		c26.7-22.5,52.7-44.3,78.7-66.2c28.8,0,57.7,0,87.5,0c-9.3,8.5-18,16.4-26.9,24.5c-15.6,0-32.4,0-48.2,0
		c-4.3,3.9-8.6,7.7-13.7,12.2c8.8,0,16.4,0,25.3,0c-10.8,9.4-20.6,18-30.5,26.7c-8.7,0-18.3,0-26.5,0c-2.9,3.1-5.8,6.3-9.2,10
		c23.7,0,51.2,0,77.9,0c-10.6,9.8-20.3,18.8-30.1,27.8C442.4,126.6,401.5,126.6,359.7,126.6z"/>
</g>
<g>
	<path style="fill:#F4F4F4;" d="M322,173.2l-4.5-10.3h-15.9l-4.6,10.3h-6.8l19.4-41.6l19.4,41.6H322z M304,157.5h11.2l-4.1-9.1
		c-0.2-0.6-0.5-1.3-0.7-2c-0.3-0.8-0.5-1.6-0.8-2.5c-0.2,0.9-0.5,1.7-0.7,2.4c-0.2,0.8-0.5,1.5-0.8,2.1L304,157.5z"/>
	<path style="fill:#F4F4F4;" d="M332.6,173.2v-40h8.8c5.7,0,9.7,0.3,12,0.9s4.4,1.5,6.1,2.9c2.3,1.8,4.1,4,5.3,6.8
		c1.2,2.8,1.8,5.9,1.8,9.5s-0.6,6.7-1.8,9.4c-1.2,2.7-2.9,5-5.3,6.8c-1.8,1.3-3.7,2.3-6,2.9c-2.2,0.6-5.7,0.9-10.4,0.9h-1.8H332.6z
		 M339.1,167.3h5.5c3,0,5.3-0.2,6.8-0.6c1.5-0.4,2.8-1.1,3.9-2c1.5-1.3,2.6-2.9,3.4-4.8c0.8-1.9,1.1-4.2,1.1-6.7
		c0-2.6-0.4-4.8-1.1-6.7c-0.8-1.9-1.9-3.5-3.4-4.8c-1.1-0.9-2.5-1.6-4.1-2c-1.6-0.4-4-0.6-7.4-0.6h-2.4h-2.4V167.3z"/>
	<path style="fill:#F4F4F4;" d="M385.8,174.8l-17.9-41.6h6.8l9,21.3c0.5,1.2,1,2.4,1.3,3.4c0.3,1,0.6,2,0.8,3c0.2-1,0.5-2,0.9-3.1
		c0.4-1.1,0.8-2.2,1.3-3.3l8.9-21.3h6.7L385.8,174.8z"/>
	<path style="fill:#F4F4F4;" d="M433.1,173.2l-4.5-10.3h-15.9l-4.6,10.3h-6.8l19.4-41.6l19.4,41.6H433.1z M415.1,157.5h11.2
		l-4.1-9.1c-0.2-0.6-0.5-1.3-0.7-2c-0.3-0.8-0.5-1.6-0.8-2.5c-0.2,0.9-0.5,1.7-0.7,2.4c-0.2,0.8-0.5,1.5-0.8,2.1L415.1,157.5z"/>
	<path style="fill:#F4F4F4;" d="M443.8,173.2v-41.6l25.4,24.5c0.7,0.7,1.4,1.4,2.1,2.2c0.7,0.8,1.5,1.7,2.2,2.7v-27.8h6v41.6
		l-25.9-24.9c-0.7-0.7-1.4-1.4-2-2.1c-0.6-0.7-1.3-1.5-1.8-2.4v27.8H443.8z"/>
	<path style="fill:#F4F4F4;" d="M520.9,142.9c-1.8-1.6-3.8-2.7-5.8-3.5c-2.1-0.8-4.2-1.2-6.5-1.2c-4.4,0-7.9,1.4-10.7,4.2
		c-2.7,2.8-4.1,6.4-4.1,10.9c0,4.3,1.3,7.9,4,10.7c2.7,2.8,6,4.2,10.1,4.2c2.4,0,4.6-0.4,6.8-1.3c2.1-0.8,4.2-2.1,6.2-3.8v7.4
		c-1.8,1.3-3.7,2.2-5.7,2.8c-2.1,0.6-4.3,0.9-6.7,0.9c-3.1,0-5.9-0.5-8.5-1.5c-2.6-1-4.9-2.5-6.8-4.4c-2-1.9-3.5-4.2-4.5-6.8
		c-1-2.6-1.6-5.4-1.6-8.3c0-2.9,0.5-5.7,1.6-8.3c1-2.6,2.6-4.8,4.6-6.8c2-2,4.3-3.5,6.8-4.5s5.3-1.5,8.3-1.5c2.4,0,4.6,0.3,6.7,1
		s4.2,1.7,6.2,3.1L520.9,142.9z"/>
	<path style="fill:#F4F4F4;" d="M528.9,173.2v-40h22.3v5.5h-15.8v10h15.8v5.7h-15.8v12.9h15.8v5.8H528.9z"/>
</g>
</svg>
