<?xml version="1.0" encoding="utf-8"?>
<!-- Generator: Adobe Illustrator 24.0.1, SVG Export Plug-In . SVG Version: 6.00 Build 0)  -->
<svg version="1.1" id="레이어_1" xmlns="http://www.w3.org/2000/svg" xmlns:xlink="http://www.w3.org/1999/xlink" x="0px"
	 y="0px" viewBox="0 0 565.2 139.1" style="enable-background:new 0 0 565.2 139.1;" xml:space="preserve">
<g>
	<path style="fill:#F4F4F4;" d="M359.7,104.6c3.1-2.8,5.6-5.1,8.1-7.5c0-9.7,0-19.3,0-29.7c-14.5,13.1-28.7,25.9-43.4,39.1
		c0-15.6,0-29,0-44.6c-16.8,15.1-32.8,29.4-48.9,43.7c-17.7,0-35.3,0-53.4,0c0-11.6,0-23,0-35.5c-26.8,23.3-52.9,46-79.2,68.8
		c-16.1,0-31.3,0-48.4,0c15.5-13.5,30.4-26.4,45.3-39.4c0-10.1,0-20.2,0-31C125.4,81.5,111.2,94,96.6,107c0-15,0-29.3,0-44.8
		c-16.7,14.6-32.7,28.5-48.7,42.5c-15.6,0-31.3,0-47.9,0C39.7,69.6,78.8,35.2,118.8,0c0,14.9,0,28.7,0,43.7
		c17.5-14.9,34-29,51.1-43.6c0,24.1,0,47.5,0,71.6c27.8-23.9,54.7-47.1,82.3-70.8c0,27.2,0,53.9,0,81.8C283.9,55,315,27.9,346.7,0.2
		c0,15.4,0,30.4,0,45.9c17.8-15.1,34.7-29.5,52.2-44.3c0,22.7,0,44.8,0,67.9c26.7-22.5,52.7-44.3,78.7-66.2c28.8,0,57.7,0,87.5,0
		c-9.3,8.5-18,16.4-26.9,24.5c-15.6,0-32.4,0-48.2,0c-4.3,3.9-8.6,7.7-13.7,12.2c8.8,0,16.4,0,25.3,0c-10.8,9.4-20.6,18-30.5,26.7
		c-8.7,0-18.3,0-26.5,0c-2.9,3.1-5.8,6.3-9.2,10c23.7,0,51.2,0,77.9,0c-10.6,9.8-20.3,18.8-30.1,27.8
		C442.4,104.6,401.5,104.6,359.7,104.6z"/>
</g>
</svg>
