<?xml version="1.0" encoding="utf-8"?>
<!-- Generator: Adobe Illustrator 24.0.1, SVG Export Plug-In . SVG Version: 6.00 Build 0)  -->
<svg version="1.1"
	 id="Layer_3" xmlns:cc="http://creativecommons.org/ns#" xmlns:dc="http://purl.org/dc/elements/1.1/" xmlns:rdf="http://www.w3.org/1999/02/22-rdf-syntax-ns#"
	 xmlns="http://www.w3.org/2000/svg" xmlns:xlink="http://www.w3.org/1999/xlink" x="0px" y="0px" viewBox="0 0 598.2 350.3"
	 style="enable-background:new 0 0 598.2 350.3;" xml:space="preserve">
<g>
	<path style="fill:#F4F4F4;" d="M186.7,238.6c24.2,0,43.9-19.7,43.9-43.9v-37.4c0-24.2-19.7-43.9-43.9-43.9H148
		c-24.2,0-43.9,19.7-43.9,43.9v37.4c0,24.2,19.7,43.9,43.9,43.9H186.7z M148,117.4h38.7c22,0,40,17.9,40,40v37.4c0,22-17.9,40-40,40
		H148c-22,0-40-17.9-40-40v-37.4C108.1,135.3,126,117.4,148,117.4z"/>
	<path style="fill:#F4F4F4;" d="M167.4,148.9c3.8,0,6.9-3.1,6.9-6.9v-13c0-3.8-3.1-6.9-6.9-6.9s-6.9,3.1-6.9,6.9v13
		C160.5,145.9,163.6,148.9,167.4,148.9z M170.4,142.1c0,1.7-1.3,3-3,3s-3-1.3-3-3v-13c0-0.8,0.3-1.5,0.9-2.1s1.3-0.9,2.1-0.9
		c1.7,0,3,1.3,3,3V142.1z"/>
	<path style="fill:#F4F4F4;" d="M120.4,182.9h13c3.8,0,6.9-3.1,6.9-6.9c0-3.8-3.1-6.9-6.9-6.9h-13c-3.8,0-6.9,3.1-6.9,6.9
		C113.6,179.8,116.6,182.9,120.4,182.9z M133.5,173c1.7,0,3,1.3,3,3c0,1.6-1.3,3-3,3h-13c-1.6,0-3-1.3-3-3c0-1.6,1.2-2.9,2.8-3
		H133.5z"/>
	<path style="fill:#F4F4F4;" d="M167.4,229.9c3.8,0,6.9-3.1,6.9-6.9v-13c0-3.8-3.1-6.9-6.9-6.9s-6.9,3.1-6.9,6.9v13
		C160.5,226.8,163.6,229.9,167.4,229.9z M170.4,223c0,1.7-1.3,3-3,3s-3-1.3-3-3v-13c0-0.8,0.3-1.6,0.9-2.1c0.6-0.6,1.3-0.9,2.1-0.9
		c1.6,0,3,1.3,3,3V223z"/>
	<path style="fill:#F4F4F4;" d="M201.3,182.9h13.1c3.8,0,6.9-3.1,6.9-6.9c0-3.8-3.1-6.9-6.9-6.9h-13.1c-3.8,0-6.9,3.1-6.9,6.9
		C194.5,179.8,197.5,182.9,201.3,182.9z M201.3,173h13.1c1.7,0,3,1.3,3,3c0,1.6-1.3,3-3,3h-13.1c-1.6,0-3-1.3-3-3
		C198.4,174.3,199.7,173,201.3,173z"/>
	<path style="fill:#F4F4F4;" d="M224.5,118.7l27.2-27.2H83.1l27.2,27.2c-0.1,0.1-0.1,0.1-0.2,0.2L86.3,95.1l-3.3-3.4v168.6
		l27.2-27.2c0.1,0.1,0.1,0.1,0.2,0.2l-27.2,27.2h168.4l-27.1-27.2c0.1-0.1,0.2-0.2,0.2-0.2l27.2,27.2V91.8l-27.2,27.2
		C224.6,118.8,224.5,118.8,224.5,118.7z M92.6,256.6l20.6-20.6c8.9,7.6,20.5,12.2,33.1,12.2h42.1c12.6,0,24.2-4.6,33.1-12.2
		l20.6,20.6H92.6z M99.1,197.1V155c0-26,21.2-47.2,47.2-47.2h42.1c26,0,47.2,21.2,47.2,47.2v42.1c0,26-21.2,47.2-47.2,47.2h-42.1
		C120.3,244.3,99.1,223.1,99.1,197.1z M95.2,155v42.1c0,12.6,4.6,24.2,12.2,33.1l-20.6,20.6V101.2l20.6,20.6
		C99.8,130.8,95.2,142.3,95.2,155z M242.2,95.4l-20.6,20.6c-8.9-7.6-20.5-12.2-33.1-12.2h-42.1c-12.6,0-24.2,4.6-33.1,12.2
		L92.6,95.4H242.2z M239.6,197.1V155c0-12.6-4.6-24.2-12.2-33.1l20.6-20.6v149.7l-20.6-20.6C235,221.3,239.6,209.7,239.6,197.1z"/>
	<path style="fill:#F4F4F4;" d="M400.7,233.2c15.6,0,28.3-12.7,28.3-28.2c0-15.6-12.7-28.3-28.3-28.3c-15.6,0-28.2,12.7-28.2,28.3
		C372.5,220.5,385.1,233.2,400.7,233.2z M400.7,229.3c-13.4,0-24.3-10.9-24.3-24.3c0-13.4,10.9-24.4,24.3-24.4
		c13.4,0,24.4,10.9,24.4,24.4C425.1,218.3,414.1,229.3,400.7,229.3z"/>
	<path style="fill:#F4F4F4;" d="M489.9,233.2c15.6,0,28.2-12.7,28.2-28.2c0-15.6-12.7-28.3-28.2-28.3s-28.2,12.7-28.2,28.3
		C461.7,220.5,474.4,233.2,489.9,233.2z M489.9,180.6c13.4,0,24.3,10.9,24.3,24.4c0,13.4-10.9,24.3-24.3,24.3
		c-13.4,0-24.3-10.9-24.3-24.3C465.6,191.5,476.5,180.6,489.9,180.6z"/>
	<path style="fill:#F4F4F4;" d="M558,67.4H44.3l0,0h-4.9c-5.3,0-9.7,4.3-9.7,9.7v203.1c0,5.3,4.3,9.7,9.7,9.7h518.6
		c4.5,0,8.4-3.3,9.3-7.7h0.3v-205C567.7,71.8,563.4,67.4,558,67.4z M39.4,71.3h1.9l0,0H58v214.6H39.4c0,0,0,0,0,0
		c-1.5,0-3-0.6-4-1.7c-1.1-1.1-1.7-2.5-1.7-4.1V77.1C33.7,73.9,36.2,71.3,39.4,71.3z M61.9,71.3h496.2c3.2,0,5.7,2.6,5.7,5.8v203.1
		c0,3.2-2.6,5.8-5.7,5.8H61.9V71.3z"/>
	<path style="fill:#F4F4F4;" d="M358,247.9h85.4v-85.4H358V247.9z M439.5,166.5V244h-77.6v-77.6H439.5z"/>
	<path style="fill:#F4F4F4;" d="M447.2,247.9h85.3v-85.4h-85.3V247.9z M528.7,166.5V244h-77.5v-77.6H528.7z"/>
	<path style="fill:#F4F4F4;" d="M358,162h85.4v-17.2H358V162z M439.5,148.7v9.3h-77.6v-9.3H439.5z"/>
	<path style="fill:#F4F4F4;" d="M447.2,162h85.3v-17.2h-85.3V162z M528.7,148.7v9.3h-77.5v-9.3H528.7z"/>
	<path style="fill:#F4F4F4;" d="M562.4,279.3v-17.1c0-1.6-1.2-2.8-2.8-2.8H276.8c-0.1,0-0.2,0-0.3,0l-5.2-5.2H559V136.8H271l6.1-6.1
		h282.6c1.5,0,2.8-1.3,2.8-2.8v-50c0-3.2-2.6-5.8-5.8-5.8l-279.8,0c-1.6,0-2.8,1.3-2.8,2.8v53c0,0.1,0,0.2,0,0.3l-5.5,5.5V74.7H70.5
		l-2,0v206.9h200V257l5.5,5.5v19.9c0,1.5,1.3,2.8,2.8,2.8h279.8C559.8,285.1,562.4,282.5,562.4,279.3z M277.9,263.3h280.6v16
		c0,1.1-0.8,1.9-1.9,1.9H277.9L277.9,263.3z M264.6,250.3v27.4H72.4V78.6h192.2v62.1h290.5v109.6H264.6z M277.9,76h278.8
		c1.1,0,1.9,0.8,1.9,1.9v48.9H277.9L277.9,76z"/>
</g>
</svg>
