<?xml version="1.0" encoding="utf-8"?>
<!-- Generator: Adobe Illustrator 24.0.1, SVG Export Plug-In . SVG Version: 6.00 Build 0)  -->
<svg version="1.1"
	 id="Layer_3" xmlns:cc="http://creativecommons.org/ns#" xmlns:dc="http://purl.org/dc/elements/1.1/" xmlns:rdf="http://www.w3.org/1999/02/22-rdf-syntax-ns#"
	 xmlns="http://www.w3.org/2000/svg" xmlns:xlink="http://www.w3.org/1999/xlink" x="0px" y="0px" viewBox="0 0 598.2 350.3"
	 style="enable-background:new 0 0 598.2 350.3;" xml:space="preserve">
<g>
	<path style="fill:#F4F4F4;" d="M569.2,96.3c-22.3-27.5-49.7-43.2-60.4-48.6C492.8,39.5,407.8-1,303.4-1l-8.6,0
		C190.4-1,105.4,39.5,89.4,47.6c-10.7,5.5-38.1,21.1-60.4,48.6C6.1,124.5-3.8,155.6-0.3,188.7c5.4,52.3,30.6,91.5,50.8,115.2
		C64,319.9,76.7,330.5,85,336.6c10.3,7.6,19.4,12.5,25.5,13.6c6.9,1.3,17.5,2.1,28.6-2c11.4-4.2,20.4-12.6,26.6-24.9
		c2.5-4.8,4.7-9.7,7-14.4c9.7-20.6,18.9-40.2,40.6-51.2c26.5-13.5,61.3-16.3,69.1-16.3h33.4c7.9,0,42.6,2.8,69.1,16.3l0.2,0.1
		c21.6,11.1,30.7,30.5,40.4,51.1c2.2,4.7,4.5,9.5,7,14.4c6.3,12.3,15.2,20.6,26.6,24.9c6.2,2.3,12.2,3,17.5,3c4.2,0,8-0.5,11-1.1
		c6.1-1.2,15.1-6,25.5-13.6c8.3-6.1,21-16.7,34.5-32.6c20.2-23.7,45.3-62.9,50.8-115.2C602,155.6,592.1,124.5,569.2,96.3z
		 M486.9,346.3c-9.1,1.8-18.5,1.1-26.4-1.8c-10.4-3.9-18.7-11.6-24.5-22.9c-2.4-4.7-4.7-9.5-6.9-14.2c-10-21.3-19.5-41.4-42.5-53.1
		c-26.8-13.6-61.1-16.7-71-16.7h-33.4c-9.9,0-44.2,3.1-70.9,16.7l-0.2,0.1C188.4,266,179,286.1,169,307.4c-2.2,4.6-4.4,9.4-6.9,14.2
		c-5.8,11.4-14,19.1-24.5,22.9c-7.9,2.9-17.3,3.6-26.4,1.8c-4.2-0.8-12.6-4.6-23.9-12.9c-8.1-6-20.6-16.4-33.9-32
		C33.7,278.1,9,239.6,3.7,188.3c-3.3-32,6.2-62.2,28.4-89.5c21.8-26.9,48.6-42.2,59.1-47.6C106.9,43.2,190.4,3.5,293,3h10.4
		C406.9,3,491.2,43.2,507,51.2c10.5,5.3,37.4,20.7,59.1,47.6c22.2,27.4,31.7,57.5,28.4,89.5c-5.3,51.3-30.1,89.8-49.9,113
		c-13.3,15.7-25.8,26-33.9,32C499.5,341.6,491.1,345.5,486.9,346.3z"/>
	<path style="fill:#F4F4F4;" d="M139.5,58.8c-51.7,0-93.7,42-93.7,93.7c0,51.7,42,93.7,93.7,93.7c51.7,0,93.7-42,93.7-93.7
		C233.2,100.8,191.2,58.8,139.5,58.8z M139.5,62.8c49.5,0,89.7,40.2,89.7,89.7c0,49.5-40.2,89.7-89.7,89.7
		c-49.5,0-89.7-40.2-89.7-89.7C49.8,103,90.1,62.8,139.5,62.8z"/>
	<path style="fill:#F4F4F4;" d="M139.5,226.6c40.9,0,74.1-33.3,74.1-74.1c0-40.9-33.3-74.1-74.1-74.1c-40.9,0-74.1,33.2-74.1,74.1
		C65.4,193.3,98.7,226.6,139.5,226.6z M139.5,82.3c38.7,0,70.1,31.4,70.1,70.1c0,38.7-31.5,70.1-70.1,70.1
		c-38.6,0-70.1-31.5-70.1-70.1C69.4,113.8,100.9,82.3,139.5,82.3z"/>
	<path style="fill:#F4F4F4;" d="M139.5,208.3c30.8,0,55.8-25.1,55.8-55.8c0-30.8-25.1-55.8-55.8-55.8c-30.8,0-55.8,25-55.8,55.8
		C83.7,183.2,108.8,208.3,139.5,208.3z M125.3,132.9c0,1.7-0.5,3-1.4,3.9c-0.9,0.9-2.3,1.3-4.2,1.3h-2.1c3.1-2,5.7-4.6,7.7-7.7
		V132.9z M104.2,142.2c0.3,0,0.7,0,1,0h14.5c2.8,0,5.2-0.9,6.9-2.5c1.7-1.6,2.6-4,2.6-6.8v-14.7c0-0.4,0-0.8,0-1.2v-1h0v-11
		c0-0.1,0-0.2,0.1-0.2c0,0,0.1-0.1,0.2-0.1c0,0,0,0,0,0h19.9c0.2,0,0.3,0.1,0.3,0.3v11h0v1c0,0.4,0,0.7,0,1.1v14.7
		c0,2.8,0.8,5.1,2.3,6.7c1.7,1.7,4.1,2.6,7.3,2.6h14.4c0.3,0,0.7,0,1,0h1v0h11c0.2,0,0.3,0.1,0.3,0.3v19.9c0,0.2-0.1,0.3-0.3,0.3
		h-11v0h-1c-0.4,0-0.8,0-1.1,0h-14.3c-3.1,0-5.7,1-7.3,2.8c-1.5,1.7-2.3,4-2.3,6.9v14.6c0,0.3,0,0.6,0,0.9v1h0v11
		c0,0.2-0.1,0.3-0.3,0.3h-19.9c-0.2,0-0.3-0.1-0.3-0.3v-11h0v-1c0-0.4,0-0.9,0-1.3v-14.2c0-2.8-1-5.2-2.7-6.9
		c-1.7-1.7-4.1-2.6-6.8-2.6h-14.4c-0.4,0-0.8,0-1.2,0h-1v0h-11c-0.2,0-0.3-0.1-0.3-0.3v-19.9c0-0.2,0.1-0.3,0.3-0.3h11v0H104.2z
		 M159.5,138.2c-2.1,0-3.6-0.5-4.5-1.4c-0.8-0.8-1.2-2.1-1.2-3.9v-2.4c2,3.1,4.6,5.7,7.7,7.7H159.5z M119.7,166.7
		c1.7,0,3.1,0.5,4,1.4c1,1,1.5,2.3,1.5,4.1v2.1c-2-3.1-4.6-5.7-7.7-7.7H119.7z M153.8,172.3c0-1.8,0.4-3.3,1.3-4.2
		c0.9-1,2.3-1.5,4.4-1.5h2.1c-3.1,2-5.7,4.6-7.7,7.7V172.3z M142.9,204.2c-1.1,0.1-2.2,0.1-3.4,0.1c-1.1,0-2.3,0-3.4-0.1H142.9z
		 M153.8,199.8V187c0.5-10.5,9.5-19.7,20-20.2h13.1c1,0,2-0.4,2.7-1c-4.8,17.9-18.9,32-36.8,36.8
		C153.4,201.8,153.8,200.9,153.8,199.8z M92.2,166.7h13.1c10.4,0.6,19.4,9.5,20,19.9v13.2c0,1,0.4,2,1,2.7
		c-17.9-4.8-32-18.9-36.8-36.8C90.2,166.3,91.1,166.7,92.2,166.7z M191.2,155.9V149c0.1,1.1,0.1,2.3,0.1,3.4
		C191.4,153.6,191.3,154.7,191.2,155.9z M186.9,138.2H174c-10.5-0.5-19.6-9.6-20.2-20.1v-13.1c0-1-0.4-2-1-2.7
		c17.9,4.8,32.1,18.9,36.8,36.8C188.9,138.6,188,138.2,186.9,138.2z M136.1,100.8c1.1-0.1,2.3-0.1,3.4-0.1c1.1,0,2.3,0.1,3.4,0.1
		H136.1z M126.3,102.4c-0.6,0.7-1,1.7-1,2.7v13.1c-0.6,10.5-9.6,19.5-20.1,20H92.2c-1,0-2,0.4-2.7,1
		C94.2,121.2,108.3,107.1,126.3,102.4z M87.8,155.8c-0.1-1.1-0.1-2.2-0.1-3.4c0-1.1,0-2.3,0.1-3.4V155.8z"/>
	<path style="fill:#F4F4F4;" d="M139.5,165.3c7.1,0,12.9-5.8,12.9-12.9c0-7.1-5.8-12.9-12.9-12.9c-7.1,0-12.9,5.8-12.9,12.9
		C126.7,159.6,132.4,165.3,139.5,165.3z M139.5,143.6c4.9,0,8.9,4,8.9,8.9c0,4.9-4,8.9-8.9,8.9c-4.9,0-8.9-4-8.9-8.9
		C130.7,147.5,134.6,143.6,139.5,143.6z"/>
	<path style="fill:#F4F4F4;" d="M543.2,174.6c8-2.6,14.3-6.9,18.8-12.7c5.8-7.5,8.9-17.9,9-30.7c0.2-16-7.3-27-13.7-33.3
		c-7-7-16.3-12.3-25.6-14.6c-6.6-1.7-17.2-2.5-28.2-2.3c-4.2,0.1-8.6,0.3-13,0.7c-14.9,1.3-37.2,5-58.7,15.1
		c-14.1,6.7-30.6,16.9-45.2,28.1c-15.3,11.7-26.4,22.8-31.3,31.1c-4.8,8.2-6.2,19.7-4,32.2c2,11.1,6.6,21.8,12.4,28.5
		c9.4,10.9,22.7,16.5,38,16.5c5.8,0,12-0.8,18.3-2.5c12.9-3.4,20.9-8.6,28.7-14.1c1.2-0.9,2.5-1.7,3.7-2.6c7-5,15-10.6,26.7-16.4
		c21.4-10.6,40.1-15.9,53.7-19.8C536.9,176.6,540.3,175.6,543.2,174.6z M477.5,193.9L477.5,193.9c-12.2,6-20.3,11.8-27.5,16.9
		c-1.2,0.8-2.3,1.7-3.5,2.5c-7.8,5.5-15.3,10.3-27.4,13.5c-21.2,5.7-40.3,1-52.2-12.8c-5.3-6.1-9.7-16.3-11.5-26.6
		c-2.1-11.6-0.8-22.1,3.5-29.5c4.5-7.8,15.5-18.7,30.2-30c14.4-11,30.6-21.1,44.4-27.6c20.9-9.9,42.8-13.5,57.4-14.8
		c4.1-0.4,8.4-0.6,12.7-0.7c10.8-0.2,21,0.6,27.1,2.2c8.5,2.1,17.4,7.2,23.8,13.6c8.5,8.5,12.7,18.7,12.5,30.5
		c-0.1,12-2.9,21.5-8.2,28.3c-4.1,5.3-9.6,9-16.9,11.3c-2.8,0.9-6.1,1.9-10,3C518.2,177.7,499.3,183.1,477.5,193.9z"/>
	<path style="fill:#F4F4F4;" d="M556.8,142c3.3-9.8,2.2-20.2-3.2-29.3c-5.7-9.6-14.8-15.9-26.5-18.2c-2.7-0.5-5.5-0.8-8.4-0.9
		c-8.5-0.3-17.7,1.4-26.6,4.9c-26.3,10.2-52.5,20.6-65.4,27.2c-3.4,1.7-7.1,3.5-11,5.3c-8.4,4-17.9,8.5-26.2,13.8
		c-14.8,9.5-22.9,19.8-24.6,31.4c-1.8,12.2,2.1,24,10.8,32.3c7.3,7,17,10.8,27.1,10.8c2.4,0,4.9-0.2,7.4-0.7
		c13-2.4,21.6-7.9,29.4-13.3c1.5-1,3-2.1,4.5-3.2c7.1-5.1,15.2-10.8,26.4-16.3c13.8-6.7,28.3-11.5,40.7-15.3
		c2.7-0.8,5.3-1.6,7.7-2.3c9.2-2.7,17.2-5.1,22.3-7.5C548,157.5,553.9,150.5,556.8,142z M518.1,164.3c-2.6,0.8-5.4,1.6-8.2,2.5
		c-12.5,3.8-27.3,8.6-41.3,15.5c-11.5,5.6-19.7,11.4-26.9,16.6c-1.5,1.1-3.1,2.2-4.5,3.2c-9.2,6.4-16.7,10.6-27.8,12.6
		c-11.4,2.1-23-1.3-31-9c-7.7-7.4-11.2-17.9-9.6-28.9c1.6-10.6,8.8-19.7,22.8-28.7c8.1-5.2,17.4-9.6,25.7-13.5
		c4-1.9,7.8-3.7,11.2-5.5c12.6-6.5,38.7-16.8,65.1-27.1c7.9-3,15.9-4.6,23.5-4.6c0.5,0,1,0,1.6,0h0c2.7,0.1,5.3,0.4,7.8,0.9
		c10.5,2.1,18.8,7.7,23.8,16.3c4.8,8.1,5.8,17.4,2.9,26c-2.5,7.4-7.8,13.7-13.7,16.5C534.7,159.4,527,161.7,518.1,164.3z"/>
	<path style="fill:#F4F4F4;" d="M403.1,148.8c-17.4,0-31.6,14.2-31.6,31.6c0,17.4,14.2,31.6,31.6,31.6s31.6-14.2,31.6-31.6
		C434.7,163,420.5,148.8,403.1,148.8z M403.1,152.8c15.2,0,27.6,12.4,27.6,27.6S418.3,208,403.1,208s-27.6-12.4-27.6-27.6
		S387.9,152.8,403.1,152.8z"/>
	<path style="fill:#F4F4F4;" d="M403.1,206.4c14.3,0,26-11.6,26-26s-11.6-26-26-26c-14.3,0-25.9,11.6-25.9,26
		S388.8,206.4,403.1,206.4z M403.1,158.4c12.1,0,22,9.9,22,22c0,12.1-9.9,22-22,22c-12.1,0-21.9-9.9-21.9-22
		C381.2,168.3,391,158.4,403.1,158.4z"/>
	<path style="fill:#F4F4F4;" d="M459.8,119.4c-17.4,0-31.6,14.2-31.6,31.6c0,17.4,14.2,31.6,31.6,31.6c17.4,0,31.6-14.2,31.6-31.6
		C491.4,133.6,477.2,119.4,459.8,119.4z M432.2,151c0-15.2,12.4-27.6,27.6-27.6c15.2,0,27.6,12.4,27.6,27.6
		c0,15.2-12.4,27.6-27.6,27.6C444.5,178.7,432.2,166.3,432.2,151z"/>
	<path style="fill:#F4F4F4;" d="M459.8,177c14.3,0,25.9-11.6,25.9-26c0-14.3-11.6-25.9-25.9-25.9c-14.3,0-26,11.6-26,25.9
		C433.8,165.3,445.5,177,459.8,177z M459.8,173c-12.1,0-22-9.9-22-22c0-12.1,9.9-21.9,22-21.9c12.1,0,21.9,9.8,21.9,21.9
		C481.7,163.1,471.9,173,459.8,173z"/>
	<path style="fill:#F4F4F4;" d="M519.8,97.8c-17.4,0-31.6,14.2-31.6,31.6s14.2,31.6,31.6,31.6s31.6-14.2,31.6-31.6
		S537.2,97.8,519.8,97.8z M492.2,129.4c0-15.2,12.4-27.6,27.6-27.6s27.6,12.4,27.6,27.6S535,157,519.8,157S492.2,144.6,492.2,129.4z
		"/>
	<path style="fill:#F4F4F4;" d="M519.8,155.4c14.3,0,26-11.6,26-26s-11.6-26-26-26c-14.3,0-25.9,11.6-25.9,26
		S505.5,155.4,519.8,155.4z M519.8,151.4c-12.1,0-21.9-9.9-21.9-22s9.8-22,21.9-22c12.1,0,22,9.9,22,22S531.9,151.4,519.8,151.4z"/>
	<path style="fill:#F4F4F4;" d="M397.5,87c1.3,0.6,2.7,0.9,4,0.9c1,0,2-0.2,3-0.5l39.7-13.7c4.8-1.7,7.4-6.9,5.7-11.7
		c-1.2-3.5-4.4-5.9-8.1-6.2c-1.3-0.1-2.5,0.1-3.6,0.5L398.5,70c-2.3,0.8-4.2,2.5-5.3,4.7c-1.1,2.2-1.2,4.7-0.4,7
		C393.6,84.1,395.3,85.9,397.5,87z M441.6,59.8L441.6,59.8c2.1,0.1,3.9,1.5,4.6,3.5c0.5,1.3,0.4,2.7-0.2,4c-0.6,1.3-1.7,2.2-3,2.6
		l-39.8,13.7c-1.3,0.5-2.7,0.4-4-0.2c-1.3-0.6-2.2-1.7-2.6-3c-0.5-1.3-0.4-2.7,0.2-4s1.7-2.2,3-2.6l39.8-13.7
		c0.6-0.2,1.2-0.3,1.7-0.3C441.4,59.8,441.5,59.8,441.6,59.8z"/>
</g>
</svg>
