<?xml version="1.0" encoding="utf-8"?>
<!-- Generator: Adobe Illustrator 24.0.1, SVG Export Plug-In . SVG Version: 6.00 Build 0)  -->
<svg version="1.1"
	 id="Layer_3" xmlns:cc="http://creativecommons.org/ns#" xmlns:dc="http://purl.org/dc/elements/1.1/" xmlns:rdf="http://www.w3.org/1999/02/22-rdf-syntax-ns#"
	 xmlns="http://www.w3.org/2000/svg" xmlns:xlink="http://www.w3.org/1999/xlink" x="0px" y="0px" viewBox="0 0 598.2 350.3"
	 style="enable-background:new 0 0 598.2 350.3;" xml:space="preserve">
<g>
	<path style="fill:#FFFFFF;" d="M503.8,82.3H94.4c-8.2,0-14.8,6.7-14.8,14.8v156c0,8.2,6.7,14.8,14.8,14.8h409.3
		c8.2,0,14.8-6.7,14.8-14.8v-156C518.6,88.9,511.9,82.3,503.8,82.3z M511.7,253.1c0,4.4-3.6,7.9-7.9,7.9H94.4
		c-4.4,0-7.9-3.6-7.9-7.9v-156c0-4.4,3.6-7.9,7.9-7.9h409.3c4.4,0,7.9,3.6,7.9,7.9V253.1z"/>
	<path style="fill:#FFFFFF;" d="M94.4,140.6h16.9c2.9,0,5.2-2.4,5.2-5.2v-15.2c0-2.9-2.3-5.2-5.2-5.2H94.4c-2.9,0-5.2,2.4-5.2,5.2
		v15.2C89.2,138.2,91.5,140.6,94.4,140.6z M91.5,120.2c0-1.6,1.3-2.9,2.9-2.9h16.9c1.6,0,2.9,1.3,2.9,2.9v15.2
		c0,1.6-1.3,2.9-2.9,2.9H94.4c-1.6,0-2.9-1.3-2.9-2.9V120.2z"/>
	<path style="fill:#FFFFFF;" d="M123.2,140.6h16.9c2.9,0,5.2-2.4,5.2-5.2v-15.2c0-2.9-2.3-5.2-5.2-5.2h-16.9c-2.9,0-5.2,2.4-5.2,5.2
		v15.2C118,138.2,120.3,140.6,123.2,140.6z M120.3,120.2c0-1.6,1.3-2.9,2.9-2.9h16.9c1.6,0,2.9,1.3,2.9,2.9v15.2
		c0,1.6-1.3,2.9-2.9,2.9h-16.9c-1.6,0-2.9-1.3-2.9-2.9V120.2z"/>
	<path style="fill:#FFFFFF;" d="M152.4,140.6h16.9c2.9,0,5.2-2.4,5.2-5.2v-15.2c0-2.9-2.3-5.2-5.2-5.2h-16.9c-2.9,0-5.2,2.4-5.2,5.2
		v15.2C147.1,138.2,149.5,140.6,152.4,140.6z M149.4,120.2c0-1.6,1.3-2.9,2.9-2.9h16.9c1.6,0,2.9,1.3,2.9,2.9v15.2
		c0,1.6-1.3,2.9-2.9,2.9h-16.9c-1.6,0-2.9-1.3-2.9-2.9V120.2z"/>
	<path style="fill:#FFFFFF;" d="M176.1,135.3c0,2.9,2.4,5.2,5.2,5.2h16.9c2.9,0,5.2-2.4,5.2-5.2v-15.2c0-2.9-2.3-5.2-5.2-5.2h-16.9
		c-2.9,0-5.2,2.4-5.2,5.2V135.3z M178.4,120.2c0-1.6,1.3-2.9,2.9-2.9h16.9c1.6,0,2.9,1.3,2.9,2.9v15.2c0,1.6-1.3,2.9-2.9,2.9h-16.9
		c-1.6,0-2.9-1.3-2.9-2.9V120.2z"/>
	<path style="fill:#FFFFFF;" d="M227.3,140.6c2.9,0,5.2-2.4,5.2-5.2v-15.2c0-2.9-2.4-5.2-5.2-5.2h-16.9c-2.9,0-5.2,2.4-5.2,5.2v15.2
		c0,2.9,2.4,5.2,5.2,5.2H227.3z M207.4,135.3v-15.2c0-1.6,1.3-2.9,2.9-2.9h16.9c1.6,0,2.9,1.3,2.9,2.9v15.2c0,1.6-1.3,2.9-2.9,2.9
		h-16.9C208.8,138.3,207.4,137,207.4,135.3z"/>
	<path style="fill:#FFFFFF;" d="M234.1,120.2v15.2c0,2.9,2.3,5.2,5.2,5.2h16.9c2.9,0,5.2-2.4,5.2-5.2v-15.2c0-2.9-2.4-5.2-5.2-5.2
		h-16.9C236.5,114.9,234.1,117.3,234.1,120.2z M236.4,120.2c0-1.6,1.3-2.9,2.9-2.9h16.9c1.6,0,2.9,1.3,2.9,2.9v15.2
		c0,1.6-1.3,2.9-2.9,2.9h-16.9c-1.6,0-2.9-1.3-2.9-2.9V120.2z"/>
	<path style="fill:#FFFFFF;" d="M263.3,120.2v15.2c0,2.9,2.3,5.2,5.2,5.2h16.9c2.9,0,5.3-2.4,5.2-5.2v-15.2c0-2.9-2.4-5.2-5.2-5.2
		h-16.9C265.7,114.9,263.3,117.3,263.3,120.2z M265.6,120.2c0-1.6,1.3-2.9,2.9-2.9h16.9c1.6,0,2.9,1.3,2.9,2.9v15.2
		c0,1.6-1.3,2.9-2.9,2.9h-16.9c-1.6,0-2.9-1.3-2.9-2.9V120.2z"/>
	<path style="fill:#FFFFFF;" d="M292.5,120.2v15.2c0,2.9,2.3,5.2,5.2,5.2h16.9c2.9,0,5.2-2.4,5.2-5.2v-15.2c0-2.9-2.4-5.2-5.2-5.2
		h-16.9C294.8,114.9,292.5,117.3,292.5,120.2z M294.8,120.2c0-1.6,1.3-2.9,2.9-2.9h16.9c1.6,0,2.9,1.3,2.9,2.9v15.2
		c0,1.6-1.3,2.9-2.9,2.9h-16.9c-1.6,0-2.9-1.3-2.9-2.9V120.2z"/>
	<path style="fill:#FFFFFF;" d="M343.9,114.9H327c-2.9,0-5.2,2.4-5.2,5.2v15.2c0,2.9,2.4,5.2,5.2,5.2h16.9c2.9,0,5.2-2.4,5.2-5.2
		v-15.2C349.2,117.3,346.8,114.9,343.9,114.9z M346.8,135.3c0,1.6-1.3,2.9-2.9,2.9H327c-1.6,0-2.9-1.3-2.9-2.9v-15.2
		c0-1.6,1.3-2.9,2.9-2.9h16.9c1.6,0,2.9,1.3,2.9,2.9V135.3z"/>
	<path style="fill:#FFFFFF;" d="M373.2,114.9h-16.9c-2.9,0-5.2,2.4-5.2,5.2v15.2c0,2.9,2.4,5.2,5.2,5.2h16.9c2.9,0,5.2-2.4,5.2-5.2
		v-15.2C378.5,117.3,376.1,114.9,373.2,114.9z M376.1,135.3c0,1.6-1.3,2.9-2.9,2.9h-16.9c-1.6,0-2.9-1.3-2.9-2.9v-15.2
		c0-1.6,1.3-2.9,2.9-2.9h16.9c1.6,0,2.9,1.3,2.9,2.9V135.3z"/>
	<path style="fill:#FFFFFF;" d="M402.5,140.6c2.9,0,5.3-2.4,5.2-5.2v-15.2c0-2.9-2.4-5.2-5.2-5.2h-16.9c-2.9,0-5.2,2.4-5.2,5.2v15.2
		c0,2.9,2.4,5.2,5.2,5.2H402.5z M382.7,135.3v-15.2c0-1.6,1.3-2.9,2.9-2.9h16.9c1.6,0,2.9,1.3,2.9,2.9v15.2c0,1.6-1.3,2.9-2.9,2.9
		h-16.9C384,138.3,382.7,137,382.7,135.3z"/>
	<path style="fill:#FFFFFF;" d="M431.6,140.6c2.9,0,5.2-2.4,5.2-5.2v-15.2c0-2.9-2.4-5.2-5.2-5.2h-16.9c-2.9,0-5.2,2.4-5.2,5.2v15.2
		c0,2.9,2.4,5.2,5.2,5.2H431.6z M411.7,135.3v-15.2c0-1.6,1.3-2.9,2.9-2.9h16.9c1.6,0,2.9,1.3,2.9,2.9v15.2c0,1.6-1.3,2.9-2.9,2.9
		h-16.9C413.1,138.3,411.7,137,411.7,135.3z"/>
	<path style="fill:#FFFFFF;" d="M460.5,140.6c2.9,0,5.2-2.4,5.2-5.2v-15.2c0-2.9-2.4-5.2-5.2-5.2h-16.9c-2.9,0-5.2,2.4-5.2,5.2v15.2
		c0,2.9,2.3,5.2,5.2,5.2H460.5z M440.6,135.3v-15.2c0-1.6,1.3-2.9,2.9-2.9h16.9c1.6,0,2.9,1.3,2.9,2.9v15.2c0,1.6-1.3,2.9-2.9,2.9
		h-16.9C441.9,138.3,440.6,137,440.6,135.3z"/>
	<path style="fill:#FFFFFF;" d="M508.6,119.7c0-2.9-2.3-5.2-5.2-5.2h-30.6c-2.9,0-5.2,2.4-5.2,5.2v15.2c0,2.9,2.4,5.2,5.2,5.2h30.6
		c2.9,0,5.2-2.4,5.2-5.2V119.7z M506.3,134.8c0,1.6-1.3,2.9-2.9,2.9h-30.5c-1.6,0-2.9-1.3-2.9-2.9v-15.2c0-1.6,1.3-2.9,2.9-2.9h30.5
		c1.6,0,2.9,1.3,2.9,2.9V134.8z"/>
	<path style="fill:#FFFFFF;" d="M159.4,163.4v-15.2c0-2.9-2.4-5.2-5.2-5.2h-16.9c-2.9,0-5.2,2.4-5.2,5.2v15.2c0,2.9,2.3,5.2,5.2,5.2
		h16.9C157,168.6,159.4,166.3,159.4,163.4z M137.2,166.3c-1.6,0-2.9-1.3-2.9-2.9v-15.2c0-1.6,1.3-2.9,2.9-2.9h16.9
		c1.6,0,2.9,1.3,2.9,2.9v15.2c0,1.6-1.3,2.9-2.9,2.9H137.2z"/>
	<path style="fill:#FFFFFF;" d="M94.3,168.6h30.1c2.9,0,5.3-2.4,5.2-5.2v-15.2c0-2.9-2.4-5.2-5.2-5.2H94.3c-2.9,0-5.2,2.4-5.2,5.2
		v15.2C89.1,166.3,91.4,168.6,94.3,168.6z M91.4,148.2c0-1.6,1.3-2.9,2.9-2.9h30.1c1.6,0,2.9,1.3,2.9,2.9v15.2
		c0,1.6-1.3,2.9-2.9,2.9H94.3c-1.6,0-2.9-1.3-2.9-2.9V148.2z"/>
	<path style="fill:#FFFFFF;" d="M166,168.6h16.9c2.9,0,5.2-2.4,5.2-5.2v-15.2c0-2.9-2.4-5.2-5.2-5.2H166c-2.9,0-5.2,2.4-5.2,5.2
		v15.2C160.7,166.3,163.1,168.6,166,168.6z M163,148.2c0-1.6,1.3-2.9,2.9-2.9h16.9c1.6,0,2.9,1.3,2.9,2.9v15.2
		c0,1.6-1.3,2.9-2.9,2.9H166c-1.6,0-2.9-1.3-2.9-2.9V148.2z"/>
	<path style="fill:#FFFFFF;" d="M217.3,163.4v-15.2c0-2.9-2.4-5.2-5.2-5.2h-16.9c-2.9,0-5.2,2.4-5.2,5.2v15.2c0,2.9,2.3,5.2,5.2,5.2
		h16.9C215,168.6,217.3,166.3,217.3,163.4z M192.2,163.4v-15.2c0-1.6,1.3-2.9,2.9-2.9h16.9c1.6,0,2.9,1.3,2.9,2.9v15.2
		c0,1.6-1.3,2.9-2.9,2.9h-16.9C193.5,166.3,192.2,165,192.2,163.4z"/>
	<path style="fill:#FFFFFF;" d="M246.3,163.4v-15.2c0-2.9-2.4-5.2-5.2-5.2h-16.9c-2.9,0-5.2,2.4-5.2,5.2v15.2c0,2.9,2.3,5.2,5.2,5.2
		h16.9C244,168.6,246.3,166.3,246.3,163.4z M224.1,166.3c-1.6,0-2.9-1.3-2.9-2.9v-15.2c0-1.6,1.3-2.9,2.9-2.9h16.9
		c1.6,0,2.9,1.3,2.9,2.9v15.2c0,1.6-1.3,2.9-2.9,2.9H224.1z"/>
	<path style="fill:#FFFFFF;" d="M253.1,168.6h16.9c2.9,0,5.2-2.4,5.2-5.2v-15.2c0-2.9-2.4-5.2-5.2-5.2h-16.9c-2.9,0-5.2,2.4-5.2,5.2
		v15.2C247.9,166.3,250.2,168.6,253.1,168.6z M250.2,148.2c0-1.6,1.3-2.9,2.9-2.9h16.9c1.6,0,2.9,1.3,2.9,2.9v15.2
		c0,1.6-1.3,2.9-2.9,2.9h-16.9c-1.6,0-2.9-1.3-2.9-2.9V148.2z"/>
	<path style="fill:#FFFFFF;" d="M282.1,168.6h16.9c2.9,0,5.2-2.4,5.2-5.2v-15.2c0-2.9-2.3-5.2-5.2-5.2h-16.9c-2.9,0-5.2,2.4-5.2,5.2
		v15.2C276.9,166.3,279.2,168.6,282.1,168.6z M279.2,148.2c0-1.6,1.3-2.9,2.9-2.9h16.9c1.6,0,2.9,1.3,2.9,2.9v15.2
		c0,1.6-1.3,2.9-2.9,2.9h-16.9c-1.6,0-2.9-1.3-2.9-2.9V148.2z"/>
	<path style="fill:#FFFFFF;" d="M306.1,148.2v15.2c0,2.9,2.4,5.2,5.2,5.2h16.9c2.9,0,5.2-2.4,5.2-5.2v-15.2c0-2.9-2.3-5.2-5.2-5.2
		h-16.9C308.4,143,306.1,145.3,306.1,148.2z M331.2,148.2v15.2c0,1.6-1.3,2.9-2.9,2.9h-16.9c-1.6,0-2.9-1.3-2.9-2.9v-15.2
		c0-1.6,1.3-2.9,2.9-2.9h16.9C329.9,145.3,331.2,146.6,331.2,148.2z"/>
	<path style="fill:#FFFFFF;" d="M335.2,148.2v15.2c0,2.9,2.4,5.2,5.2,5.2h16.9c2.9,0,5.2-2.4,5.2-5.2v-15.2c0-2.9-2.3-5.2-5.2-5.2
		h-16.9C337.6,143,335.2,145.3,335.2,148.2z M360.4,148.2v15.2c0,1.6-1.3,2.9-2.9,2.9h-16.9c-1.6,0-2.9-1.3-2.9-2.9v-15.2
		c0-1.6,1.3-2.9,2.9-2.9h16.9C359,145.3,360.4,146.6,360.4,148.2z"/>
	<path style="fill:#FFFFFF;" d="M364.5,148.2v15.2c0,2.9,2.4,5.2,5.2,5.2h16.9c2.9,0,5.2-2.4,5.2-5.2v-15.2c0-2.9-2.4-5.2-5.2-5.2
		h-16.9C366.8,143,364.5,145.3,364.5,148.2z M386.7,145.3c1.6,0,2.9,1.3,2.9,2.9v15.2c0,1.6-1.3,2.9-2.9,2.9h-16.9
		c-1.6,0-2.9-1.3-2.9-2.9v-15.2c0-1.6,1.3-2.9,2.9-2.9H386.7z"/>
	<path style="fill:#FFFFFF;" d="M421.2,163.4v-15.2c0-2.9-2.3-5.2-5.2-5.2H399c-2.9,0-5.2,2.4-5.2,5.2v15.2c0,2.9,2.4,5.2,5.2,5.2
		H416C418.9,168.6,421.2,166.3,421.2,163.4z M396.1,163.4v-15.2c0-1.6,1.3-2.9,2.9-2.9H416c1.6,0,2.9,1.3,2.9,2.9v15.2
		c0,1.6-1.3,2.9-2.9,2.9H399C397.4,166.3,396.1,165,396.1,163.4z"/>
	<path style="fill:#FFFFFF;" d="M450.5,163.4v-15.2c0-2.9-2.4-5.2-5.2-5.2h-16.9c-2.9,0-5.2,2.4-5.2,5.2v15.2c0,2.9,2.4,5.2,5.2,5.2
		h16.9C448.2,168.6,450.5,166.3,450.5,163.4z M425.4,163.4v-15.2c0-1.6,1.3-2.9,2.9-2.9h16.9c1.6,0,2.9,1.3,2.9,2.9v15.2
		c0,1.6-1.3,2.9-2.9,2.9h-16.9C426.7,166.3,425.4,165,425.4,163.4z"/>
	<path style="fill:#FFFFFF;" d="M479.6,163.4v-15.2c0-2.9-2.4-5.2-5.2-5.2h-16.9c-2.9,0-5.2,2.4-5.2,5.2v15.2c0,2.9,2.4,5.2,5.2,5.2
		h16.9C477.3,168.6,479.6,166.3,479.6,163.4z M454.5,163.4v-15.2c0-1.6,1.3-2.9,2.9-2.9h16.9c1.6,0,2.9,1.3,2.9,2.9v15.2
		c0,1.6-1.3,2.9-2.9,2.9h-16.9C455.8,166.3,454.5,165,454.5,163.4z"/>
	<path style="fill:#FFFFFF;" d="M503.3,168.6c2.9,0,5.2-2.4,5.2-5.2v-15.2c0-2.9-2.4-5.2-5.2-5.2h-16.9c-2.9,0-5.2,2.4-5.2,5.2v15.2
		c0,2.9,2.4,5.2,5.2,5.2H503.3z M483.4,163.4v-15.2c0-1.6,1.3-2.9,2.9-2.9h16.9c1.6,0,2.9,1.3,2.9,2.9v15.2c0,1.6-1.3,2.9-2.9,2.9
		h-16.9C484.7,166.3,483.4,165,483.4,163.4z"/>
	<path style="fill:#FFFFFF;" d="M167.3,191.3v-15.2c0-2.9-2.4-5.2-5.2-5.2h-16.9c-2.9,0-5.2,2.4-5.2,5.2v15.2c0,2.9,2.3,5.2,5.2,5.2
		H162C164.9,196.6,167.3,194.2,167.3,191.3z M145.1,194.3c-1.6,0-2.9-1.3-2.9-2.9v-15.2c0-1.6,1.3-2.9,2.9-2.9H162
		c1.6,0,2.9,1.3,2.9,2.9v15.2c0,1.6-1.3,2.9-2.9,2.9H145.1z"/>
	<path style="fill:#FFFFFF;" d="M94.3,196.6h38c2.9,0,5.3-2.4,5.2-5.2v-15.2c0-2.9-2.4-5.2-5.2-5.2h-38c-2.9,0-5.2,2.4-5.2,5.2v15.2
		C89.1,194.2,91.4,196.6,94.3,196.6z M91.4,176.2c0-1.6,1.3-2.9,2.9-2.9h38c1.6,0,2.9,1.3,2.9,2.9v15.2c0,1.6-1.3,2.9-2.9,2.9h-38
		c-1.6,0-2.9-1.3-2.9-2.9V176.2z"/>
	<path style="fill:#FFFFFF;" d="M196.1,191.3v-15.2c0-2.9-2.4-5.2-5.2-5.2h-16.9c-2.9,0-5.2,2.4-5.2,5.2v15.2c0,2.9,2.3,5.2,5.2,5.2
		h16.9C193.7,196.6,196.1,194.2,196.1,191.3z M173.9,194.3c-1.6,0-2.9-1.3-2.9-2.9v-15.2c0-1.6,1.3-2.9,2.9-2.9h16.9
		c1.6,0,2.9,1.3,2.9,2.9v15.2c0,1.6-1.3,2.9-2.9,2.9H173.9z"/>
	<path style="fill:#FFFFFF;" d="M203.1,196.6H220c2.9,0,5.3-2.4,5.2-5.2v-15.2c0-2.9-2.4-5.2-5.2-5.2h-16.9c-2.9,0-5.2,2.4-5.2,5.2
		v15.2C197.8,194.2,200.2,196.6,203.1,196.6z M200.1,176.2c0-1.6,1.3-2.9,2.9-2.9H220c1.6,0,2.9,1.3,2.9,2.9v15.2
		c0,1.6-1.3,2.9-2.9,2.9h-16.9c-1.6,0-2.9-1.3-2.9-2.9V176.2z"/>
	<path style="fill:#FFFFFF;" d="M232.1,196.6H249c2.9,0,5.2-2.4,5.2-5.2v-15.2c0-2.9-2.4-5.2-5.2-5.2h-16.9c-2.9,0-5.2,2.4-5.2,5.2
		v15.2C226.8,194.2,229.2,196.6,232.1,196.6z M229.1,176.2c0-1.6,1.3-2.9,2.9-2.9H249c1.6,0,2.9,1.3,2.9,2.9v15.2
		c0,1.6-1.3,2.9-2.9,2.9h-16.9c-1.6,0-2.9-1.3-2.9-2.9V176.2z"/>
	<path style="fill:#FFFFFF;" d="M283.2,191.3v-15.2c0-2.9-2.4-5.2-5.2-5.2h-16.9c-2.9,0-5.2,2.4-5.2,5.2v15.2c0,2.9,2.4,5.2,5.2,5.2
		H278C280.9,196.6,283.2,194.2,283.2,191.3z M261.1,194.3c-1.6,0-2.9-1.3-2.9-2.9v-15.2c0-1.6,1.3-2.9,2.9-2.9H278
		c1.6,0,2.9,1.3,2.9,2.9v15.2c0,1.6-1.3,2.9-2.9,2.9H261.1z"/>
	<path style="fill:#FFFFFF;" d="M312.2,191.3v-15.2c0-2.9-2.3-5.2-5.2-5.2H290c-2.9,0-5.2,2.4-5.2,5.2v15.2c0,2.9,2.4,5.2,5.2,5.2
		H307C309.9,196.6,312.2,194.2,312.2,191.3z M287.1,191.3v-15.2c0-1.6,1.3-2.9,2.9-2.9H307c1.6,0,2.9,1.3,2.9,2.9v15.2
		c0,1.6-1.3,2.9-2.9,2.9H290C288.4,194.3,287.1,192.9,287.1,191.3z"/>
	<path style="fill:#FFFFFF;" d="M341.4,191.3v-15.2c0-2.9-2.3-5.2-5.2-5.2h-16.9c-2.9,0-5.2,2.4-5.2,5.2v15.2c0,2.9,2.4,5.2,5.2,5.2
		h16.9C339,196.6,341.4,194.2,341.4,191.3z M319.2,194.3c-1.6,0-2.9-1.3-2.9-2.9v-15.2c0-1.6,1.3-2.9,2.9-2.9h16.9
		c1.6,0,2.9,1.3,2.9,2.9v15.2c0,1.6-1.3,2.9-2.9,2.9H319.2z"/>
	<path style="fill:#FFFFFF;" d="M370.6,191.3v-15.2c0-2.9-2.3-5.2-5.2-5.2h-16.9c-2.9,0-5.2,2.4-5.2,5.2v15.2c0,2.9,2.4,5.2,5.2,5.2
		h16.9C368.2,196.6,370.6,194.2,370.6,191.3z M345.5,191.3v-15.2c0-1.6,1.3-2.9,2.9-2.9h16.9c1.6,0,2.9,1.3,2.9,2.9v15.2
		c0,1.6-1.3,2.9-2.9,2.9h-16.9C346.8,194.3,345.5,192.9,345.5,191.3z"/>
	<path style="fill:#FFFFFF;" d="M399.8,191.3v-15.2c0-2.9-2.4-5.2-5.2-5.2h-16.9c-2.9,0-5.2,2.4-5.2,5.2v15.2c0,2.9,2.4,5.2,5.2,5.2
		h16.9C397.5,196.6,399.8,194.2,399.8,191.3z M374.7,191.3v-15.2c0-1.6,1.3-2.9,2.9-2.9h16.9c1.6,0,2.9,1.3,2.9,2.9v15.2
		c0,1.6-1.3,2.9-2.9,2.9h-16.9C376,194.3,374.7,192.9,374.7,191.3z"/>
	<path style="fill:#FFFFFF;" d="M406.9,196.6h16.9c2.9,0,5.2-2.4,5.2-5.2v-15.2c0-2.9-2.3-5.2-5.2-5.2h-16.9c-2.9,0-5.2,2.4-5.2,5.2
		v15.2C401.7,194.2,404.1,196.6,406.9,196.6z M404,176.2c0-1.6,1.3-2.9,2.9-2.9h16.9c1.6,0,2.9,1.3,2.9,2.9v15.2
		c0,1.6-1.3,2.9-2.9,2.9h-16.9c-1.6,0-2.9-1.3-2.9-2.9V176.2z"/>
	<path style="fill:#FFFFFF;" d="M436.3,196.6h16.9c2.9,0,5.3-2.4,5.2-5.2v-15.2c0-2.9-2.4-5.2-5.2-5.2h-16.9c-2.9,0-5.2,2.4-5.2,5.2
		v15.2C431,194.2,433.4,196.6,436.3,196.6z M433.3,176.2c0-1.6,1.3-2.9,2.9-2.9h16.9c1.6,0,2.9,1.3,2.9,2.9v15.2
		c0,1.6-1.3,2.9-2.9,2.9h-16.9c-1.6,0-2.9-1.3-2.9-2.9V176.2z"/>
	<path style="fill:#FFFFFF;" d="M465.3,196.6h38c2.9,0,5.2-2.4,5.2-5.2v-15.2c0-2.9-2.3-5.2-5.2-5.2h-38c-2.9,0-5.2,2.4-5.2,5.2
		v15.2C460.1,194.2,462.4,196.6,465.3,196.6z M462.4,176.2c0-1.6,1.3-2.9,2.9-2.9h38c1.6,0,2.9,1.3,2.9,2.9v15.2
		c0,1.6-1.3,2.9-2.9,2.9h-38c-1.6,0-2.9-1.3-2.9-2.9V176.2z"/>
	<path style="fill:#FFFFFF;" d="M159.9,225.2h16.9c2.9,0,5.2-2.4,5.2-5.2v-15.2c0-2.9-2.4-5.2-5.2-5.2h-16.9c-2.9,0-5.2,2.4-5.2,5.2
		V220C154.7,222.8,157,225.2,159.9,225.2z M157,204.8c0-1.6,1.3-2.9,2.9-2.9h16.9c1.6,0,2.9,1.3,2.9,2.9V220c0,1.6-1.3,2.9-2.9,2.9
		h-16.9c-1.6,0-2.9-1.3-2.9-2.9V204.8z"/>
	<path style="fill:#FFFFFF;" d="M94.5,199.6c-2.9,0-5.2,2.4-5.2,5.2V220c0,2.9,2.4,5.2,5.2,5.2H147c2.9,0,5.3-2.4,5.2-5.2v-15.2
		c0-2.9-2.4-5.2-5.2-5.2H94.5z M149.9,204.8V220c0,1.6-1.3,2.9-2.9,2.9H94.5c-1.6,0-2.9-1.3-2.9-2.9v-15.2c0-1.6,1.3-2.9,2.9-2.9
		H147C148.6,201.9,149.9,203.2,149.9,204.8z"/>
	<path style="fill:#FFFFFF;" d="M205.7,199.6h-16.9c-2.9,0-5.2,2.4-5.2,5.2V220c0,2.9,2.4,5.2,5.2,5.2h16.9c2.9,0,5.2-2.4,5.2-5.2
		v-15.2C210.9,201.9,208.6,199.6,205.7,199.6z M208.6,220c0,1.6-1.3,2.9-2.9,2.9h-16.9c-1.6,0-2.9-1.3-2.9-2.9v-15.2
		c0-1.6,1.3-2.9,2.9-2.9h16.9c1.6,0,2.9,1.3,2.9,2.9V220z"/>
	<path style="fill:#FFFFFF;" d="M217.9,225.2h16.9c2.9,0,5.3-2.4,5.2-5.2v-15.2c0-2.9-2.4-5.2-5.2-5.2h-16.9c-2.9,0-5.2,2.4-5.2,5.2
		V220C212.7,222.8,215,225.2,217.9,225.2z M215,204.8c0-1.6,1.3-2.9,2.9-2.9h16.9c1.6,0,2.9,1.3,2.9,2.9V220c0,1.6-1.3,2.9-2.9,2.9
		h-16.9c-1.6,0-2.9-1.3-2.9-2.9V204.8z"/>
	<path style="fill:#FFFFFF;" d="M246.9,225.2h16.9c2.9,0,5.2-2.4,5.2-5.2v-15.2c0-2.9-2.4-5.2-5.2-5.2h-16.9c-2.9,0-5.2,2.4-5.2,5.2
		V220C241.7,222.8,244,225.2,246.9,225.2z M244,204.8c0-1.6,1.3-2.9,2.9-2.9h16.9c1.6,0,2.9,1.3,2.9,2.9V220c0,1.6-1.3,2.9-2.9,2.9
		h-16.9c-1.6,0-2.9-1.3-2.9-2.9V204.8z"/>
	<path style="fill:#FFFFFF;" d="M275.9,225.2h16.9c2.9,0,5.3-2.4,5.2-5.2v-15.2c0-2.9-2.4-5.2-5.2-5.2h-16.9c-2.9,0-5.2,2.4-5.2,5.2
		V220C270.6,222.8,273,225.2,275.9,225.2z M273,204.8c0-1.6,1.3-2.9,2.9-2.9h16.9c1.6,0,2.9,1.3,2.9,2.9V220c0,1.6-1.3,2.9-2.9,2.9
		h-16.9c-1.6,0-2.9-1.3-2.9-2.9V204.8z"/>
	<path style="fill:#FFFFFF;" d="M304.9,225.2h16.9c2.9,0,5.2-2.4,5.2-5.2v-15.2c0-2.9-2.3-5.2-5.2-5.2h-16.9c-2.9,0-5.2,2.4-5.2,5.2
		V220C299.6,222.8,302,225.2,304.9,225.2z M301.9,204.8c0-1.6,1.3-2.9,2.9-2.9h16.9c1.6,0,2.9,1.3,2.9,2.9V220
		c0,1.6-1.3,2.9-2.9,2.9h-16.9c-1.6,0-2.9-1.3-2.9-2.9V204.8z"/>
	<path style="fill:#FFFFFF;" d="M334.1,225.2H351c2.9,0,5.2-2.4,5.2-5.2v-15.2c0-2.9-2.3-5.2-5.2-5.2h-16.9c-2.9,0-5.2,2.4-5.2,5.2
		V220C328.8,222.8,331.2,225.2,334.1,225.2z M331.1,204.8c0-1.6,1.3-2.9,2.9-2.9H351c1.6,0,2.9,1.3,2.9,2.9V220
		c0,1.6-1.3,2.9-2.9,2.9h-16.9c-1.6,0-2.9-1.3-2.9-2.9V204.8z"/>
	<path style="fill:#FFFFFF;" d="M363.2,225.2h16.9c2.9,0,5.2-2.4,5.2-5.2v-15.2c0-2.9-2.3-5.2-5.2-5.2h-16.9c-2.9,0-5.2,2.4-5.2,5.2
		V220C358,222.8,360.3,225.2,363.2,225.2z M360.3,204.8c0-1.6,1.3-2.9,2.9-2.9h16.9c1.6,0,2.9,1.3,2.9,2.9V220
		c0,1.6-1.3,2.9-2.9,2.9h-16.9c-1.6,0-2.9-1.3-2.9-2.9V204.8z"/>
	<path style="fill:#FFFFFF;" d="M414.7,220v-15.2c0-2.9-2.4-5.2-5.2-5.2h-16.9c-2.9,0-5.2,2.4-5.2,5.2V220c0,2.9,2.4,5.2,5.2,5.2
		h16.9C412.3,225.2,414.7,222.8,414.7,220z M389.6,220v-15.2c0-1.6,1.3-2.9,2.9-2.9h16.9c1.6,0,2.9,1.3,2.9,2.9V220
		c0,1.6-1.3,2.9-2.9,2.9h-16.9C390.9,222.9,389.6,221.6,389.6,220z"/>
	<path style="fill:#FFFFFF;" d="M444,220v-15.2c0-2.9-2.3-5.2-5.2-5.2h-16.9c-2.9,0-5.2,2.4-5.2,5.2V220c0,2.9,2.4,5.2,5.2,5.2h16.9
		C441.6,225.2,444,222.8,444,220z M418.8,220v-15.2c0-1.6,1.3-2.9,2.9-2.9h16.9c1.6,0,2.9,1.3,2.9,2.9V220c0,1.6-1.3,2.9-2.9,2.9
		h-16.9C420.2,222.9,418.8,221.6,418.8,220z"/>
	<path style="fill:#FFFFFF;" d="M508.6,220v-15.2c0-2.9-2.4-5.2-5.2-5.2h-52.4c-2.9,0-5.2,2.4-5.2,5.2V220c0,2.9,2.3,5.2,5.2,5.2
		h52.4C506.2,225.2,508.6,222.8,508.6,220z M448,220v-15.2c0-1.6,1.3-2.9,2.9-2.9h52.4c1.6,0,2.9,1.3,2.9,2.9V220
		c0,1.6-1.3,2.9-2.9,2.9h-52.4C449.3,222.9,448,221.6,448,220z"/>
	<path style="fill:#FFFFFF;" d="M94.4,111.5h16.9c2.9,0,5.2-2.4,5.2-5.2v-6.9c0-2.9-2.3-5.2-5.2-5.2H94.4c-2.9,0-5.2,2.4-5.2,5.2
		v6.9C89.2,109.2,91.5,111.5,94.4,111.5z M91.5,99.4c0-1.6,1.3-2.9,2.9-2.9h16.9c1.6,0,2.9,1.3,2.9,2.9v6.9c0,1.6-1.3,2.9-2.9,2.9
		H94.4c-1.6,0-2.9-1.3-2.9-2.9V99.4z"/>
	<path style="fill:#FFFFFF;" d="M124.4,111.5h16.9c2.9,0,5.3-2.4,5.2-5.2v-6.9c0-2.9-2.4-5.2-5.2-5.2h-16.9c-2.9,0-5.2,2.4-5.2,5.2
		v6.9C119.1,109.2,121.5,111.5,124.4,111.5z M121.4,99.4c0-1.6,1.3-2.9,2.9-2.9h16.9c1.6,0,2.9,1.3,2.9,2.9v6.9
		c0,1.6-1.3,2.9-2.9,2.9h-16.9c-1.6,0-2.9-1.3-2.9-2.9V99.4z"/>
	<path style="fill:#FFFFFF;" d="M154.3,111.5h16.9c2.9,0,5.3-2.4,5.2-5.2v-6.9c0-2.9-2.4-5.2-5.2-5.2h-16.9c-2.9,0-5.2,2.4-5.2,5.2
		v6.9C149.1,109.2,151.4,111.5,154.3,111.5z M151.4,99.4c0-1.6,1.3-2.9,2.9-2.9h16.9c1.6,0,2.9,1.3,2.9,2.9v6.9
		c0,1.6-1.3,2.9-2.9,2.9h-16.9c-1.6,0-2.9-1.3-2.9-2.9V99.4z"/>
	<path style="fill:#FFFFFF;" d="M184.8,111.5h16.9c2.9,0,5.3-2.4,5.2-5.2v-6.9c0-2.9-2.4-5.2-5.2-5.2h-16.9c-2.9,0-5.2,2.4-5.2,5.2
		v6.9C179.6,109.2,181.9,111.5,184.8,111.5z M181.9,99.4c0-1.6,1.3-2.9,2.9-2.9h16.9c1.6,0,2.9,1.3,2.9,2.9v6.9
		c0,1.6-1.3,2.9-2.9,2.9h-16.9c-1.6,0-2.9-1.3-2.9-2.9V99.4z"/>
	<path style="fill:#FFFFFF;" d="M214.7,111.6h16.9c2.9,0,5.2-2.4,5.2-5.2v-6.9c0-2.9-2.4-5.2-5.2-5.2h-16.9c-2.9,0-5.2,2.4-5.2,5.2
		v6.9C209.5,109.2,211.8,111.6,214.7,111.6z M211.8,99.5c0-1.6,1.3-2.9,2.9-2.9h16.9c1.6,0,2.9,1.3,2.9,2.9v6.9
		c0,1.6-1.3,2.9-2.9,2.9h-16.9c-1.6,0-2.9-1.3-2.9-2.9V99.5z"/>
	<path style="fill:#FFFFFF;" d="M245.2,111.5h16.9c2.9,0,5.2-2.4,5.2-5.2v-6.9c0-2.9-2.4-5.2-5.2-5.2h-16.9c-2.9,0-5.2,2.4-5.2,5.2
		v6.9C239.9,109.2,242.3,111.5,245.2,111.5z M242.2,99.4c0-1.6,1.3-2.9,2.9-2.9h16.9c1.6,0,2.9,1.3,2.9,2.9v6.9
		c0,1.6-1.3,2.9-2.9,2.9h-16.9c-1.6,0-2.9-1.3-2.9-2.9V99.4z"/>
	<path style="fill:#FFFFFF;" d="M275.1,111.5h16.9c2.9,0,5.2-2.4,5.2-5.2v-6.9c0-2.9-2.4-5.2-5.2-5.2h-16.9c-2.9,0-5.2,2.4-5.2,5.2
		v6.9C269.9,109.2,272.2,111.5,275.1,111.5z M272.2,99.4c0-1.6,1.3-2.9,2.9-2.9h16.9c1.6,0,2.9,1.3,2.9,2.9v6.9
		c0,1.6-1.3,2.9-2.9,2.9h-16.9c-1.6,0-2.9-1.3-2.9-2.9V99.4z"/>
	<path style="fill:#FFFFFF;" d="M305.1,111.5H322c2.9,0,5.3-2.4,5.2-5.2v-6.9c0-2.9-2.4-5.2-5.2-5.2h-16.9c-2.9,0-5.2,2.4-5.2,5.2
		v6.9C299.8,109.2,302.2,111.5,305.1,111.5z M302.1,99.4c0-1.6,1.3-2.9,2.9-2.9H322c1.6,0,2.9,1.3,2.9,2.9v6.9
		c0,1.6-1.3,2.9-2.9,2.9h-16.9c-1.6,0-2.9-1.3-2.9-2.9V99.4z"/>
	<path style="fill:#FFFFFF;" d="M335.5,111.5h16.9c2.9,0,5.3-2.4,5.2-5.2v-6.9c0-2.9-2.4-5.2-5.2-5.2h-16.9c-2.9,0-5.2,2.4-5.2,5.2
		v6.9C330.2,109.2,332.6,111.5,335.5,111.5z M332.6,99.4c0-1.6,1.3-2.9,2.9-2.9h16.9c1.6,0,2.9,1.3,2.9,2.9v6.9
		c0,1.6-1.3,2.9-2.9,2.9h-16.9c-1.6,0-2.9-1.3-2.9-2.9V99.4z"/>
	<path style="fill:#FFFFFF;" d="M365.4,111.5h16.9c2.9,0,5.2-2.4,5.2-5.2v-6.9c0-2.9-2.3-5.2-5.2-5.2h-16.9c-2.9,0-5.2,2.4-5.2,5.2
		v6.9C360.2,109.2,362.6,111.5,365.4,111.5z M362.5,99.4c0-1.6,1.3-2.9,2.9-2.9h16.9c1.6,0,2.9,1.3,2.9,2.9v6.9
		c0,1.6-1.3,2.9-2.9,2.9h-16.9c-1.6,0-2.9-1.3-2.9-2.9V99.4z"/>
	<path style="fill:#FFFFFF;" d="M395.6,111.5h16.9c2.9,0,5.3-2.4,5.2-5.2v-6.9c0-2.9-2.4-5.2-5.2-5.2h-16.9c-2.9,0-5.2,2.4-5.2,5.2
		v6.9C390.4,109.2,392.7,111.5,395.6,111.5z M392.7,99.4c0-1.6,1.3-2.9,2.9-2.9h16.9c1.6,0,2.9,1.3,2.9,2.9v6.9
		c0,1.6-1.3,2.9-2.9,2.9h-16.9c-1.6,0-2.9-1.3-2.9-2.9V99.4z"/>
	<path style="fill:#FFFFFF;" d="M425.9,111.5h16.9c2.9,0,5.2-2.4,5.2-5.2v-6.9c0-2.9-2.4-5.2-5.2-5.2h-16.9c-2.9,0-5.2,2.4-5.2,5.2
		v6.9C420.6,109.2,423,111.5,425.9,111.5z M422.9,99.4c0-1.6,1.3-2.9,2.9-2.9h16.9c1.6,0,2.9,1.3,2.9,2.9v6.9c0,1.6-1.3,2.9-2.9,2.9
		h-16.9c-1.6,0-2.9-1.3-2.9-2.9V99.4z"/>
	<path style="fill:#FFFFFF;" d="M456.1,111.5h16.9c2.9,0,5.2-2.4,5.2-5.2v-6.9c0-2.9-2.4-5.2-5.2-5.2h-16.9c-2.9,0-5.2,2.4-5.2,5.2
		v6.9C450.9,109.2,453.2,111.5,456.1,111.5z M453.2,99.4c0-1.6,1.3-2.9,2.9-2.9h16.9c1.6,0,2.9,1.3,2.9,2.9v6.9
		c0,1.6-1.3,2.9-2.9,2.9h-16.9c-1.6,0-2.9-1.3-2.9-2.9V99.4z"/>
	<path style="fill:#FFFFFF;" d="M485.8,111.5h16.9c2.9,0,5.2-2.4,5.2-5.2v-6.9c0-2.9-2.3-5.2-5.2-5.2h-16.9c-2.9,0-5.2,2.4-5.2,5.2
		v6.9C480.5,109.2,482.9,111.5,485.8,111.5z M482.9,99.4c0-1.6,1.3-2.9,2.9-2.9h16.9c1.6,0,2.9,1.3,2.9,2.9v6.9
		c0,1.6-1.3,2.9-2.9,2.9h-16.9c-1.6,0-2.9-1.3-2.9-2.9V99.4z"/>
	<path style="fill:#FFFFFF;" d="M387,227.1h-24.1c-2.9,0-5.2,2.4-5.2,5.2v19.1c0,2.9,2.4,5.2,5.2,5.2H387c2.9,0,5.2-2.4,5.2-5.2
		v-19.1C392.2,229.4,389.9,227.1,387,227.1z M389.9,251.4c0,1.6-1.3,2.9-2.9,2.9h-24.1c-1.6,0-2.9-1.3-2.9-2.9v-19.1
		c0-1.6,1.3-2.9,2.9-2.9H387c1.6,0,2.9,1.3,2.9,2.9V251.4z"/>
	<path style="fill:#FFFFFF;" d="M416,227.1h-16.4c-2.9,0-5.2,2.4-5.2,5.2v19.1c0,2.9,2.4,5.2,5.2,5.2H416c2.9,0,5.2-2.4,5.2-5.2
		v-19.1C421.3,229.4,418.9,227.1,416,227.1z M419,251.4c0,1.6-1.3,2.9-2.9,2.9h-16.4c-1.6,0-2.9-1.3-2.9-2.9v-19.1
		c0-1.6,1.3-2.9,2.9-2.9H416c1.6,0,2.9,1.3,2.9,2.9V251.4z"/>
	<path style="fill:#FFFFFF;" d="M479.3,232.1c0-2.8-2.4-5.1-5.2-5.1h-16.4c-2.9,0-5.2,2.3-5.2,5.1v8.9h0v10.5c0,2.8,2.4,5.2,5.2,5.2
		h16.4c2.9,0,5.3-2.3,5.3-5.2V241h0V232.1z M454.7,232.1c0-1.5,1.3-2.8,2.9-2.8h16.4c1.6,0,2.9,1.2,2.9,2.8v8h-22.3V232.1z
		 M477,251.5c0,1.6-1.3,2.9-2.9,2.9h-16.4c-1.6,0-2.9-1.3-2.9-2.9v-8.2H477V251.5z"/>
	<path style="fill:#FFFFFF;" d="M204.7,227.1h-24.1c-2.9,0-5.2,2.4-5.2,5.2v19.1c0,2.9,2.4,5.2,5.2,5.2h24.1c2.9,0,5.2-2.4,5.2-5.2
		v-19.1C209.9,229.4,207.6,227.1,204.7,227.1z M207.6,251.4c0,1.6-1.3,2.9-2.9,2.9h-24.1c-1.6,0-2.9-1.3-2.9-2.9v-19.1
		c0-1.6,1.3-2.9,2.9-2.9h24.1c1.6,0,2.9,1.3,2.9,2.9V251.4z"/>
	<path style="fill:#FFFFFF;" d="M351,227.1H217.9c-2.9,0-5.2,2.4-5.2,5.2v19.1c0,2.9,2.4,5.2,5.2,5.2H351c2.9,0,5.2-2.4,5.2-5.2
		v-19.1C356.3,229.4,353.9,227.1,351,227.1z M354,251.4c0,1.6-1.3,2.9-2.9,2.9H217.9c-1.6,0-2.9-1.3-2.9-2.9v-19.1
		c0-1.6,1.3-2.9,2.9-2.9H351c1.6,0,2.9,1.3,2.9,2.9V251.4z"/>
	<path style="fill:#FFFFFF;" d="M168.2,227.1h-16.4c-2.9,0-5.2,2.4-5.2,5.2v19.1c0,2.9,2.4,5.2,5.2,5.2h16.4c2.9,0,5.3-2.4,5.2-5.2
		v-19.1C173.4,229.4,171,227.1,168.2,227.1z M171.1,251.4c0,1.6-1.3,2.9-2.9,2.9h-16.4c-1.6,0-2.9-1.3-2.9-2.9v-19.1
		c0-1.6,1.3-2.9,2.9-2.9h16.4c1.6,0,2.9,1.3,2.9,2.9V251.4z"/>
	<path style="fill:#FFFFFF;" d="M139.8,227.1h-16.4c-2.9,0-5.2,2.4-5.2,5.2v19.1c0,2.9,2.4,5.2,5.2,5.2h16.4c2.9,0,5.3-2.4,5.2-5.2
		v-19.1C145,229.4,142.7,227.1,139.8,227.1z M142.7,251.4c0,1.6-1.3,2.9-2.9,2.9h-16.4c-1.6,0-2.9-1.3-2.9-2.9v-19.1
		c0-1.6,1.3-2.9,2.9-2.9h16.4c1.6,0,2.9,1.3,2.9,2.9V251.4z"/>
	<path style="fill:#FFFFFF;" d="M110.7,227.1H94.3c-2.9,0-5.2,2.4-5.2,5.2v19.1c0,2.9,2.4,5.2,5.2,5.2h16.4c2.9,0,5.2-2.4,5.2-5.2
		v-19.1C116,229.4,113.6,227.1,110.7,227.1z M113.7,251.4c0,1.6-1.3,2.9-2.9,2.9H94.3c-1.6,0-2.9-1.3-2.9-2.9v-19.1
		c0-1.6,1.3-2.9,2.9-2.9h16.4c1.6,0,2.9,1.3,2.9,2.9V251.4z"/>
	<path style="fill:#FFFFFF;" d="M445.3,241.6h-16.9c-2.9,0-5.2,2.4-5.2,5.2v4.8c0,2.9,2.4,5.2,5.2,5.2h16.9c2.9,0,5.3-2.4,5.2-5.2
		v-4.8C450.5,243.9,448.2,241.6,445.3,241.6z M448.2,251.6c0,1.6-1.3,2.9-2.9,2.9h-16.9c-1.6,0-2.9-1.3-2.9-2.9v-4.8
		c0-1.6,1.3-2.9,2.9-2.9h16.9c1.6,0,2.9,1.3,2.9,2.9V251.6z"/>
	<path style="fill:#FFFFFF;" d="M503.9,241.6h-16.9c-2.9,0-5.2,2.4-5.2,5.2v4.8c0,2.9,2.4,5.2,5.2,5.2h16.9c2.9,0,5.3-2.4,5.2-5.2
		v-4.8C509.1,243.9,506.8,241.6,503.9,241.6z M506.8,251.6c0,1.6-1.3,2.9-2.9,2.9h-16.9c-1.6,0-2.9-1.3-2.9-2.9v-4.8
		c0-1.6,1.3-2.9,2.9-2.9h16.9c1.6,0,2.9,1.3,2.9,2.9V251.6z"/>
</g>
</svg>
