<?xml version="1.0" encoding="utf-8"?>
<!-- Generator: Adobe Illustrator 24.0.1, SVG Export Plug-In . SVG Version: 6.00 Build 0)  -->
<svg version="1.1" id="Layer_4" xmlns="http://www.w3.org/2000/svg" xmlns:xlink="http://www.w3.org/1999/xlink" x="0px" y="0px"
	 viewBox="1518.1 2871.6 1454.9 562.4" style="enable-background:new 1518.1 2871.6 1454.9 562.4;" xml:space="preserve">
<g>
	<polygon style="fill:#FFFFFF;" points="2219.5,3105 2298.4,3105 2249.5,3218.4 2183.5,3218.4 2173.5,3240.9 2443.7,3240.9 
		2453.8,3218.4 2314.9,3218.4 2391.9,3042.3 2374.6,3080.8 2230,3080.8 	"/>
	<polygon style="fill:#FFFFFF;" points="2493.5,3105 2632.1,3105 2572.6,3240.9 2719.1,3240.9 2729.2,3218.4 2590.3,3218.4 
		2650.5,3080.8 2504.1,3080.8 	"/>
	<path style="fill:#FFFFFF;" d="M2925.1,3080.8l48-110.3h-274.3h-275.4h-275.6l-87.1,193.6v-233.4l-143.6,160.2v-168.9l-398.8,424.4
		h193.9l5.3-5.2l96-92.9v125.4l117.9-123v95.8h870.5l106-241.3H2771l10.6-24.3H2925.1z M2761.3,3111.8H2898l-100,227.6h-859.2v-106
		l-117.9,123v-124.5l-107.6,104.2l-3.3,3.2h-175.3l376-400.2l0,169.5l143.6-160.2v247.4l98.5-218.7h261.4l-43.3,96.6l-144.7,0
		l-16.5,38h79l-42.9,99.6l-65.9,0l-16.2,36.3h285.3l16.2-36.3h-139.1l102.5-234.2h263.2l-42,96.6l-149.4,0l-16.5,38h138.6
		l-59.5,135.9h161.4l16.2-36.3h-139.1l102.5-234.2h259.4l-42,96.6h-143.5L2761.3,3111.8z M2391.9,3042.3l-77,176h139l-10.1,22.5
		h-270.3l10.1-22.5h66l48.9-113.4h-78.9l10.6-24.3h144.6L2391.9,3042.3z M2650.5,3080.8l-60.2,137.6h139l-10.1,22.5h-146.5
		l59.5-135.9h-138.6l10.6-24.3H2650.5z"/>
	<path style="fill:#FFFFFF;" d="M2963.3,2977.2H2704l-102.5,234.2h139.1l-16.2,36.3h-161.4l59.5-135.9h-138.6l16.5-38l149.4,0
		l42-96.6h-263.2l-102.5,234.2h139.1l-16.2,36.3h-285.3l16.2-36.3l65.9,0l42.9-99.6h-79l16.5-38l144.7,0l43.3-96.6h-261.4
		l-98.5,218.7v-247.4l-143.6,160.2l0-169.5l-376,400.2H1710l3.3-3.2l107.6-104.2v124.5l117.9-123v106H2798l100-227.6h-136.7l16.5-38
		h143.5L2963.3,2977.2z M2775.2,3064.1l-23.6,54h137l-93.2,211.6h-848v-117.9l-118.2,123v-123.5l-121.5,117.4l-1,1h-153.9l350.4-372
		v170.2l144-160.2v245.9h8.1l103.8-230h244.5l-36.3,80.6h-145.1l-23.6,54h79.2l-36.1,83.6h-66l-23.5,52.3h303.6l23.5-52.3h-139.5
		l95.7-218.2h246.3l-35.1,80.6H2497l-23.6,54h138.9l-59.6,135.9H2732l23.5-52.3h-139.5l95.7-218.2h242.5l-35.1,80.6H2775.2z"/>
</g>
</svg>
