<?xml version="1.0" encoding="utf-8"?>
<!-- Generator: Adobe Illustrator 24.0.1, SVG Export Plug-In . SVG Version: 6.00 Build 0)  -->
<svg version="1.1"
	 id="Layer_3" xmlns:cc="http://creativecommons.org/ns#" xmlns:dc="http://purl.org/dc/elements/1.1/" xmlns:rdf="http://www.w3.org/1999/02/22-rdf-syntax-ns#"
	 xmlns="http://www.w3.org/2000/svg" xmlns:xlink="http://www.w3.org/1999/xlink" x="0px" y="0px" viewBox="0 0 598.2 350.3"
	 style="enable-background:new 0 0 598.2 350.3;" xml:space="preserve">
<g>
	<polygon style="fill:#F4F4F4;" points="81.2,108.4 78,108.4 78,112.1 84.9,112.1 84.9,25.1 81.2,25.1 	"/>
	<path style="fill:#F4F4F4;" d="M552,112.1V24.3h-3.6v-5.8c0-1.5-1.2-2.7-2.7-2.7H52.3v0c-1.5,0-2.7,1.2-2.7,2.7v5.8h-3.5v87.8h4.7
		v1.6c-0.7,0.5-1.2,1.3-1.2,2.2v208.5c0,1.5,1.2,2.7,2.7,2.7h493.5c1.5,0,2.7-1.2,2.7-2.7V115.9c0-1.2-0.8-2.2-1.8-2.5v-1.3H552z
		 M544.7,323.4H53.3V117h491.4V323.4z M54.5,113.3v-1.2h23.1V24.3H53.3v-4.7h491.4v4.7H268.1v0.9h-3.3v83.3h-3.2v3.7h6.9v0h274.4
		v1.2L54.5,113.3z M49.8,28h24.1v80.4H49.8V28z M271.8,108.4V28h276.5v80.4H271.8z"/>
	<polygon style="fill:#F4F4F4;" points="88.5,108.4 85.4,108.4 85.4,112.1 92.2,112.1 92.2,25.1 88.5,25.1 	"/>
	<polygon style="fill:#F4F4F4;" points="95.9,108.4 92.7,108.4 92.7,112.1 99.6,112.1 99.6,25.1 95.9,25.1 	"/>
	<polygon style="fill:#F4F4F4;" points="103.2,108.4 100.1,108.4 100.1,112.1 107,112.1 107,25.1 103.2,25.1 	"/>
	<polygon style="fill:#F4F4F4;" points="110.6,108.4 107.4,108.4 107.4,112.1 114.3,112.1 114.3,25.1 110.6,25.1 	"/>
	<polygon style="fill:#F4F4F4;" points="117.9,108.4 114.8,108.4 114.8,112.1 121.6,112.1 121.6,25.1 117.9,25.1 	"/>
	<polygon style="fill:#F4F4F4;" points="125.3,108.4 122.1,108.4 122.1,112.1 129,112.1 129,25.1 125.3,25.1 	"/>
	<polygon style="fill:#F4F4F4;" points="132.6,108.4 129.4,108.4 129.4,112.1 136.3,112.1 136.3,25.1 132.6,25.1 	"/>
	<polygon style="fill:#F4F4F4;" points="140,108.4 136.8,108.4 136.8,112.1 143.7,112.1 143.7,25.1 140,25.1 	"/>
	<polygon style="fill:#F4F4F4;" points="147.3,108.4 144.1,108.4 144.1,112.1 151,112.1 151,25.1 147.3,25.1 	"/>
	<polygon style="fill:#F4F4F4;" points="154.6,108.4 151.5,108.4 151.5,112.1 158.3,112.1 158.3,25.1 154.6,25.1 	"/>
	<polygon style="fill:#F4F4F4;" points="162,108.4 158.8,108.4 158.8,112.1 165.7,112.1 165.7,25.1 162,25.1 	"/>
	<polygon style="fill:#F4F4F4;" points="169.3,108.4 166.1,108.4 166.1,112.1 173,112.1 173,25.1 169.3,25.1 	"/>
	<polygon style="fill:#F4F4F4;" points="176.7,108.4 173.5,108.4 173.5,112.1 180.4,112.1 180.4,25.1 176.7,25.1 	"/>
	<polygon style="fill:#F4F4F4;" points="184,108.4 180.8,108.4 180.8,112.1 187.7,112.1 187.7,25.1 184,25.1 	"/>
	<polygon style="fill:#F4F4F4;" points="191.4,108.4 188.2,108.4 188.2,112.1 195.1,112.1 195.1,25.1 191.4,25.1 	"/>
	<polygon style="fill:#F4F4F4;" points="198.7,108.4 195.5,108.4 195.5,112.1 202.4,112.1 202.4,25.1 198.7,25.1 	"/>
	<polygon style="fill:#F4F4F4;" points="206,108.4 202.9,108.4 202.9,112.1 209.7,112.1 209.7,25.1 206,25.1 	"/>
	<polygon style="fill:#F4F4F4;" points="213.4,108.4 210.2,108.4 210.2,112.1 217.1,112.1 217.1,25.1 213.4,25.1 	"/>
	<polygon style="fill:#F4F4F4;" points="220.7,108.4 217.5,108.4 217.5,112.1 224.4,112.1 224.4,25.1 220.7,25.1 	"/>
	<polygon style="fill:#F4F4F4;" points="228.1,108.4 224.9,108.4 224.9,112.1 231.8,112.1 231.8,25.1 228.1,25.1 	"/>
	<polygon style="fill:#F4F4F4;" points="235.4,108.4 232.2,108.4 232.2,112.1 239.1,112.1 239.1,25.1 235.4,25.1 	"/>
	<polygon style="fill:#F4F4F4;" points="242.7,108.4 239.6,108.4 239.6,112.1 246.5,112.1 246.5,25.1 242.7,25.1 	"/>
	<polygon style="fill:#F4F4F4;" points="250.1,108.4 246.9,108.4 246.9,112.1 253.8,112.1 253.8,25.1 250.1,25.1 	"/>
	<polygon style="fill:#F4F4F4;" points="257.4,108.4 254.3,108.4 254.3,112.1 261.1,112.1 261.1,25.1 257.4,25.1 	"/>
	<path style="fill:#F4F4F4;" d="M538.6,34.5H341.7c-1.5,0-2.7,1.2-2.7,2.7V70c0,1.5,1.2,2.7,2.7,2.7h196.9c1.5,0,2.7-1.2,2.7-2.7
		V37.1C541.3,35.7,540.1,34.5,538.6,34.5z M342.8,69V38.2h194.8V69H342.8z"/>
	<path style="fill:#F4F4F4;" d="M495.8,39.2H347.5c-1.7,0-3.1,1.4-3.1,3.1v22.5c0,1.7,1.4,3.1,3.1,3.1h148.3c0.9,0,1.7-0.4,2.3-1.2
		h0.8V42.3C498.8,40.6,497.5,39.2,495.8,39.2z M366.9,61.4h-15.6V45.8h15.6c-0.1,0.2-0.1,0.5-0.1,0.7v14.2
		C366.8,60.9,366.8,61.1,366.9,61.4z M372.5,45.8h99.3c-0.1,0.2-0.1,0.5-0.1,0.7v14.2c0,0.3,0,0.5,0.1,0.7h-99.3
		c0.1-0.2,0.1-0.5,0.1-0.7V46.5C372.6,46.2,372.5,46,372.5,45.8z M477.3,45.8h15v15.6h-15c0.1-0.2,0.1-0.5,0.1-0.7V46.5
		C477.5,46.2,477.4,46,477.3,45.8z"/>
	<path style="fill:#F4F4F4;" d="M520.5,40.8c-7,0-12.7,5.7-12.7,12.7c0,7,5.7,12.7,12.7,12.7s12.7-5.7,12.7-12.7
		C533.2,46.5,527.5,40.8,520.5,40.8z M520.5,62.6c-5,0-9-4-9-9c0-5,4-9,9-9c5,0,9,4,9,9C529.5,58.5,525.5,62.6,520.5,62.6z"/>
	<path style="fill:#F4F4F4;" d="M75.4,190.6h3c-1.2,0.8-2,2.1-2,3.6v16c0,2.3,1.9,4.3,4.3,4.3h4.7c-1.2,0.7-2.1,2.1-2.1,3.6v16
		c0,2.4,1.9,4.3,4.3,4.3h3c-1.2,0.8-2,2.1-2,3.6v16c0,2.4,1.9,4.3,4.3,4.3H120c1.8,0,3.3-1.1,4-2.6c0.4,1,1.3,1.9,2.3,2.3
		c-1.5,0.6-2.6,2.2-2.6,3.9v16c0,2.3,1.9,4.3,4.3,4.3h16c1.8,0,3.3-1.1,3.9-2.6c0.7,1.5,2.2,2.6,3.9,2.6h16c1.8,0,3.3-1.1,4-2.6
		c0.6,1.5,2.2,2.6,3.9,2.6H362c2.4,0,4.3-1.9,4.3-4.3v-16c0-2.3-1.9-4.3-4.3-4.3h-0.9c0.7-0.5,1.3-1.1,1.7-2
		c0.6,1.5,2.2,2.6,3.9,2.6h16c1.8,0,3.3-1.1,4-2.6c0.6,1.5,2.2,2.6,3.9,2.6h28.9c2.4,0,4.3-1.9,4.3-4.3v-16c0-1.8-1.2-3.4-2.8-4
		c1.5-0.7,2.5-2.2,2.5-3.9v-16c0-1.5-0.8-2.9-2-3.6h4.1c2.3,0,4.3-1.9,4.3-4.3v-16c0-1.7-1.1-3.2-2.6-3.9c1.6-0.6,2.7-2.2,2.7-4v-16
		c0-2.4-1.9-4.3-4.3-4.3h-16c-1.8,0-3.3,1.1-3.9,2.6c-0.6-1.5-2.2-2.6-4-2.6h-16c-1.8,0-3.3,1.1-3.9,2.6c-0.6-1.5-2.2-2.6-3.9-2.6
		h-16c-1.8,0-3.3,1.1-4,2.6c-0.6-1.5-2.2-2.6-3.9-2.6h-16c-1.8,0-3.3,1.1-3.9,2.6c-0.6-1.5-2.2-2.6-3.9-2.6h-16
		c-1.8,0-3.3,1.1-3.9,2.6c-0.6-1.5-2.2-2.6-4-2.6h-16c-1.8,0-3.3,1.1-3.9,2.6c-0.6-1.5-2.2-2.6-4-2.6h-16c-1.8,0-3.3,1.1-3.9,2.6
		c-0.7-1.5-2.2-2.6-3.9-2.6h-16c-1.8,0-3.3,1.1-4,2.6c-0.6-1.5-2.2-2.6-3.9-2.6h-16c-1.8,0-3.3,1.1-4,2.6c-0.6-1.5-2.2-2.6-3.9-2.6
		h-16c-1.8,0-3.3,1.1-3.9,2.6c-0.6-1.5-2.2-2.6-3.9-2.6h-16c-1.8,0-3.3,1.1-3.9,2.6c-0.7-1.5-2.2-2.6-3.9-2.6h-16
		c-1.8,0-3.3,1.1-3.9,2.6c-0.6-1.5-2.2-2.6-4-2.6h-16c-1.8,0-3.3,1.1-3.9,2.6c-0.7-1.5-2.2-2.6-3.9-2.6h-16c-1.8,0-3.3,1.1-4,2.6
		c-0.6-1.5-2.2-2.6-3.9-2.6h-16c-2.4,0-4.3,1.9-4.3,4.3v16C71.1,188.7,73,190.6,75.4,190.6z M97,190l-3.4,0c0.7-0.5,1.3-1.1,1.7-2
		C95.6,188.8,96.2,189.5,97,190z M120.8,190h-3.3c0.7-0.5,1.3-1.1,1.7-1.9C119.5,188.8,120.1,189.5,120.8,190z M144.7,190h-3.4
		c0.7-0.5,1.3-1.2,1.7-2C143.4,188.8,144,189.5,144.7,190z M168.6,190h-3.3c0.7-0.5,1.3-1.1,1.7-2
		C167.2,188.8,167.8,189.5,168.6,190z M192.4,190h-3.3c0.7-0.5,1.3-1.1,1.7-2C191.1,188.8,191.7,189.5,192.4,190z M216.3,190H213
		c0.7-0.5,1.3-1.1,1.7-2C215,188.8,215.6,189.5,216.3,190z M240.2,190h-3.4c0.7-0.5,1.3-1.1,1.7-2
		C238.9,188.8,239.5,189.5,240.2,190z M264.1,190h-3.3c0.7-0.5,1.3-1.1,1.7-2C262.8,188.8,263.3,189.5,264.1,190z M287.9,190h-3.4
		c0.7-0.5,1.3-1.1,1.7-2C286.6,188.8,287.2,189.5,287.9,190z M311.8,190h-3.4c0.7-0.5,1.3-1.2,1.7-2
		C310.5,188.8,311.1,189.5,311.8,190z M335.7,190h-3.3c0.7-0.5,1.3-1.1,1.7-2C334.4,188.8,335,189.5,335.7,190z M359.6,190h-3.4
		c0.7-0.5,1.3-1.1,1.7-2C358.2,188.8,358.8,189.5,359.6,190z M383.4,190h-3.3c0.7-0.5,1.3-1.1,1.7-2
		C382.1,188.8,382.7,189.5,383.4,190z M407.3,190H404c0.7-0.5,1.3-1.2,1.7-2C406,188.8,406.6,189.5,407.3,190z M426.1,186.3
		c0,0.3-0.3,0.6-0.6,0.6h-16c-0.3,0-0.5-0.2-0.5-0.6v-16c0-0.3,0.2-0.6,0.5-0.6h16c0.3,0,0.6,0.3,0.6,0.6V186.3z M399.2,235.8
		c0.3,0.8,0.9,1.5,1.7,2h-3.4C398.3,237.3,398.9,236.6,399.2,235.8z M384.9,238.4h3.4c-0.7,0.5-1.3,1.1-1.7,2
		C386.3,239.5,385.7,238.9,384.9,238.4z M361.1,238.4h3.4c-0.7,0.5-1.3,1.1-1.7,2C362.4,239.5,361.8,238.9,361.1,238.4z
		 M338.9,240.3c-0.3-0.8-0.9-1.5-1.7-2h3.4C339.8,238.9,339.2,239.5,338.9,240.3z M169.5,262c1-0.4,1.8-1.3,2.3-2.3
		c0.4,1,1.3,1.9,2.3,2.3c-1,0.4-1.8,1.3-2.3,2.3C171.3,263.2,170.5,262.4,169.5,262z M145.6,262c1-0.4,1.8-1.3,2.3-2.3
		c0.4,1,1.3,1.9,2.3,2.3c-1,0.4-1.8,1.2-2.3,2.3C147.4,263.2,146.6,262.4,145.6,262z M122.3,238.4h3.4c-0.7,0.5-1.3,1.1-1.7,2
		C123.7,239.5,123.1,238.9,122.3,238.4z M115.8,186.3c0,0.3-0.3,0.6-0.6,0.6h-16c-0.3,0-0.6-0.3-0.6-0.6v-16c0-0.2,0.1-0.3,0.2-0.4
		c0.1-0.1,0.3-0.2,0.4-0.2h16c0.3,0,0.6,0.3,0.6,0.6V186.3z M139.7,186.3c0,0.3-0.3,0.6-0.6,0.6h-16c-0.3,0-0.6-0.3-0.6-0.6v-16
		c0-0.3,0.3-0.6,0.6-0.6h16c0.3,0,0.6,0.3,0.6,0.6V186.3z M163.5,186.3c0,0.3-0.3,0.6-0.6,0.6h-16c-0.3,0-0.5-0.2-0.5-0.6v-16
		c0-0.3,0.2-0.6,0.5-0.6h16c0.3,0,0.6,0.3,0.6,0.6V186.3z M187.4,186.3c0,0.3-0.2,0.6-0.5,0.6h-16c-0.3,0-0.5-0.2-0.5-0.6v-16
		c0-0.3,0.2-0.6,0.5-0.6h16c0.3,0,0.5,0.2,0.5,0.6V186.3z M211.3,186.3c0,0.3-0.2,0.6-0.5,0.6h-16c-0.3,0-0.5-0.2-0.5-0.6v-16
		c0-0.3,0.2-0.6,0.5-0.6h16c0.3,0,0.5,0.2,0.5,0.6V186.3z M235.1,186.3c0,0.3-0.2,0.6-0.5,0.6h-16c-0.3,0-0.6-0.3-0.6-0.6v-16
		c0-0.2,0.1-0.3,0.2-0.4c0.1-0.1,0.3-0.2,0.4-0.2h16c0.3,0,0.5,0.2,0.5,0.6V186.3z M259,186.3c0,0.3-0.3,0.6-0.6,0.6h-16
		c-0.3,0-0.6-0.3-0.6-0.6v-16c0-0.3,0.3-0.6,0.6-0.6h16c0.3,0,0.6,0.3,0.6,0.6V186.3z M282.9,186.3c0,0.3-0.3,0.6-0.6,0.6h-16
		c-0.3,0-0.5-0.2-0.5-0.6v-16c0-0.2,0.1-0.3,0.2-0.4c0.1-0.1,0.2-0.2,0.4-0.2h16c0.3,0,0.6,0.3,0.6,0.6V186.3z M306.8,186.3
		c0,0.3-0.3,0.6-0.6,0.6h-16c-0.3,0-0.5-0.2-0.5-0.6v-16c0-0.3,0.2-0.6,0.5-0.6h16c0.3,0,0.6,0.3,0.6,0.6V186.3z M330.6,186.3
		c0,0.3-0.2,0.6-0.5,0.6h-16c-0.3,0-0.5-0.2-0.5-0.6v-16c0-0.3,0.2-0.6,0.5-0.6h16c0.3,0,0.5,0.2,0.5,0.6V186.3z M354.5,186.3
		c0,0.3-0.2,0.6-0.5,0.6h-16c-0.3,0-0.5-0.2-0.5-0.6v-16c0-0.3,0.2-0.6,0.5-0.6h16c0.3,0,0.5,0.2,0.5,0.6V186.3z M378.4,186.3
		c0,0.3-0.2,0.6-0.5,0.6h-16c-0.3,0-0.6-0.3-0.6-0.6v-16c0-0.3,0.3-0.6,0.6-0.6h16c0.3,0,0.5,0.2,0.5,0.6V186.3z M402.3,186.3
		c0,0.3-0.3,0.6-0.6,0.6h-16c-0.3,0-0.6-0.3-0.6-0.6v-16c0-0.3,0.3-0.6,0.6-0.6h16c0.3,0,0.6,0.3,0.6,0.6V186.3z M366.1,242
		c0-0.3,0.2-0.6,0.5-0.6h16c0.3,0,0.6,0.3,0.6,0.6v16c0,0.3-0.3,0.6-0.6,0.6h-16c-0.3,0-0.5-0.2-0.5-0.6V242z M315,240.4
		c-0.3-0.8-0.9-1.5-1.7-2h3.4C315.9,238.9,315.3,239.5,315,240.4z M362.5,281.9c0,0.3-0.2,0.5-0.6,0.5H175.7c-0.3,0-0.5-0.2-0.5-0.5
		v-16c0-0.3,0.2-0.5,0.5-0.5H362c0.3,0,0.6,0.2,0.6,0.5V281.9z M171.7,240.4c-0.3-0.8-0.9-1.5-1.7-2h3.4
		C172.7,238.9,172.1,239.5,171.7,240.4z M151.2,265.9c0-0.3,0.2-0.5,0.6-0.5h16c0.3,0,0.6,0.2,0.6,0.5v16c0,0.3-0.2,0.5-0.6,0.5h-16
		c-0.3,0-0.6-0.2-0.6-0.5V265.9z M147.9,240.3c-0.3-0.8-0.9-1.5-1.7-2h3.3C148.8,238.9,148.2,239.5,147.9,240.3z M112.7,216.5
		c-0.3-0.8-1-1.5-1.7-2h3.4C113.7,215,113.1,215.6,112.7,216.5z M87,218.1c0-0.2,0.1-0.3,0.2-0.4c0.1-0.1,0.3-0.2,0.4-0.2h21.2
		c0.3,0,0.6,0.2,0.6,0.5v16c0,0.3-0.3,0.6-0.6,0.6H87.6c-0.3,0-0.6-0.3-0.6-0.6V218.1z M106.6,192.5c-0.3-0.8-0.9-1.5-1.7-1.9h3.3
		C107.5,191.1,106.9,191.7,106.6,192.5z M80,194.2c0-0.3,0.2-0.5,0.6-0.5h22c0.3,0,0.6,0.2,0.6,0.5v16c0,0.3-0.2,0.5-0.6,0.5h-22
		c-0.3,0-0.6-0.2-0.6-0.5V194.2z M393,192.6c-0.3-0.8-0.9-1.5-1.7-2h3.3C394,191.1,393.4,191.8,393,192.6z M318.4,258v-16
		c0-0.2,0.1-0.3,0.2-0.4c0.1-0.1,0.3-0.2,0.4-0.2h16c0.3,0,0.5,0.2,0.5,0.6v16c0,0.3-0.2,0.6-0.5,0.6h-16
		C318.6,258.6,318.4,258.3,318.4,258z M291.1,240.4c-0.3-0.8-0.9-1.5-1.7-2h3.4C292.1,238.9,291.5,239.5,291.1,240.4z M267.2,240.4
		c-0.3-0.8-0.9-1.5-1.7-2h3.4C268.2,238.9,267.6,239.5,267.2,240.4z M243.4,240.3c-0.3-0.8-0.9-1.5-1.7-2h3.4
		C244.3,238.9,243.7,239.5,243.4,240.3z M219.5,240.3c-0.3-0.8-0.9-1.5-1.7-1.9h3.3C220.4,238.9,219.8,239.5,219.5,240.3z
		 M195.6,240.4c-0.3-0.8-0.9-1.5-1.7-2h3.4C196.6,238.9,196,239.5,195.6,240.4z M127.4,242c0-0.3,0.2-0.6,0.5-0.6h16
		c0.3,0,0.5,0.2,0.5,0.6v16c0,0.3-0.2,0.6-0.5,0.6h-16c-0.3,0-0.5-0.2-0.5-0.6V242z M130.4,211.9c0.3,0.8,1,1.5,1.7,2h-3.4
		C129.5,213.4,130.1,212.7,130.4,211.9z M154.3,211.9c0.3,0.8,1,1.5,1.7,2h-3.4C153.3,213.4,154,212.7,154.3,211.9z M178.2,211.9
		c0.3,0.8,1,1.5,1.7,2h-3.4C177.2,213.4,177.8,212.7,178.2,211.9z M202,211.9c0.3,0.8,1,1.5,1.7,2h-3.4
		C201.1,213.4,201.7,212.7,202,211.9z M225.9,211.9c0.3,0.8,1,1.5,1.7,2h-3.4C225,213.4,225.6,212.7,225.9,211.9z M249.8,211.9
		c0.3,0.8,1,1.5,1.7,2h-3.4C248.8,213.4,249.5,212.7,249.8,211.9z M273.7,211.9c0.3,0.8,1,1.5,1.7,2H272
		C272.7,213.4,273.3,212.7,273.7,211.9z M297.5,211.9c0.3,0.8,1,1.5,1.7,2h-3.4C296.6,213.4,297.2,212.7,297.5,211.9z M321.4,211.9
		c0.3,0.8,1,1.5,1.7,2h-3.4C320.5,213.4,321.1,212.7,321.4,211.9z M345.3,211.9c0.3,0.8,1,1.5,1.7,2h-3.4
		C344.3,213.4,344.9,212.7,345.3,211.9z M369.2,211.9c0.4,0.8,1,1.5,1.7,2h-3.4C368.2,213.4,368.8,212.7,369.2,211.9z M389.7,210.2
		c0,0.3-0.2,0.5-0.6,0.5h-16c-0.3,0-0.6-0.2-0.6-0.5v-16c0-0.2,0.1-0.3,0.2-0.4c0.1-0.1,0.3-0.2,0.4-0.2h16c0.3,0,0.6,0.2,0.6,0.5
		V210.2z M351.5,216.5c-0.3-0.8-1-1.5-1.7-2h3.4C352.4,215,351.8,215.6,351.5,216.5z M327.6,216.5c-0.3-0.8-1-1.5-1.7-2h3.4
		C328.5,215,327.9,215.6,327.6,216.5z M294.5,258v-16c0-0.3,0.3-0.6,0.6-0.6h16c0.3,0,0.5,0.2,0.5,0.6v16c0,0.3-0.2,0.6-0.5,0.6h-16
		C294.7,258.6,294.5,258.3,294.5,258z M175.1,242c0-0.3,0.3-0.6,0.6-0.6h16c0.3,0,0.5,0.2,0.5,0.6v16c0,0.3-0.2,0.6-0.5,0.6h-16
		c-0.3,0-0.6-0.3-0.6-0.6V242z M136.6,216.5c-0.3-0.8-1-1.5-1.7-2h3.4C137.6,215,137,215.6,136.6,216.5z M116.1,218.1
		c0-0.3,0.2-0.5,0.5-0.5h16c0.3,0,0.6,0.2,0.6,0.5v16c0,0.3-0.3,0.6-0.6,0.6h-16c-0.3,0-0.5-0.2-0.5-0.6V218.1z M307.1,218.1
		c0-0.3,0.2-0.5,0.5-0.5h16c0.3,0,0.5,0.2,0.5,0.5v16c0,0.3-0.2,0.6-0.5,0.6h-16c-0.3,0-0.5-0.2-0.5-0.6V218.1z M303.7,216.5
		c-0.3-0.8-1-1.5-1.7-2h3.4C304.7,215,304.1,215.6,303.7,216.5z M187.7,218.1c0-0.2,0.1-0.3,0.2-0.4c0.1-0.1,0.3-0.2,0.4-0.2h16
		c0.3,0,0.5,0.2,0.5,0.5v16c0,0.3-0.2,0.6-0.5,0.6h-16c-0.3,0-0.6-0.3-0.6-0.6V218.1z M208.2,235.8c0.3,0.8,0.9,1.5,1.7,2h-3.4
		C207.3,237.3,207.9,236.6,208.2,235.8z M211.6,218.1c0-0.3,0.2-0.5,0.6-0.5h16c0.3,0,0.6,0.2,0.6,0.5v16c0,0.3-0.3,0.6-0.6,0.6h-16
		c-0.3,0-0.6-0.3-0.6-0.6V218.1z M232.1,235.8c0.3,0.8,0.9,1.5,1.7,1.9h-3.3C231.2,237.3,231.7,236.6,232.1,235.8z M235.5,218.1
		c0-0.3,0.2-0.5,0.6-0.5h16c0.3,0,0.6,0.2,0.6,0.5v16c0,0.3-0.3,0.6-0.6,0.6h-16c-0.3,0-0.6-0.3-0.6-0.6V218.1z M256,235.8
		c0.3,0.8,0.9,1.5,1.7,2h-3.4C255,237.3,255.6,236.6,256,235.8z M259.3,218.1c0-0.3,0.2-0.5,0.5-0.5h16c0.3,0,0.6,0.2,0.6,0.5v16
		c0,0.3-0.3,0.6-0.6,0.6h-16c-0.3,0-0.5-0.2-0.5-0.6V218.1z M279.8,235.8c0.3,0.8,0.9,1.5,1.7,2h-3.4
		C278.9,237.3,279.5,236.6,279.8,235.8z M283.2,218.1c0-0.3,0.2-0.5,0.5-0.5h16c0.3,0,0.5,0.2,0.5,0.5v16c0,0.3-0.2,0.6-0.5,0.6h-16
		c-0.3,0-0.5-0.2-0.5-0.6V218.1z M279.8,216.5c-0.3-0.8-1-1.5-1.7-2h3.4C280.8,215,280.2,215.6,279.8,216.5z M256,216.5
		c-0.4-0.8-1-1.5-1.7-2h3.4C256.9,215,256.3,215.6,256,216.5z M232.1,216.4c-0.4-0.8-1-1.5-1.7-1.9h3.4
		C233.1,215,232.4,215.6,232.1,216.4z M208.2,216.5c-0.3-0.8-1-1.5-1.7-2h3.4C209.2,215,208.6,215.6,208.2,216.5z M184.3,216.5
		c-0.3-0.8-1-1.5-1.7-2h3.4C185.3,215,184.7,215.6,184.3,216.5z M163.8,218.1c0-0.3,0.2-0.5,0.5-0.5h16c0.3,0,0.5,0.2,0.5,0.5v16
		c0,0.3-0.2,0.6-0.5,0.6h-16c-0.3,0-0.5-0.2-0.5-0.6V218.1z M160.5,216.5c-0.3-0.8-1-1.5-1.7-2h3.4
		C161.4,215,160.8,215.6,160.5,216.5z M140,218.1c0-0.3,0.2-0.5,0.5-0.5h16c0.3,0,0.5,0.2,0.5,0.5v16c0,0.3-0.2,0.6-0.5,0.6h-16
		c-0.3,0-0.5-0.2-0.5-0.6V218.1z M160.5,235.8c0.3,0.8,0.9,1.5,1.7,2h-3.3C159.5,237.3,160.1,236.6,160.5,235.8z M184.3,235.8
		c0.3,0.8,0.9,1.5,1.7,2h-3.4C183.4,237.3,184,236.6,184.3,235.8z M199,242c0-0.2,0.1-0.3,0.2-0.4c0.1-0.1,0.3-0.2,0.4-0.2h16
		c0.3,0,0.6,0.3,0.6,0.6v16c0,0.3-0.3,0.6-0.6,0.6h-16c-0.3,0-0.6-0.3-0.6-0.6V242z M222.9,242c0-0.3,0.3-0.6,0.6-0.6h16
		c0.3,0,0.6,0.3,0.6,0.6v16c0,0.3-0.3,0.6-0.6,0.6h-16c-0.3,0-0.6-0.3-0.6-0.6V242z M246.7,242c0-0.3,0.2-0.6,0.5-0.6h16
		c0.3,0,0.6,0.3,0.6,0.6v16c0,0.3-0.3,0.6-0.6,0.6h-16c-0.3,0-0.5-0.2-0.5-0.6V242z M270.6,242c0-0.3,0.2-0.6,0.5-0.6h16
		c0.3,0,0.5,0.2,0.5,0.6v16c0,0.3-0.2,0.6-0.5,0.6h-16c-0.3,0-0.5-0.2-0.5-0.6V242z M303.7,235.8c0.3,0.8,0.9,1.5,1.7,2H302
		C302.8,237.3,303.4,236.6,303.7,235.8z M331,218.1c0-0.3,0.2-0.5,0.6-0.5h16c0.3,0,0.5,0.2,0.5,0.5v16c0,0.3-0.2,0.6-0.5,0.6h-16
		c-0.3,0-0.6-0.3-0.6-0.6V218.1z M354.8,234.1v-16c0-0.3,0.2-0.5,0.6-0.5h16c0.3,0,0.6,0.2,0.6,0.5v16c0,0.3-0.3,0.6-0.6,0.6h-16
		C355.1,234.7,354.8,234.4,354.8,234.1z M365.8,210.2c0,0.3-0.2,0.5-0.5,0.5h-16c-0.3,0-0.6-0.2-0.6-0.5v-16c0-0.3,0.2-0.5,0.6-0.5
		h16c0.3,0,0.5,0.2,0.5,0.5V210.2z M341.9,210.2c0,0.3-0.2,0.5-0.5,0.5h-16c-0.3,0-0.5-0.2-0.5-0.5v-16c0-0.3,0.2-0.5,0.5-0.5h16
		c0.3,0,0.5,0.2,0.5,0.5V210.2z M318,210.2c0,0.3-0.2,0.5-0.5,0.5h-16c-0.3,0-0.5-0.2-0.5-0.5v-16c0-0.3,0.2-0.5,0.5-0.5h16
		c0.3,0,0.5,0.2,0.5,0.5V210.2z M294.2,210.2c0,0.3-0.2,0.5-0.6,0.5h-16c-0.3,0-0.5-0.2-0.5-0.5v-16c0-0.3,0.2-0.5,0.5-0.5h16
		c0.3,0,0.6,0.2,0.6,0.5V210.2z M270.3,210.2c0,0.3-0.2,0.5-0.6,0.5h-16c-0.3,0-0.5-0.2-0.5-0.5v-16c0-0.2,0.1-0.3,0.2-0.4
		c0.1-0.1,0.2-0.2,0.4-0.2h16c0.3,0,0.6,0.2,0.6,0.5V210.2z M246.4,210.2c0,0.3-0.2,0.5-0.6,0.5h-16c-0.3,0-0.6-0.2-0.6-0.5v-16
		c0-0.3,0.2-0.5,0.6-0.5h16c0.3,0,0.6,0.2,0.6,0.5V210.2z M222.5,210.2c0,0.3-0.2,0.5-0.5,0.5h-16c-0.3,0-0.6-0.2-0.6-0.5v-16
		c0-0.3,0.2-0.5,0.6-0.5h16c0.3,0,0.5,0.2,0.5,0.5V210.2z M198.7,210.2c0,0.3-0.2,0.5-0.5,0.5h-16c-0.3,0-0.5-0.2-0.5-0.5v-16
		c0-0.3,0.2-0.5,0.5-0.5h16c0.3,0,0.5,0.2,0.5,0.5V210.2z M174.8,210.2c0,0.3-0.2,0.5-0.5,0.5h-16c-0.3,0-0.5-0.2-0.5-0.5v-16
		c0-0.3,0.2-0.5,0.5-0.5h16c0.3,0,0.5,0.2,0.5,0.5V210.2z M150.9,210.2c0,0.3-0.2,0.5-0.6,0.5h-16c-0.3,0-0.5-0.2-0.5-0.5v-16
		c0-0.3,0.2-0.5,0.5-0.5h16c0.3,0,0.6,0.2,0.6,0.5V210.2z M127.1,210.2c0,0.3-0.2,0.5-0.6,0.5h-16c-0.3,0-0.6-0.2-0.6-0.5v-16
		c0-0.3,0.2-0.5,0.6-0.5h16c0.3,0,0.6,0.2,0.6,0.5V210.2z M136.6,235.8c0.3,0.8,0.9,1.5,1.7,2h-3.4
		C135.7,237.3,136.3,236.6,136.6,235.8z M151.2,242c0-0.3,0.2-0.6,0.5-0.6h16c0.3,0,0.5,0.2,0.5,0.6v16c0,0.3-0.2,0.6-0.5,0.6h-16
		c-0.3,0-0.5-0.2-0.5-0.6V242z M327.6,235.8c0.3,0.8,0.9,1.5,1.7,2h-3.4C326.7,237.3,327.2,236.6,327.6,235.8z M351.5,235.8
		c0.3,0.8,0.9,1.5,1.7,2l-3.4,0C350.5,237.3,351.1,236.6,351.5,235.8z M375.3,235.8c0.3,0.8,0.9,1.5,1.7,2h-3.4
		C374.4,237.3,375,236.6,375.3,235.8z M395.8,234.1c0,0.3-0.3,0.6-0.6,0.6h-16c-0.3,0-0.5-0.2-0.5-0.6v-16c0-0.3,0.2-0.5,0.5-0.5h16
		c0.3,0,0.6,0.2,0.6,0.5V234.1z M375.3,216.5c-0.4-0.8-1-1.5-1.7-2h3.4C376.3,215,375.7,215.6,375.3,216.5z M369.2,192.6
		c-0.3-0.8-0.9-1.5-1.7-1.9h3.3C370.1,191.1,369.5,191.8,369.2,192.6z M345.3,192.6c-0.3-0.8-0.9-1.5-1.7-1.9h3.3
		C346.2,191.1,345.6,191.8,345.3,192.6z M321.4,192.6c-0.3-0.8-0.9-1.5-1.7-1.9h3.3C322.3,191.1,321.8,191.8,321.4,192.6z
		 M297.5,192.6c-0.3-0.8-0.9-1.5-1.7-2h3.3C298.5,191.1,297.9,191.8,297.5,192.6z M273.7,192.6c-0.3-0.8-0.9-1.5-1.7-1.9h3.3
		C274.6,191.1,274,191.8,273.7,192.6z M249.8,192.6c-0.3-0.8-0.9-1.5-1.7-2h3.3C250.7,191.1,250.2,191.8,249.8,192.6z M225.9,192.6
		c-0.3-0.8-0.9-1.5-1.7-2h3.3C226.8,191.1,226.3,191.8,225.9,192.6z M202,192.6c-0.3-0.8-0.9-1.5-1.7-1.9h3.3
		C203,191.1,202.4,191.8,202,192.6z M178.2,192.6c-0.3-0.8-0.9-1.5-1.7-1.9h3.3C179.1,191.1,178.5,191.8,178.2,192.6z M154.3,192.6
		c-0.3-0.8-0.9-1.5-1.7-1.9h3.3C155.2,191.1,154.6,191.8,154.3,192.6z M130.4,192.6c-0.3-0.8-0.9-1.5-1.7-2h3.3
		C131.4,191.1,130.8,191.8,130.4,192.6z M195.6,259.7c0.3,0.8,0.9,1.5,1.7,2h-3.4C194.7,261.2,195.3,260.5,195.6,259.7z
		 M219.5,259.7c0.3,0.8,0.9,1.5,1.7,1.9h-3.3C218.6,261.2,219.1,260.5,219.5,259.7z M243.4,259.7c0.3,0.8,0.9,1.5,1.7,2h-3.3
		C242.4,261.2,243,260.5,243.4,259.7z M267.2,259.7c0.3,0.8,0.9,1.5,1.7,2h-3.4C266.3,261.2,266.9,260.5,267.2,259.7z M291.1,259.7
		c0.3,0.8,0.9,1.5,1.7,2h-3.4C290.2,261.2,290.8,260.5,291.1,259.7z M342.2,242c0-0.3,0.3-0.6,0.6-0.6h16c0.3,0,0.6,0.3,0.6,0.6v16
		c0,0.3-0.3,0.6-0.6,0.6h-16c-0.3,0-0.6-0.3-0.6-0.6V242z M393,211.9c0.3,0.8,1,1.5,1.7,2h-3.4C392.1,213.4,392.7,212.7,393,211.9z
		 M396.4,210.2v-16c0-0.3,0.2-0.5,0.5-0.5h28.5c0.3,0,0.5,0.2,0.5,0.5v16c0,0.3-0.2,0.5-0.5,0.5H397
		C396.7,210.8,396.4,210.6,396.4,210.2z M106.4,212.1h0.3c0.4,0.7,0.9,1.3,1.6,1.8h-3.5C105.5,213.4,106,212.8,106.4,212.1z
		 M112.7,235.8c0.3,0.8,0.9,1.5,1.7,2H111C111.8,237.3,112.4,236.6,112.7,235.8z M92.2,242c0-0.3,0.3-0.6,0.6-0.6H120
		c0.3,0,0.6,0.3,0.6,0.6v16c0,0.3-0.3,0.6-0.6,0.6H92.8c-0.3,0-0.6-0.3-0.6-0.6V242z M127.4,265.9c0-0.3,0.2-0.5,0.6-0.5h16
		c0.3,0,0.6,0.2,0.6,0.5v16c0,0.3-0.2,0.5-0.6,0.5h-16c-0.3,0-0.6-0.2-0.6-0.5V265.9z M313.3,261.6c0.7-0.5,1.3-1.2,1.7-2
		c0.3,0.8,0.9,1.5,1.7,2H313.3z M390,242c0-0.3,0.2-0.6,0.5-0.6h28.9c0.3,0,0.6,0.3,0.6,0.6v16c0,0.3-0.3,0.6-0.6,0.6h-28.9
		c-0.3,0-0.5-0.2-0.5-0.6V242z M402.6,234.1v-16c0-0.3,0.2-0.5,0.5-0.5h16c0.3,0,0.5,0.2,0.5,0.5v16c0,0.3-0.2,0.6-0.5,0.6h-16
		C402.8,234.7,402.6,234.4,402.6,234.1z M91.9,186.3c0,0.3-0.2,0.6-0.5,0.6h-16c-0.3,0-0.6-0.3-0.6-0.6v-16c0-0.3,0.3-0.6,0.6-0.6
		h16c0.3,0,0.5,0.2,0.5,0.6V186.3z M337.2,261.6c0.7-0.5,1.3-1.1,1.7-2c0.3,0.8,0.9,1.5,1.7,2H337.2z M399.2,216.5
		c-0.3-0.8-1-1.5-1.7-2h3.4C400.2,215,399.6,215.6,399.2,216.5z"/>
	<path style="fill:#F4F4F4;" d="M454.8,156.3h16c1.8,0,3.3-1.1,3.9-2.6c0.6,1.5,2.2,2.6,3.9,2.6h16c1.8,0,3.3-1.1,4-2.6
		c0.6,1.5,2.2,2.6,3.9,2.6h16c2.3,0,4.3-1.9,4.3-4.3v-16c0-2.3-1.9-4.3-4.3-4.3h-16c-1.8,0-3.3,1.1-3.9,2.6c-0.6-1.5-2.2-2.6-4-2.6
		h-16c-1.8,0-3.3,1.1-3.9,2.6c-0.7-1.5-2.2-2.6-3.9-2.6h-16c-2.4,0-4.3,1.9-4.3,4.3v16C450.5,154.3,452.4,156.3,454.8,156.3z
		 M471.3,152c0,0.3-0.2,0.5-0.6,0.5h-16c-0.3,0-0.6-0.2-0.6-0.5v-16c0-0.3,0.2-0.5,0.6-0.5h16c0.3,0,0.6,0.2,0.6,0.5V152z
		 M495.2,152c0,0.3-0.2,0.5-0.6,0.5h-16c-0.3,0-0.5-0.2-0.5-0.5v-16c0-0.3,0.2-0.5,0.5-0.5h16c0.3,0,0.6,0.2,0.6,0.5V152z
		 M519.1,152c0,0.3-0.2,0.5-0.5,0.5h-16c-0.3,0-0.5-0.2-0.5-0.5v-16c0-0.3,0.2-0.5,0.5-0.5h16c0.3,0,0.5,0.2,0.5,0.5V152z"/>
	<path style="fill:#F4F4F4;" d="M96.8,155.5h25.7c2.3,0,4.3-1.9,4.3-4.3v-16c0-2.3-1.9-4.3-4.3-4.3H96.8c-2.3,0-4.3,1.9-4.3,4.3v16
		C92.5,153.6,94.4,155.5,96.8,155.5z M123,151.2c0,0.3-0.2,0.5-0.5,0.5H96.8c-0.3,0-0.5-0.2-0.5-0.5v-16c0-0.3,0.2-0.5,0.5-0.5h25.7
		c0.3,0,0.5,0.2,0.5,0.5V151.2z"/>
	<path style="fill:#F4F4F4;" d="M131.9,155.5h25.7c2.4,0,4.3-1.9,4.3-4.3v-16c0-2.3-1.9-4.3-4.3-4.3h-25.7c-2.4,0-4.3,1.9-4.3,4.3
		v16C127.6,153.6,129.6,155.5,131.9,155.5z M158.2,151.2c0,0.3-0.2,0.5-0.6,0.5h-25.7c-0.3,0-0.6-0.2-0.6-0.5v-16
		c0-0.3,0.2-0.5,0.6-0.5h25.7c0.3,0,0.6,0.2,0.6,0.5V151.2z"/>
	<path style="fill:#F4F4F4;" d="M167.1,155.5h25.7c2.3,0,4.3-1.9,4.3-4.3v-16c0-2.3-1.9-4.3-4.3-4.3h-25.7c-2.3,0-4.3,1.9-4.3,4.3
		v16C162.8,153.6,164.7,155.5,167.1,155.5z M193.3,151.2c0,0.3-0.2,0.5-0.5,0.5h-25.7c-0.3,0-0.5-0.2-0.5-0.5v-16
		c0-0.3,0.2-0.5,0.5-0.5h25.7c0.3,0,0.5,0.2,0.5,0.5V151.2z"/>
	<path style="fill:#F4F4F4;" d="M202.2,155.5h25.7c2.4,0,4.3-1.9,4.3-4.3v-16c0-2.3-1.9-4.3-4.3-4.3h-25.7c-2.4,0-4.3,1.9-4.3,4.3
		v16C197.9,153.6,199.9,155.5,202.2,155.5z M228.5,151.2c0,0.3-0.2,0.5-0.6,0.5h-25.7c-0.3,0-0.6-0.2-0.6-0.5v-16
		c0-0.3,0.2-0.5,0.6-0.5h25.7c0.3,0,0.6,0.2,0.6,0.5V151.2z"/>
	<path style="fill:#F4F4F4;" d="M237.4,155.5h25.7c2.3,0,4.3-1.9,4.3-4.3v-16c0-2.3-1.9-4.3-4.3-4.3h-25.7c-2.3,0-4.3,1.9-4.3,4.3
		v16C233.1,153.6,235,155.5,237.4,155.5z M263.6,151.2c0,0.3-0.2,0.5-0.5,0.5h-25.7c-0.3,0-0.5-0.2-0.5-0.5v-16
		c0-0.2,0.1-0.3,0.2-0.4c0.1-0.1,0.2-0.2,0.4-0.2h25.7c0.3,0,0.5,0.2,0.5,0.5V151.2z"/>
	<path style="fill:#F4F4F4;" d="M361.9,155.5h25.7c2.3,0,4.3-1.9,4.3-4.3v-16c0-2.3-1.9-4.3-4.3-4.3h-25.7c-2.4,0-4.3,1.9-4.3,4.3
		v16C357.6,153.6,359.6,155.5,361.9,155.5z M388.1,151.2c0,0.3-0.2,0.5-0.5,0.5h-25.7c-0.3,0-0.6-0.2-0.6-0.5v-16
		c0-0.3,0.2-0.5,0.6-0.5h25.7c0.3,0,0.5,0.2,0.5,0.5V151.2z"/>
	<path style="fill:#F4F4F4;" d="M397,155.5h25.7c2.3,0,4.3-1.9,4.3-4.3v-16c0-2.3-1.9-4.3-4.3-4.3H397c-2.3,0-4.3,1.9-4.3,4.3v16
		C392.8,153.6,394.7,155.5,397,155.5z M423.3,151.2c0,0.3-0.2,0.5-0.5,0.5H397c-0.3,0-0.5-0.2-0.5-0.5v-16c0-0.3,0.2-0.5,0.5-0.5
		h25.7c0.3,0,0.5,0.2,0.5,0.5V151.2z"/>
	<path style="fill:#F4F4F4;" d="M451.6,264.9h70.1c3.7,0,6.7-3,6.7-6.7v-70.1c0-3.7-3-6.7-6.7-6.7h-70.1c-3.7,0-6.7,3-6.7,6.7v70.1
		C444.9,261.9,447.9,264.9,451.6,264.9z M451.6,185.1h28.4c-1.4,0.7-2.8,1.7-4,2.8l-24.7,24.7c-1.2,1.2-2.1,2.5-2.8,3.9v-28.4
		C448.6,186.5,450,185.1,451.6,185.1z M521.7,261.2h-28.5c1.4-0.7,2.8-1.6,3.9-2.8l24.7-24.7c1.2-1.2,2.1-2.5,2.8-4v28.5
		C524.7,259.8,523.3,261.2,521.7,261.2z M486.7,226.5l17.5,17.6L493.3,255c-1.8,1.8-4.1,2.8-6.7,2.8c-2.5,0-4.9-1-6.7-2.8
		l-10.9-10.9L486.7,226.5z M507.6,205.6l10.9,10.9c1.8,1.8,2.8,4.1,2.8,6.7c0,2.5-1,4.9-2.8,6.7l-10.9,10.9L490,223.2L507.6,205.6z
		 M469.1,202.2l10.9-10.9c1.8-1.8,4.1-2.8,6.7-2.8s4.9,1,6.7,2.8l10.9,10.9l-17.5,17.5L469.1,202.2z M454.8,216.5l10.9-10.9
		l17.5,17.5l-17.5,17.5l-10.9-10.9C451.2,226.1,451.2,220.2,454.8,216.5z M524.7,216.2c-0.7-1.4-1.6-2.8-2.8-4L497.5,188
		c-1.2-1.2-2.5-2.1-3.9-2.8h28.1c1.6,0,3,1.3,3,3V216.2z M451.5,234.1l24.3,24.3c1.2,1.2,2.5,2.1,3.9,2.8h-28.1c-1.6,0-3-1.3-3-3
		v-28C449.4,231.6,450.3,232.9,451.5,234.1z"/>
	<path style="fill:#F4F4F4;" d="M77.3,148.9h9.1c1.5,0,2.7-1.2,2.7-2.7v-7c0-1.5-1.2-2.7-2.7-2.7h-9.1c-1.5,0-2.7,1.2-2.7,2.7v7
		C74.6,147.7,75.8,148.9,77.3,148.9z M85.3,140.3v4.9h-7v-4.9H85.3z"/>
	<path style="fill:#F4F4F4;" d="M68.1,229.7h7.8c1.5,0,2.7-1.2,2.7-2.7v-2.7c0-1.5-1.2-2.7-2.7-2.7h-7.8c-1.4,0-2.7,1.2-2.7,2.7v2.7
		C65.5,228.5,66.7,229.7,68.1,229.7z"/>
	<path style="fill:#F4F4F4;" d="M429.1,227c0,1.5,1.2,2.7,2.7,2.7h7.8c1.5,0,2.7-1.2,2.7-2.7v-2.7c0-1.5-1.2-2.7-2.7-2.7h-7.8
		c-1.4,0-2.7,1.2-2.7,2.7V227z"/>
</g>
</svg>
