<?xml version="1.0" encoding="utf-8"?>
<!-- Generator: Adobe Illustrator 24.0.1, SVG Export Plug-In . SVG Version: 6.00 Build 0)  -->
<svg version="1.1" id="Layer_1" xmlns="http://www.w3.org/2000/svg" xmlns:xlink="http://www.w3.org/1999/xlink" x="0px" y="0px"
	 viewBox="0 0 566.9 136" style="enable-background:new 0 0 566.9 136;" xml:space="preserve">
<title>n64</title>
<g id="g3">
	<g id="layer3">
		<polygon id="polygon3538" style="fill:#FFFFFF;" points="29.2,34.7 36,48.7 39.6,47.3 51.5,26.1 37.1,20.5 		"/>
		<polygon id="polygon3540" style="fill:#FFFFFF;" points="62.8,47.1 73.8,34.7 88.4,40.4 88.4,79.3 66.9,48.7 		"/>
		<polygon id="polygon3552" style="fill:#FFFFFF;" points="14.6,40.4 0,34.7 0,96.2 14.6,102.3 14.6,69.7 36,111.3 51.5,117.8 
			51.5,54.6 36,48.7 36,80.8 		"/>
	</g>
	<g id="layer4">
		<polygon id="polygon3556" style="fill:#FFFFFF;" points="88.4,102.3 66.9,74.3 66.9,89.6 71.3,95.7 		"/>
	</g>
	<g id="layer5">
		<polygon id="polygon3544" style="fill:#FFFFFF;" points="66.9,48.7 51.5,54.6 36,48.7 51.5,42.8 		"/>
		<polygon id="polygon3546" style="fill:#FFFFFF;" points="73.8,34.7 88.4,29.1 103,34.7 88.4,40.4 		"/>
		<polygon id="polygon3548" style="fill:#FFFFFF;" points="0,34.7 14.6,29.1 29.2,34.7 14.6,40.4 		"/>
		<polygon id="polygon3550" style="fill:#FFFFFF;" points="65.9,20.5 51.5,15 37.1,20.5 51.5,26.1 		"/>
	</g>
	<g id="g23">
		<g id="g3516">
			<polygon id="polygon3518" style="fill:#FFFFFF;" points="154.1,96.3 175.4,96.3 175.4,48.8 161,48.8 161,76 160.9,76 151.3,48.8 
				129.9,48.8 129.9,96.3 144.4,96.3 144.4,68.8 144.5,68.8 			"/>
			<polygon id="polygon3520" style="fill:#FFFFFF;" points="234.7,96.3 256.1,96.3 256.1,48.8 241.6,48.8 241.6,76 241.5,76 
				232,48.8 210.6,48.8 210.6,96.3 225.1,96.3 225.1,68.8 225.2,68.8 			"/>
			<polygon id="polygon3522" style="fill:#FFFFFF;" points="373.6,96.3 395,96.3 395,48.8 380.5,48.8 380.5,76 380.4,76 370.8,48.8 
				349.5,48.8 349.5,96.3 363.9,96.3 363.9,68.8 364,68.8 			"/>
			<polygon id="polygon3524" style="fill:#FFFFFF;" points="184.2,48.8 202,48.8 202,96.3 184.2,96.3 			"/>
			<polygon id="polygon3526" style="fill:#FFFFFF;" points="272.6,61.7 261.3,61.7 261.3,48.8 301.8,48.8 301.8,61.7 290.4,61.7 
				290.4,96.3 272.6,96.3 			"/>
			<polygon id="polygon3536" style="fill:#FFFFFF;" points="307,48.7 342.3,48.7 342.3,61.3 324.6,61.3 324.6,66.3 340.9,66.3 
				340.9,78.4 324.6,78.4 324.6,83.8 342.9,83.8 342.9,96.2 307,96.2 			"/>
		</g>
		<g id="layer6">
			<path id="path3528" style="fill:#FFFFFF;" d="M402.6,48.8h21.1c18,0,23.8,10.2,23.8,24.3c0,14.3-8.9,23.2-22.7,23.2h-22.2V48.8z
				 M420.1,85.5h1.7c2.9,0,4.8-0.9,5.9-2.8s1.3-5.6,1.3-10.2s-0.1-8.2-1.3-10.2c-1.2-2-3-2.8-5.9-2.8h-1.7V85.5z"/>
			<path id="path3530" style="fill:#FFFFFF;" d="M475.5,47.5c15.5,0,23.2,10.2,23.2,25s-7.7,25-23.2,25s-23.3-10.2-23.3-25
				S459.9,47.5,475.5,47.5z M475.5,85.5c2.7,0,4.8-1.3,4.8-13c0-11.4-1.9-13-4.8-13s-4.8,1.6-4.8,13
				C470.7,84.1,472.7,85.5,475.5,85.5z"/>
			<path id="path3562" style="fill:#FFFFFF;" d="M507,86.2c-3.1,0-5.6,2.5-5.6,5.7c0,3.1,2.5,5.6,5.7,5.6c3.1,0,5.6-2.5,5.6-5.6
				C512.7,88.8,510.1,86.2,507,86.2C507,86.2,507,86.2,507,86.2z M507,96.5c-2.6,0-4.6-2.1-4.6-4.7c0-2.6,2.1-4.6,4.7-4.6
				c2.6,0,4.6,2.1,4.6,4.6C511.7,94.4,509.6,96.5,507,96.5C507,96.5,507,96.5,507,96.5z"/>
			<path id="path3564" style="fill:#FFFFFF;" d="M506.1,95h-1.3v-6.2h2.6c1.1,0,2.1,0.4,2.1,1.6c0,0.8-0.5,1.4-1.3,1.5l0,0
				c1,0.1,1,0.7,1.1,1.6c0,0.5,0.1,1,0.4,1.5h-1.5c-0.1-0.5-0.2-1.1-0.2-1.7c0-0.3-0.1-0.8-0.6-0.8h-1.4V95z M506.1,91.5h1.1
				c0.4,0.1,0.9-0.2,0.9-0.7c0-0.1,0-0.1,0-0.2c0-0.5-0.4-0.8-0.9-0.8h-1.1V91.5z"/>
			<polygon id="polygon3566" style="fill:#FFFFFF;" points="154.1,96.3 175.4,96.3 175.4,48.8 161,48.8 161,76 160.9,76 151.3,48.8 
				129.9,48.8 129.9,96.3 144.4,96.3 144.4,68.8 144.5,68.8 			"/>
			<polygon id="polygon3568" style="fill:#FFFFFF;" points="234.7,96.3 256.1,96.3 256.1,48.8 241.6,48.8 241.6,76 241.5,76 
				232,48.8 210.6,48.8 210.6,96.3 225.1,96.3 225.1,68.8 225.2,68.8 			"/>
			<polygon id="polygon3570" style="fill:#FFFFFF;" points="373.6,96.3 395,96.3 395,48.8 380.5,48.8 380.5,76 380.4,76 370.8,48.8 
				349.5,48.8 349.5,96.3 363.9,96.3 363.9,68.8 364,68.8 			"/>
			<polygon id="polygon3572" style="fill:#FFFFFF;" points="184.2,48.8 202,48.8 202,96.3 184.2,96.3 			"/>
			<polygon id="polygon3574" style="fill:#FFFFFF;" points="272.6,61.7 261.3,61.7 261.3,48.8 301.8,48.8 301.8,61.7 290.4,61.7 
				290.4,96.3 272.6,96.3 			"/>
			<polygon id="polygon3576" style="fill:#FFFFFF;" points="307,48.7 342.3,48.7 342.3,61.3 324.6,61.3 324.6,66.3 340.9,66.3 
				340.9,78.4 324.6,78.4 324.6,83.8 342.9,83.8 342.9,96.2 307,96.2 			"/>
		</g>
		<g id="layer7">
			<path id="path3532" style="fill:#FFFFFF;" d="M530.6,42.4c-1.1-0.1-2.1-0.1-3.2,0c-7.5,0.3-10.6,3.5-11.6,7.2h0.2
				c2-1.7,4.6-2.5,7.3-2.4c6,0,11.4,4.3,11.4,12.5c0.1,7.5-5.9,13.8-13.5,13.9c-0.2,0-0.3,0-0.5,0c-10.6,0-15.2-8.1-15.2-16.8
				c0-7,2.5-13,6.6-16.8c3.9-3.6,8.9-5.4,15.1-5.6c1.1-0.1,2.3-0.1,3.4,0.1L530.6,42.4L530.6,42.4z M520.6,65.9
				c2.4,0,3.9-2.5,3.9-5.7c0-2.7-1.3-5.6-4.5-5.6c-1.8,0-3.5,1.1-4.1,2.8c-0.3,0.7-0.4,1.5-0.3,2.3
				C515.7,62.7,517.2,65.9,520.6,65.9L520.6,65.9z"/>
			<path id="path3534" style="fill:#FFFFFF;" d="M553.4,72.9v-8.5h-15.8v-6.8l12.7-22.7h12.7v21.7h4v7.8h-4v8.5H553.4z M553.4,56.6
				V50c0-2.4,0.2-4.9,0.3-7.6h-0.2c-1.2,2.6-2.2,5-3.5,7.7l-3.1,6.3v0.1L553.4,56.6z"/>
		</g>
	</g>
</g>
</svg>
