<?xml version="1.0" encoding="utf-8"?>
<!-- Generator: Adobe Illustrator 24.0.1, SVG Export Plug-In . SVG Version: 6.00 Build 0)  -->
<svg version="1.1"
	 id="Layer_3" xmlns:cc="http://creativecommons.org/ns#" xmlns:dc="http://purl.org/dc/elements/1.1/" xmlns:rdf="http://www.w3.org/1999/02/22-rdf-syntax-ns#"
	 xmlns="http://www.w3.org/2000/svg" xmlns:xlink="http://www.w3.org/1999/xlink" x="0px" y="0px" viewBox="0 0 505.2 350.3"
	 style="enable-background:new 0 0 505.2 350.3;" xml:space="preserve">
<g>
	<path style="fill:#FFFFFF;" d="M423,144.4c-1.8-12.1-2.7-21.4-2.6-24.9l0-1l-0.1,0c0-1.1,0.1-2.1,0.1-3.2
		c0-19.6-8.1-37.7-21.6-50.4l0-0.5c0.1-2.1,0.1-3.7,0.1-5c-0.1-1.4-0.2-2.7-1.1-3.7c-0.3-0.3-0.6-0.6-1.1-0.9
		c-0.5-0.3-1.1-0.8-1.8-1.3c-1.2-0.8-3.1-2.1-5.8-3.7c-4.1-2.4-10.2-5.7-15.9-7.4c-5.6-1.7-16.4-3.9-24.4-5.5
		c-9.5-1.8-17.5-3.2-19.5-3.4c-0.8-0.1-1.5-0.2-1.9-0.2c-0.5-0.1-0.9-0.1-1.2-0.1c-1.4-3.6-2.8-6.8-3.2-7.6l0.1-0.6l-0.6-0.4
		l-0.1-0.1l-0.1,0l-0.2-0.2C304,12.8,279.3,6.6,252.8,6.6l-0.4,0c-26.5,0-51.2,6.3-69.4,17.6l-0.3,0.2l-0.1,0l-0.1,0.1l-0.6,0.4
		l0.1,0.7c-0.4,0.9-1.8,3.9-3.2,7.5c-0.3,0-0.7,0.1-1.2,0.1c-0.5,0.1-1.1,0.1-1.9,0.2c-2,0.2-10,1.6-19.5,3.4
		c-8,1.5-18.7,3.7-24.4,5.5c-4.5,1.4-9.8,3.9-15.9,7.4c-2.2,1.3-4.2,2.6-5.8,3.7c-0.8,0.5-1.4,1-1.8,1.3c-0.5,0.4-0.8,0.6-1.1,0.9
		c-0.9,1-1,2.3-1,3.7c0,1.3,0,3.1,0.1,5.5c-13.5,12.7-21.6,30.8-21.6,50.4c0,1.1,0,2.2,0.1,3.2l-0.1,0l0,1
		c0.2,4.2-1.2,15.7-2.5,24.9c-1.5,10.5-4.1,43.8,2,71.9c3.8,17.5,7.3,29.3,11.2,38.5c5.4,12.4,11.5,19,18.8,20.2
		c1.3,0.2,2.5,0.3,3.7,0.3c5.8,0,10.5-2.5,14-7.4c4.3-6,6.9-15.3,9.1-24.5c4.9-20.9,10.2-44.6,11.2-49.3c0.4-2,2-4.4,4.2-6.3
		c2.2-2,4.8-3.1,6.9-3l1,0l0-0.1c10,0.8,18.2,2.5,24.4,4.9c6.5,2.6,11,6.1,13.6,10.7c1,1.7,2.1,6.5,3.2,13.2
		c1.1,6.9,2.2,15.6,3.1,23.3l0.7,5.7c1.8,15.4,3.7,31.2,6,40.5c2.9,12,7,27.3,12.8,39.3c3.1,6.4,6.4,11.5,10,15
		c4.2,4.1,8.8,6.2,13.6,6.2h1.6c4.9,0,9.5-2.1,13.7-6.2c3.6-3.5,6.8-8.4,10-15c5.8-12,9.9-27.3,12.8-39.3c2.3-9.4,4.2-25.4,6.1-41
		l0.6-5.3c1-8.1,2-16.6,3.1-23.3c1.1-6.7,2.3-11.5,3.2-13.2c2.6-4.6,7.1-8.1,13.6-10.7c6.2-2.5,14.4-4.1,24.4-4.9l0,0.1l1,0
		c2-0.1,4.6,1,6.9,3c2.1,1.9,3.7,4.3,4.2,6.3c1.3,5.7,6.5,28.9,11.3,49.3c2.2,9.2,4.8,18.5,9.1,24.5c3.5,4.9,8.2,7.4,14,7.4
		c1.2,0,2.4-0.1,3.7-0.3c7.3-1.2,13.4-7.8,18.8-20.2c4-9.1,7.4-21,11.2-38.5C427.2,188.1,424.5,154.8,423,144.4z M376.1,265.8
		c-3.2-4.4-5.7-11.4-8.5-23.3c-5-21-10.2-44.5-11.2-49.2c-0.6-2.8-2.6-5.8-5.3-8.2c-0.4-0.3-0.7-0.6-1.1-0.9c0.5,0,1,0,1.6,0
		c32.2-0.8,58.5-21.9,66.5-50.7c0.5,3.9,1,7.9,1.5,11.4c1.4,9.6,4,43.2-1.9,70.6c-2.3,10.7-6,26.3-11,37.8
		c-4.8,11.1-10.3,17.2-16.2,18.2C384,272.5,379.7,270.8,376.1,265.8z M315.2,186.4c-7.3,2.9-12.3,6.9-15.4,12.3
		c-1.3,2.3-2.3,6.4-3.6,14.4c-1.1,6.8-2.2,15.3-3.2,23.5l-0.6,5.1c-1.9,15.5-3.8,31.6-6,40.7c-2.9,11.8-6.9,26.9-12.6,38.7
		c-2.9,6.1-6.1,10.8-9.3,14c-3.6,3.5-7.2,5.2-11.2,5.2h-1.6c-4,0-7.6-1.7-11.2-5.2c-3.2-3.2-6.3-7.9-9.3-14
		c-5.6-11.8-9.7-26.8-12.6-38.7c-2.2-9.1-4.1-25.1-6-40.7l-0.6-5.1C211,227,210,219.3,209,213c-1.3-7.9-2.3-12.1-3.6-14.4
		c-3-5.4-8.1-9.4-15.4-12.3c-8.7-3.5-20.6-5.3-36.3-5.7c-36.8-0.9-65.5-29.6-65.5-65.5c0-27.7,17.1-52.4,42.6-61.4
		c6.2-2.2,14.5-4.2,25.2-6c3.4-0.6,6.6-1.1,9.4-1.5c3.8-0.6,6.8-1.1,8.3-1.5c1.3-0.3,2.3-0.8,3.2-1.3l16.2,59.9l0.3,1l2.3-0.4
		l0.8-0.3v-0.8l-10.8-76.3c17.6-10.7,41.2-16.5,66.6-16.5h0.4c25.4,0,49,5.9,66.6,16.5l-10.8,76.2l-0.2,1l3.4,0.6l16.5-60.9
		c0.9,0.5,1.9,1,3.2,1.3c1.6,0.4,4.6,0.9,8.3,1.5c2.8,0.4,6,0.9,9.4,1.5c10.7,1.9,19,3.8,25.2,6c25.5,9,42.6,33.7,42.6,61.4
		c0,35.9-28.8,64.6-65.5,65.5C335.8,181.1,323.9,182.9,315.2,186.4z M114.8,271.5c-5.9-1-11.4-7.1-16.2-18.2
		c-5-11.6-8.7-27.1-11-37.8c-6-27.5-3.3-61-1.9-70.6c0.5-3.6,1.1-7.6,1.5-11.4c7.9,28.8,34.3,50,66.5,50.7c0.5,0,1.1,0,1.6,0
		c-0.4,0.3-0.7,0.6-1.1,0.9c-2.7,2.4-4.7,5.4-5.3,8.2c-1,4.7-6.3,28-11.3,49.2c-2.8,11.9-5.3,18.9-8.5,23.3
		C125.4,270.8,121.2,272.6,114.8,271.5z M109.7,59.4c0-0.9,0.1-1.4,0.2-1.6c0.1-0.1,0.3-0.3,0.5-0.4c0.4-0.3,1-0.7,1.7-1.2
		c1.6-1.1,3.6-2.3,5.6-3.6c4-2.4,9.8-5.5,15.1-7.1c4.3-1.3,12.8-3.2,24-5.4c8.8-1.7,17.4-3.2,19.2-3.3c0.6-0.1,1.1-0.1,1.5-0.2
		c-0.4,1.1-0.7,1.9-1.1,2.6c-0.6,0.9-1.4,1.6-3.6,2.2c-1.3,0.3-4.2,0.8-7.8,1.4c-2.9,0.4-6.1,1-9.7,1.6c-10.9,1.9-19.3,3.9-25.8,6.2
		c-7.4,2.6-14.1,6.5-19.9,11.3C109.7,60.8,109.7,60.1,109.7,59.4z M189.2,75.2l-9.3-34.5l-0.2,0.1c0.7-1.1,1.1-2.4,1.6-3.8
		c0.2-0.5,0.4-1.1,0.6-1.7c0.4-1.1,0.8-2.2,1.3-3.3L189.2,75.2z M396,57.2L396,57.2C396,57.2,396,57.2,396,57.2L396,57.2z
		 M395.5,61.8c-5.9-4.8-12.6-8.7-19.9-11.3c-6.5-2.3-14.9-4.3-25.8-6.2c-3.5-0.6-6.8-1.1-9.7-1.6c-3.6-0.6-6.5-1-7.8-1.4
		c-2.2-0.6-3-1.3-3.6-2.2c-0.4-0.6-0.7-1.5-1.1-2.6c0.4,0,0.9,0.1,1.5,0.2c1.8,0.2,10.4,1.7,19.2,3.3c8,1.5,18.6,3.7,24,5.4
		c5.3,1.6,11.1,4.8,15.1,7.1c2,1.2,4,2.5,5.6,3.6c0.7,0.5,1.3,0.9,1.7,1.2c0.2,0.2,0.4,0.3,0.5,0.4c0.1,0.2,0.2,0.6,0.2,1.6
		C395.5,60.1,395.5,60.8,395.5,61.8z M323.4,35.3c0.2,0.6,0.4,1.2,0.6,1.8c0.5,1.4,0.9,2.6,1.6,3.8l-0.2-0.1L316,75.3l6.1-43.3
		C322.5,33,323,34.1,323.4,35.3z"/>
	<path style="fill:#FFFFFF;" d="M144.6,79.2c-22.3,0-40.4,18.1-40.4,40.5c0,22.3,18.1,40.4,40.4,40.4c22.3,0,40.4-18.1,40.4-40.4
		C185,97.4,166.9,79.2,144.6,79.2z M144.6,156.6c-20.4,0-36.9-16.6-36.9-36.9c0-20.4,16.6-37,36.9-37s36.9,16.6,36.9,37
		C181.5,140,165,156.6,144.6,156.6z"/>
	<path style="fill:#FFFFFF;" d="M252.6,149.9c10.8,0,19.5-8.7,19.5-19.5c0-5.2-2-10.1-5.7-13.8c-3.7-3.7-8.6-5.7-13.8-5.7
		c-10.8,0-19.5,8.8-19.5,19.5C233.1,141.2,241.8,149.9,252.6,149.9z M252.6,146.4c-8.8,0-16-7.2-16-16c0-8.8,7.2-16,16-16
		c8.8,0,16,7.2,16,16C268.6,139.3,261.4,146.4,252.6,146.4z"/>
	<path style="fill:#FFFFFF;" d="M252.6,161.3c-21.4,0-38.9,17.4-38.9,38.9c0,21.4,17.4,38.8,38.9,38.8c21.4,0,38.8-17.4,38.8-38.8
		C291.4,178.8,274,161.3,252.6,161.3z M252.6,235.6c-19.5,0-35.4-15.9-35.4-35.4c0-19.5,15.9-35.4,35.4-35.4
		c19.5,0,35.4,15.9,35.4,35.4C287.9,219.7,272.1,235.6,252.6,235.6z"/>
	<path style="fill:#FFFFFF;" d="M252.6,115.5c-8.3,0-15,6.7-15,15s6.7,15,15,15c8.3,0,15-6.7,15-15S260.9,115.5,252.6,115.5z
		 M252.6,141.9c-6.3,0-11.5-5.2-11.5-11.5s5.2-11.5,11.5-11.5s11.5,5.2,11.5,11.5S258.9,141.9,252.6,141.9z"/>
	<path style="fill:#FFFFFF;" d="M366.6,154.8c0-9-7.3-16.4-16.4-16.4c-2.9,0-5.7,0.8-8,2.1l-2.9-2.7c1.3-2.3,2-5,2-7.9
		c0-9-7.3-16.4-16.4-16.4c-9,0-16.4,7.3-16.4,16.4s7.3,16.4,16.4,16.4c3.1,0,6.1-0.9,8.6-2.4l2.7,2.6c-1.5,2.5-2.4,5.3-2.4,8.4
		c0,9,7.3,16.4,16.4,16.4C359.3,171.2,366.6,163.8,366.6,154.8z M350.3,167.7c-7.1,0-12.9-5.8-12.9-12.9c0-7.1,5.8-12.9,12.9-12.9
		c7.1,0,12.9,5.8,12.9,12.9C363.1,161.9,357.4,167.7,350.3,167.7z M325,142.8c-7.1,0-12.9-5.8-12.9-12.9c0-3.4,1.3-6.7,3.8-9.1
		c2.4-2.4,5.7-3.8,9.1-3.8c7.1,0,12.9,5.8,12.9,12.9S332.1,142.8,325,142.8z M337.3,140.7l2.1,1.9c-0.3,0.3-0.7,0.6-1,0.9l-2-1.9
		C336.7,141.4,337,141.1,337.3,140.7z"/>
	<path style="fill:#FFFFFF;" d="M170.7,105.9H159c-0.4,0-0.6-0.2-0.6-0.6V93.6c0-3.4-2.7-6.1-6.1-6.1h-15.4c-3.4,0-6.1,2.7-6.1,6.1
		v11.6c0,0.4,0,0.6,0,0.7c-0.1,0-0.2,0-0.4,0h-11.8c-3.4,0-6.1,2.7-6.1,6.1v15.4c0,3.4,2.7,6.1,6.1,6.1h11.6c0.4,0,0.5,0.1,0.5,0.1
		c0.1,0.1,0.1,0.3,0.1,0.5v11.6c0,3.4,2.7,6.1,6.1,6.1h15.4c3.4,0,6.1-2.7,6.1-6.1v-11.7c0-0.3,0-0.5,0-0.6c0.1,0,0.3,0,0.5,0h11.7
		c3.4,0,6.1-2.7,6.1-6.1V112C176.7,108.6,174,105.9,170.7,105.9z M170.8,126.3c0,1.1-0.9,2-2,2h-11.7c-0.8,0-1.8,0.1-2.6,0.8
		c-0.8,0.7-1.2,1.7-1.2,3v11.7c0,1.1-0.9,2-2,2h-13.3c-1.1,0-2-0.9-2-2v-11.7c0-1.1-0.4-2.1-1.1-2.8c-0.7-0.6-1.6-1-2.7-1H130v-1
		c1.7,0.1,3.3-1.4,3.3-3.1v-9.2c0-0.8-0.3-1.6-0.9-2.2c-0.6-0.6-1.4-0.9-2.2-0.9c-0.6,0-1.2,0.2-1.6,0.4l-7.4,4.5l-0.3,0.2
		c-0.9,0.6-1.5,1.6-1.5,2.7c0,1.1,0.6,2.1,1.5,2.7l7.5,4.5l1.5,1.5h-9.5c-1.1,0-2-0.9-2-2V113c0-1.1,0.9-2,2-2h11.8
		c1.3,0,2.4-0.5,3-1.3c0.6-0.8,0.7-1.7,0.7-2.5V95.5c0-1.1,0.9-2,2-2h13.3c1.1,0,2,0.9,2,2v11.7c0,2.1,1.7,3.8,3.8,3.8h11.7
		c1.1,0,2,0.9,2,2V126.3z M130.1,114.4v0.4h0L130.1,114.4L130.1,114.4z M130.1,115.4L130.1,115.4l0-0.4L130.1,115.4z M129.8,115.7
		v7.9l-6.6-4L129.8,115.7z"/>
	<path style="fill:#FFFFFF;" d="M168.3,117l-7.5-4.6l-0.4-0.2l-0.1,0c-0.4-0.2-0.9-0.3-1.3-0.3c-1.7,0-3.1,1.4-3.1,3.1v9.2
		c0,1.7,1.4,3.1,3.1,3.1c0.5,0,1-0.1,1.5-0.4l7.6-4.6l0.3-0.2c0.9-0.6,1.5-1.6,1.5-2.6C169.8,118.6,169.3,117.6,168.3,117z
		 M159.1,115L159.1,115l0,0.1l0,0V115z M159.4,123.6v-7.9l6.6,4L159.4,123.6z"/>
	<path style="fill:#FFFFFF;" d="M144.6,127.1c4.1,0,7.5-3.3,7.5-7.5c0-4.1-3.3-7.5-7.5-7.5s-7.5,3.4-7.5,7.5
		C137.1,123.8,140.5,127.1,144.6,127.1z M144.6,123.6c-2.2,0-4-1.8-4-4c0-2.2,1.8-4,4-4c2.2,0,4,1.8,4,4
		C148.6,121.9,146.8,123.6,144.6,123.6z"/>
	<path style="fill:#FFFFFF;" d="M147.3,95.9l-0.3-0.5h-0.1c-0.6-0.6-1.4-1-2.3-1c-1.1,0-2,0.5-2.6,1.4l-4,6.6l0,0l-0.9,1.5l0,0
		c-0.2,0.4-0.3,0.9-0.3,1.3c0,1.7,1.4,3.1,3.1,3.1h9.2c1.7,0,3.1-1.4,3.1-3.1c0-0.5-0.1-1-0.4-1.4L147.3,95.9z M144.6,98.3l4,6.6
		h-7.9L144.6,98.3z"/>
	<path style="fill:#FFFFFF;" d="M149.2,131l-9.2,0c-1.7,0-3.1,1.4-3.1,3.1c0,0.6,0.2,1.2,0.5,1.7l4.6,7.6l0.3,0.5h0.1
		c0.6,0.6,1.4,1,2.3,1c0.9,0,1.8-0.4,2.4-1.1l4.9-7.9l0.1-0.3v0c0.2-0.4,0.3-0.9,0.3-1.4C152.3,132.4,150.9,131,149.2,131z
		 M144.6,141.1l-4-6.6h7.9L144.6,141.1z"/>
	<path style="fill:#FFFFFF;" d="M270,180.6l-18.4-4.7l-0.5-0.1l-17.2,6.6l-0.9,0.3l-4.7,18.5l-0.1,0.5l6.6,17.3l0.3,0.8l18.4,4.7
		l0.5,0.1l17.3-6.6l0.8-0.3l4.7-18.3l0.2-0.6l-6.6-17.2L270,180.6z M273.3,198.9l-4.1,16.1l-15.4,5.9l-16.1-4.1l-5.9-15.4l4.1-16.1
		l15.4-5.9l16.1,4.1L273.3,198.9z"/>
	<path style="fill:#FFFFFF;" d="M252.6,181.2c-10.5,0-19,8.5-19,19c0,10.5,8.5,19,19,19c10.5,0,19-8.5,19-19
		C271.6,189.7,263.1,181.2,252.6,181.2z M252.6,215.7c-8.5,0-15.5-6.9-15.5-15.5c0-8.5,7-15.5,15.5-15.5s15.5,7,15.5,15.5
		C268.1,208.7,261.1,215.7,252.6,215.7z"/>
	<path style="fill:#FFFFFF;" d="M351.5,118.5c2.8,5.8,7.4,10.4,13.1,13.1c1.5,5.4,6.4,9.3,12.2,9.3c5.8,0,10.7-4,12.2-9.3
		c5.7-2.8,10.4-7.4,13.1-13.1c5.4-1.5,9.3-6.4,9.3-12.2c0-5.8-4-10.7-9.3-12.2c-2.8-5.8-7.4-10.4-13.1-13.1
		c-1.5-5.4-6.4-9.3-12.2-9.3c-5.8,0-10.8,4-12.2,9.3c-5.8,2.8-10.4,7.4-13.1,13.1c-5.4,1.5-9.3,6.4-9.3,12.2
		C342.2,112.1,346.2,117,351.5,118.5z M364.3,85.1c0.4,6.6,5.9,11.8,12.6,11.8c6.7,0,12.1-5.2,12.6-11.8c3.5,2.1,6.4,5,8.5,8.5
		c-6.6,0.4-11.8,5.9-11.8,12.6c0,6.7,5.2,12.1,11.8,12.6c-2.1,3.5-5,6.4-8.5,8.5c-0.5-6.6-5.9-11.8-12.6-11.8
		c-6.7,0-12.2,5.2-12.6,11.8c-3.5-2.1-6.5-5-8.6-8.5c6.6-0.4,11.8-5.9,11.8-12.6c0-6.7-5.2-12.2-11.8-12.6
		C357.8,90.2,360.7,87.2,364.3,85.1z M367.8,83.3c0.5-4.6,4.4-8.2,9.1-8.2c5,0,9.1,4.1,9.1,9.1c0,5.1-4.1,9.2-9.1,9.2
		c-5.1,0-9.2-4.1-9.2-9.2C367.7,84,367.7,83.7,367.8,83.3L367.8,83.3L367.8,83.3z M398.9,115.5c-5.1,0-9.2-4.1-9.2-9.2
		c0-5.1,4.1-9.2,9.2-9.2c5,0,9.1,4.1,9.1,9.2C408,111.3,403.9,115.5,398.9,115.5z M376.9,137.5c-4.7,0-8.6-3.6-9.1-8.2l0-0.1l0,0
		c0-0.3,0-0.6,0-0.9c0-5.1,4.1-9.2,9.2-9.2c5,0,9.1,4.1,9.1,9.2C386,133.3,381.9,137.5,376.9,137.5z M353.7,97.2l0.2,0.1l0.1-0.1
		c0.3,0,0.6,0,0.9,0c5.1,0,9.2,4.1,9.2,9.2c0,4.2-2.8,7.7-6.7,8.8V114c1.8,0.1,3.3-1.4,3.3-3.1v-9.2c0-0.8-0.3-1.6-0.9-2.2
		c-0.6-0.6-1.4-0.9-2.2-0.9c-0.6,0-1.2,0.2-1.6,0.4l-7.4,4.5l-0.3,0.2c-0.9,0.6-1.5,1.6-1.5,2.6c0,1.1,0.6,2.1,1.5,2.7l7.5,4.5
		l1.6,1.6c-0.8,0.2-1.6,0.3-2.5,0.3c-5,0-9.1-4.1-9.1-9.2C345.7,101.6,349.2,97.8,353.7,97.2z M357.5,101.8L357.5,101.8l0-0.1
		L357.5,101.8z M357.1,102.3v7.9l-6.6-4L357.1,102.3z"/>
	<path style="fill:#FFFFFF;" d="M405.5,103.6l-7.5-4.5l-0.3-0.3l-0.1,0c-0.4-0.2-0.8-0.3-1.3-0.3c-1.7,0-3.1,1.4-3.1,3.1v9.2
		c0,1.7,1.4,3.1,3.1,3.1c0.5,0,1-0.1,1.4-0.3l7.6-4.6l0.3-0.2c0.9-0.6,1.5-1.6,1.5-2.6C407,105.2,406.4,104.2,405.5,103.6z
		 M396.2,101.7L396.2,101.7l0,0.1l0,0V101.7z M396.6,110.3v-7.9l6.6,4L396.6,110.3z"/>
	<path style="fill:#FFFFFF;" d="M372.3,90.1h9.2c1.7,0,3.1-1.4,3.1-3.1c0-0.5-0.1-1-0.4-1.4l-4.6-7.7l-0.1-0.2l-0.1-0.1
		c-0.6-0.9-1.6-1.4-2.6-1.4c-1.1,0-2.1,0.6-2.7,1.5l-4.5,7.5l-0.3,0.3l0,0.1c-0.2,0.4-0.3,0.9-0.3,1.3
		C369.1,88.6,370.5,90.1,372.3,90.1z M372.9,86.6l4-6.6l4,6.6H372.9z"/>
	<path style="fill:#FFFFFF;" d="M381.5,122.5h-9.2c-1.7,0-3.1,1.4-3.1,3.1c0,0.1,0,0.1,0,0.2l-1,0l1.6,1.6l4.4,7.4l0.1,0.1
		c0.6,1,1.6,1.5,2.7,1.5c1.1,0,2.1-0.6,2.6-1.5l4.5-7.5l0.1-0.1l0-0.1c0.3-0.5,0.4-1,0.4-1.6C384.6,124,383.2,122.5,381.5,122.5z
		 M380.8,126l-4,6.6l-4-6.6H380.8z"/>
</g>
</svg>
