<?xml version="1.0" encoding="utf-8"?>
<!-- Generator: Adobe Illustrator 24.0.1, SVG Export Plug-In . SVG Version: 6.00 Build 0)  -->
<svg version="1.1" id="Layer_1" xmlns="http://www.w3.org/2000/svg" xmlns:xlink="http://www.w3.org/1999/xlink" x="0px" y="0px"
	 viewBox="0 0 604 170.8" style="enable-background:new 0 0 604 170.8;" xml:space="preserve">
<title>naomi</title>
<g id="layer101">
	<path style="fill:#FFFFFF;" d="M310.1,147.1c-17.9-4-35.7-17.9-43.8-34.2c-10.4-20.8-9.7-45.9,1.9-65
		c12.9-21.2,36.9-33.8,61.3-31.9c29.2,2.2,52.4,22,59.7,50.9c2.8,11.1,2.2,25.9-1.5,36.5c-7.1,20-22.7,35.5-42,41.8
		C335.5,148.5,319.9,149.3,310.1,147.1z M344.2,123.4c9.6-4.9,17.4-12.8,22.1-22.5c3-6.5,3.2-7.4,3.2-18.8c0-11.6-0.1-12.2-3.4-19
		c-8.8-17.9-29-28.8-47.6-25.7c-15,2.3-27.9,12.1-34.2,25.9c-3.2,6.6-3.8,8.9-4.1,16.3c-0.7,13.9,3,24.1,12.1,33.8
		c10,10.5,19.5,14.4,34.3,14C335.9,127.1,337.3,126.8,344.2,123.4z"/>
	<path style="fill:#FFFFFF;" d="M125,141.9c0-0.5,3.3-6.4,7.4-13.3l7.4-12.5l-6.9-0.3l-6.9-0.3V96.6h23.5l20.4-37
		c11.2-20.3,20.9-37.6,21.5-38.5c1-1.4,4,3.5,18.3,29.2c9.4,16.9,24.5,44.2,33.7,60.6c9.2,16.4,16.6,30.3,16.6,30.8
		s-5.1,0.8-12.2,0.7l-12.3-0.3l-7-13.2l-6.9-13.3H192l-29.5,0.1l-7.3,13.4l-7.3,13.5h-11.4C130.2,142.6,125,142.3,125,141.9z
		 M210.4,92.4c-2.2-4.3-12.9-24.1-16.1-29.6l-2.5-4.4l-9.9,18.2c-5.4,10-9.9,18.3-9.9,18.6s9,0.4,20,0.4h20.1L210.4,92.4z"/>
	<path style="fill:#FFFFFF;" d="M410.5,141.4c-0.3-0.7-0.4-28.5-0.3-61.8l0.3-60.4l9.9,11.4c5.5,6.3,20.5,23.8,33.4,38.8
		s23.7,27.2,24.2,27c0.8-0.3,6.3-6.7,44-51.1c12.4-14.6,22.8-26.6,23.3-26.6s0.7,27.8,0.7,61.9v62h-22l-0.1-14.7
		c-0.1-8.2-0.4-22.6-0.8-32.2l-0.6-17.4l-21.9,26.4c-12,14.5-22.4,26.4-23.1,26.4s-10-10.3-20.6-23s-20.7-24.7-22.6-26.8l-3.3-3.7
		v65h-10C413.9,142.6,410.8,142.2,410.5,141.4z"/>
	<path style="fill:#FFFFFF;" d="M583,79.6v-63h21v126h-21V79.6z"/>
	<path style="fill:#FFFFFF;" d="M0,80.6c0-33.5,0.2-61,0.5-61s9.9,7.7,21.3,17.2C62.1,70.3,82.6,87.2,87.3,91l4.7,3.8V18.6h21v60.6
		c0,36.7-0.4,60.4-0.9,60.2c-0.9-0.3-19.4-15.2-69.1-55.7L19.5,64.5l-0.3,38.6L19,141.6H0V80.6z"/>
</g>
</svg>
