<?xml version="1.0" encoding="utf-8"?>
<!-- Generator: Adobe Illustrator 24.0.1, SVG Export Plug-In . SVG Version: 6.00 Build 0)  -->
<svg version="1.1" id="레이어_1" xmlns="http://www.w3.org/2000/svg" xmlns:xlink="http://www.w3.org/1999/xlink" x="0px"
	 y="0px" viewBox="0 0 548.8 120" style="enable-background:new 0 0 548.8 120;" xml:space="preserve">
<path style="fill:#FFFFFF;" d="M347.9,90.9c0,0.8-0.7,1.6-1.5,1.6h-29.1c-0.8,0-1.5-0.7-1.5-1.6v-21c0-0.8,0.7-1.5,1.5-1.5h29.1
	c0.8,0,1.5,0.7,1.5,1.5V90.9z M346.6,62H317c-4.3,0-7.8,3.5-7.8,7.8v21.1c0,4.2,3.5,7.8,7.8,7.8h29.6c4.3,0,7.8-3.6,7.8-7.8v-21
	C354.4,65.5,350.9,62,346.6,62z"/>
<path style="fill:#FFFFFF;" d="M6.8,30.5c0,0,0,26.8,0,27.2c-0.4,0-6.4,0-6.8,0C0,57.3,0,21.4,0,21c0.4,0,5.6,0,5.8,0l27.5,26.8
	c0,0,0-26.3,0-26.8c0.4,0,5.4,0,5.4,0s1,0,1.3,0c0,0.4,0,36.3,0,36.7c-0.4,0-5.1,0-5.3,0L6.8,30.5z"/>
<path style="fill:#FFFFFF;" d="M74.9,30.5c0,0,0,26.8,0,27.2c-0.4,0-6.4,0-6.8,0c0-0.4,0-36.3,0-36.7c0.4,0,5.6,0,5.8,0l27.5,26.8
	c0,0,0-26.3,0-26.8c0.4,0,5.5,0,5.5,0s1,0,1.3,0c0,0.4,0,36.3,0,36.7c-0.4,0-5.1,0-5.3,0L74.9,30.5z"/>
<path style="fill:#FFFFFF;" d="M216.2,30.5c0,0,0,26.8,0,27.2c-0.4,0-6.4,0-6.8,0c0-0.4,0-36.3,0-36.7c0.4,0,5.6,0,5.8,0l27.5,26.8
	c0,0,0-26.3,0-26.8c0.4,0,5.4,0,5.4,0s1,0,1.3,0c0,0.4,0,36.3,0,36.7c-0.4,0-5.1,0-5.3,0L216.2,30.5z"/>
<path style="fill:#FFFFFF;" d="M56.2,20.9c0,0,1,0,1.3,0c0,0.4,0,36.3,0,36.7c-0.4,0-6.4,0-6.8,0c0-0.4,0-36.3,0-36.7
	C51.1,20.9,56.2,20.9,56.2,20.9z"/>
<path style="fill:#FFFFFF;" d="M154.5,20.9c0,0,0.9,0,1.2,0c0,0.3,0,6,0,6.3c-0.4,0-16.4,0-16.4,0s0,30,0,30.4c-0.4,0-6.7,0-7.1,0
	c0-0.4,0-30.4,0-30.4s-16,0-16.4,0c0-0.3,0-6,0-6.3C116.3,20.9,154.5,20.9,154.5,20.9z"/>
<path style="fill:#FFFFFF;" d="M198,20.9c0,0,1,0,1.3,0c0,0.3,0,6,0,6.3c-0.4,0-29.1,0-29.1,0v8.3c0,0,22.2,0,22.5,0
	c0,0.4,0,5.9,0,6.3c-0.4,0-22.5,0-22.5,0v9.6c0,0,28.7,0,29.1,0c0,0.3,0,5.9,0,6.3c-0.4,0-35.5,0-35.9,0c0-0.4,0-36.3,0-36.7
	C163.8,20.9,198,20.9,198,20.9z"/>
<path style="fill:#FFFFFF;" d="M287.2,51.3h-20.9V27.2h20.9c6.5,0,8.9,6.5,8.9,12C296.1,44.8,293.8,51.3,287.2,51.3z M298.4,26.3
	c-2.7-3.6-6.6-5.4-11.3-5.4c0,0-26.8,0-27.2,0c0,0.4,0,36.3,0,36.7c0.4,0,27.2,0,27.2,0c4.8,0,8.7-1.9,11.3-5.4
	c2.5-3.2,3.8-7.7,3.8-13C302.2,34,300.9,29.6,298.4,26.3z"/>
<path style="fill:#FFFFFF;" d="M347.9,49.8c0,0.7-0.7,1.5-1.5,1.5h-29.1c-0.8,0-1.5-0.7-1.5-1.5V28.7c0-0.8,0.7-1.5,1.5-1.5h29.1
	c0.8,0,1.5,0.7,1.5,1.5V49.8z M346.6,20.9H317c-4.3,0-7.8,3.5-7.8,7.8v21.1c0,4.3,3.5,7.8,7.8,7.8h29.6c4.3,0,7.8-3.5,7.8-7.8V28.7
	C354.4,24.4,350.9,20.9,346.6,20.9z"/>
<path style="fill:#FFFFFF;" d="M470,83.2c7,2.8,21.9,5.1,33.5,5.1c12.7,0,18-4.3,18-9.8c0-5-4.9-7.8-18.9-13
	c-18.8-6.9-32.5-12.4-32.5-24.8c0-12.7,16.6-20.3,41.8-20.3c13.6,0,18.2,0.8,26.8,2.4l0.1,12.1c-8.5-1.6-16-4.3-27.6-4.3
	c-12.5,0-17.8,4-17.8,8.1c0,5.9,8.2,8.7,22.6,13.9c20,7.1,31.1,12.6,31.1,24.7c0,12.5-13.9,21.4-45.4,21.4
	c-12.9,0-21.8-0.8-31.7-2.5L470,83.2L470,83.2z"/>
<path style="fill:#FFFFFF;" d="M403.1,31.2h-15v56.7h15c23,0,37.4-9.9,37.4-28.3C440.6,41.3,426.1,31.2,403.1,31.2z M443.3,93.1
	c-7.4,3.3-21.4,5.5-33.6,5.5H363V20.7h46.7c12.2,0,26.2,2.2,33.6,5.5c18,8.1,23.9,21.2,23.9,33.5C467.2,71.9,461.3,85,443.3,93.1z"
	/>
<line style="fill:none;" x1="548.8" y1="87" x2="548.8" y2="85.9"/>
</svg>
