<?xml version="1.0" encoding="utf-8"?>
<!-- Generator: Adobe Illustrator 24.0.1, SVG Export Plug-In . SVG Version: 6.00 Build 0)  -->
<svg version="1.1" id="레이어_1" xmlns="http://www.w3.org/2000/svg" xmlns:xlink="http://www.w3.org/1999/xlink" x="0px"
	 y="0px" viewBox="0 0 548.8 109" style="enable-background:new 0 0 548.8 109;" xml:space="preserve">
<path style="fill:#FFFFFF;" d="M347.9,85.4c0,0.8-0.7,1.6-1.5,1.6h-29.1c-0.8,0-1.5-0.7-1.5-1.6v-21c0-0.8,0.7-1.5,1.5-1.5h29.1
	c0.8,0,1.5,0.7,1.5,1.5V85.4z M346.6,56.5H317c-4.3,0-7.8,3.5-7.8,7.8v21.1c0,4.2,3.5,7.8,7.8,7.8h29.6c4.3,0,7.8-3.6,7.8-7.8V64.4
	C354.4,60,350.9,56.5,346.6,56.5z"/>
<path style="fill:#FFFFFF;" d="M6.8,25c0,0,0,26.8,0,27.2c-0.4,0-6.4,0-6.8,0c0-0.4,0-36.3,0-36.7c0.4,0,5.6,0,5.8,0l27.5,26.8
	c0,0,0-26.3,0-26.8c0.4,0,5.4,0,5.4,0s1,0,1.3,0c0,0.4,0,36.3,0,36.7c-0.4,0-5.1,0-5.3,0L6.8,25z"/>
<path style="fill:#FFFFFF;" d="M74.9,25c0,0,0,26.8,0,27.2c-0.4,0-6.4,0-6.8,0c0-0.4,0-36.3,0-36.7c0.4,0,5.6,0,5.8,0l27.5,26.8
	c0,0,0-26.3,0-26.8c0.4,0,5.5,0,5.5,0s1,0,1.3,0c0,0.4,0,36.3,0,36.7c-0.4,0-5.1,0-5.3,0L74.9,25z"/>
<path style="fill:#FFFFFF;" d="M216.2,25c0,0,0,26.8,0,27.2c-0.4,0-6.4,0-6.8,0c0-0.4,0-36.3,0-36.7c0.4,0,5.6,0,5.8,0l27.5,26.8
	c0,0,0-26.3,0-26.8c0.4,0,5.4,0,5.4,0s1,0,1.3,0c0,0.4,0,36.3,0,36.7c-0.4,0-5.1,0-5.3,0L216.2,25z"/>
<path style="fill:#FFFFFF;" d="M56.2,15.4c0,0,1,0,1.3,0c0,0.4,0,36.3,0,36.7c-0.4,0-6.4,0-6.8,0c0-0.4,0-36.3,0-36.7
	C51.1,15.4,56.2,15.4,56.2,15.4z"/>
<path style="fill:#FFFFFF;" d="M154.5,15.4c0,0,0.9,0,1.2,0c0,0.3,0,6,0,6.3c-0.4,0-16.4,0-16.4,0s0,30,0,30.4c-0.4,0-6.7,0-7.1,0
	c0-0.4,0-30.4,0-30.4s-16,0-16.4,0c0-0.3,0-6,0-6.3C116.3,15.4,154.5,15.4,154.5,15.4z"/>
<path style="fill:#FFFFFF;" d="M198,15.4c0,0,1,0,1.3,0c0,0.3,0,6,0,6.3c-0.4,0-29.1,0-29.1,0V30c0,0,22.2,0,22.5,0
	c0,0.4,0,5.9,0,6.3c-0.4,0-22.5,0-22.5,0v9.6c0,0,28.7,0,29.1,0c0,0.3,0,5.9,0,6.3c-0.4,0-35.5,0-35.9,0c0-0.4,0-36.3,0-36.7
	C163.8,15.4,198,15.4,198,15.4z"/>
<path style="fill:#FFFFFF;" d="M287.2,45.8h-20.9V21.7h20.9c6.5,0,8.9,6.5,8.9,12C296.1,39.3,293.8,45.8,287.2,45.8z M298.4,20.8
	c-2.7-3.6-6.6-5.4-11.3-5.4c0,0-26.8,0-27.2,0c0,0.4,0,36.3,0,36.7c0.4,0,27.2,0,27.2,0c4.8,0,8.7-1.9,11.3-5.4
	c2.5-3.2,3.8-7.7,3.8-13C302.2,28.5,300.9,24.1,298.4,20.8z"/>
<path style="fill:#FFFFFF;" d="M347.9,44.3c0,0.7-0.7,1.5-1.5,1.5h-29.1c-0.8,0-1.5-0.7-1.5-1.5V23.2c0-0.8,0.7-1.5,1.5-1.5h29.1
	c0.8,0,1.5,0.7,1.5,1.5V44.3z M346.6,15.4H317c-4.3,0-7.8,3.5-7.8,7.8v21.1c0,4.3,3.5,7.8,7.8,7.8h29.6c4.3,0,7.8-3.5,7.8-7.8V23.2
	C354.4,18.9,350.9,15.4,346.6,15.4z"/>
<path style="fill:#FFFFFF;" d="M470,77.7c7,2.8,21.9,5.1,33.5,5.1c12.7,0,18-4.3,18-9.8c0-5-4.9-7.8-18.9-13
	c-18.8-6.9-32.5-12.4-32.5-24.8c0-12.7,16.6-20.3,41.8-20.3c13.6,0,18.2,0.8,26.8,2.4l0.1,12.1c-8.5-1.6-16-4.3-27.6-4.3
	c-12.5,0-17.8,4-17.8,8.1c0,5.9,8.2,8.7,22.6,13.9c20,7.1,31.1,12.6,31.1,24.7c0,12.5-13.9,21.4-45.4,21.4
	c-12.9,0-21.8-0.8-31.7-2.5V77.7z"/>
<path style="fill:#FFFFFF;" d="M403.1,25.7h-15v56.7h15c23,0,37.4-9.9,37.4-28.3C440.6,35.8,426.1,25.7,403.1,25.7z M443.3,87.6
	c-7.4,3.3-21.4,5.5-33.6,5.5h-46.7V15.2h46.7c12.2,0,26.2,2.2,33.6,5.5c18,8.1,23.9,21.2,23.9,33.5
	C467.2,66.4,461.3,79.5,443.3,87.6z"/>
<line style="fill:none;" x1="548.8" y1="81.5" x2="548.8" y2="80.4"/>
</svg>
