<?xml version="1.0" encoding="utf-8"?>
<!-- Generator: Adobe Illustrator 24.0.1, SVG Export Plug-In . SVG Version: 6.00 Build 0)  -->
<svg version="1.1"
	 id="Layer_3" xmlns:cc="http://creativecommons.org/ns#" xmlns:dc="http://purl.org/dc/elements/1.1/" xmlns:rdf="http://www.w3.org/1999/02/22-rdf-syntax-ns#"
	 xmlns="http://www.w3.org/2000/svg" xmlns:xlink="http://www.w3.org/1999/xlink" x="0px" y="0px" viewBox="0 0 482.3 350.3"
	 style="enable-background:new 0 0 482.3 350.3;" xml:space="preserve">
<g>
	<path style="fill:#F4F4F4;" d="M396.2,164.1v-140c0-5.5-4.5-10-10-10h-290c-5.5,0-10,4.5-10,10v140h37.5v1H97.8
		c-6.4,0-11.7,5.2-11.7,11.7c0,0.1,0,0.2,0,0.3h0v149c0,5.5,4.5,10,10,10h290c5.5,0,10-4.5,10-10v-149h0c0-0.1,0-0.2,0-0.3
		c0-6.4-5.2-11.7-11.7-11.7h-25.8v-1L396.2,164.1z M97.8,167.1h25.8v19.3l-25.8,0v0c-5.3,0-9.7-4.3-9.7-9.7
		C88.2,171.5,92.5,167.1,97.8,167.1z M125.7,186.5v-19.3h231v19.3L125.7,186.5z M394.2,326.1c0,4.4-3.6,8-8,8h-290c-4.4,0-8-3.6-8-8
		V183.3c2.1,3.1,5.6,5.1,9.7,5.1h286.7c4,0,7.6-2,9.7-5.1V326.1z M384.5,167.1c5.3,0,9.7,4.3,9.7,9.7c0,5.3-4.3,9.7-9.7,9.7l-25.8,0
		v-19.3H384.5z M125.7,165.1v-3H88.2l0-138c0-4.4,3.6-8,8-8h290c4.4,0,8,3.6,8,8v138h-37.5v3H125.7z"/>
	<path style="fill:#F4F4F4;" d="M317,30.5H165.3c-2.8,0-5,2.2-5,5v115.3c0,2.8,2.2,5,5,5v0H317c2.8,0,5-2.2,5-5V35.5
		C322,32.7,319.8,30.5,317,30.5z M320,150.8c0,1.7-1.3,3-3,3H165.3c-1.7,0-3-1.3-3-3V35.5c0-1.7,1.3-3,3-3H317c1.7,0,3,1.3,3,3
		V150.8z"/>
	<path style="fill:#F4F4F4;" d="M311.7,37.5h-141c-1.7,0-3,1.3-3,3l0,105.3c0,1.7,1.3,3,3,3h141c1.7,0,3-1.3,3-3V40.5
		C314.7,38.8,313.3,37.5,311.7,37.5z M312.7,145.8c0,0.6-0.4,1-1,1h-141c-0.6,0-1-0.5-1-1l0-105.3c0-0.6,0.4-1,1-1h141
		c0.6,0,1,0.4,1,1V145.8z"/>
	<path style="fill:#F4F4F4;" d="M318.4,192.5l-154.5,0c-2.2,0-4,1.8-4,4v119.8c0,2.2,1.8,4,4,4l154.5,0c2.2,0,4-1.8,4-4V196.5
		C322.4,194.3,320.6,192.5,318.4,192.5z M320.4,316.3c0,1.1-0.9,2-2,2H163.9c-1.1,0-2-0.9-2-2V196.5c0-1.1,0.9-2,2-2h154.5
		c1.1,0,2,0.9,2,2V316.3L320.4,316.3z"/>
	<path style="fill:#F4F4F4;" d="M312.8,201H169.5c-1.1,0-2,0.9-2,2v106.8c0,1.1,0.9,2,2,2h143.3c1.1,0,2-0.9,2-2V203
		C314.8,201.9,313.9,201,312.8,201z M312.8,203v106.8H169.5V203v0L312.8,203L312.8,203z"/>
	<path style="fill:#F4F4F4;" d="M142.7,234.7h-12.1v-12.1c0-1.1-0.9-2-2-2h-13.2c-1.1,0-2,0.9-2,2v12.1h-12.1c-1.1,0-2,0.9-2,2v13.3
		c0,1.1,0.9,2,2,2h12.1V264c0,1.1,0.9,2,2,2v0h13.2c1.1,0,2-0.9,2-2v-12.1h12.1c1.1,0,2-0.9,2-2v-13.3
		C144.7,235.6,143.8,234.7,142.7,234.7z M142.7,249.9h-12.2c-0.5,0-1.2,0.2-1.5,0.7c-0.3,0.5-0.3,0.9-0.4,1.2V264h-13.2v-12.2
		c0-0.4-0.1-1.1-0.6-1.5c-0.5-0.4-0.9-0.3-1.3-0.3h-12.1v-13.2h12.2c0.5,0,1.1-0.2,1.5-0.6c0.3-0.4,0.4-0.9,0.4-1.3v-12.2h13.2v12.1
		c0,0.5,0.2,1.1,0.6,1.5c0.4,0.4,0.9,0.5,1.3,0.5h12.1V249.9z"/>
	<path style="fill:#F4F4F4;" d="M358.8,228.3c5.2,0,9.5-4.3,9.5-9.5c0-5.2-4.3-9.5-9.5-9.5c-5.2,0-9.5,4.3-9.5,9.5
		C349.3,224,353.6,228.3,358.8,228.3z M358.8,211.3c4.1,0,7.5,3.4,7.5,7.5c0,4.1-3.4,7.5-7.5,7.5c-4.1,0-7.5-3.4-7.5-7.5
		C351.3,214.7,354.7,211.3,358.8,211.3z"/>
	<path style="fill:#F4F4F4;" d="M358.8,244.8c-5.2,0-9.5,4.3-9.5,9.5c0,5.2,4.3,9.5,9.5,9.5c5.2,0,9.5-4.3,9.5-9.5
		C368.3,249,364.1,244.8,358.8,244.8z M358.8,261.8c-4.1,0-7.5-3.4-7.5-7.5c0-4.1,3.4-7.5,7.5-7.5c4.1,0,7.5,3.4,7.5,7.5
		C366.3,258.4,363,261.8,358.8,261.8z"/>
	<path style="fill:#F4F4F4;" d="M341.2,227.1c-5.2,0-9.5,4.3-9.5,9.5c0,5.2,4.3,9.5,9.5,9.5c5.2,0,9.5-4.3,9.5-9.5
		C350.7,231.4,346.4,227.1,341.2,227.1z M341.2,244.1c-4.1,0-7.5-3.4-7.5-7.5c0-4.1,3.4-7.5,7.5-7.5c4.1,0,7.5,3.4,7.5,7.5
		C348.7,240.8,345.3,244.1,341.2,244.1z"/>
	<path style="fill:#F4F4F4;" d="M377,227.1c-5.2,0-9.5,4.3-9.5,9.5c0,5.2,4.3,9.5,9.5,9.5c5.2,0,9.5-4.3,9.5-9.5
		C386.5,231.4,382.3,227.1,377,227.1z M377,244.1c-4.1,0-7.5-3.4-7.5-7.5c0-4.1,3.4-7.5,7.5-7.5c4.1,0,7.5,3.4,7.5,7.5
		C384.5,240.8,381.2,244.1,377,244.1z"/>
	<path style="fill:#F4F4F4;" d="M337.3,288.8c-2.9,0-5.3,2.4-5.3,5.3c0,2.9,2.4,5.3,5.3,5.3c2.9,0,5.3-2.4,5.3-5.3
		C342.7,291.2,340.3,288.8,337.3,288.8z M337.3,297.5c-1.8,0-3.3-1.5-3.3-3.3c0-1.8,1.5-3.3,3.3-3.3c1.8,0,3.3,1.5,3.3,3.3
		C340.7,296,339.2,297.5,337.3,297.5z"/>
	<path style="fill:#F4F4F4;" d="M337.3,306.5c-2.9,0-5.3,2.4-5.3,5.3c0,2.9,2.4,5.3,5.3,5.3c2.9,0,5.3-2.4,5.3-5.3
		C342.7,308.9,340.3,306.5,337.3,306.5z M337.3,315.1c-1.8,0-3.3-1.5-3.3-3.3c0-1.8,1.5-3.3,3.3-3.3c1.8,0,3.3,1.5,3.3,3.3
		C340.7,313.6,339.2,315.1,337.3,315.1z"/>
	<path style="fill:#F4F4F4;" d="M132,150.4h-5.3c-1.7,0-3,1.3-3,3v5.3c0,1.7,1.3,3,3,3h5.3c1.7,0,3-1.3,3-3v-5.3
		C135,151.7,133.6,150.4,132,150.4z M133,158.6c0,0.5-0.5,1-1,1h-5.3c-0.6,0-1-0.4-1-1v-5.3c0-0.6,0.4-1,1-1h5.3c0.5,0,1,0.4,1,1
		V158.6z"/>
	<path style="fill:#F4F4F4;" d="M358.6,158.6v-5.3c0-1.7-1.3-3-3-3h-5.3c-1.7,0-3,1.3-3,3v5.3c0,1.7,1.3,3,3,3h5.3
		C357.3,161.6,358.6,160.3,358.6,158.6z M356.6,158.6c0,0.6-0.5,1-1,1h-5.3c-0.6,0-1-0.4-1-1v-5.3c0-0.6,0.4-1,1-1h5.3
		c0.5,0,1,0.5,1,1V158.6z"/>
	<path style="fill:#F4F4F4;" d="M126.7,37.6h5.3c1.7,0,3-1.3,3-3v-5.3c0-1.7-1.3-3-3-3h-5.3c-1.7,0-3,1.3-3,3v5.3
		C123.7,36.3,125.1,37.6,126.7,37.6z M125.7,29.4c0-0.5,0.4-1,1-1h5.3c0.6,0,1,0.5,1,1v5.3c0,0.5-0.4,1-1,1h-5.3c-0.6,0-1-0.4-1-1
		V29.4z"/>
	<path style="fill:#F4F4F4;" d="M350.4,37.6h5.3c1.7,0,3-1.3,3-3v-5.3c0-1.7-1.3-3-3-3h-5.3c-1.7,0-3,1.3-3,3v5.3
		C347.4,36.3,348.7,37.6,350.4,37.6z M349.4,29.4c0-0.6,0.4-1,1-1h5.3c0.5,0,1,0.5,1,1v5.3c0,0.6-0.5,1-1,1h-5.3c-0.6,0-1-0.4-1-1
		V29.4z"/>
	<path style="fill:#F4F4F4;" d="M374.5,183.8h0.3c0.6,0,1-0.4,1-1v-12c0-0.6-0.4-1-1-1h-0.3c-0.6,0-1,0.4-1,1v12
		C373.5,183.4,374,183.8,374.5,183.8z"/>
	<path style="fill:#F4F4F4;" d="M379.8,183.8h0.3c0.6,0,1-0.4,1-1v-12c0-0.6-0.4-1-1-1h-0.3c-0.6,0-1,0.4-1,1v12
		C378.8,183.4,379.3,183.8,379.8,183.8z"/>
	<path style="fill:#F4F4F4;" d="M241.4,171.6c-0.8,0-1.5,0.7-1.5,1.5v5.3c0,0.8,0.7,1.5,1.5,1.5s1.5-0.7,1.5-1.5v-5.3
		C242.9,172.3,242.3,171.6,241.4,171.6z"/>
	<path style="fill:#F4F4F4;" d="M347.1,91.5c0.9,0,1.6-0.7,1.6-1.6s-0.7-1.6-1.6-1.6s-1.6,0.7-1.6,1.6S346.3,91.5,347.1,91.5z"/>
	<path style="fill:#F4F4F4;" d="M357.2,89.9c0,0.9,0.7,1.6,1.6,1.6s1.6-0.7,1.6-1.6s-0.7-1.6-1.6-1.6S357.2,89.1,357.2,89.9z"/>
	<path style="fill:#F4F4F4;" d="M370.4,91.5c0.9,0,1.6-0.7,1.6-1.6s-0.7-1.6-1.6-1.6s-1.6,0.7-1.6,1.6S369.5,91.5,370.4,91.5z"/>
	<path style="fill:#F4F4F4;" d="M348.7,101.3c0-0.9-0.7-1.6-1.6-1.6s-1.6,0.7-1.6,1.6s0.7,1.6,1.6,1.6S348.7,102.2,348.7,101.3z"/>
	<path style="fill:#F4F4F4;" d="M358.8,99.8c-0.9,0-1.6,0.7-1.6,1.6s0.7,1.6,1.6,1.6s1.6-0.7,1.6-1.6S359.6,99.8,358.8,99.8z"/>
	<path style="fill:#F4F4F4;" d="M370.4,102.9c0.9,0,1.6-0.7,1.6-1.6s-0.7-1.6-1.6-1.6s-1.6,0.7-1.6,1.6S369.5,102.9,370.4,102.9z"/>
	<path style="fill:#F4F4F4;" d="M112,88.4c-0.9,0-1.6,0.7-1.6,1.6s0.7,1.6,1.6,1.6s1.6-0.7,1.6-1.6S112.8,88.4,112,88.4z"/>
	<path style="fill:#F4F4F4;" d="M123.6,91.5c0.9,0,1.6-0.7,1.6-1.6s-0.7-1.6-1.6-1.6s-1.6,0.7-1.6,1.6S122.7,91.5,123.6,91.5z"/>
	<path style="fill:#F4F4F4;" d="M135.2,88.4c-0.9,0-1.6,0.7-1.6,1.6s0.7,1.6,1.6,1.6s1.6-0.7,1.6-1.6S136.1,88.4,135.2,88.4z"/>
	<path style="fill:#F4F4F4;" d="M112,99.8c-0.9,0-1.6,0.7-1.6,1.6s0.7,1.6,1.6,1.6s1.6-0.7,1.6-1.6S112.8,99.8,112,99.8z"/>
	<path style="fill:#F4F4F4;" d="M125.1,101.3c0-0.9-0.7-1.6-1.6-1.6s-1.6,0.7-1.6,1.6s0.7,1.6,1.6,1.6S125.1,102.2,125.1,101.3z"/>
	<path style="fill:#F4F4F4;" d="M135.2,99.8c-0.9,0-1.6,0.7-1.6,1.6s0.7,1.6,1.6,1.6s1.6-0.7,1.6-1.6S136.1,99.8,135.2,99.8z"/>
</g>
</svg>
