<?xml version="1.0" encoding="utf-8"?>
<!-- Generator: Adobe Illustrator 24.0.1, SVG Export Plug-In . SVG Version: 6.00 Build 0)  -->
<svg version="1.1"
	 id="Layer_1" inkscape:version="0.91 r13725" sodipodi:docname="neogeocd.svg" xmlns:cc="http://creativecommons.org/ns#" xmlns:dc="http://purl.org/dc/elements/1.1/" xmlns:inkscape="http://www.inkscape.org/namespaces/inkscape" xmlns:rdf="http://www.w3.org/1999/02/22-rdf-syntax-ns#" xmlns:sodipodi="http://sodipodi.sourceforge.net/DTD/sodipodi-0.dtd" xmlns:svg="http://www.w3.org/2000/svg"
	 xmlns="http://www.w3.org/2000/svg" xmlns:xlink="http://www.w3.org/1999/xlink" x="0px" y="0px" viewBox="0 0 566.9 112"
	 style="enable-background:new 0 0 566.9 112;" xml:space="preserve">
<sodipodi:namedview  bordercolor="#666666" borderopacity="1" gridtolerance="10" guidetolerance="10" id="namedview7" inkscape:current-layer="Layer_1" inkscape:cx="319.99161" inkscape:cy="54.107138" inkscape:pageopacity="0" inkscape:pageshadow="2" inkscape:window-height="480" inkscape:window-width="640" inkscape:zoom="1.3245881" objecttolerance="10" pagecolor="#ffffff" showgrid="false">
	</sodipodi:namedview>
<g id="g3">
	<path id="path5" style="fill:#FFFFFF;" d="M215.9,45c-2.7,0-4.9,0.9-6.8,2.8c-1.9,1.9-2.8,4.1-2.8,6.8c0,2.6,0.9,4.9,2.8,6.7
		c1.9,1.9,4.1,2.8,6.8,2.8c2.6,0,4.9-0.9,6.7-2.8c1.9-1.9,2.8-4.1,2.8-6.7c0-2.7-0.9-4.9-2.8-6.8C220.8,46,218.6,45,215.9,45z
		 M398.4,21.7c-9.9-0.4-18.2,2.7-25,9.3c-6.8,6.6-10.1,14.9-10.1,24.8c0,8.8,2.6,16.5,7.8,22.9C377.7,86.9,387,91,399.1,91
		c12,0,21.3-4.3,27.9-12.8c5-6.4,7.5-13.9,7.5-22.4c0-9.9-3.3-18.2-10-24.8C417.7,24.4,409.1,21.3,398.4,21.7z M414.1,74.8
		c-1.6,4.6-3.9,8-6.8,10.1c-2.3,1.6-5.1,2.5-8.5,2.5c-5,0-8.9-1.9-11.7-5.7c-4-5.5-6-13.9-6-25.3c0-9.6,1.3-17,3.9-22.1
		c3.2-6.2,7.8-9.4,14-9.4c3.3,0,6.2,0.9,8.8,2.7c2.5,1.8,4.6,4.9,6.3,9.3c1.6,4.4,2.5,11,2.5,19.9C416.6,64.1,415.7,70.1,414.1,74.8
		z M302.4,61.5h-32.5v1.7h1.7c1.6,0,3,0.3,4.1,0.9c1.1,0.6,1.9,1.3,2.2,2.1c0.4,0.8,0.5,2.5,0.5,5.2v13.9c-1.8,0.7-3.5,1.2-5.2,1.5
		c-1.7,0.3-3.3,0.5-4.9,0.5c-4.6,0-8.6-1.1-12-3.4c-3.4-2.3-5.8-5.8-7.3-10.7c-1.5-4.8-2.3-10.5-2.3-16.9c0-5.3,0.7-10.5,2.1-15.5
		c1.4-5,3.7-9,7.1-11.8c3.3-2.8,7.5-4.2,12.5-4.2c5.2,0,10.1,1.7,14.5,5c4.4,3.4,7.7,8.3,9.9,14.7h1.7V21.1h-1.7
		c-0.7,1.9-1.4,3.2-2.2,3.9c-0.8,0.7-1.6,1-2.6,1c-0.6,0-2.5-0.6-5.8-1.9c-3.2-1.2-5.6-2-7-2.3c-2.7-0.5-5.7-0.8-9-0.8
		c-10.7,0-19.7,3.5-26.7,10.4c-7.1,6.9-10.6,15.4-10.6,25.5c0,5.6,1.2,10.7,3.5,15.2c1.8,3.5,4.3,6.7,7.5,9.5
		c3.2,2.8,6.9,5.1,11.1,6.8c4.2,1.7,9.5,2.6,15.8,2.6c5,0,9.8-0.5,14.4-1.4c4.6-1,9.1-2.4,13.4-4.3V71.4c0-2.5,0.1-4,0.4-4.6
		c0.5-1.2,1.3-2,2.2-2.6c1-0.5,2.7-0.9,5.1-1V61.5z M166.6,21.7c-9.9-0.4-18.2,2.7-25,9.3c-6.8,6.6-10.1,14.9-10.1,24.8
		c0,8.8,2.6,16.5,7.8,22.9c6.6,8.2,15.9,12.2,27.9,12.2c12,0,21.3-4.3,27.9-12.8c5-6.4,7.5-13.9,7.5-22.4c0-9.9-3.3-18.2-10-24.8
		C185.9,24.4,177.2,21.3,166.6,21.7z M182.3,74.8c-1.6,4.6-3.9,8-6.8,10.1c-2.3,1.6-5.1,2.5-8.5,2.5c-5,0-8.9-1.9-11.7-5.7
		c-4-5.5-6-13.9-6-25.3c0-9.6,1.3-17,3.9-22.1c3.2-6.2,7.8-9.4,13.9-9.4c3.3,0,6.3,0.9,8.8,2.7c2.5,1.8,4.6,4.9,6.3,9.3
		c1.6,4.4,2.5,11,2.5,19.9C184.7,64.1,183.9,70.1,182.3,74.8z M350.6,81.5c-3.8,2.9-8.8,4.3-15,4.3h-4c-1.9,0-3.3-0.3-4.1-0.8
		c-0.9-0.5-1.4-1.2-1.8-2c-0.3-0.8-0.5-3.1-0.5-6.8V57.4c3.2,0,5.6,0.4,7.3,1.3c1.7,0.8,3.2,2.5,4.4,4.9c1.3,2.4,2.1,5.6,2.5,9.4
		h1.9V37.9h-1.9c-0.5,5.2-1.7,9.1-3.7,11.8c-1.9,2.7-5,4-9.2,4h-1.3V26.5h6.9c5.1,0,8.5,0.3,10.4,0.9c3.2,1,5.6,2.5,7.3,4.6
		c1.7,2.1,3.1,5.6,4,10.4h1.9V22.6h-56v1.7h2.2c2.2,0,3.9,0.5,5.1,1.4c0.9,0.6,1.5,1.5,1.8,2.7c0.2,0.7,0.2,2.6,0.2,5.6v44.1
		c0,3.4-0.2,5.5-0.5,6.3c-0.5,1.1-1.1,1.9-2,2.4c-1.2,0.7-2.7,1-4.7,1h-2.2v1.7h57.8l3-21.3h-1.8C357.1,74.2,354.4,78.7,350.6,81.5z
		 M118.8,81.5c-3.8,2.9-8.8,4.3-15,4.3h-4c-1.9,0-3.3-0.3-4.1-0.8c-0.9-0.5-1.4-1.2-1.8-2c-0.3-0.8-0.5-3.1-0.5-6.8V57.4
		c3.2,0,5.6,0.4,7.3,1.3c1.7,0.8,3.2,2.5,4.4,4.9c1.3,2.4,2.1,5.6,2.5,9.4h1.9V37.9h-1.9c-0.5,5.2-1.7,9.1-3.7,11.8
		c-1.9,2.7-5,4-9.2,4h-1.3V26.5h6.9c5.1,0,8.5,0.3,10.4,0.9c3.2,1,5.6,2.5,7.3,4.6c1.7,2.1,3.1,5.6,4,10.4h1.9V22.6h-77v1.7
		c3.7-0.1,6.4,0.9,8,2.8c1.2,1.4,1.7,4.2,1.7,8.2V64L23.7,22.6H0v1.7c2,0.1,3.6,0.4,4.7,1c1.1,0.6,2.3,1.8,3.8,3.6l1.4,1.8v47.3
		c0,3.6-0.7,6.2-2.2,7.7c-1.4,1.5-4,2.3-7.7,2.3v1.7h23.8v-1.7h-1.6c-2.3,0-4.3-0.7-6-2c-1.8-1.4-2.6-4-2.6-7.9V35.3l45.1,55.8h1.7
		V35.3c0-3.2,0.3-5.4,0.8-6.7c0.5-1.3,1.3-2.3,2.3-2.8c1-0.6,2.9-1.1,5.7-1.4h1.1c2.2,0,3.9,0.5,5.1,1.4c0.9,0.6,1.5,1.5,1.8,2.7
		c0.2,0.7,0.2,2.6,0.2,5.6v44.1c0,3.4-0.2,5.5-0.5,6.3c-0.5,1.1-1.1,1.9-2,2.4c-1.2,0.7-2.7,1-4.7,1h-2.2v1.7h57.8l3-21.3h-1.8
		C125.3,74.2,122.5,78.7,118.8,81.5z M536.7,28c-2.2-0.9-5.8-1.4-10.8-1.4V76c0,2.5,0.1,4.1,0.4,4.7c0.2,0.6,0.6,1,1.2,1.3
		c0.8,0.5,2,0.7,3.5,0.7c5,0,8.9-1.7,11.5-5.2c3.6-4.7,5.4-12.5,5.4-22.3c0-7.9-1.2-14.2-3.7-18.9C542.2,32.6,539.7,29.3,536.7,28z
		 M540.4,75.8c-2.1,2.8-5.2,4.1-9.4,4.1c-1.5,0-2.1-0.3-2.2-0.3c0,0,0,0,0,0c0-0.3-0.2-1.2-0.2-3.6V29.3c4,0.1,6,0.7,7,1.1
		c2.5,1.1,4.6,4,6.2,7.1c2.2,4.3,3.4,10.2,3.4,17.6C545.2,64.3,543.6,71.7,540.4,75.8z M562.3,36.8c-3.1-5.4-7.7-10.4-13.6-13
		c-4.8-2.1-11.1-3.2-18.8-3.2l-27.7,0h-6.7l-0.3,2.3c-0.2,1.3-0.5,1.7-0.6,1.8c-0.2,0.2-0.4,0.3-0.6,0.3c-0.2,0-1.1-0.2-4.3-1.4
		c-5.1-2-10-3-14.6-3c-6.3,0-12.3,1.6-17.9,4.7c-5.6,3.1-10.1,7.6-13.4,13.2c-3.3,5.6-5,11.7-5,18c0,6,1.5,11.7,4.5,17
		c3,5.4,7.3,9.5,12.9,12.4c5.4,2.8,11.7,4.2,18.7,4.2c5.3,0,10.1-0.9,14.1-2.6c4-1.8,7.9-4.6,11.6-8.4l0.7-0.8V64.7l-4.7,5.5
		c-3.3,3.9-6.5,6.6-9.4,8.1c-2.8,1.5-5.9,2.2-9.3,2.2c-4.1,0-7.4-1-9.8-2.9c-2.5-2-4.4-4.9-5.6-8.9c-1.3-4.2-2-9-2-14.2
		c0-5.2,0.9-10,2.6-14.2c1.3-3.1,3.3-5.5,6-7.5c2.8-1.9,5.7-2.8,9-2.8c4,0,7.4,1.3,10.6,3.8c3.1,2.6,5.3,6.4,6.5,11.3l0.5,2.1h6.5
		V27.5h2.2c1.5,0,2.3,0.3,2.7,0.5c0.7,0.4,0.9,0.7,0.9,0.8c0,0.2,0.3,2.6,0.3,6.4v40.4c0,3.4-0.2,4.4-0.2,4.7c-0.2,0.4-0.5,0.7-1,1
		c-0.3,0.2-1,0.5-2.7,0.5h-4.7v6.9h30.1c4.2,0,7.2-0.2,9.2-0.6c4.4-0.8,8.2-2,11.2-3.6c3.2-1.6,6-3.7,8.4-6.3
		c2.4-2.6,4.4-5.9,5.9-9.9c1.5-3.9,2.3-8.9,2.3-13.5C566.9,48.2,565.4,42.1,562.3,36.8z M499.6,44.5h-1.7c-1.3-5.6-3.8-9.8-7.4-12.8
		c-3.6-3-7.7-4.4-12.3-4.4c-3.8,0-7.3,1.1-10.5,3.3c-3.2,2.2-5.5,5.1-7,8.6c-1.9,4.6-2.8,9.6-2.8,15.2c0,5.5,0.7,10.5,2.1,15
		c1.4,4.5,3.6,7.9,6.5,10.2c2.9,2.3,6.8,3.5,11.5,3.5c3.9,0,7.4-0.8,10.6-2.5c3.2-1.7,6.6-4.6,10.1-8.7v5.3c-3.4,3.6-7,6.2-10.7,7.8
		c-3.7,1.6-8.1,2.4-13.1,2.4c-6.5,0-12.4-1.3-17.4-3.9c-5.1-2.6-9-6.4-11.8-11.3c-2.8-4.9-4.1-10.1-4.1-15.7
		c0-5.9,1.5-11.4,4.6-16.7c3.1-5.2,7.2-9.3,12.4-12.2c5.2-2.9,10.7-4.3,16.6-4.3c4.3,0,8.9,0.9,13.7,2.8c2.8,1.1,4.5,1.6,5.3,1.6
		c1,0,1.8-0.4,2.5-1.1c0.7-0.7,1.2-1.8,1.4-3.4h1.7L499.6,44.5L499.6,44.5z M562.2,67.4c-1.4,3.6-3.2,6.6-5.4,9
		c-2.2,2.4-4.7,4.3-7.6,5.7c-2.9,1.4-6.4,2.5-10.6,3.3c-1.8,0.4-4.7,0.5-8.7,0.5h-27.4v-1.6h2c1.8,0,3.1-0.3,4.1-0.8
		c0.9-0.6,1.6-1.3,2.1-2.3c0.3-0.6,0.4-2.6,0.4-5.8V35.1c0-3.2-0.2-6.6-0.5-7.4c-0.3-0.8-1-1.5-2-2.1c-1-0.6-2.4-0.9-4.1-0.9h-2
		v-1.6h27.4c7.3,0,13.2,1,17.7,3c5.5,2.4,9.6,7,12.4,11.9c2.8,5,4.2,10.6,4.2,16.8C564.3,59.2,563.6,63.8,562.2,67.4z"/>
</g>
</svg>
