<?xml version="1.0" encoding="utf-8"?>
<!-- Generator: Adobe Illustrator 24.0.1, SVG Export Plug-In . SVG Version: 6.00 Build 0)  -->
<svg version="1.1"
	 id="Layer_3" xmlns:cc="http://creativecommons.org/ns#" xmlns:dc="http://purl.org/dc/elements/1.1/" xmlns:rdf="http://www.w3.org/1999/02/22-rdf-syntax-ns#"
	 xmlns="http://www.w3.org/2000/svg" xmlns:xlink="http://www.w3.org/1999/xlink" x="0px" y="0px" viewBox="0 0 598.2 350.3"
	 style="enable-background:new 0 0 598.2 350.3;" xml:space="preserve">
<g>
	<path style="fill:#F4F4F4;" d="M434.1,40.8c-4.3,0.2-8.5,1.3-12.4,3.3c-28.6,14-53.1,31.5-73,52c-19.2,19.7-34.8,42.8-46.3,68.8
		c-7.2,16.3,0.1,35.4,16.4,42.6c4.2,1.9,8.6,2.8,13.1,2.8c0,0,0,0,0,0c12.8,0,24.3-7.5,29.5-19.2c8.5-19.2,19.5-35.5,33.5-49.9
		c15-15.4,33.1-28.2,55.3-39.1c16-7.9,22.6-27.3,14.7-43.2C459.2,47.1,447.1,40.1,434.1,40.8z M320.3,204.2
		c-14.4-6.4-21-23.4-14.6-37.8c11.3-25.6,26.6-48.3,45.6-67.7c19.6-20.2,43.9-37.4,72-51.2c3.5-1.7,7.2-2.7,11-2.9
		c11.5-0.7,22.3,5.6,27.4,16c7,14.2,1.1,31.4-13.1,38.4c-22.6,11.1-41,24.2-56.3,39.8c-14.3,14.7-25.5,31.4-34.2,51
		c-4.6,10.4-14.9,17-26.2,17c0,0,0,0,0,0C327.9,206.6,324,205.8,320.3,204.2z"/>
	<path style="fill:#F4F4F4;" d="M355,177.9c0-6-2.3-11.7-6.6-15.9s-9.9-6.6-15.9-6.6c-12.4,0-22.6,10.1-22.6,22.5
		c0,12.4,10.1,22.6,22.6,22.6C344.9,200.5,355,190.4,355,177.9z M332.4,196.9c-10.4,0-18.9-8.5-18.9-18.9c0-10.4,8.5-18.9,18.9-18.9
		c10.4,0,18.9,8.5,18.9,18.9C351.3,188.4,342.9,196.9,332.4,196.9z"/>
	<path style="fill:#F4F4F4;" d="M360.2,156.6c12.4,0,22.5-10.1,22.5-22.5c0-12.4-10.1-22.6-22.5-22.6c-12.4,0-22.6,10.1-22.6,22.6
		C337.6,146.5,347.7,156.6,360.2,156.6z M360.2,115.1c10.4,0,18.9,8.5,18.9,18.9c0,10.4-8.5,18.9-18.9,18.9
		c-10.4,0-18.9-8.5-18.9-18.9C341.3,123.6,349.7,115.1,360.2,115.1z"/>
	<path style="fill:#F4F4F4;" d="M395.3,120.1c12.4,0,22.5-10.1,22.5-22.6c0-12.4-10.1-22.6-22.5-22.6c-12.4,0-22.6,10.1-22.6,22.6
		C372.8,109.9,382.9,120.1,395.3,120.1z M395.3,116.4c-10.4,0-18.9-8.5-18.9-18.9c0-10.4,8.5-18.9,18.9-18.9
		c10.4,0,18.9,8.5,18.9,18.9C414.2,107.9,405.7,116.4,395.3,116.4z"/>
	<path style="fill:#F4F4F4;" d="M437.3,94.8c12.4,0,22.6-10.1,22.6-22.5c0-12.4-10.1-22.6-22.6-22.6c-12.4,0-22.5,10.1-22.5,22.6
		C414.8,84.7,424.9,94.8,437.3,94.8z M437.3,53.3c10.4,0,18.9,8.5,18.9,18.9c0,10.4-8.5,18.9-18.9,18.9c-10.4,0-18.9-8.5-18.9-18.9
		C418.4,61.8,426.9,53.3,437.3,53.3z"/>
	<path style="fill:#F4F4F4;" d="M188.7,63.6c-36.5,0-66.2,29.7-66.2,66.2c0,36.5,29.7,66.2,66.2,66.2c36.5,0,66.2-29.7,66.2-66.2
		C254.9,93.3,225.2,63.6,188.7,63.6z M188.7,67.2c34.5,0,62.5,28.1,62.5,62.6c0,34.5-28.1,62.5-62.5,62.5
		c-34.5,0-62.6-28.1-62.6-62.5C126.1,95.3,154.2,67.2,188.7,67.2z"/>
	<path style="fill:#F4F4F4;" d="M188.7,162.6c18.1,0,32.8-14.7,32.8-32.8c0-18.1-14.7-32.9-32.8-32.9c-18.1,0-32.9,14.7-32.9,32.9
		C155.8,147.9,170.6,162.6,188.7,162.6z M188.7,100.6c16.1,0,29.2,13.1,29.2,29.2c0,16.1-13.1,29.2-29.2,29.2
		c-16.1,0-29.2-13.1-29.2-29.2C159.5,113.7,172.6,100.6,188.7,100.6z"/>
	<path style="fill:#F4F4F4;" d="M278.4,40l-18.7-2.5c-2.2-0.3-4.5,0.3-6.3,1.7c-1.8,1.4-3,3.4-3.3,5.6s0.3,4.5,1.7,6.3
		c1.4,1.8,3.4,3,5.6,3.3l18.7,2.5c0.4,0.1,0.8,0.1,1.1,0.1c4.2,0,7.8-3.1,8.4-7.4c0.3-2.2-0.3-4.5-1.7-6.3
		C282.6,41.5,280.6,40.3,278.4,40z M276.6,53.2l-18.7-2.5c-1.3-0.2-2.4-0.8-3.2-1.9c-0.8-1-1.1-2.3-0.9-3.6c0.2-1.3,0.8-2.4,1.9-3.2
		c0.8-0.6,1.9-1,2.9-1c0.2,0,0.4,0,0.7,0l18.7,2.5c2.6,0.4,4.5,2.8,4.1,5.4C281.7,51.7,279.3,53.6,276.6,53.2z"/>
	<path style="fill:#F4F4F4;" d="M317.8,55.2c1.5,1.1,3.3,1.8,5.1,1.8c0.4,0,0.8,0,1.1-0.1l18.7-2.5c4.6-0.6,7.9-4.9,7.3-9.5
		c-0.3-2.2-1.5-4.2-3.3-5.6c-1.8-1.4-4-2-6.3-1.7L321.8,40c-4.6,0.6-7.9,4.9-7.3,9.5C314.8,51.8,316,53.8,317.8,55.2z M344.6,42.1
		c1,0.8,1.7,1.9,1.9,3.2c0.2,1.3-0.2,2.6-0.9,3.6c-0.8,1-1.9,1.7-3.2,1.9l-18.8,2.5c-1.3,0.2-2.6-0.2-3.6-0.9
		c-1-0.8-1.7-1.9-1.9-3.2c-0.2-1.3,0.2-2.6,1-3.6s1.9-1.7,3.2-1.9l18.7-2.5h0c0.2,0,0.4,0,0.7,0C342.7,41.1,343.7,41.4,344.6,42.1z"
		/>
	<path style="fill:#F4F4F4;" d="M538.5,11.8h-14.1l0-0.1l-0.9,0.1L73,11.8l-1-0.1l0,0.1H57.9c-4.2,0-7.6,3.4-7.6,7.6v315.5
		c0,4.2,3.4,7.6,7.6,7.6h480.6c4.2,0,7.6-3.4,7.6-7.6V19.4C546.1,15.2,542.7,11.8,538.5,11.8z M538.5,338.8H57.9
		c-2.2,0-3.9-1.8-3.9-3.9V19.4c0-2.2,1.8-3.9,3.9-3.9h14.9c0.9,0.1,43.8,2.6,89.9,5.2c62.3,3.4,100.4,5.2,113.2,5.2h44.5
		c13.4,0,51.6-1.7,113.7-5.2c46-2.5,88.6-5.1,89.4-5.2h14.9c2.2,0,3.9,1.8,3.9,3.9v315.5C542.4,337.1,540.7,338.8,538.5,338.8z
		 M433.9,17c-42.7,2.3-97,5.2-113.5,5.2h-44.5c-15.9,0-70.3-2.8-113-5.2c-9.3-0.5-18.4-1-27.2-1.5H461
		C452.3,15.9,443.2,16.5,433.9,17z"/>
</g>
</svg>
