<?xml version="1.0" encoding="utf-8"?>
<!-- Generator: Adobe Illustrator 24.0.1, SVG Export Plug-In . SVG Version: 6.00 Build 0)  -->
<svg version="1.1"
	 id="Layer_3" xmlns:cc="http://creativecommons.org/ns#" xmlns:dc="http://purl.org/dc/elements/1.1/" xmlns:rdf="http://www.w3.org/1999/02/22-rdf-syntax-ns#"
	 xmlns="http://www.w3.org/2000/svg" xmlns:xlink="http://www.w3.org/1999/xlink" x="0px" y="0px" viewBox="0 0 598.2 350.3"
	 style="enable-background:new 0 0 598.2 350.3;" xml:space="preserve">
<g>
	<path style="fill:#F4F4F4;" d="M578.6,42.5H19.4c-4.8,0-8.8,3.9-8.8,8.8v234.2c0,4.8,3.9,8.8,8.8,8.8h559.2c4.8,0,8.8-3.9,8.8-8.8
		V51.2C587.4,46.4,583.4,42.5,578.6,42.5z M578.6,290.3H19.4c-2.7,0-4.9-2.2-4.9-4.9V51.2c0-2.7,2.2-4.9,4.9-4.9c0,0,0,0,0,0h140.2
		V55h26v-8.6h393c2.7,0,4.9,2.2,4.9,4.9v234.2C583.5,288.2,581.3,290.3,578.6,290.3z M181.7,51.1h-18.2v-4.7h18.2V51.1z"/>
	<path style="fill:#F4F4F4;" d="M564,83.4H33.5c-3.2,0-5.8,2.6-5.8,5.9v181c0,3.2,2.6,5.9,5.8,5.9H564c3.2,0,5.8-2.6,5.8-5.9v-181
		C569.8,86.1,567.2,83.4,564,83.4z M199.6,266.9c0-3.2,2.6-5.9,5.9-5.9h144c3.2,0,5.9,2.6,5.9,5.9v5.4H199.6V266.9z M349.4,257.2
		h-144c-5.4,0-9.8,4.4-9.8,9.8v5.4H33.5c-1.1,0-1.9-0.9-1.9-2v-181c0-1.1,0.9-2,1.9-2h162.2V103c0,5.4,4.4,9.8,9.8,9.8h144
		c5.4,0,9.8-4.4,9.8-9.8V87.3H564c1.1,0,1.9,0.9,1.9,2v181c0,1.1-0.9,2-1.9,2H359.1v-5.4C359.1,261.5,354.8,257.2,349.4,257.2z
		 M355.3,103c0,3.2-2.6,5.9-5.9,5.9h-144c-3.2,0-5.9-2.6-5.9-5.9V87.3h155.7V103z"/>
	<path style="fill:#F4F4F4;" d="M346.5,188.9l-138.1,0c-6.5,0-11.7,5.2-11.7,11.7v37.6c0,6.5,5.2,11.7,11.7,11.7h138.1
		c5.7,0,10.4-4.1,11.4-9.8h0.3v-39.5C358.2,194.1,352.9,188.9,346.5,188.9z M346.5,246H208.4c-4.3,0-7.8-3.5-7.8-7.8v-37.6
		c0-4.3,3.5-7.8,7.8-7.8h138.1c4.3,0,7.8,3.5,7.8,7.8v37.6C354.3,242.4,350.8,246,346.5,246z"/>
	<path style="fill:#F4F4F4;" d="M347.7,195.2l-140.5,0c-3,0-5.4,2.4-5.4,5.4v37.6c0,3,2.4,5.4,5.4,5.4h140.5c3,0,5.4-2.4,5.4-5.4
		v-37.6C353,197.6,350.6,195.2,347.7,195.2z M205.7,200.6c0-0.8,0.6-1.5,1.5-1.5h140.5c0.8,0,1.5,0.6,1.5,1.5v37.6
		c0,0.8-0.6,1.5-1.5,1.5H207.2c-0.8,0-1.5-0.6-1.5-1.5V200.6z"/>
	<path style="fill:#F4F4F4;" d="M359.1,163c0-5.4-4.4-9.8-9.8-9.8h-144c-5.4,0-9.8,4.4-9.8,9.8v11.7c0,5.4,4.4,9.7,9.8,9.7h144
		c5.4,0,9.8-4.4,9.8-9.7V163z M205.4,157.1h144c3.2,0,5.9,2.6,5.9,5.9v11.7c0,3.2-2.6,5.8-5.9,5.8h-144c-3.2,0-5.9-2.6-5.9-5.8V163
		C199.6,159.7,202.2,157.1,205.4,157.1z"/>
	<path style="fill:#F4F4F4;" d="M205.4,149.8h144c5.4,0,9.8-4.4,9.8-9.8v-11.7c0-5.4-4.4-9.8-9.8-9.8l-144,0c-5.4,0-9.8,4.4-9.8,9.8
		v11.7C195.7,145.4,200.1,149.8,205.4,149.8z M205.4,122.5h144c3.2,0,5.9,2.6,5.9,5.9v11.7c0,3.2-2.6,5.9-5.9,5.9h-144
		c-3.2,0-5.9-2.6-5.9-5.9v-11.7C199.6,125.1,202.2,122.5,205.4,122.5z"/>
	<path style="fill:#F4F4F4;" d="M388.1,252.3h53.2c3.5,0,6.3-2.8,6.3-6.3v-53.2c0-3.5-2.8-6.3-6.3-6.3h-53.2c-3.5,0-6.3,2.8-6.3,6.3
		v53.2C381.7,249.4,384.6,252.3,388.1,252.3z M443.7,245.9c0,1.4-1.1,2.4-2.4,2.4h-53.2c-1.4,0-2.4-1.1-2.4-2.4v-53.2
		c0-0.7,0.3-1.3,0.7-1.7s1.1-0.7,1.7-0.7h53.2c1.4,0,2.4,1.1,2.4,2.4V245.9z"/>
	<path style="fill:#F4F4F4;" d="M414.6,192.3c-14.9,0-27,12.1-27,27.1s12.1,27.1,27,27.1c14.9,0,27.1-12.1,27.1-27.1
		S429.6,192.3,414.6,192.3z M414.6,196.2c12.8,0,23.2,10.4,23.2,23.2s-10.4,23.2-23.2,23.2c-12.8,0-23.2-10.4-23.2-23.2
		S401.9,196.2,414.6,196.2z"/>
	<path style="fill:#F4F4F4;" d="M462.2,252.3h53.2c3.5,0,6.3-2.8,6.3-6.3v-53.2c0-3.5-2.8-6.3-6.3-6.3h-53.2c-3.5,0-6.3,2.8-6.3,6.3
		v53.2C455.9,249.4,458.7,252.3,462.2,252.3z M517.9,245.9c0,1.4-1.1,2.4-2.4,2.4h-53.2c-1.4,0-2.4-1.1-2.4-2.4v-53.2
		c0-1.4,1.1-2.4,2.4-2.4h53.2c1.4,0,2.4,1.1,2.4,2.4V245.9z"/>
	<path style="fill:#F4F4F4;" d="M488.8,192.3c-14.9,0-27.1,12.1-27.1,27.1s12.1,27.1,27.1,27.1c14.9,0,27-12.1,27-27.1
		S503.7,192.3,488.8,192.3z M488.8,196.2c12.8,0,23.2,10.4,23.2,23.2s-10.4,23.2-23.2,23.2c-12.8,0-23.2-10.4-23.2-23.2
		S476,196.2,488.8,196.2z"/>
	<path style="fill:#F4F4F4;" d="M224.8,230.1L224.8,230.1l29.8,0c6.1,0,11.1-5,11.1-11.1c0-6.1-5-11.1-11.1-11.1h-28.8
		c-6.1,0-11.1,5-11.1,11.1C214.6,224.8,219.1,229.6,224.8,230.1z M225.8,211.8h28.8c4,0,7.2,3.3,7.2,7.2c0,4-3.3,7.2-7.2,7.3h-28.8
		c-4,0-7.2-3.3-7.3-7.2C218.5,215,221.8,211.8,225.8,211.8z"/>
	<path style="fill:#F4F4F4;" d="M299.3,230.1L299.3,230.1l29.8,0c6.1,0,11.1-5,11.1-11.1c0-6.1-5-11.1-11.1-11.1h-28.8
		c-6.1,0-11.1,5-11.1,11.1C289.1,224.8,293.6,229.6,299.3,230.1z M329.1,226.3h-28.8c-4,0-7.2-3.3-7.3-7.2c0-4,3.3-7.2,7.2-7.2h28.8
		c4,0,7.2,3.3,7.2,7.2C336.3,223,333.1,226.3,329.1,226.3z"/>
	<path style="fill:#F4F4F4;" d="M162.2,164.1h-22.1v-22c0-5.9-4.8-10.7-10.7-10.7l-33,0c-5.9,0-10.7,4.8-10.7,10.7v22h-22
		c-5.9,0-10.7,4.8-10.7,10.7v33c0,5.9,4.8,10.7,10.7,10.7h22v22c0,5.9,4.8,10.7,10.7,10.7h33c5.9,0,10.7-4.8,10.7-10.7v-22h22.1
		c5.9,0,10.7-4.8,10.7-10.7v-33C172.9,168.9,168.1,164.1,162.2,164.1z M136.2,214.7v25.9c0,3.8-3.1,6.8-6.8,6.8h-33
		c-3.8,0-6.8-3.1-6.8-6.8v-25.9H63.6c-3.8,0-6.8-3.1-6.8-6.8v-33c0-3.8,3.1-6.8,6.8-6.8h25.9v-25.9c0-3.8,3.1-6.8,6.8-6.8h33
		c3.8,0,6.8,3.1,6.8,6.8V168h26c3.8,0,6.8,3.1,6.8,6.8v33c0,3.8-3.1,6.8-6.8,6.8H136.2z"/>
	<path style="fill:#F4F4F4;" d="M167,207.8v-33c0-2.7-2.2-4.9-4.9-4.9h-25.4c-0.5,0-0.9-0.1-1.4-0.3c-0.3-0.1-0.7-0.7-0.9-1l0-0.2
		c-0.1-0.4-0.1-0.7-0.1-1v-25.4c0-2.7-2.2-4.9-4.9-4.9H97.1l0,0l-0.7,0c-2.7,0-4.9,2.2-4.9,4.9v25.6c0,0.5,0,0.8-0.3,1.4
		c-0.2,0.3-0.8,0.7-1.1,0.8l-0.3,0.1l0,0c-0.2,0-0.5,0.1-0.7,0.1H63.6c-2.7,0-4.9,2.2-4.9,4.9v33c0,2.7,2.2,4.9,4.9,4.9h25.6
		c0.5,0,1.3,0.2,1.7,0.7c0.4,0.5,0.6,1,0.6,1.8v25.4c0,2.7,2.2,4.9,4.9,4.9h33c2.7,0,4.9-2.2,4.9-4.9v-25.4c0-0.6,0.3-1.4,0.7-1.8
		c0.4-0.4,1.1-0.7,1.7-0.7h25.5C164.8,212.7,167,210.5,167,207.8z M96.4,241.6c-0.6,0-1-0.4-1-1v-25.4c0-1.7-0.5-3.2-1.6-4.4
		c-1.1-1.3-2.8-2-4.6-2H63.6c-0.6,0-1-0.4-1-1v-33c0-0.5,0.4-1,1-1H89c0.6,0,1.2-0.1,1.8-0.2l0,0l0.2,0c1.5-0.3,2.8-1.4,3.6-2.7
		c0.5-0.9,0.7-1.7,0.8-2.4l0.1,0v-26.5c0-0.6,0.4-1,1-1h33c0.6,0,1,0.5,1,1v25.4c0,0.7,0.1,1.3,0.3,1.9l0,0l0.1,0.2
		c0.4,1.3,1.3,2.5,2.4,3.2l0.6,0.4l0.1,0c0.9,0.4,1.8,0.6,2.9,0.6h25.5c0.6,0,1,0.4,1,1v33c0,0.6-0.4,1-1,1h-25.5c0,0,0,0,0,0
		c-1.5,0-3,0.6-4.1,1.5l-0.3,0.3c-1.2,1.2-1.9,2.8-1.9,4.5v25.4c0,0.5-0.4,1-1,1H96.4z"/>
	<path style="fill:#F4F4F4;" d="M112.9,178.2c-7.3,0-13.2,5.9-13.2,13.2s5.9,13.2,13.2,13.2s13.2-5.9,13.2-13.2
		S120.1,178.2,112.9,178.2z M112.9,182c5.1,0,9.3,4.2,9.3,9.3s-4.2,9.3-9.3,9.3s-9.3-4.2-9.3-9.3C103.6,186.2,107.7,182,112.9,182z"
		/>
</g>
</svg>
