<svg id="Ebene_3" data-name="Ebene 3" xmlns="http://www.w3.org/2000/svg" viewBox="0 0 566.93 124.85"><title>ngp</title><path d="M34,108.93l-.07-41.59H39.3v49.8H33.91L5.25,75.21l.13,41.93H0V67.34H5.65Z" fill="#fff"/><path d="M45.31,67.34H71.73v4.91H50.83v17.3H71.59v4.91H50.83v17.77h20.9v4.91H45.31Z" fill="#fff"/><path d="M74.24,92.38c0-15.35,11.91-25.91,26-25.91,14.6,0,26,11.17,26,25.77s-11.3,25.77-26,25.77-26-11.37-26-25.57Zm5.59-.14c0,11.71,8.81,20.86,20.46,20.86s20.39-9.49,20.39-20.86-8.62-20.86-20.46-20.86S79.83,80.67,79.83,92.17Z" fill="#fff"/><path d="M172.16,80.26a21.16,21.16,0,0,0-5.59-5.38A20.12,20.12,0,0,0,155,71.38c-10.9,0-20.39,8.34-20.39,20.79,0,12.65,9.56,21,20.46,21a21.6,21.6,0,0,0,13.32-4.51,18.37,18.37,0,0,0,6.73-10.43H148V93.65h33.56a24.62,24.62,0,0,1-2.22,9.62c-4.31,9.36-14.27,14.81-24.29,14.81a25.62,25.62,0,0,1-26-25.91c0-14.94,11.71-25.71,26.11-25.71,10.1,0,19.45,5.66,23.35,13.8Z" fill="#fff"/><path d="M184.25,67.34h27.59v4.91H189.77v17.3h21.94v4.91H189.77v17.77h22.07v4.91H184.25Z" fill="#fff"/><path d="M214.06,92.38c0-15.35,11.91-25.91,26-25.91,14.6,0,26,11.17,26,25.77S254.71,118,240,118s-26-11.37-26-25.57Zm5.59-.14c0,11.71,8.81,20.86,20.45,20.86s20.39-9.49,20.39-20.86S251.88,71.38,240,71.38s-20.39,9.29-20.39,20.79v.07Z" fill="#fff"/><path d="M327.46,92.38c0-15.35,11.92-25.91,26-25.91,14.61,0,26,11.17,26,25.77S368.11,118,353.44,118s-26-11.37-26-25.57Zm5.59-.14c0,11.71,8.82,20.86,20.46,20.86s20.39-9.49,20.39-20.86-8.61-20.86-20.46-20.86c-11.7,0-20.39,9.29-20.39,20.79v.07Z" fill="#fff"/><path d="M435,103.75c-3.23,7.67-11.91,14.27-22.88,14.27A25.78,25.78,0,1,1,435,81h-6a20,20,0,0,0-17-9.63c-11.64,0-20.39,9.22-20.39,20.8,0,11.77,8.82,20.92,20.39,20.92a20.25,20.25,0,0,0,17-9.35Z" fill="#fff"/><path d="M489.64,67.34h27.6v4.91H495.17v17.3H517.1v4.91H495.16v17.77h22.08v4.91h-27.6V67.34Z" fill="#fff"/><path d="M545.23,72.25H529.18V67.34h37.75v4.91H550.81v44.89h-5.58V72.25Z" fill="#fff"/><path d="M475.58,117.14h6.93l-25.87-25,23.78-24.83h-6.06l-26.1,27v-27h-5.52v49.8h5.52V100.91l5.08-5.31Z" fill="#fff"/><path d="M302.79,120.94,270.33,56.38l.17-.11,8.09-4.13L290,46.3a25.7,25.7,0,0,1,12.75-3.15,14.24,14.24,0,0,1,8.41,2.9,17,17,0,0,1,4.94,6.3,17.65,17.65,0,0,1,2,7.38,17.76,17.76,0,0,1-3,10,29.84,29.84,0,0,1-4.55,5.58c-1.2,1.15-2.49,2.21-3.74,3.3L293.3,69c.85-3.11,1.69-6.2,2.54-9.29h12.94V49.88l-19.9.2c-2.4,6.8-4.8,13.56-7.2,20.34q11.61,9.6,23.16,19.16a45.58,45.58,0,0,0,8.71-4.39,33.34,33.34,0,0,0,10.68-10.88A26.86,26.86,0,0,0,328,60.75a28.39,28.39,0,0,0-1.3-8.82A24.93,24.93,0,0,0,321,41.76a26.85,26.85,0,0,0-19.08-8.62A25.77,25.77,0,0,0,289.26,36c-1.79.9-3.55,1.87-5.35,2.75-4,1.93-8,3.83-12.06,5.74l-10.64,5.05-3.6,1.71q18.08,36.84,36.1,73.62Z" fill="#fff"/><path d="M302.79,120.94c-3,1.32-6,2.6-9.08,3.91L257.6,51.23l3.6-1.71,10.65-5.05c4-1.91,8-3.81,12.06-5.75,1.8-.87,3.55-1.84,5.34-2.74a25.66,25.66,0,0,1,12.63-2.84A26.85,26.85,0,0,1,321,41.76a25.1,25.1,0,0,1,5.76,10.16A28.44,28.44,0,0,1,328,60.75a26.76,26.76,0,0,1-3.79,13.56,33.31,33.31,0,0,1-10.67,10.88,46.73,46.73,0,0,1-8.71,4.38L281.68,70.42c2.39-6.78,4.79-13.54,7.2-20.34l19.89-.2v9.83H295.83c-.84,3.09-1.68,6.17-2.54,9.29l13.54,9.59c1.24-1.09,2.53-2.15,3.73-3.3a29.84,29.84,0,0,0,4.55-5.58,16.57,16.57,0,0,0,1-17.36,17,17,0,0,0-4.93-6.3,14.27,14.27,0,0,0-8.42-2.9A25.73,25.73,0,0,0,290,46.3l-11.43,5.84-8.09,4.13a.91.91,0,0,0-.16.11Q286.56,88.65,302.79,120.94Z" fill="#fff"/><path d="M310.44,26.53,304,25.2Q305.9,12.61,307.79,0l11.79,1.72C316.53,10,313.49,18.25,310.44,26.53Z" fill="#fff"/><path d="M345.54,19.68l6.24,10.11L331.31,42.46,327,36.07Z" fill="#fff"/><path d="M329.07,6.48,338,12.67Q330,22.28,321.89,31.91L316.2,28.4C320.48,21.13,324.75,13.84,329.07,6.48Z" fill="#fff"/></svg>