<?xml version="1.0" encoding="utf-8"?>
<!-- Generator: Adobe Illustrator 24.0.1, SVG Export Plug-In . SVG Version: 6.00 Build 0)  -->
<svg version="1.1"
	 id="Ebene_3" xmlns:cc="http://creativecommons.org/ns#" xmlns:dc="http://purl.org/dc/elements/1.1/" xmlns:inkscape="http://www.inkscape.org/namespaces/inkscape" xmlns:rdf="http://www.w3.org/1999/02/22-rdf-syntax-ns#" xmlns:sodipodi="http://sodipodi.sourceforge.net/DTD/sodipodi-0.dtd" xmlns:svg="http://www.w3.org/2000/svg"
	 xmlns="http://www.w3.org/2000/svg" xmlns:xlink="http://www.w3.org/1999/xlink" x="0px" y="0px" viewBox="0 0 566.9 167.5"
	 style="enable-background:new 0 0 566.9 167.5;" xml:space="preserve">
<sodipodi:namedview  bordercolor="#666666" borderopacity="1" gridtolerance="10" guidetolerance="10" id="namedview57" inkscape:current-layer="Ebene_3" inkscape:cx="125.98378" inkscape:cy="83.734001" inkscape:pageopacity="0" inkscape:pageshadow="2" inkscape:window-height="480" inkscape:window-width="640" inkscape:zoom="0.93662852" objecttolerance="10" pagecolor="#ffffff" showgrid="false">
	</sodipodi:namedview>
<g id="g3">
	<g id="g5">
		<path id="path7" style="fill:#FFFFFF;" d="M34,108.9l-0.1-41.6h5.4v49.8h-5.4L5.2,75.2l0.1,41.9H0V67.3h5.7L34,108.9z"/>
		<path id="path9" style="fill:#FFFFFF;" d="M45.3,67.3h26.4v4.9H50.8v17.3h20.8v4.9H50.8v17.8h20.9v4.9H45.3V67.3z"/>
		<path id="path11" style="fill:#FFFFFF;" d="M74.2,92.4c0-15.3,11.9-25.9,26-25.9c14.6,0,26,11.2,26,25.8c0,14.6-11.3,25.8-26,25.8
			C85.5,118,74.2,106.6,74.2,92.4L74.2,92.4z M79.8,92.2c0,11.7,8.8,20.9,20.5,20.9c11.8,0,20.4-9.5,20.4-20.9
			c0-11.4-8.6-20.9-20.5-20.9C88.5,71.4,79.8,80.7,79.8,92.2L79.8,92.2z"/>
		<path id="path13" style="fill:#FFFFFF;" d="M172.2,80.3c-1.5-2.2-3.4-4-5.6-5.4c-3.2-2.2-7.1-3.5-11.6-3.5
			c-10.9,0-20.4,8.3-20.4,20.8c0,12.7,9.6,21,20.5,21c5.2,0,9.9-1.8,13.3-4.5c3.5-2.8,5.9-6.5,6.7-10.4H148v-4.6h33.6
			c-0.1,2.9-0.7,6.5-2.2,9.6c-4.3,9.4-14.3,14.8-24.3,14.8c-14.5,0-26-11.2-26-25.9c0-14.9,11.7-25.7,26.1-25.7
			c10.1,0,19.4,5.7,23.4,13.8L172.2,80.3L172.2,80.3L172.2,80.3z"/>
		<path id="path15" style="fill:#FFFFFF;" d="M184.3,67.3h27.6v4.9h-22.1v17.3h21.9v4.9h-21.9v17.8h22.1v4.9h-27.6V67.3z"/>
		<path id="path17" style="fill:#FFFFFF;" d="M214.1,92.4c0-15.3,11.9-25.9,26-25.9c14.6,0,26,11.2,26,25.8
			c0,14.6-11.3,25.8-26,25.8C225.3,118,214.1,106.6,214.1,92.4L214.1,92.4z M219.6,92.2c0,11.7,8.8,20.9,20.5,20.9
			c11.8,0,20.4-9.5,20.4-20.9c0-11.4-8.6-20.9-20.5-20.9C228.3,71.4,219.6,80.7,219.6,92.2L219.6,92.2L219.6,92.2z"/>
	</g>
	<g id="g19">
		<path id="path21" style="fill:#FFFFFF;" d="M327.5,92.4c0-15.3,11.9-25.9,26-25.9c14.6,0,26,11.2,26,25.8
			c0,14.6-11.3,25.8-26,25.8C338.7,118,327.5,106.6,327.5,92.4L327.5,92.4z M333,92.2c0,11.7,8.8,20.9,20.5,20.9
			c11.8,0,20.4-9.5,20.4-20.9c0-11.4-8.6-20.9-20.5-20.9C341.7,71.4,333,80.7,333,92.2L333,92.2L333,92.2z"/>
		<path id="path23" style="fill:#FFFFFF;" d="M435,103.7c-3.2,7.7-11.9,14.3-22.9,14.3c-14.7,0-26-11.4-26-25.8
			c0-14.2,11-25.8,25.9-25.8c12.3,0,20.1,8.2,22.9,14.5h-6c-1.7-3-7.3-9.6-17-9.6c-11.6,0-20.4,9.2-20.4,20.8
			c0,11.8,8.8,20.9,20.4,20.9c10.4,0,15.7-7.5,17-9.4L435,103.7L435,103.7z"/>
		<path id="path25" style="fill:#FFFFFF;" d="M489.6,67.3h27.6v4.9h-22.1v17.3h21.9v4.9h-21.9v17.8h22.1v4.9h-27.6V67.3L489.6,67.3z
			"/>
		<path id="path27" style="fill:#FFFFFF;" d="M545.2,72.3h-16v-4.9h37.7v4.9h-16.1v44.9h-5.6V72.3z"/>
	</g>
	<path id="path37" style="fill:#FFFFFF;" d="M475.6,117.1h6.9l-25.9-25l23.8-24.8h-6.1l-26.1,27v-6.4V67.3h-5.5v49.8h5.5v-16.2
		l5.1-5.3L475.6,117.1z"/>
	<path id="path41" style="fill:#FFFFFF;" d="M302.8,120.9c-10.8-21.6-21.6-43-32.5-64.6c0.1,0,0.1-0.1,0.2-0.1
		c2.7-1.4,5.4-2.8,8.1-4.1c3.8-1.9,7.6-3.9,11.4-5.8c4-2.1,8.2-3.3,12.8-3.1c3.1,0.1,5.9,1,8.4,2.9c2.2,1.7,3.7,3.8,4.9,6.3
		c1.1,2.3,1.9,4.8,2,7.4c0.1,3.6-1,6.9-3,10c-1.3,2-2.8,3.9-4.5,5.6c-1.2,1.1-2.5,2.2-3.7,3.3c-4.6-3.2-9-6.4-13.5-9.6
		c0.9-3.1,1.7-6.2,2.5-9.3c4.4,0,8.7,0,12.9,0c0-3.3,0-6.5,0-9.8c-6.7,0.1-13.3,0.1-19.9,0.2c-2.4,6.8-4.8,13.6-7.2,20.3
		c7.7,6.4,15.4,12.8,23.2,19.2c3.1-1.2,6-2.6,8.7-4.4c4.4-2.8,8-6.4,10.7-10.9c2.5-4.2,3.7-8.7,3.8-13.6c0-3-0.4-5.9-1.3-8.8
		c-1.2-3.8-3-7.3-5.8-10.2c-5.2-5.4-11.6-8.4-19.1-8.6c-4.5-0.2-8.7,0.8-12.6,2.8c-1.8,0.9-3.5,1.9-5.3,2.7c-4,1.9-8,3.8-12.1,5.7
		c-3.5,1.7-7.1,3.4-10.6,5c-1.2,0.6-2.4,1.1-3.6,1.7c12,24.6,24.1,49.1,36.1,73.6C296.8,123.5,299.7,122.3,302.8,120.9z"/>
	<path id="path43" style="fill:#FFFFFF;" d="M302.8,120.9c-3,1.3-6,2.6-9.1,3.9c-12-24.5-24.1-49.1-36.1-73.6
		c1.2-0.6,2.4-1.1,3.6-1.7c3.5-1.7,7.1-3.4,10.6-5c4-1.9,8.1-3.8,12.1-5.7c1.8-0.9,3.6-1.8,5.3-2.7c4-2,8.2-3,12.6-2.8
		c7.5,0.3,13.9,3.2,19.1,8.6c2.8,2.9,4.6,6.3,5.8,10.2c0.9,2.9,1.3,5.8,1.3,8.8c-0.1,4.8-1.3,9.4-3.8,13.6c-2.7,4.5-6.3,8-10.7,10.9
		c-2.7,1.8-5.6,3.2-8.7,4.4c-7.7-6.4-15.4-12.8-23.2-19.2c2.4-6.8,4.8-13.5,7.2-20.3c6.6-0.1,13.2-0.1,19.9-0.2c0,3.3,0,6.5,0,9.8
		c-4.3,0-8.6,0-12.9,0c-0.8,3.1-1.7,6.2-2.5,9.3c4.5,3.2,9,6.4,13.5,9.6c1.2-1.1,2.5-2.2,3.7-3.3c1.7-1.7,3.2-3.5,4.5-5.6
		c2-3.1,3-6.3,3-10c0-2.6-0.9-5-2-7.4c-1.2-2.5-2.7-4.6-4.9-6.3c-2.5-1.9-5.3-2.8-8.4-2.9c-4.5-0.1-8.7,1.1-12.8,3.1
		c-3.8,2-7.6,3.9-11.4,5.8c-2.7,1.4-5.4,2.8-8.1,4.1c-0.1,0-0.1,0.1-0.2,0.1C281.1,77.9,292,99.4,302.8,120.9z"/>
	<path id="path45" style="fill:#FFFFFF;" d="M310.4,26.5c-2.2-0.4-4.3-0.9-6.4-1.3c1.3-8.4,2.5-16.8,3.8-25.2
		c3.9,0.6,7.8,1.1,11.8,1.7C316.5,10,313.5,18.3,310.4,26.5z"/>
	<path id="path47" style="fill:#FFFFFF;" d="M345.5,19.7c2.1,3.4,4.1,6.7,6.2,10.1c-6.8,4.2-13.6,8.4-20.5,12.7
		c-1.4-2.1-2.8-4.2-4.3-6.4C333.2,30.6,339.3,25.2,345.5,19.7z"/>
	<path id="path49" style="fill:#FFFFFF;" d="M329.1,6.5c3,2.1,6,4.1,9,6.2c-5.4,6.4-10.7,12.8-16.1,19.2c-1.9-1.2-3.8-2.3-5.7-3.5
		C320.5,21.1,324.8,13.8,329.1,6.5z"/>
</g>
</svg>
