<?xml version="1.0" encoding="utf-8"?>
<!-- Generator: Adobe Illustrator 24.0.1, SVG Export Plug-In . SVG Version: 6.00 Build 0)  -->
<svg version="1.1"
	 id="Layer_3" xmlns:cc="http://creativecommons.org/ns#" xmlns:dc="http://purl.org/dc/elements/1.1/" xmlns:rdf="http://www.w3.org/1999/02/22-rdf-syntax-ns#"
	 xmlns="http://www.w3.org/2000/svg" xmlns:xlink="http://www.w3.org/1999/xlink" x="0px" y="0px" viewBox="0 0 598.2 350.3"
	 style="enable-background:new 0 0 598.2 350.3;" xml:space="preserve">
<g>
	<path style="fill:#F4F4F4;" d="M560.9,18.6c-2.2-0.6-13.3-1.9-25.8-3.1c-9.1-0.9-25.8-2.4-36.2-2.4H97.8c-10.4,0-27.2,1.5-36.2,2.4
		C49.1,16.7,38,18,35.8,18.6l-0.1,0c-4.1,1.3-6.9,5.2-6.9,9.5v261.2c0,15.1,9,28.6,23,34.3l0.2,0.1c5.5,1.7,30.5,5,66,7.9
		c30.8,2.5,79.6,5.5,137.1,5.6l85.7,0c57.8,0,106.9-3,137.9-5.6c35.5-2.9,60.5-6.3,66-8l0.1-0.1c14-5.7,23-19.2,23-34.3V28.1
		C567.8,23.8,565.1,20,560.9,18.6z M255.8,333.1c-57.7,0-106.7-3-137.6-5.5c-37-3-60.7-6.4-65-7.7c-12.5-5.1-20.5-17.1-20.5-30.6
		V28.1c0-2.6,1.6-4.9,4-5.7c1.5-0.4,11.8-1.7,25.1-3c15.3-1.5,28.3-2.3,35.9-2.3h401.1c7.5,0,20.6,0.9,35.9,2.3
		c13.5,1.3,23.7,2.6,25.1,3c2.4,0.8,4.1,3.1,4.1,5.7v261.2c0,13.5-8,25.5-20.4,30.5c-4.4,1.4-28.1,4.8-65.1,7.8
		c-30.7,2.5-79.3,5.5-136.6,5.5L255.8,333.1z"/>
	<path style="fill:#F4F4F4;" d="M408.6,275.9c5-0.2,8.7-0.4,11.4-0.5c1.4-0.1,2.5-0.2,3.3-0.2l0.5,0c0.1,0,0.2,0,0.3,0l0,0.1
		l0.9-0.2c2.7-0.7,4.5-3.1,4.5-5.8l0-239c0-3.3-2.7-6-6-6H173.1c-3.3,0-6,2.7-6,6v239c0,2.9,2.1,5.4,4.9,5.9
		c0.7,0.1,2.1,0.2,5.3,0.4h0c19.7,1.1,92,3.5,121,3.5c14.3,0,42.3-0.6,74.7-1.7C386.6,276.8,399.3,276.3,408.6,275.9z M177.4,271.4
		c-2.8-0.2-4.5-0.3-4.7-0.3c-1-0.2-1.7-1-1.7-2l0-239c0-1.1,0.9-2,2-2h250.5c1.1,0,2,0.9,2,2v239c0,0.9-0.6,1.7-1.5,1.9
		c-2.2,0.4-25.7,1.3-52.5,2.2c-31.9,1-59.3,1.7-73.3,1.7c-14.6,0-42.3-0.6-74.1-1.7c-13.2-0.4-25.7-0.9-35.3-1.3
		C184.2,271.8,180.2,271.6,177.4,271.4z"/>
	<path style="fill:#F4F4F4;" d="M410.3,251.1v-206c0-1.7-1.3-3-3-3h-218c-1.7,0-3,1.3-3,3v206c0,1.7,1.3,3,3,3h218
		C409,254.1,410.3,252.8,410.3,251.1z M190.3,250.1v-204h216v204H190.3z"/>
	<path style="fill:#F4F4F4;" d="M67.3,68h23.2c6,0,11.4-3.9,13.3-9.5h18.5c1.8,4.3,5.9,7,10.6,7c6.3,0,11.5-5.2,11.5-11.5
		c0-6.3-5.2-11.5-11.5-11.5c-4.6,0-8.7,2.7-10.6,7h-18.5c-1.9-5.7-7.2-9.5-13.3-9.5H67.3c-7.7,0-14,6.3-14,14
		C53.3,61.7,59.5,68,67.3,68z M122.5,53.5c1.3,0,2.2-0.6,2.7-1.2c0.3-0.3,0.5-0.7,0.6-1.1c1.1-2.9,3.9-4.7,7-4.7c0,0,0,0,0,0
		c4.1,0,7.5,3.4,7.5,7.5c0,4.1-3.4,7.5-7.5,7.5c0,0,0,0,0,0c-2.8,0-5.4-1.6-6.7-4.2l0.2-0.1c1.2,2.4,3.7,4.1,6.5,4.1
		c4,0,7.3-3.3,7.3-7.3s-3.3-7.3-7.3-7.3s-7.3,3.3-7.3,7.3c0,1,0.2,2,0.6,2.9l-0.6-0.6l-0.4-0.8l-0.1,0.1c-0.8-0.9-1.9-1.1-2.5-1.1
		h-19.4c-0.5,0-1.2,0.1-1.9,0.5c-0.7,0.4-0.9,1.1-1,1.4l-0.1,0.2C98.9,60.9,95,64,90.4,64c0,0,0,0,0,0H67.3c-5.5,0-10-4.5-10-10
		c0-5.5,4.5-10,10-10h23.2c0,0,0,0,0,0c4.4,0,8.3,2.9,9.6,7.2l0.1,0.2c0.2,0.3,0.4,0.7,0.6,0.9c0.6,0.7,1.5,1.1,2.4,1.1H122.5z"/>
	<path style="fill:#F4F4F4;" d="M90.9,45.2H67.3c-4.8,0-8.7,3.9-8.7,8.7c0,4.5,3.4,8.2,7.7,8.7v0.1h24.6c4.8,0,8.7-3.9,8.7-8.7
		S95.7,45.2,90.9,45.2z M67.3,49.2h23.6c2.6,0,4.7,2.1,4.7,4.7c0,2.6-2.1,4.7-4.7,4.7H67.3c-2.6,0-4.7-2.1-4.7-4.7
		C62.6,51.4,64.7,49.3,67.3,49.2z"/>
	<path style="fill:#F4F4F4;" d="M110.7,84.4c-29.6,0-53.8,24.1-53.8,53.8s24.1,53.7,53.8,53.8c29.6,0,53.7-24.1,53.8-53.8
		C164.5,108.5,140.4,84.4,110.7,84.4z M81.5,108.9c7.8-7.8,18.2-12.1,29.3-12.1c0,0,0,0,0,0c11,0,21.4,4.3,29.3,12.1
		c7.8,7.8,12.1,18.2,12.1,29.3c0,11.1-4.3,21.4-12.1,29.3c-7.8,7.8-18.2,12.1-29.3,12.1c-11.1,0-21.4-4.3-29.3-12.1
		c-7.8-7.8-12.1-18.2-12.1-29.3C69.4,127.1,73.7,116.7,81.5,108.9L81.5,108.9z M140.5,103.9c-6.8-5.9-15.3-9.8-24.8-10.9v-4.4
		c10.4,1,20,5.2,27.9,12.1L140.5,103.9z M105.8,93c-9.4,1-18,5-24.8,10.9l-3.1-3.1c7.9-6.9,17.6-11.2,27.9-12.2V93z M76.5,108.4
		c-5.9,6.8-9.8,15.4-10.9,24.8h-4.4c1-10.4,5.2-20,12.2-27.9L76.5,108.4z M65.6,143.1c1,9.4,5,18,10.9,24.8l-3.1,3.1
		c-6.9-7.9-11.1-17.5-12.2-27.9H65.6z M81,172.4c6.8,5.9,15.4,9.8,24.8,10.9v4.4c-10.4-1-20.1-5.2-27.9-12.2L81,172.4z M115.7,183.2
		c9.4-1,18-5,24.8-10.9l3.1,3.1c-7.8,6.9-17.5,11.1-27.9,12.2V183.2z M145,167.8c5.9-6.8,9.8-15.4,10.9-24.8h4.4
		c-1,10.4-5.2,20-12.1,27.9L145,167.8z M155.8,133.2c-1-9.4-5-18-10.9-24.8l3.1-3.1c6.9,7.9,11.1,17.5,12.2,27.9H155.8z"/>
	<path style="fill:#F4F4F4;" d="M110.7,171.5c18.4,0,33.4-15,33.4-33.4s-15-33.4-33.4-33.4s-33.4,15-33.4,33.4
		S92.3,171.5,110.7,171.5z M81.4,138.1c0-16.2,13.2-29.3,29.4-29.4c16.2,0,29.3,13.2,29.4,29.4c0,16.2-13.2,29.4-29.4,29.4
		C94.6,167.5,81.4,154.3,81.4,138.1z"/>
	<path style="fill:#F4F4F4;" d="M130.5,138.1c0-10.9-8.9-19.8-19.8-19.8c-10.9,0-19.8,8.9-19.8,19.8c0,10.9,8.9,19.8,19.8,19.8
		C121.7,157.9,130.5,149.1,130.5,138.1z M126.5,138.1c0,8.7-7.1,15.8-15.8,15.8c-8.7,0-15.8-7.1-15.8-15.8c0-8.7,7.1-15.8,15.8-15.8
		C119.4,122.3,126.5,129.4,126.5,138.1z"/>
	<circle style="fill:#F4F4F4;" cx="91.6" cy="234" r="3.8"/>
	<circle style="fill:#F4F4F4;" cx="101.3" cy="234" r="3.8"/>
	<circle style="fill:#F4F4F4;" cx="111" cy="234" r="3.8"/>
	<circle style="fill:#F4F4F4;" cx="120.7" cy="234" r="3.8"/>
	<path style="fill:#F4F4F4;" d="M130.4,230.1c-2.1,0-3.8,1.7-3.8,3.8s1.7,3.8,3.8,3.8c2.1,0,3.8-1.7,3.8-3.8
		S132.5,230.1,130.4,230.1z"/>
	<circle style="fill:#F4F4F4;" cx="91.6" cy="243.7" r="3.8"/>
	<circle style="fill:#F4F4F4;" cx="101.3" cy="243.7" r="3.8"/>
	<circle style="fill:#F4F4F4;" cx="111" cy="243.7" r="3.8"/>
	<circle style="fill:#F4F4F4;" cx="120.7" cy="243.7" r="3.8"/>
	<path style="fill:#F4F4F4;" d="M130.4,239.9c-2.1,0-3.8,1.7-3.8,3.8s1.7,3.8,3.8,3.8c2.1,0,3.8-1.7,3.8-3.8
		S132.5,239.9,130.4,239.9z"/>
	<path style="fill:#F4F4F4;" d="M91.6,249.7c-2.1,0-3.8,1.7-3.8,3.8s1.7,3.8,3.8,3.8s3.8-1.7,3.8-3.8S93.7,249.7,91.6,249.7z"/>
	<path style="fill:#F4F4F4;" d="M101.3,249.7c-2.1,0-3.8,1.7-3.8,3.8s1.7,3.8,3.8,3.8s3.8-1.7,3.8-3.8S103.4,249.7,101.3,249.7z"/>
	<path style="fill:#F4F4F4;" d="M111,249.7c-2.1,0-3.8,1.7-3.8,3.8s1.7,3.8,3.8,3.8s3.8-1.7,3.8-3.8S113.1,249.7,111,249.7z"/>
	<path style="fill:#F4F4F4;" d="M120.7,249.7c-2.1,0-3.8,1.7-3.8,3.8s1.7,3.8,3.8,3.8s3.8-1.7,3.8-3.8S122.8,249.7,120.7,249.7z"/>
	<path style="fill:#F4F4F4;" d="M130.4,249.7c-2.1,0-3.8,1.7-3.8,3.8s1.7,3.8,3.8,3.8c2.1,0,3.8-1.7,3.8-3.8
		S132.5,249.7,130.4,249.7z"/>
	<circle style="fill:#F4F4F4;" cx="91.6" cy="263.3" r="3.8"/>
	<circle style="fill:#F4F4F4;" cx="101.3" cy="263.3" r="3.8"/>
	<circle style="fill:#F4F4F4;" cx="111" cy="263.3" r="3.8"/>
	<circle style="fill:#F4F4F4;" cx="120.7" cy="263.3" r="3.8"/>
	<path style="fill:#F4F4F4;" d="M130.4,259.5c-2.1,0-3.8,1.7-3.8,3.8s1.7,3.8,3.8,3.8c2.1,0,3.8-1.7,3.8-3.8
		S132.5,259.5,130.4,259.5z"/>
	<circle style="fill:#F4F4F4;" cx="462.3" cy="215.3" r="5.2"/>
	<circle style="fill:#F4F4F4;" cx="462.3" cy="255" r="5.2"/>
	<circle style="fill:#F4F4F4;" cx="462.3" cy="294.8" r="5.2"/>
	<circle style="fill:#F4F4F4;" cx="497.6" cy="211.5" r="5.2"/>
	<circle style="fill:#F4F4F4;" cx="497.6" cy="251.2" r="5.2"/>
	<circle style="fill:#F4F4F4;" cx="497.6" cy="291" r="5.2"/>
	<circle style="fill:#F4F4F4;" cx="532.9" cy="207.8" r="5.2"/>
	<circle style="fill:#F4F4F4;" cx="532.9" cy="247.5" r="5.2"/>
	<circle style="fill:#F4F4F4;" cx="532.9" cy="287.3" r="5.2"/>
	<path style="fill:#F4F4F4;" d="M471.8,179.8c13,0,23.5-10.5,23.5-23.5c0-13-10.5-23.5-23.5-23.5c-13,0-23.5,10.5-23.5,23.5
		C448.3,169.2,458.8,179.8,471.8,179.8z M452.3,156.3c0-10.7,8.8-19.5,19.5-19.5c10.7,0,19.5,8.8,19.5,19.5
		c0,10.7-8.8,19.5-19.5,19.5C461,175.7,452.3,167,452.3,156.3z"/>
	<path style="fill:#F4F4F4;" d="M526.6,141.9c13,0,23.5-10.5,23.5-23.5c0-13-10.5-23.5-23.5-23.5s-23.5,10.5-23.5,23.5
		C503.1,131.3,513.7,141.9,526.6,141.9z M526.6,98.9c10.7,0,19.5,8.8,19.5,19.5c0,10.7-8.8,19.5-19.5,19.5
		c-10.7,0-19.5-8.8-19.5-19.5C507.2,107.6,515.9,98.9,526.6,98.9z"/>
	<path style="fill:#F4F4F4;" d="M530,69.3c9,0,16.4-7.3,16.4-16.4S539,36.5,530,36.5c-9,0-16.4,7.3-16.4,16.4S521,69.3,530,69.3z
		 M530,40.5c6.8,0,12.4,5.6,12.4,12.4c0,6.8-5.6,12.4-12.4,12.4c-6.8,0-12.4-5.6-12.4-12.4C517.6,46.1,523.2,40.5,530,40.5z"/>
	<path style="fill:#F4F4F4;" d="M530,64c6.1,0,11.1-5,11.1-11.1c0-6.1-5-11.1-11.1-11.1s-11.1,5-11.1,11.1C518.9,59,523.9,64,530,64
		z M530,60c-3.9,0-7.1-3.2-7.1-7.1c0-3.9,3.2-7.1,7.1-7.1c3.9,0,7.1,3.2,7.1,7.1C537.1,56.8,533.9,60,530,60z"/>
</g>
</svg>
