<?xml version="1.0" encoding="utf-8"?>
<!-- Generator: Adobe Illustrator 24.0.1, SVG Export Plug-In . SVG Version: 6.00 Build 0)  -->
<svg version="1.1"
	 id="Ebene_1" inkscape:version="0.91 r13725" sodipodi:docname="ibmpc.svg" xmlns:cc="http://creativecommons.org/ns#" xmlns:dc="http://purl.org/dc/elements/1.1/" xmlns:inkscape="http://www.inkscape.org/namespaces/inkscape" xmlns:rdf="http://www.w3.org/1999/02/22-rdf-syntax-ns#" xmlns:sodipodi="http://sodipodi.sourceforge.net/DTD/sodipodi-0.dtd" xmlns:svg="http://www.w3.org/2000/svg"
	 xmlns="http://www.w3.org/2000/svg" xmlns:xlink="http://www.w3.org/1999/xlink" x="0px" y="0px" viewBox="0 0 600 280"
	 style="enable-background:new 0 0 600 280;" xml:space="preserve">
<sodipodi:namedview  bordercolor="#666666" borderopacity="1" gridtolerance="10" guidetolerance="10" id="namedview5" inkscape:current-layer="Ebene_1" inkscape:cx="300.65858" inkscape:cy="72.060466" inkscape:pageopacity="0" inkscape:pageshadow="2" inkscape:window-height="480" inkscape:window-width="640" inkscape:zoom="0.66229403" objecttolerance="10" pagecolor="#ffffff" showgrid="false">
	</sodipodi:namedview>
<path id="path3" style="fill:#FFFFFF;" d="M16.5,26.6v15.5h110.4V26.6H16.5z M142.5,26.6v15.5h157.3c0,0-16.1-15.5-37.3-15.5H142.5z
	 M330.6,26.6v15.5h95.1l-5.6-15.5H330.6z M494,26.6l-5.6,15.5h94.3V26.6H494z M16.5,56.8v15.5h110.4V56.8H16.5z M142.5,56.8v15.5
	H318c0,0-2.1-11.9-5.6-15.5H142.5z M330.6,56.8v15.5h105.6L431,56.8H330.6z M482.7,56.8l-5.2,15.5h105.1V56.8H482.7z M48.2,87v15.5
	H96V87H48.2z M174.2,87v15.5H222V87H174.2z M268.5,87v15.5h47.8c0,0,3-8.2,3-15.5C319.3,87,268.5,87,268.5,87z M362.3,87v15.5h84.7
	L441.4,87C441.4,87,362.3,87,362.3,87z M472.3,87l-5.7,15.5h85.1V87H472.3z M48.2,117.2v15.5H96v-15.5H48.2z M174.2,117.2v15.5
	h122.1c0,0,10.2-8,13.5-15.5H174.2z M362.3,117.2v15.5h47.8V124l3,8.6h87.5l3.3-8.6v8.6h47.8v-15.5H462l-4.8,13.1l-4.8-13.1H362.3z
	 M48.2,147.3v15.5H96v-15.5H48.2z M174.2,147.3v15.5h135.5c-3.3-7.5-13.5-15.5-13.5-15.5H174.2z M362.3,147.3v15.5h47.8v-15.5H362.3
	z M418.8,147.3l5.8,15.5h65.6l5.5-15.5H418.8z M504,147.3v15.5h47.8v-15.5H504z M48.2,177.5V193H96v-15.5H48.2z M174.2,177.5V193
	H222v-15.5H174.2z M268.5,177.5V193h50.8c0-7.3-3-15.5-3-15.5H268.5z M362.3,177.5V193h47.8v-15.5H362.3z M429.7,177.5l5.6,15.5h44
	l5.6-15.5H429.7z M504,177.5V193h47.8v-15.5H504z M17.4,207.7v15.5h110.4v-15.5H17.4z M142.5,207.7v15.5h169.9
	c3.6-3.6,5.6-15.5,5.6-15.5H142.5z M331.5,207.7v15.5h78.6v-15.5H331.5z M440.5,207.7l5.8,15.5h22.4l5.4-15.5H440.5z M504,207.7
	v15.5h79.5v-15.5H504z M17.4,237.9v15.5h110.4v-15.5H17.4z M142.5,237.9v15.5h119.9c21.3,0,37.3-15.5,37.3-15.5H142.5z M331.5,237.9
	v15.5h78.6v-15.5H331.5z M451.5,237.9l5.5,15.5l1,0l5.6-15.5L451.5,237.9L451.5,237.9z M504,237.9v15.5h79.5v-15.5H504z"/>
</svg>
