<?xml version="1.0" encoding="utf-8"?>
<!-- Generator: Adobe Illustrator 24.0.1, SVG Export Plug-In . SVG Version: 6.00 Build 0)  -->
<svg version="1.1" id="Layer_1" xmlns="http://www.w3.org/2000/svg" xmlns:xlink="http://www.w3.org/1999/xlink" x="0px" y="0px"
	 viewBox="0 0 545 82" style="enable-background:new 0 0 545 82;" xml:space="preserve">
<style type="text/css">
	.st0{fill:#FFFFFF;}
</style>
<g>
	<path class="st0" d="M22.9,52.7c0.2,0,0.4-0.1,0.5-0.3c0.1-0.3,0-0.6-0.2-0.7c-7-3.4-10.8-7.4-10.6-11.3
		c0.3-6.6,11.3-12.3,28.7-15.1c0.3,0,0.5-0.3,0.4-0.6c0-0.3-0.3-0.5-0.6-0.4c-8.6,1.4-15.9,3.5-21.1,6.2c-5.4,2.8-8.4,6.3-8.5,9.9
		c-0.2,4.4,3.7,8.6,11.2,12.3C22.7,52.7,22.8,52.7,22.9,52.7z"/>
	<path class="st0" d="M70.3,23.4c0,0.3,0.2,0.5,0.5,0.6c6,0.3,11.9,0.9,17.4,1.8c0,0,0.1,0,0.1,0c0.3,0,0.5-0.2,0.5-0.4
		c0-0.3-0.1-0.6-0.4-0.6c-5.6-0.9-11.5-1.5-17.5-1.8C70.6,22.9,70.3,23.1,70.3,23.4z"/>
	<path class="st0" d="M115.3,33.4c-5.2-3.1-12.6-5.7-21.4-7.6c-0.3-0.1-0.6,0.1-0.6,0.4c-0.1,0.3,0.1,0.6,0.4,0.6
		c8.7,1.8,16,4.4,21.1,7.4c5.1,3,7.8,6.4,7.7,9.7c-0.3,9.4-22.5,16.7-50.7,16.7c-0.1,0-0.3,0-0.4,0c0,0,0,0,0,0
		c-0.3,0-0.5,0.2-0.5,0.5c0,0.3,0.2,0.5,0.5,0.5c0.1,0,0.3,0,0.4,0c13.8,0,26.6-1.7,36.2-4.9c9.9-3.3,15.4-7.8,15.6-12.8
		C123.6,40.2,120.8,36.6,115.3,33.4z"/>
	<polygon class="st0" points="82.7,40.9 81.3,34.3 95.2,23.7 78.8,30.2 74.3,25.4 75.7,32.1 61.8,42.7 78.1,36.1 	"/>
	<path class="st0" d="M61.1,50c-0.2,1.1,0.1,1.4,1.1,1.2l5.9-0.9l1.3-6.8l-5.9,0.9c-1,0.2-1.5,0.6-1.7,1.7L61.1,50z M63.9,47.5
		c0.2-1,0.6-0.8,1.6-1l0.9-0.1l-0.3,1.5l-0.9,0.1C64.1,48.2,63.7,48.5,63.9,47.5z"/>
	<path class="st0" d="M106.3,38.3c0.1-0.5-0.2-0.9-0.7-0.8l-1.6,0.2l-2.5,0.4l-0.6,0.1c-0.7,0.1-1.5,0.9-1.7,1.7l-0.1,0.4l6.1-1
		C105.8,39.3,106.3,38.8,106.3,38.3z"/>
	<path class="st0" d="M84.1,53.2l1.8-9.9l0.9-0.1c1-0.2,0.9-0.3,0.7,0.7l-1.7,9l8.2-1.3l0.1-0.6c0.6,0.3,1.3,0.4,2.1,0.2l14.2-2.2
		l1.3-7.1l-0.9-0.7c0.8-0.9,1.4-2.1,1.6-3.1l0.2-1.1c0.7-4.2-3.2-5.3-4.9-5l-8.1,1.3c-1.4,0.2-3,1.2-4.2,2.6
		c-1.1-1.1-2.7-1.5-3.7-1.3l-9,1.4l1,2.2l8.2-1.3c1.2-0.2,2,0.3,2.2,1.2c-0.1,0.2-2.2,11.4-2.2,11.4L88.9,50l1.6-8.4
		c0.2-1.1-0.1-1.4-1.1-1.2l-5.6,0.9l-1.8,9.9l-3.2,0.5l2.1-11.3l-2.6-3.1l-9.5,3.4l4.5-0.7l0.1,0l-2.9,15.4
		c-0.7,3.9-4.9,7.7-8.6,8.3l-3.8,0.6l0.6-3.1l2.9-0.5c2.5-0.4,5.4-2.9,5.9-5.6l0.3-1.7l-7.5,1.2c-1.6,0.3-2.5-0.7-2.2-2.4l1.3-7.3
		c0.2-1.3,1-2.4,2.1-2.9l0-0.2l3.8-2.9L63,39.2c-1.2,0.2-3.4,1.1-4.7,2.8c-1-1.2-2.9-1.7-3.9-1.6l-8.1,1.3l1.3-7.1l5.9-0.9
		c3.2-0.5,6.6-4,7.3-7.4l0.9-4.8c0.6-3.3-1.7-6-4.9-5.5l-12.9,2.1L41,33l-11.9,1.9c-1,0.2-2,1.2-2.2,2.2l-4.5,23.9
		c-0.2,1.1,0.5,1.8,1.5,1.6l22.7-3.6l1.8-9.9l0.9-0.1c1-0.2,0.9-0.3,0.7,0.7l-1.7,9l8.2-1.3l0-0.3c0.2,0,0.5,0.1,0.7,0.1l6.3-1
		c-0.2,1.3-1.9,1.6-4.4,2l-2.9,0.5l-1.6,8.3l3.8-0.6C68,65.6,71.6,60.7,72.7,55L84.1,53.2z M95.1,45.6l1.1-6c0.4-1.9,2.4-3.8,4.1-4
		l7.5-1.2c1.3-0.2,2.1,1.2,1.9,2.6l-0.4,1.9c-0.3,1.4-1.7,2.9-2.9,3.1l-7.8,1.2l-0.1,0.7c-0.1,0.8,0.4,1.4,1.1,1.3l8.7-1.4l-0.6,3.2
		L98,48.6C96.2,48.8,94.8,47.5,95.1,45.6z M75.6,39.5L75.6,39.5l3.2-0.5l-2.4,13l-3.2,0.5L75.6,39.5z M49.7,22.9l4.1-0.6
		c0.5-0.1,0.8,0.2,0.7,0.8l-0.7,4c-0.1,0.6-0.5,1-1,1.1l-4.1,0.6L49.7,22.9z M38.7,58l-13.4,2.1l4.2-22.6l11.1-1.8l-0.6,3.1
		l-7.9,1.3l-1.2,6.5l6.4-1l-0.6,3.1l-6.4,1l-1.2,6.5l10.2-1.6L38.7,58z M32.2,53.3l0.3-1.5l6.1-1l1.5-8l-6.1,1l0.3-1.5l7.6-1.2
		l-2.1,11.1L32.2,53.3z M56.6,45.3l-1.9,10.1l-3.2,0.5l1.6-8.4c0.2-1.1-0.1-1.4-1.1-1.2l-5.6,0.9L44.5,57l-3.2,0.5l2.4-13l0.1,0
		l10.7-1.7C56.1,42.6,56.9,43.6,56.6,45.3z"/>
	<path class="st0" d="M66,37l2.2-0.3l6.6-5.1l-0.9-3.4l-0.5,0.1L73.3,29c-0.1,0.6-0.6,1.1-1.1,1.2l-3.4,0.5
		c-0.6,0.1-0.9-0.3-0.8-0.9l1.7-9.1c0.1-0.6,0.6-1.1,1.1-1.2l3.4-0.5c0.6-0.1,0.9,0.3,0.8,0.9l-0.2,1.2l6.8-1.1l0.3-1.4
		c0.7-3.5-1.7-6.2-5.1-5.6l-6.5,1c-3.3,0.5-6.9,4.1-7.5,7.6l-1.8,9.7C60.3,34.9,62.7,37.5,66,37z"/>
	<path class="st0" d="M80,28.3l0.2-1.2l-2.7,0.4l2.1,2C79.8,29,79.9,28.8,80,28.3z"/>
	<path class="st0" d="M159.8,20c-8.2,0-15.5,2.7-20.7,7.2c-5.2,4.5-8.4,10.9-8.4,18c0,7.2,3.2,13.5,8.4,18
		c5.2,4.5,12.5,7.2,20.7,7.2c17.9,0,35.5,0,35.5,0h1.5v-11h-1.5c0,0-22.1,0-35.5,0c-5.6,0-10.1-1.9-13.3-4.6
		c-3.2-2.7-4.9-6.3-4.9-9.7c0-3.4,1.7-6.9,4.9-9.7c3.2-2.7,7.7-4.6,13.3-4.6c8.9,0,22.1,0,35.5,0h1.5V20h-1.5
		C195.3,20,173.2,20,159.8,20z"/>
	<path class="st0" d="M424.3,27.2c-5.2-4.5-12.5-7.2-20.7-7.2h-23.7c-8.2,0-15.5,2.7-20.7,7.2c-5.2,4.5-8.4,10.9-8.4,18
		c0,7.2,3.2,13.5,8.4,18c5.2,4.5,12.5,7.2,20.7,7.2h23.7c8.2,0,15.5-2.7,20.7-7.2c5.2-4.5,8.4-10.9,8.4-18
		C432.8,38.1,429.6,31.7,424.3,27.2z M416.9,54.9c-3.2,2.7-7.7,4.6-13.3,4.6h-23.7c-5.6,0-10.1-1.9-13.3-4.6
		c-3.2-2.7-4.9-6.3-4.9-9.7c0-3.4,1.7-6.9,4.9-9.7c3.2-2.7,7.7-4.6,13.3-4.6h23.7c5.6,0,10.1,1.9,13.3,4.6c3.2,2.7,4.9,6.3,4.9,9.7
		C421.8,48.6,420.1,52.2,416.9,54.9z"/>
	<path class="st0" d="M259.5,27.2c-5.2-4.5-12.5-7.2-20.7-7.2v1.5c0,0,0,0,0,0V20c-8.9,0-17.8,0-24.5,0c-6.6,0-11,0-11,0h-1.5v50.4
		h1.5c0,0,5.5,0,12.7,0c7.2,0,16.1,0,22.8,0c8.2,0,15.5-2.7,20.7-7.2c5.2-4.5,8.4-10.9,8.4-18C267.9,38.1,264.7,31.7,259.5,27.2z
		 M256.9,45.2c0,3.4-1.7,6.9-4.9,9.7c-3.2,2.7-7.7,4.6-13.3,4.6c-6.9,0-15.2,0-26.1,0V31c8.4,0,17.9,0,26.1,0
		c5.6,0,10.1,1.9,13.3,4.6C255.2,38.3,257,41.9,256.9,45.2z"/>
	<path class="st0" d="M340.9,45.7c1.2-0.7,2.3-1.8,3.2-2.9c1.6-2.2,2.8-4.8,2.8-7.2c0-4.2-1-8-3.3-10.9c-2.2-2.9-5.7-4.7-10.1-4.6
		c-3.9,0-15.8,0-26.6,0c-10.9,0-20.7,0-20.7,0h-1.5v50.4h11V50.7c11.9,0,30.2,0,34,0c1.5,0,3.1,0.8,4.3,2c1.3,1.2,2,2.9,2,4.3
		c0,3.9,0,11.8,0,11.8v1.5h11v-1.5c0,0,0-3.9,0-11.8c0-4.5-2.3-7.8-4.4-10C341.9,46.6,341.4,46.1,340.9,45.7z M295.5,31
		c2.5,0,7.6,0,13.3,0c7.9,0,16.8,0,20.7,0c1.7,0,3.4,0.5,4.5,1.3c1.2,0.8,1.8,1.9,1.8,3.3c0,1.4-0.6,2.3-1.8,3
		c-1.1,0.7-2.9,1.1-4.6,1.1c-3.9,0-12.8,0-20.7,0c-5.7,0-10.8,0-13.3,0V31z"/>
	<path class="st0" d="M277.9,39.8h-3c-3,0-5.5,2.5-5.5,5.5c0,3,2.5,5.5,5.5,5.5h3c3,0,5.5-2.5,5.5-5.5
		C283.4,42.2,280.9,39.8,277.9,39.8z"/>
	<path class="st0" d="M498.2,23.3c-3.3-2.2-7.5-3.2-11.7-3.2c-3.9,0-27.6,0-31.6,0c-4.2,0-8.4,1-11.7,3.2c-3.3,2.2-5.6,5.7-5.6,10.2
		c0,7.9,0,23.7,0,35.5v1.5h11v-1.5c0,0,0-23.7,0-31.6c0-1.7,0.4-2.8,1-3.7c0.9-1.2,2.4-1.9,4.1-2.3c1.8-0.4,3.7-0.4,5.2-0.4h6.4
		v39.5h11V31l6.4,0c2,0,4.8,0,6.8,0.9c1,0.4,1.9,1,2.5,1.8c0.6,0.8,1,1.9,1,3.7c0,7.9,0,31.6,0,31.6v1.5v0h11v-37
		C503.8,28.9,501.5,25.4,498.2,23.3z"/>
	<path class="st0" d="M518.5,29.4c0.5-0.3,1.5-0.3,2.5-0.3c0.5,0,1.1,0,1.7,0c0,0,0,0,0,0c0,0,0.1,0,0.1,0c0.1,0,0.2,0,0.4,0
		c0.4,0,1.2,0,2.5,0c2.8,0,5.3-0.7,7.1-2.3c1.8-1.6,2.9-4.1,2.9-7.3c0-2.1-0.7-4.4-2.1-6.2c-1.4-1.8-3.7-3.1-6.6-3.1
		c-3.9,0-12.5,0-16.4,0h-0.9V18h0.9c0,0,8,0,11.9,0c0.8,0,1.6,0.1,2.1,0.3c0.4,0.3,0.6,0.4,0.7,1.2c0,0.8-0.2,1.1-0.6,1.4
		c-0.4,0.3-1,0.4-1.8,0.4h-4.9c-4.6,0-7.5,1.7-9,4.2c-1.5,2.4-1.8,5.4-1.8,7.9v4.8h28.1v-8.2h-17.3C518,29.7,518.2,29.6,518.5,29.4z
		"/>
</g>
</svg>
