<?xml version="1.0" encoding="utf-8"?>
<!-- Generator: Adobe Illustrator 24.0.1, SVG Export Plug-In . SVG Version: 6.00 Build 0)  -->
<svg version="1.1" id="레이어_1" xmlns="http://www.w3.org/2000/svg" xmlns:xlink="http://www.w3.org/1999/xlink" x="0px"
	 y="0px" viewBox="0 0 850 250" style="enable-background:new 0 0 850 250;" xml:space="preserve">
<g>
	<g>
		<path style="fill:#FFFFFF;" d="M209,65.8h39.1c30.7,0,48.7,15.3,48.7,39s-18,39-48.7,39h-32.7v40.5H209V65.8z M246.9,137.8
			c27,0,43.5-11.4,43.5-33s-16.5-33-43.5-33h-31.5v66H246.9z"/>
		<path style="fill:#FFFFFF;" d="M312.6,125.1c0-35.7,25.8-61.8,61-61.8s61.3,26.1,61.3,61.8s-25.9,61.8-61.2,61.8
			C338.6,186.9,312.6,160.8,312.6,125.1z M428.5,125.1c0-32.5-23.2-55.8-54.9-55.8c-31.6,0-54.6,23.2-54.6,55.8
			c0,32.4,23.2,55.8,54.7,55.8C405.3,180.9,428.5,157.5,428.5,125.1z"/>
		<path style="fill:#FFFFFF;" d="M543.6,184.3l-30.7-46.5c-3.7,0.6-7.8,0.9-12.1,0.9h-35.1v45.6h-6.4V65.8h41.5
			c29.8,0,47.4,14.2,47.4,36.4c0,17.1-10.3,29.4-28.6,34.2l31.8,47.8L543.6,184.3L543.6,184.3z M541.6,102.3
			c0-19.9-16-30.4-42.1-30.4h-33.9v60.9h33.9C525.6,132.7,541.6,122.2,541.6,102.3z"/>
		<path style="fill:#FFFFFF;" d="M659.7,71.8H614v112.5h-6.5V71.8h-45.9v-6h98.1L659.7,71.8L659.7,71.8z"/>
		<path style="fill:#FFFFFF;" d="M767.4,96.1H761c-1.5-14.5-16-27-39.4-27c-23.5,0-37.2,10-37.2,23.7c0,14.7,12.3,21.7,39.1,27.7
			c30.7,6.9,44.4,16.2,44.4,33.9c0,19.9-20.4,32.4-46.5,32.4c-26.4,0-45.3-14.4-47.1-35.4h6.4c1.7,16.9,17.1,29.4,40.8,29.4
			c23.4,0,39.9-10.6,39.9-25.8c0-16-13-22.5-42.4-29.4c-27.6-6.5-41.1-15.1-41.1-32.8c0-18.3,17.8-29.7,43.6-29.7
			C747.1,63.1,765.9,76.9,767.4,96.1z"/>
	</g>
	<path style="fill:#FFFFFF;" d="M84.3,180.1L84.3,180.1c-2.9-2.9-2.9-7.6,0-10.5l47.5-47.5c0.6-0.6,0.6-1.5,0.1-2L89.2,77.2
		c-2.9-2.9-2.9-7.6,0-10.5l0,0c2.9-2.9,7.6-2.9,10.5,0l42.8,42.8c6.3,6.3,6.3,16.7-0.1,23.1l-47.5,47.5C92,183,87.2,183,84.3,180.1z
		"/>
</g>
</svg>
