<?xml version="1.0" encoding="utf-8"?>
<!-- Generator: Adobe Illustrator 24.0.1, SVG Export Plug-In . SVG Version: 6.00 Build 0)  -->
<svg version="1.1"
	 id="Layer_3" xmlns:cc="http://creativecommons.org/ns#" xmlns:dc="http://purl.org/dc/elements/1.1/" xmlns:rdf="http://www.w3.org/1999/02/22-rdf-syntax-ns#"
	 xmlns="http://www.w3.org/2000/svg" xmlns:xlink="http://www.w3.org/1999/xlink" x="0px" y="0px" viewBox="0 0 598.2 350.3"
	 style="enable-background:new 0 0 598.2 350.3;" xml:space="preserve">
<g>
	<path style="fill:#FFFFFF;" d="M193.9,178.1H94.2C80.9,178.1,70,189,70,202.3V302c0,13.3,10.8,24.2,24.2,24.2h99.7
		c13.3,0,24.2-10.8,24.2-24.2v-99.7C218,189,207.2,178.1,193.9,178.1z M214,302c0,11.1-9.1,20.1-20.2,20.2H94.2
		c-11.1,0-20.1-9.1-20.2-20.2v-99.7c0-11.1,9.1-20.1,20.2-20.2h99.7c11.1,0,20.1,9.1,20.2,20.2L214,302z"/>
	<path style="fill:#FFFFFF;" d="M179.9,192.5h-71.8c-9.2,0-16.7,7.5-16.7,16.7V281c0,9.2,7.5,16.7,16.7,16.7h71.8
		c9.2,0,16.7-7.5,16.7-16.7v-71.8C196.6,200,189.1,192.5,179.9,192.5z M108.1,196.5h71.8c7,0,12.7,5.7,12.7,12.7V281
		c0,7-5.7,12.7-12.7,12.7h-71.8c-7,0-12.7-5.7-12.7-12.7v-71.8C95.4,202.2,101.1,196.5,108.1,196.5z"/>
	<path style="fill:#FFFFFF;" d="M348.9,178.1h-99.7c-13.3,0-24.2,10.8-24.2,24.2V302c0,13.3,10.8,24.2,24.2,24.2h99.7
		c13.3,0,24.2-10.8,24.2-24.2v-99.7C373,189,362.2,178.1,348.9,178.1z M369,302c0,11.1-9.1,20.1-20.2,20.2h-99.7
		c-11.1,0-20.1-9.1-20.2-20.2v-99.7c0-11.1,9.1-20.1,20.2-20.2h99.7c11.1,0,20.1,9.1,20.2,20.2V302z"/>
	<path style="fill:#FFFFFF;" d="M334.9,192.5h-71.8c-9.2,0-16.7,7.5-16.7,16.7V281c0,9.2,7.5,16.7,16.7,16.7h71.8
		c9.2,0,16.7-7.5,16.7-16.7v-71.8C351.6,200,344.1,192.5,334.9,192.5z M263.1,196.5h71.8c7,0,12.7,5.7,12.7,12.7V281
		c0,7-5.7,12.7-12.7,12.7h-71.8c-7,0-12.7-5.7-12.7-12.7v-71.8C250.4,202.2,256.1,196.5,263.1,196.5z"/>
	<path style="fill:#FFFFFF;" d="M348.9,24.1h-99.7C235.9,24.1,225,35,225,48.3V148c0,13.3,10.8,24.2,24.2,24.2h99.7
		c13.3,0,24.2-10.8,24.2-24.2V48.3C373,35,362.2,24.1,348.9,24.1z M249.2,28.1h99.7c11.1,0,20.1,9.1,20.2,20.2V148
		c0,11.1-9.1,20.1-20.2,20.2h-99.7c-11.1,0-20.1-9.1-20.2-20.2V48.3C229,37.2,238.1,28.2,249.2,28.1z"/>
	<path style="fill:#FFFFFF;" d="M263.1,143.7h71.8c9.2,0,16.7-7.5,16.7-16.7V55.2c0-9.2-7.5-16.7-16.7-16.7h-71.8
		c-9.2,0-16.7,7.5-16.7,16.7V127C246.4,136.2,253.9,143.7,263.1,143.7z M347.6,127c0,7-5.7,12.7-12.7,12.7h-71.8
		c-7,0-12.7-5.7-12.7-12.7V55.2c0-7,5.7-12.7,12.7-12.7h71.8c7,0,12.7,5.7,12.7,12.7L347.6,127z"/>
	<path style="fill:#FFFFFF;" d="M503.9,178.1h-99.7c-13.3,0-24.2,10.8-24.2,24.2V302c0,13.3,10.8,24.2,24.2,24.2h99.7
		c13.3,0,24.2-10.8,24.2-24.2v-99.7C528,189,517.2,178.1,503.9,178.1z M524,302c0,11.1-9.1,20.1-20.2,20.2h-99.7
		c-11.1,0-20.1-9.1-20.2-20.2v-99.7c0-11.1,9.1-20.1,20.2-20.2h99.7c11.1,0,20.1,9.1,20.2,20.2V302z"/>
	<path style="fill:#FFFFFF;" d="M489.9,192.5h-71.8c-9.2,0-16.7,7.5-16.7,16.7V281c0,9.2,7.5,16.7,16.7,16.7h71.8
		c9.2,0,16.7-7.5,16.7-16.7v-71.8C506.6,200,499.1,192.5,489.9,192.5z M405.4,281v-71.8c0-7,5.7-12.7,12.7-12.7h71.8
		c7,0,12.7,5.7,12.7,12.7V281c0,7-5.7,12.7-12.7,12.7h-71.8C411.1,293.7,405.4,288,405.4,281z"/>
	<path style="fill:#FFFFFF;" d="M293.8,76.2l-7.1-21.3H279l-6.9,21.8L266,54.9h-11.3l11.8,41.8h9.5l6.9-20.9l7,20.9h9L311,54.9
		h-11.4L293.8,76.2z M305.7,58.9l-9.9,33.8h-3.2l-9.9-29.5l-9.8,29.5h-3.6l-9.5-33.8h3l9,31.9l10-31.9h1.9l10.4,31l8.6-31
		C302.7,58.9,305.7,58.9,305.7,58.9z"/>
	<path style="fill:#FFFFFF;" d="M116,241.5h9.8l3.2,9.1h11.4l-14.9-41.8h-9.4l-14.9,41.8h11.4L116,241.5z M107,246.7l12-33.8h3.7
		l12,33.8h-2.9l-3.2-9.1h-15.4l-3.2,9.1H107z"/>
	<path style="fill:#FFFFFF;" d="M120.8,215.8l-6.7,19.1h13.5L120.8,215.8z M122,230.8h-2.2l1.1-3.1L122,230.8z"/>
	<path style="fill:#FFFFFF;" d="M265,232l2.2,0.9l5.2,1.8c0.6,0.2,1.3,0.4,1.9,0.7s1.1,0.6,1.5,0.9c0.4,0.3,0.7,0.7,1,1.1
		c0.2,0.3,0.3,0.7,0.3,1.1c0,0.8-0.2,1.1-0.7,1.4c-0.4,0.2-1.4,0.7-4,0.7c-2.4,0-4.5-0.3-6.4-1c-1.8-0.7-3.2-1.5-4.1-2.4l-3-2.9
		l-1.4,13.2l1,0.7c1.4,0.9,3.3,1.6,5.7,2.2c2.1,0.5,4.4,0.8,6.9,0.9l0,0h0.8c0.1,0,0.2,0,0.2,0h1l0,0c3.1-0.1,5.6-0.5,7.6-1.3
		c2.3-0.9,4-2,5.2-3.5c1.2-1.4,2-3,2.4-4.6c0.3-1.5,0.5-2.9,0.5-4.1c0-1.6-0.3-3.1-0.9-4.4c-0.6-1.2-1.3-2.4-2.1-3.3
		c-0.8-0.9-1.7-1.7-2.7-2.3c-0.9-0.6-1.9-1.1-2.7-1.4l-2.9-1.1c-1.8-0.7-3.4-1.3-4.8-1.7c-1.2-0.4-2.3-0.8-3.1-1.1
		c-0.8-0.4-1.2-0.7-1.3-0.9c-0.1-0.1-0.2-0.5-0.2-0.9s0.1-0.5,0.2-0.6c0.2-0.3,0.5-0.5,0.8-0.7c0.4-0.2,1-0.4,1.6-0.5
		c0.7-0.1,1.5-0.2,2.3-0.2l0,0c2.8,0,6.2,1.1,10.1,3.2l2.6,1.4l1.1-11.3l-1.1-0.6c-0.6-0.4-1.4-0.7-2.4-1.2c-1-0.4-2-0.7-3.2-1
		c-1.1-0.3-2.3-0.5-3.6-0.7c-1.3-0.2-2.6-0.3-3.9-0.3c-2.6,0-4.9,0.4-6.8,1.1c-2,0.7-3.6,1.7-4.9,3s-2.3,2.7-3,4.3
		c-0.6,1.6-1,3.2-1,5c0.1,2.8,0.8,5,2.2,6.6C260.5,229.7,262.4,231,265,232z M282.4,217c-3.4-1.6-6.5-2.3-9.4-2.3c-1,0-2,0.1-3,0.2
		c-1,0.2-2,0.5-2.8,0.9c-0.9,0.5-1.6,1.1-2.2,1.8c-0.6,0.8-1,1.9-1,3c0,1.4,0.4,2.6,1.2,3.5c0.7,0.8,1.5,1.4,2.7,1.9
		c1,0.4,2.1,0.9,3.5,1.3c1.3,0.4,2.8,0.9,4.5,1.6l2.9,1.1c0.6,0.2,1.3,0.6,2,1s1.3,1,1.9,1.7c0.6,0.6,1,1.4,1.4,2.3
		c0.4,0.8,0.5,1.7,0.5,2.8c0,1-0.1,2.1-0.4,3.3c-0.2,1-0.7,2-1.5,2.9s-2,1.7-3.7,2.4s-4.1,1-7.1,1l0,0h-0.3c-2.4,0-4.6-0.3-6.6-0.8
		c-1.4-0.3-2.6-0.7-3.5-1.1l0.3-3.1c0.8,0.4,1.6,0.8,2.5,1.1c2.3,0.9,4.9,1.3,7.8,1.3c2.7,0,4.6-0.4,6.1-1.3c1.7-1,2.7-2.8,2.7-4.8
		c0-1.1-0.3-2.2-0.9-3.2c-0.5-0.8-1.1-1.6-1.9-2.2c-0.7-0.6-1.5-1-2.3-1.4s-1.6-0.7-2.3-0.9l-5-1.8l-2.1-0.9
		c-1.9-0.8-3.4-1.7-4.2-2.8c-0.8-0.9-1.2-2.4-1.3-4.2c0-1.2,0.2-2.3,0.7-3.4c0.4-1.1,1.1-2,2-2.9s2.1-1.6,3.6-2.1
		c1.5-0.6,3.3-0.8,5.4-0.8c1.1,0,2.2,0.1,3.3,0.2c1.2,0.2,2.3,0.4,3.2,0.6c1,0.2,1.8,0.5,2.6,0.8c0.3,0.1,0.5,0.2,0.7,0.3L282.4,217
		z"/>
	<path style="fill:#FFFFFF;" d="M432.4,215.5L432.4,215.5h-9.3v28.6h9.2h0.1c4.1,0,7.4-1.4,9.7-3.9c2.2-2.5,3.3-6,3.3-10.4
		s-1.1-7.9-3.3-10.4c-2.1-2.4-5.1-3.7-8.7-3.9L432.4,215.5z M427.1,219.5h5.2c3.1,0,5.2,0.8,6.7,2.5c1.6,1.8,2.3,4.3,2.3,7.8
		c0,3.4-0.8,6-2.3,7.8c-1.5,1.7-3.7,2.5-6.7,2.5h-5.2V219.5z M432.3,243.1L432.3,243.1L432.3,243.1L432.3,243.1z"/>
	<path style="fill:#FFFFFF;" d="M440.6,249.2c2.5-1,4.7-2.4,6.6-4.2c1.8-1.8,3.3-4,4.3-6.6s1.5-5.5,1.5-8.6c0-3.2-0.5-6-1.5-8.6
		s-2.5-4.8-4.3-6.6s-4-3.3-6.6-4.2c-2.5-1-5.3-1.5-8.3-1.5h-16.1v41.8h16.1C435.3,250.7,438.1,250.2,440.6,249.2z M447.7,222.6
		c0.8,2.1,1.2,4.5,1.2,7.1c0,2.7-0.4,5.1-1.2,7.2c-0.8,2.1-1.9,3.8-3.4,5.2s-3.2,2.5-5.2,3.3s-4.3,1.2-6.8,1.2h-12.1v-33.8h12.1
		c2.5,0,4.8,0.4,6.8,1.2s3.7,1.9,5.2,3.3C445.8,218.8,446.9,220.6,447.7,222.6z"/>
</g>
</svg>
