<?xml version="1.0" encoding="utf-8"?>
<!-- Generator: Adobe Illustrator 24.0.1, SVG Export Plug-In . SVG Version: 6.00 Build 0)  -->
<svg version="1.1" id="Ebene_2" xmlns="http://www.w3.org/2000/svg" xmlns:xlink="http://www.w3.org/1999/xlink" x="0px" y="0px"
	 viewBox="0 0 566.9 179.3" style="enable-background:new 0 0 566.9 179.3;" xml:space="preserve">
<style type="text/css">
	.st0{fill:#FFFFFF;}
</style>
<g>
	<polygon class="st0" points="566.9,52.4 566.9,0 390.3,0 390.3,7 559.9,7 559.9,45.4 390.3,45.4 390.3,97.8 566.9,97.8 566.9,90.8 
		397.3,90.8 397.3,52.4 	"/>
	<polygon class="st0" points="274,7 364.1,7 364.1,0 266.7,0 266.7,90.8 176.6,90.8 176.6,97.8 274,97.8 	"/>
	<polygon class="st0" points="176.6,0 0,0 0,6.9 169.6,7 169.6,45.4 0,45.4 0,97.8 7,97.8 7,52.4 176.6,52.4 	"/>
	<path class="st0" d="M162.1,132.8c-2.3-1.1-6.4-1.1-6.4-1.1l-11.7,0v34.4h5.4v-31.1h5c0,0,3.6,0,4.8,1.6c1,1.4,1.2,3.9,1.2,5.5
		c0,1.8-0.1,4.6-0.7,5.6c-0.9,1.6-2.4,1.9-3.8,1.9h-3.3v3h4.7c0,0,4.3,0.2,6.1-1.7c2.2-2.3,2.8-5.3,2.8-9.4
		C166.2,137.9,164.9,134.1,162.1,132.8z"/>
	<rect x="170.5" y="131.8" class="st0" width="5.4" height="34.4"/>
	<polygon class="st0" points="217.2,159 210.6,139.8 204.4,139.8 214.2,165.5 208.5,179.3 213,179.3 229.2,139.8 224.3,139.8 	"/>
	<path class="st0" d="M244.8,146.1c-1.8-0.1-3.3-0.3-4.3-0.4c-1.4-0.1-2.3-0.9-2.7-1.8c-0.4-0.9-0.5-2.9-0.5-3.9c0-1,0.5-2.7,1-3.4
		c1-1.1,1.8-1.6,4.4-1.6c1.2,0,6.7,0.2,6.7,0.2V132l-7.5-0.2c0,0-2.4,0-3.8,0.3c-1.2,0.2-2.9,0.7-4,1.8c-1.1,1.1-2.2,3.5-2.2,7.8
		c0,4.3,1.1,5.7,1.8,6.6c0.8,0.9,2.4,2.2,4.9,2.3c1.8,0.1,3.3,0.3,4.3,0.4c1.4,0.1,2.3,0.9,2.7,1.8c0.4,0.9,0.6,3,0.6,4
		c0,1-0.5,3.8-1.1,4.4c-1,1-2.3,1.6-4.9,1.6c-1.2,0-6.9-0.2-6.9-0.2v3.2l8.2,0.2c0,0,2.4,0,3.8-0.3c1.3-0.2,2.9-0.7,4-1.8
		c1.1-1.1,2.2-4.2,2.2-8.5s-1.1-6.3-1.8-7.2C248.9,147.5,247.3,146.2,244.8,146.1z"/>
	<path class="st0" d="M262.6,135.1h-5.4v25.2c0,0,0.1,2.3,0.3,3.1c0.1,0.8,1.3,2.8,4.4,2.8l5.6-0.1v-3.2c0,0-1.5,0.1-2.4,0.1
		c-0.9,0-2-0.1-2.2-1.6c-0.2-1.5-0.2-3.4-0.2-3.4V143h6.1v-3.2h-6.1L262.6,135.1z"/>
	<rect x="314.3" y="139.8" class="st0" width="5.4" height="26.4"/>
	<rect x="314.3" y="131.8" class="st0" width="5.4" height="4.8"/>
	<path class="st0" d="M344.7,141.6c-1.5-1.2-4.4-2.1-8-2.1c-3.7,0-6.5,0.8-8,2.1c-1.5,1.2-3.4,3.8-3.4,11.4c0,7.5,1.9,10.1,3.4,11.4
		c1.5,1.2,4.4,2,8,2c3.7,0,6.5-0.8,8-2c1.5-1.2,3.4-3.8,3.4-11.4C348.1,145.4,346.2,142.8,344.7,141.6z M340.7,161.3
		c-0.7,0.9-2.1,1.5-3.9,1.5c-1.8,0-3.1-0.6-3.8-1.5c-0.7-0.9-1.6-2.8-1.6-8.3c0-5.5,0.9-7.4,1.6-8.3c0.7-0.9,2.1-1.5,3.8-1.5
		c1.8,0,3.1,0.6,3.9,1.5c0.7,0.9,1.6,2.8,1.6,8.3C342.3,158.5,341.4,160.4,340.7,161.3z"/>
	<path class="st0" d="M372.2,141.4c-2.3-1.8-6.3-1.6-6.3-1.6l-12,0.2v26.1h5.3v-22.6l5.3-0.2c1.4,0,3,0.4,3.8,1.4
		c0.7,0.9,1.2,2.1,1.2,3.9v17.6h5.4V148C374.8,144.6,373.8,142.6,372.2,141.4z"/>
	<path class="st0" d="M303.7,135.1h-5.4v25.2c0,0,0.1,2.3,0.3,3.1c0.1,0.8,1.3,2.8,4.4,2.8l5.6-0.1v-3.2c0,0-1.5,0.1-2.4,0.1
		c-0.9,0-2-0.1-2.2-1.6c-0.2-1.5-0.2-3.4-0.2-3.4V143h6v-3.2h-6V135.1z"/>
	<path class="st0" d="M198.9,141.4c-2.3-1.8-6.3-1.6-6.3-1.6l-8.5,0.2v3.5l7.1-0.2c1.4,0,3,0.4,3.8,1.4c0.7,0.9,1.2,2.1,1.2,3.9
		v14.1l-3.5,0.2c-2,0-3.7-0.2-4.7-0.9c-1.1-0.8-1.6-1.9-1.6-4.2c0-1.8,0.4-2.6,1.1-3.6c0.8-1,2.2-1.2,3.6-1.2h1.8v-3h-3.3
		c0,0-4-0.2-6.3,1.6c-1.6,1.2-2.6,3.2-2.6,6.7c0,3.5,1.2,6.1,3.5,7c2.3,1,7,0.9,7,0.9l10.3-0.2v-17.8
		C201.6,144.6,200.5,142.7,198.9,141.4z"/>
	<path class="st0" d="M289.4,141.4c-2.3-1.8-6.3-1.6-6.3-1.6l-8.5,0.2v3.5l7.1-0.2c1.4,0,3,0.4,3.8,1.4c0.7,0.9,1.2,2.1,1.2,3.9h0
		v14.1l-3.5,0.2c-2,0-3.7-0.2-4.7-0.9c-1.1-0.8-1.6-1.9-1.6-4.2c0-1.8,0.4-2.6,1.1-3.6c0.8-1,2.2-1.2,3.6-1.2h1.8v-3h-3.3
		c0,0-4-0.2-6.3,1.6c-1.6,1.2-2.6,3.2-2.6,6.7c0,3.5,1.3,6.1,3.5,7c2.3,1,7,0.9,7,0.9l10.3-0.2v-17.8
		C292,144.6,291,142.7,289.4,141.4z"/>
	<path class="st0" d="M401.6,149c1.2-1.3,3.8-1.6,4.8-1.6l6.4,0.2c5.1,0,7.5-1.6,8.6-3.3c1.3-2,1.5-4.1,1.5-8
		c-0.1-3.8-0.6-5.6-2.1-7.6c-1.4-1.9-4.2-3.2-9.3-3.1c-8.1,0.1-16.1,0.5-16.1,0.5v4.1c0,0,8.2-0.2,15.2-0.2c2.8,0,3.7,0.7,4.7,1.8
		c0.8,0.9,1.3,3,1.3,5.1c0,2.3-0.5,3.7-1.4,4.9c-0.8,1.1-1.9,1.6-4.8,1.6c-0.6,0-1.8,0-3.1-0.1c-1.7,0-3,0-3.6,0.1
		c-3.3,0.2-6.1,1.7-7.2,3.1c-1.7,2-2.2,3.1-2.4,10.9v6.6c0,2.2,1.6,3.3,3.2,3.3l1.1,0H422v-4.4h-21.7V154
		C400.5,151,400.6,150.2,401.6,149z"/>
</g>
</svg>
