<?xml version="1.0" encoding="utf-8"?>
<!-- Generator: Adobe Illustrator 24.0.1, SVG Export Plug-In . SVG Version: 6.00 Build 0)  -->
<svg version="1.1"
	 id="Layer_3" xmlns:cc="http://creativecommons.org/ns#" xmlns:dc="http://purl.org/dc/elements/1.1/" xmlns:rdf="http://www.w3.org/1999/02/22-rdf-syntax-ns#"
	 xmlns="http://www.w3.org/2000/svg" xmlns:xlink="http://www.w3.org/1999/xlink" x="0px" y="0px" viewBox="0 0 598.2 350.3"
	 style="enable-background:new 0 0 598.2 350.3;" xml:space="preserve">
<g>
	<path style="fill:#F4F4F4;" d="M549.7,253.8c-0.7-13.6-1.7-30.5-2.7-47.7c-2-34.7-4.4-72.6-5.4-87.9l-0.1-1l-0.6,0.1
		c-3.5-26.9-18.9-50-40.8-64c-0.2-1-0.4-2.6-0.7-4.6c-0.4-3.3-1-7.8-1.8-12.1c-0.8-4.5-1.6-7.8-2.6-10.5c-0.9-2.7-2.2-5.6-4.6-6.9
		c-2.9-1.6-6.5-3.2-10.8-4.8c-0.1-0.3-0.3-0.8-0.6-1.2c-0.5-0.9-1.5-2-3.2-2.6l-0.2-0.1h0c-6.5-2-14.9-3.1-23.5-3.1l-0.1,0
		c-8.4,0-16.5,1.1-23,3l-0.2,0c-1.7,0.6-2.8,1.6-3.5,2.3c-0.4,0.5-0.7,1-0.9,1.3l-0.1,0.1c0,0,0,0.1-0.1,0.1
		c-3.9,1.4-7.5,3.1-10.7,5c-2.2,1.3-3.9,3.9-5.3,7.8c-1,2.9-1.8,6.5-2.4,11c-0.4,3.1-0.8,6.6-1,10.3c-0.1,0.8-0.1,1.6-0.1,2.2
		c0,0.5-0.1,1-0.1,1.4c0,0.4,0,0.7-0.1,0.9c-5.1,3.2-9.8,6.9-14.2,11H207.8c-4.3-4.1-9.1-7.8-14.1-11c0-0.3,0-0.6-0.1-0.9
		c0-0.4-0.1-0.8-0.1-1.3c0-0.7-0.1-1.4-0.1-2.3c-0.2-3.7-0.6-7.2-1-10.3c-0.6-4.5-1.4-8.1-2.4-11c-1.4-4-3.1-6.5-5.3-7.8
		c-3.3-2-6.9-3.7-10.8-5c0,0,0-0.1,0-0.1l-0.1-0.1c-0.2-0.5-0.5-0.9-0.9-1.3c-0.6-0.7-1.8-1.8-3.5-2.3l-0.2,0
		c-6.5-1.9-14.7-3-23.1-3h0c-8.6,0-16.9,1.1-23.5,3.1l-0.2,0.1c-1.7,0.6-2.7,1.7-3.2,2.6c-0.3,0.5-0.5,0.9-0.6,1.2
		c-4.2,1.5-7.8,3.2-10.8,4.8c-2.3,1.3-3.6,4.2-4.6,6.9c-1,2.7-1.8,6.1-2.6,10.5c-0.8,4.3-1.4,8.8-1.8,12.1c-0.3,2-0.5,3.6-0.7,4.6
		c-21.8,13.9-37.3,37-40.8,63.8l-0.6-0.2l-0.1,1.3c-1,15.6-3.4,54.2-5.4,87.9c-1,16.9-2,34.4-2.8,47.7c-0.8,14.4-1.2,22.5-1.2,24.6
		c0,32.2,26.2,58.4,58.4,58.4c10.4,0,18.7-2.8,25.6-8.5c6.8-5.7,11.7-13.8,15.9-21.7c5.6-10.5,11.9-22.4,17.9-34
		c3.6-6.8,7.1-13.5,10.4-19.9c7.5-14.1,16.5-31.1,20.6-36.9c3.7-5.4,7-8.4,10.9-10.3c3.6-1.7,8.2-2.6,15.5-2.8
		c10-0.3,29.9-0.2,44.5-0.1c5.5,0,10.3,0.1,13.3,0.1h37.3c3.1,0,7.8,0,13.3-0.1c14.5-0.1,34.5-0.3,44.5,0.1
		c7.4,0.3,11.9,1.1,15.5,2.8c3.9,1.9,7.2,5,10.9,10.3c3.9,5.7,12.6,21.9,20.6,36.9c3.2,6.1,6.6,12.6,10.1,19.1
		c6.2,11.8,12.6,24,18.3,34.7c4.3,7.9,9.1,16.1,15.9,21.7c6.8,5.7,15.2,8.5,25.6,8.5c32.2,0,58.4-26.2,58.4-58.4
		C550.9,276.3,550.5,268.2,549.7,253.8z M492.5,333.1c-9.6,0-17-2.4-23.2-7.6c-6.3-5.2-10.9-13-15-20.6
		c-5.8-10.7-12.2-22.9-18.4-34.7c-3.4-6.5-6.8-12.9-10-19c-8.4-15.9-16.7-31.4-20.8-37.3c-4.1-5.9-7.8-9.4-12.3-11.5
		c-4.1-2-9.1-2.9-17-3.2c-10.2-0.4-30.1-0.2-44.7-0.1c-5.5,0-10.2,0.1-13.3,0.1h-37.3c-3,0-7.7,0-13.3-0.1
		c-14.6-0.1-34.5-0.3-44.7,0.1c-8,0.3-12.9,1.2-17,3.2c-4.5,2.1-8.2,5.6-12.3,11.5c-4.1,6-12.5,21.5-20.8,37.3
		c-3.2,6.1-6.6,12.6-10.1,19.1c-6.2,11.8-12.5,23.9-18.3,34.6c-4.1,7.6-8.7,15.4-15,20.6c-6.2,5.2-13.6,7.6-23.2,7.6
		c-30.1,0-54.7-24.5-54.7-54.7c0-1.9,0.4-10.6,1.2-24.4c0.7-13.6,1.7-30.5,2.7-47.7c1.2-20.2,2.5-41.6,3.6-59.1
		c8.6,40.4,44.5,70.8,87.5,70.8c49.3,0,89.4-40.1,89.4-89.4c0-23.5-9.1-45-24.1-60.9h175.4c-14.9,16-24.1,37.4-24.1,60.9
		c0,49.3,40.1,89.4,89.4,89.4c42.9,0,78.9-30.4,87.5-70.9c1.1,17.4,2.4,38.8,3.6,59.1c1,17.3,2,34.2,2.7,47.7
		c0.8,13.8,1.2,22.5,1.2,24.4C547.2,308.5,522.7,333.1,492.5,333.1z M109.7,22.5c7.7-4.1,20.2-9,36.5-9c13.8,0,26.8,3.2,36.6,9.1
		c1.4,0.8,2.7,2.9,3.7,5.8c0.9,2.6,1.7,6.1,2.3,10.3c0.4,3,0.7,6.2,1,10.1c0,0.7,0.1,1.4,0.1,2c-12.9-7.3-27.8-11.4-43.7-11.4
		c-15.9,0-30.8,4.2-43.7,11.4c0.1-0.6,0.2-1.3,0.3-2.1c0.4-3.3,1-7.4,1.7-11.5c0.7-4.1,1.6-7.4,2.4-9.9
		C107.9,24.5,109,22.9,109.7,22.5z M101.6,55.5L101.6,55.5L101.6,55.5c13-7.9,28.2-12.5,44.5-12.5c16.1,0,31.2,4.5,44.1,12.3l0,0.2
		l0.2-0.1c24.7,15,41.3,42.3,41.3,73.3c0,47.2-38.4,85.7-85.7,85.7s-85.7-38.4-85.7-85.7C60.5,97.8,77,70.6,101.6,55.5z M392.3,67.8
		v-0.2c4.7-4.6,9.9-8.7,15.6-12.1l0.2,0.1l0-0.2c12.9-7.8,28-12.3,44.1-12.3c16.3,0,31.5,4.6,44.5,12.5l0,0l0,0
		c24.7,15.1,41.1,42.2,41.1,73.2c0,47.2-38.4,85.7-85.7,85.7c-47.2,0-85.7-38.4-85.7-85.7c0-23.8,9.8-45.4,25.5-60.9H392.3z
		 M452.3,13.5c16.3,0,28.8,4.9,36.5,9c0.7,0.4,1.8,2,2.8,4.9c0.9,2.5,1.7,5.8,2.4,9.9c0.7,4.1,1.3,8.2,1.7,11.4
		c0.1,0.7,0.2,1.4,0.3,2.1c-12.9-7.3-27.8-11.4-43.7-11.4c-15.8,0-30.7,4.1-43.6,11.4c0-0.6,0.1-1.3,0.1-2c0.3-3.8,0.6-7.1,1-10.1
		c0.6-4.2,1.3-7.7,2.3-10.3c1-2.9,2.3-5,3.7-5.8C425.4,16.7,438.4,13.5,452.3,13.5z"/>
	<path style="fill:#F4F4F4;" d="M82.5,153h37.1v37.1c0,2.6,2.1,4.7,4.7,4.7h43.5c2.6,0,4.7-2.1,4.7-4.7V153h37.1
		c2.6,0,4.7-2.1,4.7-4.7v-43.6c0-2.6-2.1-4.7-4.7-4.7h-37.1V62.9c0-2.6-2.1-4.7-4.7-4.7h-43.5c-2.6,0-4.7,2.1-4.7,4.7V100H82.5
		c-2.6,0-4.7,2.1-4.7,4.7v43.6C77.8,150.9,79.9,153,82.5,153z M123.4,101.8V62.9c0-0.6,0.5-1,1-1h2.1l0,0h41.4c0.6,0,1,0.5,1,1v38.9
		l1.5,1.9h39.4c0.6,0,1,0.4,1,1v43.6c0,0.6-0.5,1-1,1h-39.5l-1.3,1.9v38.9c0,0.6-0.5,1-1,1h-43.5c-0.6,0-1-0.5-1-1V151l-1.6-1.6
		H82.5c-0.6,0-1-0.4-1-1v-43.6c0-0.6,0.4-1,1-1h39.3L123.4,101.8z"/>
	<path style="fill:#F4F4F4;" d="M384.9,103.4v44.5c0,2.6,2.2,4.8,4.8,4.8h38v38c0,2.6,2.2,4.8,4.8,4.8H477c2.6,0,4.8-2.2,4.8-4.8
		v-38h38c2.6,0,4.8-2.2,4.8-4.8v-44.5c0-2.6-2.2-4.8-4.8-4.8h-38v-38c0-2.6-2.2-4.8-4.8-4.8l-44.5,0c-2.6,0-4.8,2.2-4.8,4.8v38h-38
		C387,98.6,384.9,100.8,384.9,103.4z M478,82c-0.2-5.9-2.6-11.5-6.8-15.7c-3.8-3.8-8.8-6.2-14.1-6.7H477c0.6,0,1.1,0.5,1.1,1.1V82z
		 M474.3,82.8c0,10.8-8.8,19.6-19.6,19.6s-19.6-8.8-19.6-19.6c0-10.8,8.8-19.6,19.6-19.6C465.5,63.1,474.3,71.9,474.3,82.8z
		 M431.4,82.1V60.6c0-0.6,0.5-1.1,1.1-1.1h19.8C440.8,60.7,431.7,70.3,431.4,82.1z M431,100.8l0.3-0.5V83.4
		c0.4,12.6,10.7,22.7,23.3,22.7c12.6,0,23-10.1,23.3-22.6v16.9l1.5,1.9h17.2c-12.4,0.5-22.4,10.8-22.4,23.3
		c0,12.6,10,22.9,22.5,23.3h-17.3l-1.4,2v16.9c-0.4-12.6-10.7-22.7-23.3-22.7c-12.6,0-23,10.1-23.3,22.6v-17.2l-1.7-1.7h-17.3
		c12.6-0.3,22.8-10.7,22.8-23.3c0-12.6-10-22.9-22.5-23.3h17.2L431,100.8z M517.2,125.6c0,10.8-8.8,19.6-19.6,19.6
		c-10.8,0-19.6-8.8-19.6-19.6c0-10.8,8.8-19.6,19.6-19.6C508.4,106,517.2,114.8,517.2,125.6z M520.8,128.1v19.8
		c0,0.6-0.5,1.1-1.1,1.1h-21.4C510.1,148.6,519.6,139.5,520.8,128.1z M520.8,103.4v19.8c-1.2-11.5-10.7-20.5-22.4-20.9h21.3
		C520.3,102.3,520.8,102.8,520.8,103.4z M431.4,169.3c0.4,11.7,9.4,21.3,20.9,22.5h-19.8c-0.6,0-1.1-0.5-1.1-1.1V169.3z
		 M435.1,168.5c0-10.8,8.8-19.6,19.6-19.6c10.8,0,19.6,8.8,19.6,19.6c0,10.8-8.8,19.6-19.6,19.6S435.1,179.4,435.1,168.5z
		 M478,169.2v21.4c0,0.6-0.5,1.1-1.1,1.1h-19.8C468.7,190.5,477.7,181,478,169.2z M388.6,147.9V128c1.2,11.6,10.8,20.6,22.6,20.9
		h-21.6C389.1,149,388.6,148.5,388.6,147.9z M392.2,125.6c0-10.8,8.8-19.6,19.6-19.6c10.8,0,19.6,8.8,19.6,19.6
		c0,10.8-8.8,19.6-19.6,19.6C401,145.3,392.2,136.5,392.2,125.6z M388.6,123.3v-19.9c0-0.6,0.5-1.1,1.1-1.1H411
		C399.3,102.7,389.8,111.8,388.6,123.3z"/>
	<path style="fill:#F4F4F4;" d="M139.4,116.1l0.6,1.1l0.3-0.2c1.6,1.5,3.7,2.4,5.9,2.4c2.3,0,4.5-0.9,6.1-2.6l0.1,0.1l0.6-0.9
		l11.3-12l0.2-0.2l0.1-0.2c0.6-1.1,0.8-2.2,0.8-3.5V85.6c0-4.2-3.4-7.6-7.6-7.6h-23.4l-0.1,0c-4.1,0.1-7.5,3.5-7.5,7.6V100
		c0,1.3,0.3,2.6,1,3.7L139.4,116.1z M134.5,81.7l23.4,0c2.2,0,3.9,1.8,3.9,3.9V100c0,0.6-0.1,1.1-0.3,1.6l-11.3,11.9l-0.1,0.2l0,0.1
		c-0.9,1.2-2.3,1.9-3.8,1.9c-1.5,0-2.9-0.7-3.8-1.8l-11.4-12c-0.3-0.5-0.4-1.1-0.4-1.8l0-14.4C130.6,83.5,132.3,81.7,134.5,81.7z"/>
	<path style="fill:#F4F4F4;" d="M104.6,107.2L104.6,107.2c-3.9,0.4-7,3.7-7,7.6v23.4c0,4.2,3.4,7.6,7.6,7.6h14.4
		c1.3,0,2.6-0.3,3.6-0.9l0.2-0.1l12.2-11.6l0.1-0.1c2-1.6,3.1-4,3.1-6.6c0-2.3-0.9-4.5-2.6-6.1l0.1-0.1l-0.8-0.6l-12-11.4l-0.4-0.3
		c-1.1-0.6-2.2-0.8-3.5-0.8H104.6z M135.3,126.5c0,1.5-0.7,2.9-1.8,3.8l-12,11.4c-0.5,0.3-1.1,0.4-1.7,0.4h-14.4
		c-2.2,0-3.9-1.7-3.9-3.9v-23.4c0-2.2,1.8-3.9,3.9-3.9h14.4c0.6,0,1.2,0.1,1.7,0.4l11.7,11.1l0.1,0.2l0.2,0.1
		C134.6,123.6,135.3,125,135.3,126.5z"/>
	<path style="fill:#F4F4F4;" d="M152.9,136.9l-0.1-0.1c-1.6-2-4.1-3.1-6.6-3.1h0c-2.6,0-5.1,1.2-6.7,3.3L128,149.1l-0.2,0.2
		l-0.1,0.2c-0.5,1.1-0.8,2.3-0.8,3.5v14.4c0,4.2,3.4,7.6,7.6,7.6h23.4c4.2,0,7.6-3.4,7.6-7.6V153c0-1.3-0.3-2.6-1-3.7L152.9,136.9z
		 M142.2,139.5l0.1-0.2c0.9-1.2,2.3-1.9,3.9-1.9c1.5,0,2.9,0.7,3.8,1.8l11.4,12c0.3,0.6,0.4,1.1,0.4,1.7v14.4c0,2.2-1.7,3.9-3.9,3.9
		h-23.4c-2.2,0-3.9-1.7-3.9-3.9V153c0-0.6,0.1-1.1,0.3-1.6L142.2,139.5z"/>
	<path style="fill:#F4F4F4;" d="M156.5,119.9c-2,1.6-3.1,4-3.1,6.6c0,2.7,1.2,5.1,3.3,6.8l12.1,11.4l0.2,0.2l0.2,0.1
		c1.1,0.5,2.3,0.8,3.5,0.8h14.4c4.2,0,7.6-3.4,7.6-7.6v-23.4c0-4.2-3.4-7.6-7.6-7.6l-14.4,0c-1.3,0-2.6,0.3-3.7,0.9l-0.3,0.1
		L156.5,119.9L156.5,119.9z M158.9,122.7l11.9-11.3c0.6-0.3,1.2-0.5,1.9-0.5h14.4c2.2,0,3.9,1.7,3.9,3.9v23.4c0,2.2-1.7,3.9-3.9,3.9
		h-14.4c-0.5,0-1.1-0.1-1.6-0.3l-11.9-11.2l-0.2-0.1c-1.2-0.9-1.9-2.3-1.9-3.9C157.1,125,157.8,123.6,158.9,122.7z"/>
	<path style="fill:#F4F4F4;" d="M278.2,149.7l-20.5,0c-2.9,0-5.2,2.3-5.2,5.2v12.2c0,2.9,2.3,5.2,5.2,5.2h20.5c2.2,0,4-1.4,4.8-3.4
		h0.4v-14C283.4,152.1,281.1,149.7,278.2,149.7z M256.2,154.9c0-0.9,0.7-1.5,1.5-1.5h20.5c0.8,0,1.5,0.7,1.5,1.5v12.2
		c0,0.9-0.7,1.5-1.5,1.5h-20.5c-0.8,0-1.5-0.7-1.5-1.5V154.9z"/>
	<path style="fill:#F4F4F4;" d="M349,156.4l-0.1-0.1l-22.6-6.3c-0.5-0.2-1.1-0.3-1.6-0.3c-2.8,0-5,2.2-5,5v12.8c0,2.8,2.2,5,5,5
		c0.2,0,0.4,0,0.6,0v0.2l1.4-0.6l22.1-6.8l0.3-0.1l0.1-0.1c1.5-0.9,2.5-2.5,2.5-4.3C351.6,159,350.6,157.3,349,156.4z M323.4,167.5
		v-12.8c0-0.3,0.1-0.7,0.4-0.9c0.2-0.2,0.6-0.4,0.9-0.4h0h0c0.1,0,0.2,0,0.3,0l0.2,0.1h0.3l22,6.2c0.3,0.2,0.5,0.6,0.5,1
		c0,0.4-0.2,0.8-0.6,1l-21.7,6.7l-0.3,0.1c-0.2,0.1-0.4,0.1-0.5,0.1C324,168.8,323.4,168.2,323.4,167.5z"/>
</g>
</svg>
