<?xml version="1.0" encoding="utf-8"?>
<!-- Generator: Adobe Illustrator 24.0.1, SVG Export Plug-In . SVG Version: 6.00 Build 0)  -->
<svg version="1.1" id="Layer_2" xmlns="http://www.w3.org/2000/svg" xmlns:xlink="http://www.w3.org/1999/xlink" x="0px" y="0px"
	 viewBox="0 0 598.2 350.3" style="enable-background:new 0 0 598.2 350.3;" xml:space="preserve">
<g>
	<path style="fill:#F4F4F4;" d="M132.7,273.8l330.3,0c2.3,0,4.1-1.9,4.1-4.1V82c0-2.3-1.9-4.1-4.1-4.1H132.7c-2.3,0-4.2,1.9-4.2,4.2
		v187.7C128.5,272,130.4,273.8,132.7,273.8z M463.1,269.7c0,0.1-0.1,0.2-0.1,0.2l-330.3,0c-0.1,0-0.2-0.1-0.2-0.1V82
		c0-0.1,0.1-0.2,0.2-0.2H463c0.1,0,0.2,0.1,0.2,0.2V269.7z"/>
	<path style="fill:#F4F4F4;" d="M103.2,122.6h6.8c2.8,0,5.1-2.3,5.1-5.1s-2.3-5.1-5.1-5.1h-6.8c-2.8,0-5.1,2.3-5.1,5.1
		S100.4,122.6,103.2,122.6z"/>
	<path style="fill:#F4F4F4;" d="M486.2,122.6h6.8c2.8,0,5.1-2.3,5.1-5.1s-2.3-5.1-5.1-5.1h-6.8c-2.8,0-5.1,2.3-5.1,5.1
		S483.3,122.6,486.2,122.6z"/>
	<path style="fill:#F4F4F4;" d="M74.8,224c-12.3,0-22.3,10-22.3,22.3c0,12.3,10,22.3,22.3,22.3c12.3,0,22.3-10,22.3-22.3
		C97.1,234,87.1,224,74.8,224z M74.8,264.6c-10.1,0-18.3-8.2-18.3-18.3c0-10.1,8.2-18.3,18.3-18.3c10.1,0,18.3,8.2,18.3,18.3
		C93.1,256.4,84.9,264.6,74.8,264.6z"/>
	<path style="fill:#F4F4F4;" d="M67,162.6l0.1,0.1c0.9,0.7,1.9,1.2,3.1,1.3v0.1h0.7c0,0,0.1,0,0.1,0l1.2,0V164
		c1.1-0.2,2.1-0.6,2.9-1.3l9.6-9.8c1-1.1,1.6-2.6,1.6-4.1v-16.4c0-1.1-0.4-2.1-1.2-3c-0.6-0.6-1.3-1-2.1-1.2
		c-3.5-1-7.3-1.4-11.8-1.4H71c-4.5,0-8.3,0.5-11.8,1.4c-0.8,0.2-1.4,0.6-2.1,1.2c-0.8,0.8-1.2,1.9-1.2,3v16.4c0,1.5,0.5,2.9,1.6,4.1
		L67,162.6z M82,132.1c0.2,0,0.2,0,0.3,0.2c0,0,0,0,0,0.1v16.4c0,0.5-0.2,1-0.5,1.4l-9.3,9.5c-0.4,0.3-0.8,0.4-1.3,0.4h-0.1
		c-0.5,0-0.9-0.2-1.3-0.4l-9.3-9.5c-0.3-0.4-0.5-0.9-0.5-1.4v-16.4c0,0,0-0.1,0-0.1c0.1-0.1,0.2-0.1,0.3-0.2
		c3.1-0.9,6.7-1.3,10.8-1.3h0.2C75.3,130.8,78.8,131.2,82,132.1z"/>
	<path style="fill:#F4F4F4;" d="M75.2,175l-0.1-0.1c-0.9-0.7-1.9-1.2-3.1-1.3v-0.1h-0.8c0,0-0.1,0-0.1,0l-0.1,0c-0.1,0-0.1,0-0.2,0
		l-0.8,0v0.1c-1.1,0.2-2.1,0.6-3,1.4l-9.6,9.8c-1,1.2-1.6,2.6-1.6,4.1v16.4c0,1.1,0.4,2.2,1.2,3c0.6,0.6,1.3,1,2.1,1.2
		c3.5,0.9,7.3,1.4,11.8,1.4l0.1,0c4.5,0,8.3-0.5,11.8-1.4c0.8-0.2,1.4-0.6,2.1-1.2c0.8-0.8,1.2-1.9,1.2-3l0-16.4
		c0-1.5-0.5-2.9-1.6-4.1L75.2,175z M60.3,205.5c-0.2,0-0.2-0.1-0.3-0.2c0,0,0,0,0-0.1v-16.4c0-0.5,0.2-1,0.5-1.4l9.3-9.5
		c0.4-0.3,0.8-0.4,1.3-0.4h0.2c0.5,0,0.9,0.2,1.2,0.4l9.3,9.5c0.3,0.4,0.5,0.9,0.5,1.4v16.4c0,0,0,0.1,0,0.1
		c-0.1,0.1-0.2,0.1-0.3,0.2c-3.1,0.9-6.7,1.3-10.8,1.3H71C66.9,206.8,63.4,206.4,60.3,205.5z"/>
	<path style="fill:#F4F4F4;" d="M111.7,156.9c-0.2-0.8-0.6-1.4-1.2-2.1c-0.8-0.8-1.9-1.2-3-1.2H91.2c-1.5,0-2.9,0.5-4.1,1.6
		l-9.8,9.5l-0.1,0.1c-0.9,1.1-1.4,2.5-1.4,3.9v0.2c0,1.4,0.5,2.8,1.4,3.9l9.8,9.6c1.2,1,2.6,1.6,4.1,1.6c0,0,0,0,0,0l16.4,0
		c1.1,0,2.1-0.4,3-1.2c0.6-0.6,1-1.3,1.2-2.1c1-3.5,1.4-7.3,1.4-11.8v-0.2C113.1,164.3,112.7,160.4,111.7,156.9z M89.8,179.4
		l-9.5-9.3c-0.3-0.4-0.4-0.8-0.4-1.3v-0.2c0-0.5,0.2-0.9,0.4-1.3l9.5-9.3c0.4-0.3,0.9-0.5,1.4-0.5h16.4c0,0,0.1,0,0.1,0
		c0.1,0.1,0.1,0.2,0.2,0.3c0.9,3.1,1.3,6.7,1.3,10.8v0.2c0,4.1-0.4,7.6-1.3,10.8c0,0.2-0.1,0.2-0.2,0.3c0,0,0,0-0.1,0l-16.4,0
		C90.7,180,90.2,179.8,89.8,179.4z"/>
	<path style="fill:#F4F4F4;" d="M65,172.8c0.9-1.1,1.4-2.5,1.4-3.9l0-0.1c0-1.4-0.5-2.8-1.4-3.9l-9.8-9.6c-1.2-1-2.6-1.6-4.1-1.6
		H34.7c-1.1,0-2.1,0.4-3,1.2c-0.6,0.6-1,1.3-1.2,2.1c-1,3.5-1.4,7.3-1.4,11.8v0.2c0,4.5,0.5,8.3,1.4,11.8c0.2,0.8,0.6,1.4,1.2,2.1
		c0.8,0.8,1.9,1.2,3,1.2c0,0,0,0,0,0l16.4,0c1.5,0,2.9-0.5,4.1-1.6l9.8-9.5L65,172.8z M34.4,158c0-0.1,0.1-0.2,0.2-0.3
		c0,0,0,0,0.1,0h16.4c0.5,0,1,0.2,1.4,0.5l9.5,9.3c0.3,0.4,0.4,0.8,0.4,1.3v0.1c0,0.5-0.2,0.9-0.4,1.3l-9.5,9.3
		c-0.4,0.3-0.9,0.5-1.4,0.5H34.7c0,0-0.1,0-0.1,0c0,0,0,0,0,0c-0.1-0.1-0.1-0.2-0.2-0.3c-0.9-3.1-1.3-6.7-1.3-10.8v-0.2
		C33.1,164.6,33.6,161.1,34.4,158z"/>
	<path style="fill:#F4F4F4;" d="M71.1,122.2c-25.7,0-46.5,20.9-46.5,46.5c0,25.7,20.9,46.5,46.5,46.5c25.7,0,46.5-20.9,46.5-46.5
		C117.7,143.1,96.8,122.2,71.1,122.2z M71.1,211.3c-11.4,0-22-4.4-30.1-12.5c-8-8-12.5-18.7-12.5-30.1c0-11.4,4.4-22,12.5-30.1
		c8-8,18.7-12.5,30.1-12.5c11.4,0,22,4.4,30.1,12.5c8,8,12.5,18.7,12.5,30.1c0,11.4-4.4,22-12.5,30.1
		C93.2,206.9,82.5,211.3,71.1,211.3z"/>
	<path style="fill:#F4F4F4;" d="M560.7,151.7c-3.6-7.3-9.5-13.3-16.6-17.1c-0.6-9.5-8.5-17-18.1-17c-9.4,0-17.2,7.2-18.1,16.4
		c-7.3,3.6-13.3,9.5-17.1,16.6c-9.5,0.6-17,8.5-17,18.1c0,9.4,7.2,17.2,16.4,18.1c3.6,7.3,9.5,13.3,16.6,17.1
		c0.6,9.5,8.5,17,18.1,17c9.4,0,17.2-7.2,18.1-16.4c7.3-3.6,13.3-9.5,17.1-16.6c9.5-0.6,17-8.5,17-18.1
		C577.1,160.4,569.8,152.6,560.7,151.7z M506.1,168.8c0,7.8-6.4,14.2-14.2,14.2c-7.8,0-14.2-6.4-14.2-14.2c0-7.8,6.4-14.2,14.2-14.2
		C499.8,154.6,506.1,161,506.1,168.8z M524.9,188.6c7.7,0,14,6.2,14.2,13.9v0.2c0,7.8-6.4,14.2-14.2,14.2c-7.8,0-14.2-6.4-14.2-14.2
		C510.7,195,517.1,188.6,524.9,188.6z M542.8,200.1c-1.3-8.8-8.8-15.5-18-15.5c-8.9,0-16.3,6.5-17.9,14.9
		c-5.1-3.1-9.4-7.6-12.4-12.8c8.8-1.3,15.5-8.8,15.5-18c0-8.9-6.5-16.3-14.9-17.9c3.1-5.1,7.6-9.4,12.8-12.4
		c1.3,8.8,8.8,15.5,18,15.5c8.9,0,16.3-6.5,17.9-14.9c5.1,3.1,9.4,7.6,12.4,12.8c-8.8,1.3-15.5,8.8-15.5,18
		c0,8.9,6.5,16.3,14.9,17.9C552.5,192.8,548.1,197.1,542.8,200.1z M525.9,150c-7.8,0-14.2-6.4-14.2-14.2c0-7.8,6.4-14.2,14.2-14.2
		c7.8,0,14.2,6.4,14.2,14.2C540.1,143.7,533.7,150,525.9,150z M557.7,183.9c-7.2-0.6-13-6.7-13-14.1c0-7.8,6.4-14.2,14.2-14.2
		c7.8,0,14.2,6.4,14.2,14.2c0,7.8-6.3,14.1-14.1,14.2v-2.6L557.7,183.9z"/>
	<path style="fill:#F4F4F4;" d="M179.6,280.6h-5.2c-4.8,0-8.8,3.9-8.8,8.8c0,4.5,3.4,8.2,7.8,8.7v0.1h2h4.2c4.8,0,8.8-3.9,8.8-8.8
		C188.4,284.6,184.4,280.6,179.6,280.6z M174.4,284.6h5.2c2.6,0,4.8,2.1,4.8,4.8c0,2.6-2.1,4.8-4.8,4.8h-5.2c-2.6,0-4.8-2.1-4.8-4.8
		C169.7,286.8,171.8,284.6,174.4,284.6z"/>
	<path style="fill:#F4F4F4;" d="M217.2,280.6h-5.2c-4.8,0-8.8,3.9-8.8,8.8c0,4.5,3.4,8.2,7.8,8.7v0.1h2h4.2c4.8,0,8.8-3.9,8.8-8.8
		S222.1,280.6,217.2,280.6z M212.1,284.6h5.2c2.6,0,4.8,2.1,4.8,4.8c0,2.6-2.1,4.8-4.8,4.8h-5.2c-2.6,0-4.8-2.1-4.8-4.8
		C207.3,286.8,209.5,284.6,212.1,284.6z"/>
	<path style="fill:#F4F4F4;" d="M387.8,280.6h-5.2c-4.8,0-8.8,3.9-8.8,8.8c0,4.5,3.4,8.2,7.8,8.7v0.1h2h4.2c4.8,0,8.8-3.9,8.8-8.8
		C396.5,284.6,392.6,280.6,387.8,280.6z M382.6,284.6h5.2c2.6,0,4.8,2.1,4.8,4.8c0,2.6-2.1,4.8-4.8,4.8h-5.2c-2.6,0-4.8-2.1-4.8-4.8
		C377.8,286.8,380,284.6,382.6,284.6z"/>
	<path style="fill:#F4F4F4;" d="M363.2,280.6H358c-4.8,0-8.8,3.9-8.8,8.8c0,4.5,3.4,8.2,7.8,8.7v0.1h2h4.2c4.8,0,8.8-3.9,8.8-8.8
		S368,280.6,363.2,280.6z M358,284.6h5.2c2.6,0,4.8,2.1,4.8,4.8c0,2.6-2.1,4.8-4.8,4.8H358c-2.6,0-4.8-2.1-4.8-4.8
		C353.2,286.8,355.4,284.6,358,284.6z"/>
	<path style="fill:#F4F4F4;" d="M557.7,85.2c-0.4-0.5-0.9-0.9-1.4-1.2l-0.4-0.7c-1.3-2.2-3.8-6.2-5.3-8.4
		c-5.1-7.7-13.7-12.3-23-12.3h-39.1c-1-0.2-2.1-0.4-3.2-0.4H110.9c-1.1,0-2.2,0.1-3.2,0.4H68.1c-9.3,0-17.9,4.6-23,12.3
		c-1.5,2.1-4,6.2-5.3,8.4L39,84.7c-0.2,0.2-0.4,0.4-0.6,0.6c-19.2,23.3-30.7,66.2-30.7,94.2v8.2c0,28,11.5,70.9,30.7,94.2
		c0.5,0.6,1.2,1.1,2,1.4l0.2,0.3c1.3,2.2,3.9,6.3,5.4,8.4c5.1,7.7,13.7,12.3,23,12.3l38.7,0c1,0.2,2.1,0.4,3.2,0.4h374.4
		c3.5,0,6.8-1.2,8.9-3.3c2.2-2.3,4.8-5.3,7.1-8.1l1-1.3c1.6-2,3.1-3.8,3.5-4.2c2.9-2.8,6.7-4.3,10.5-4.3v-0.1
		c0.8,0.1,2.1,0.1,4.6,0.1l10.7,0c8.2,0,17.5,0,22.1,0c1.6,0,3.1-0.7,4.1-1.8c19.2-23.3,30.7-66.2,30.7-94.2v-8.2
		C588.4,151.4,576.9,108.6,557.7,85.2z M553.7,279.6c-8.5,0-33.9-0.1-37-0.1l-0.3,0c-4.9,0-9.6,1.9-13.3,5.4c-0.6,0.6-1.8,2-3.4,3.9
		l-1.6,1.9c-2.1,2.5-4.7,5.7-6.8,7.8c-1,1-3.1,2.1-6,2.1c0,0,0,0,0,0H110.9c0,0,0,0,0,0c-0.8,0-1.5-0.1-2.2-0.2v-0.1l-0.5,0
		c-1.5-0.4-2.7-1.1-3.3-1.8c-2.1-2.1-4.8-5.3-6.8-7.8l-1.6-1.9c-1.6-1.9-2.7-3.3-3.4-3.9c-3.7-3.5-8.4-5.4-13.3-5.4l-0.3,0
		c-3,0-27.7,0.1-36.6,0.1l-0.1-0.1l-0.2,0.1c0,0-0.1,0-0.1,0c-0.5,0-0.8-0.2-1-0.3C23,257,11.6,214.3,11.7,187.6v-8.2
		c0-26.7,11.4-69.3,29.8-91.7c0.1-0.1,0.2-0.2,0.3-0.2l0.1,0l0-0.1c0.2,0,0.3-0.1,0.5-0.1c0,0,0,0,0,0c8.5,0,34,0.1,37,0.1l0.3,0
		c0,0,0,0,0,0c4.9,0,9.6-1.9,13.3-5.4c0.6-0.6,1.8-2,3.4-3.9l1.6-1.9c2.1-2.5,4.7-5.7,6.9-7.8c1-1,3.1-2.1,6-2.1c0,0,0,0,0,0h374.4
		c0,0,0,0,0,0c1,0,1.8,0.1,2.6,0.3v0h0.1c1.5,0.4,2.7,1.1,3.3,1.8c2.1,2.1,4.8,5.3,6.8,7.8l1.6,1.9c1.6,1.9,2.7,3.3,3.4,3.9
		c3.7,3.5,8.4,5.4,13.3,5.4c0,0,0,0,0,0l0.3,0c3.2,0,28.5-0.1,37-0.1l0.1,0.1l0.2-0.1c0.3,0,0.6,0.2,0.7,0.3
		c18.4,22.3,29.8,64.9,29.8,91.6v8.2c0,26.7-11.4,69.3-29.8,91.7C554.5,279.4,554.2,279.6,553.7,279.6z M79.8,283.5
		c3.9,0,7.6,1.5,10.6,4.3c0.4,0.4,1.9,2.2,3.5,4.1l1.1,1.3c1.8,2.2,4.1,4.9,6.1,7l-32,0c0,0,0,0,0,0c-7.9,0-15.3-3.9-19.7-10.6
		c-1-1.5-2.6-4-4-6.1C56.4,283.6,79.8,283.5,79.8,283.5z M547.3,77.3c1,1.5,2.6,4,4,6.1c-10.8,0-34.8,0.1-34.8,0.1
		c-3.9,0-7.6-1.5-10.6-4.3c-0.4-0.4-1.9-2.2-3.4-4.1l-1.1-1.4c-1.9-2.3-4.1-4.9-6.1-7h32.4C535.5,66.8,542.8,70.7,547.3,77.3
		L547.3,77.3z M68.1,66.8C68.1,66.8,68.1,66.8,68.1,66.8H101c-2,2.1-4.1,4.7-6.1,7l-1.1,1.4c-1.6,1.9-3.1,3.7-3.5,4.1
		c-2.9,2.8-6.7,4.3-10.5,4.3v0.1c-0.8-0.1-2.1-0.1-4.6-0.1l-10.7,0c-7.1,0-15.1,0-20.1,0c1.3-2.1,2.9-4.6,3.9-6.1
		C52.8,70.7,60.1,66.8,68.1,66.8z"/>
	<path style="fill:#F4F4F4;" d="M144,278.6h-17.4c-5.9,0-10.7,4.8-10.7,10.7c0,5.6,4.3,10.1,9.7,10.6l18.4,0
		c5.9,0,10.7-4.8,10.7-10.7C154.6,283.4,149.9,278.6,144,278.6z M150.6,289.3c0,3.7-3,6.7-6.7,6.7h-17.4c-3.7,0-6.7-3-6.7-6.7
		c0-3.7,3-6.7,6.7-6.7l17.4,0C147.6,282.6,150.6,285.6,150.6,289.3z"/>
	<path style="fill:#F4F4F4;" d="M469,278.6h-17.4c-5.3,0-9.7,3.9-10.5,8.9c-0.8-5.1-5.2-8.9-10.5-8.9h-17.4
		c-5.9,0-10.7,4.8-10.7,10.7c0,5.6,4.3,10.1,9.7,10.6l18.4,0c5.3,0,9.7-3.9,10.5-8.9c0.8,4.7,4.7,8.4,9.5,8.9l18.4,0
		c5.9,0,10.7-4.8,10.7-10.7C479.7,283.4,474.9,278.6,469,278.6z M451.7,282.6H469c3.7,0,6.7,3,6.7,6.7c0,3.7-3,6.7-6.7,6.7h-17.4
		c-3.7,0-6.7-3-6.7-6.7C445,285.6,448,282.6,451.7,282.6z M413.3,282.6h17.4c3.7,0,6.7,3,6.7,6.7c0,3.7-3,6.7-6.7,6.7l-17.4,0
		c-3.7,0-6.7-3-6.7-6.7C406.6,285.6,409.6,282.6,413.3,282.6z"/>
</g>
</svg>
