<?xml version="1.0" encoding="utf-8"?>
<!-- Generator: Adobe Illustrator 24.0.1, SVG Export Plug-In . SVG Version: 6.00 Build 0)  -->
<svg version="1.1"
	 id="svg2" sodipodi:docname="psx.svg" xmlns:cc="http://creativecommons.org/ns#" xmlns:dc="http://purl.org/dc/elements/1.1/" xmlns:inkscape="http://www.inkscape.org/namespaces/inkscape" xmlns:rdf="http://www.w3.org/1999/02/22-rdf-syntax-ns#" xmlns:sodipodi="http://sodipodi.sourceforge.net/DTD/sodipodi-0.dtd" xmlns:svg="http://www.w3.org/2000/svg"
	 xmlns="http://www.w3.org/2000/svg" xmlns:xlink="http://www.w3.org/1999/xlink" x="0px" y="0px" viewBox="0 0 567.3 153.3"
	 style="enable-background:new 0 0 567.3 153.3;" xml:space="preserve">
<sodipodi:namedview  bordercolor="#666666" borderopacity="1" gridtolerance="10" guidetolerance="10" id="namedview14" inkscape:current-layer="svg2" inkscape:cx="129.10015" inkscape:cy="56.515999" inkscape:pageopacity="0" inkscape:pageshadow="2" inkscape:window-height="480" inkscape:window-width="640" inkscape:zoom="0.93579987" objecttolerance="10" pagecolor="#ffffff" showgrid="false">
	</sodipodi:namedview>
<g>
	<path style="fill:none;" d="M33,104.1l-0.3,0.1l0,0l0,0l-5.4,1.9c-2.2,0.8-3.2,2-2.7,3.4c0.7,2,4.7,3.9,9.4,2.3l11.4-3.8l0,0
		l10.9-3.7v-8.5L33,104.1L33,104.1z"/>
	<path style="fill:none;" d="M114.2,98.7l-12.5,4.2l0,0l-21.2,7.3l0,0l0,0v7.6l33.2-11.4l0,0l6.2-2.1c5.6-1.8,7.3-3.5,7.1-4.6
		C126.5,98.2,121.6,97.3,114.2,98.7z"/>
	<path style="fill:none;" d="M495.5,74.6c-0.8-2.5-1.8-3.9-3.3-4.6c-1.2-0.6-2.6-0.9-4.1-0.9c-1.9,0-3.8,0.5-5,1.4
		c-0.6,0.5-1.5,1.6-1.9,2.5c-1.2,2.7-1.6,5.4-1.6,12.1c0,7,0.5,10.1,2,12.5c0.6,0.9,1.4,1.7,2.3,2.2c1.1,0.6,1.9,0.8,4,0.8
		c1.4,0,3-0.2,3.6-0.4c1.4-0.6,2.7-2,3.4-3.8c1.1-2.5,1.4-5.9,1.3-13C496.2,77.7,496,76.2,495.5,74.6z"/>
	<path style="fill:none;" d="M564,104.3l-0.1-1c0-0.5-0.1-0.8-0.2-1c-0.1-0.3-0.3-0.4-0.6-0.5c0.3-0.1,0.6-0.2,0.7-0.5
		c0.2-0.3,0.3-0.6,0.3-1c0-0.3-0.1-0.6-0.2-0.9c-0.1-0.3-0.4-0.5-0.6-0.6c-0.2-0.1-0.5-0.2-0.8-0.2c-0.2,0-0.5,0-0.9,0h-2.2v6.5h0.8
		v-2.8h1.8c0.5,0,0.8,0.1,0.9,0.2c0.1,0.1,0.2,0.5,0.3,1l0.1,0.8c0,0.2,0,0.3,0.1,0.4c0,0.1,0.1,0.2,0.1,0.3h0.8v-0.2
		c-0.1-0.1-0.1-0.1-0.1-0.2C564.1,104.5,564,104.4,564,104.3z M561.8,101.5h-1.6v-2.3h1.6c0.3,0,0.5,0,0.7,0s0.4,0.1,0.5,0.2
		s0.3,0.2,0.3,0.4c0.1,0.2,0.1,0.3,0.1,0.5c0,0.4-0.1,0.7-0.4,0.9C562.8,101.4,562.4,101.5,561.8,101.5z"/>
	<path style="fill:#FFFFFF;" d="M300.8,63.2c-0.1,0.2-2.6,6.5-5.5,14s-5.4,13.7-5.6,13.7c-0.2,0.1-2.5-6.3-5.1-14l-4.8-14.2h-5.3
		c-2.9,0-5.3,0-5.3,0.1c0,0,3.3,9.9,7.4,21.8l7.4,21.7l-4.2,10.8c-2.3,5.9-4.2,10.8-4.2,10.9c0,0,2,0,4.4,0l4.4-0.1l13-32.5
		c7.1-17.9,13-32.5,13-32.6c0,0-2.1-0.1-4.7-0.1C302.3,62.8,301,62.9,300.8,63.2z"/>
	<path style="fill:#FFFFFF;" d="M345.2,78.5c-2.4-3.6-5.1-4.8-11.9-5.4c-2.5-0.2-5.1-0.6-5.7-0.9c-1.4-0.6-2.7-2.1-3.3-3.7
		c-0.6-1.6-0.6-6.4,0-8.4s2.3-3.8,4.1-4.3c0.9-0.3,3.9-0.4,8.8-0.4h7.5v-3.1v-3.1h-8.2l0,0c-4.5,0-9.2,0.2-10.3,0.3
		c-2.6,0.4-5.7,1.8-7.4,3.4c-1.7,1.6-3.2,3.9-4,6.4c-0.5,1.5-0.7,3-0.7,5.9c0,4.1,0.3,5.9,1.7,8.6c0.9,1.8,3.4,4.4,5,5.4
		c1.9,1.1,4.4,1.7,8.7,2.1c3.3,0.3,4,0.4,5.1,1.1c0.8,0.6,1.6,1.5,2.2,2.7c0.9,1.8,0.9,2.1,0.9,6c0,3.8-0.1,4.2-0.9,5.8
		c-0.6,1.1-1.4,2-2.2,2.6l-1.4,0.9l-8.6,0.1l-8.6,0.1v3.1v3.1h9.7c5.9,0,10.4-0.1,11.5-0.4c4-0.8,7.3-3.4,8.9-6.9
		c1.4-3,1.8-6,1.7-10.6C347.9,84,347.1,81.3,345.2,78.5z"/>
	<polygon style="fill:#FFFFFF;" points="210.3,49.1 210.3,77.9 210.3,106.7 215.3,106.7 220.4,106.7 220.4,77.9 220.4,49.1 
		215.3,49.1 	"/>
	<line style="fill:none;" x1="263.6" y1="62.7" x2="263.6" y2="62.7"/>
	<path style="fill:#FFFFFF;" d="M365.7,62.8v-3.6v-3.6h-5h-5.1l0.1,20.7c0.1,20.4,0.1,20.8,0.8,22.6c0.4,1,1.2,2.6,1.9,3.4
		c1.3,1.8,3,3,5.1,3.7c1,0.4,2.8,0.5,6.1,0.5h4.6v-3.1v-3.1h-3c-2.9,0-3.1,0-3.9-0.9c-0.5-0.5-1-1.6-1.2-2.5
		c-0.2-1-0.3-6.4-0.3-14.8l0.1-13.2l5.4-0.1l5.4-0.1v-3.1v-3.1h-5.5h-5.5V62.8z"/>
	<path style="fill:#FFFFFF;" d="M236.2,65c-3.7,2-6.4,5.9-7.5,11.1c-0.7,3.3-1,16.8-0.5,20.1c0.5,2.8,1.8,5.7,3.4,7.3
		c1.2,1.2,3.1,2.4,4.7,2.9c0.4,0.1,3.5,0.3,6.7,0.3h5.9v-3.1v-3.1h-4.2c-4.7,0-5.3-0.2-6.2-2.2c-0.4-0.9-0.5-2.7-0.7-7.4
		c-0.1-6.8,0.3-14.1,1.1-16.5c0.7-2.2,1.9-3.9,3.3-4.6c1.1-0.5,2-0.6,6.1-0.6h4.9l0.1,18.8l0.1,18.8h5h5v-22v-22L252.6,63
		C241.1,63,239.4,63.3,236.2,65z"/>
	<path style="fill:#FFFFFF;" d="M199.8,53.5c-0.6-0.7-1.9-1.8-2.7-2.3c-2.9-1.9-4.1-2-18.4-2h-12.9V78v28.8h5h5V81V55.3h6.2
		c4.5,0,6.5,0.1,7.2,0.4c1.5,0.6,3,2.5,3.7,4.5c0.3,1,0.6,3.3,0.7,5.8c0.2,5.2-0.4,8.4-2,10.4c-1.6,2.2-2.6,2.5-7.3,2.5h-4V82v3.1
		l6.3-0.1h6.3l2.2-1c4-1.9,7-5.8,8.2-10.8c0.7-2.8,0.7-9.1,0-12.1S201.3,55.2,199.8,53.5z"/>
	<path style="fill:#FFFFFF;" d="M502.3,68.4c-1.5-1.8-3.9-3.4-6.6-4.3c-2.1-0.7-5-1.1-7.8-1.1s-5.7,0.4-7.7,1.1
		c-2.7,0.9-4.4,2-6.1,3.9c-1.9,2.1-3.2,4.8-4,8.3c-0.5,2.1-0.6,3.8-0.6,8.9c0,5.4,0.1,6.7,0.7,8.8c1,3.6,2.3,6,4.2,8
		c1.9,1.9,4.7,3.4,7.9,4.1c1.4,0.3,3.4,0.4,6.5,0.3c5.2-0.1,7.7-0.8,10.8-2.9c2.6-1.8,4.5-4.5,5.6-8c1.6-5,1.8-13.2,0.6-19.2
		C505.3,73.5,503.9,70.3,502.3,68.4z M495,96.3c-0.8,1.8-2,3.2-3.4,3.8c-0.6,0.3-2.2,0.4-3.6,0.4c-2.1,0-2.8-0.1-4-0.8
		c-0.9-0.5-1.8-1.3-2.3-2.2c-1.5-2.4-2-5.5-2-12.5c0-6.7,0.3-9.3,1.6-12.1c0.4-0.9,1.3-2,1.9-2.5c1.2-0.9,3.1-1.4,5-1.4
		c1.5,0,3,0.3,4.1,0.9c1.5,0.8,2.5,2.1,3.3,4.6c0.5,1.7,0.7,3.2,0.8,8.6C496.5,90.3,496.1,93.7,495,96.3z"/>
	<path style="fill:#FFFFFF;" d="M547.5,73.1c-1.8-5.1-5.1-8-10.5-9.5c-1.8-0.5-3.7-0.6-12.8-0.6h-10.7l-0.1,21.9l0,0l-0.1,21.9h5.2
		h5.2v-19V68.9l5,0.1c5.3,0.1,6.1,0.4,7.6,1.9c1.2,1.2,2,3.5,2.4,6.4c0.2,1.5,0.3,8.6,0.3,16v13.3h5h5V93.7
		C549,80,548.8,76.8,547.5,73.1z"/>
	<polygon style="fill:#FFFFFF;" points="452.5,49.1 452.5,53.3 452.5,57.6 457.5,57.6 462.6,57.6 462.6,53.3 462.6,49.1 457.5,49.1 
			"/>
	<path style="fill:#FFFFFF;" d="M440.8,68.9h5.5l-0.1-3l-0.1-3l-5.4-0.1l-5.4-0.1v-3.6v-3.6h-5h-5V76c0,19.8,0,20.5,0.7,22.5
		c0.8,2.3,2.3,4.7,4,6c0.6,0.5,1.9,1.2,2.9,1.5c1.3,0.4,2.7,0.6,6.2,0.6h4.5v-3.1v-3.1h-2.9c-2.4,0-3-0.1-3.7-0.7
		c-0.5-0.4-1-1.2-1.2-1.9c-0.2-0.7-0.3-6.6-0.3-15.1V68.9H440.8z"/>
	<path style="fill:#FFFFFF;" d="M416.3,62.7l-10.8,0.2c-11.6,0.2-12.8,0.3-16.2,2c-3.8,1.9-6.4,5.7-7.6,10.8
		c-0.5,2.1-0.6,4-0.6,12.1c0,9.2,0,9.7,0.7,11.4c1.4,3.6,3.6,5.8,6.7,6.8c1.4,0.5,2.8,0.6,7.5,0.6h5.8v-3.1v-3.1h-4
		c-3.8,0-4.1,0-5-0.8c-0.6-0.5-1.1-1.4-1.3-2.3c-0.5-1.8-0.5-15.9,0-19.4c0.6-4.9,1.7-7.1,4-8.4c0.8-0.4,2.1-0.6,6-0.7l5-0.1v18.9
		v18.9h5.2h5.2v-12c0-6.7-0.1-16.6-0.2-22L416.3,62.7z"/>
	<polygon style="fill:#FFFFFF;" points="452.5,62.8 452.5,84.7 452.5,106.7 457.5,106.7 462.6,106.7 462.6,84.7 462.6,62.8 
		457.5,62.8 	"/>
	<path style="fill:#FFFFFF;" d="M563.3,99.8c-0.1-0.1-0.2-0.3-0.3-0.4s-0.3-0.1-0.5-0.2c-0.1,0-0.4,0-0.7,0h-1.6v2.3h1.6
		c0.6,0,1-0.1,1.2-0.3c0.2-0.2,0.4-0.5,0.4-0.9C563.4,100.1,563.4,99.9,563.3,99.8z"/>
	<path style="fill:#FFFFFF;" d="M561.9,96.4c-3,0-5.4,2.4-5.4,5.4s2.4,5.4,5.4,5.4s5.4-2.4,5.4-5.4
		C567.2,98.8,564.8,96.4,561.9,96.4z M564.2,105h-0.8c-0.1-0.1-0.1-0.2-0.1-0.3c0-0.1,0-0.2-0.1-0.4l-0.1-0.8c0-0.5-0.1-0.9-0.3-1
		c-0.1-0.2-0.5-0.2-0.9-0.2h-1.8v2.8h-0.8v-6.5h2.2c0.4,0,0.7,0,0.9,0c0.3,0,0.6,0.1,0.8,0.2c0.3,0.1,0.5,0.4,0.6,0.6
		s0.2,0.5,0.2,0.9s-0.1,0.8-0.3,1c-0.2,0.3-0.4,0.5-0.7,0.5c0.3,0.1,0.5,0.2,0.6,0.5c0.1,0.2,0.1,0.5,0.2,1l0.1,1
		c0,0.1,0,0.3,0.1,0.4c0,0.1,0.1,0.1,0.1,0.2L564.2,105L564.2,105z"/>
	<path style="fill:#FFFFFF;" d="M118.7,89.4L118.7,89.4c-10.9-0.8-22.5,1.1-36.5,6L80.5,96l0.1-52.3c0-2.2,2.1-3.1,4.2-3.1l0,0
		c2.4,0,4.9,1.3,4.9,3.8v41.2h0.1c8.9,2.6,15.9,2.1,20.8-1.5c5.3-3.9,8-11.4,8.1-22.4c0.1-8.7-2.7-15.9-8.3-21.6
		c-5.2-5.2-13-9.3-23.2-12L56.6,20h-0.2v62.5l-9.5,3.2l0,0L12.5,97.3c-0.1,0-0.1,0-0.2,0c-0.1,0-0.2,0.1-0.3,0.1l0,0l0,0h-0.8
		l0.4,0.1c-6,2.1-12,6.6-11.6,13.2c0.4,6,12.6,7.8,23.3,9.5c1.2,0.2,2.4,0.4,3.6,0.6c3.5,0.6,7,0.9,10.4,0.9
		c6.5,0,12.8-1.1,18.9-3.2v7l24.1,7.8h0.1l0,0l0,0l0,0l0,0l21.1-7.4l0.4-0.1l0,0l34.5-12.2l0.4-0.1c8.7-3,13.2-7.5,12.2-12
		C147.4,94.9,137.3,90.8,118.7,89.4z M56.2,104.3L45.3,108l0,0l-11.4,3.8c-4.7,1.6-8.7-0.2-9.4-2.3c-0.5-1.3,0.5-2.6,2.7-3.4
		l5.4-1.9l0,0l0,0l0.3-0.1l0,0l23.2-8.3L56.2,104.3L56.2,104.3z M119.9,104.3l-6.2,2.1l0,0l-33.2,11.4v-7.6l0,0l0,0l21.2-7.3l0,0
		l12.5-4.2c7.5-1.4,12.3-0.6,12.8,1.1C127.2,100.8,125.5,102.6,119.9,104.3z"/>
</g>
</svg>
