<?xml version="1.0" encoding="utf-8"?>
<!-- Generator: Adobe Illustrator 24.0.1, SVG Export Plug-In . SVG Version: 6.00 Build 0)  -->
<svg version="1.1" id="Layer_2" xmlns="http://www.w3.org/2000/svg" xmlns:xlink="http://www.w3.org/1999/xlink" x="0px" y="0px"
	 viewBox="0 0 568.9 116.1" style="enable-background:new 0 0 568.9 116.1;" xml:space="preserve">
<style type="text/css">
	.st0{fill:#FFFFFF;}
</style>
<g>
	<path class="st0" d="M112.5,65.5c5-4.7,6-19.5-3.6-26.8c-9.5-7.3-31-8.4-39.4-7.4c-8.4,1-8.4,6.7-7.7,14.1
		c0.7,7.4,0.7,20.9-0.3,50.1c-0.3,8.8,5.3,7,11.2,7.1c6,0.1,7.5-1.6,7.7-5.5c0.1-4,1.3-9.8,5.5-10.1c4.3-0.3,6.7,5.4,8.8,10.7
		c2.1,5.3,5.3,5,17.5,4.6c12.2-0.4-3.6-19.9-6.7-24.3C102.5,73.4,107.5,70.2,112.5,65.5z M78.7,57.1c0.1-2.4,2.7-8.8,7.1-8.7
		c4.3,0,7,1.3,8.4,5.7c1.4,4.4-0.1,12.1-7.8,11.8C78.7,65.6,78.6,59.5,78.7,57.1z"/>
	<path class="st0" d="M142.1,85.9c-3.8,1.3-6,2-6.8,0.4c-0.9-1.6,3.6-3.3,10.1-5.3c6.5-2,13.7-5.8,14.4-12
		c0.7-6.1-5.3-14.4-19.9-14.9c-14.7-0.6-20.8,11.5-23.1,18.2c-2.3,6.7,0.4,19.6,8.5,25.6c8.1,6,17.9,3.4,27-1.1
		c9.1-4.6,8.3-8.7,6-12.2C156,81.1,150.2,83,142.1,85.9z M133.1,73.7c-2.3-3.8,0-7.4,2.7-9.1c2.7-1.7,7.8-1.4,9.3,1.6
		c1.4,3,0,6.5-3.1,8C138.8,75.6,134.2,75.6,133.1,73.7z"/>
	<path class="st0" d="M190.2,69.7c4.8,3.7,10.5,4.6,12,2.4c1.4-2.1,2.8-8-2.1-12c-5-4-15.4-6-23.9-3.1c-8.5,2.8-12.5,10.1-10.8,16.1
		c1.7,6,11,8.7,13.9,10.1c3.6,1.7,5.1,3,4.3,4.3c-0.9,1.3-4.1-0.3-7.3-1.7c-3.1-1.4-8.1-3.7-10.1-1c-2,2.7-3.7,8.5,3.4,12.7
		c7.1,4.1,16.8,6,25,2.3c8.3-3.7,9.1-10.7,7.3-15.4c-1.8-4.7-8.3-7.8-12.2-10.2c-4-2.4-7.1-3.4-6.4-5.1
		C183.9,67.3,187.7,67.9,190.2,69.7z"/>
	<path class="st0" d="M214.8,58.1c-5,0.4-7.7,5-6.8,8.3c0.1,2.8,0.7,7.5,0.4,12.2c-0.3,4.7-1.8,13.2-1.6,18.8
		c0.3,5.5,3.8,5.7,8.3,5.7c4.4,0,7.8-2.4,8-5.4c0.1-3-1.6-8-1.6-13.8c0-5.8,1.6-14.7,1.9-18.6C223.6,61.2,219.8,57.6,214.8,58.1z"/>
	<ellipse class="st0" cx="215.9" cy="46.5" rx="8.8" ry="8.1"/>
	<path class="st0" d="M271.1,41.7c0-9.1-5-10.7-9.4-10.2c-4.4,0.4-5.6,5.4-4.7,11.8c0,9.8-2.4,8.4-5.3,8.5
		c-19.5,1.3-22.9,11.7-25.3,20.9c-2.4,9.3,0.9,18.1,6.4,24.3c5.6,6.3,21.1,6,22.2,4.7c1.1-1.3,2.4-3.1,4.1-1.1
		c1.7,2,5.3,2.3,7.8,0.7c2.6-1.6,3.7-5.7,2.8-8.4c-0.9-2.7-1-11.7-0.9-20.5S271.1,50.8,271.1,41.7z M239.7,77c0-5,3.3-9.1,7.4-9.1
		c4.1,0,7.4,4.1,7.4,9.1c0,5-3.3,9.1-7.4,9.1C243,86.1,239.7,82,239.7,77z"/>
	<path class="st0" d="M312.7,60.3c1-6.4-4.6-8-8.4-7.8c-3.8,0.1-7.5,1.7-7.7,5.4c-0.1,3.7-0.1,17.1-0.6,22.6
		c-0.4,5.6-4.6,2.1-4.6-0.3c0-2.4,0.3-15.2,0.3-21.8s-4.1-6.1-8.5-5.7c-4.4,0.4-8.8,5.5-8.8,8.3c0,2.7,0,2.3-0.3,23.8
		c-0.3,5.1,1.7,11,8.8,15.7c7.1,4.7,14.8-0.6,16.1-0.1c1.3,0.4,3.7,2.3,7.1,2.4c3.4,0.1,6.7-2.1,7.1-6.8c0.4-4.7-1.6-12.1-1.6-17.5
		C311.7,73,311.7,66.7,312.7,60.3z"/>
	<path class="st0" d="M354.8,67.6c0.6-6.5-2.3-10.7-8.3-13c-6-2.3-18.4-0.1-22.8,5.3c-4.4,5.4-7.5,16.1-6.7,22.8
		c0.9,6.7,1.3,15.4,12.2,19.1c11,3.7,12-2.4,14.4-2.6c2.4-0.1,3.7,3.1,6.5,3.3c2.8,0.1,6-2.8,6.7-5.8c0.7-3-1.4-4.8-1.8-7.4
		C353.6,80.1,354.3,74.1,354.8,67.6z M336.7,86.7c-3.9,0-7-4.2-7-9.3c0-5.1,3.1-9.3,7-9.3c3.9,0,7,4.2,7,9.3
		C343.7,82.5,340.6,86.7,336.7,86.7z"/>
	<path class="st0" d="M431.7,11.4c-5.6,0.1-8.7,4.6-8.7,7.8s-0.9,39-0.4,46.5c0.4,7.5-2.3,8-4.6,4.6c-2.3-3.4-18.2-33.9-23.6-45.1
		c-5.4-11.2-16.9-2.8-13.8,6c2.6,6.1,19.8,44.3,30.7,63.8c11,19.5,24.8,5.4,25.5-6.3c0.7-11.7,2.1-57.8,2.8-65.9
		C440.4,14.6,437.2,11.2,431.7,11.4z"/>
	<path class="st0" d="M518.6,78.7c-1-6.5-10.5-44-12.8-57.2c-2.3-13.2-12.4-7.3-14.5-2.8s-6.5,18.4-7.8,28.5s-2.4,8.1-6.8,1.7
		C469,36,455.2,21.2,451.5,21.6c-3.7,0.4-7.3,4.1-6.1,13.8c1,8.3,7,39.4,9.8,55.1c2.8,15.7,7.3,15.1,13.2,13.5
		c6-1.6,6.3-10.1,3.3-17.2c-3-7.1-6.1-20.1-6.5-23.2c-0.4-3.1,0.1-5.4,1.4-4c1.3,1.4,6.5,10.4,12.2,21.2s12.8,3.7,13.4,0.6
		c0.6-3.1,2.1-19.5,2.6-23.9c0.4-4.4,1.7-5.4,2.6-3.7c0.9,1.7,3.3,25.5,5.4,34.6c2.1,9.1,9.4,6.7,13.8,5.1
		C520.9,91.9,519.6,85.2,518.6,78.7z"/>
	<path class="st0" d="M366.1,33.8c-4.5-0.1-7.2,2.6-7.2,7.2c-0.1,4.5,1.5,17.9,1.5,25.1c0,7.2-0.8,24.9-0.3,31
		c0.5,6.2,5,4.8,9.6,4.8c4.6,0,6.6-1.7,6.6-4.2c0-2.5-0.2-8.8-0.4-17.8c-0.2-9,0.7-32.8,1-39.3C377.4,34.2,370.6,33.9,366.1,33.8z"
		/>
</g>
</svg>
