<?xml version="1.0" encoding="utf-8"?>
<!-- Generator: Adobe Illustrator 24.0.1, SVG Export Plug-In . SVG Version: 6.00 Build 0)  -->
<svg version="1.1" id="Layer_3" xmlns="http://www.w3.org/2000/svg" xmlns:xlink="http://www.w3.org/1999/xlink" x="0px" y="0px"
	 viewBox="0 0 598.2 350.3" style="enable-background:new 0 0 598.2 350.3;" xml:space="preserve">
<g>
	<path style="fill:#FFFFFF;" d="M363.1,36.7c-0.4-0.6-0.7-1.1-1-1.6c-1.4-3.1-3.7-6.4-9.5-8c-5.2-1.5-28.2-9.6-37-13.4
		c-5.7-2.5-9.8-3.6-13.1-3.6l0,0c-1.5,0-2.9,0.2-4.6,0.7c-0.7,0.2-2.9,0.8-6,1.7c-10.7,3-32.9,9.2-46.6,13.8l-1.7,0.6v1.8
		c0,2.1-0.3,20.8-0.3,32c0,1.5,0,3.6,0,6.2c0,4.2,0,9.6,0,15.7c0,29.9-0.5,52.9-1.5,68.6c-0.5,7.1-0.7,12.8-0.7,17.6
		c0,11.9,1.5,16.2,3.2,20.8c0.4,1,0.7,2,1.1,3.1c2.8,8.8,4.7,19.3,5.9,33.2c1.2,14.5,3.7,42.7,5.3,57.3c0.5,5.2,1.1,8,1.9,9.9
		c0.5,1.2,1.2,2.1,2,2.7c1,0.7,2.2,0.9,3,0.9c0.9,0,1.7-0.1,2.4-0.3c0.7-0.1,1.5-0.2,2.3-0.3c0.2,0,0.4,0,0.7,0
		c2.5,0,8.5,0.2,14.3,0.5l-1,16.9l5,0.3l1-16.9l13.9,0.6l2.9,17.1l4.9-0.8l-2.7-16c11,0.5,24.1,1,31.2,1c1.4,0,2.4,0,3.3-0.1
		c3.4-0.1,5.7-0.6,7.5-1.6c2.7-1.4,4.3-3.9,4.8-8c0.3-1.7,0.4-3.7,0.5-5.9c0.1-2,0.3-4.2,0.5-6.8c1.6-15.1,10.9-227,11-228.9
		c0-0.3,0-0.7,0-1C366.1,41.4,364.4,38.7,363.1,36.7z M262.7,290c-0.4-1.5-0.8-4-1.1-7.4c-0.7-7.2-1.9-18.9-3.1-32.9
		c6.2-12.4,2.8-43.5,1.6-52.7c-1.5-11.5-1.3-22.5-0.5-36.6c0.1-2.4,0.3-4.9,0.5-7.6c0.8-12.4,1.7-27.7,1.3-45.3
		c-0.6-23.7-3.3-40.5-8.8-54.3l-0.1-0.2c-0.5-0.8-1.3-0.8-1.9-0.5c-1.6,1-2.1,6.2-0.4,9.5c2,3.7,4.5,17.1,6.4,34.1
		c2.1,18.9,0,43-1.5,54.3c-1.8,13.2-1,41,0.3,47.6c1.2,6.5,2.7,24,2.2,31.2c-0.1,1.4-0.3,2.9-0.5,4.4c-0.3-3-0.5-5.8-0.7-8.3
		c-1.2-14.2-3.1-25.1-6.1-34.3c-0.4-1.3-0.8-2.5-1.2-3.5c-1.6-4.3-2.8-7.6-2.8-18.8c0-4.6,0.2-10.3,0.7-17.2c1-16,1.6-38.5,1.6-68.9
		c0-6.1,0-11.5,0-15.7c0-2.6,0-4.8,0-6.3c0-9.5,0.2-24.7,0.2-30.2c13.6-4.5,34.5-10.4,44.6-13.2c3.2-0.9,5.4-1.5,6.1-1.7
		c1-0.3,1.9-0.5,3.1-0.5c2.6,0,6.1,1,11.1,3.2c9.7,4.2,32.7,12.1,37.5,13.6c4.3,1.4,5.1,2.8,6.5,5.5c0.5,0.9,0.9,1.6,1.4,2.3
		c1.2,1.8,2.1,3.3,2.1,6.9c0,0.2,0,0.5,0,0.8c-0.1,2.1-9.5,213.8-11,228.6c-0.3,2.7-0.4,5-0.6,7.1c-0.2,3.5-0.4,6.1-1,7.6
		c-0.4,1.1-0.8,1.6-1.7,2.1c-1.1,0.6-2.9,0.9-5.4,1c-0.8,0-1.8,0-3.1,0c-9,0-27.5-0.8-43.9-1.6c-11.8-0.5-22-1-25.6-1
		c-0.4,0-0.7,0-1,0c-1.2,0.1-2.3,0.2-3.1,0.4c-0.5,0.1-1,0.2-1.3,0.2c-0.1,0-0.1,0-0.1,0C263.3,291.5,263,291.1,262.7,290z"/>
	<path style="fill:#FFFFFF;" d="M335.8,146.1L335.8,146.1c-0.4,0-0.9,0-1.3,0c-5.4,0.4-10.2,3.8-13.4,9.7
		c-2.7,4.9-4.3,11.3-4.3,17.4c0,1.9,0.1,3.7,0.4,5.3c2.1,12.4,8.1,18.4,16.4,25.3l0,0l1.5,1.2l0.1-0.1c1,0.6,2.1,0.9,3.3,0.9
		c3.8,0,7.5-3,10.4-8.4c3.1-5.7,4.9-13.6,5.4-22.9c0-0.6,0-1.2,0-1.8c0-7.4-1.5-13.8-4.4-18.5C346.5,149,341.6,146.1,335.8,146.1
		L335.8,146.1z M350.1,174.4c-0.5,10.9-3,17.5-4.9,21.1c-2.5,4.6-5.2,6.3-6.8,6.3c-0.6,0-1.2-0.2-1.6-0.5
		c-9.2-7.6-13.8-12.4-15.7-23.4c-0.3-1.5-0.4-3-0.4-4.7c0-5.4,1.4-11.2,3.8-15.5c1.8-3.3,5.1-7.3,10.2-7.6c0.4,0,0.7,0,1,0
		c4.4,0,7.9,2.1,10.5,6.3c2.5,4,3.8,9.9,3.8,16.4C350.1,173.3,350.1,173.9,350.1,174.4z"/>
	<path style="fill:#FFFFFF;" d="M284.7,202.6L284.7,202.6c2.7,0,4.8-1.1,6.4-2.1l0.2-0.1c9-7.6,12.8-13.6,13.8-21.3
		c0.3-2.3,0.4-4.6,0.4-6.8c0-8-1.9-14.3-5.5-18.6c-5.4-6.4-9.1-9.3-17.1-9.3c-0.3,0-0.6,0-0.9,0c-4.5,0-8.2,2.6-10.7,7.3
		c-2,3.9-3.3,9.2-3.8,16c-0.1,1.9-0.2,3.8-0.2,5.6c0,11.3,2.7,19.6,8.1,24.9C278.4,201.1,281.6,202.6,284.7,202.6z M282.6,148.4
		c6.9,0.1,9,1.7,14.4,7.9c3.8,4.5,4.6,11.2,4.6,16c0,2.1-0.1,4.2-0.4,6.3c-0.8,5.8-3,10.7-12.3,18.6c-1.1,0.7-2.4,1.3-4,1.3l0,0
		c-2.1,0-4.3-1.1-6.6-3.4c-4.5-4.4-6.9-12-6.9-22c0-1.7,0.1-3.4,0.2-5.3c0.4-6.1,1.6-11.1,3.3-14.4c1.8-3.4,4.1-5.1,7.2-5.1
		C282.2,148.4,282.4,148.4,282.6,148.4z"/>
	<path style="fill:#FFFFFF;" d="M312.7,216.1C312.8,216.1,312.8,216.1,312.7,216.1c4.6,0,8.3,1.4,10.9,4.1l5.1,5.3l-1.8-7.2
		c-1-4-4.8-13.1-7.7-19.7c-1.3-3-2.4-5.6-2.8-6.7c-0.8-2.2-1.9-4.3-4.3-4.6H312h-0.1c-1.3,0-2.4,0.9-3.1,2.3
		c-0.1,0.3-0.3,0.7-0.6,1.2c-1.6,3.3-5.7,12.1-10,25.9l-1.8,5.6l4.8-3.3C303.3,217.9,307.9,216.1,312.7,216.1z M312.4,192.2
		c0.1,0.3,0.3,0.6,0.5,1.1c0.4,1.2,1.5,3.8,2.9,7c1.8,4.3,4,9.4,5.6,13.5c-2.5-1.1-5.4-1.7-8.5-1.7l0,0c-3,0-6.2,0.5-9,1.5
		c3.7-11,7-18,8.4-21C312.3,192.5,312.3,192.3,312.4,192.2z"/>
	<path style="fill:#FFFFFF;" d="M301.8,141.2l-0.4-0.8c0-0.1-10.3-19.1-14.9-27.5l-0.8-1.5l-1.6,0.5c-2.4,0.8-5.8,3.3-7.4,6
		l-0.8,1.3l22.9,24.1L301.8,141.2z M283.9,116.5c1.9,3.5,4.4,8.1,6.8,12.5l-9.7-10.2C281.8,118,282.9,117.1,283.9,116.5z"/>
	<path style="fill:#FFFFFF;" d="M306.3,115.3c1.3,6.7,3.1,17,4.6,28.2l0.1,0.9l3.9-0.3v-0.9c0-1.7,2.3-17,4.7-33.3l1.1-7.3l-0.5-0.7
		c-1.9-2.7-5.2-3.3-7.6-3.3c-3.4,0-6.4,1.1-8.2,2.8l-0.8,0.8l0.2,1.1C304.1,104.2,305,108.6,306.3,115.3z M315,113.4
		c-0.9,5.7-1.6,10.9-2.3,15.4c-2-12.2-4-21.9-4.7-25.1c1.1-0.6,2.8-1,4.5-1l0,0c1.6,0,3,0.4,3.9,1.1L315,113.4z"/>
	<path style="fill:#FFFFFF;" d="M319.2,142.8l2.9,2.3l0.6-0.6c2.6-2.5,17.1-15.9,22.9-19.9l1-0.7l-0.2-1.3c-0.3-1.6-1.4-4-3-6.3
		c-1.4-1.9-3.5-4.5-6.5-5.2l-1.6-0.3l-0.7,1.5c-0.6,1.3-2.2,4.8-4.6,9.6c-3.7,7.6-7.3,14.4-10.6,20.1L319.2,142.8z M340.2,118.5
		c0.9,1.2,1.6,2.6,2,3.6c-3.6,2.7-8.9,7.3-13.3,11.3c4-7.6,7.2-14.5,8.7-17.7C338.4,116.3,339.4,117.4,340.2,118.5z"/>
	<path style="fill:#FFFFFF;" d="M330.8,230.5c-4.9-0.5-20.1-0.8-32.7-0.8c-5.9,0-10.7,0.1-13.6,0.2c-5.3,0.2-9.4,3-11.8,8.2
		c-2.3,4.8-3,10.9-3.4,15.6c-0.1,0.8-0.1,1.6-0.1,2.3c0,12.9,8.7,18.4,14.3,18.9c4.6,0.4,31.1,1.6,44.8,1.7c2.8,0,4.9,0,6.3-0.1
		c4.7-0.3,8.2-1.6,10.5-3.9c1.8-1.9,2.8-4.4,3-7.4c0-0.4,0.1-0.9,0.1-1.5c0.1-2.2,0.4-5.5,0.4-9c0-6.3-0.6-10.8-2-14
		C343.6,233.2,338.1,231.2,330.8,230.5z M333.8,272.5l0.8-16.8l9.9,0.2c0,2.9-0.2,5.5-0.3,7.5c0,0.5-0.1,1-0.1,1.4
		c-0.1,2.2-0.7,3.7-1.9,4.9c-1.5,1.6-4.2,2.5-7.9,2.7C334.2,272.5,334,272.5,333.8,272.5z M273.3,254.4l15.4,0.3l-0.2,16.6
		c-2.2-0.1-3.8-0.2-4.6-0.3c-4.3-0.4-10.6-4.8-10.7-15C273.3,255.5,273.3,255,273.3,254.4z M308.5,255.2l-0.4,17
		c-5.3-0.2-10.9-0.4-15.7-0.7l0.2-16.7L308.5,255.2z M308.6,251.2l-15.9-0.3l0.2-17.1c1.6,0,3.4,0,5.2,0c3.5,0,7.2,0,10.9,0.1
		L308.6,251.2z M288.9,233.8l-0.2,17l-15.1-0.3c0.5-4.6,1.4-8,2.6-10.6c1.9-3.9,4.5-5.8,8.3-5.9
		C285.8,233.8,287.3,233.8,288.9,233.8z M334.8,251.8l0.7-16.4c3.2,0.9,5.6,2.5,7.4,6.7c0.9,2.2,1.5,5.5,1.6,9.8L334.8,251.8z
		 M312.6,251.3l0.4-17.4c8.5,0.1,14.8,0.4,17.3,0.7c0.4,0,0.8,0.1,1.2,0.1l-0.8,17L312.6,251.3z M330.6,255.7l-0.8,17
		c-0.5,0-1,0-1.5,0c-4,0-9.6-0.1-16.2-0.3l0.4-17.1L330.6,255.7z"/>
</g>
</svg>
