<?xml version="1.0" encoding="utf-8"?>
<!-- Generator: Adobe Illustrator 24.0.1, SVG Export Plug-In . SVG Version: 6.00 Build 0)  -->
<svg version="1.1"
	 id="Layer_3" xmlns:cc="http://creativecommons.org/ns#" xmlns:dc="http://purl.org/dc/elements/1.1/" xmlns:rdf="http://www.w3.org/1999/02/22-rdf-syntax-ns#"
	 xmlns="http://www.w3.org/2000/svg" xmlns:xlink="http://www.w3.org/1999/xlink" x="0px" y="0px" viewBox="0 0 600 400"
	 style="enable-background:new 0 0 600 400;" xml:space="preserve">
<g>
	<g>
		<path style="fill:#F4F4F4;" d="M183,80.6c-4.7,0-8.6,2.9-10.4,6.9c-0.4,0.9-1.3,1.5-2.3,1.5h-21.1c-1.4,0-2.5,1.1-2.5,2.5v0.5
			c0,1.4,1.1,2.5,2.5,2.5h21.1c1,0,1.9,0.6,2.3,1.5c1.6,4,5.7,6.8,10.4,6.8c4.7,0,8.6-2.9,10.4-6.9c0.4-0.9,1.3-1.5,2.3-1.5H267
			c1.4,0,2.5-1.1,2.5-2.5v-0.5c0-1.4-1.1-2.5-2.5-2.5h-71.4c-1,0-1.9-0.6-2.3-1.5C191.6,83.5,187.7,80.6,183,80.6z M183,97.4
			c-3.1,0-5.6-2.5-5.6-5.6c0-3.1,2.5-5.6,5.6-5.6c3.1,0,5.6,2.5,5.6,5.6C188.6,94.9,186.1,97.4,183,97.4z"/>
	</g>
	<g>
		<path style="fill:#F4F4F4;" d="M222.9,53.9c-0.4,0.9-1.3,1.5-2.3,1.5h-71.4c-1.4,0-2.5,1.1-2.5,2.5v0.5c0,1.4,1.1,2.5,2.5,2.5
			h71.4c1,0,1.9,0.6,2.3,1.5c1.8,4,5.6,6.9,10.4,6.9c4.7,0,8.8-2.9,10.4-6.8C244,61.6,245,61,246,61H267c1.4,0,2.5-1.1,2.5-2.5v-0.5
			c0-1.4-1.1-2.5-2.5-2.5h-21.1c-1,0-1.9-0.6-2.3-1.5c-1.8-4-5.6-6.9-10.4-6.9C228.5,47,224.7,49.9,222.9,53.9z M227.7,58.1
			c0-3.1,2.5-5.6,5.6-5.6s5.6,2.5,5.6,5.6c0,3.1-2.5,5.6-5.6,5.6S227.7,61.2,227.7,58.1z"/>
	</g>
	<g>
		<path style="fill:#F4F4F4;" d="M222.9,121.2c-0.4,0.9-1.3,1.5-2.3,1.5h-71.4c-1.4,0-2.5,1.1-2.5,2.5v0.5c0,1.4,1.1,2.5,2.5,2.5
			h71.4c1,0,1.9,0.6,2.3,1.5c1.8,4,5.6,6.9,10.4,6.9c4.7,0,8.8-2.9,10.4-6.8c0.4-0.9,1.3-1.5,2.3-1.5H267c1.4,0,2.5-1.1,2.5-2.5
			v-0.5c0-1.4-1.1-2.5-2.5-2.5h-21.1c-1,0-1.9-0.6-2.3-1.5c-1.8-4-5.6-6.9-10.4-6.9C228.5,114.3,224.7,117.2,222.9,121.2z
			 M227.7,125.4c0-3.1,2.5-5.6,5.6-5.6s5.6,2.5,5.6,5.6c0,3.1-2.5,5.6-5.6,5.6S227.7,128.5,227.7,125.4z"/>
	</g>
</g>
<path style="fill:#F4F4F4;" d="M228.2,358.8c-5,0-9.5-3.2-11.2-8c-1.4-3.9-5-6.5-9.2-6.6c-3.8,0-7.9,2.9-9.2,6.5
	c-1.7,4.7-6.2,7.9-11.2,7.9c-1.1,0-2.2-0.2-3.3-0.5c-6.1-1.8-12.1-4.3-17.8-7.4c-5.4-3-7.6-9.7-4.9-15.3c1.7-3.7,1-8.1-1.9-11
	c-1.8-1.8-4.2-2.8-6.9-2.8c-1.3,0-2.7,0.3-3.9,0.8c-1.5,0.6-3.2,1-4.9,1c-4.5,0-8.6-2.3-10.6-5.9c-3.2-5.7-5.6-11.8-7.4-18
	c-1.7-5.9,1.7-12.4,7.5-14.4l0.6-0.3c3.5-1.5,5.9-5.1,5.9-8.9c0-4.1-2.6-7.8-6.5-9.2c-5.9-2.1-9.1-8.5-7.4-14.5
	c1.8-6.2,4.4-12.3,7.5-17.9c2.1-3.7,6.1-6,10.3-6c1.7,0,3.4,0.4,5,1.1c1.2,0.5,2.5,0.8,3.9,0.8c0,0,0,0,0,0c2.8,0,5.4-1,7.1-2.7
	c2.9-2.8,3.6-7.3,1.9-11c-2.6-5.6-0.3-12.3,5.1-15.3c2.7-1.5,5.6-2.9,8.5-4.1c3-1.3,6.2-2.4,9.3-3.2c1-0.3,2.1-0.5,3.2-0.5
	c5,0,9.5,3.2,11.2,7.9c1.4,3.9,5,6.5,9.2,6.5c3.8,0,7.9-2.9,9.2-6.5c1.7-4.7,6.2-7.9,11.1-7.9c1.1,0,2.2,0.2,3.3,0.5
	c6.2,1.8,12.2,4.3,17.7,7.5c5.4,3,7.5,9.7,4.9,15.3c-1.7,3.7-1,8.2,1.9,11c1.8,1.8,4.4,2.9,6.9,2.9c1.3,0,2.5-0.3,3.6-0.7l0.1-0.1
	c1.6-0.7,3.3-1,5-1c4.6,0,8.6,2.2,10.6,5.9c3.2,5.7,5.6,11.8,7.4,18c1.7,6-1.3,12-7.1,14.3c-4.2,1.8-6.9,5.4-6.9,9.3
	c0,4.1,2.6,7.8,6.5,9.2c5.9,2.1,9.1,8.5,7.4,14.5c-1.8,6.2-4.3,12.2-7.5,17.9c-2.1,3.7-6.1,6-10.3,6c-1.7,0-3.4-0.4-5-1.1
	c-1.1-0.5-2.5-0.8-3.9-0.8c-2.8,0-5.4,1-7.1,2.7c-2.9,2.8-3.6,7.3-1.9,11c2.5,5.6,0.3,12.3-5.1,15.3c-5.6,3.1-11.6,5.6-17.8,7.3
	C230.4,358.6,229.3,358.8,228.2,358.8z M207.9,339.2c6.2,0,11.8,4,13.9,9.9c1,2.8,3.5,4.6,6.5,4.6c0.6,0,1.3-0.1,1.9-0.3
	c5.8-1.7,11.4-4,16.7-6.9c3.1-1.7,4.4-5.6,2.9-8.8c-2.6-5.6-1.4-12.3,3-16.6c2.6-2.6,6.6-4.1,10.7-4.1c2.2,0,4.3,0.4,6,1.3
	c0.9,0.4,1.9,0.6,2.9,0.6c2.5,0,4.7-1.3,6-3.5c3-5.3,5.4-11,7.1-16.9c1-3.5-0.9-7.1-4.3-8.4c-5.9-2.1-9.8-7.7-9.8-13.9
	c0-5.9,4-11.4,10-13.9l0.1,0c3.4-1.3,5.1-4.7,4.1-8.3c-1.7-5.8-4-11.5-7-16.9c-1.1-2-3.5-3.3-6.2-3.3c-1.1,0-2.2,0.2-3.1,0.6l-0.1,0
	c-1.7,0.8-3.6,1.2-5.6,1.2c-3.9,0-7.7-1.6-10.5-4.4c-4.3-4.4-5.5-11-2.9-16.7c1.5-3.2,0.2-7.1-2.8-8.8c-5.3-3-10.9-5.3-16.7-7
	c-0.6-0.2-1.3-0.3-1.9-0.3c-2.9,0-5.5,1.8-6.4,4.5c-2,5.6-8,9.8-13.9,9.8c-6.2,0-11.8-4-13.9-9.9c-1-2.8-3.5-4.6-6.4-4.6
	c-0.6,0-1.3,0.1-1.9,0.3c-3,0.8-5.9,1.9-8.8,3.1c-2.7,1.1-5.4,2.4-8,3.8c-3.1,1.7-4.4,5.6-2.9,8.8c2.6,5.6,1.4,12.3-3,16.6
	c-2.6,2.6-6.6,4.1-10.6,4.1c0,0,0,0,0,0c-2.2,0-4.3-0.4-6.1-1.3c-0.9-0.4-1.9-0.6-2.9-0.6c-2.5,0-4.7,1.3-6,3.5
	c-3,5.3-5.4,11-7.1,16.9c-1,3.5,0.9,7.1,4.3,8.4c5.9,2.1,9.8,7.7,9.8,13.9c0,5.8-3.7,11.3-9.1,13.5l-0.8,0.3
	c-3.4,1.2-5.3,4.9-4.4,8.3c1.7,5.8,4,11.5,7,16.9c1.1,2,3.5,3.3,6.2,3.3c1.1,0,2.1-0.2,3-0.6c1.9-0.8,3.9-1.2,5.9-1.2
	c4,0,7.6,1.5,10.4,4.3c4.3,4.4,5.5,11.1,2.9,16.6c-1.5,3.2-0.3,7.1,2.9,8.9c5.3,3,10.9,5.3,16.7,7c0.6,0.2,1.3,0.3,1.9,0.3
	c2.9,0,5.5-1.8,6.4-4.5C196,343.5,201.9,339.2,207.9,339.2z M208.3,310.9c-19.4,0-35.2-15.8-35.2-35.2s15.8-35.2,35.2-35.2
	s35.2,15.8,35.2,35.2S227.7,310.9,208.3,310.9z M208.3,245.6c-16.6,0-30.2,13.5-30.2,30.2s13.5,30.2,30.2,30.2s30.2-13.5,30.2-30.2
	S225,245.6,208.3,245.6z"/>
<path style="fill:#F4F4F4;" d="M395.9,306c-4.3,0-8.6-0.2-12.8-0.7c-7-0.8-12.1-6.9-11.7-13.9c0.4-6.5-3.4-12.6-9.4-15.1
	c-1.6-0.7-3.5-1-5.5-1c-4.6,0-9.1,1.9-11.9,4.9c-2.5,2.8-6.1,4.4-9.8,4.4c-3,0-6-1-8.3-2.9c-6.5-5.2-12.4-11.2-17.6-17.8
	c-4.3-5.4-3.6-13.3,1.5-18c4.8-4.4,6.3-11.3,3.9-17.2c-2.4-5.8-8.1-9.5-14.5-9.5c-6.2,0-13.3-4.5-14.1-11.8
	c-0.9-8.4-0.9-16.9,0-25.3c0.8-7,6.9-12.1,13.9-11.7l1,0c6.1,0,11.8-3.8,14.2-9.4c2.5-6,0.9-13-3.9-17.4c-5.2-4.7-5.8-12.7-1.4-18.1
	c5.3-6.6,11.3-12.6,18-17.8c2.4-1.8,5.3-2.8,8.2-2.8c3.7,0,7.3,1.6,9.8,4.3c2.8,3.1,7.4,5,11.9,5c0,0,0,0,0,0c1.9,0,3.8-0.3,5.4-1
	c5.9-2.4,9.7-8.4,9.5-14.9c-0.2-6.9,4.9-12.9,11.8-13.7c8.3-0.9,16.8-0.9,25,0.1c7,0.8,12.1,6.9,11.7,13.9
	c-0.4,6.5,3.4,12.6,9.4,15.1c1.6,0.7,3.5,1,5.5,1c0,0,0,0,0,0c4.6,0,9.1-1.9,11.9-5c2.5-2.8,6.1-4.4,9.8-4.4c3,0,6,1,8.3,2.9
	c6.5,5.3,12.4,11.2,17.6,17.8c4.3,5.4,3.6,13.3-1.5,18c-4.8,4.4-6.4,11.3-3.9,17.3c2.4,5.8,8.2,9.7,14.2,9.5l0.2,0
	c6.2,0,13.5,4.5,14.3,11.8l0,0c0.9,8.4,0.9,16.9,0,25.3c-0.8,6.8-6.4,11.7-13.2,11.7l-0.3,0c-7,0-13.1,3.7-15.5,9.4
	c-2.5,6-0.9,13,3.9,17.4c5.2,4.7,5.8,12.7,1.4,18.1c-5.3,6.6-11.3,12.5-18,17.8c-2.3,1.8-5.2,2.8-8.2,2.8c-3.7,0-7.3-1.6-9.8-4.3
	c-2.8-3-7.3-4.9-11.9-4.9c-1.9,0-3.7,0.3-5.3,1c-5.9,2.4-9.8,8.4-9.5,14.9c0.2,6.9-4.9,12.9-11.8,13.6
	C404.1,305.7,400,306,395.9,306z M356.5,270.1c2.7,0,5.1,0.5,7.4,1.4c8,3.3,13,11.4,12.5,20c-0.3,4.4,2.9,8.2,7.3,8.7
	c7.9,0.9,16,0.9,23.9,0.1c4.3-0.5,7.5-4.2,7.4-8.5c-0.3-8.6,4.8-16.5,12.6-19.7c2.2-0.9,4.6-1.4,7.2-1.4c6,0,11.9,2.5,15.6,6.6
	c1.6,1.7,3.8,2.7,6.1,2.7c1.8,0,3.6-0.6,5.1-1.8c6.4-5,12.1-10.7,17.2-17c2.7-3.4,2.3-8.4-0.9-11.3c-6.4-5.8-8.5-15.1-5.2-23
	c3.2-7.6,11.1-12.4,20.2-12.5l0.3,0c4.3,0,7.7-3.1,8.2-7.3c0.9-7.9,0.9-16.1,0-24.1v0c-0.5-4.4-5.2-7.3-9.3-7.3l-0.1,0
	c-8.1,0.2-15.7-4.9-18.9-12.6c-3.2-7.9-1.1-17,5.2-22.8c3.2-2.9,3.6-7.8,0.9-11.2c-4.9-6.3-10.6-12-16.8-17
	c-1.5-1.2-3.3-1.8-5.2-1.8c-2.3,0-4.6,1-6.1,2.7c-3.7,4.1-9.7,6.6-15.6,6.6c0,0,0,0,0,0c-2.6,0-5.1-0.5-7.4-1.4
	c-8-3.3-13-11.4-12.5-20c0.3-4.4-2.9-8.2-7.3-8.7c-7.9-0.9-15.9-1-23.9-0.1c-4.3,0.5-7.5,4.2-7.4,8.5c0.3,8.6-4.8,16.5-12.6,19.7
	c-2.2,0.9-4.7,1.4-7.3,1.4c0,0,0,0,0,0c-5.9,0-11.9-2.5-15.6-6.6c-1.6-1.7-3.8-2.7-6.1-2.7c-1.8,0-3.6,0.6-5.1,1.8
	c-6.3,5-12.1,10.7-17.2,17c-2.7,3.4-2.3,8.4,0.9,11.3c6.4,5.8,8.5,15.1,5.2,23c-3.1,7.5-10.7,12.5-18.8,12.5l-1.3,0
	c-4.3-0.3-8.1,2.9-8.6,7.3c-0.9,8-1,16.1,0,24.1c0.5,4.4,5.1,7.3,9.1,7.3c8.5,0,16,5,19.1,12.6c3.2,7.9,1.1,17-5.2,22.8
	c-3.2,2.9-3.6,7.8-0.9,11.2c5,6.3,10.6,12,16.8,17c1.5,1.2,3.3,1.8,5.2,1.8c2.3,0,4.6-1,6.1-2.7
	C344.6,272.6,350.6,270.1,356.5,270.1z M396.3,229.9c-19.4,0-35.2-15.8-35.2-35.2c0-19.4,15.8-35.2,35.2-35.2
	c19.4,0,35.2,15.8,35.2,35.2C431.5,214.2,415.7,229.9,396.3,229.9z M396.3,164.6c-16.6,0-30.2,13.5-30.2,30.2s13.5,30.2,30.2,30.2
	s30.2-13.5,30.2-30.2S413,164.6,396.3,164.6z"/>
</svg>
