<?xml version="1.0" encoding="utf-8"?>
<!-- Generator: Adobe Illustrator 24.0.1, SVG Export Plug-In . SVG Version: 6.00 Build 0)  -->
<svg version="1.1" id="Layer_1" xmlns="http://www.w3.org/2000/svg" xmlns:xlink="http://www.w3.org/1999/xlink" x="0px" y="0px"
	 viewBox="0 0 596.6 160" style="enable-background:new 0 0 596.6 160;" xml:space="preserve">
<title>retropie</title>
<g>
	<path style="fill:#FFFFFF;" d="M96.8,137.1l7.5-19.6c0,0,0,0,0,0c-0.2,0.1-0.4,0.2-0.6,0.3c-0.1,0-0.1,0-0.2,0.1
		c-0.2,0.1-0.4,0.1-0.6,0.2c0,0-0.1,0-0.1,0c-0.2,0.1-0.4,0.1-0.7,0.2c-0.1,0-0.1,0-0.2,0c-0.2,0-0.4,0.1-0.6,0.1c0,0-0.1,0-0.1,0
		c-0.2,0-0.5,0-0.7,0c-0.1,0-0.1,0-0.2,0c-0.2,0-0.4,0-0.7,0c0,0,0,0,0,0c-0.2,0-0.5,0-0.7,0c0,0-0.1,0-0.1,0c-0.2,0-0.4,0-0.6,0
		l-0.1,0c-0.9,0-1.9,0.1-2.8,0.5c-0.3,0.1-0.6,0.3-0.9,0.5c-0.2,0.3-0.4,0.6-0.4,1l-0.1,0.4c-1.2,2.7-3.8,4.5-6.8,4.5
		c-1.9,0-3.8-0.2-5.6-0.7c-0.2,0-0.4,0-0.6-0.1c-0.2,0-0.3,0-0.5-0.1c-1.1-0.1-2.3,0.1-3.3,0.5c-0.6,0.2-1.1,0.5-1.6,1
		c-0.6,0.6-1.2,1.2-1.9,1.8l-0.1,0.1c-1.7,1.1-3.8,1.7-5.8,1.7c0,0,0,0,0,0c0,0,0,0,0,0c-2,0-4-0.5-5.8-1.6c-1.3-0.7-2.8-1.1-4.3-1
		c-1.6-0.1-3.1,0.3-4.4,1.1c-1.7,1-3.8,1.5-5.8,1.5c0,0,0,0,0,0c-0.1,0-0.2,0-0.4,0c-0.1,0-0.2,0-0.3,0c-0.2,0-0.4,0-0.5,0
		c-0.1,0-0.3,0-0.4-0.1c-0.2,0-0.4-0.1-0.6-0.1c-0.1,0-0.3-0.1-0.4-0.1c-0.2,0-0.4-0.1-0.6-0.2c-0.1,0-0.3-0.1-0.4-0.1
		c-0.2-0.1-0.4-0.1-0.5-0.2c-0.2-0.1-0.3-0.1-0.4-0.2c-0.2-0.1-0.3-0.1-0.5-0.2c-0.2-0.1-0.3-0.2-0.5-0.3c-0.1-0.1-0.2-0.1-0.4-0.2
		c-0.2-0.1-0.4-0.3-0.5-0.4c-0.1-0.1-0.2-0.1-0.3-0.2c-0.3-0.2-0.5-0.5-0.7-0.7c-1-1.1-2.4-1.7-3.9-1.8c-1.3-0.1-2.5,0.1-3.7,0.4
		c-1.1,0.2-2.3,0.5-3.6,0.5c-2.9,0.2-5.7-1.2-7.4-3.6l-0.1-0.1c-0.2-0.4-0.4-0.9-0.5-1.3c-0.1-0.4-0.2-0.7-0.4-0.9
		c-0.7-0.6-1.6-1-2.5-1c-0.8-0.1-1.5-0.1-2.2-0.1c-0.4,0-0.9,0-1.3,0c-1.3,0-2.8-0.2-4.2-1.1c0,0,0,0,0,0c-0.1-0.1-0.2-0.1-0.3-0.2
		l0.9,2.4c3.1,8.2,6,16,6.6,17.6c2.1,5.7,7.2,10.5,14.6,13.9c7.9,3.3,16.3,5,24.9,4.8c8.7,0.1,17.2-1.5,25.2-4.9
		C89.5,147.7,94.6,142.9,96.8,137.1z"/>
	<path style="fill:#FFFFFF;" d="M109.6,106.4c-0.1,0-0.2,0-0.3,0.1c-0.2,0-0.4,0.1-0.6,0.1l0,0c0.2,0,0.3-0.1,0.5-0.1
		c0.3-0.1,0.5-0.1,0.7-0.2C109.8,106.4,109.7,106.4,109.6,106.4z"/>
	<path d="M108.7,106.6L108.7,106.6c0.2-0.1,0.4-0.1,0.6-0.1c0.1,0,0.2,0,0.3-0.1c0.1,0,0.2,0,0.3,0c-0.2,0.1-0.4,0.1-0.7,0.2
		C109,106.6,108.8,106.6,108.7,106.6z"/>
	<path style="fill:#FFFFFF;" d="M20,116c-0.1-0.2-0.1-0.4-0.2-0.6c-0.1-0.4-0.2-0.6-0.3-0.7c-0.7-0.6-1.7-0.9-2.7-1
		c-0.8-0.1-1.5-0.1-2.3-0.1c-0.3,0-0.5,0-0.8,0c-0.1,0-0.1,0-0.2,0c-0.3,0-0.5,0-0.8,0c0,0-0.1,0-0.1,0c-0.3,0-0.6,0-0.9-0.1
		c-0.1,0-0.1,0-0.2,0c-0.3,0-0.5-0.1-0.8-0.2c0,0-0.1,0-0.1,0c0.2,0.6,0.6,1.1,1.1,1.4c1.1,0.7,2.4,0.7,3.8,0.7c0.3,0,0.6,0,0.9,0
		c0.5,0,1.1,0,1.7,0.1C18.7,115.6,19.4,115.7,20,116z"/>
	<path style="fill:#FFFFFF;" d="M91,119.8c0-0.1,0.1-0.3,0.1-0.4c-0.3,0.1-0.6,0.2-0.9,0.3c-0.1,0-0.2,0-0.3,0.1
		c-0.2,0.1-0.5,0.1-0.7,0.2c-0.1,0-0.2,0-0.3,0.1c-0.3,0.1-0.6,0.1-0.9,0.1l-0.1,0c-1.9,0-3.9-0.2-5.7-0.7c-1.6-0.2-3.2-0.1-4.7,0.3
		c-0.6,0.2-1.2,0.5-1.7,0.8c-0.6,0.6-1.3,1.1-1.9,1.6l-0.1,0.1c-1.8,1-3.8,1.5-5.9,1.5c-2,0-4.1-0.5-5.9-1.4c-1.4-0.7-2.9-1-4.5-1
		c-1.6-0.1-3.2,0.3-4.6,1c-1.8,0.9-3.8,1.4-5.9,1.4c0,0-0.1,0-0.1,0l-0.6,0l-0.1-0.1c-2.5-0.1-4.9-1-6.8-2.7
		c-0.3-0.3-0.6-0.5-0.9-0.7c-0.9-0.6-2-0.9-3.2-1c-0.3,0-0.7,0-1,0c-0.6,0-1.3,0.1-1.9,0.2c-0.3,0.1-0.6,0.1-1,0.2
		c-1.2,0.2-2.3,0.4-3.6,0.4c-0.4,0-0.8,0-1.1,0c-0.1,0-0.2,0-0.4,0c-0.3,0-0.5-0.1-0.7-0.1c-0.1,0-0.3-0.1-0.4-0.1
		c-0.2-0.1-0.4-0.1-0.6-0.2c-0.2-0.1-0.3-0.1-0.5-0.2c-0.2-0.1-0.4-0.2-0.6-0.2c-0.1,0-0.1-0.1-0.2-0.1c0,0.1,0.1,0.2,0.1,0.4
		c0.1,0.3,0.2,0.5,0.2,0.7c1.1,1.5,2.8,2.3,4.7,2.2l0.1,0c1,0,2-0.2,3-0.4c1.1-0.2,2.3-0.5,3.6-0.5c0.3,0,0.7,0,1,0.1
		c2.2,0.1,4.3,1.1,5.8,2.7c1.3,1.4,3.2,2.2,5.2,2.1c0,0,0,0,0,0c1.6,0,3.1-0.4,4.4-1.2c1.8-1,3.9-1.5,5.9-1.4c2,0,4,0.4,5.8,1.4
		c1.4,0.8,2.9,1.2,4.4,1.2c0.1,0,0.1,0,0.2,0c1.4,0,2.8-0.4,4-1.2c0.6-0.4,1.1-0.9,1.6-1.4c0.8-0.8,1.7-1.4,2.7-1.7
		c2-0.7,4-0.8,6.1-0.5l0.1,0c1.6,0.4,3.2,0.6,4.8,0.6c0,0,0,0,0,0C88.8,122.4,90.3,121.4,91,119.8z"/>
	<path style="fill:#FFFFFF;" d="M5.6,106.9c0.3,0,0.6,0,0.9,0c0,0,0-0.1,0-0.1c0,0,0,0,0-0.1c-0.2-0.1-0.6-0.2-0.9-0.2
		c-0.3,0-0.7,0-1-0.1c-0.1,0-0.2,0-0.3,0c-0.2,0-0.4-0.1-0.5-0.1c0.1,0.2,0.3,0.3,0.4,0.5c0.1,0,0.3,0,0.7,0.1
		C5.1,106.9,5.3,106.9,5.6,106.9z"/>
	<path style="fill:#FFFFFF;" d="M103.4,114.4c0.1-0.3,0.2-0.5,0.3-0.8c-0.4,0.1-0.8,0.2-1.2,0.2c0,0,0,0-0.1,0
		c-0.4,0-0.7,0.1-1.1,0.1c0,0,0,0-0.1,0c-0.8,0-1.5,0-2.1-0.1c-1,0-2,0.1-2.9,0.5c-0.3,0.1-0.6,0.3-0.9,0.5
		c-0.2,0.2-0.3,0.5-0.4,0.8l0,0.2c0,0.1,0,0.1-0.1,0.2c1.1-0.3,2.2-0.5,3.3-0.4l0.1,0C100.6,115.6,102.4,115.6,103.4,114.4z"/>
	<path style="fill:#FFFFFF;" d="M2.4,87.9L2.4,87.9c-0.2,0.2-0.2,0.3-0.2,0.3c0,0.1,0,0.2,0,0.4c0,0,0.1,0.1,0.1,0.1
		c1.3,0.8,1.6,1.7,1.1,2.7c-0.4,0.7-0.9,1-1.3,1.3c-0.2,0.2-0.5,0.3-0.7,0.4c-0.3,0.2-0.6,0.3-0.8,0.5l-0.1,0.1
		c-0.3,0.2-0.5,0.5-0.6,0.8c0,0.1,0,0.3,0,0.4c0.2,0.4,0.5,0.7,0.9,0.8c0.1,0.1,0.3,0.1,0.4,0.1l0.3,0.1c1.5,0.5,2,1.3,2.1,1.9
		c0.1,0.5,0.2,1.4-0.7,2.3l-0.2,0.2c-0.1,0.1-0.3,0.3-0.4,0.5c-0.2,0.3-0.4,0.7-0.5,1.1c0.1,0.5,0.4,0.9,0.9,1.1
		c0.9,0.4,1.9,0.6,2.9,0.6c0,0,0,0,0,0c1.1,0,3.1,0.6,3.7,2.2c0.4,0.9,0.1,1.7-0.1,2.1c0,0.1-0.1,0.1-0.1,0.2
		c-0.1,0.2-0.1,0.5,0,0.7c0.1,0.6,0.5,1.1,1.1,1.3c1.2,0.7,2.5,0.6,4.1,0.6c0.8,0,1.7,0,2.6,0.1c1.5,0.1,3.1,0.7,4.4,1.6
		c0.8,0.7,1.1,1.5,1.3,2c0.1,0.2,0.1,0.4,0.2,0.6c1.2,1.4,3,2.2,4.8,2.1l0.1,0c1,0,2.1-0.2,3.1-0.4c1.5-0.3,3-0.5,4.6-0.4
		c0.3,0,0.5,0,0.8,0.1c1.9,0.2,3.7,1.1,5.1,2.3c1.5,1.4,3.4,2.1,5.4,2l0.7,0l0.1,0.1c1.4-0.1,2.7-0.4,4-1.1c1.8-0.9,3.9-1.3,5.9-1.3
		c2-0.1,4,0.4,5.8,1.3c1.4,0.7,3,1.1,4.6,1.1c1.5,0,3-0.3,4.3-1.1c0.5-0.4,1.1-0.8,1.5-1.3l0.1-0.1c0.8-0.6,1.8-1.1,2.8-1.4
		c1.9-0.6,4-0.7,6.1-0.4l0.1,0c1.6,0.4,3.3,0.6,5,0.6c1.6-0.1,3.6-0.8,4.2-2.3c0.2-0.8,0.6-1.6,1.2-2.2l0.1-0.1
		c0.6-0.5,1.2-0.8,1.9-1.1c1.3-0.5,2.7-0.7,4.1-0.6c2.4,0.1,4.4,0.1,5.6-1.2c0.1-0.1,0.1-0.1,0.1-0.2c0.2-0.3,0.3-0.6,0.3-0.9
		c0-0.2-0.1-0.4-0.1-0.6c-0.3-0.7-0.3-1.5,0-2.2c0.6-1.2,1.8-1.7,2.6-1.9c0.6-0.2,1.3-0.3,2-0.4c1.1-0.2,2.1-0.3,2.6-0.9
		c0.1-0.1,0.2-0.2,0.2-0.3c0.1-0.4,0-0.8-0.2-1.2c-0.1-0.2-0.2-0.3-0.3-0.4l-0.1-0.1c-0.6-0.6-1.3-1.5-1.1-2.7
		c0.1-0.4,0.4-1.2,1.4-1.7v0c0.3-0.1,0.6-0.3,0.9-0.4c0.7-0.2,1-0.4,1.2-0.6l0,0c0.2-0.4,0.1-0.8-0.2-1l-0.1-0.1
		c-0.3-0.3-0.7-0.5-1.1-0.8c-0.4-0.2-0.7-0.5-1.1-0.8c-0.2-0.1-0.3-0.2-0.4-0.3c-0.6-0.5-0.9-1.1-0.9-1.8c0.1-0.6,0.4-1.1,1-1.3
		c0.2-0.1,0.3-0.2,0.4-0.3l0.1-0.1c0.1-0.1,0.1-0.2,0.1-0.2c-0.1-0.3-0.8-1-2.8-1.8c-0.7-0.3-1.4-0.6-1.9-1.1
		c-0.3-0.2-1.2-1-0.6-2.4c0-0.3-0.2-0.7-0.6-0.8c-1.4-0.6-2.8-1.1-4.3-1.5l-0.3-0.1c-0.5-0.2-1.7-0.7-1.8-2c0-0.1-0.1-0.3-0.2-0.3
		c-0.7-0.5-1.5-0.8-2.3-0.9c-0.4-0.1-0.8-0.1-1.2-0.2c-0.5-0.1-1.1-0.2-1.7-0.3c-0.6-0.2-1.2-0.4-1.8-0.7c-0.6-0.3-0.9-0.7-1.1-1
		c0-0.1-0.1-0.1-0.2-0.2c-1-0.8-2.4-0.9-3.9-1c-1-0.1-2.1-0.2-3.1-0.5c-0.7-0.2-1.3-0.5-1.8-0.8c-0.4-0.2-0.7-0.4-1.1-0.5
		c-0.9-0.2-1.8-0.3-2.7-0.3c-1.3,0-2.6-0.1-3.9-0.3c-0.6-0.1-1.1-0.3-1.5-0.5c-0.4-0.2-0.7-0.3-1-0.4c-1.9-0.2-3.9-0.2-5.8-0.1
		l-0.1,0l-0.1,0c-0.5,0-1-0.1-1.5-0.2c-0.4,4.5-0.6,7.5-0.8,9.5c0,0.1,0,0.1,0,0.2c-0.1,1.5-0.2,2.4-0.3,3c0,0,0,0,0,0
		c-0.1,1-0.1,1.2-0.1,1.3c-0.4,1.6-1.5,2.9-3,3.6c-0.5,0.3-1.1,0.5-1.7,0.6l0.3,0.3l-2.9,0.1c-0.9,0-1.8-0.1-2.6-0.3
		c-2.5-0.6-4.6-2.3-4.7-5.1v0c0-0.4,0-0.9-0.1-1.5c0,0,0,0,0,0c0-0.2,0-0.4,0-0.6c0,0,0-0.1,0-0.1c0-0.2,0-0.4,0-0.6
		c0,0,0-0.1,0-0.1c0-0.2,0-0.4,0-0.7c0,0,0,0,0-0.1c0-0.2,0-0.5,0-0.7c0,0,0-0.1,0-0.1c0-0.2,0-0.5-0.1-0.7c0-0.1,0-0.1,0-0.2
		c0-0.2,0-0.5-0.1-0.8c0-0.1,0-0.1,0-0.2c0-0.3,0-0.6-0.1-0.9c0,0,0-0.1,0-0.1c-0.1-1.7-0.3-3.7-0.4-5.9c-1.1,0.1-2.2,0.1-3.2,0
		c-1.1-0.1-2.1-0.1-3.1,0.1c-0.4,0.1-0.8,0.2-1.3,0.4c-0.4,0.2-0.9,0.4-1.4,0.5c-1.3,0.3-2.6,0.4-3.8,0.4c-1.1-0.1-2.2,0.1-3.3,0.4
		c-0.2,0.1-0.5,0.2-0.8,0.4c-0.4,0.3-0.9,0.6-1.5,0.8c-1.2,0.4-2.3,0.5-3.5,0.6c-1.4,0.1-2.7,0.2-3.6,0.9c0,0-0.1,0.1-0.1,0.2
		c-0.2,0.2-0.4,0.6-0.8,0.8c-0.7,0.4-1.3,0.7-2.1,0.9c-0.6,0.2-1.3,0.3-1.9,0.4c-0.5,0.1-1,0.2-1.5,0.3l-0.1,0
		c-0.7,0.1-1.3,0.5-1.8,0.9c0,0,0,0.1,0,0.1c-0.1,0.4-0.2,1-0.8,1.5c-0.6,0.5-1.3,0.8-2,1c-0.3,0.1-0.7,0.2-1.2,0.3
		c-1,0.3-2.5,0.7-3.1,1.2c-0.2,0.2-0.2,0.3-0.2,0.4c0.6,0.9,0.3,1.9-0.6,2.5c-0.1,0-0.1,0.1-0.2,0.1c-0.5,0.3-1,0.6-1.6,0.8
		C3.9,86.7,3.1,87.2,2.4,87.9z M62,97.1C62,97.1,62,97.1,62,97.1c0.1-0.2,0.1-0.3,0.2-0.4c0.1-0.2,0.1-0.3,0.2-0.5
		c0.1-0.1,0.1-0.2,0.2-0.3c0.1-0.1,0.2-0.3,0.3-0.4c0.1-0.1,0.1-0.2,0.2-0.3c0.1-0.1,0.2-0.3,0.3-0.4c0.1-0.1,0.2-0.2,0.2-0.3
		c0.1-0.1,0.2-0.2,0.4-0.3c0.1-0.1,0.2-0.2,0.3-0.2c0.1-0.1,0.3-0.2,0.4-0.3c0.1-0.1,0.2-0.1,0.3-0.2c0.2-0.1,0.3-0.2,0.5-0.3
		c0.1,0,0.2-0.1,0.3-0.1c0.3-0.1,0.5-0.2,0.8-0.3c2-0.8,4.1-1.2,6.2-1.2c2.1,0,4.3,0.4,6.3,1.2c0.2,0.1,0.4,0.2,0.6,0.3
		c0.3,0.1,0.6,0.3,0.9,0.4c0,0,0,0,0,0l-0.1-2.9c0-0.1,0-0.1,0-0.2c0,0,0-0.1,0-0.1c-0.1-0.3-0.1-0.5-0.1-0.8c0,0,0-0.1,0-0.1
		c0-0.3,0-0.6,0-0.8c0-0.1,0-0.1,0-0.2l0-1l0.3,0.2c0,0,0,0,0-0.1c0.1-0.3,0.2-0.5,0.3-0.8c0-0.1,0.1-0.2,0.1-0.3
		c0.1-0.2,0.2-0.3,0.3-0.5c0.1-0.1,0.1-0.2,0.2-0.3c0.1-0.1,0.2-0.3,0.3-0.4c0.1-0.1,0.2-0.2,0.2-0.3c0.1-0.1,0.2-0.2,0.4-0.4
		c0.1-0.1,0.2-0.2,0.3-0.2c0.1-0.1,0.3-0.2,0.4-0.3c0.1-0.1,0.2-0.1,0.3-0.2c0.2-0.1,0.3-0.2,0.5-0.3c0.1,0,0.2-0.1,0.3-0.1
		c0.3-0.1,0.5-0.2,0.8-0.3c4-1.6,8.5-1.6,12.5,0c0.2,0.1,0.4,0.2,0.6,0.3c0.3,0.1,0.5,0.2,0.7,0.4c0.1,0,0.1,0.1,0.2,0.1
		c0.2,0.1,0.3,0.2,0.5,0.3c0.1,0.1,0.1,0.1,0.2,0.2c0.2,0.1,0.3,0.3,0.4,0.4c0.1,0.1,0.1,0.1,0.2,0.2c0.2,0.2,0.4,0.4,0.5,0.6
		c0,0,0,0.1,0.1,0.1c0.1,0.2,0.3,0.4,0.4,0.6c0,0.1,0.1,0.2,0.1,0.2c0.1,0.2,0.2,0.3,0.2,0.5c0,0.1,0.1,0.2,0.1,0.3
		c0,0.1,0,0.1,0.1,0.2l0.2-0.2l0,0.9c0.1,0.3,0.1,0.5,0.1,0.8l0,0.2l0,0.2c0,0.3-0.1,0.6-0.2,1c0,0,0,0.1,0,0.1l-0.1,2.6
		c0,0.3,0,0.6,0,0.8l0,0.6l0,0.1c-0.3,2.4-1.8,4.3-3.9,5.3c-0.9,0.5-1.9,0.9-2.9,1.1c-1,0.3-2.1,0.4-3.2,0.4l-0.1,0.1l-0.4,0
		c0,0,0,0,0,0c-1.8,0-3.6-0.3-5.3-1c-0.4-0.1-0.7-0.3-1.1-0.4c-0.1,0-0.1-0.1-0.2-0.1c-0.3-0.2-0.6-0.4-0.9-0.6c0,0-0.1,0-0.1-0.1
		c0,0,0,0.1,0,0.1c0,0.2-0.1,0.4-0.1,0.6c0,0,0,0,0,0.1l-0.1,2.3c0,0.3,0,0.5,0,0.8l0,0.7c-0.3,2.4-1.8,4.4-4,5.3
		c-1.9,1-4.2,1.6-6.4,1.6c-0.1,0-0.2,0-0.3,0c-1.8,0-3.6-0.3-5.2-0.9c-1.9-0.6-3.5-1.9-4.6-3.6l-0.2-0.3c-0.3-0.5-0.5-1.1-0.6-1.7
		c0-0.2,0-0.4,0-0.6l0-1.2l-0.3-3c0-0.2-0.1-0.3-0.1-0.5c0,0,0,0,0-0.1c0-0.2,0-0.4,0-0.6l-0.1-1.6L62,97.1z"/>
	<path style="fill:#FFFFFF;" d="M80.3,103.9c-0.4,0.2-0.8,0.4-1.3,0.6l0,0c-0.9,0.4-1.9,0.7-2.9,0.9c-1.1,0.3-2.3,0.4-3.4,0.4
		c-0.4,0-0.8,0-1.1,0l-0.3,0l0,0c-1.7-0.1-3.3-0.6-4.8-1.3h0l-0.5-0.3c0,0-0.1-0.1-0.1-0.1c-0.2-0.1-0.4-0.2-0.6-0.3v0.2
		c0,0.3,0,0.4,0.1,0.6l0.2,0.4c0.7,1.1,1.7,1.9,3,2.3c1.4,0.5,2.9,0.8,4.3,0.8h0l0.1,0c1.7,0,3.6-0.4,5.2-1.3
		C79.3,106.2,80.1,105.1,80.3,103.9C80.3,103.9,80.3,103.9,80.3,103.9z"/>
	<path style="fill:#FFFFFF;" d="M64.7,98.4c0,0.6,0.2,1.1,0.6,1.7c0.3,0.4,0.7,0.7,1.2,1c0.2,0.1,0.3,0.2,0.5,0.3h0.3l0.2,0.2
		c1.7,0.7,3.4,1,5.1,1l1.5,0l0,0c0.4,0,0.8-0.1,1.3-0.2c0.8-0.2,1.6-0.4,2.4-0.7c1.1-0.5,2-1.1,2.5-1.9c0.2-0.4,0.4-0.7,0.4-1.1
		c-0.1-1.3-1-2.4-2.2-2.9l-0.2-0.1c-0.1-0.1-0.2-0.1-0.4-0.2c-1.7-0.7-3.4-1-5.2-1c-1.8,0-3.5,0.3-5.2,1l-0.1,0
		C66.1,96,65.1,97.1,64.7,98.4z"/>
	<path style="fill:#FFFFFF;" d="M98.7,94.6c-0.1,0-0.1,0.1-0.2,0.1c-0.3,0.2-0.7,0.3-1,0.4c-1.8,0.7-3.6,1.1-5.6,1.2l-0.2,0
		c-0.1,0-0.3,0-0.4,0c0,0-0.1,0-0.1,0l-1.4,0v-0.1v0c-1-0.1-2.1-0.3-3.1-0.6c0,0,0,0,0,0c0,0,0,0,0,0c0,0,0,0,0,0
		c-0.7-0.2-1.4-0.4-2-0.7c-0.4-0.2-0.7-0.3-1-0.5l0,0.2l0,0.1c0,0.2,0,0.4,0.1,0.5c0.1,0.1,0.2,0.3,0.2,0.4c0.7,1.1,1.8,1.9,3,2.3
		c1.3,0.5,2.6,0.7,3.9,0.8l0.1-0.1l0.5,0c1.8,0,3.6-0.4,5.2-1.3c1.2-0.6,2-1.6,2.3-2.8C98.8,94.5,98.7,94.5,98.7,94.6z"/>
	<path style="fill:#FFFFFF;" d="M83.2,89.1c0,0.3,0.1,0.8,0.4,1.3c0.3,0.5,0.9,1,1.5,1.3c0.2,0.1,0.5,0.2,0.7,0.4
		c0.5,0.2,1,0.4,1.6,0.6c0.9,0.3,1.9,0.4,2.8,0.5c0.3,0,0.6,0,0.9,0l1.3,0c1.4-0.1,2.7-0.4,3.9-0.9l0.2-0.1c0.9-0.3,1.7-0.9,2.2-1.7
		c0.2-0.4,0.4-0.9,0.5-1.3c-0.2-1.3-1-2.3-2.2-2.8l-0.2-0.1c-0.1-0.1-0.2-0.1-0.3-0.2c-1.7-0.7-3.4-1-5.2-1c-1.8,0-3.5,0.3-5.2,1
		l-0.1,0C84.5,86.6,83.5,87.7,83.2,89.1z"/>
	<path style="fill:#FFFFFF;" d="M51.1,68.4c0.6,7.8,1,12.9,1,15c0.1,1.8,2.2,2.3,3.5,2.5l0.9,0c1.1,0,2.1-0.2,3.1-0.7
		c0.7-0.3,1.2-0.9,1.3-1.6c0-0.3,0.3-3.3,1.3-15.3c0.7-8.1,1.4-17.8,2-24.9l0-0.4c0,0,0,0,0,0c-0.5,0.2-1.1,0.3-1.7,0.5
		c-0.1,0-0.3,0.1-0.4,0.1c-0.6,0.1-1.1,0.2-1.7,0.3c0,0-0.1,0-0.1,0c-0.5,0.1-1.1,0.1-1.6,0.2c-0.1,0-0.2,0-0.4,0
		c-0.5,0-1,0.1-1.5,0.1c-0.1,0-0.1,0-0.2,0c-0.1,0-0.2,0-0.3,0c-0.5,0-1,0-1.5-0.1c-0.1,0-0.3,0-0.4,0c-0.6-0.1-1.1-0.1-1.7-0.2
		c-0.1,0-0.2,0-0.3,0c-0.5-0.1-1-0.2-1.5-0.3c-0.1,0-0.3-0.1-0.4-0.1c-0.6-0.1-1.1-0.3-1.6-0.5c0,0,0,0,0,0
		C49.5,48.8,50.4,59.4,51.1,68.4z"/>
	<path style="fill:#FFFFFF;" d="M65.8,2.1C63,0.7,59.9,0,56.8,0c-5.2,0-10.3,1.9-14.3,5.8c-8.1,7.9-8.3,20.9-0.4,29.1
		c1.7,1.7,3.7,3.1,5.9,4.2c5.5,2.6,11.8,2.7,17.3,0.2c2.2-1,4.2-2.3,5.9-4l0.5-0.4C79.3,26.8,79.2,14,71.3,6c-1-1-2-1.8-3.2-2.6
		L65.8,2.1z"/>
</g>
<g>
	<polygon style="fill:none;" points="492.7,48.2 486.9,42.2 480.9,48.1 480.9,48.1 486.9,54.1 	"/>
	<path style="fill:#FFFFFF;" d="M595.9,155c0,0-1.2-1.5-3-3.7c-2.7-3.3-6.8-8.4-10.3-12.8c-1.8-2.2-3.5-4.3-4.8-5.9
		c-1.3-1.6-2.3-2.8-2.6-3.2c-0.9-1.2-1.7-2.3-3-3.4c-0.7-0.5-1.5-1-2.4-1.2c-0.9-0.3-1.9-0.4-2.9-0.4c-1,0-15.4,0-21.9,0v-3.7
		c0-0.8-0.3-1.6-0.9-2.2c-0.6-0.6-1.4-0.9-2.2-0.9h-21.7V107h22c0.8,0,1.6-0.3,2.2-0.9c0.6-0.6,0.9-1.4,0.9-2.2v-6.8
		c0-0.8-0.3-1.6-0.9-2.2c-0.6-0.6-1.4-0.9-2.2-0.9h-22.6v-9.7h22c0.8,0,1.6-0.3,2.2-0.9c0.6-0.6,0.9-1.4,0.9-2.2v-6.8
		c0-0.8-0.3-1.6-0.9-2.2c-0.6-0.6-1.4-0.9-2.2-0.9H509c-0.8,0-1.6,0.3-2.2,0.9c-0.6,0.6-0.9,1.4-0.9,2.2v49.8h-12.8V68.6
		c0-0.8-0.3-1.6-0.9-2.2c-0.6-0.6-1.4-0.9-2.2-0.9h-7.5c-0.8,0-1.6,0.3-2.2,0.9c-0.6,0.6-0.9,1.4-0.9,2.2v55.7h-40.1V90.7h24.1
		c0.8,0,1.6-0.3,2.2-0.9c0.6-0.6,0.9-1.4,0.9-2.2V52.2c0-0.8-0.3-1.6-0.9-2.2c-0.6-0.6-1.4-0.9-2.2-0.9h-36c-0.8,0-1.6,0.3-2.2,0.9
		c-0.6,0.6-0.9,1.4-0.9,2.2v72.4h-29.8v-4.4h14c0.8,0,1.6-0.3,2.2-0.9c0.6-0.6,0.9-1.4,0.9-2.2v-43c0-0.8-0.3-1.6-0.9-2.2
		c-0.6-0.6-1.4-0.9-2.2-0.9h-42.6c-0.8,0-1.6,0.3-2.2,0.9c-0.6,0.6-0.9,1.4-0.9,2.2v43c0,0.8,0.3,1.6,0.9,2.2
		c0.6,0.6,1.4,0.9,2.2,0.9h13.4v4.4c-7.9,0-28.3,0-29.7,0c-0.8,0-1.4,0-1.8-0.1c-0.3-0.1-0.5-0.2-0.9-0.4c-0.1-0.1-0.2-0.2-0.3-0.4
		c-1.7-1.8-6.9-7.7-11.7-13.2c-1.7-1.9-3.3-3.7-4.7-5.3h16.6c0.8,0,1.6-0.3,2.2-0.9c0.6-0.6,0.9-1.4,0.9-2.2V74.4
		c0-0.8-0.3-1.6-0.9-2.2c-0.6-0.6-1.4-0.9-2.2-0.9h-32c-0.8,0-1.6,0.3-2.2,0.9c-0.6,0.6-0.9,1.4-0.9,2.2v50h-12.6v-62h25.1
		c0.8,0,1.6-0.3,2.2-0.9c0.6-0.6,0.9-1.4,0.9-2.2v-7.5c0-0.8-0.3-1.6-0.9-2.2c-0.6-0.6-1.4-0.9-2.2-0.9h-63.6
		c-0.8,0-1.6,0.3-2.2,0.9c-0.6,0.6-0.9,1.4-0.9,2.2v7.5c0,0.8,0.3,1.6,0.9,2.2c0.6,0.6,1.4,0.9,2.2,0.9h24.7v62h-12.8v-4
		c0-0.8-0.3-1.6-0.9-2.2c-0.6-0.6-1.4-0.9-2.2-0.9h-22.3v-10.6l22.3,0c0.8,0,1.6-0.3,2.2-0.9c0.6-0.6,0.9-1.4,0.9-2.2v-6.9
		c0-0.8-0.3-1.6-0.9-2.2c-0.6-0.6-1.4-0.9-2.2-0.9h-22.5v-9.5h22.6c0.8,0,1.6-0.3,2.2-0.9c0.6-0.6,0.9-1.4,0.9-2.2v-7.1
		c0-0.8-0.3-1.6-0.9-2.2c-0.6-0.6-1.4-0.9-2.2-0.9h-33.1c-0.8,0-1.6,0.3-2.2,0.9c-0.6,0.6-0.9,1.4-0.9,2.2v50.4
		c-5.3,0-15.8,0-16.6,0c0,0,0,0,0,0c-0.1-0.1-0.2-0.2-0.4-0.3c-0.1-0.1-0.2-0.3-0.3-0.5c-1-1.5-2.9-4.6-5.2-8.4
		c-3.4-5.7-7.6-12.9-11-18.7c-1.2-2.1-2.3-4-3.2-5.6h21.7c0.8,0,1.6-0.3,2.2-0.9c0.6-0.6,0.9-1.4,0.9-2.2V52.2
		c0-0.8-0.3-1.6-0.9-2.2c-0.6-0.6-1.4-0.9-2.2-0.9h-35.4c-1.7,0-3.1,1.4-3.1,3.1l-0.4,72.2c-2.3,0-5.7,0-9.2,0.1
		c-6.2,0-12.5,0.1-13,0.1c-0.5,0-0.8-0.1-1-0.3c-0.1-0.1-0.2-0.1-0.2-0.2l-22.5-27.2c-1.1-1.3-3-1.5-4.3-0.4c-1.3,1.1-1.5,3-0.4,4.3
		v0l22.6,27.3l0,0c0.2,0.2,0.7,0.8,1.6,1.4c1,0.6,2.5,1.2,4.3,1.2c1.1,0,25.3-0.1,25.3-0.1c1.7,0,3.1-1.4,3.1-3.1l0.4-72.2h29.3
		v29.4l-23.9,0c-1.1,0-2.1,0.6-2.7,1.5c-0.6,1-0.6,2.1,0,3.1c0,0,5.4,9.4,11,19c2.8,4.8,5.7,9.6,7.9,13.3c1.1,1.8,2.1,3.4,2.8,4.6
		c0.4,0.6,0.7,1.1,1,1.5c0.1,0.2,0.3,0.4,0.4,0.6c0.1,0.1,0.2,0.2,0.3,0.3c0.1,0.1,0.2,0.3,0.6,0.5c0.6,0.4,1,0.7,1.8,1.1
		c0.4,0.2,0.9,0.3,1.3,0.4c0.4,0.1,0.8,0.1,1.1,0.1h19.7c0.8,0,1.6-0.3,2.2-0.9c0.6-0.6,0.9-1.4,0.9-2.2V77h26.9v0.9h-22.6
		c-0.8,0-1.6,0.3-2.2,0.9c-0.6,0.6-0.9,1.4-0.9,2.2v15.7c0,0.8,0.3,1.6,0.9,2.2c0.6,0.6,1.4,0.9,2.2,0.9h22.5v0.7l-22.3,0
		c-0.8,0-1.6,0.3-2.2,0.9c-0.6,0.6-0.9,1.4-0.9,2.2v16.7c0,0.8,0.3,1.6,0.9,2.2c0.6,0.6,1.4,0.9,2.2,0.9h22.3v4
		c0,0.8,0.3,1.6,0.9,2.2c0.6,0.6,1.4,0.9,2.2,0.9h19c0.8,0,1.6-0.3,2.2-0.9c0.6-0.6,0.9-1.4,0.9-2.2V59.2c0-0.8-0.3-1.6-0.9-2.2
		c-0.6-0.6-1.4-0.9-2.2-0.9h-24.7v-1.3h57.4v1.3H296c-0.8,0-1.6,0.3-2.2,0.9c-0.6,0.6-0.9,1.4-0.9,2.2v68.2c0,0.8,0.3,1.6,0.9,2.2
		c0.6,0.6,1.4,0.9,2.2,0.9h18.8c0.8,0,1.6-0.3,2.2-0.9c0.6-0.6,0.9-1.4,0.9-2.2v-50h25.9v21.6h-20.3c-1.2,0-2.3,0.7-2.8,1.8
		c-0.5,1.1-0.3,2.4,0.5,3.3c0,0,5.1,5.9,10.4,11.8c2.6,3,5.3,6,7.3,8.3c1,1.2,1.9,2.1,2.6,2.9c0.3,0.4,0.6,0.7,0.8,0.9
		c0.1,0.1,0.2,0.2,0.3,0.3c0.1,0.1,0.2,0.2,0.3,0.3c1.1,0.9,2.4,1.5,3.6,1.8c1.2,0.3,2.2,0.3,3.1,0.3h32.8c0.8,0,1.6-0.3,2.2-0.9
		c0.6-0.6,0.9-1.4,0.9-2.2v-10.6c0-0.8-0.3-1.6-0.9-2.2c-0.6-0.6-1.4-0.9-2.2-0.9H369V77.2h36.4v36.9l-14,0c-0.8,0-1.6,0.3-2.2,0.9
		c-0.6,0.6-0.9,1.4-0.9,2.2v10.6c0,0.8,0.3,1.6,0.9,2.2c0.6,0.6,1.4,0.9,2.2,0.9h36c0.8,0,1.6-0.3,2.2-0.9c0.6-0.6,0.9-1.4,0.9-2.2
		V55.3h29.8v29.2h-24.1c-0.8,0-1.6,0.3-2.2,0.9c-0.6,0.6-0.9,1.4-0.9,2.2v39.8c0,0.8,0.3,1.6,0.9,2.2c0.6,0.6,1.4,0.9,2.2,0.9h46.3
		c0.8,0,1.6-0.3,2.2-0.9c0.6-0.6,0.9-1.4,0.9-2.2V71.7h1.3v55.7c0,0.8,0.3,1.6,0.9,2.2c0.6,0.6,1.4,0.9,2.2,0.9h19
		c0.8,0,1.6-0.3,2.2-0.9c0.6-0.6,0.9-1.4,0.9-2.2V77.6h26.4v0.6l-22,0c-0.8,0-1.6,0.3-2.2,0.9c-0.6,0.6-0.9,1.4-0.9,2.2v15.9
		c0,0.8,0.3,1.6,0.9,2.2c0.6,0.6,1.4,0.9,2.2,0.9h22.6v0.6l-22,0c-0.8,0-1.6,0.3-2.2,0.9c-0.6,0.6-0.9,1.4-0.9,2.2v16.7
		c0,0.8,0.3,1.6,0.9,2.2c0.6,0.6,1.4,0.9,2.2,0.9h21.7v3.7c0,0.8,0.3,1.6,0.9,2.2c0.6,0.6,1.4,0.9,2.2,0.9h25c0.6,0,0.9,0.1,1.1,0.1
		c0.3,0.1,0.3,0.1,0.7,0.5c0.3,0.3,0.9,1,1.6,2c0.5,0.7,2,2.6,4.1,5.1c6.1,7.6,16.7,20.6,16.7,20.6l0,0c0.6,0.8,1.5,1.1,2.4,1.1
		c0.7,0,1.4-0.2,1.9-0.7C596.7,158.3,596.9,156.3,595.9,155z"/>
	<path style="fill:#FFFFFF;" d="M292.1,56.5C292.2,56.5,292.2,56.5,292.1,56.5L292.1,56.5C292.1,56.5,292.1,56.5,292.1,56.5z"/>
	<path style="fill:#FFFFFF;" d="M484.8,60.6L484.8,60.6c0.5,0.6,1.3,0.9,2.2,0.9h0c0.8,0,1.6-0.3,2.2-0.9l10.1-10.3
		c1.2-1.2,1.2-3.1,0-4.3l-10.1-10.3c-1.2-1.2-3.1-1.2-4.3,0l-10.4,10.1c-0.6,0.6-0.9,1.4-0.9,2.2c0,0.8,0.3,1.6,0.9,2.2L484.8,60.6z
		 M480.9,48.1l6-5.8l5.9,5.9l-5.8,5.9L480.9,48.1L480.9,48.1z"/>
</g>
</svg>
