<?xml version="1.0" encoding="utf-8"?>
<!-- Generator: Adobe Illustrator 24.0.1, SVG Export Plug-In . SVG Version: 6.00 Build 0)  -->
<svg version="1.1" id="Layer_2" xmlns="http://www.w3.org/2000/svg" xmlns:xlink="http://www.w3.org/1999/xlink" x="0px" y="0px"
	 viewBox="0 0 566.9 140" style="enable-background:new 0 0 566.9 140;" xml:space="preserve">
<path style="fill:#FFFFFF;" d="M78.5,47.7c0-7-3.5-11.3-9.6-11.3s-7.8,4.3-7.8,9.6c0,5.2,4.3,9.6,20.9,17.4s20,18.3,20,31.3
	s-10.5,34-34,34s-33-14.8-33-36.6c15.7,0,20.9,0,20.9,0c0,8.7,4.3,13.1,11.3,13.1s9.6-5.2,9.6-9.6c0-4.3,0.7-6.6-24.4-19.1
	C36.7,68.6,35.8,51.2,35.8,46s2.6-21.7,16.5-29.6c13.9-7.8,33.9-2.6,41.8,7.8c7.8,10.4,5.2,23.5,5.2,23.5
	C90.6,47.7,78.5,47.7,78.5,47.7z"/>
<g>
	<g>
		<path style="fill:#FFFFFF;" d="M266.4,13.8h-25.2v62.6l-40.9-63.5H175V79l-42.6-65.2h-26.1l0.9,114.8h28.7v-17.4h25.2l10.4,16.5
			h32.2c0,0,0-48.7,0-55.7l36.5,56.5H269V72.1l36.5,55.7h33.9L266.4,13.8z M135.9,88.6V72.1l11.3,16.5H135.9L135.9,88.6z"/>
	</g>
</g>
<path style="fill:#FFFFFF;" d="M344.7,126.9L272.5,13.8h145.3l-33.9,53.9c0,0-8.7-5.2-20,12.2s-6.1,24.4-5.2,27
	C355.1,113,344.7,126.9,344.7,126.9z"/>
<g>
	<g>
		<path style="fill:#FFFFFF;" d="M518.9,64.9c-3.6,1.9-9,0.7-10-5.2c12.6-8.4,15.9-13.2,17.1-19.9c1.2-6.7-4.8-7-10.9-3.2
			s-14.4,13.5-14.6,25.8c-3.9,5.7-8,12.2-14.4,11.9c7.2-13.5,8.7-20,7.7-24.8s-6.2-4.8-18.1,13c1.2-10.7,5.7-20.3,6.5-22.9
			c0.9-2.6,1-4.8-1.7-4.1c-2.8,0.7-6.4,7.2-11.2,19.1c-4.8,11.9-12.5,22.5-14.8,25.2c-2.3,2.8-6.2,3.9-5.9-3.3
			c0.3-7.2,4.9-13,5.9-16.2s-0.7-8.6-2.8-7.3s-8.5,14-11.7,19.5s-7.1,10.6-8.6,12c-1.4,1.4-4.4,1-3.2-3.5c1.2-4.5,4.2-9.1,5.7-11.5
			c1.5-2.3,4.5-7.1,1.3-8.4s-10.9,2.8-13.5,20.4c-2.2,4.5-4.9,7.4-8.3,8.6c1.3-6.4,2.9-22-3.3-19c1-3.5-0.7-5.1-4.1-4.5
			c-3.3,0.6-17.1,8.4-18,26c-3,5.4-10.7,12.2-14.8,12.2c-4.1,0-6.4-3.6-6.1-7.5s5.4-9.3,7.8-10.4c0.9,2.2,2.3,2,3.2,2
			c0.9,0,3.6-3.2,4.6-8.1s0.4-7.4-2-8.3c-2.5-0.9-9.3,3.5-13.3,9.3c-4.1,5.8-11,17.1-2.2,27.1s17.7-0.9,24.1-12.8
			c1.7,6.5,6.7,9.3,10.3,9.3c3.6,0,9.4-4.5,11.7-9.7c3.5,0.1,8.4-4.4,10.6-8.6c-0.1,4.6,5.7,9,9.1,8.3c3.5-0.7,8-9.4,10.7-15.4
			c0,7.7-0.4,13.5,5.1,13.3c5.5-0.1,14.1-15.8,23.5-33.1c-4.4,21-7.5,28.4-8.3,34.5c-0.7,6.1,0.6,15.1,3.2,15.1s4.9-12.9,5.7-24.4
			c5.5-1.6,6.7-2,7.7-2s4.8,1.6,10.4-2.5c5.7-4.1,9-9.3,13-14.6c3,7.4,8.3,10,16.8,5.2c8.6-4.8,13-18.1,13.8-21.5
			C527.9,58,522.5,63.1,518.9,64.9z M406.1,91.5c-0.3,5.7-4.2,7.2-5.9,7.2s-4.9-0.3-4.9-5.8s4.9-12,10.1-17.1c2-1.9-0.1,3-0.7,8.6
			C404.1,89.9,405,92.2,406.1,91.5z M474.7,75.4c1.6-8.4,7.8-17.7,10.9-17.7c3,0-0.9,9.6-2.6,13C481.2,74.2,478.3,74.5,474.7,75.4z
			 M517.8,40.4c2.8-2.3,3.9,1,1.2,4.9c-2.8,3.9-8.8,9.6-10.4,10.1C509.2,47.8,515,42.8,517.8,40.4z"/>
	</g>
</g>
<path style="fill:#FFFFFF;" d="M508.3,32.9c0.1-3.6,2-8.6,5.4-12.5c3.3-3.9,9.1-10,11.3-10.3s3.2,1.9,3.2,5.4s0,4.6-2.5,6.5
	s-10.6,7.7-11.9,9C512.5,32.3,508.2,36.8,508.3,32.9z"/>
</svg>
