<?xml version="1.0" encoding="utf-8"?>
<!-- Generator: Adobe Illustrator 24.0.1, SVG Export Plug-In . SVG Version: 6.00 Build 0)  -->
<svg version="1.1" id="Layer_4" xmlns="http://www.w3.org/2000/svg" xmlns:xlink="http://www.w3.org/1999/xlink" x="0px" y="0px"
	 viewBox="0 0 598.2 350.3" style="enable-background:new 0 0 598.2 350.3;" xml:space="preserve">
<style type="text/css">
	.st0{fill:#FFFFFF;}
</style>
<g>
	<path class="st0" d="M56.6,194.9c-0.8,0.5-1.3,1.4-1.3,2.5v22.8c0,1.7,1.3,3,3,3l41.4,0c1.1,0,2.1-0.7,2.6-1.6
		c0.5,0.9,1.5,1.6,2.6,1.6l40.3,0c1.1,0,2-0.6,2.6-1.4c0.5,0.9,1.5,1.4,2.6,1.4h214.9c1,0,1.8-0.5,2.4-1.2c0.5,0.7,1.4,1.2,2.4,1.2
		l38.3,0c1,0,1.8-0.5,2.4-1.2c0.6,0.7,1.4,1.2,2.4,1.2l43.4,0c1.4,0,2.6-1,2.9-2.3c0.3,1.3,1.5,2.3,2.9,2.3h22.8
		c0.8,0,1.6-0.3,2.1-0.9c0.5,0.5,1.3,0.9,2.1,0.9l22.8,0c0.9,0,1.7-0.4,2.2-1c0.6,0.6,1.3,1,2.2,1h22.8c1.7,0,3-1.3,3-3v-22.8
		c0-1-0.5-1.9-1.3-2.5c0.8-0.5,1.3-1.4,1.3-2.5v-22.8c0-1-0.5-1.9-1.3-2.5c0.8-0.5,1.3-1.4,1.3-2.5V142c0-1-0.5-1.9-1.3-2.5
		c0.8-0.5,1.3-1.4,1.3-2.5v-22.8c0-1-0.5-1.9-1.3-2.5c0.8-0.5,1.3-1.4,1.3-2.5V86.6c0-1.7-1.4-3-3-3l-22.8,0c-0.9,0-1.7,0.4-2.2,1
		c-0.6-0.6-1.3-1-2.2-1l-22.8,0c-0.8,0-1.6,0.3-2.1,0.9c-0.5-0.5-1.3-0.9-2.1-0.9h-22.8c-1.4,0-2.6,1-2.9,2.3
		c-0.3-1.3-1.5-2.3-2.9-2.3h-36.2c-1.6,0-2.9,1.2-3,2.8c-0.1-1.6-1.4-2.8-3-2.8l-22.8,0c-1,0-2,0.5-2.5,1.3
		c-0.5-0.8-1.5-1.3-2.5-1.3l-22.8,0c-1,0-2,0.5-2.5,1.3c-0.5-0.8-1.5-1.3-2.5-1.3l-22.8,0c-1,0-2,0.5-2.5,1.3
		c-0.5-0.8-1.5-1.3-2.5-1.3h-22.8c-1,0-2,0.5-2.5,1.3c-0.5-0.8-1.5-1.3-2.5-1.3h-22.8c-1,0-2,0.5-2.5,1.3c-0.5-0.8-1.5-1.3-2.5-1.3
		h-22.8c-1,0-2,0.5-2.5,1.3c-0.5-0.8-1.5-1.3-2.5-1.3h-22.8c-1,0-2,0.5-2.5,1.3c-0.5-0.8-1.5-1.3-2.5-1.3h-22.8c-1,0-2,0.5-2.5,1.3
		c-0.5-0.8-1.5-1.3-2.5-1.3h-22.8c-1,0-2,0.5-2.5,1.3c-0.5-0.8-1.5-1.3-2.5-1.3h-22.8c-1,0-2,0.5-2.5,1.3c-0.5-0.8-1.5-1.3-2.5-1.3
		h-22.8c-1,0-2,0.5-2.5,1.3c-0.5-0.8-1.5-1.3-2.5-1.3H86.1c-1,0-2,0.5-2.5,1.3c-0.5-0.8-1.5-1.3-2.5-1.3H58.3c-1.7,0-3,1.3-3,3v22.8
		c0,1,0.5,1.9,1.3,2.5c-0.8,0.5-1.3,1.4-1.3,2.5v22.8c0,1,0.5,1.9,1.3,2.5c-0.8,0.5-1.3,1.4-1.3,2.5v22.8c0,1,0.5,1.9,1.3,2.5
		c-0.8,0.5-1.3,1.4-1.3,2.5v22.8C55.3,193.5,55.8,194.4,56.6,194.9z M418,111.3h-1.4c0.4-0.5,0.7-1.1,0.7-1.7
		C417.4,110.2,417.6,110.8,418,111.3z M146.2,194.6c0.1-0.1,0.2-0.3,0.4-0.4c0.4,0.6,1,1,1.6,1.2c-0.1,0.2-0.3,0.3-0.4,0.5
		C147.5,195.3,146.9,194.8,146.2,194.6z M59.3,108.3V87.6h20.8v20.8H59.3z M87.1,108.3V87.6h20.8v20.8H87.1z M114.8,108.3l0-20.8
		h20.8v20.8H114.8z M142.6,108.3V87.6h20.8v20.8H142.6z M170.4,108.3V87.6h20.8v20.8H170.4z M198.1,108.3V87.6h20.8v20.8H198.1z
		 M253.7,108.3V87.6h20.8v20.8H253.7z M281.5,108.3V87.6h20.8v20.8H281.5z M309.2,108.3l0-20.8l20.8,0v20.8H309.2z M421.3,108.3
		l0-20.8l34.2,0v20.8H421.3z M455.5,198.4v20.8l-41.4,0v-20.8L455.5,198.4z M144.3,198.4v20.8l-38.3,0v-20.8L144.3,198.4z
		 M59.3,163.8V143l41.4,0v20.8L59.3,163.8z M59.3,136.1l0-20.8l35.2,0v20.8H59.3z M246.7,87.6v20.8l-20.8,0V87.6H246.7z
		 M407.3,198.4v20.8H371l0-20.8H407.3z M104.6,141.2c-0.1-0.4-0.3-0.8-0.6-1.2h1.2C105,140.4,104.7,140.8,104.6,141.2z M101.6,136.1
		v-20.8l20.8,0v20.8H101.6z M129.4,136.1v-20.8l20.8,0v20.8H129.4z M157.2,136.1v-20.8l20.8,0v20.8H157.2z M184.9,136.1v-20.8
		l20.8,0v20.8H184.9z M212.7,136.1v-20.8l20.8,0v20.8H212.7z M240.5,136.1v-20.8l20.8,0v20.8H240.5z M268.3,136.1v-20.8l20.8,0v20.8
		L268.3,136.1z M296,136.1v-20.8h20.8v20.8H296z M351.6,136.1v-20.8h20.8v20.8H351.6z M379.3,136.1l0-20.8h20.8v20.8H379.3z
		 M407.1,136.1v-20.8h20.8v20.8H407.1z M454.9,170.7v20.8H400l0-20.8H454.9z M170.9,170.7v20.8l-20.8,0l0-20.8H170.9z M410.6,140.5
		c-0.1-0.2-0.2-0.3-0.3-0.5l0.8,0C410.9,140.2,410.8,140.4,410.6,140.5z M365.2,170.7v20.8h-20.8v-20.8H365.2z M157.1,143v20.8
		l-20.8,0V143L157.1,143z M132.8,140.3c-0.1-0.1-0.1-0.2-0.2-0.3h0.4C132.9,140.1,132.9,140.2,132.8,140.3z M129.3,143v20.8l-20.8,0
		V143L129.3,143z M122.3,191.5v-20.8h20.8v20.8L122.3,191.5z M132.6,166.7c0.1-0.1,0.1-0.2,0.2-0.3c0.1,0.1,0.1,0.2,0.2,0.3H132.6z
		 M386.2,163.8V143H407v20.8L386.2,163.8z M382.7,140.3c-0.1-0.1-0.1-0.2-0.2-0.3h0.4C382.9,140.1,382.8,140.2,382.7,140.3z
		 M379.2,143v20.8h-20.8V143L379.2,143z M355,140.3c-0.1-0.1-0.1-0.2-0.2-0.3h0.4C355.1,140.1,355,140.2,355,140.3z M337.5,170.7
		v20.8h-20.8v-20.8H337.5z M191.8,163.8V143l20.8,0v20.8L191.8,163.8z M219.6,163.8V143l20.8,0v20.8L219.6,163.8z M247.4,163.8V143
		l20.8,0v20.8L247.4,163.8z M275.1,163.8V143h20.8v20.8H275.1z M302.9,163.8V143h20.8v20.8L302.9,163.8z M330.7,163.8V143h20.8v20.8
		H330.7z M327.4,166.7H327c0.1-0.1,0.2-0.2,0.2-0.3C327.3,166.5,327.3,166.6,327.4,166.7z M288.9,191.5l0-20.8h20.8v20.8
		L288.9,191.5z M261.1,191.5v-20.8h20.8v20.8L261.1,191.5z M233.4,191.5v-20.8h20.8v20.8L233.4,191.5z M205.6,191.5v-20.8h20.8v20.8
		L205.6,191.5z M188.3,166.4c0.1,0.1,0.1,0.2,0.2,0.3h-0.4C188.2,166.6,188.3,166.5,188.3,166.4z M299.6,166.7h-0.4
		c0.1-0.1,0.2-0.2,0.2-0.3C299.5,166.5,299.6,166.6,299.6,166.7z M271.9,166.7h-0.4c0.1-0.1,0.2-0.2,0.2-0.3
		C271.7,166.5,271.8,166.6,271.9,166.7z M244.1,166.7h-0.4c0.1-0.1,0.1-0.2,0.2-0.3C243.9,166.5,244,166.6,244.1,166.7z
		 M216.3,166.7h-0.4c0.1-0.1,0.2-0.2,0.2-0.3C216.2,166.5,216.3,166.6,216.3,166.7z M188.3,140.3c-0.1-0.1-0.1-0.2-0.2-0.3h0.4
		C188.5,140.1,188.4,140.2,188.3,140.3z M184.8,143v20.8l-20.8,0l0-20.8L184.8,143z M198.6,170.7v20.8l-20.8,0v-20.8H198.6z
		 M201.9,167.8h0.4c-0.1,0.1-0.2,0.2-0.2,0.3C202,167.9,202,167.9,201.9,167.8z M229.7,167.8h0.4c-0.1,0.1-0.2,0.2-0.2,0.3
		C229.8,167.9,229.7,167.9,229.7,167.8z M257.4,167.8h0.4c-0.1,0.1-0.2,0.2-0.2,0.3C257.6,167.9,257.5,167.9,257.4,167.8z
		 M285.2,167.8h0.4c-0.1,0.1-0.2,0.2-0.2,0.3C285.4,167.9,285.3,167.9,285.2,167.8z M313,167.8h0.4c-0.1,0.1-0.2,0.2-0.2,0.3
		C313.1,167.9,313.1,167.9,313,167.8z M327.2,140.3c-0.1-0.1-0.1-0.2-0.2-0.3h0.4C327.3,140.1,327.3,140.2,327.2,140.3z
		 M299.4,140.3c-0.1-0.1-0.1-0.2-0.2-0.3h0.4C299.6,140.1,299.5,140.2,299.4,140.3z M271.7,140.3c-0.1-0.1-0.1-0.2-0.2-0.3h0.4
		C271.8,140.1,271.7,140.2,271.7,140.3z M243.9,140.3c-0.1-0.1-0.1-0.2-0.2-0.3h0.4C244,140.1,243.9,140.2,243.9,140.3z
		 M216.1,140.3c-0.1-0.1-0.1-0.2-0.2-0.3h0.4C216.3,140.1,216.2,140.2,216.1,140.3z M160.6,140.3c-0.1-0.1-0.1-0.2-0.2-0.3h0.4
		C160.7,140.1,160.6,140.2,160.6,140.3z M160.6,166.4c0.1,0.1,0.1,0.2,0.2,0.3h-0.4C160.4,166.6,160.5,166.5,160.6,166.4z
		 M202.1,194.1c0.1,0.1,0.1,0.2,0.2,0.3h-0.4C202,194.3,202,194.2,202.1,194.1z M229.9,194.1c0.1,0.1,0.1,0.2,0.2,0.3h-0.4
		C229.7,194.3,229.8,194.2,229.9,194.1z M257.7,194.1c0.1,0.1,0.1,0.2,0.2,0.3h-0.4C257.5,194.3,257.6,194.2,257.7,194.1z
		 M285.4,194.1c0.1,0.1,0.1,0.2,0.2,0.3h-0.4C285.3,194.3,285.4,194.2,285.4,194.1z M313.2,194.1c0.1,0.1,0.1,0.2,0.2,0.3H313
		C313.1,194.3,313.1,194.2,313.2,194.1z M340.8,167.8l0.4,0c-0.1,0.1-0.2,0.2-0.2,0.3C340.9,167.9,340.8,167.9,340.8,167.8z
		 M355,166.4c0.1,0.1,0.1,0.2,0.2,0.3h-0.4C354.8,166.6,354.9,166.5,355,166.4z M382.7,166.4c0.1,0.1,0.1,0.2,0.2,0.3h-0.4
		C382.6,166.6,382.7,166.5,382.7,166.4z M393,170.7v20.8l-20.8,0v-20.8L393,170.7z M181.7,139h-0.4c0.1-0.1,0.2-0.2,0.2-0.3
		C181.5,138.8,181.6,138.9,181.7,139z M174.1,167.8h0.4c-0.1,0.1-0.2,0.2-0.2,0.3C174.3,167.9,174.2,167.9,174.1,167.8z M341,194.1
		c0.1,0.1,0.1,0.2,0.2,0.3h-0.4C340.8,194.3,340.9,194.2,341,194.1z M396.3,167.8h0.4c-0.1,0.1-0.2,0.2-0.2,0.3
		C396.4,167.9,396.4,167.9,396.3,167.8z M410.3,166.7c0,0,0.1-0.1,0.1-0.1c0,0,0,0.1,0.1,0.1H410.3z M455.4,164.1H414v-20.8l16.6,0
		c1.3,0.1,2.9-0.5,3.5-2c0.5-0.9,0.6-2,0.7-3.1l0-22.8h20.6L455.4,164.1z M403.8,139h-0.4c0.1-0.1,0.2-0.2,0.2-0.3
		C403.7,138.8,403.8,138.9,403.8,139z M376.1,139h-0.4c0.1-0.1,0.2-0.2,0.2-0.3C375.9,138.8,376,138.9,376.1,139z M348.3,139h-0.4
		c0.1-0.1,0.1-0.2,0.2-0.3C348.1,138.8,348.2,138.9,348.3,139z M344.6,115.3v20.8l-20.8,0l0-20.8H344.6z M320.5,139h-0.4
		c0.1-0.1,0.2-0.2,0.2-0.3C320.4,138.8,320.5,138.9,320.5,139z M292.8,139h-0.4c0.1-0.1,0.2-0.2,0.2-0.3
		C292.6,138.8,292.7,138.9,292.8,139z M265,139h-0.4c0.1-0.1,0.2-0.2,0.2-0.3C264.8,138.8,264.9,138.9,265,139z M237.2,139h-0.4
		c0.1-0.1,0.2-0.2,0.2-0.3C237.1,138.8,237.1,138.9,237.2,139z M209.4,139H209c0.1-0.1,0.2-0.2,0.2-0.3
		C209.3,138.8,209.4,138.9,209.4,139z M181.5,112.6c-0.1-0.1-0.1-0.2-0.2-0.3l0.4,0C181.6,112.4,181.5,112.5,181.5,112.6z
		 M153.9,139h-0.4c0.1-0.1,0.2-0.2,0.2-0.3C153.7,138.8,153.8,138.9,153.9,139z M126.1,139h-0.4c0.1-0.1,0.2-0.2,0.2-0.3
		C126,138.8,126.1,138.9,126.1,139z M119,167.8c-0.1,0.1-0.2,0.2-0.3,0.4c-0.1-0.1-0.2-0.3-0.3-0.4H119z M118.7,194
		c0.1,0.1,0.2,0.3,0.3,0.4h-0.5C118.6,194.3,118.7,194.2,118.7,194z M174.3,194.1c0.1,0.1,0.1,0.2,0.2,0.3h-0.4
		C174.2,194.3,174.3,194.2,174.3,194.1z M151.4,219.2v-20.8h212.9l0,20.8H151.4z M396.3,194.4c0.1-0.1,0.2-0.2,0.2-0.3
		c0.1,0.1,0.1,0.2,0.2,0.3H396.3z M403.6,112.6c-0.1-0.1-0.1-0.2-0.2-0.3l0.4,0C403.8,112.4,403.7,112.5,403.6,112.6z M376.1,112.3
		c-0.1,0.1-0.2,0.2-0.2,0.3c-0.1-0.1-0.1-0.2-0.2-0.3H376.1z M348.3,112.3c-0.1,0.1-0.2,0.2-0.2,0.3c-0.1-0.1-0.1-0.2-0.2-0.3
		L348.3,112.3z M320.5,112.3c-0.1,0.1-0.2,0.2-0.2,0.3c-0.1-0.1-0.1-0.2-0.2-0.3L320.5,112.3z M292.8,112.3
		c-0.1,0.1-0.2,0.2-0.2,0.3c-0.1-0.1-0.1-0.2-0.2-0.3H292.8z M265,112.3c-0.1,0.1-0.2,0.2-0.2,0.3c-0.1-0.1-0.1-0.2-0.2-0.3H265z
		 M237.2,112.3c-0.1,0.1-0.2,0.2-0.2,0.3c-0.1-0.1-0.1-0.2-0.2-0.3H237.2z M209.2,112.6c-0.1-0.1-0.1-0.2-0.2-0.3l0.4,0
		C209.4,112.4,209.3,112.5,209.2,112.6z M153.9,112.3c-0.1,0.1-0.2,0.2-0.2,0.3c-0.1-0.1-0.1-0.2-0.2-0.3L153.9,112.3z M125.9,112.6
		c-0.1-0.1-0.1-0.2-0.2-0.3l0.4,0C126.1,112.4,126,112.5,125.9,112.6z M98.1,112.7c-0.1-0.1-0.2-0.3-0.3-0.4l0.5,0
		C98.3,112.5,98.2,112.6,98.1,112.7z M98.1,138.6c0.1,0.1,0.2,0.3,0.3,0.4h-0.5C97.9,138.9,98,138.7,98.1,138.6z M104.6,165.5
		c0.1,0.4,0.3,0.8,0.6,1.2H104C104.3,166.4,104.5,166,104.6,165.5z M146.4,167.8h0.4c-0.1,0.1-0.2,0.2-0.2,0.3
		C146.5,167.9,146.4,167.9,146.4,167.8z M368.5,167.8h0.4c-0.1,0.1-0.1,0.2-0.2,0.3C368.7,167.9,368.6,167.9,368.5,167.8z
		 M431.4,112.7c-0.1-0.1-0.2-0.2-0.3-0.4h0.6C431.6,112.5,431.5,112.6,431.4,112.7z M392.5,108.3V87.6h20.8v20.8H392.5z
		 M364.8,108.3V87.6h20.8v20.8H364.8z M337,108.3l0-20.8h20.8v20.8H337z M115.2,170.7v20.8l-55.9,0v-20.8L115.2,170.7z M98.7,198.4
		v20.8l-39.4,0v-20.8L98.7,198.4z M101.9,195.5l0.7,0c-0.1,0.2-0.3,0.3-0.4,0.5C102.2,195.8,102.1,195.6,101.9,195.5z M367.4,195.3
		c0.6-0.2,1-0.6,1.4-1.1c0.1,0.2,0.2,0.3,0.4,0.4c-0.6,0.2-1.1,0.6-1.4,1C367.6,195.5,367.5,195.4,367.4,195.3z M410.6,195.5h0.2
		c0,0-0.1,0.1-0.1,0.1C410.6,195.6,410.6,195.5,410.6,195.5z M389.3,111.3h-0.4c0.1-0.1,0.2-0.2,0.2-0.3
		C389.1,111.1,389.2,111.2,389.3,111.3z M361.5,111.3h-0.4c0.1-0.1,0.2-0.2,0.2-0.3C361.3,111.1,361.4,111.2,361.5,111.3z
		 M333.7,111.3h-0.4c0.1-0.1,0.2-0.2,0.2-0.3C333.6,111.1,333.6,111.2,333.7,111.3z M306,111.3h-0.4c0.1-0.1,0.2-0.2,0.2-0.3
		C305.8,111.1,305.9,111.2,306,111.3z M278.2,111.3h-0.4c0.1-0.1,0.2-0.2,0.2-0.3C278,111.1,278.1,111.2,278.2,111.3z M250.4,111.3
		H250c0.1-0.1,0.2-0.2,0.2-0.3C250.3,111.1,250.3,111.2,250.4,111.3z M222.6,111.3h-0.4c0.1-0.1,0.2-0.2,0.2-0.3
		C222.5,111.1,222.6,111.2,222.6,111.3z M194.9,111.3h-0.4c0.1-0.1,0.2-0.2,0.2-0.3C194.7,111.1,194.8,111.2,194.9,111.3z
		 M167.1,111.3h-0.4c0.1-0.1,0.2-0.2,0.2-0.3C166.9,111.1,167,111.2,167.1,111.3z M139.3,111.3h-0.4c0.1-0.1,0.2-0.2,0.2-0.3
		C139.2,111.1,139.3,111.2,139.3,111.3z M111.6,111.3h-0.4c0.1-0.1,0.2-0.2,0.2-0.3C111.4,111.1,111.5,111.2,111.6,111.3z
		 M83.8,111.3h-0.4c0.1-0.1,0.2-0.2,0.2-0.3C83.6,111.1,83.7,111.2,83.8,111.3z M459.4,196.7c-0.2-0.8-0.8-1.5-1.6-1.9
		c0.4-0.3,0.7-0.8,0.9-1.3h0.2v-23.8c0-0.8-0.3-1.5-0.8-2.1c0.7-0.5,1.2-1.2,1.4-2.1c0.2,0.7,0.6,1.3,1.2,1.7
		c-0.8,0.5-1.3,1.4-1.3,2.5v22.8c0,1,0.5,1.9,1.3,2.5C460,195.4,459.6,196,459.4,196.7z M459.4,138c0.2,0.6,0.6,1.2,1.1,1.5
		c-0.5,0.4-0.9,0.9-1.1,1.5L459.4,138z M463.3,108.3V87.6h20.8l0,20.8H463.3z M490.3,108.3l0-20.8l20.8,0v20.8L490.3,108.3z
		 M517.5,108.3l0-20.8l20.8,0l0,20.8H517.5z M538.3,198.4v20.8l-20.8,0l0-20.8L538.3,198.4z M484.1,198.4l0,20.8h-20.8v-20.8H484.1z
		 M463.3,136.1v-20.8h20.8l0,20.8H463.3z M463.3,163.8V143h20.8l0,20.8H463.3z M484.1,170.7l0,20.8l-20.8,0v-20.8H484.1z
		 M486.8,167.2c0.1-0.1,0.3-0.2,0.4-0.3c0.1,0.1,0.3,0.2,0.4,0.3c-0.1,0.1-0.3,0.2-0.4,0.3C487.1,167.5,486.9,167.3,486.8,167.2z
		 M490.3,163.8l0-20.8l20.8,0v20.8H490.3z M490.3,191.5l0-20.8l20.8,0v20.8L490.3,191.5z M490.3,136.1l0-20.8l20.8,0v20.8
		L490.3,136.1z M511.1,198.4v20.8l-20.8,0l0-20.8H511.1z M513.8,167.2c0.2-0.1,0.4-0.3,0.5-0.4c0.2,0.2,0.3,0.3,0.5,0.4
		c-0.2,0.1-0.4,0.3-0.5,0.4C514.2,167.5,514,167.4,513.8,167.2z M517.5,163.8l0-20.8h20.8l0,20.8H517.5z M517.5,191.5l0-20.8h20.8
		v20.8L517.5,191.5z M517.5,136.1l0-20.8h20.8l0,20.8H517.5z M514.8,139.5c-0.2,0.1-0.4,0.3-0.5,0.4c-0.2-0.2-0.3-0.3-0.5-0.5
		c0.2-0.1,0.4-0.3,0.5-0.5C514.5,139.2,514.6,139.4,514.8,139.5z M487.6,139.5c-0.1,0.1-0.3,0.2-0.4,0.3c-0.1-0.1-0.3-0.2-0.4-0.3
		c0.1-0.1,0.3-0.2,0.4-0.3C487.3,139.3,487.5,139.4,487.6,139.5z M486.8,194.9c0.1-0.1,0.3-0.2,0.4-0.3c0.1,0.1,0.3,0.2,0.4,0.3
		c-0.1,0.1-0.3,0.2-0.4,0.3C487.1,195.2,486.9,195.1,486.8,194.9z M513.8,194.9c0.2-0.1,0.4-0.3,0.5-0.5c0.2,0.2,0.3,0.3,0.5,0.4
		c-0.2,0.1-0.4,0.3-0.5,0.5C514.2,195.2,514,195.1,513.8,194.9z M514.8,111.8c-0.2,0.1-0.4,0.3-0.5,0.5c-0.2-0.2-0.3-0.3-0.5-0.5
		c0.2-0.1,0.4-0.3,0.5-0.5C514.5,111.5,514.6,111.7,514.8,111.8z M487.6,111.8c-0.1,0.1-0.3,0.2-0.4,0.3c-0.1-0.1-0.3-0.2-0.4-0.3
		c0.1-0.1,0.3-0.2,0.4-0.3C487.3,111.6,487.5,111.7,487.6,111.8z M459.4,110.1c0.2,0.7,0.6,1.3,1.2,1.7c-0.6,0.4-1.1,1.1-1.2,1.8
		c-0.1-0.4-0.2-0.7-0.4-1c-0.2-0.3-0.5-0.6-0.8-0.7C458.7,111.5,459.2,110.8,459.4,110.1z"/>
	<path class="st0" d="M549.1,76.7H48.6v152.5h500.5V76.7z M545.1,80.7v144.5H52.6V80.7H545.1z"/>
	<path class="st0" d="M593.6,293.2c0-4-1.5-7.8-4.3-10.7V84.3c2.7-2.9,4.3-6.7,4.3-10.7c0-4-1.5-7.8-4.3-10.7V2H6.4v60.8
		c-2.8,2.9-4.5,6.8-4.5,10.9c0,4.1,1.6,8,4.5,10.9v197.9c-2.8,2.9-4.5,6.8-4.5,10.9c0,4.1,1.6,8,4.5,10.9v43.2h582.9v-43.4
		C592,301,593.6,297.2,593.6,293.2z M589.3,295.7v-4.9c0.2,0.8,0.3,1.6,0.3,2.5C589.6,294.1,589.5,294.9,589.3,295.7z M6.4,70.4v6.4
		c-0.3-1-0.5-2.1-0.5-3.2C5.9,72.5,6.1,71.4,6.4,70.4z M6.4,290v6.4c-0.3-1-0.5-2.1-0.5-3.2C5.9,292.1,6.1,291.1,6.4,290z
		 M10.4,302.5L10.4,302.5v-0.2v-18.3l0.2-0.2l-0.2-0.2V82.9l0.1-0.1l-0.1-0.1V64.4l0.2-0.2L10.4,64V6h574.9v57.8l-0.4,0.5l0.4,0.4
		v17.9l-0.3,0.3l0.3,0.3v200.3l-0.4,0.5l0.4,0.4v17.9l-0.3,0.3l0.3,0.3v40.5h-19.8v-20.2l8.8-279.3l0-1h-11.6l0-26.7h-7.4v26.7
		h-10.6l0-26.7h-7.4v26.7h-10.6l0-26.7h-7.4v26.7h-10.6l0-26.7h-7.4v26.7h-10.6l0-26.7h-7.4v26.7h-10.6l0-26.7h-7.4v26.7h-10.6
		l0-26.7h-7.4v26.7h-10.6l0-26.7h-7.4v26.7h-10.6l0-26.7h-7.4v26.7h-10.6V16.1h-7.4v26.7h-10.6l0-26.7h-7.4v26.7h-10.6V16.1h-7.4
		v26.7h-10.6l0-26.7h-7.4v26.7h-10.6l0-26.7h-7.4v26.7h-10.6l0-26.7h-7.4v26.7h-10.6V16.1h-7.4v26.7h-10.6l0-26.7h-7.4v26.7h-10.6
		V16.1h-7.4v26.7h-10.6V16.1h-7.4v26.7h-10.6l0-26.7h-7.4v26.7h-10.6l0-26.7H195v26.7h-10.6V16.1H177v26.7h-10.6V16.1H159v26.7
		h-10.6l0-26.7H141v26.7h-10.6V16.1H123v26.7h-10.6l0-26.7H105v26.7H94.4V16.1H87v26.7H76.4V16.1h-7.4v26.7H58.4V16.1h-7.4v26.7
		H40.4V16.1h-7.4v26.7H21.8l8.8,280.3v20.2H10.4V302.5z M570.3,46.8l-8.7,274.3h-527L26,46.8H570.3z M34.7,325.1l162.3,0v18.2H34.7
		V325.1z M201,325.1l194.3,0v18.2H201V325.1z M399.3,325.1l162.3,0v18.2H399.3V325.1z M589.3,76v-4.9c0.2,0.8,0.3,1.6,0.3,2.5
		C589.6,74.4,589.5,75.2,589.3,76z"/>
</g>
</svg>
