<?xml version="1.0" encoding="utf-8"?>
<!-- Generator: Adobe Illustrator 24.0.1, SVG Export Plug-In . SVG Version: 6.00 Build 0)  -->
<svg version="1.1"
	 id="Layer_3" xmlns:cc="http://creativecommons.org/ns#" xmlns:dc="http://purl.org/dc/elements/1.1/" xmlns:rdf="http://www.w3.org/1999/02/22-rdf-syntax-ns#"
	 xmlns="http://www.w3.org/2000/svg" xmlns:xlink="http://www.w3.org/1999/xlink" x="0px" y="0px" viewBox="0 0 598.2 350.3"
	 style="enable-background:new 0 0 598.2 350.3;" xml:space="preserve">
<g>
	<path style="fill:#FFFFFF;" d="M593,234.5c-2.4-57-45.1-135-83.9-179.5c-0.7-0.8-1.4-1.6-2.2-2.4l-0.1-0.1
		C487.1,24.8,456.7,9.8,416.6,8h-0.7c-13.9-2-25.8-2-32.7-0.8c-5.9,1-12.3,2.8-19.8,4.9c-16.5,4.6-37,10.2-61.9,10.2h-6.9
		c-24.9,0-45.4-5.7-61.9-10.2c-7.5-2.1-13.9-3.8-19.8-4.9c-1.2-0.2-2.5-0.4-3.9-0.5l0.5-0.2l-6-0.1c-7.1-0.2-15.1,0.4-23.3,1.6h-0.7
		C139.4,9.9,109,24.8,89.3,52.5l-0.2,0.2c-0.7,0.8-1.4,1.5-2.1,2.3C48.2,99.5,5.6,177.5,3.1,234.5c-2.5,59.5,20.3,84.6,40,95.2
		c7.7,4.1,16.9,6.2,27.3,6.2c8.9,0,18.7-1.5,29.1-4.6c19.4-5.7,37.2-15.6,47.3-23c19.6-14.2,79.2-57.6,138.9-57.6h24.8
		c59.7,0,119.3,43.3,138.8,57.6c10.1,7.4,27.9,17.3,47.3,23c22.6,6.7,42.1,6.1,56.4-1.6C572.7,319.1,595.5,294,593,234.5z
		 M131.2,289.6c-3.4-0.9-6.9-1.9-10.7-3.1c-13-4.1-30.8-11.5-53.7-31.8c-20.5-18.1-31-41.9-30.5-68.8c0.6-26.2,11.5-55,31.7-83.2
		c17.1-23.8,48.5-41.4,93.5-52.2c35.8-8.6,80.1-13,131.7-13h9.7c51.6,0,95.9,4.4,131.7,13c45,10.8,76.4,28.4,93.5,52.2
		c7.6,10.6,13.9,21.3,18.8,31.9c-5.7-8-15-13.2-25.5-13.2c-17.2,0-31.3,14-31.3,31.3c0,17.2,14,31.2,31.3,31.2
		c17.2,0,31.2-14,31.2-31.2c0-1.8-0.2-3.5-0.4-5.2c4.8,13.2,7.4,26.1,7.6,38.5c0.6,26.9-10,50.7-30.5,68.8
		c-22.9,20.3-40.8,27.6-53.7,31.8c-3.8,1.2-7.3,2.2-10.7,3.1c-8.5,2.3-15.9,4.4-22.2,9c-25.6-18-78.7-51.9-132.2-51.9h-24.8
		c-53.5,0-106.7,33.9-132.2,51.9C147.2,294,139.7,292,131.2,289.6z M494.2,152.7c0-15,12.2-27.3,27.3-27.3c15,0,27.2,12.2,27.2,27.3
		c0,15-12.2,27.2-27.2,27.2C506.4,179.9,494.2,167.7,494.2,152.7z M466,293.5c3.5-1,7-2,10.9-3.2c13.3-4.3,31.6-11.8,55.1-32.6
		c21.4-18.9,32.4-43.8,31.8-71.9c-0.6-27.1-11.8-56.6-32.5-85.4c-17.6-24.6-49.9-42.7-95.8-53.8c-36-8.7-80.6-13.1-132.6-13.1h-7.8
		l0,0h-1.9c-52,0-96.6,4.4-132.6,13.1c-45.9,11-78.1,29.1-95.8,53.8c-20.7,28.8-31.9,58.4-32.5,85.4c-0.6,28.1,10.4,53,31.8,71.9
		c23.4,20.7,41.8,28.3,55.1,32.6c3.9,1.3,7.5,2.2,10.9,3.2c7.9,2.2,14.4,4,19.8,7.6c-2.1,1.5-3.9,2.8-5.5,4
		c-9.8,7.1-27.1,16.7-46.1,22.3c-15,4.4-36.5,7.8-53.4-1.3c-18.6-10-40.3-34-37.9-91.5c2.4-56.1,44.5-133,83-177
		c0.6-0.7,1.2-1.4,1.8-2l0,0l0.3-0.4c20.9-22.6,47.6-33.5,66.6-38.8c8-2.2,15.3-3.6,21.8-4.5l0,0l0,0c9-1.3,16.2-1.6,20.6-1.6
		c0.3,0,0.5,0,0.8,0h1.4c3.5,0.1,6.5,0.3,8.8,0.7c5.6,1,11.9,2.7,19.1,4.7c16.8,4.6,37.6,10.4,63.2,10.4h6.9
		c25.6,0,46.5-5.8,63.3-10.4c7.3-2,13.5-3.7,19.1-4.7c6.7-1.2,18.1-1.2,31.6,0.8l0,0l0,0c6.9,1,14.2,2.5,21.7,4.5
		c19,5.3,45.7,16.2,66.6,38.7l0.4,0.5h0.1c0.6,0.7,1.2,1.4,1.9,2.1c38.4,43.9,80.6,120.9,82.9,177c2.4,57.5-19.2,81.5-37.8,91.5
		c-16.9,9.1-38.3,5.7-53.4,1.3c-19-5.6-36.3-15.2-46.1-22.3c-1.6-1.2-3.4-2.5-5.5-4C451.6,297.5,458,295.7,466,293.5z"/>
	<path style="fill:#FFFFFF;" d="M331.9,59.3c2.4,0,4.3,0.4,6,1.2c2.3,1.2,4.1,3.1,5.4,6.1c3.2,7.2,7.9,24.3,7.9,24.5l0.3,1l3.9-1.1
		l-0.3-1c-0.2-0.7-4.7-17.3-8.1-25c-1.7-3.8-4.1-6.5-7.3-8.1c-2.9-1.4-5.8-1.6-7.8-1.6h-67.7c-1.9,0-4.8,0.2-7.8,1.6
		c-3.1,1.5-5.6,4.3-7.3,8.1c-3.4,7.7-7.9,24.3-8.1,25l-0.3,1l3.9,1.1l0.3-1c0-0.2,4.8-17.3,7.9-24.5c1.3-2.9,3-4.9,5.4-6.1
		c1.7-0.8,3.6-1.2,6-1.2H331.9z"/>
	<path style="fill:#FFFFFF;" d="M198.4,86l-0.4-0.3l0,0c-15.7-10.8-35.7-13.6-56.2-7.8c-20.6,5.9-39.5,19.7-53,38.9
		s-20.1,41.6-18.7,63c1.5,21.5,11,39.5,26.8,50.6c10.6,7.5,23,11,35.9,11c26.5,0,54.9-15,73.8-41.8
		C234.5,159.8,230.9,108.8,198.4,86z M203.3,197.3c-26.7,38-73.4,51.4-104.1,29.8c-14.8-10.4-23.7-27.3-25.1-47.7
		c-1.4-20.5,5-41.9,17.9-60.4c13-18.5,31-31.7,50.7-37.3c6.7-1.9,13.3-2.9,19.8-2.9c12.3,0,23.9,3.5,33.6,10.3l0.4,0.3
		c14.5,10.4,23.3,27.2,24.7,47.4C222.6,157.4,216.2,178.8,203.3,197.3z"/>
	<path style="fill:#FFFFFF;" d="M148.9,97.1c-34.4,0-62.4,28-62.4,62.3c0,34.4,28,62.4,62.4,62.4s62.3-28,62.3-62.4
		c0-16.6-6.5-32.3-18.3-44.1C181.2,103.6,165.6,97.1,148.9,97.1z M207.2,159.5c0,32.2-26.2,58.4-58.3,58.4
		c-32.2,0-58.4-26.2-58.4-58.4s26.2-58.3,58.4-58.3C181.1,101.1,207.2,127.3,207.2,159.5z"/>
	<path style="fill:#FFFFFF;" d="M170.1,141.4c-2.5-2.9-3.5-6.9-3.1-11.8l1.3-16.5v-0.4c0.1-0.6,0.1-1.3-0.1-2c-0.2-1-1-1.9-2-2.3
		l-0.3-0.1c-4.1-1.3-8.4-2.2-12.8-2.5c-2.3-0.2-4.4-0.2-6.5-0.1l0,0h-0.1c-2,0.1-4.1,0.3-6.2,0.7l0,0l-0.9,0.2l0,0
		c-0.6,0.2-1.1,0.6-1.5,1.1c-0.6,0.8-0.8,1.8-0.8,2.6l-1.3,16.8c-0.4,5.2-2,9.1-4.8,11.5s-6.9,3.5-12.2,3.1l-16.4-1.3
		c-0.9-0.1-1.7-0.1-2.6,0.2s-1.6,1.1-2,2l-0.1,0.3l0,0c-1.3,4.1-2.2,8.3-2.5,12.6c-0.3,4.2-0.2,8.3,0.4,12.3v0.1
		c0.4,2,2.2,3.5,4.6,3.7l16.3,1.3c5.1,0.4,8.9,2.1,11.3,5c2.5,3,3.5,7.2,3.1,12.6l-1.2,15.5c-0.1,1.1-0.1,2,0.3,2.9
		c0.3,0.8,1,1.5,1.9,2l0.1,0.1l0.2,0.1c4,1.3,8.3,2.1,12.6,2.5c1.4,0.1,2.8,0.2,4.3,0.2c2.8,0,5.6-0.2,8.3-0.6h0.4l0.1-0.1
		c0.9-0.3,1.6-0.8,2.1-1.5c0.6-0.8,0.9-1.7,1-3l1.2-15.4c0.4-5.2,2.1-9.4,5-12s6.8-3.8,11.6-3.4l16.7,1.3c1,0.1,1.9,0.1,2.9-0.3
		c0.9-0.4,1.5-1.1,2-2.2l0.2-0.2v-0.3c1.2-3.9,2-8,2.3-12.1c0.3-4.2,0.2-8.4-0.5-12.5v-0.3l-0.1-0.1c-0.2-0.6-0.5-1.4-1.2-2.1
		c-0.7-0.7-1.7-1.1-2.8-1.1l-17.2-1.3C176.2,145.9,172.5,144.2,170.1,141.4z M196.6,174.6L196.6,174.6c-0.1,0.1-0.1,0.2-0.1,0.2
		c-0.1,0-0.4,0-0.9,0l-16.7-1.3c-5.9-0.5-11,1.1-14.6,4.4c-3.6,3.3-5.8,8.4-6.3,14.6l-1.2,15.4c-0.1,0.7-0.2,0.9-0.2,0.9
		c-3.8,0.6-7.7,0.7-11.6,0.4c-3.9-0.3-7.8-1.1-11.5-2.2c0-0.2,0-0.5,0-1l1.2-15.5c0.5-6.5-0.9-11.7-4-15.5c-3.1-3.8-8-6-14.1-6.5
		l-16.3-1.3c-0.4,0-0.9-0.1-0.9-0.3c-0.6-3.8-0.7-7.7-0.4-11.5c0.3-3.9,1-7.6,2.1-11.1l0.1-0.4c0.2,0,0.4,0,0.7,0l16.4,1.3
		c6.4,0.5,11.5-0.9,15.1-4s5.7-7.9,6.2-14.2l1.3-16.8c0-0.1,0-0.2,0-0.3c1.5-0.2,2.9-0.4,4.3-0.5l1.3-0.1c1.9-0.1,4,0,6.1,0.1
		c4,0.3,7.8,1.1,11.5,2.3c0,0.2,0,0.5-0.1,0.9l-1.3,16.5c-0.5,5.9,1,11,4.1,14.7s7.8,5.8,13.7,6.3l17.2,1.3c0.2,0,0.3,0,0.4,0
		c0,0,0,0.1,0.1,0.1v0.1c0.6,3.7,0.7,7.6,0.4,11.5C198.5,167.2,197.7,171,196.6,174.6z"/>
	<path style="fill:#FFFFFF;" d="M148.9,146.3c-7.3,0-13.3,5.9-13.3,13.2s5.9,13.3,13.3,13.3c7.3,0,13.2-5.9,13.2-13.3
		C162.1,152.2,156.2,146.3,148.9,146.3z M148.9,150.3c5.1,0,9.2,4.1,9.2,9.2c0,5.1-4.1,9.3-9.2,9.3c-5.1,0-9.3-4.1-9.3-9.3
		C139.7,154.4,143.8,150.3,148.9,150.3z"/>
	<polygon style="fill:#FFFFFF;" points="118.3,132.1 124.7,126.6 126.5,125.1 125.1,124.4 117.9,121.3 116.4,120.6 115.4,121.3 
		117.7,129.9 	"/>
	<polygon style="fill:#FFFFFF;" points="114.4,181.8 110.7,190.5 109.3,193.3 119.2,190.7 121.5,190.1 116,183.6 	"/>
	<polygon style="fill:#FFFFFF;" points="179.5,186.9 173,192.4 171.2,193.9 179.9,197.7 182.7,199 180.1,189.1 	"/>
	<polygon style="fill:#FFFFFF;" points="183.3,137.1 184,135.7 187.1,128.5 188.4,125.7 178.5,128.3 176.3,128.9 181.8,135.3 	"/>
	<path style="fill:#FFFFFF;" d="M384.4,167.5c12.5,0,22.8-10.2,22.8-22.8S396.9,122,384.4,122s-22.8,10.2-22.8,22.8
		S371.9,167.5,384.4,167.5z M384.4,163.5c-10.3,0-18.8-8.4-18.8-18.8s8.4-18.8,18.8-18.8s18.8,8.4,18.8,18.8
		S394.7,163.5,384.4,163.5z"/>
	<path style="fill:#FFFFFF;" d="M430.9,136.1c12.5,0,22.8-10.2,22.8-22.8s-10.2-22.8-22.8-22.8s-22.8,10.2-22.8,22.8
		S418.4,136.1,430.9,136.1z M430.9,94.6c10.3,0,18.8,8.4,18.8,18.8s-8.4,18.8-18.8,18.8s-18.8-8.4-18.8-18.8S420.6,94.6,430.9,94.6z
		"/>
	<path style="fill:#FFFFFF;" d="M479.7,118.2c12.5,0,22.8-10.2,22.8-22.8s-10.2-22.8-22.8-22.8s-22.8,10.2-22.8,22.8
		S467.1,118.2,479.7,118.2z M479.7,114.2c-10.3,0-18.8-8.4-18.8-18.8s8.4-18.8,18.8-18.8s18.8,8.4,18.8,18.8S490,114.2,479.7,114.2z
		"/>
	<path style="fill:#FFFFFF;" d="M404.5,181.8c-17.2,0-31.2,14-31.2,31.2s14,31.2,31.2,31.2s31.3-14,31.3-31.2
		S421.8,181.8,404.5,181.8z M404.5,185.8c15,0,27.3,12.2,27.3,27.2s-12.2,27.2-27.3,27.2c-15,0-27.2-12.2-27.2-27.2
		S389.5,185.8,404.5,185.8z"/>
	<path style="fill:#FFFFFF;" d="M460.5,144.7c-17.2,0-31.3,14-31.3,31.2s14,31.2,31.3,31.2c17.2,0,31.2-14,31.2-31.2
		S477.7,144.7,460.5,144.7z M433.2,175.9c0-15,12.2-27.2,27.3-27.2c15,0,27.2,12.2,27.2,27.2s-12.2,27.2-27.2,27.2
		C445.5,203.2,433.2,190.9,433.2,175.9z"/>
	<path style="fill:#FFFFFF;" d="M325.2,220.4c7.7-3.7,12-8.8,12-14.3c0-5.6-4.3-10.7-12-14.4c-7.3-3.5-16.9-5.4-27.1-5.4
		s-19.8,1.9-27.1,5.4c-7.7,3.7-12,8.8-12,14.4c0,5.5,4.3,10.6,12,14.3c7.3,3.5,16.9,5.4,27.1,5.4S317.9,223.9,325.2,220.4z
		 M272.7,195.4c6.8-3.2,15.8-5,25.3-5s18.7,1.8,25.4,5c6.2,3,9.7,6.9,9.7,10.8s-3.5,7.8-9.7,10.8c-6.6,3.2-15.9,5-25.4,5
		c-9.6,0-18.6-1.8-25.3-5c-6.2-3-9.7-6.9-9.7-10.8C263,202.2,266.5,198.3,272.7,195.4z"/>
	<path style="fill:#FFFFFF;" d="M279.7,215.6c5,2.2,11.5,3.4,18.3,3.4c6.9,0,13.4-1.2,18.4-3.4c2.5-1.1,4.5-2.4,5.9-3.9
		c1.7-1.7,2.5-3.6,2.5-5.6s-0.9-3.9-2.5-5.6c-1.4-1.5-3.4-2.8-5.9-3.9c-4.9-2.2-11.4-3.3-18.4-3.3c-6.9,0-13.4,1.2-18.3,3.3
		c-2.6,1.1-4.6,2.4-6,3.9c-1.6,1.7-2.5,3.6-2.5,5.6s0.9,3.9,2.5,5.6C275.2,213.2,277.2,214.5,279.7,215.6z M298.1,215
		c-6.3,0-12.4-1.1-16.8-3c-2-0.9-3.6-1.9-4.7-3c-0.9-1-1.4-1.9-1.4-2.8s0.4-1.9,1.4-2.8c1-1.1,2.7-2.1,4.7-3c4.4-1.9,10.5-3,16.8-3
		s12.4,1.1,16.8,3c2,0.9,3.6,1.9,4.7,3c0.9,1,1.4,1.9,1.4,2.8c0,0.9-0.5,1.9-1.4,2.8c-1,1.1-2.7,2.1-4.7,3
		C310.5,213.9,304.4,215,298.1,215z"/>
</g>
</svg>
