<?xml version="1.0" encoding="utf-8"?>
<!-- Generator: Adobe Illustrator 24.0.1, SVG Export Plug-In . SVG Version: 6.00 Build 0)  -->
<svg version="1.1" id="레이어_1" xmlns="http://www.w3.org/2000/svg" xmlns:xlink="http://www.w3.org/1999/xlink" x="0px"
	 y="0px" viewBox="0 0 566.9 90" style="enable-background:new 0 0 566.9 90;" xml:space="preserve">
<g>
	
		<radialGradient id="SVGID_1_" cx="148.8" cy="37.9" r="0" gradientTransform="matrix(1 0 0 -1 0 92)" gradientUnits="userSpaceOnUse">
		<stop  offset="0" style="stop-color:#FFFFFF"/>
		<stop  offset="1" style="stop-color:#FFFFFF"/>
	</radialGradient>
	<path style="fill:url(#SVGID_1_);" d="M148.8,54.1L148.8,54.1L148.8,54.1z"/>
	
		<radialGradient id="SVGID_2_" cx="76.3971" cy="79.2442" r="53.2555" gradientTransform="matrix(1 0 0 -1 0 92)" gradientUnits="userSpaceOnUse">
		<stop  offset="0" style="stop-color:#FFFFFF"/>
		<stop  offset="1" style="stop-color:#FFFFFF"/>
	</radialGradient>
	<path style="fill:url(#SVGID_2_);" d="M154.9,47.7c-1-2.2-3.4-3.6-7.6-4.5h-0.1c-2.1-0.4-5-0.7-8.8-0.8c-1.1-0.1-2.6-0.1-4.5-0.1
		s-3.3,0-4-0.1c-2.1-0.1-3.4-0.1-3.9-0.3c-0.7-0.3-1.3-0.7-1.9-1.1c-0.6-0.5-1-1-1.3-1.5v-0.1c-0.3-0.4-0.3-0.8-0.2-1.3
		c0.2-0.8,0.6-1.7,1.5-2.6c3.8-3.7,12.4-3.7,25.9,0.1c1,0.3,2,0.2,2.9-0.4c1-0.5,1.6-1.3,1.9-2.3c0.3-1,0.2-1.9-0.3-2.9
		c-0.6-1-1.3-1.5-2.3-1.8c-17.5-4.9-28.8-4.2-33.8,2.2c-1.8,2.1-2.9,4.2-3.2,6.3c-0.4,2.1-0.1,4.1,0.8,6h0c0.7,1.5,1.8,2.8,3.2,4
		h0.1c1.2,1,2.4,1.7,3.8,2.4c1,0.5,3.2,0.8,6.8,0.9c0.7,0.1,2.1,0.1,4.1,0.1c1.8,0.1,3.2,0.1,4.2,0.1h0.1c3.2,0.1,6.5,0.4,7.5,0.7
		s2.9,2.2,3,3.1c0.2,0.5,0.4,0.6,0.2,1.9c-0.2,1.3-0.6,1.1-1.1,1.7v-0.1c-0.6,0.5-1.5,0.9-2.9,1.3c-1.9,0.5-4.2,0.8-6.9,0.8
		c-2.7,0.1-5.4,0-8.1-0.3c-2.6-0.3-4.9-0.8-6.9-1.3c-1-0.3-2-0.3-2.9,0.3c-1,0.4-1.6,1.2-1.9,2.2s-0.2,2,0.3,2.9
		c0.5,0.9,1.3,1.5,2.2,1.9c2.3,0.8,5.1,1.3,8.3,1.7c3.1,0.3,6.2,0.4,9.3,0.4c3.3-0.1,6.2-0.5,8.6-1.1c3.3-0.8,5.6-2.1,6.9-3.8h0.1
		c1-1.3,1.8-2.4,2.2-3.5v-0.1c0.5-1.3,0.8-2.6,0.8-3.9v-0.1c-0.1-1,0-2.4-0.5-3.7C156.2,50.3,156,49.9,154.9,47.7z"/>
	
		<radialGradient id="SVGID_3_" cx="148.8" cy="38.1836" r="2.311728e-02" gradientTransform="matrix(1 0 0 -1 0 92)" gradientUnits="userSpaceOnUse">
		<stop  offset="0" style="stop-color:#FFFFFF"/>
		<stop  offset="1" style="stop-color:#FFFFFF"/>
	</radialGradient>
	<path style="fill:url(#SVGID_3_);" d="M148.8,53.8C148.8,53.9,148.8,53.9,148.8,53.8C148.8,53.9,148.8,53.9,148.8,53.8z"/>
	
		<radialGradient id="SVGID_4_" cx="148.8" cy="38.2903" r="1.174074e-02" gradientTransform="matrix(1 0 0 -1 0 92)" gradientUnits="userSpaceOnUse">
		<stop  offset="0" style="stop-color:#FFFFFF"/>
		<stop  offset="1" style="stop-color:#FFFFFF"/>
	</radialGradient>
	<path style="fill:url(#SVGID_4_);" d="M148.8,53.7C148.8,53.7,148.8,53.7,148.8,53.7C148.8,53.8,148.8,53.8,148.8,53.7z"/>
	
		<radialGradient id="SVGID_5_" cx="148.8" cy="38.1204" r="5.387635e-02" gradientTransform="matrix(1 0 0 -1 0 92)" gradientUnits="userSpaceOnUse">
		<stop  offset="0" style="stop-color:#FFFFFF"/>
		<stop  offset="1" style="stop-color:#FFFFFF"/>
	</radialGradient>
	<path style="fill:url(#SVGID_5_);" d="M148.8,53.9C148.8,54,148.8,54,148.8,53.9C148.8,54,148.8,54,148.8,53.9z"/>
	
		<radialGradient id="SVGID_6_" cx="129.1882" cy="77.7309" r="44.9265" gradientTransform="matrix(1 0 0 -1 0 92)" gradientUnits="userSpaceOnUse">
		<stop  offset="0" style="stop-color:#FFFFFF"/>
		<stop  offset="1" style="stop-color:#FFFFFF"/>
	</radialGradient>
	<path style="fill:url(#SVGID_6_);" d="M189.5,57.5h-21.8v-8.3h16c1.1,0,2-0.4,2.8-1.1c0.7-0.7,1.1-1.7,1.1-2.7c0-1.1-0.4-2-1.1-2.7
		c-0.8-0.7-1.7-1.1-2.8-1.1h-16v-8.3h21.8c1.1,0,2-0.4,2.8-1.2c0.7-0.7,1.1-1.6,1.1-2.7s-0.4-2-1.1-2.7c-0.8-0.7-1.7-1.1-2.8-1.1
		h-25.7c-1,0-2,0.4-2.7,1.1c-0.8,0.8-1.2,1.7-1.2,2.7v31.9c0,1,0.4,2,1.2,2.7c0.7,0.8,1.7,1.2,2.7,1.2h25.7c1.1,0,2-0.4,2.8-1.2
		c0.7-0.7,1.1-1.7,1.1-2.7c0-1.1-0.4-2-1.1-2.7C191.5,57.8,190.6,57.5,189.5,57.5z"/>
	
		<radialGradient id="SVGID_7_" cx="155.2856" cy="81.4644" r="55.8699" gradientTransform="matrix(1 0 0 -1 0 92)" gradientUnits="userSpaceOnUse">
		<stop  offset="0" style="stop-color:#FFFFFF"/>
		<stop  offset="1" style="stop-color:#FFFFFF"/>
	</radialGradient>
	<path style="fill:url(#SVGID_7_);" d="M238,44.1c-0.8-0.7-1.6-1-2.6-1h-16.7c-1,0-2,0.4-2.7,1.2c-0.8,0.8-1.2,1.8-1.2,3
		c0,1.1,0.4,2.1,1.2,2.9c0.7,0.8,1.7,1.2,2.7,1.2h12.8c-0.3,2.1-1.1,3.8-2.4,5.1c-2.5,2.1-6.4,3.2-11.7,3.2c-2.2,0-4.4-0.4-6.2-1.2
		l-0.1-0.1c-1.7-0.7-3.1-1.7-4.3-3.1c-1.2-1.3-2.1-2.9-2.7-4.6c-0.6-1.9-0.9-3.9-0.8-6.2c0.1-2.4,0.3-3.6,0.8-5.2
		c0.3-1.2,0.8-2.1,1.5-2.9c0,0,1.1-1.8,3.1-2.7c1.9-1,3.3-1.2,5.7-1.9h0.1c5.6-1.4,11-0.2,16.2,3.6c0.9,0.6,1.9,0.8,2.9,0.6
		c1-0.3,1.9-0.8,2.4-1.8c0.6-0.9,0.8-1.9,0.6-3.1c-0.2-1.1-0.8-2-1.6-2.6c-7-5.1-14.8-6-22.2-4.7c-2.9,0.7-3.9,0.6-7.1,2.2
		c-3.2,1.6-5.4,4.5-5.4,4.5c-1.5,1.7-2.4,3.7-3.4,6.4s-1,4-1.1,7.4c-0.1,3.3,0.3,6.4,1.3,9.3c1,2.9,2.4,5.5,4.4,7.6v-0.1
		c1.9,2.2,4.3,3.9,7,5.1c2.8,1.2,5.8,1.8,9,1.8c7.7,0,13.3-1.7,16.7-5.2c4-3.5,5.7-8.9,5.1-16C239.2,45.7,238.7,44.9,238,44.1z"/>
	
		<radialGradient id="SVGID_8_" cx="201.9456" cy="81.4496" r="55.2963" gradientTransform="matrix(1 0 0 -1 0 92)" gradientUnits="userSpaceOnUse">
		<stop  offset="0" style="stop-color:#FFFFFF"/>
		<stop  offset="1" style="stop-color:#FFFFFF"/>
	</radialGradient>
	<path style="fill:url(#SVGID_8_);" d="M264.1,22.9c-10.5-0.6-17.8,11.9-21.8,37.7c-0.1,1,0.1,2,0.7,2.8c0.6,0.9,1.5,1.4,2.5,1.5
		c1,0.2,2-0.1,2.9-0.7c0.8-0.6,1.4-1.5,1.5-2.5c0.5-3.2,1-6.2,1.6-8.9l0,0h24.9c0.6,3.1,1.3,6.5,1.8,10.1c0.2,1,0.6,1.9,1.5,2.5
		c0.8,0.6,1.8,0.9,2.8,0.7c1-0.1,1.9-0.6,2.5-1.5s0.9-1.8,0.8-2.9C281.8,35.3,274.6,22.3,264.1,22.9z M253.4,45.3
		c2.8-9.4,6.4-14.3,10.6-14.7c4.1,0.3,7.6,5.2,10.5,14.7H253.4z"/>
	
		<radialGradient id="SVGID_9_" cx="267.4792" cy="79.7316" r="53.7105" gradientTransform="matrix(1 0 0 -1 0 92)" gradientUnits="userSpaceOnUse">
		<stop  offset="0" style="stop-color:#FFFFFF"/>
		<stop  offset="1" style="stop-color:#FFFFFF"/>
	</radialGradient>
	<path style="fill:url(#SVGID_9_);" d="M346.7,47.5c-1-2.2-3.5-3.7-7.7-4.6l0,0c-2.1-0.4-5-0.7-8.9-0.8c-1.1-0.1-2.6-0.1-4.5-0.1
		s-3.3,0-4-0.1c-2.1-0.1-3.4-0.1-3.9-0.3c-0.7-0.3-1.4-0.7-1.9-1.2c-0.6-0.5-1-1-1.3-1.5v-0.1c-0.3-0.4-0.3-0.8-0.2-1.3
		c0.2-0.8,0.6-1.7,1.5-2.6c3.9-3.7,12.6-3.7,26.1,0.1c1,0.3,2,0.2,2.9-0.4c1-0.5,1.6-1.3,1.9-2.3s0.2-1.9-0.3-2.9
		c-0.6-1-1.4-1.5-2.3-1.9c-17.7-5-29.1-4.2-34.1,2.3c-1.8,2.1-2.9,4.2-3.2,6.3c-0.4,2.1-0.1,4.1,0.8,6h-0.1c0.7,1.5,1.8,2.8,3.2,4.1
		h0.1c1.2,1,2.4,1.7,3.8,2.4c1,0.5,3.2,0.8,6.9,0.9c0.7,0.1,2.1,0.1,4.1,0.1c1.8,0.1,3.2,0.1,4.3,0.1h0.1c3.2,0.1,6.5,0.4,7.6,0.7
		c1,0.3,2.9,2.2,3,3.1c0.2,0.5,0.4,0.6,0.2,2c-0.2,1.3-0.6,1.1-1.1,1.7v-0.1c-0.6,0.5-1.6,0.9-2.9,1.3c-1.9,0.5-4.3,0.8-7,0.8
		c-2.7,0.1-5.4,0-8.2-0.3c-2.6-0.3-5-0.8-6.9-1.4c-1-0.3-2-0.3-2.9,0.3c-1,0.5-1.6,1.2-1.9,2.3c-0.3,1-0.2,2,0.3,3
		c0.5,0.9,1.3,1.5,2.3,1.9c2.3,0.8,5.1,1.3,8.3,1.7c3.2,0.3,6.3,0.5,9.4,0.4c3.4-0.1,6.3-0.5,8.7-1.1c3.4-0.8,5.7-2.1,6.9-3.8h0.1
		c1-1.3,1.8-2.5,2.3-3.5v-0.1c0.5-1.3,0.8-2.6,0.8-3.9v-0.1c-0.1-1,0-2.4-0.5-3.7C347.9,50.1,347.7,49.7,346.7,47.5z"/>
	
		<radialGradient id="SVGID_10_" cx="340.5" cy="38.4559" r="8.538967e-02" gradientTransform="matrix(1 0 0 -1 0 92)" gradientUnits="userSpaceOnUse">
		<stop  offset="0" style="stop-color:#FFFFFF"/>
		<stop  offset="1" style="stop-color:#FFFFFF"/>
	</radialGradient>
	<path style="fill:url(#SVGID_10_);" d="M340.5,53.6c0,0,0,0.1,0,0.2C340.5,53.7,340.5,53.7,340.5,53.6z"/>
	
		<radialGradient id="SVGID_11_" cx="340.5" cy="38.2562" r="0.1075" gradientTransform="matrix(1 0 0 -1 0 92)" gradientUnits="userSpaceOnUse">
		<stop  offset="0" style="stop-color:#FFFFFF"/>
		<stop  offset="1" style="stop-color:#FFFFFF"/>
	</radialGradient>
	<path style="fill:url(#SVGID_11_);" d="M340.5,53.8C340.5,54.1,340.5,54,340.5,53.8L340.5,53.8z"/>
	
		<radialGradient id="SVGID_12_" cx="309.9071" cy="79.1076" r="55.7878" gradientTransform="matrix(1 0 0 -1 0 92)" gradientUnits="userSpaceOnUse">
		<stop  offset="0" style="stop-color:#FFFFFF"/>
		<stop  offset="1" style="stop-color:#FFFFFF"/>
	</radialGradient>
	<path style="fill:url(#SVGID_12_);" d="M372.6,25.4c-10.6-0.6-17.9,12-21.9,38c-0.2,1,0.1,2,0.7,2.8c0.7,0.9,1.5,1.4,2.5,1.5
		c1.1,0.2,2-0.1,2.9-0.7c0.8-0.6,1.4-1.5,1.6-2.5c0.5-3.2,1-6.2,1.6-8.9h25.1c0.7,3.1,1.3,6.5,1.8,10.2c0.2,1,0.6,1.9,1.6,2.5
		c0.8,0.6,1.8,0.9,2.8,0.7c1-0.1,1.9-0.6,2.5-1.5s0.9-1.8,0.8-2.9C390.5,37.9,383.2,24.7,372.6,25.4z M361.9,47.9
		c2.8-9.5,6.4-14.5,10.7-14.8c4.2,0.3,7.7,5.3,10.6,14.8H361.9z"/>
	
		<radialGradient id="SVGID_13_" cx="349.2149" cy="76.418" r="52.4728" gradientTransform="matrix(1 0 0 -1 0 92)" gradientUnits="userSpaceOnUse">
		<stop  offset="0" style="stop-color:#FFFFFF"/>
		<stop  offset="1" style="stop-color:#FFFFFF"/>
	</radialGradient>
	<path style="fill:url(#SVGID_13_);" d="M425,27.3h-33.6c-1,0-2,0.4-2.7,1.1c-0.8,0.8-1.2,1.7-1.2,2.8c0,1,0.4,2,1.2,2.7
		c0.7,0.8,1.7,1.2,2.7,1.2h12.9v29.6c0,1,0.4,2,1.2,2.7c0.7,0.8,1.7,1.2,2.7,1.2c1.1,0,2-0.4,2.8-1.2c0.7-0.7,1.1-1.7,1.1-2.7V35
		H425c1.1,0,2-0.4,2.8-1.2c0.7-0.7,1.1-1.7,1.1-2.7c0-1.1-0.4-2-1.1-2.8C427,27.7,426.1,27.3,425,27.3z"/>
	
		<radialGradient id="SVGID_14_" cx="391.4418" cy="77.3431" r="54.0311" gradientTransform="matrix(1 0 0 -1 0 92)" gradientUnits="userSpaceOnUse">
		<stop  offset="0" style="stop-color:#FFFFFF"/>
		<stop  offset="1" style="stop-color:#FFFFFF"/>
	</radialGradient>
	<path style="fill:url(#SVGID_14_);" d="M470.3,26.5c-1,0-2,0.4-2.7,1.2c-0.8,0.7-1.2,1.7-1.2,2.7v19.1c0,1.5-0.3,2.9-0.8,4.2
		s-1.4,2.4-2.3,3.5c-1,1-2.1,1.8-3.5,2.3c-1.3,0.6-2.7,0.8-4.2,0.8h-5.8c-1.5,0-2.8-0.3-4.2-0.8c-1.4-0.5-2.5-1.4-3.5-2.3
		c-1-1-1.7-2.1-2.3-3.4v-0.1c-0.5-1.3-0.8-2.7-0.8-4.2V30.3c0-1-0.4-2-1.1-2.7c-0.8-0.8-1.7-1.2-2.8-1.2c-1,0-2,0.4-2.7,1.2
		c-0.8,0.7-1.2,1.7-1.2,2.7v19.1c0,2.5,0.5,4.9,1.4,7.2h0.1c0.9,2.3,2.3,4.2,3.9,5.9c1.7,1.7,3.7,3,5.9,4c2.3,1,4.7,1.4,7.3,1.4h5.8
		c2.6,0,5-0.5,7.3-1.4h-0.1c2.3-1,4.2-2.3,6-4c1.7-1.7,3-3.7,4-5.9v0.1c1-2.3,1.4-4.7,1.4-7.3V30.3c0-1-0.4-2-1.1-2.7
		C472.4,26.9,471.4,26.5,470.3,26.5z"/>
	
		<radialGradient id="SVGID_15_" cx="436.5235" cy="77.8907" r="54.916" gradientTransform="matrix(1 0 0 -1 0 92)" gradientUnits="userSpaceOnUse">
		<stop  offset="0" style="stop-color:#FFFFFF"/>
		<stop  offset="1" style="stop-color:#FFFFFF"/>
	</radialGradient>
	<path style="fill:url(#SVGID_15_);" d="M519.6,60.3l-10.9-7.4c1.6-0.4,3-0.8,4.1-1.4c4.7-2.2,7-5.9,7.1-11.1
		c0.3-6.1-3.6-10.4-11.4-12.7c-6.1-1.9-15.3-2.4-27.5-1.4c-1,0.1-1.9,0.5-2.7,1.3c-0.7,0.7-1.1,1.5-1.1,2.6v33.3c0,1,0.4,2,1.2,2.7
		c0.8,0.8,1.9,1.1,3,1.1c1.2,0,2.1-0.4,2.9-1.1s1.2-1.7,1.2-2.7V33.8c8.9-0.5,15.7-0.1,20.4,1.3c3.6,1.1,5.5,2.9,5.7,5.4
		c0.1,2-0.8,3.4-2.5,4.2c-2.8,1.2-6.8,1.5-12.2,0.9c-1-0.1-1.8,0.1-2.6,0.6c-0.8,0.4-1.4,1.1-1.7,1.9c-0.3,0.8-0.3,1.6-0.1,2.4
		c0.3,0.8,0.8,1.5,1.6,2l20.6,14.1c0.9,0.6,1.9,0.9,3,0.7c1.2-0.1,2.1-0.6,2.8-1.5c0.6-0.8,0.9-1.8,0.8-2.8
		C521.1,61.8,520.5,61,519.6,60.3z"/>
	
		<radialGradient id="SVGID_16_" cx="488.3734" cy="77.067" r="51.3417" gradientTransform="matrix(1 0 0 -1 0 92)" gradientUnits="userSpaceOnUse">
		<stop  offset="0" style="stop-color:#FFFFFF"/>
		<stop  offset="1" style="stop-color:#FFFFFF"/>
	</radialGradient>
	<path style="fill:url(#SVGID_16_);" d="M564.5,27.8c-0.8-0.7-1.7-1.1-2.8-1.1c-1,0-2,0.4-2.7,1.1c-0.8,0.8-1.2,1.7-1.2,2.8v23.9
		l-25.6-26.6c-0.6-0.5-1.2-0.9-2-1.1c-0.8-0.1-1.6-0.1-2.3,0.3c-0.7,0.3-1.4,0.7-1.7,1.3c-0.5,0.6-0.7,1.4-0.7,2.2V64
		c0,1,0.4,2,1.2,2.7c0.7,0.8,1.7,1.2,2.7,1.2c1.1,0,2-0.4,2.8-1.2c0.7-0.7,1.1-1.7,1.1-2.7V40.1L559,66.6c0.6,0.6,1.2,1,2,1.2
		c0.8,0.1,1.5,0.1,2.3-0.2c0.7-0.3,1.3-0.8,1.8-1.5c0.5-0.6,0.6-1.4,0.6-2.1V30.5C565.6,29.4,565.2,28.5,564.5,27.8z"/>
	
		<radialGradient id="SVGID_17_" cx="-87.4819" cy="90.1012" r="108.5178" gradientTransform="matrix(1 0 0 -1 0 92)" gradientUnits="userSpaceOnUse">
		<stop  offset="0" style="stop-color:#FFFFFF"/>
		<stop  offset="1" style="stop-color:#FFFFFF"/>
	</radialGradient>
	<path style="fill:url(#SVGID_17_);" d="M88.6,31.3c-1.3,0-2.5,0.1-3,0.2c-1.8,0.2-6.4,0.7-11.7,2.2c-4,1.1-8.5,2.5-13.3,4.2
		L46,42.7c-5.8,1.9-10.6,3.4-14.3,4.5c-5.5,1.6-9.4,2.6-12.6,3.3c-3.1,0.7-5.8,1.1-8,1.1c-1.9,0-2.7-0.3-2.9-0.3
		c-0.3-0.1-0.6-0.5-0.6-0.8c-0.2-3.5,4.4-7.1,5-7.5c1.5-1.1,4.6-3.3,8.7-5.4c3.1-1.7,6.8-3.3,11.7-5.2c0.1,0,0.2-0.1,0.3-0.1
		c4.3-1.6,8.7-3,13.1-4.3c5-1.4,9.6-2.5,14.1-3.3c4.6-0.9,9.2-1.5,13.6-1.7c1.3-0.1,2.8-0.2,4.5-0.2c2.9,0,5.5,0.2,6.3,0.2
		c0.1,0,0.3,0,0.4,0c1.3,0,2.4-0.3,2.8-0.6c0.6-0.5,0.9-1.1,1-1.8c0.1-0.7-0.1-1.4-0.6-2c-0.5-0.5-1.7-1-2.5-1
		c-3.8-0.4-7.2-0.4-12.4-0.1c-4.5,0.3-9.2,0.9-14.3,1.8c-4.5,0.8-9.2,1.9-14.6,3.3c-4.7,1.3-9.3,2.8-13.9,4.5
		c-4.7,1.8-9.6,4.1-12.3,5.4c-3.8,1.9-6.9,3.9-9.3,5.9C6.2,40.9,5,42,3,45.1c-1.8,2.8-2.3,6.1-1.2,8c1.3,2.3,4.5,3.4,9.4,3.4
		c2.6,0,5.6-0.3,8.9-1c4.4-0.9,8.7-2,13-3.2c4.6-1.4,9.4-3,14.5-4.6l14.6-4.8c5.3-1.8,9.8-3.1,13.1-4.1c1.9-0.6,8.6-2.5,13.4-2.5
		c0.8,0,1.5,0.1,2.1,0.2c0.5,0.1,0.8,0.5,0.8,1c0,1.1-1,8.5-16.6,15.5c-4.6,2.1-9.9,4.1-16.3,6.2c-0.1,0-0.1,0-0.2,0
		c-4.4,1.4-9,2.7-14.1,3.9c-4.1,1-8.3,1.8-13.4,2.6c-0.1,0-0.2,0-0.3,0c-2.2,0.3-4.8,0.4-8.1,0.4c-2.1,0-4.1-0.1-5.6-0.1
		c-1.2,0-2.2-0.1-2.9-0.1c-0.5,0-0.9,0-1.1,0c-3,0.2-3.8,1.9-3.9,2.7c0,0.9-0.1,2.5,4,2.8l1,0.1c2.1,0.1,4.3,0.3,6.9,0.3
		c3.3,0,6.8-0.2,10.9-0.7c5.6-0.8,8.8-1.5,13.8-2.6h0.1c5.3-1.3,10-2.6,14.5-4.1c6-1.9,11.7-4,16.9-6.4c11.1-5,15.1-9.4,17.8-13.5
		c2.4-3.6,3.4-8.7,1-11C94.6,32.1,92.1,31.3,88.6,31.3z"/>
	
		<radialGradient id="SVGID_18_" cx="-10.1576" cy="81.1932" r="40.5434" gradientTransform="matrix(1 0 0 -1 0 92)" gradientUnits="userSpaceOnUse">
		<stop  offset="0" style="stop-color:#FFFFFF"/>
		<stop  offset="1" style="stop-color:#FFFFFF"/>
	</radialGradient>
	<path style="fill:url(#SVGID_18_);" d="M44.4,21c5.4-1.5,10.2-2.6,14.7-3.4c0.9-0.2,1.7-0.3,2.6-0.4c-3.7-1.6-7.8-2.6-12.2-2.6
		C39.1,14.6,29.8,20,24.4,28c1.9-0.8,4-1.7,6-2.5C35,23.8,39.7,22.3,44.4,21z"/>
	
		<radialGradient id="SVGID_19_" cx="7.719374e-02" cy="35.3229" r="42.6067" gradientTransform="matrix(1 0 0 -1 0 92)" gradientUnits="userSpaceOnUse">
		<stop  offset="0" style="stop-color:#FFFFFF"/>
		<stop  offset="1" style="stop-color:#FFFFFF"/>
	</radialGradient>
	<path style="fill:url(#SVGID_19_);" d="M46.2,70.3c-0.1,0-0.1,0-0.2,0c-3.6,0.8-6.3,1.4-9.7,2c4,2,8.5,3.1,13.3,3.1
		c11,0,20.6-5.8,25.9-14.6c-4.6,2-9.4,3.8-14.5,5.4C56.4,67.7,51.6,69,46.2,70.3z"/>
	
		<radialGradient id="SVGID_20_" cx="-33.8422" cy="73.5758" r="62.773" gradientTransform="matrix(1 0 0 -1 0 92)" gradientUnits="userSpaceOnUse">
		<stop  offset="0" style="stop-color:#FFFFFF"/>
		<stop  offset="1" style="stop-color:#FFFFFF"/>
	</radialGradient>
	<path style="fill:url(#SVGID_20_);" d="M60.8,26.7c-4.5,0.8-9,1.8-13.9,3.2c-4.5,1.2-9,2.7-13.3,4.3c-0.1,0-0.2,0.1-0.3,0.1
		c-4.6,1.8-8.2,3.4-11.1,5c-0.9,0.5-1.8,0.9-2.6,1.4c-0.2,1.4-0.3,2.9-0.3,4.3c0,1.2,0.1,2.4,0.2,3.5c3-0.6,6.7-1.6,11.8-3.1
		c3.7-1.1,8.4-2.6,14.2-4.5L60,36.1c4.9-1.6,9.4-3,13.4-4.2c1.1-0.3,2.2-0.6,3.2-0.8c-1.1-2.2-2.5-4.2-4.1-6
		C68.6,25.4,64.7,25.9,60.8,26.7z"/>
	
		<radialGradient id="SVGID_21_" cx="-31.9413" cy="59.0486" r="63.7156" gradientTransform="matrix(1 0 0 -1 0 92)" gradientUnits="userSpaceOnUse">
		<stop  offset="0" style="stop-color:#FFFFFF"/>
		<stop  offset="1" style="stop-color:#FFFFFF"/>
	</radialGradient>
	<path style="fill:url(#SVGID_21_);" d="M30.9,63.8c0.1,0,0.2,0,0.3,0c4.9-0.8,9-1.6,12.9-2.5c5.1-1.2,9.7-2.5,14.1-3.9
		c0.1,0,0.1,0,0.2,0c6.2-2.1,11.4-4,15.9-6.1c2-0.9,3.8-1.9,5.4-2.8c0.1-1.1,0.2-2.3,0.2-3.5c0-1.7-0.2-3.5-0.4-5.1
		c-1.3,0.3-2.5,0.6-3.6,1c-3.3,0.9-7.7,2.3-13,4l-14.6,4.8c-5.1,1.7-10,3.3-14.5,4.7c-4,1.1-8,2.1-12,3c1.1,2.5,2.6,4.8,4.3,6.9
		C27.9,64.2,29.5,64,30.9,63.8z"/>
</g>
</svg>
