<?xml version="1.0" encoding="utf-8"?>
<!-- Generator: Adobe Illustrator 24.0.1, SVG Export Plug-In . SVG Version: 6.00 Build 0)  -->
<svg version="1.1" id="레이어_1" xmlns="http://www.w3.org/2000/svg" xmlns:xlink="http://www.w3.org/1999/xlink" x="0px"
	 y="0px" viewBox="0 0 598.2 350.3" style="enable-background:new 0 0 598.2 350.3;" xml:space="preserve">
<g>
	<path style="fill:#F4F4F4;" d="M443,257.9c-0.9-0.6-1.9-1.2-3.4-1.7c-4.3-10.7-19.6-45.3-31.8-67c-5.7-10.2-14.4-24.3-23.2-37.8
		c-6.8-10.4-12.3-18.3-15.5-22.4c0-1,0-3.3,0.1-6.4c0-13.1-0.5-37.9-4.1-56.5c-2.3-12.1-4.6-20-7.3-24.9c-2.4-4.5-5.5-6.7-9.1-6.7
		c-0.2,0-0.4,0-0.6,0c-3,0.1-5.4,1.3-6.8,3.5c-1.5,2.3-2.2,5.4-2.2,10.3c0,1.8,0.1,3.9,0.3,6.3c0.1,1.3,0.2,2.6,0.2,3.8
		c0,11.1-4.8,14.8-6.3,15.7c-1.9,1.1-2.6,1.4-2.9,1.5c-4.1-5.2-10.2-11.9-17.1-18.8c0.9-0.6,1.5-1.6,1.5-2.9c0-0.9-0.3-1.8-0.9-2.9
		c-1.9-3-5.8-3.4-8.6-3.4c-0.6,0-1.2,0-1.8,0.1c-3-2.7-5.8-5-8.1-6.8c-6.3-4.9-13.7-7.7-20.2-7.7l0,0c-5.4,0-9.9,1.9-13.2,5.4
		c-1.6,1.7-3.1,4-4.6,6.9c-3.1,0.8-5.6,2.5-6.9,3.6c-2.1,1.8-4.7,4.6-4.8,7.7c0,2.3,0.5,4,1.5,5.3c0.7,1,1.8,1.7,3.1,2.2
		c-0.8,2.5-1.5,4.9-2.2,7.2c-0.9,3-1.7,5.8-2.5,8.3c-3.8,11.6-13.6,26.1-24.4,36c-12.1,11-22.7,24.4-24.7,31.1
		c-0.6,2-0.9,4.2-0.9,6.4c0,2.9,0.6,5.4,1.7,7.3c1.4,2.4,3.7,3.9,6.5,4l0,0c0.2,0,0.4,0,0.6,0c4.1,0,6.3-3,8.1-5.4
		c1.7-2.2,3.2-4.3,5.8-4.8c2-0.4,3.8-0.6,5.2-0.6c0.1,0,0.1,0,0.2,0c-11.9,41.7-31.4,94.8-44,127.6c-1,2.5-1.8,4.5-2.5,6.3
		c-1.8,4.5-2.8,7-3.2,9c-2.6,2-4.7,4.6-4.7,8.2c0,1.3,0.3,2.8,0.9,4.3c0.6,2.6,3.5,5.2,8.5,5.2h0.1c2.4,0,5.3-0.5,8.6-1.6
		c11.6-3.8,68.6-14.4,106.9-19.9c40.8-5.9,80.6-7.6,99.7-8.5c10.7-0.5,22.2-1.8,31.7-3.6c5-1,9.3-2.1,12.5-3.2
		c4-1.4,6.2-2.7,7.5-4.4c1.7-2.3,2.6-4.6,2.6-6.8C448.2,262.9,446.4,260.1,443,257.9z M227.6,153.3c0.3-0.4,0.4-0.8,0.4-1.3
		c3.6-12.7,6.4-24.2,8.1-33.7c0.2-1.1-0.5-2.1-1.6-2.3c-1.1-0.2-2.1,0.5-2.3,1.6c-1.6,9.1-4.3,20.1-7.7,32.1c-0.4,0-0.8-0.1-1.3-0.1
		c-1.6,0-3.6,0.2-5.9,0.7c-4,0.8-6.2,3.7-8,6.1l-0.2,0.2c-1.8,2.4-3,3.8-4.9,3.8c-0.1,0-0.3,0-0.4,0c-1.5-0.1-2.5-0.8-3.3-2.1
		s-1.2-3.2-1.2-5.3c0-1.7,0.3-3.6,0.8-5.2c1.6-5.6,12.6-19.3,23.6-29.3c11.5-10.5,21.5-25.3,25.6-37.7c0.8-2.5,1.6-5.3,2.5-8.4
		c1.6-5.5,3.4-11.6,5.5-17.2c0.4-0.4,0.8-0.6,1.4-0.6l0,0c1.2,0,2.7,0.8,3.2,1.3c0.6,0.5,1.6,1.3,3,2.2c-7.1,3.3-10.8,8.1-10.8,14
		c0,1,0.1,2.1,0.4,3.2l0,0c0.5,2,1.4,3.9,2.8,5.8c-0.1,1-0.2,2.1-0.2,3.3c0,3.7,1.4,6.7,4.2,8.9c2.3,1.8,5.6,3.2,10.1,4.3
		c-7.8,3.8-12.6,8-16.1,13.4c-1.4,2.2-2.1,4.9-2.1,7.7c0,5.7,3.1,11.5,8.2,16.1c1.8,6.7,7.8,13.1,16.6,18.1
		c-9.4,2.7-18.9,6.4-24.3,10.7c-7.4,5.9-12.2,16.4-12.2,26.8c0,5.2,1.2,10.1,3.5,14.6c1.7,3.3,3.9,6.8,7,10.3c0.3,0.8,0.7,1.6,1,2.4
		c3.8,8.8,8.9,20.8,28.5,25.7c7.1,1.8,15.3,2.7,23.8,2.7c19.4,0,36.1-4.7,45.8-12.8c17.4-14.6,17.7-36.3,17.7-37.2
		c0-0.3-0.1-0.6-0.2-0.8c0.1-0.8,0.2-1.5,0.2-2.3c0-0.9,0.1-1.8,0.1-2.7c0-11.5-3.5-20.3-10.8-27c-6.7-6.1-16.5-10.3-29.4-12.7
		c6.5-5.1,9.6-11.8,9.8-21.3c2.4-3.4,3.7-7.3,3.7-11.5c-0.1-13.3-11.7-25.5-21.7-27.3c-4.2-0.7-8.4-1.1-12.6-1.2
		c0.5-1.4,0.7-3.1,0.7-4.7c0-1.1-0.1-2.2-0.4-3.2c2.4-2.9,3.8-6.3,3.8-9.8l0,0v-0.1c-0.1-5.8-3.3-9.8-6-12.2c-1.2-1-2.4-1.9-3.6-2.5
		c0.6-0.2,1.3-0.4,2-0.5c0.4-0.1,0.9-0.1,1.3-0.1c0.6,0,1.2,0.1,1.7,0.3c8.1,7.7,15.6,15.8,20.1,21.7l0.2,0.2c0.7,0.7,1.7,1,2.6,1
		c1.5-0.1,2.7-0.7,4.3-1.7l0.8-0.4c2-1.1,8.3-5.8,8.3-19.1c0-1.3-0.1-2.7-0.2-4.1c-0.2-2.2-0.3-4.2-0.3-5.9c0-4.8,0.8-7,1.5-8.1
		c0.8-1.2,1.8-1.6,3.6-1.7c0.1,0,0.2,0,0.3,0c1.6,0,3.4,0.4,5.7,4.6c2.5,4.5,4.7,12.3,6.9,23.8c3.6,19,4,45.4,4,55.8
		c0,1.2,0,2.3,0,3.2c-0.4,0.1-0.8,0.2-1.1,0.6c-0.3,0.3-0.5,0.7-0.6,1.1h-1.2l1.7,1.7c2.2,2.2,9.1,12,17.2,24.4
		c8.7,13.4,17.4,27.4,23.1,37.5c11.2,19.9,25,50.6,30.4,63.6c-7.3-1.6-20.8-3-49.3-4.3c-5.7-0.3-11.9-0.4-18.2-0.4
		c-40,0-82.4,5.1-103.6,10.2c-30.9,7.4-56.9,20.1-69.4,26.1c-2.5,1.2-5.1,2.3-7.6,3.4c-2.8,1.2-5.4,2.3-7.7,3.6c0.5-1.4,1.2-3,2-5
		c0.6-1.6,1.4-3.5,2.2-5.6C195.8,249.4,215.6,195.4,227.6,153.3z M296.1,49.1c-1.1,0.5-2.1,1.2-3.2,2c-2.5,1.8-5.4,3.9-10.2,3.9
		c-1.4,0-2.8-0.2-4.3-0.5c-5.3-1.2-7.3-3.3-8.9-4.9l-0.4-0.4c-1.7-1.8-3.6-3.8-7.2-4.2c0.9-1.6,1.9-2.9,2.8-3.9
		c2.6-2.7,6-4.1,10.3-4.1l0,0c5.7,0,12.1,2.5,17.8,6.9c1.6,1.3,3.5,2.8,5.5,4.5C297.5,48.6,296.8,48.9,296.1,49.1z M252.8,52.1
		c2.4-2,5.3-3.1,7.7-3.1l0,0c0.2,0,0.4,0,0.6,0c2.4,0.2,3.3,1.1,5,2.9l0.5,0.5c2.3,2.4,5.2,4.8,10.9,6.1c1.8,0.4,3.6,0.6,5.2,0.6
		c6.2,0,10.1-2.9,12.7-4.8c0.9-0.7,1.7-1.2,2.3-1.4c1.5-0.7,4.6-1.3,7.5-1.3l0,0c2.9-0.1,4.7,0.8,5.1,1.5c0.1,0.2,0.2,0.4,0.3,0.5
		c-0.1,0-0.3,0.1-0.4,0.1c-0.2-0.1-0.5-0.3-0.7-0.4c-0.1-0.1-0.3-0.2-0.4-0.2c-0.9-0.4-2-0.7-3.4-0.7c-0.7,0-1.3,0.1-2,0.2
		c-3,0.6-5.1,1.6-6.8,2.7c-0.6,0.1-1.1,0.5-1.4,1c-0.4,0.3-0.8,0.6-1.1,0.9l-0.5,0.4c-0.3,0.2-0.5,0.4-0.8,0.6
		c-0.6,0.1-1,0.4-1.3,0.9c-1.6,1-3.5,1.6-6.5,1.7c-0.2,0-0.4,0-0.7,0c-4.8,0-9.6-1.8-12.8-3.3c-3.6-1.7-6.4-3.7-6.9-4.2
		c-1.2-1.2-3.4-2.4-6-2.4c-1.6,0-3.1,0.6-4.2,1.7c-0.3,0.2-0.6,0.6-0.8,0.9l0,0c0,0.1-0.1,0.1-0.1,0.2c-0.2,0.3-0.2,0.6-0.3,0.9
		c-0.7,1.9-1.4,3.9-2,5.9c-0.7-0.3-1-0.6-1.1-0.8c-0.4-0.6-0.7-1.5-0.7-3C249.4,56,250.5,53.8,252.8,52.1z M355.3,166.3
		c8.5,7.8,9.5,17.5,9.5,24c0,0.9,0,1.8,0,2.6c-0.7,18-20.5,37.1-55.8,37.1c-0.4,0-0.9,0-1.3,0c-40.3-0.6-52.8-14.6-59.3-26.8
		c-2-3.8-3-8.1-3-12.7c0-9.1,4.3-18.6,10.7-23.6c9.3-7.5,35.3-13.8,45.3-14.2c0.3,0,0.7,0,1,0C327.6,152.6,345.4,157.2,355.3,166.3z
		 M259.1,221.8c9.5,6.7,24.3,11.9,48.4,12.2c0.5,0,0.9,0,1.4,0v-1l0,0l0.1,1l0,0c22.7,0,36.6-7.3,44.3-13.3c2.9-2.3,5.5-4.9,7.6-7.6
		c-2.4,5.7-6.2,12-12.5,17.3c-8.8,7.4-25,11.8-43.1,11.8h-0.1c-8.1,0-16-0.9-22.8-2.6C268.3,235.9,262.7,228.9,259.1,221.8z
		 M322.9,149.7l-0.1,0.1c-6.2-0.8-13-1.2-20.4-1.2c-0.1,0-0.1,0-0.2,0l0,0l-1.9,0.1l0,0c-4.1,0.3-10.2,1.3-16.7,2.9
		c-6.8-3.2-12.3-7.4-15.5-11.7c0.9,0.5,1.9,1,2.9,1.5l0,0c6.1,2.7,14.6,4.3,24,4.3c15.8,0,30-4.2,39-11.6
		C333.1,140.2,330.3,145.3,322.9,149.7z M332.3,130.2L332.3,130.2c-8.1,7.1-22,11.4-37.2,11.4c0,0,0,0-0.1,0l0,0
		c-8.6,0-16.8-1.4-22.3-3.9c-11.6-5.2-15.7-13.4-15.7-18.8c0-2,0.5-3.9,1.5-5.5c3.7-6,9.5-10.2,19.9-14.4c0.1,0,0.1,0,0.2,0
		c0.6,0,1.1-0.2,1.5-0.6c2.7-1,5.8-2.1,9.2-3.1c3.4-0.8,9-1.7,16.5-1.7c4.7,0,9.4,0.4,14.1,1.1c8.1,1.2,18.4,12.7,18.3,23.3
		C338.1,122.7,336.1,126.9,332.3,130.2z M295.1,90.1c3.6-1.3,6.8-3,9.4-5c0,1.7-0.5,3.4-1,4.4C300.3,89.6,297.5,89.8,295.1,90.1z
		 M281.3,92.5c1.2,0,2.3-0.1,3.5-0.2c0.1,0,0.1,0,0.2,0c-2.6,0.8-4.9,1.7-7.1,2.5c-6.8-0.9-11.7-2.4-14.3-4.5
		c-1.9-1.6-2.5-3.2-2.6-5.1C265.9,89.5,273,92.5,281.3,92.5z M304.6,79.6L304.6,79.6c-4.1,4.5-11.5,7.9-20.2,8.8
		c-1,0.1-2.1,0.1-3.2,0.2c-12.8,0-21.7-8.2-22.9-14c-0.2-0.8-0.3-1.6-0.3-2.3c0-6,6-9.6,11.3-11.5c0.2,0.1,0.4,0.2,0.5,0.3
		c0.3,0.1,0.6,0.3,0.9,0.4c-6.2,3.2-9.8,8.3-9.9,12.3c0,0.3,0,0.5,0.1,0.8c0.5,3.2,3.5,10.7,21,12.3l0,0c0.8,0.1,1.5,0.1,2.3,0.1
		l0,0c5.5,0,11-1.8,15.5-5c2.5-1.8,4.3-3.9,5.5-6c0.2-0.2,0.4-0.5,0.4-0.8c0.7-1.5,1.1-3,1.1-4.5v-0.2c0-3-1.4-5.8-3.8-8.1l0.1,0.1
		c2.1,1.8,4.6,4.9,4.7,9.2c0,0,0,0.1,0,0.2C308,74.6,306.8,77.3,304.6,79.6z M294.1,62c1.1,0.2,3.2,0.9,5.1,2.2c1.4,1,3,2.6,3.5,4.7
		c-0.8-0.7-1.6-1.4-2.7-2c-2.8-1.7-6-2.9-9.3-3.3C292.1,63.2,293.2,62.7,294.1,62z M288.2,67.5c3.3,0.1,6.9,1.1,9.8,2.9
		c2.2,1.3,3.5,2.9,3.8,3.8c-0.9,1.6-2.4,3.2-4.3,4.5c-3.7,2.7-8.5,4.2-13.1,4.2c-0.7,0-1.3,0-2-0.1c-3.8-0.4-7-1-9.4-1.9
		c-0.3-0.5-0.7-0.8-1.3-1c-0.5-0.1-2.3-1.8-2.3-3.8c0-1,0.4-2,1.2-2.9c3.2-3.7,9.1-5.8,16.7-5.8l0,0
		C287.6,67.4,287.9,67.5,288.2,67.5z M267.6,70.7c-1.3,1.5-2,3.1-2.2,4.8c-0.2-0.5-0.4-1-0.5-1.5c0-0.1,0-0.1,0-0.3
		c-0.1-2.1,3.7-8.1,11.5-10.2c1.1,0.3,2.1,0.6,3.2,0.7C275.2,65.1,270.8,67,267.6,70.7z M178.6,310.1L178.6,310.1
		c-3.6,0-4.5-1.3-4.7-2l0,0c0.1,0,0.1-0.1,0.2-0.2c2.2-1.7,11.6-4.9,31.1-10.9c28.3-8.6,78.5-16.7,103.6-19.7
		c23.6-2.9,68.3-6.2,117-6.2c4.2,0,8.4,0,12.6,0.1l0,0c1.1,0,2-0.9,2-2s-0.9-2-2-2c-4,0-8.1-0.1-12.2-0.1c-49,0-94.2,3.3-117.9,6.2
		c-26.2,3.2-75.5,11.1-104.3,19.8c-14.4,4.4-22.6,7.1-27.3,9c-1.6,0.6-2.8,1.2-3.7,1.7c0.4-2.2,2.5-4.2,6.6-6.5
		c2.4-1.3,5.4-2.6,8.5-4c2.5-1.1,5.2-2.2,7.8-3.5c11.4-5.6,38.1-18.6,68.6-25.9c20.5-4.9,63.4-10.1,102.7-10.1l0,0
		c6.2,0,12.3,0.1,18,0.4c44.8,2,52,4.5,55.6,6.8c2.2,1.5,3.4,3.1,3.4,4.9c0,1.3-0.6,2.8-1.8,4.4c-0.5,0.7-2.4,1.9-5.6,3
		c-9.1,3.2-26.8,5.9-43.1,6.6c-19.2,0.9-59.1,2.6-100.1,8.5c-39.2,5.6-95.5,16.2-107.6,20.1C183.1,309.7,180.6,310.1,178.6,310.1z
		 M330.2,75.5L330.2,75.5L330.2,75.5L330.2,75.5z"/>
	<path style="fill:#F4F4F4;" d="M320.9,98.4c-4.2-1.9-10.2-2.9-16.8-2.9c-4.7,0-9.4,0.5-13.3,1.5l0,0l-1,0.3h-0.1l-0.8,0.2l0,0
		c-6.5,2-11.5,4.2-15.1,6.8c-4.8,3.4-7.4,7.6-7.8,12.4c0,0.6-0.1,1.2-0.1,1.7c0,5.1,2.1,9.1,6.2,11.8c4.4,2.8,11,4.4,20.3,4.7
		c0.8,0,1.7,0,2.5,0v-1l0,0v1l0,0c21.9,0,30.9-9.6,33.8-13.8c1.5-2.1,2.2-4.7,2.2-7.4C331.1,107.4,326.9,101.1,320.9,98.4z
		 M327,115.5c-1.4-2.5-3.7-4.4-6.8-5.8c-3.8-1.7-8.8-2.6-14.8-2.6c-8.6,0-17,1.7-21.5,3.2c-7.6,2.5-11.7,8.1-12.7,13
		c-0.7-1.4-1.1-3-1.1-4.9c0-0.4,0-0.9,0.1-1.4c0.3-3.7,2.3-6.8,6.1-9.5c3.4-2.5,8.3-4.6,14.8-6.5c3.7-1.1,8.4-1.6,13.1-1.6
		c0,0,0,0,0.1,0c5.9,0,11.4,0.9,15.1,2.6c4.5,2,7.8,7,7.8,11.8C327.1,114.4,327,115,327,115.5z M275.2,127.4
		c-0.1-0.2-0.3-0.7-0.3-1.6c0-3.3,2.7-9.2,10.2-11.6c4.6-1.5,12.6-3,20.2-3h0.1c5.3,0,9.9,0.8,13.1,2.2c3.5,1.6,5.4,3.8,6.1,7
		c-3.4,4-11.7,10.7-29.5,10.7c-0.8,0-1.6,0-2.4,0C284.8,130.8,278.9,129.6,275.2,127.4z"/>
	<path style="fill:#F4F4F4;" d="M254.9,190.5c0,3.2,0.7,6.4,2,9.6c1.5,3.5,4.1,6.6,7.8,9.1c0.3,0.3,0.6,0.6,1,0.7
		c2.8,1.8,6.1,3.3,10,4.5l0,0c8.3,2.7,19.2,4.1,31.4,4.1c2.8,0,5.8-0.1,8.7-0.2c25.5-1.3,41.4-19,41.4-34.7v-0.5
		c-0.2-7-4.5-13.4-12.2-18c-6.6-4-14.9-6.3-23.1-6.5h-0.7c-0.1,0-0.2,0-0.3,0h-1l0,0h-4.1c-16,0-28.3,0.4-41,5.8
		C262.6,169.7,254.9,179.7,254.9,190.5z M315.7,214.3c-2.9,0.1-5.8,0.2-8.5,0.2l0,0c-11.8,0-22.3-1.3-30.2-3.9
		c-3.6-1.1-6.6-2.5-9.1-4.2c-0.8-2-1.2-4-1.2-6.1c0-7.7,5.3-14.8,14.6-19.5c6.4-3.2,16.3-5,27.8-5c0,0,0,0,0.1,0
		c7.1,0,14.6,0.7,20,1.8c9.5,2,19.2,8.7,19.1,19c0,0.4,0,0.7,0,1.1C342.5,206.1,331.8,213.5,315.7,214.3z M321.2,162.6
		c7.6,0.1,15.7,2.2,21.8,5.9c6.5,3.9,10.1,9.1,10.3,14.6v0.5c0,2.5-0.5,5.2-1.6,8c-2.6-9.7-12.1-15.8-21.6-17.8
		c-5.7-1.2-13.4-1.9-20.8-1.9c-8.6,0-20.7,0.9-29.7,5.4c-10.7,5.3-16.9,13.7-16.9,23c0,0.6,0,1.1,0.1,1.7c-0.9-1.1-1.6-2.3-2.2-3.5
		c-1.1-2.7-1.7-5.4-1.7-8c0-9.2,6.7-17.7,17.5-22.4c11.9-5.1,23.7-5.5,39.2-5.5c0.1,0,0.2,0,0.2,0H321.2z"/>
</g>
</svg>
