<?xml version="1.0" encoding="utf-8"?>
<!-- Generator: Adobe Illustrator 24.0.1, SVG Export Plug-In . SVG Version: 6.00 Build 0)  -->
<svg version="1.1" id="Layer_1" xmlns="http://www.w3.org/2000/svg" xmlns:xlink="http://www.w3.org/1999/xlink" x="0px" y="0px"
	 viewBox="0 0 653.3 200" style="enable-background:new 0 0 653.3 200;" xml:space="preserve">
<title>scummvm</title>
<g id="g14">
	<g id="g628">
		<g id="g630">
		</g>
		<g id="g744">
			<g id="g678">
				<g id="g672">
				</g>
				<g id="g674">
				</g>
			</g>
			<g id="g686">
				<g id="g680">
				</g>
				<g id="g682">
				</g>
			</g>
			<g id="g694">
				<g id="g688">
				</g>
				<g id="g690">
				</g>
			</g>
			<g id="g702">
				<g id="g696">
				</g>
				<g id="g698">
				</g>
			</g>
			<g id="g710">
				<g id="g704">
				</g>
				<g id="g706">
				</g>
			</g>
			<g id="g718">
				<g id="g712">
				</g>
				<g id="g714">
				</g>
			</g>
			<g id="g726">
				<g id="g720">
				</g>
				<g id="g722">
				</g>
			</g>
			<g id="g734">
				<g id="g728">
				</g>
				<g id="g730">
				</g>
			</g>
			<g id="g742">
				<g id="g736">
				</g>
				<g id="g738">
				</g>
			</g>
		</g>
	</g>
	<g id="g748">
		<g id="g750">
		</g>
		<g id="g852">
			<g id="g794">
				<g id="g788">
				</g>
				<g id="g790">
				</g>
			</g>
			<g id="g802">
				<g id="g796">
				</g>
				<g id="g798">
				</g>
			</g>
			<g id="g810">
				<g id="g804">
				</g>
				<g id="g806">
				</g>
			</g>
			<g id="g818">
				<g id="g812">
				</g>
				<g id="g814">
				</g>
			</g>
			<g id="g826">
				<g id="g820">
				</g>
				<g id="g822">
				</g>
			</g>
			<g id="g834">
				<g id="g828">
				</g>
				<g id="g830">
				</g>
			</g>
			<g id="g842">
				<g id="g836">
				</g>
				<g id="g838">
				</g>
			</g>
			<g id="g850">
				<g id="g844">
				</g>
				<g id="g846">
				</g>
			</g>
		</g>
	</g>
	<g id="g856">
		<g id="g858">
		</g>
		<g id="g912">
			<g id="g886">
				<g id="g880">
				</g>
				<g id="g882">
				</g>
			</g>
			<g id="g894">
				<g id="g888">
				</g>
				<g id="g890">
				</g>
			</g>
			<g id="g902">
				<g id="g896">
				</g>
				<g id="g898">
				</g>
			</g>
			<g id="g910">
				<g id="g904">
				</g>
				<g id="g906">
				</g>
			</g>
		</g>
	</g>
	<g id="g916">
		<g id="g918">
		</g>
		<g id="g960">
			<g id="g942">
				<g id="g936">
				</g>
				<g id="g938">
				</g>
			</g>
			<g id="g950">
				<g id="g944">
				</g>
				<g id="g946">
				</g>
			</g>
			<g id="g958">
				<g id="g952">
				</g>
				<g id="g954">
				</g>
			</g>
		</g>
	</g>
	<g id="g964">
		<g id="g966">
		</g>
		<g id="g1008">
			<g id="g990">
				<g id="g984">
				</g>
				<g id="g986">
				</g>
			</g>
			<g id="g998">
				<g id="g992">
				</g>
				<g id="g994">
				</g>
			</g>
			<g id="g1006">
				<g id="g1000">
				</g>
				<g id="g1002">
				</g>
			</g>
		</g>
	</g>
	<g id="g1080">
		<g id="g1082">
		</g>
		<g id="g1476">
			<g id="g1226">
				<g id="g1196">
				</g>
				<g id="g1198">
				</g>
			</g>
			<g id="g1250">
				<g id="g1228">
				</g>
				<g id="g1230">
				</g>
			</g>
			<g id="g1282">
				<g id="g1252">
				</g>
				<g id="g1254">
				</g>
			</g>
			<g id="g1314">
				<g id="g1288">
				</g>
				<g id="g1290">
				</g>
			</g>
			<g id="g1346">
				<g id="g1320">
				</g>
				<g id="g1322">
				</g>
			</g>
			<g id="g1378">
				<g id="g1352">
				</g>
				<g id="g1354">
				</g>
			</g>
			<g id="g1406">
				<g id="g1380">
				</g>
				<g id="g1382">
				</g>
			</g>
			<g id="g1434">
				<g id="g1408">
				</g>
				<g id="g1410">
				</g>
			</g>
			<g id="g1470">
				<g id="g1444">
				</g>
				<g id="g1446">
				</g>
			</g>
		</g>
	</g>
	<g id="g1480">
		<g id="g1482">
		</g>
		<g id="g1828">
			<g id="g1614">
				<g id="g1584">
				</g>
				<g id="g1586">
				</g>
			</g>
			<g id="g1638">
				<g id="g1616">
				</g>
				<g id="g1618">
				</g>
			</g>
			<g id="g1670">
				<g id="g1640">
				</g>
				<g id="g1642">
				</g>
			</g>
			<g id="g1702">
				<g id="g1676">
				</g>
				<g id="g1678">
				</g>
			</g>
			<g id="g1730">
				<g id="g1704">
				</g>
				<g id="g1706">
				</g>
			</g>
			<g id="g1758">
				<g id="g1732">
				</g>
				<g id="g1734">
				</g>
			</g>
			<g id="g1786">
				<g id="g1764">
				</g>
				<g id="g1766">
				</g>
			</g>
			<g id="g1818">
				<g id="g1792">
				</g>
				<g id="g1794">
				</g>
			</g>
		</g>
	</g>
	<g id="g1832">
		<g id="g1834">
		</g>
		<g id="g2012">
			<g id="g1910">
				<g id="g1888">
				</g>
				<g id="g1890">
				</g>
			</g>
			<g id="g1934">
				<g id="g1912">
				</g>
				<g id="g1914">
				</g>
			</g>
			<g id="g1974">
				<g id="g1936">
				</g>
				<g id="g1938">
				</g>
			</g>
			<g id="g2002">
				<g id="g1976">
				</g>
				<g id="g1978">
				</g>
			</g>
		</g>
	</g>
	<g id="g2016">
		<g id="g2018">
		</g>
		<g id="g2160">
			<g id="g2098">
				<g id="g2064">
				</g>
				<g id="g2066">
				</g>
			</g>
			<g id="g2122">
				<g id="g2100">
				</g>
				<g id="g2102">
				</g>
			</g>
			<g id="g2154">
				<g id="g2124">
				</g>
				<g id="g2126">
				</g>
			</g>
		</g>
	</g>
	<g id="g2164">
		<g id="g2166">
		</g>
		<g id="g2312">
			<g id="g2250">
				<g id="g2212">
				</g>
				<g id="g2214">
				</g>
			</g>
			<g id="g2274">
				<g id="g2252">
				</g>
				<g id="g2254">
				</g>
			</g>
			<g id="g2306">
				<g id="g2276">
				</g>
				<g id="g2278">
				</g>
			</g>
		</g>
	</g>
	<g id="g2316">
		<g id="g2318">
		</g>
		<g id="g2432">
			<g id="g2366">
				<g id="g2360">
				</g>
				<g id="g2362">
				</g>
			</g>
			<g id="g2374">
				<g id="g2368">
				</g>
				<g id="g2370">
				</g>
			</g>
			<g id="g2382">
				<g id="g2376">
				</g>
				<g id="g2378">
				</g>
			</g>
			<g id="g2390">
				<g id="g2384">
				</g>
				<g id="g2386">
				</g>
			</g>
			<g id="g2398">
				<g id="g2392">
				</g>
				<g id="g2394">
				</g>
			</g>
			<g id="g2406">
				<g id="g2400">
				</g>
				<g id="g2402">
				</g>
			</g>
			<g id="g2414">
				<g id="g2408">
				</g>
				<g id="g2410">
				</g>
			</g>
			<g id="g2422">
				<g id="g2416">
				</g>
				<g id="g2418">
				</g>
			</g>
			<g id="g2430">
				<g id="g2424">
				</g>
				<g id="g2426">
				</g>
			</g>
		</g>
	</g>
	<g id="g2436">
		<g id="g2438">
		</g>
		<g id="g2540">
			<g id="g2482">
				<g id="g2476">
				</g>
				<g id="g2478">
				</g>
			</g>
			<g id="g2490">
				<g id="g2484">
				</g>
				<g id="g2486">
				</g>
			</g>
			<g id="g2498">
				<g id="g2492">
				</g>
				<g id="g2494">
				</g>
			</g>
			<g id="g2506">
				<g id="g2500">
				</g>
				<g id="g2502">
				</g>
			</g>
			<g id="g2514">
				<g id="g2508">
				</g>
				<g id="g2510">
				</g>
			</g>
			<g id="g2522">
				<g id="g2516">
				</g>
				<g id="g2518">
				</g>
			</g>
			<g id="g2530">
				<g id="g2524">
				</g>
				<g id="g2526">
				</g>
			</g>
			<g id="g2538">
				<g id="g2532">
				</g>
				<g id="g2534">
				</g>
			</g>
		</g>
	</g>
	<g id="g2544">
		<g id="g2546">
		</g>
		<g id="g2600">
			<g id="g2574">
				<g id="g2568">
				</g>
				<g id="g2570">
				</g>
			</g>
			<g id="g2582">
				<g id="g2576">
				</g>
				<g id="g2578">
				</g>
			</g>
			<g id="g2590">
				<g id="g2584">
				</g>
				<g id="g2586">
				</g>
			</g>
			<g id="g2598">
				<g id="g2592">
				</g>
				<g id="g2594">
				</g>
			</g>
		</g>
	</g>
	<g id="g2604">
		<g id="g2606">
		</g>
		<g id="g2648">
			<g id="g2630">
				<g id="g2624">
				</g>
				<g id="g2626">
				</g>
			</g>
			<g id="g2638">
				<g id="g2632">
				</g>
				<g id="g2634">
				</g>
			</g>
			<g id="g2646">
				<g id="g2640">
				</g>
				<g id="g2642">
				</g>
			</g>
		</g>
	</g>
	<g id="g2652">
		<g id="g2654">
		</g>
		<g id="g2696">
			<g id="g2678">
				<g id="g2672">
				</g>
				<g id="g2674">
				</g>
			</g>
			<g id="g2686">
				<g id="g2680">
				</g>
				<g id="g2682">
				</g>
			</g>
			<g id="g2694">
				<g id="g2688">
				</g>
				<g id="g2690">
				</g>
			</g>
		</g>
	</g>
</g>
<g>
	<path style="fill:#FCFCFC;" d="M650.4,33.1c-2.2-2.6-5.3-4.2-8.7-4.5l-20.8-1.8c-5.5-0.5-11.2,2.6-13.8,7.4L566,109.3
		c-7.2-26.5-22-81.4-22-81.4c-1.5-5.5-6.5-9.8-12.2-10.4l-23-2.3c-3.8-0.4-7.4,0.9-10,3.3c-0.5-1.7-1.4-3.3-2.7-4.6l0,0
		c-2.3-2.3-5.6-3.2-8.8-2.6l-27,5.4c-4.1,0.8-7.3,4.2-7.8,8.3c0,0-5.1,36.9-8.9,64.5c-13.7-24.4-32.1-57.1-32.1-57.1
		c-2.1-3.8-6.4-5.7-10.6-4.8l-30.2,6.2c-5.3,1.1-8.8,6.3-7.7,11.7c0.2,1.1,0.6,2.1,1.2,3l21.6,36.4c-2,0.3-4,0.7-5.9,1.2
		s-4,2.3-6.2,2.3c-1.6,0-4-1.4-6.2-2s-4.6-1.2-7.1-1.1c-2.6,0-5.4,1.3-7.9,1.1c-2.9-0.1-5.7-1.9-8.8-2c-6.9-0.3-15.5-0.6-21.3,1.7
		c-2.1,0.8-4.8,4.8-7.1,4.8c-1.9,0-5.3-3-7.1-3.7c-8.2-3-17-3.5-25-1.4c-2.3,0.6-5.1,2.5-7.7,2.6c-1.7,0-3.8-1.4-6-2
		s-4.8-1.1-7.1-1.1c-2.8,0-5.9,1.3-8.5,1.1c-2.8-0.2-5.6-1.8-8.5-2c-4.1-0.2-8.8,0.1-13,0.3c-2.3,0.1-5,1.1-7.1,0.9
		c-2.2-0.3-4.3-2.6-6.2-3.1c-5.9-1.7-22.2-1.1-27.5,0.6c-1.7,0.5-4.6,3.3-6.8,3.4c-2,0.1-4.7-1.7-7.4-2c-6.6-0.6-21.5-0.5-26.1,1.4
		c-2.1,0.9-4.8,5.4-7.1,5.4c-1.2,0-3.4-2.2-4.8-3.1c-11.3-7.3-31.1-7.7-43.4-2c-3.5,1.6-5.9,4.5-9.9,5.4
		c3.1-14.6-6.8-19.7-16.4-25.2c-6.8-3.8-14.7-6.2-22.4-6.8C27,58.2,12.1,67.3,6.4,80c-4.7,10.7-3.1,24.7,1.7,33.2
		c1.1,1.9,5.2,5.7,5.1,8.2c-0.1,1.4-1.9,2.8-3.1,4.3c-3.3,3.9-7.8,8.4-9.4,12.8c-3,8.5,3.5,15.4,7.9,19.6
		c8.7,8.1,22.2,14.5,39.1,13.3c11.2-0.8,20.2-4.5,26.9-9.6c1.7-1.3,4.9-5.6,6.8-5.7c2.2,0,4.7,4.3,6.5,5.7
		c12.6,9.9,36.8,12.6,51,3.1c3.2-2.1,5.4-5.2,8.8-6.8c7.7,8.4,19.3,15.8,34.6,14.5c2.7-0.2,5.6-1.7,8.8-1.7c2.4,0,4.6,1.2,6.8,1.4
		c6.2,0.6,13.6,0.5,20.1-0.3c2.5-0.3,5-2.1,7.7-2.3c1.5-0.1,3.2,0.5,4.8,0.6c5.7,0.3,12.6,0.2,18.1-0.3c2.2-0.2,4.3-1.3,6.2-1.1
		c2.1,0.1,4.3,1.6,6.5,2c5.8,1.1,15.4,1.4,21.3,0.8c4.1-0.4,7.1-3.1,10.2-3.4c6.6-0.7,14.5,3.1,22.1,2.3c2.1-0.2,4.3-1.7,6.2-1.7
		c2,0,4.4,1.2,6.5,1.4c6,0.5,13.8,0.3,19.6-0.3c2.1-0.2,4.1-1.3,6-1.1c2.1,0.2,4,1.6,6,2c3.2,0.6,6.9,0.6,10.5,0.6
		c5.9,0,11.3,0.7,15.6-0.6c1.9-0.6,3.6-2.3,5.7-2.6c3.5-0.4,7.5,1,11.1,1.4c3.9,0.5,8.2,1.4,11.9,0.8c8.2-1.2,10.4-9.3,11.5-18.1
		l12.5,21.1c2.1,3.6,6.3,5.4,10.3,4.7l18.1-3.4c4.1-0.8,7.2-4,7.9-8.1l0.3-1.9c0.4,1.8,1.2,3.5,2.4,5c2.1,2.7,5.4,4.4,8.8,4.8
		l18.5,1.6c6.9,0.6,13-4.3,14-11.1c0,0,2.6-18.7,5.2-37.3l12.5,42.8c1.6,5.4,6.6,9.6,12.2,10.2l12.3,1.3c5.5,0.6,11.2-2.3,14-7.1
		c0,0,11-19.1,22-38.1l-3.1,35.6c0,0.4,0,0.7,0,1.1c0,6.5,5,12.1,11.5,12.8l22.2,2.3c3.4,0.4,6.8-0.7,9.4-2.8
		c2.7-2.2,4.3-5.3,4.6-8.7l12-134.7C653.6,39,652.6,35.7,650.4,33.1z M77.8,130.5L77.8,130.5c0,0.3,0,0.6,0,0.9c0,0.3,0,0.5,0,0.8
		c0,0.4-0.1,0.7-0.1,1.1c0,0.2,0,0.4,0,0.6c0,0.4-0.1,0.8-0.2,1.2c0,0.1,0,0.3-0.1,0.4c-0.1,0.5-0.2,1-0.3,1.5l0,0
		c-0.5,2-1.2,3.8-2.2,5.5c-0.2,0.4-0.5,0.7-0.7,1.1c-0.1,0.1-0.1,0.2-0.2,0.3c-0.2,0.3-0.4,0.5-0.6,0.8c-0.1,0.1-0.1,0.2-0.2,0.3
		c-0.3,0.3-0.5,0.7-0.8,1l-0.1,0.1c-0.2,0.3-0.5,0.6-0.7,0.8c-0.1,0.1-0.2,0.2-0.3,0.3c-0.2,0.2-0.5,0.5-0.7,0.7
		c-0.1,0.1-0.1,0.1-0.2,0.2c-0.3,0.3-0.6,0.6-0.9,0.8c-0.2,0.2-0.5,0.4-0.7,0.6c-0.1,0.1-0.3,0.2-0.4,0.3c-0.3,0.3-0.7,0.5-1,0.7
		c-0.1,0-0.1,0.1-0.2,0.1c-3.1,2.2-6.7,3.8-10.7,4.9c-1.4,0.4-2.9,0.7-4.3,1c-0.1,0-0.3,0-0.4,0.1c-0.3,0.1-0.7,0.1-1,0.2
		c-0.1,0-0.3,0-0.4,0.1c-0.9,0.1-1.8,0.2-2.7,0.3c-0.1,0-0.3,0-0.4,0c-0.3,0-0.7,0-1,0.1c-0.1,0-0.3,0-0.4,0c-0.5,0-0.9,0-1.4,0
		c-0.1,0-0.2,0-0.3,0c-0.4,0-0.7,0-1.1,0c-0.2,0-0.3,0-0.5,0c-0.1,0-0.2,0-0.3,0c-0.2,0-0.4,0-0.6,0c-0.2,0-0.3,0-0.5,0
		s-0.3,0-0.5,0c-0.1,0-0.3,0-0.4,0c-0.2,0-0.3,0-0.5,0s-0.4,0-0.6-0.1c-0.1,0-0.2,0-0.3,0s-0.3,0-0.4,0c-0.2,0-0.5-0.1-0.7-0.1
		c-0.1,0-0.1,0-0.2,0c-0.1,0-0.3,0-0.4-0.1c-0.3,0-0.6-0.1-0.8-0.1c0,0,0,0-0.1,0s-0.2,0-0.4-0.1c-0.3,0-0.6-0.1-0.9-0.2
		c-0.1,0-0.2,0-0.3-0.1c-0.3-0.1-0.6-0.1-0.9-0.2c-0.1,0-0.2,0-0.3-0.1c-0.3-0.1-0.6-0.1-1-0.2c-0.1,0-0.1,0-0.2-0.1
		c-0.3-0.1-0.7-0.2-1-0.3c-0.1,0-0.1,0-0.2,0c-0.4-0.1-0.7-0.2-1.1-0.3h-0.1c-0.4-0.1-0.7-0.2-1.1-0.4l0,0c-0.4-0.1-0.7-0.3-1.1-0.4
		l0,0c-1.1-0.4-2.2-0.9-3.2-1.4c-0.1,0-0.2-0.1-0.3-0.1c-1.4-0.7-2.7-1.6-4-2.5c-3.9-2.8-7.5-6.3-10.7-10.8l9.3-11.6
		c0.4-0.6,1.1-0.8,1.7-0.8s1.1,0.2,1.6,0.7c0.1,0.1,1.1,1.2,2.9,2.6c1.9,1.4,3.9,2.7,6,3.7c2.1,1.1,4.3,1.9,6.5,2.6
		c2.2,0.7,4.3,1,6.2,1s3.4-0.3,4.4-1c0.4-0.3,0.7-0.6,0.9-1c0.4-0.7,0.6-1.7,0.6-2.9l0,0c0-0.4-0.1-0.8-0.2-1.2l0,0v-0.1
		c-0.3-0.9-0.9-1.9-1.8-2.8c-0.2-0.2-0.4-0.4-0.6-0.6c-0.3-0.2-0.6-0.4-0.9-0.7c-0.8-0.6-1.7-1.3-2.7-1.9s-2-1.3-3.1-2
		c-0.4-0.2-0.8-0.5-1.2-0.7c-1.4-0.8-2.8-1.6-4.2-2.5c-1.1-0.6-2.1-1.3-3.2-1.9c-3.1-1.9-6-4-8.6-6.5l0,0c-0.4-0.4-0.8-0.7-1.1-1.1
		l0,0c-0.4-0.4-0.8-0.9-1.2-1.3c0-0.1-0.1-0.1-0.1-0.2c-0.8-0.9-1.5-1.9-2.2-2.9c-0.1-0.1-0.1-0.2-0.2-0.2c-0.3-0.5-0.7-1-1-1.5l0,0
		c-0.3-0.4-0.5-0.8-0.8-1.3l0,0c-0.2-0.3-0.3-0.7-0.5-1c-0.1-0.3-0.3-0.6-0.4-0.9l0,0c-0.5-1.2-0.9-2.5-1.2-3.8l0,0
		c-0.1-0.4-0.2-0.9-0.2-1.3l0,0c-0.1-0.4-0.1-0.9-0.2-1.3c0-0.1,0-0.2,0-0.3c0-0.4-0.1-0.7-0.1-1.1c0-0.5,0-1,0-1.5
		c0-4.1,0.8-7.7,2.4-10.8c1.6-3.1,3.7-5.7,6.4-7.8c2.7-2.1,5.7-3.7,9.2-4.8s7.2-1.6,11.1-1.6l0,0c7,0,13.2,1.3,18.8,3.8
		c5.5,2.5,10.8,6.3,15.8,11.3l0,0l0,0l0,0l-7.9,11.7l0,0c0,0.1-0.1,0.1-0.1,0.2c0,0,0,0,0,0.1c0,0,0,0.1-0.1,0.1l-0.1,0.1
		c0,0,0,0-0.1,0.1s-0.2,0.1-0.2,0.2H69l0,0c-0.1,0-0.2,0.1-0.3,0.1c0,0,0,0-0.1,0s-0.2,0.1-0.3,0.1h-0.1c-0.1,0-0.2,0-0.3,0l0,0
		c-0.1,0-0.2,0-0.3,0c0,0,0,0-0.1,0s-0.2-0.1-0.3-0.1l0,0c-0.1,0-0.2-0.1-0.3-0.1h-0.1c-0.1-0.1-0.2-0.1-0.3-0.2l0,0l0,0
		c-0.3-0.2-1.9-1.6-3.8-2.8c-0.1,0-0.1-0.1-0.2-0.1c-0.1-0.1-0.2-0.1-0.3-0.2c-0.4-0.3-0.8-0.5-1.2-0.7c-0.1,0-0.2-0.1-0.2-0.1h-0.1
		h-0.1c-0.4-0.2-0.7-0.4-1.1-0.6c-0.1,0-0.1-0.1-0.1-0.1c-0.1-0.1-0.3-0.1-0.4-0.2c-0.3-0.2-0.6-0.3-1-0.5c0,0,0,0-0.1,0
		c-0.5-0.3-1-0.5-1.6-0.8c-0.3-0.2-0.7-0.3-1-0.4c-0.5-0.2-1-0.4-1.5-0.6c-1.1-0.4-2.1-0.8-3.1-1.1c-0.5-0.1-1-0.2-1.4-0.3
		c-1.1-0.2-2-0.3-2.9-0.4c-0.1,0-0.2,0-0.3,0c-0.2,0-0.3,0-0.5,0l0,0h-0.1c0,0,0,0-0.1,0s-0.1,0-0.2,0h-0.1c-0.1,0-0.1,0-0.2,0l0,0
		h-0.1c-0.1,0-0.1,0-0.2,0c-0.1,0-0.1,0-0.2,0c-0.1,0-0.1,0-0.2,0.1c0,0,0,0-0.1,0s-0.1,0-0.2,0.1c-0.1,0-0.2,0.1-0.2,0.1
		c-0.1,0-0.1,0-0.2,0.1c-0.1,0-0.1,0.1-0.2,0.1l0,0c0,0,0,0-0.1,0h-0.1c-0.1,0-0.1,0.1-0.2,0.1l0,0l-0.1,0.1l0,0c0,0,0,0-0.1,0.1
		s-0.1,0.1-0.2,0.2l0,0c-0.1,0.1-0.2,0.3-0.3,0.4l0,0l0,0c-0.1,0.1-0.1,0.2-0.2,0.3c0,0,0,0,0,0.1c-0.1,0.1-0.1,0.2-0.2,0.4
		c-0.2,0.5-0.3,1.1-0.3,1.8c0,0.9,0.3,1.7,0.8,2.5c0.4,0.6,1,1.2,1.8,1.8c1.8,1.3,4,2.7,6.7,4.1c2.9,1.5,5.8,3.1,8.7,4.8
		c3.1,1.8,6,3.9,8.7,6.4c2.7,2.5,5,5.5,6.7,8.9C76.9,121.6,77.8,125.7,77.8,130.5L77.8,130.5z M130.7,117.9c-0.1,0-0.2,0-0.3,0
		s-0.3,0-0.4,0l0,0c-0.1,0-0.3,0-0.4,0h-0.1c-0.1,0-0.2,0-0.3-0.1h-0.1c-0.1,0-0.2-0.1-0.3-0.1h-0.1c-0.1,0-0.1-0.1-0.1-0.1
		c-0.1-0.1-0.2-0.1-0.3-0.2l-0.1-0.1c-0.1-0.1-0.2-0.1-0.2-0.2l-0.1-0.1c-0.1-0.1-0.1-0.2-0.2-0.2l-0.1-0.1
		c-0.1-0.1-0.2-0.3-0.2-0.4l0,0c0,0-0.1-0.2-0.2-0.4l0,0c0-0.1-0.1-0.2-0.2-0.3l0,0c-0.1-0.1-0.1-0.2-0.2-0.3c0,0,0,0,0-0.1
		c-0.1-0.1-0.2-0.2-0.2-0.4c0,0,0,0,0-0.1c-0.1-0.1-0.2-0.3-0.3-0.4l0,0c-0.1-0.2-0.2-0.3-0.4-0.5c0,0,0-0.1-0.1-0.1
		c-0.1-0.2-0.3-0.3-0.4-0.5c0,0,0-0.1-0.1-0.1c-0.2-0.2-0.3-0.3-0.5-0.5c-1.8-1.8-4.5-2.7-8.2-2.7c-1.2,0-2.5,0.3-3.7,0.8l0,0
		c-0.3,0.1-0.6,0.3-0.8,0.4c-0.4,0.2-0.7,0.4-1,0.7c-0.3,0.2-0.5,0.4-0.7,0.6c-0.1,0-0.1,0.1-0.2,0.2c-0.2,0.2-0.4,0.4-0.6,0.6l0,0
		c-1,1.1-1.8,2.4-2.5,4s-1,3.5-1,5.8l0,0c0,0.9,0.1,1.8,0.2,2.6c0.4,3,1.4,5.5,3,7.5c2.1,2.6,4.9,3.8,8.3,3.8c1,0,2-0.2,3.1-0.7
		s2.2-1.1,3.3-1.9c1.1-0.8,2.1-1.8,2.9-2.9c0.9-1.1,1.4-2.4,1.7-3.7l15.3,4.3c1.1,0.3,1.8,1.3,1.8,2.4c0,0.1,0,0.2,0,0.3v0.1
		c0,0.1,0,0.2-0.1,0.3l0,0c0,0.1-0.4,1.4-1.1,3.1c-0.1,0.1-0.1,0.3-0.2,0.4c-0.2,0.4-0.3,0.9-0.5,1.3v0.1c-0.1,0.2-0.2,0.4-0.3,0.6
		c-0.1,0.1-0.1,0.3-0.2,0.4c-0.1,0.2-0.2,0.4-0.3,0.7l0,0c-0.1,0.2-0.2,0.3-0.3,0.5c-0.3,0.5-0.5,1-0.8,1.4c-0.2,0.4-0.5,0.7-0.7,1
		c-0.1,0.1-0.2,0.2-0.2,0.3c-0.2,0.2-0.3,0.5-0.5,0.7c-0.1,0.1-0.2,0.2-0.3,0.3c-0.2,0.2-0.3,0.4-0.5,0.6c-0.1,0.1-0.2,0.2-0.3,0.3
		c-0.2,0.2-0.4,0.5-0.6,0.7c-0.1,0.1-0.1,0.1-0.2,0.2c-0.3,0.3-0.5,0.6-0.8,0.9c-0.1,0.1-0.1,0.1-0.2,0.2c-0.2,0.2-0.4,0.4-0.7,0.6
		c-0.1,0.1-0.2,0.2-0.3,0.3c-0.2,0.2-0.4,0.4-0.6,0.5c-0.1,0.1-0.2,0.1-0.2,0.2c-0.1,0.1-0.3,0.2-0.4,0.3c-0.1,0.1-0.3,0.2-0.4,0.3
		l0,0l0,0l0,0c-0.3,0.3-0.7,0.5-1,0.8c-0.1,0-0.1,0.1-0.2,0.1c-0.3,0.2-0.6,0.4-0.9,0.6h-0.1c-0.4,0.2-0.7,0.4-1.1,0.6l0,0
		c-0.4,0.2-0.8,0.4-1.2,0.6l0,0c-0.3,0.2-0.7,0.3-1,0.5l0,0c-0.3,0.1-0.7,0.3-1,0.4c-0.1,0-0.2,0.1-0.3,0.1
		c-0.3,0.1-0.5,0.2-0.8,0.3c-0.4,0.1-0.7,0.3-1.1,0.4c-3.1,1-6.4,1.5-9.7,1.5c-0.7,0-1.4,0-2,0c-0.5,0-1-0.1-1.5-0.1
		c-0.1,0-0.3,0-0.4,0c-1.3-0.1-2.5-0.2-3.6-0.4l0,0c-1.3-0.2-2.6-0.5-3.8-0.8h-0.1c-0.5-0.2-1.1-0.3-1.6-0.5c-0.1,0-0.2-0.1-0.2-0.1
		c-0.6-0.2-1.1-0.4-1.7-0.7l0,0c-0.5-0.2-1-0.4-1.4-0.7c-0.2-0.1-0.3-0.2-0.5-0.3c-0.3-0.2-0.6-0.3-0.9-0.5
		c-0.2-0.1-0.4-0.2-0.5-0.3c-0.3-0.2-0.5-0.3-0.8-0.5c-0.2-0.1-0.4-0.2-0.5-0.3c-0.3-0.2-0.5-0.3-0.8-0.5c-0.2-0.1-0.3-0.2-0.5-0.4
		s-0.5-0.4-0.7-0.5s-0.3-0.2-0.5-0.4s-0.5-0.4-0.7-0.6c-0.1-0.1-0.3-0.2-0.4-0.4c-0.2-0.2-0.5-0.4-0.7-0.7c-0.1-0.1-0.2-0.2-0.3-0.3
		c-0.3-0.3-0.7-0.7-1-1.1c-0.1-0.1-0.2-0.3-0.3-0.4c-0.8-0.9-1.6-1.9-2.3-3c-0.3-0.4-0.5-0.8-0.8-1.2c-0.1-0.1-0.1-0.2-0.2-0.3
		c-1-1.8-1.8-3.6-2.5-5.7c-0.5-1.5-0.9-3-1.2-4.6v-0.1c-0.1-0.5-0.2-1-0.3-1.5c0-0.1,0-0.3-0.1-0.4c-0.1-0.4-0.1-0.8-0.2-1.2
		c0-0.2,0-0.4-0.1-0.5c0-0.4-0.1-0.7-0.1-1.1c0-0.2,0-0.4,0-0.7c0-0.3,0-0.7-0.1-1c0-0.2,0-0.5,0-0.7c0-0.3,0-0.6,0-0.9
		c0-5.1,0.7-9.8,2.2-13.9c1.4-4.1,3.5-7.7,6.3-10.6s6.2-5.2,10.3-6.8c4.1-1.6,8.7-2.4,14-2.4l0,0c8.5,0,15.3,2.2,20.4,6.5
		c5,4.4,8.4,10.1,10,17.2L130.7,117.9z M198.8,158.4c-0.1,0-0.1,0-0.2,0c0,0,0,0-0.1,0c0,0,0,0-0.1,0s-0.1,0-0.1,0h-0.1h-0.1H198
		h-0.1h-0.1h-0.1l0,0h-0.1c-0.1,0-0.1-0.1-0.2-0.1c0,0-0.1,0-0.1-0.1c-0.1,0-0.1-0.1-0.2-0.1c0,0,0,0-0.1-0.1l0,0
		c-0.1-0.1-0.1-0.1-0.2-0.2c0,0,0,0,0-0.1c-0.1-0.1-0.1-0.1-0.2-0.2c0,0,0,0,0-0.1s-0.1-0.1-0.1-0.2c0,0,0,0,0-0.1s-0.1-0.2-0.1-0.3
		l0,0c0-0.1,0-0.2-0.1-0.3v-0.1c0-0.1,0-0.2,0-0.3l0,0c0-0.4,0.2-1.3,0.2-2c0,0,0,0,0-0.1l0,0v-0.1l0,0v-0.1v-0.1l0,0v-0.1v-0.1
		v-0.1v-0.1c0,0,0,0,0-0.1l0,0v-0.1l0,0l0,0c0,0,0,0-0.1-0.1l0,0c0,0,0,0-0.1,0c0,0,0,0-0.1,0l0,0c0,0,0,0-0.1,0s-0.1,0-0.2,0
		c0,0,0,0-0.1,0h-0.1l0,0h-0.1c0,0,0,0-0.1,0h-0.1c0,0,0,0-0.1,0h-0.1c0,0,0,0-0.1,0c0,0-0.1,0-0.1,0.1c0,0,0,0-0.1,0
		c0,0-0.1,0-0.1,0.1c0,0,0,0-0.1,0c0,0-0.1,0-0.1,0.1c0,0,0,0-0.1,0c0,0-0.1,0-0.1,0.1l0,0l0,0l0,0c-0.1,0.1-0.1,0.1-0.2,0.2l0,0
		c-0.1,0.1-0.1,0.1-0.2,0.2l-0.1,0.1c0,0,0,0-0.1,0.1c-0.1,0-0.1,0.1-0.1,0.1l0,0c-0.1,0-0.1,0.1-0.2,0.1c-0.6,0.4-1.1,0.8-1.7,1.1
		c-0.7,0.4-1.5,0.9-2.3,1.2c-0.8,0.4-1.6,0.7-2.4,1c-0.7,0.2-1.4,0.5-2.1,0.6c-0.2,0.1-0.4,0.1-0.7,0.1c-0.6,0.1-1.1,0.2-1.7,0.3
		c-0.7,0.1-1.5,0.1-2.2,0.1c-2.7,0-5.1-0.2-7.4-0.6c-0.5-0.1-1-0.2-1.5-0.3c-0.3-0.1-0.7-0.1-1-0.2c-0.1,0-0.3-0.1-0.4-0.1
		c-0.4-0.1-0.8-0.2-1.2-0.3c0,0,0,0-0.1,0c-0.4-0.1-0.8-0.3-1.2-0.4h-0.1c-0.1-0.1-0.3-0.1-0.4-0.1c-0.3-0.1-0.7-0.3-1-0.4
		c-0.1,0-0.2-0.1-0.3-0.1c-0.1-0.1-0.2-0.1-0.3-0.2c-0.3-0.1-0.6-0.3-0.9-0.4c-0.1-0.1-0.2-0.1-0.3-0.2c-0.3-0.2-0.6-0.3-0.9-0.5
		c-0.1,0-0.2-0.1-0.3-0.1c-0.4-0.2-0.7-0.4-1.1-0.7h-0.1c-0.3-0.2-0.7-0.5-1-0.7c-0.1-0.1-0.2-0.2-0.3-0.2c-0.2-0.2-0.5-0.4-0.7-0.5
		c-0.1-0.1-0.2-0.2-0.3-0.3c-0.2-0.2-0.4-0.4-0.6-0.6c-0.1-0.1-0.2-0.2-0.3-0.3c-0.3-0.3-0.6-0.6-0.8-0.9l0,0
		c-1.1-1.3-2.1-2.6-3-4.1c-0.9-1.6-1.7-3.4-2.3-5.3c-0.1-0.4-0.2-0.8-0.3-1.2s-0.2-0.8-0.3-1.2l0,0c-0.1-0.4-0.2-0.7-0.2-1.1
		c0-0.1,0-0.1,0-0.2c-0.1-0.3-0.1-0.7-0.2-1.1v-0.1c-0.1-0.6-0.2-1.3-0.3-2c0-0.1,0-0.3,0-0.4c0-0.2,0-0.5-0.1-0.8
		c0-0.3,0-0.5-0.1-0.8c0-0.2,0-0.4,0-0.7c0-0.3,0-0.6,0-1c0-0.2,0-0.3,0-0.5c0-0.5,0-1,0-1.6c0-3.3,0.1-6.9,0.5-11.1
		c0.3-3.9,0.7-7.8,1.1-11.7c0.4-4.3,1-8.6,1.6-12.9l22.3-0.2c1.3,0,2.2,0.9,2.1,2.1c0,0.1,0,0.2,0,0.3l0,0c0,0.3-0.9,5.3-1.4,9.4
		c0,0.3-0.1,0.6-0.1,0.8c0,0.1,0,0.2,0,0.2c-0.3,2.5-0.6,5.3-0.9,8.1c0,0.1,0,0.1,0,0.2c-0.1,0.8-0.2,1.6-0.3,2.4
		c-0.4,4.4-0.7,8.5-0.7,13l0,0c0,0.4,0,0.8,0.1,1.2c0.2,2,0.9,3.7,2.2,5.2c1.5,1.8,3.7,2.6,6.7,2.6c2.8,0,5.2-0.9,7.2-2.6
		c1.9-1.7,2.9-4,3-6.8c0-0.1,0-0.2,0-0.3l0,0c0-0.2,0-0.5,0-0.7c0-0.3,0-0.5,0-0.8c0-0.1,0-0.1,0-0.2c0-0.2,0-0.4,0-0.6
		c0-0.5,0-1,0-1.4c0-0.1,0-0.2,0-0.3c0-0.5,0-1,0-1.5l0,0c0-0.6,0-1.3,0-1.9c0-1,0-2,0-2.9c0-1.9-0.1-3.8-0.1-5.6
		c0-0.9-0.1-1.8-0.1-2.7l0,0v-0.1c0-0.4,0-0.8-0.1-1.1c-0.1-2.4-0.3-4.9-0.5-7.5c-0.2-3-0.5-6.6-0.7-10.7l0,0l21.4-0.5
		c1.4,0,2.6,1.1,2.6,2.4c0,0.5,0.3,9.8,0.5,15.3s0.4,11,0.7,16.3c0.2,5.3,0.4,10.7,0.7,16.2c0.2,5.5,0.4,11.4,0.6,17.7l0,0
		l-20.5,0.5l0,0C198.9,158.4,198.8,158.4,198.8,158.4z M318.5,128.5c0,0.4,0,0.8,0,1.2c0,0.6,0,1.1-0.1,1.7c0,0.3,0,0.6,0,0.9
		c0,0.8-0.1,1.7-0.2,2.6l0,0c-0.1,0.9-0.1,1.7-0.2,2.6c-0.1,1.4-0.3,2.7-0.5,4.1c-0.6,4.3-1.2,8.6-2,12.8c-0.1,0.9-0.3,1.7-0.4,2.6
		l0,0l-21.5-2.6l0,0l0,0c-0.1,0-0.2,0-0.3-0.1h-0.1c-0.1,0-0.2-0.1-0.3-0.1c0,0-0.1,0-0.1-0.1l-0.1-0.1c0,0-0.1,0-0.1-0.1
		c0,0-0.1,0-0.1-0.1l0,0c0,0,0,0-0.1,0c0,0,0,0-0.1,0s-0.1-0.1-0.1-0.1l0,0l0,0c0,0,0,0,0-0.1s-0.1-0.1-0.1-0.2c0,0,0-0.1-0.1-0.1
		c0-0.1-0.1-0.1-0.1-0.2c0,0,0,0,0-0.1c0,0,0,0,0-0.1c0,0,0,0,0-0.1v-0.1c0,0,0,0,0-0.1s0-0.1,0-0.2l0,0l0,0v-0.1c0-0.1,0-0.1,0-0.2
		c0-0.2,0-0.4,0.1-0.6c0.1-0.6,2.6-11.2,3.4-16.4c0.6-3.8,1-7.1,1.2-9.9c0.1-1,0.1-1.9,0.1-2.8l0,0l0,0c0-0.3,0-0.7,0-1
		c0-0.1,0-0.3,0-0.4c0-0.2,0-0.4,0-0.6c0-0.7-0.1-1.4-0.2-2c0,0,0,0,0-0.1c-0.1-0.6-0.2-1.1-0.4-1.6c0,0,0,0,0-0.1
		c-0.2-0.5-0.3-0.9-0.6-1.3c-0.1-0.1-0.1-0.3-0.2-0.4l0,0c-0.1-0.2-0.2-0.3-0.4-0.5c0,0,0-0.1-0.1-0.1c0,0,0,0-0.1-0.1
		s-0.2-0.2-0.3-0.3l-0.1-0.1c-0.1-0.1-0.1-0.1-0.2-0.2l0,0c-0.1-0.1-0.2-0.2-0.3-0.2c-0.1-0.1-0.1-0.1-0.2-0.1
		c-0.1-0.1-0.2-0.1-0.3-0.2l0,0c0,0,0,0-0.1,0s-0.1-0.1-0.2-0.1s-0.2-0.1-0.2-0.1c-0.1,0-0.2-0.1-0.3-0.1c-0.1,0-0.2,0-0.2-0.1l0,0
		h-0.1c-0.1,0-0.2,0-0.3,0c-0.1,0-0.1,0-0.2,0c-0.2,0-0.4,0-0.7,0c-0.4,0-0.8,0-1.1,0.1c0,0,0,0-0.1,0l0,0c-0.1,0-0.2,0.1-0.3,0.1
		h-0.1c0,0,0,0-0.1,0s-0.2,0.1-0.3,0.1c0,0-0.1,0-0.1,0.1c0,0,0,0-0.1,0s-0.1,0.1-0.2,0.1c0,0-0.1,0-0.1,0.1h-0.1
		c-0.1,0-0.1,0.1-0.2,0.1l0,0c0,0-0.1,0-0.1,0.1c0,0-0.1,0-0.1,0.1l-0.1,0.1l-0.1,0.1l0,0l0,0l0,0l0,0c0,0,0,0.1-0.1,0.1
		s-0.1,0.1-0.2,0.2c0,0.1-0.1,0.1-0.2,0.2c0,0,0,0-0.1,0.1l0,0l0,0c-0.1,0.1-0.2,0.2-0.3,0.3c0,0.1-0.1,0.1-0.1,0.2
		c0,0-0.1,0.1-0.1,0.2c0,0,0,0.1-0.1,0.1l0,0c0,0.1-0.1,0.1-0.1,0.2v0.1c0,0,0,0.1-0.1,0.1v0.1c0,0.1-0.1,0.2-0.1,0.2s0,0,0,0.1v0.1
		c0,0.1-0.1,0.1-0.1,0.2s-0.1,0.2-0.1,0.3c0,0.1-0.1,0.3-0.1,0.4s-0.1,0.2-0.1,0.3c0,0.2-0.1,0.3-0.1,0.5c0,0.1,0,0.1-0.1,0.2
		c-0.1,0.3-0.1,0.5-0.2,0.8c-0.7,4-1,10.1-1,18.3c0,0,0,0.1,0,0.2c0,0.5,0,1.2,0,1.9c0,0.7,0,1.5,0.1,2.3c0,1.8,0.1,3.7,0.1,5.6
		c0,2,0.1,3.9,0.3,5.8c0.1,1.9,0.3,3.5,0.5,4.7l-21.4-0.5l0,0l0,0c-0.1,0-0.2,0-0.3,0c0,0,0,0-0.1,0s-0.1,0-0.2,0l0,0l0,0
		c0,0,0,0-0.1,0s-0.1,0-0.2-0.1h-0.1H263l0,0l0,0c0,0,0,0-0.1,0s-0.2-0.1-0.2-0.1s0,0-0.1,0l0,0l0,0c-0.1-0.1-0.1-0.1-0.2-0.2l0,0
		l-0.1-0.1l0,0c0,0,0-0.1-0.1-0.1c0,0,0,0-0.1-0.1c0-0.1-0.1-0.1-0.1-0.2c0,0,0,0,0-0.1c-0.1-0.1-0.1-0.2-0.1-0.3c0,0,0-0.1-0.1-0.1
		c0-0.1,0-0.1-0.1-0.2v-0.1v-0.1c0,0,0,0,0-0.1c0,0,0,0,0-0.1V155c0-0.1,0-0.1,0-0.2c0-0.1,0-0.1,0-0.2c0-0.1,0.1-2,0.2-3.9
		c0.1-2,0.2-3.9,0.2-5.9c0-2.1,0.1-4.6,0.1-7.4v-10.9c0-0.6,0-1.1,0-1.6v-0.1c0-1.2-0.1-2.3-0.2-3.4c-0.1-1.5-0.3-2.8-0.7-4
		c0-0.1-0.1-0.3-0.1-0.4c-0.4-1.3-0.9-2.3-1.5-3.1c-0.1-0.1-0.2-0.2-0.2-0.3c0,0-0.1,0-0.1-0.1c-0.1-0.1-0.1-0.1-0.2-0.2l-0.1-0.1
		c-0.1,0-0.1-0.1-0.2-0.1c0,0-0.1,0-0.1-0.1h-0.1c0,0,0,0-0.1,0l0,0l0,0l0,0l0,0c-0.1,0-0.1-0.1-0.2-0.1c0,0,0,0-0.1,0l0,0
		c0,0,0,0-0.1,0s-0.1,0-0.2-0.1c0,0,0,0-0.1,0l0,0l0,0c-0.1,0-0.1,0-0.2,0c0,0,0,0-0.1,0c0,0,0,0-0.1,0l0,0c-0.1,0-0.1,0-0.2,0h-0.1
		c0,0,0,0-0.1,0c-0.3,0-0.5,0-0.7,0l0,0c-0.1,0-0.1,0-0.2,0l0,0c-0.2,0-0.3,0-0.5,0.1l0,0c-0.1,0-0.1,0-0.2,0l0,0
		c-0.2,0-0.3,0.1-0.5,0.1h-0.1l0,0c-0.1,0-0.1,0-0.2,0.1c-0.1,0-0.1,0-0.2,0.1h-0.1c0,0-0.1,0-0.1,0.1c0,0,0,0-0.1,0l0,0
		c-0.1,0-0.2,0.1-0.3,0.1c0,0-0.1,0-0.1,0.1c-0.1,0.1-0.2,0.1-0.3,0.2c0,0-0.1,0-0.1,0.1l0,0c-0.1,0.1-0.2,0.2-0.2,0.3l-0.1,0.1
		c-0.1,0.1-0.2,0.3-0.3,0.4l0,0c-0.6,1.2-0.9,2.5-0.9,3.7l0,0l0,0l-0.7,35.2l0,0c0,0.1,0,0.2,0,0.3v0.1c0,0.1,0,0.1,0,0.2v0.1
		c0,0.1,0,0.1,0,0.2v0.1c0,0,0,0.1-0.1,0.1v0.1c0,0,0,0.1-0.1,0.1c0,0,0,0.1-0.1,0.1l-0.1,0.1c0,0,0,0.1-0.1,0.1l-0.1,0.1l-0.1,0.1
		l-0.1,0.1c0,0,0,0-0.1,0.1s-0.2,0.2-0.3,0.2c0,0,0,0-0.1,0c-0.1,0.1-0.2,0.1-0.4,0.2c0,0,0,0-0.1,0s-0.1,0-0.2,0.1
		c-0.1,0-0.2,0-0.3,0.1c-0.1,0-0.3,0-0.4,0l0,0l-18.2,0.3l0,0c-0.1,0-0.2,0-0.3,0h-0.1c-0.1,0-0.1,0-0.2,0h-0.1c-0.1,0-0.1,0-0.2,0
		h-0.1c-0.1,0-0.1,0-0.2-0.1H229c-0.1,0-0.2-0.1-0.3-0.2l0,0c-0.1-0.1-0.2-0.1-0.2-0.2c0,0,0,0-0.1-0.1c0,0,0,0-0.1-0.1
		s-0.1-0.1-0.1-0.2c-0.1-0.1-0.1-0.2-0.2-0.2c0,0,0,0,0-0.1s-0.1-0.1-0.1-0.2c0,0,0,0,0-0.1s-0.1-0.2-0.1-0.3c0,0,0,0,0-0.1
		s0-0.2-0.1-0.2v-0.1c0-0.1,0-0.2,0-0.3l0,0c0-0.5,0-10.1,0.1-15.6c0-1.8,0-3.6,0-5.4c0-0.8,0-1.6,0-2.4v-0.2c0-0.3,0-0.5,0-0.8
		c0-0.4,0-0.7,0-1.1c0-0.2,0-0.4,0-0.6c0-1.7,0-3.5,0-5.1v-0.1c0-2.4-0.1-4.8-0.1-7.1c0-0.1,0-0.1,0-0.2c0-2.4-0.1-4.7-0.2-7v-0.1
		c-0.1-4.8-0.3-9.8-0.6-15l18.8-0.5c1.4,0,2.6,1.1,2.8,2.4l0.1,1.2l0.2,1.6c0,0.5,0,1.3,0.6,1.3c0.7,0,0.9-0.5,1.3-0.8
		c0.9-0.7,1.8-1.6,2.8-2.3c1.2-0.8,2.5-1.5,4-2c1.5-0.5,3-0.8,4.7-0.8c3.3,0,6.1,0.7,8.2,2.2c1.2,0.9,2.4,1.9,3.2,3.1
		c0.3,0.4,0.5,0.8,1.1,0.9c0.2,0,0.4,0,0.5-0.1c0.7-0.1,1.1-0.8,1.5-1.2c0.6-0.6,1.3-1.1,1.9-1.6c0.8-0.5,1.5-1.1,2.3-1.5
		c3-1.8,6.6-2.7,10.8-2.7l0,0c5.6,0,10.1,0.9,13.6,2.6s6.2,4.1,8.2,7.1s3.4,6.7,4.1,10.9c0.7,4.2,1.1,8.9,1.1,13.9
		C318.5,127.6,318.5,128.1,318.5,128.5z M417,127.2L417,127.2L417,127.2c0,4.7-0.3,9.5-1,14.5c0,0.3-0.1,0.6-0.1,0.9
		c-0.2,1.1-0.3,2.3-0.5,3.4c-0.1,0.8-0.2,1.5-0.3,2.3c-0.1,0.9-0.2,1.9-0.3,2.8c0,0.5-0.1,1.1-0.2,1.6c0,0.1,0,0.1,0,0.2
		c-0.1,0.5-0.1,1-0.2,1.5c0,0.3-0.1,0.6-0.1,0.9c-0.1,0.5-0.2,1.1-0.5,1.4c0,0.1-0.1,0.1-0.2,0.1c0,0-0.1,0-0.1,0.1
		c0,0-0.1,0-0.1,0.1c0,0,0,0-0.1,0s-0.1,0-0.2,0c0,0,0,0-0.1,0s-0.2,0-0.2,0c-0.4,0-0.9-0.1-1.2-0.2c-1.1-0.1-2.2-0.4-3.4-0.5
		c-1.9-0.2-3.7-0.4-5.6-0.6c-2.9-0.4-5.9-0.7-8.8-1.1l-1.8-0.2l0,0c-0.1,0-0.2,0-0.3-0.1h-0.1c-0.1,0-0.2-0.1-0.3-0.1
		c0,0-0.1,0-0.1-0.1l-0.1-0.1c0,0-0.1,0-0.1-0.1c0,0-0.1,0-0.1-0.1l0,0c0,0,0,0-0.1,0c0,0,0,0-0.1,0s-0.1-0.1-0.1-0.1l0,0l0,0
		c0,0,0,0,0-0.1s-0.1-0.1-0.1-0.2c0,0,0-0.1-0.1-0.1c0-0.1-0.1-0.1-0.1-0.2c0,0,0,0,0-0.1c0,0,0,0,0-0.1c0,0,0,0,0-0.1v-0.1
		c0,0,0,0,0-0.1v-0.1l0,0l0,0v-0.1c0-0.1,0-0.1,0-0.2c0-0.2,0-0.4,0.1-0.6c0.1-0.6,2.6-11.2,3.4-16.4c0.6-3.8,1-7.1,1.2-9.9
		c0.1-1,0.1-1.9,0.1-2.8l0,0l0,0c0-0.4,0-0.7,0-1.1c0-0.1,0-0.2,0-0.2c0-0.3,0-0.7-0.1-1c0-0.1,0-0.1,0-0.2c0-0.3-0.1-0.6-0.1-0.8
		c0-0.1,0-0.1,0-0.2c0-0.3-0.1-0.6-0.1-0.9c0-0.1,0-0.1,0-0.2c-0.1-0.3-0.1-0.5-0.2-0.8c-0.2-0.8-0.5-1.6-0.9-2.1l0,0l0,0
		c-0.1-0.2-0.2-0.3-0.4-0.5l0,0l0,0c0-0.1-0.1-0.1-0.2-0.2s-0.2-0.2-0.3-0.3c-0.1-0.1-0.1-0.1-0.2-0.2s-0.2-0.2-0.3-0.2
		c-0.1-0.1-0.2-0.1-0.2-0.1c-0.1-0.1-0.2-0.1-0.3-0.2c0,0,0,0-0.1,0l0,0c-0.1,0-0.2-0.1-0.2-0.1c-0.1,0-0.1-0.1-0.2-0.1
		s-0.2-0.1-0.3-0.1c-0.1,0-0.1,0-0.2-0.1h-0.1c-0.1,0-0.3,0-0.4-0.1h-0.1h-0.1c-0.2,0-0.4,0-0.5,0l0,0l0,0c-0.2,0-0.3,0-0.5,0H389
		c-0.1,0-0.1,0-0.2,0s-0.1,0-0.2,0s-0.1,0-0.2,0c0,0,0,0-0.1,0s-0.1,0-0.2,0c0,0,0,0-0.1,0s-0.1,0-0.2,0.1c-0.1,0-0.2,0.1-0.2,0.1
		h-0.1h-0.1c-0.1,0-0.2,0.1-0.3,0.1c0,0-0.1,0-0.1,0.1c-0.1,0.1-0.2,0.1-0.3,0.2c0,0-0.1,0-0.1,0.1c-0.1,0.1-0.2,0.2-0.4,0.3l0,0
		c-0.1,0.1-0.3,0.2-0.4,0.4l-0.1,0.1c-0.1,0.1-0.2,0.2-0.2,0.3c0,0.1-0.1,0.1-0.1,0.2c-0.1,0.1-0.1,0.2-0.2,0.3
		c0,0.1-0.1,0.1-0.1,0.2c-0.1,0.1-0.1,0.2-0.2,0.3c0,0.1-0.1,0.2-0.1,0.2c-0.1,0.1-0.1,0.2-0.1,0.4c0,0.1-0.1,0.2-0.1,0.3
		c0,0.1-0.1,0.3-0.1,0.4s-0.1,0.2-0.1,0.3c0,0.2-0.1,0.3-0.1,0.5c0,0.1,0,0.2-0.1,0.2c-0.1,0.3-0.1,0.5-0.2,0.8l0,0
		c0,0.3-0.1,0.6-0.1,0.8c0,0.1,0,0.3-0.1,0.4c0,0.1,0,0.1,0,0.2s0,0.2,0,0.3c0,0.2,0,0.4-0.1,0.6c0,0.2,0,0.4-0.1,0.6
		c0,0.2-0.1,0.5-0.1,0.7c0,0.3-0.1,0.6-0.1,0.9c0,0.2,0,0.4,0,0.5c0,0.2,0,0.5-0.1,0.7c0,0.2,0,0.4,0,0.6c0,0.3,0,0.5-0.1,0.8
		c0,0.2,0,0.4,0,0.6c0,0.3,0,0.6,0,0.9c0,0.2,0,0.3,0,0.5c0,0.5,0,1-0.1,1.5c-0.1,2.4-0.1,5-0.1,7.8c0,0.6,0,1.3,0,2
		c0,0.7,0,1.5,0,2.3c0,1.8,0.1,3.7,0.1,5.6c0,2,0.1,3.9,0.3,5.8c0.1,1,0.3,2.1,0.3,3.1c0,0.2,0,0.5,0,0.7c0,0,0,0,0,0.1s0,0.1,0,0.2
		l0,0c0,0.1,0,0.1-0.1,0.2l0,0c0,0.1-0.1,0.1-0.1,0.2l0,0c0,0-0.1,0.1-0.2,0.1l0,0l0,0c-0.1,0-0.1,0.1-0.2,0.1l0,0H383
		c-0.3,0.1-0.6,0.1-1,0.1c-0.5,0-1,0-1.5-0.1c-0.3,0-0.5,0-0.8,0c-1.7,0-3.4-0.1-5.2-0.1c-0.5,0-1.1,0-1.6,0c-1.3,0-2.6-0.1-3.9-0.1
		l0,0l0,0h-1.9l-2.6-0.1h-2.1c0,0,0,0-0.1,0s-0.1,0-0.2,0H362h-0.1l0,0l0,0h-0.1h-0.1h-0.1l0,0l0,0l0,0h-0.1c-0.1,0-0.1-0.1-0.2-0.1
		c0,0-0.1,0-0.1-0.1c-0.1-0.1-0.2-0.1-0.2-0.2l0,0c0,0,0,0-0.1-0.1l0,0c0,0,0-0.1-0.1-0.1c0,0,0,0-0.1-0.1c0-0.1-0.1-0.1-0.1-0.2
		c0,0,0,0-0.1-0.1s-0.1-0.2-0.1-0.3c0,0,0-0.1-0.1-0.1c0-0.1,0-0.1-0.1-0.2v-0.1v-0.1c0,0,0,0,0-0.1v-0.1v-0.1c0-0.1,0-0.1,0-0.2
		c0-0.1,0-0.1,0-0.2c0-0.1,0.1-2,0.2-3.9c0.1-2,0.2-3.9,0.2-5.9c0-2.1,0.1-4.6,0.1-7.4v-5.8v-5.1c0-1.8-0.1-3.5-0.2-5.2
		c-0.1-0.7-0.1-1.3-0.2-1.9c-0.1-0.9-0.3-1.7-0.6-2.5c-0.4-1.3-0.9-2.3-1.5-3.1l0,0c-0.1-0.1-0.2-0.2-0.2-0.3c0,0,0,0-0.1,0l0,0
		c-0.1-0.1-0.1-0.1-0.2-0.2c0,0-0.1,0-0.1-0.1c-0.1,0-0.1-0.1-0.2-0.1c0,0-0.1,0-0.1-0.1c-0.1,0-0.1-0.1-0.2-0.1l0,0
		c-0.1,0-0.1,0-0.2-0.1c-0.1,0-0.1,0-0.2-0.1c-0.1,0-0.1,0-0.2-0.1c0,0,0,0-0.1,0h-0.1c-0.1,0-0.1,0-0.2,0H356l0,0l0,0
		c-0.1,0-0.1,0-0.2,0s-0.1,0-0.2,0l0,0c-0.3,0-0.5,0-0.8,0c-0.1,0-0.1,0-0.2,0s-0.2,0-0.2,0c-0.1,0-0.2,0-0.2,0l0,0
		c-0.1,0-0.1,0-0.2,0s-0.2,0-0.3,0.1c0,0,0,0-0.1,0s-0.2,0-0.2,0.1c0,0,0,0-0.1,0s-0.1,0-0.2,0.1c-0.1,0-0.2,0.1-0.3,0.1
		c0,0-0.1,0-0.1,0.1c-0.1,0.1-0.2,0.1-0.3,0.2c0,0-0.1,0-0.1,0.1c-0.1,0.1-0.3,0.2-0.4,0.3l0,0c-0.1,0.1-0.1,0.2-0.2,0.2
		c0,0.1-0.1,0.1-0.1,0.1c-0.1,0.1-0.2,0.3-0.2,0.4l0,0c-0.6,1.2-0.9,2.4-0.9,3.6l0,0l-0.7,35.2l0,0c0,0.1,0,0.2,0,0.3c0,0,0,0,0,0.1
		s0,0.1,0,0.2v0.1c0,0.1,0,0.1,0,0.2v0.1c0,0.1,0,0.1-0.1,0.2v0.1c0,0,0,0.1-0.1,0.1c0,0,0,0.1-0.1,0.1l-0.1,0.1c0,0,0,0.1-0.1,0.1
		l-0.1,0.1c0,0,0,0-0.1,0.1l-0.1,0.1c0,0,0,0-0.1,0.1s-0.2,0.2-0.3,0.2l0,0c-0.1,0.1-0.2,0.1-0.4,0.2l0,0c-0.1,0.1-0.3,0.1-0.4,0.1
		l0,0c-0.1,0-0.1,0-0.2,0s-0.2,0-0.3,0l0,0l-4,0.1l-14.2,0.2c-0.1,0-0.3,0-0.4,0s-0.1,0-0.2,0h-0.1c-0.1,0-0.1,0-0.2,0h-0.1
		c-0.1,0-0.1,0-0.1-0.1h-0.1c-0.1,0-0.2-0.1-0.3-0.2l0,0c-0.1-0.1-0.2-0.1-0.2-0.2c0,0,0,0-0.1-0.1s-0.1-0.1-0.2-0.2l0,0
		c-0.1-0.1-0.1-0.2-0.2-0.2c0,0,0,0,0-0.1s-0.1-0.1-0.1-0.2c0,0,0,0,0-0.1s-0.1-0.2-0.1-0.3c0,0,0,0,0-0.1s0-0.2-0.1-0.2v-0.1
		c0-0.1,0-0.2,0-0.3l0,0c0-0.5,0-10.1,0.1-15.6c0-1.8,0-3.6,0-5.4c0-0.8,0-1.7,0-2.5v-0.1c0-0.7,0-1.3,0-1.9c0-1.9,0-3.8,0-5.6
		c0-2.3,0-4.6-0.1-6.8c0-2.6-0.1-5.2-0.2-7.7c-0.1-2.8-0.2-5.6-0.3-8.5c-0.1-2.1-0.2-4.3-0.3-6.5l0,0l0,0l18.8-0.4
		c1.4,0,2.6,1.1,2.8,2.4c0.1,0.7,0.1,1.3,0.2,2c0,0.5,0.1,1.1,0.2,1.6c0.1,0.3,0.3,0.8,0.6,0.9c0.4,0,0.6-0.2,0.8-0.4
		c0.1-0.1,0.2-0.3,0.4-0.4c0.7-0.9,1.7-1.8,2.9-2.6c1.2-0.8,2.5-1.5,4-2s3-0.8,4.7-0.8c3.3,0,6,0.7,8.2,2.2c1.1,0.8,2.2,1.7,3,2.8
		c0.3,0.5,0.8,1.1,1.4,1.3c0.9,0,1.5-0.9,2-1.4c0.6-0.6,1.3-1.1,2-1.6s1.5-1,2.2-1.5c3-1.8,6.6-2.7,10.8-2.7l0,0
		c5.6,0,10.1,0.9,13.6,2.6s6.2,4.1,8.2,7.1s3.4,6.7,4.1,10.9C416.6,117.5,417,122.1,417,127.2L417,127.2z M407.4,87.7
		c-3.2-1.3-6.7-2.2-10.1-2.6l-12-20.2l-1-1.7l-10.1-17c-0.8-1.4-0.2-2.8,1.4-3.1l24.5-5.1c1.6-0.3,3.5,0.6,4.3,1.9l5.1,9.1h-5.8
		l-0.3,0.4l-1.5,2.1h-9.1v11.7h-8.5l1,1.7h8.3h0.9V53.3h8.2l0.3-0.4l1.5-2.1h5.9l-0.9-1.5l0.9,1.5l26.4,46.9l0,0L424.5,108
		C421.4,98.4,416,91.1,407.4,87.7z M471.5,125.8l-0.4,2.6l-5.7,33.9c-0.3,1.6-1.8,3.1-3.3,3.4l-12.4,2.3c-1.6,0.3-3.5-0.6-4.3-2
		l-8.8-14.8l-0.9-1.5l-8.3-14c0.5-9.5-0.2-18.3-2.3-25.8l12.6-10.5l10.3,18.4c0.8,1.4,1.6,1.2,1.8-0.3l8.2-59.4h8.5l0.2-0.2l3.3-2.7
		l0.3-0.3V40.6l2.1-2.2l0.2-0.3v-4.8l2-1.8l0.3-0.3v-7.3l-1.7,0.4v6.2l-2,1.8l-0.3,0.3v4.9l-2.1,2.2l-0.2,0.3v14l-2.7,2.3h-7.7l0,0
		l3.7-26.8c0.2-1.6,1.7-3.1,3.2-3.5l8.1-1.6l1.7-0.4l11.5-2.3c1.6-0.3,2.6,0.7,2.4,2.3l-9.4,55.4l-0.3,1.7l-4.1,24.1l-0.3,1.7
		L471.5,125.8z M511.3,145.8l-2.5,17.9c-0.2,1.6-1.7,2.8-3.3,2.6l-18.5-1.6c-1.6-0.1-2.7-1.5-2.5-3.1l2.8-18.7L511.3,145.8l0.2-1.7
		l-24-2.8l-0.2,1.2l0.2-1.2l1.7-11.6l0.1-0.4l-0.1,0.4h7.5l4,2.2l0.2,0.1h12.2l-1.7,12.1L511.3,145.8z M521.2,83.5
		c-0.4-1.5-1-1.5-1.2,0.1l-6.5,46.7l0,0h-12l-4-2.2l-0.2-0.1h-0.2h-7.5l9.1-60.8h12.5l0.2-0.6l3.4-10.8h26.4l-0.5-1.7h-27.2
		l-0.2,0.6l-3.4,10.8h-11l0,0l5.6-37.7c0.2-1.6,1.7-2.7,3.3-2.6l22.9,2.3c1.6,0.2,3.2,1.6,3.7,3.1l6.3,23.5l0.5,1.7l12.7,47.2l0,0
		h-13.3v32.7h-4.3l0,0L521.2,83.5z M643.4,41.6L640,79.4l0,0l-15.4-0.1h-0.7l-0.2,0.6l-5.2,18.7v0.1v0.1l-0.1,27.1h-11l-0.1,1.7
		h12.9v-0.9l0.1-27.8l5-18l14.6,0.1l-6.7,75.5l-0.2,1.7l-1.6,17.9c-0.1,1.6-1.5,2.7-3.1,2.6l0,0l-10.7-1.1l0,0l1.1-15.3l5.5-0.7
		l0.5-0.1l0.2-0.4l1.4-2.9h6.8l0.2-1.7l0,0h-8l-0.2,0.5l-1.4,2.9l-5.8,0.8l-0.7,0.1l-0.1,0.7l-1.1,16l-9.7-1
		c-1.6-0.2-2.8-1.6-2.6-3.2l3.9-45.7l0.1-1.7l2.6-29.7c0.1-1.6-0.4-1.8-1.2-0.4L566.3,170c-0.8,1.4-2.8,2.4-4.3,2.2l-12.3-1.3
		c-1.6-0.2-3.3-1.6-3.7-3.1l-8.9-30.5L537,137l0.1,0.3h5.5v-32.6h12l7.6,28.1c0.4,1.5,1.4,1.7,2.2,0.3l40-73l0.3-0.5l-0.3,0.5h16.9
		l0.2-0.6l7.4-22.1l-1.8-0.2l-7,21.1h-14.7l0,0L616,38.9c0.8-1.4,2.7-2.4,4.3-2.3l6.8,0.6l1.8,0.2l12.2,1.1
		C642.4,38.6,643.6,40,643.4,41.6z"/>
	<polygon style="fill:#FCFCFC;" points="467.9,105.2 468,88.1 470.3,85.8 470.5,85.6 470.5,81.1 479.1,81.1 479.4,79.3 468.8,79.3 
		468.8,84.9 466.5,87.1 466.2,87.4 466.2,87.7 466.2,106.1 466.2,107 474.7,107 475,105.2 	"/>
	<polygon style="fill:#FCFCFC;" points="458.8,130.9 458.5,130.9 458.2,131.1 453.3,134.9 452.9,135.2 452.9,143.3 435.6,149.7 
		436.5,151.2 454.1,144.7 454.7,144.5 454.7,136 459,132.7 465.2,132.7 465.5,132.7 465.8,132.5 471.1,128.3 471.5,125.8 464.9,131 
			"/>
</g>
</svg>
