<?xml version="1.0" encoding="utf-8"?>
<!-- Generator: Adobe Illustrator 24.0.1, SVG Export Plug-In . SVG Version: 6.00 Build 0)  -->
<svg version="1.1" id="레이어_1" xmlns="http://www.w3.org/2000/svg" xmlns:xlink="http://www.w3.org/1999/xlink" x="0px"
	 y="0px" viewBox="0 0 539.6 108" style="enable-background:new 0 0 539.6 108;" xml:space="preserve">
<g>
	<g id="null">
		<path style="fill:#FFFFFF;" d="M71,42l-1.6-0.7c0.1-0.3,0.2-0.7,0.2-1.1c0-1-9.1-6.6-25-6.6c-15.1,0-21.7,3.8-21.7,8.8
			c0,13.1,57.2-6.1,57.2,22.9C80.1,75.8,67.7,84,42.8,84c-23.7,0-30.5-6.2-32.7-6.2c-0.6,0-0.9,0.4-1.4,0.6l-1.3-0.2l8.1-13.6
			l1.6,0.6c0,0.3-0.2,0.6-0.2,1.3c0,4.7,12.5,8.1,25,8.1c17.7,0,23.7-4.2,23.7-8.6c0-15.7-56.4,3.8-56.4-22.8c0-13.4,17.2-19,36-19
			c16.9,0,28.7,6.1,29.9,6.1c1.3,0,1.5-0.3,1.7-0.6l1.6,0.4L71,42z"/>
		<path style="fill:#FFFFFF;" d="M87.7,82c2.1,0,2.5-0.6,2.5-2.4V28.4c0-1.8-0.4-2.4-2.5-2.4v-1.1h63c2.3,0,3.3-0.6,3.3-1.8h1.4
			v13.3H154c0-1.4-1-2.1-3.3-2.1H104v14.2h30.5c2.3,0,3.3-0.6,3.3-2.1h1.4v13.4h-1.4c0-0.6-0.2-1.1-0.8-1.4
			c-0.5-0.3-1.4-0.5-2.5-0.5H104v15.7h47.6c2.3,0,3.3-0.6,3.3-1.9h1.4v13.1h-1.4c0-1.1-1-1.8-3.3-1.8H87.7V82z"/>
		<path style="fill:#FFFFFF;" d="M242.3,52.4v1.1c-1,0.2-1.8,0.8-1.8,2.6v15.7c0,1.3,0.5,1.8,1.7,2v1.1c-6.1,2.9-21.1,9-37.9,9
			c-22.3,0-41.9-9.1-41.9-29.9s22.9-29.9,43.1-29.9c8,0,15.5,1.5,21.1,3c5.1,1.8,8.9,3.3,9.6,3.3c0.9,0,1.7-0.4,2.1-0.9l1.4,0.5
			l-9.4,13.1l-1.4-0.7c0.1-0.3,0.2-0.8,0.2-1.4c0-2.5-10.5-7.4-23.4-7.4c-16.3,0-29.5,6.6-29.5,20.1c0,14.1,13.2,20.8,28.2,20.8
			c12.2,0,19.4-3.4,22.3-5.2v-6.6H210c-1.9,0-3.1,0.8-3.1,1.9h-1.4V50.5h1.4c0,1.1,1.2,1.9,3.1,1.9H242.3z"/>
		<path style="fill:#FFFFFF;" d="M247.2,83.1V82c1.7-0.1,2.3-0.5,3.7-3l26.5-49.1c0.5-0.8,1.1-1.7,1.1-2.4c0-0.9-0.8-1.3-2-1.4V25
			h21.2v1c-1.5,0.2-2,0.6-2,1.2s0.4,1.3,0.9,2.1l28.2,49.6c1.4,2.5,1.7,3,3.8,3V83H309v-1c1.3,0,1.7-0.4,1.7-0.8
			c0-0.9-0.9-2-7.4-13.4H270c-5.6,10.4-7.1,12-7.1,13c0,0.7,0.6,1.1,1.5,1.2v1.1L247.2,83.1L247.2,83.1L247.2,83.1z M297.8,58.6
			l-11.7-20.9l-11.5,20.9H297.8z"/>
	</g>
	<path style="fill:#FFFFFF;" d="M345.2,24.9v58.2H532V24.9H345.2z M353.1,65.8c-1.6-10.4,32.9-24.2,77.7-31.4c-1,0.3-3,0.8-3,0.8
		s-4.4,1.1-5.6,1.4C399.3,42,383.3,52.1,384.6,61c1.4,9.1,20.5,14.1,44.8,12.4c1.4-0.1,6.1-0.3,7.2-0.4
		C391.6,79.2,354.7,76.1,353.1,65.8z M465.2,68c-9.9,2.3-22.3,4.2-22.3,4.2v-26l6.4,21.1c0,0,15.2-2.5,26.8-7.3
		c10.1-4.2,16.3-9.5,15.9-15.1c-0.7-9.1-20.1-14-44-12.4c-1.6,0.1-6.9,0.4-7.9,0.4c45-6.2,81.9-3.1,83.5,7.3
		C524.8,49,500.1,60.3,465.2,68z"/>
</g>
</svg>
