<?xml version="1.0" encoding="utf-8"?>
<!-- Generator: Adobe Illustrator 24.0.1, SVG Export Plug-In . SVG Version: 6.00 Build 0)  -->
<svg version="1.1" id="레이어_1" xmlns="http://www.w3.org/2000/svg" xmlns:xlink="http://www.w3.org/1999/xlink" x="0px"
	 y="0px" viewBox="0 0 341.4 186" style="enable-background:new 0 0 341.4 186;" xml:space="preserve">
<path style="fill:#FFFFFF;" d="M212.5,185.5c-1.6-1.7-6-1.9-6.6-1.9c-30.4,0-60.8,0-91.3,0c-3.1,0-3.6,0.4-3.3-3.5
	c0.6-6.4,3-12.4,7.6-17c0.9-0.9,1.2-1.2,3.2-3.1c8.6-7.8,25.8-14.1,25.8-14.1s14.4-5.3,22.5-8.5c3.6-1.4,7.2-3.1,10.4-5.3
	c11.7-9.2,5.6-18.4-9.8-20.6c-10.8-1.6-20.7,1.1-29.8,6.9c-1.2,0.8-2.2,1.5-3.3,2.3c-2,1.7-3.8,3.7-4.2,6c-0.2,1.2,0,2,0,2.2
	c0.1,0.6,0.3,1.6-0.2,2.1c-0.6,0.5-1.7,0-2.2-0.5c-4.7-4.4-9.4-8.9-14.1-13.3c-0.3-0.3-0.8-0.9-0.8-0.9s-0.5-0.6-0.5-1
	c0-0.5,0.4-0.9,1-1.1c2.6-0.5,3.7-0.6,5.3-1.7c4.1-3,8.5-5.7,13.1-8c6.2-3,12.7-4.8,19.5-5.7c5.2-0.7,20.6-3.1,38.6,4.9
	c4.7,2.1,8.8,5,11.9,9.2c1.8,2.5,8.6,15.9-5.3,26.7c-5,4-10.9,6.5-16.9,8.6c-5.1,1.8-8.9,3.1-17.3,5.6c-6.4,1.9-11,3.4-18.3,6.8
	c-5.8,2.8-9.6,6.1-9.6,6.1s-1.9,1.5-1.5,2.6c0.3,1,1.9,0.9,2.8,0.9c22.5,0,44.9,0,67.4,0c2.3,0,4.6-0.2,6.4-2
	c0.3-0.3,0.9-0.4,1.3-0.3c0.3,0.1,0.5,0.8,0.5,1.2c0,5.3,0,10.6,0,15.9c0,0.5-0.2,0.7-0.4,0.8C213.8,186.1,213,186,212.5,185.5z"/>
<path style="fill:#FFFFFF;" d="M45.2,184.8c-3.7-0.2-7.4-0.7-11-1.3c-14.8-2.6-21.7-6.1-25.8-7.7c-2-0.8-3.9-1.5-6.1-0.7
	c-0.2,0.1-0.5,0.1-0.8,0.1c-1.4,0-1.8-0.5-1.2-1.7c0.7-1.5,1.5-2.8,2.4-4.2c2.3-3.8,4.6-7.5,6.8-11.2c0.1-0.2,0.2-0.3,0.3-0.5
	c0.5-0.8,1-1.5,2-1.4c1,0.1,1.2,1,1.4,1.8c0.5,1.7,1.5,3,2.9,4c3.2,2.5,6.9,4.2,10.7,5.5c5,1.7,10.1,2.8,15.3,3.6
	c6.2,1,12.4,1.1,18.5,0.7c5.2-0.3,10.4-1.3,15.4-3.2c3-1.2,5.3-3.3,7.1-5.8c2.4-3.4,1.4-8-1.9-10.6c-4.5-3.6-9.7-5-15.2-5.9
	c-5-0.9-9.9-0.8-14.9-0.7c-2.3,0-7.9,0.3-10.1,2.2c-0.8,0.7-1.4,0.7-1.8,0.4c-0.4-0.3-0.4-0.9-0.4-1.3c0-4.9,0-9.7,0-14.6
	c0-1.6,0.8-2.1,2-1.2c1.6,1.1,3.3,1.6,5.1,1.8c3,0.4,12.8,0,14.8-0.2c5.3-0.7,4.9-0.6,8-1.4c3.3-0.9,6.5-3.2,8.2-5.2
	c0,0,0.1-0.1,0.1-0.1c2.3-2.8,1.5-6-0.6-8.3c-2.1-2.2-4.7-3.6-7.6-4.5c-4.7-1.4-9.6-2.2-14.5-1.9c-8.9,0.4-17.7,1.8-25.8,5.9
	c-1.8,1-3.6,2.1-5.3,3.3c-1.5,1-2.2,2.5-2.2,4.3c0,0.9,0.1,2-1,2.4c-1.1,0.4-1.7-0.6-2.3-1.2c-4.1-4.2-8.2-8.4-12.3-12.6
	c-0.2-0.2-0.5-0.5-0.7-0.8c-0.5-0.8-0.2-1.5,0.8-1.6c1.1-0.1,2.2,0,3.2-0.3c1.5-0.5,2.8-1.3,4.2-1.9c3.7-1.8,7.3-3.8,11.1-5.4
	c6-2.5,12.3-3.8,18.8-4.6c6.2-0.8,17.1-1.1,25,0.1c5.3,0.8,10.5,1.9,15.4,4c4.3,1.9,8.5,4.1,11.8,7.7c2.3,2.6,3.9,5.6,4.4,9.1
	c0.5,3.4-0.1,6.5-1.5,9.6c-1,2.1-2.5,3.5-4.6,4.7c-4,2.4-6.4,3-7,3.3c-0.8,0.5-0.9,1.2,0,1.6c0.7,0.4,1.6,0.7,2.4,0.9
	c4.9,1.5,9.1,4.2,12.5,7.9c2.5,2.7,4.1,5.9,4.6,9.7c0.5,3.9-0.4,7.3-2.1,10.7c-1.3,2.6-3.5,4.5-5.7,6.1c-4.6,3.4-9.7,5.7-15.2,7.3
	c-4.1,1.2-8.2,2-12.4,2.6C55.9,185.9,48.5,185.1,45.2,184.8z"/>
<path style="fill:#FFFFFF;" d="M242.9,98.9c4.8,0,9.6,0,14.4,0c0.5,0,0.9,0,1.4,0c1.1,0.1,1.2,0.6,0.6,1.5c-1.2,1.6-1.2,1.7,0.2,3.2
	c0,0,0.1,0.1,0.1,0.1c6.7,6.8,13.4,13.5,20.1,20.3c0.3,0.3,0.6,0.7,1,1c0.7,0.5,1.4,0.5,2,0c0.4-0.3,0.7-0.6,1-1
	c6.6-6.7,13.2-13.3,19.8-20c0.2-0.2,0.5-0.5,0.7-0.7c0.9-1.1,0.9-1.5,0-2.7c-0.7-1-0.7-1.6,0.8-1.6c0.3,0,0.7,0,1,0
	c9.7,0,19.4,0,29.1,0c0.6,0,1.2,0,1.8,0.1c0.2,0.1,0.6,0.4,0.6,0.7c0,0.3-0.1,0.7-0.4,0.8c-0.7,0.3-1.4,0.6-2.1,0.8
	c-2.7,0.6-4.9,1.9-6.9,3.9c-8.5,8.6-17,17.1-25.5,25.7c-2.1,2.2-4.2,4.4-6.3,6.6c-1.3,1.4-1.3,2,0,3.4c2.4,2.4,4.8,4.7,7.1,7.1
	c1.7,1.8,3.3,3.7,5.1,5.5c4.6,4.7,9.4,9.3,14,14c3.1,3.2,6.2,6.3,9.3,9.6c1.8,1.9,3.8,3.1,6.3,3.8c0.9,0.2,1.8,0.6,2.7,1
	c0.2,0.1,0.5,0.5,0.4,0.8c0,0.3-0.4,0.6-0.6,0.7c-0.4,0.1-0.9,0.1-1.4,0.1c-9.9,0-19.8,0-29.8,0c-0.4,0-0.8,0-1.2-0.1
	c-0.6-0.2-0.9-0.6-0.5-1.2c0.3-0.6,0.8-1.2,0.8-1.7c-0.1-0.6-0.7-1.1-1.1-1.6c-7.7-7.9-15.4-15.7-23.1-23.5
	c-0.3-0.3-0.6-0.6-0.9-0.9c-1.7-1.6-2.3-1.7-4,0c-7.5,7.4-14.9,14.8-22.2,22.4c-3,3.5-3.4,2.8-2.2,5.1c0.5,0.9,0.3,1.3-0.7,1.5
	c-0.5,0.1-0.9,0-1.4,0c-9.6,0-19.2,0-28.7,0c-0.9,0-2.3,0.2-2.4-0.8c-0.2-1.1,1.2-1.2,1.9-1.3c3.5-0.8,6.2-2.8,8.6-5.3
	c7.9-8.1,15.9-16,23.8-24c2.5-2.5,4.8-5.1,7.2-7.6c0.9-1,2-1.8,2.9-2.8c2-2,2-2.5,0.1-4.5c-5.8-5.9-11.7-11.8-17.5-17.7
	c-4.7-4.8-9.5-9.6-14.2-14.4c-1.8-1.9-4-3.1-6.5-3.6c-0.4-0.1-0.7-0.2-1.1-0.3c-0.7-0.2-1.6-0.3-1.5-1.3c0.1-0.9,0.9-0.9,1.6-0.9
	c0.4,0,0.8,0,1.2,0C233.3,98.9,238.1,98.9,242.9,98.9z"/>
<path style="fill:#FFFFFF;" d="M41.2,78.6l34.2,0c14,0,25.4-11.4,25.4-25.4c0-14-11.4-25.4-25.4-25.4l-8.9,0c-0.7,0-1.3-0.6-1.3-1.3
	c0-0.7,0.6-1.3,1.3-1.3l34.2,0l0-10.7H66.5c-6.6,0-12,5.4-12,12c0,6.6,5.4,12,12,12l8.9,0.1c8,0,14.5,6.5,14.5,14.5
	c0,8-6.5,14.5-14.5,14.5H41.2L41.2,78.6z"/>
<path style="fill:#FFFFFF;" d="M41.2,65.2h34.3c6.6,0,12-5.4,12-12c0-6.6-5.4-12-12-12l-8.9-0.1c-8,0-14.5-6.5-14.5-14.5
	c0-8,6.5-14.5,14.5-14.5l34.2,0l0-10.8l-34.2,0c-14,0-25.4,11.4-25.4,25.4c0,14,11.4,25.4,25.4,25.4l8.8,0c0.7,0,1.2,0.6,1.2,1.2
	c0,0.7-0.6,1.2-1.2,1.2l-34.2,0L41.2,65.2z"/>
<path style="fill:#FFFFFF;" d="M127.3,67.8c-5.9,0-10.8-4.8-10.8-10.8V22.7c0-5.8,4.9-10.6,10.8-10.6l36.6,0l0-10.8l-36.6,0
	c-11.9,0-21.5,9.6-21.5,21.5V57c0,11.9,9.6,21.5,21.5,21.5l36.4,0l0-10.8L127.3,67.8z"/>
<path style="fill:#FFFFFF;" d="M119.1,22.8c0-4.5,3.6-8.2,8.2-8.2h36.6l0,10.8h-31.5c-2.5,0-2.6,2.5-2.6,2.5h26.3l0,10.7h-37
	L119.1,22.8z"/>
<path style="fill:#FFFFFF;" d="M127.3,65.2c-4.5,0-8.2-3.7-8.2-8.2l0-15.8h37l0,10.8h-26.3c0,2.5,2.6,2.5,2.6,2.5h31.3l0,10.7
	L127.3,65.2z"/>
<path style="fill:#FFFFFF;" d="M189.5,67.7c-5.9,0-10.8-4.8-10.8-10.8V22.8c0-5.9,4.8-10.7,10.7-10.7l35.4,0l0-10.8l-35.5,0
	c-11.9,0-21.5,9.6-21.5,21.5V57c0,11.9,9.7,21.5,21.6,21.5l35.4,0l0-50.7h-30.4v10.7h19.7v29.2L189.5,67.7z"/>
<path style="fill:#FFFFFF;" d="M181.2,57c0,4.5,3.7,8.3,8.2,8.3l22.1,0V41.1h-17.1v10.8h6.3l0,2.5l-6.3,0c-1.4,0-2.5-1.1-2.5-2.5
	l0-24.1c0,0,0-2.5,2.5-2.6h30.4l0-10.7l-35.4,0c-4.5,0-8.2,3.7-8.2,8.2L181.2,57"/>
<path style="fill:#FFFFFF;" d="M258.1,14.4c0.5-1.4,1.8-2.4,3.3-2.4c1.5,0,2.8,1,3.3,2.4l17.2,50.9h-25.1l0-12h8.4l-3.8-11.3
	l-12.3,36.5h-12.7L258.1,14.4z"/>
<path style="fill:#FFFFFF;" d="M285.3,67.8h-28.6v10.8h43.5l-22.6-67.2c-2-6.5-8.5-11.4-16.3-11.4c-7.7,0-14.3,4.8-16.3,11.3
	l-22.8,67.2h11.4l22.2-65.3c0.9-2.2,3-3.7,5.5-3.7c2.5,0,4.6,1.5,5.5,3.7L285.3,67.8z"/>
</svg>
