<?xml version="1.0" encoding="utf-8"?>
<!-- Generator: Adobe Illustrator 24.0.1, SVG Export Plug-In . SVG Version: 6.00 Build 0)  -->
<svg version="1.1"
	 id="Layer_3" xmlns:cc="http://creativecommons.org/ns#" xmlns:dc="http://purl.org/dc/elements/1.1/" xmlns:rdf="http://www.w3.org/1999/02/22-rdf-syntax-ns#"
	 xmlns="http://www.w3.org/2000/svg" xmlns:xlink="http://www.w3.org/1999/xlink" x="0px" y="0px" viewBox="0 0 598.2 350.3"
	 style="enable-background:new 0 0 598.2 350.3;" xml:space="preserve">
<g>
	<path style="fill:#F4F4F4;" d="M151.5,69.5c-27,3.9-53,18.2-73.3,40.2c-20.3,22-32.5,49.1-34.3,76.3c-1.8,27.3,7.1,51.5,25,68.1
		c14.7,13.6,33.9,20.7,55.2,20.7c4.8,0,9.7-0.4,14.6-1.1c27-3.9,53-18.2,73.4-40.2c20.3-22,32.5-49.1,34.3-76.3
		c1.8-27.3-7.1-51.5-25-68.1l-1.3-1.2l0,0C202.2,72.2,178,65.7,151.5,69.5z M138.3,269.8c-26,3.8-49.6-2.8-66.7-18.6
		c-17.1-15.8-25.5-38.9-23.8-65c1.8-26.3,13.6-52.5,33.3-73.8c19.7-21.3,44.9-35.1,71-38.9c4.8-0.7,9.5-1,14.1-1
		c20,0,38.1,6.5,51.9,19l0.7,0.6c17.1,15.8,25.5,38.9,23.8,65c-1.7,26.3-13.5,52.5-33.2,73.8C189.5,252.2,164.3,266,138.3,269.8z"/>
	<path style="fill:#F4F4F4;" d="M206.2,100.8L206.2,100.8c-14.8-13.6-35.2-19.3-57.6-16c-22.3,3.3-43.8,15.1-60.6,33.3
		c-34.8,37.6-38.3,91.1-8,119.2c12.3,11.4,28.4,16.9,45.4,16.9c25,0,52.1-11.8,72.8-34.2C233,182.3,236.6,128.9,206.2,100.8z
		 M137.2,249.4c-21.2,3.2-40.6-2.2-54.4-15c-13.9-12.8-20.7-31.7-19.2-53.1c1.5-21.5,11.2-43,27.4-60.5
		c16.2-17.5,36.8-28.9,58.2-32.1c4-0.6,7.9-0.9,11.8-0.9c16.5,0,31.4,5.5,42.7,15.9l0.6,0.5c13.5,12.8,20.1,31.4,18.6,52.5
		c-1.5,21.5-11.2,43-27.4,60.5C179.2,234.8,158.6,246.2,137.2,249.4z"/>
	<path style="fill:#F4F4F4;" d="M588.2,203.2c-7-38.2-28.1-76.7-57.9-105.6C456.7,26,348.9,18.3,306,18.3h-16v0
		c-36,0-72.5,4.9-105.5,14.1c-1.1,0.3-1.9,1.1-2.1,2.1c-0.1,0-0.3,0.1-0.4,0.1c-1.3-0.7-2.7-0.7-3.9-0.3
		C132.7,47.9,94.9,69.2,65.7,97.6C35.9,126.5,14.8,165,7.8,203.2c-7.5,40.9,1.9,76,26.6,98.8c25.3,23.4,49.8,30.6,77,22.5
		c13.7-4.1,26.5-11.4,38.8-18.4c8.1-4.6,15.7-8.9,23.3-12.3l1.1-0.5c18.9-8.3,63.3-27.8,104.7-27.8h37.4
		c41.4,0,85.8,19.5,104.7,27.8l1.1,0.5c7.6,3.3,15.2,7.7,23.3,12.3c12.3,7,25.1,14.3,38.8,18.4c7.2,2.1,14.2,3.2,21,3.2
		c19.2,0,37.4-8.4,56-25.7C586.3,279.1,595.7,244,588.2,203.2z M180.5,38.6c1.7,1.9,7.9,8.9,11,11.7c0.4,0.3,0.7,0.7,1.1,1.1
		c1.3,1.4,3,3,5.5,4.2c3.6,1.7,8.2,1.9,13.9,0.5c12.3-2.9,57.7-8.9,74.6-8.9h22.8c16.9,0,62.3,6,74.6,8.9c5.8,1.4,10.3,1.2,13.9-0.5
		c2.5-1.2,4.1-2.9,5.5-4.2c0.4-0.4,0.7-0.7,1.1-1.1c3.5-3.3,11.1-12.1,11.4-12.5l0,0c45.2,13.4,82.7,34.4,111.7,62.6
		c29.2,28.4,49.9,66.1,56.7,103.5c7.3,39.5-1.8,73.3-25.4,95.3c-24.2,22.4-47.4,29.3-73.2,21.6c-13.1-3.9-25.6-11-37.7-17.9
		c-8.2-4.7-16-9.1-23.9-12.6l-1.3-0.6c-19.1-8.4-63.8-28-106.1-28h-37.4c-42.3,0-87,19.6-106.1,28l-1.3,0.6
		c-7.9,3.5-15.7,7.9-23.9,12.6c-12.1,6.9-24.6,14-37.7,17.9c-25.8,7.7-49.1,0.8-73.2-21.6c-23.6-21.9-32.7-55.8-25.4-95.3
		c6.9-37.4,27.6-75.1,56.7-103.5c28.8-28,66.1-49,110.8-62.4c0.4-0.1,0.8-0.1,0.9,0.1c0,0,0,0,0.1,0.1l0,0.4L180.5,38.6z
		 M408.9,35.8c-1.7,1.9-5.5,6.2-8,8.5c-0.6,0.5-1.1,1.1-1.6,1.7c-1.1,1.2-2.1,2.3-3.5,3c-1.6,0.8-4.4,1.7-10.8,0.2
		c-12.8-3.1-58.1-9-75.5-9h-22.8c-17.4,0-62.8,6-75.5,9c-6.4,1.5-9.2,0.6-10.8-0.2c-1.4-0.7-2.4-1.8-3.5-3c-0.5-0.5-1-1.1-1.6-1.7
		c-2.4-2.2-6.2-6.5-8.1-8.6C219.4,26.9,255,22.2,290,22.2h16C340.9,22.2,376.4,26.9,408.9,35.8z"/>
	<path style="fill:#F4F4F4;" d="M374.9,244.5c24.8,23.7,56.6,37.1,87.6,37.1c0.9,0,1.8,0,2.7,0c24.6-0.6,46.8-10.1,62.5-26.6
		c37.1-39.1,28.9-107.5-18.2-152.5c-25.5-24.4-58.5-37.9-90.3-37.1c-24.7,0.6-46.8,10.1-62.5,26.5
		C319.6,131.2,327.8,199.6,374.9,244.5z M506.7,105.4c45.5,43.4,53.6,109.4,18,147c-14.9,15.7-36.2,24.7-59.8,25.3
		c-30.7,0.8-62.6-12.3-87.4-36c-45.6-43.5-53.6-109.4-18-147C374.5,79,395.7,70,419.3,69.4C450.1,68.6,482,81.7,506.7,105.4z"/>
	<path style="fill:#F4F4F4;" d="M375.8,110.1c-12.3,13.1-19.1,30.9-19.1,50.2c0,18.7,6.4,38,17.9,54.6c-0.7,2.4-1,5-1,7.6
		c0,15.7,12.8,28.5,28.5,28.5c3.9,0,7.7-0.8,11.1-2.3c14,7.2,28.7,10.8,42.8,10.8c20.4,0,39.4-7.5,53-21.9
		c11.3-12,17.8-27.5,18.9-45c5.3-5.2,8.5-12.4,8.5-20.3c0-12.3-7.8-22.7-18.7-26.8c-4.8-9.5-11-18.2-18.6-26.1c0-0.1,0-0.1,0-0.2
		l0.9-0.9h-0.9c-0.1-11.6-9.5-20.9-21.1-20.9c-2.5,0-4.8,0.4-7,1.2c-14.1-7.2-29.4-10.8-44.3-10.5l0,0l-0.3,0
		C406.6,88.8,388.6,96.6,375.8,110.1z M495.3,118.4c0,0,0,0.1,0,0.1c0,0.7,0,1.3-0.1,1.9l-0.3,0.3l0.2,0.2
		c-1.2,8.3-8.3,14.8-17,14.8c-9.5,0-17.2-7.7-17.2-17.2c0-4.6,1.8-8.9,5-12.1c3.2-3.2,7.5-5,12.1-5
		C487.6,101.4,495.2,109,495.3,118.4L495.3,118.4L495.3,118.4z M457.1,118.6c0,11.6,9.5,21.1,21.1,21.1c9.6,0,17.7-6.5,20.2-15.3
		c5.6,6.1,10.3,12.7,14.3,19.8c-1.5-0.3-3.1-0.4-4.7-0.4c-15.7,0-28.5,12.8-28.5,28.5c0,15.7,12.8,28.5,28.5,28.5
		c5.8,0,11.2-1.8,15.8-4.8c-1.7,15-7.7,28.4-17.6,38.9c-21.3,22.6-56.6,27.1-88.7,11.6c7.9-5.1,13.1-13.9,13.1-24
		c0-15.7-12.8-28.5-28.5-28.5c-11.4,0-21.2,6.7-25.8,16.4c-21.8-33.1-21-72.8,2.4-97.6c21.1-22.4,56.1-27,88-11.9
		C460.9,104.7,457.1,111.2,457.1,118.6z M507.9,196.9c-13.6,0-24.6-11-24.6-24.6c0-13.6,11-24.6,24.6-24.6c2.5,0,4.8,0.4,7.1,1
		l0,0.1l0.1,0c10.1,3.1,17.4,12.5,17.4,23.5C532.5,185.9,521.5,196.9,507.9,196.9z M402.1,197.9c13.5,0,24.6,11,24.6,24.6
		c0,9.5-5.4,17.8-13.4,21.9l-0.1-0.1l-0.1,0.2c-3.3,1.7-7,2.6-11,2.6c-13.6,0-24.6-11-24.6-24.6C377.5,209,388.5,197.9,402.1,197.9z
		"/>
	<path style="fill:#F4F4F4;" d="M142,108c-32.3,0-58.5,26.3-58.5,58.5S109.7,225,142,225c32.3,0,58.5-26.3,58.5-58.5
		S174.3,108,142,108z M142,111.9c30.1,0,54.6,24.5,54.6,54.6s-24.5,54.6-54.6,54.6c-30.1,0-54.6-24.5-54.6-54.6
		c0-14.6,5.7-28.3,16-38.6C113.7,117.6,127.4,111.9,142,111.9z"/>
	<path style="fill:#F4F4F4;" d="M92.1,175.7l0,0.1c0.4,1.9,2.2,3.3,4.4,3.4l15.3,0.7c4.8,0.2,8.4,1.7,10.7,4.4
		c2.4,2.7,3.5,6.6,3.2,11.7l-0.7,14.6c0,0.9,0,1.8,0.4,2.8c0.4,0.8,1.1,1.5,2,1.9l0.3,0.1h0.1c3.8,1.1,7.8,1.8,11.8,1.9
		c0.8,0,1.6,0.1,2.4,0.1c3.2,0,6.3-0.3,9.4-0.9l0.3,0l0.1-0.1c0.8-0.3,1.5-0.8,2-1.5c0.5-0.7,0.8-1.7,0.8-2.9l0.7-14.5
		c0.2-5,1.7-8.8,4.3-11.3c2.6-2.5,6.2-3.7,10.7-3.5l15.7,0.7c1,0,1.9,0,2.8-0.4c0.9-0.4,1.5-1.2,1.9-2.4l0.1-0.2v0
		c1.1-3.7,1.7-7.6,1.9-11.5c0.2-4-0.1-7.9-0.8-11.8l0-0.3l-0.1-0.1c-0.2-0.6-0.5-1.3-1.2-1.9c-0.7-0.6-1.6-0.9-2.7-1l-16.2-0.7
		c-4.5-0.2-8-1.6-10.3-4.2c-2.4-2.6-3.5-6.4-3.3-11l0.7-15.4l0-0.4c0-0.6,0.1-1.3-0.1-2c-0.3-1-1.1-1.9-2.2-2.2l-0.2-0.1h0
		c-3.9-1.1-7.9-1.8-12-2v0c-4-0.2-8,0.1-11.9,0.9l0,0l-1,0.2v0.1c-0.6,0.2-1,0.6-1.4,1.1c-0.6,0.8-0.7,1.8-0.7,2.5l-0.7,15.8
		c-0.2,4.9-1.6,8.5-4.2,10.9c-2.6,2.4-6.4,3.4-11.3,3.2l-15.5-0.7c-0.8,0-1.6-0.1-2.4,0.3c-0.8,0.3-1.5,1.1-1.9,2l-0.1,0.3v0
		c-1.1,3.9-1.8,7.9-2,11.9C91.2,168,91.4,171.9,92.1,175.7z M97,153.6L97,153.6c0.2-0.1,0.4-0.1,0.6-0.1l15.4,0.7
		c6,0.3,10.7-1.2,14.1-4.2c3.3-3.1,5.2-7.6,5.4-13.6l0.7-15.7c0-0.1,0-0.2,0-0.3c3.3-0.6,6.7-0.9,10.1-0.8l0.8,0
		c3.6,0.2,7.2,0.8,10.8,1.8c0,0.2,0,0.4,0,0.8l-0.7,15.4c-0.3,5.6,1.2,10.4,4.3,13.8c3,3.3,7.5,5.2,13,5.5l16.2,0.7
		c0.1,0,0.2,0,0.3,0c0,0,0,0.1,0.1,0.2l0.1,0.2c0.6,3.4,0.9,7,0.7,10.5c-0.2,3.6-0.7,7.2-1.7,10.6c0,0.1,0,0.1-0.1,0.2
		c-0.1,0-0.4,0-0.7,0l-15.7-0.7c-5.6-0.3-10.3,1.3-13.6,4.6c-3.3,3.2-5.2,8.1-5.5,13.9l-0.7,14.5c0,0.4-0.1,0.7-0.1,0.8
		c-3.6,0.7-7.2,0.9-10.8,0.8c-3.7-0.2-7.3-0.8-10.7-1.7c0-0.2,0-0.5,0-0.9l0.7-14.6c0.3-6.1-1.1-10.9-4.2-14.4
		c-3-3.4-7.7-5.4-13.5-5.7l-15.3-0.7c-0.2,0-0.7,0-0.8-0.2l0,0c-0.7-3.5-0.9-7.1-0.7-10.7C95.4,160.6,96,157,97,153.6z M155.6,120.7
		l-0.2,1c0,0-0.1,0-0.1,0L155.6,120.7L155.6,120.7z"/>
	<path style="fill:#F4F4F4;" d="M142,179c6.9,0,12.5-5.6,12.5-12.5c0-6.9-5.6-12.5-12.5-12.5c-6.9,0-12.5,5.6-12.5,12.5
		C129.5,173.4,135.1,179,142,179z M142,157.9c4.7,0,8.6,3.9,8.6,8.6c0,4.7-3.8,8.6-8.6,8.6c-4.7,0-8.6-3.8-8.6-8.6
		C133.4,161.8,137.3,157.9,142,157.9z"/>
	<path style="fill:#F4F4F4;" d="M424.4,191.7c0,15.7,12.8,28.5,28.5,28.5c15.7,0,28.5-12.8,28.5-28.5c0-15.7-12.8-28.5-28.5-28.5
		C437.2,163.2,424.4,176,424.4,191.7z M452.9,167.1c13.5,0,24.6,11,24.6,24.6c0,13.6-11,24.6-24.6,24.6c-13.6,0-24.6-11-24.6-24.6
		C428.3,178.2,439.3,167.1,452.9,167.1z"/>
	<path style="fill:#F4F4F4;" d="M382.3,135.1c-11.6,0-21.1,9.5-21.1,21.1c0,11.6,9.5,21.1,21.1,21.1c11.6,0,21.1-9.5,21.1-21.1
		c0-5.6-2.2-10.9-6.2-14.9C393.2,137.3,387.9,135.1,382.3,135.1z M382.3,173.3c-9.5,0-17.2-7.7-17.2-17.2s7.7-17.2,17.2-17.2
		c9.5,0,17.2,7.7,17.2,17.2S391.7,173.3,382.3,173.3z"/>
	<path style="fill:#F4F4F4;" d="M407.9,131.8c0,11.6,9.4,21.1,21,21.1c11.6,0,21.1-9.5,21.1-21.1c0-11.6-9.5-21.1-21.1-21.1
		C417.3,110.8,407.9,120.2,407.9,131.8z M446.1,131.8c0,9.5-7.7,17.2-17.2,17.2c-9.4,0-17.1-7.7-17.1-17.2c0-9.5,7.7-17.2,17.1-17.2
		C438.4,114.7,446.1,122.4,446.1,131.8z"/>
	<path style="fill:#F4F4F4;" d="M272.4,168.5h34.2c7.3,0,13.2-5.9,13.2-13.2s-5.9-13.2-13.2-13.2h-34.2c-7.3,0-13.2,5.9-13.2,13.2
		S265.2,168.5,272.4,168.5z M267,155.3c0-1.4,0.6-2.8,1.6-3.8c1-1,2.4-1.6,3.8-1.6h34.2c3,0,5.4,2.4,5.4,5.4s-2.4,5.4-5.4,5.4h-34.2
		C269.5,160.7,267,158.3,267,155.3z"/>
</g>
</svg>
