<?xml version="1.0" encoding="utf-8"?>
<!-- Generator: Adobe Illustrator 24.0.1, SVG Export Plug-In . SVG Version: 6.00 Build 0)  -->
<svg version="1.1"
	 id="Layer_3" xmlns:cc="http://creativecommons.org/ns#" xmlns:dc="http://purl.org/dc/elements/1.1/" xmlns:rdf="http://www.w3.org/1999/02/22-rdf-syntax-ns#"
	 xmlns="http://www.w3.org/2000/svg" xmlns:xlink="http://www.w3.org/1999/xlink" x="0px" y="0px" viewBox="0 0 378.1 350.3"
	 style="enable-background:new 0 0 378.1 350.3;" xml:space="preserve">
<style type="text/css">
	.st0{fill:#FFFFFF;}
</style>
<g>
	<path class="st0" d="M120.2,282.4c13.2,3.2,29.3,4.7,49.3,4.7h15h19.9c21.9,0,46.8-10.8,68.3-29.6c21.6-18.9,34.1-41,34.1-60.6
		V56.1c0-4.9-2.2-9.6-6.1-13c-3.8-3.3-8.7-5.1-14-5.1L93.5,38c-5.2,0-10.2,1.8-14,5.1c-3.9,3.4-6.1,8.1-6.1,13v176.2
		c0,11.2,3,20.9,9.1,28.7C90.3,271.1,102.6,278.1,120.2,282.4z M93.5,41.5h193.2c4.4,0,8.5,1.5,11.6,4.2c3.1,2.7,4.9,6.5,4.9,10.3
		V197c-0.1,18.2-12.4,39.9-32.9,57.9c-20.6,17.9-45.2,28.7-66,28.7l-19.9,0l-15,0c-19.7,0-35.5-1.5-48.5-4.6
		c-16.8-4-28.4-10.6-35.7-20.1c-5.5-7.2-8.3-16.1-8.3-26.5V56.1c0-3.9,1.7-7.6,4.9-10.3C85,43,89.1,41.5,93.5,41.5z"/>
	<path class="st0" d="M78.6,86.3h-0.3v5.8h0.3v140.1c0,10.2,2.6,18.5,8,25.5c4.8,6.2,11.8,11.3,20.9,15.1c14.6,6.1,34.8,9,61.7,9
		c0.1,0,0.2,0,0.2,0h34.9c0,0,0.1,0,0.1,0c20.4,0,44.6-10.6,64.8-28.3c20.3-17.7,32.4-38.9,32.3-56.6V56.1c0-3.4-1.5-6.6-4.3-9.1
		c-2.8-2.4-6.5-3.8-10.5-3.8c0,0,0,0,0,0l-193.2,0c0,0,0,0,0,0c-4,0-7.8,1.3-10.6,3.8c-2.8,2.4-4.3,5.7-4.3,9.1V86.3z M85.3,49.7
		c2.1-1.8,5-2.9,8-2.9h193.4c0,0,0,0,0,0c3.1,0,6.1,1.1,8.2,2.9c2,1.8,3.1,4,3.1,6.4v30.3H82.2V56.1C82.2,53.7,83.3,51.5,85.3,49.7z
		 M204.5,278.3C204.4,278.3,204.4,278.3,204.5,278.3h-35c-0.1,0-0.2,0-0.2,0c-26.5,0-46.2-2.9-60.4-8.7c-8.5-3.5-15-8.2-19.4-13.9
		c-4.9-6.4-7.3-14-7.3-23.4V92.2H298V197c0.1,16.5-11.9,37.2-31.1,53.9C247.6,267.8,223.7,278.3,204.5,278.3z"/>
	<path class="st0" d="M291,162c-2.3-2.6-5.7-3.9-10.1-4l0.1-0.1l-2.7,0.2c-12.4,1-31.5,10.6-56.8,28.6l-0.3,0.2
		c-8.5,6.8-19.7,17.5-30.8,29.4c-10.6,11.3-19,21.5-22.6,27.4c-4.3,7-5.4,12.2-3.7,16.4c1,2.4,2.9,4.3,5.8,5.7
		c2.8,1.4,6.5,2.4,11.2,2.9c2.7,0.3,5.6,0.5,8.7,0.5c20.1,0,47.1-7.1,67-24.4c24.9-21.7,36.1-55,37.3-71
		C294.4,168.7,293.4,164.7,291,162z M181.4,265.1c-4.2-0.5-7.6-1.4-10-2.6c-2.1-1.1-3.4-2.3-4.1-3.9c-1.2-3-0.1-7.4,3.5-13.2
		c3.4-5.5,11.9-15.8,22.1-26.8c11-11.8,22.1-22.4,30.4-29l0.1,0c30.9-21.9,47.1-27.3,55.2-28c1.2-0.1,2.4-0.1,3.4,0
		c2.8,0.2,4.9,1.1,6.3,2.8c1.7,2,2.5,5.1,2.2,9.2c-1.3,16.5-13.3,48.7-36.1,68.5C230.8,262.5,197.8,267,181.4,265.1z"/>
	<path class="st0" d="M273.2,208.7c2.4-4.6,3.8-8.9,4.1-12.6c0.4-4.1-0.5-7.6-2.7-10.2c-2.1-2.6-5.3-4.2-9.5-4.6
		c-3.8-0.4-8.2,0.1-13.2,1.5c-10,2.9-21.3,9.2-31.8,17.7c-10.5,8.6-18.9,18.4-23.7,27.6c-2.4,4.6-3.8,8.9-4.1,12.7
		c-0.4,4.1,0.5,7.6,2.7,10.2c2.1,2.6,5.4,4.2,9.5,4.6c0.8,0.1,1.7,0.1,2.6,0.1c3.2,0,6.7-0.6,10.6-1.7c10.1-2.9,21.4-9.2,31.8-17.7
		C260,227.8,268.4,218,273.2,208.7z M264.8,184.7c3.2,0.4,5.6,1.5,7.1,3.3c1.5,1.9,2.2,4.5,1.9,7.6c-0.3,3.3-1.6,7.2-3.7,11.4
		c-4.6,8.8-12.7,18.3-22.7,26.5c-10.1,8.3-20.9,14.3-30.5,17c-4.5,1.3-8.6,1.8-11.9,1.4c-3.2-0.4-5.6-1.5-7.1-3.4
		c-1.5-1.9-2.2-4.4-1.9-7.6c0.3-3.3,1.6-7.2,3.7-11.3c4.6-8.8,12.7-18.3,22.8-26.5c10.1-8.2,20.9-14.3,30.5-17
		c3.5-1,6.8-1.5,9.7-1.5C263.4,184.6,264.2,184.6,264.8,184.7z"/>
	<path class="st0" d="M225,224.6c-1.8,0-3.3,1.5-3.3,3.3c0,1.8,1.5,3.3,3.3,3.3s3.3-1.5,3.3-3.3C228.3,226,226.8,224.6,225,224.6z
		 M225,227.5c0.2,0,0.3,0.1,0.3,0.3c0,0.2-0.1,0.3-0.3,0.3s-0.3-0.1-0.3-0.3C224.7,227.7,224.9,227.5,225,227.5z"/>
	<path class="st0" d="M231.2,219.5c-1.8,0-3.3,1.5-3.3,3.3c0,1.8,1.5,3.3,3.3,3.3c1.8,0,3.3-1.5,3.3-3.3
		C234.5,221,233,219.5,231.2,219.5z M231.2,222.5c0.2,0,0.3,0.1,0.3,0.3c0,0.2-0.1,0.3-0.3,0.3c-0.2,0-0.3-0.1-0.3-0.3
		S231.1,222.5,231.2,222.5z"/>
	<path class="st0" d="M237.5,214.6c-1.8,0-3.3,1.5-3.3,3.3c0,1.8,1.5,3.3,3.3,3.3c1.8,0,3.3-1.5,3.3-3.3
		C240.8,216,239.3,214.6,237.5,214.6z M237.5,217.5c0.2,0,0.3,0.1,0.3,0.3c0,0.2-0.1,0.3-0.3,0.3c-0.2,0-0.3-0.1-0.3-0.3
		S237.4,217.5,237.5,217.5z"/>
	<path class="st0" d="M243.8,209.6c-1.8,0-3.3,1.5-3.3,3.3s1.5,3.3,3.3,3.3c1.8,0,3.3-1.5,3.3-3.3S245.6,209.6,243.8,209.6z
		 M243.8,212.5c0.2,0,0.3,0.1,0.3,0.3c0,0.2-0.1,0.3-0.3,0.3s-0.3-0.1-0.3-0.3C243.5,212.7,243.6,212.5,243.8,212.5z"/>
	<path class="st0" d="M67.1,312.2c10.6-9.8,30.2-14.4,59.8-14.1c13.3,0.1,26.4,1.2,38,2.1c9.3,0.7,17.3,1.4,23.2,1.4
		c41.9,0,73.2-10.2,93.1-30.4c25.5-25.8,37.6-44.9,37.6-83.8v-1l-3.6,0v1c0,37.7-11.8,56.3-36.6,81.3
		c-19.2,19.4-49.7,29.3-90.6,29.3c-5.7,0-13.6-0.6-22.7-1.4c-11.7-0.9-25-2-38.5-2.1c-31-0.3-50.8,4.4-62.2,15l-0.7,0.7l2.4,2.6
		L67.1,312.2z"/>
	<path class="st0" d="M304.6,5.8h-13.1c-0.6,0-1.2,0.3-1.6,0.6V5.8h-6.4h-1.1h-5.3h-1.1h-5.3h-1.1h-5.3h-1.1H258h-1.1h-5.3h-1.1
		h-5.3h-1.1h-5.3h-1.1h-5.3h-1.1h-5.3H225h-5.3h-1.1h-5.3h-1.1h-5.3h-1.1h-5.3h-1.1h-5.3h-1.1h-5.3h-1.1h-5.3h-1.1H175h-1.1h-5.3
		h-1.1h-5.3h-1.1h-5.3h-1.1h-5.3h-1.1h-5.3H142h-5.3h-1.1h-5.3h-1.1h-5.3h-1.1h-5.3h-1.1h-5.3h-1.1h-5.3h-1.1h-6.4v0l-6.4,0V7
		c-0.1-0.1-0.1-0.2-0.2-0.3c-0.5-0.7-1.3-0.9-1.9-0.9H75.2l0,0h-1.8c-11.5,0-20.9,9.4-20.9,20.9v263.8c0,22.6,11,38.4,32.8,46.8
		c16.3,6.3,34.7,7.1,48.9,7.1h74.3c32.1,0,61.8-12.6,83.6-35.6c21.5-22.6,33.3-53.1,33.3-85.7V26.7C325.5,15.2,316.2,5.8,304.6,5.8z
		 M93.7,10.8V9.4h1.1v14.6c-0.1,0-0.1,0-0.1-0.1c-0.1-0.1-0.2-0.2-0.2-1h-1V10.8H93.7z M100.9,24.2V9.4h0.4v14.8H100.9z M107.3,24.2
		V9.4h0.4v14.8H107.3z M113.7,24.2V9.4h0.4v14.8H113.7z M120,24.2V9.4h0.4v14.8H120z M126.4,24.2V9.4h0.3v14.8H126.4z M132.8,24.2
		V9.4h0.4v14.8H132.8z M139.2,24.2V9.4h0.3v14.8H139.2z M145.6,24.2V9.4h0.4v14.8H145.6z M152,24.2V9.4h0.3v14.8H152z M158.3,24.2
		V9.4h0.4v14.8H158.3z M164.7,24.2V9.4h0.3v14.8H164.7z M171.1,24.2V9.4h0.4v14.8H171.1z M177.5,24.2V9.4h0.4v14.8H177.5z
		 M183.9,24.2V9.4h0.4v14.8H183.9z M190.2,24.2V9.4h0.4v14.8H190.2z M196.6,24.2V9.4h0.4v14.8H196.6z M203,24.2V9.4h0.4v14.8H203z
		 M209.4,24.2V9.4h0.4v14.8H209.4z M215.8,24.2V9.4h0.4v14.8H215.8z M222.2,24.2V9.4h0.4v14.8H222.2z M228.5,24.2V9.4h0.4v14.8
		H228.5z M234.9,24.2V9.4h0.3v14.8H234.9z M241.3,24.2V9.4h0.4v14.8H241.3z M247.7,24.2V9.4h0.3v14.8H247.7z M254.1,24.2V9.4h0.4
		v14.8H254.1z M260.5,24.2V9.4h0.3v14.8H260.5z M266.9,24.2V9.4h0.4v14.8H266.9z M273.2,24.2V9.4h0.4v14.8H273.2z M279.6,24.2V9.4
		h0.4v14.8H279.6z M285.1,10.8V9.4h1.2v13.6c0,0.4,0,0.8-0.1,1c-0.2,0.1-0.6,0.1-0.9,0.1l-0.3,0V10.8H285.1z M91.3,24.9
		c0.3,0.7,0.7,1.3,1.3,1.8c0.4,0.3,0.8,0.5,1.3,0.7h0C92.4,27.4,91.3,26.3,91.3,24.9z M73.5,9.4h4.9l0,0h9.4v15.5
		c0,3.4,2.8,6.1,6.1,6.1h192.5c3.4,0,6.1-2.7,6.1-6.1V9.4h12.2c9.6,0,17.3,7.8,17.3,17.3v196.4c0,8.9-0.9,17.5-2.6,25.7
		c-1.5-3-4.6-5.1-8.2-5.1c0,0,0,0,0,0c-3.2,0-6,1.5-7.7,4.1c-5.6,8.9-9.1,13-11.1,15.4c-0.4,0.5-0.8,1-1.1,1.3c-0.9,1.2-2,3-1.8,5.1
		c0.1,0.9,0.4,1.8,1,2.5l0,0.1l0.1,0c0.1,0.1,0.2,0.3,0.4,0.4c0.9,0.9,2.1,1.4,3.7,1.8c2.6,0.6,5.4,1.2,8.3,1.2c0.3,0,0.7,0,1,0
		c3.4-0.2,6.1-1.4,8.1-3.5c-17.6,40.8-56.8,68.5-103.4,68.5h-74.3c-13.9,0-31.9-0.8-47.6-6.9c-20.3-7.9-30.5-22.5-30.5-43.5V26.7
		C56.1,17.2,63.9,9.4,73.5,9.4z M304.6,252.6c0.9,0.1,1.9,0.1,3.1-0.1c-2.5,6.5-5.5,12.8-6.7,14.7l-0.6,0.8l1.4,1
		c-1.9,0.2-5.6,0.3-8.8,0.1c0.1-0.6,0.5-1.5,1-2.2c0.3-0.3,0.6-0.7,1-1.2C296.7,263.5,299.8,259.8,304.6,252.6z M310.1,269.1
		c-1.5,2-3.5,3-6.4,3.2c-0.1,0-0.3,0-0.4,0c0.8-0.2,1.7-0.6,2.4-1.4c0.9-0.9,1.5-2.2,2.5-4.2c1-2.2,2.4-5.2,3.5-7.7
		c1.4-3.3,2.3-5.4,2.6-6.5l0-0.2c0.2-0.7,0.3-1.3,0.2-1.9c-0.1-0.7-0.4-1.4-1-1.9c-0.5-0.4-1.1-0.7-1.8-0.6c-0.6,0-1.2,0.3-1.5,0.5
		c-0.1,0-0.4,0.2-0.8,0.3c-0.5,0.1-1.1,0.2-1.7,0.3c-0.2,0-0.4,0-0.5,0.1c1-1,2.4-1.7,3.9-1.7h0.2c3.1,0,5.7,2.5,5.7,5.7
		c0,0.8-0.5,3.6-1.9,6.9C313.6,263.5,311.8,266.8,310.1,269.1z"/>
</g>
</svg>
