<?xml version="1.0" encoding="utf-8"?>
<!-- Generator: Adobe Illustrator 24.0.1, SVG Export Plug-In . SVG Version: 6.00 Build 0)  -->
<svg version="1.1" id="svg4139" xmlns="http://www.w3.org/2000/svg" xmlns:xlink="http://www.w3.org/1999/xlink" x="0px" y="0px"
	 viewBox="0 0 189.7 57" style="enable-background:new 0 0 189.7 57;" xml:space="preserve">
<style type="text/css">
	.st0{fill:#FFFFFF;}
</style>
<title>sg-1000</title>
<g id="layer1">
	<g id="text4145">
		<path id="path6759" class="st0" d="M25.4,36.7c0.2,2.8-2,5.3-4.8,5.4c-0.2,0-0.5,0-0.7,0H0.4v-5.4h19.4v-5.5H5.4
			c-1.5,0.1-2.9-0.5-3.9-1.5c-1-1-1.6-2.5-1.5-3.9v-5.5c0-0.7,0.1-1.5,0.4-2.2c0.3-0.6,0.7-1.2,1.2-1.7c0.5-0.5,1.1-0.9,1.7-1.1
			C4,15,4.7,14.9,5.4,14.9h18.1v5.4H5.4v5.5h14.5c1.5,0,2.9,0.5,3.9,1.6c0.5,0.5,0.9,1.1,1.2,1.7c0.3,0.7,0.4,1.4,0.4,2.2V36.7z"/>
		<path id="path6761" class="st0" d="M57,42.1H35.2c-3.6,0-5.4-1.8-5.4-5.4V20.3c0-0.7,0.1-1.5,0.4-2.2c0.3-0.6,0.7-1.2,1.2-1.7
			c0.5-0.5,1.1-0.9,1.8-1.1c0.7-0.3,1.4-0.4,2.1-0.4H56v5.4H35.2v16.4h16.3v-5.5H40.6v-5.4H57V42.1z"/>
		<path id="path6763" class="st0" d="M77.4,31.2H61.1v-5.4h16.3V31.2z"/>
		<path id="path6765" class="st0" d="M96.4,42.1H80.1v-5.4h5.5V20.3h-5.5v-5.4H91v21.8h5.4V42.1z"/>
		<path id="path6767" class="st0" d="M127.2,36.7c0,3.6-1.8,5.4-5.4,5.4h-16.3c-3.6,0-5.4-1.8-5.4-5.4V20.3c0-0.7,0.1-1.5,0.4-2.2
			c0.3-0.6,0.7-1.2,1.2-1.7c0.5-0.5,1.1-0.9,1.7-1.1c0.7-0.3,1.4-0.4,2.1-0.4h16.3c0.7,0,1.4,0.1,2.1,0.4c0.7,0.3,1.2,0.7,1.7,1.2
			c1,1,1.6,2.4,1.6,3.9V36.7z M121.7,36.7V20.3h-16.3v16.4H121.7z"/>
		<path id="path6769" class="st0" d="M158.4,36.7c0,3.6-1.8,5.4-5.4,5.4h-16.3c-3.6,0-5.4-1.8-5.4-5.4V20.3c0-0.7,0.1-1.5,0.4-2.2
			c0.3-0.6,0.7-1.2,1.2-1.7c0.5-0.5,1.1-0.9,1.7-1.1c0.7-0.3,1.4-0.4,2.1-0.4H153c0.7,0,1.4,0.1,2.1,0.4c0.7,0.3,1.2,0.7,1.7,1.2
			c1,1,1.6,2.4,1.6,3.9V36.7z M153,36.7V20.3h-16.3v16.4H153z"/>
		<path id="path6771" class="st0" d="M189.7,36.7c0,3.6-1.8,5.4-5.4,5.4h-16.3c-3.6,0-5.4-1.8-5.4-5.4V20.3c0-0.7,0.1-1.5,0.4-2.2
			c0.3-0.6,0.7-1.2,1.1-1.7c0.5-0.5,1.1-0.9,1.7-1.1c0.7-0.3,1.4-0.4,2.1-0.4h16.3c0.7,0,1.4,0.1,2.1,0.4c0.7,0.3,1.3,0.7,1.8,1.2
			c1,1,1.6,2.4,1.6,3.9L189.7,36.7z M184.2,36.7V20.3h-16.3v16.4H184.2z"/>
	</g>
</g>
</svg>
