<?xml version="1.0" encoding="utf-8"?>
<!-- Generator: Adobe Illustrator 24.0.1, SVG Export Plug-In . SVG Version: 6.00 Build 0)  -->
<svg version="1.1"
	 id="Layer_3" xmlns:cc="http://creativecommons.org/ns#" xmlns:dc="http://purl.org/dc/elements/1.1/" xmlns:rdf="http://www.w3.org/1999/02/22-rdf-syntax-ns#"
	 xmlns="http://www.w3.org/2000/svg" xmlns:xlink="http://www.w3.org/1999/xlink" x="0px" y="0px" viewBox="0 0 372.6 350.3"
	 style="enable-background:new 0 0 372.6 350.3;" xml:space="preserve">
<g>
	<path style="fill:#FFFFFF;" d="M186.3,84.9c-30.1,0-54.6,24.5-54.6,54.6s24.5,54.6,54.6,54.6s54.6-24.5,54.6-54.6
		C240.9,109.5,216.4,84.9,186.3,84.9z M186.3,88.5c28.2,0,51.1,22.9,51.1,51.1s-22.9,51.1-51.1,51.1s-51.1-22.9-51.1-51.1
		S158.1,88.5,186.3,88.5z"/>
	<path style="fill:#FFFFFF;" d="M186.3,169.3c16.4,0,29.7-13.3,29.7-29.7s-13.3-29.7-29.7-29.7s-29.7,13.3-29.7,29.7
		S169.9,169.3,186.3,169.3z M186.3,113.5c14.4,0,26.1,11.7,26.1,26.1c0,14.4-11.7,26.2-26.1,26.2c-14.4,0-26.2-11.7-26.2-26.2
		C160.1,125.2,171.9,113.5,186.3,113.5z"/>
	<path style="fill:#FFFFFF;" d="M186.3,187.6c26.5,0,48-21.6,48-48c0-26.5-21.5-48-48-48s-48,21.5-48,48
		C138.2,166.1,159.8,187.6,186.3,187.6z M186.6,98.4v7.6c0,0.2-0.1,0.3-0.3,0.3s-0.4-0.1-0.4-0.3v-7.6c0-0.2,0.2-0.3,0.4-0.3
		S186.6,98.2,186.6,98.4z M156.9,110.2c0.1-0.1,0.4-0.1,0.5,0l5.4,5.4c0.1,0.1,0.1,0.4,0,0.5c-0.2,0.2-0.4,0.1-0.5,0l-0.1-0.1
		l-5.3-5.3C156.8,110.6,156.8,110.4,156.9,110.2z M154.4,113.2l5.4,5.4c0.7,0.7,1.7,1.1,2.7,1.1s2-0.4,2.7-1.1s1.1-1.7,1.1-2.7
		s-0.4-2-1.1-2.7l-5.4-5.4c-0.4-0.4-0.9-0.7-1.5-0.9v-0.2H157c-0.3,0-0.6,0-0.8,0.1c7.4-6.8,17.2-11.1,27.9-11.6
		c-1.1,0.7-1.9,1.9-1.9,3.3v7.6c0,2.1,1.7,3.9,3.9,3.9c2.1,0,3.9-1.7,3.9-3.9v-7.6c0-1.4-0.7-2.6-1.8-3.3c10.7,0.5,20.5,4.8,28,11.6
		c-1.3-0.3-2.7,0-3.6,1l-5.4,5.4c-1.5,1.5-1.5,4,0,5.5c0.7,0.7,1.7,1.1,2.7,1.1l0,0c1,0,2-0.4,2.7-1.1l5.4-5.4c1-1,1.3-2.3,1-3.6
		c6.8,7.4,11.1,17.2,11.6,27.9c-0.7-1.1-1.9-1.8-3.3-1.8h-7.6c-2.1,0-3.9,1.7-3.9,3.9c0,1.4,0.8,2.7,2.1,3.4v0.5h9.4
		c1.4,0,2.6-0.7,3.3-1.9c-0.5,10.7-4.8,20.5-11.6,27.9c0.3-1.3-0.1-2.6-1-3.6l-5.4-5.4c-0.7-0.7-1.7-1.1-2.7-1.1l0,0
		c-1,0-2,0.4-2.7,1.1c-1.5,1.5-1.5,4,0,5.5l5.4,5.4c0.8,0.8,1.7,1.1,2.7,1.1c0.3,0,0.6,0,0.8-0.1c-7.4,6.8-17.2,11.1-27.9,11.6
		c1.1-0.7,1.9-1.9,1.9-3.3v-7.6c0-2.1-1.7-3.9-3.9-3.9s-3.9,1.7-3.9,3.9v7.6c0,1.4,0.7,2.6,1.9,3.3c-10.7-0.5-20.5-4.8-27.9-11.6
		c0.3,0.1,0.6,0.1,0.8,0.1c1,0,2-0.4,2.7-1.1l5.4-5.4c0.7-0.7,1.1-1.7,1.1-2.7s-0.4-2-1.1-2.7c-0.7-0.7-1.7-1.1-2.7-1.1l0,0
		c-1,0-2,0.4-2.7,1.1l-5.4,5.4c-0.7,0.7-1.1,1.7-1.1,2.7c0,0.3,0,0.6,0.1,0.8c-6.8-7.4-11.1-17.2-11.6-27.9c0.7,1.1,1.9,1.9,3.3,1.9
		h7.6c2.1,0,3.9-1.7,3.9-3.9c0-1-0.4-2-1.1-2.7c-0.7-0.7-1.7-1.1-2.7-1.1h-7.6c-1.4,0-2.6,0.7-3.3,1.8c0.5-10.7,4.8-20.5,11.6-27.9
		c-0.1,0.3-0.1,0.5-0.1,0.8C153.3,111.5,153.7,112.5,154.4,113.2z M215.6,110.7l-5.4,5.4c-0.2,0.2-0.3,0.2-0.5,0
		c-0.1-0.1-0.1-0.4,0-0.5l5.4-5.4c0.1-0.1,0.2-0.1,0.3-0.1s0.2,0,0.3,0.1C215.8,110.4,215.8,110.6,215.6,110.7z M227.8,139.6
		c0,0.2-0.1,0.4-0.3,0.4h-7.6c-0.2,0-0.3-0.2-0.3-0.4s0.1-0.3,0.3-0.3h7.6C227.6,139.2,227.8,139.4,227.8,139.6z M215.6,168.9
		c-0.1,0.1-0.4,0.1-0.5,0l-5.4-5.4c-0.1-0.1-0.1-0.3,0-0.5c0.1-0.1,0.2-0.1,0.3-0.1s0.2,0,0.3,0.1l5.4,5.4
		C215.8,168.6,215.8,168.8,215.6,168.9z M186.3,181.1c-0.2,0-0.4-0.1-0.4-0.3v-7.6c0-0.2,0.2-0.3,0.4-0.3s0.3,0.1,0.3,0.3v7.6
		C186.6,181,186.5,181.1,186.3,181.1z M156.9,168.4l5.4-5.4c0.1-0.1,0.2-0.1,0.2-0.1s0.2,0,0.3,0.1s0.1,0.2,0.1,0.2s0,0.2-0.1,0.2
		l-5.4,5.4c-0.1,0.1-0.4,0.1-0.5,0C156.8,168.8,156.8,168.6,156.9,168.4z M144.8,139.6c0-0.2,0.1-0.3,0.3-0.3h7.6
		c0.2,0,0.3,0.1,0.3,0.3s-0.1,0.4-0.3,0.4h-7.6C144.9,139.9,144.8,139.8,144.8,139.6z"/>
	<path style="fill:#FFFFFF;" d="M186.3,157.6c9.9,0,18-8.1,18-18s-8.1-18-18-18s-18,8.1-18,18S176.4,157.6,186.3,157.6z
		 M186.3,125.1c8,0,14.4,6.5,14.4,14.4s-6.5,14.4-14.4,14.4c-8,0-14.4-6.5-14.4-14.4S178.3,125.1,186.3,125.1z"/>
	<path style="fill:#FFFFFF;" d="M186.3,163.8c13.4,0,24.2-10.9,24.2-24.2c0-13.4-10.9-24.2-24.2-24.2c-13.4,0-24.2,10.9-24.2,24.2
		C162,152.9,172.9,163.8,186.3,163.8z M186.3,118.9c11.4,0,20.7,9.3,20.7,20.7s-9.3,20.7-20.7,20.7s-20.7-9.3-20.7-20.7
		C165.6,128.2,174.9,118.9,186.3,118.9z"/>
	<path style="fill:#FFFFFF;" d="M250.3,13.8H123.6h-1.8v40.6h128.5L250.3,13.8L250.3,13.8z M125.3,50.9V17.4h121.4v33.5H125.3z"/>
	<path style="fill:#FFFFFF;" d="M253.9,5.7h-14.3l4.6,1.1c-0.3,0.2-0.6,0.4-0.9,0.7H129.5c-1.3-1.2-3.1-1.8-4.9-1.8h-6.8v0.1
		c-3.6,0.5-6.5,3.6-6.5,7.4v81.7c0,2.9,1.7,5.5,4.3,6.7v236.9c0,3.4,2.8,6.1,6.2,6.1H251c3.4,0,6.2-2.7,6.2-6.1V101.6
		c2.6-1.2,4.3-3.8,4.3-6.8V13.1C261.3,9,258,5.7,253.9,5.7z M117.1,9.6c-0.9,1.1-1.5,2.5-1.5,4v83.5c-0.5-0.6-0.7-1.4-0.7-2.3V13.1
		C114.8,11.6,115.7,10.2,117.1,9.6z M119.1,13.6c0-1.4,1.2-2.6,2.6-2.6h6.3l0.1,0.1l0.1-0.1h116.2l0.1,0.1l0.1-0.1h6.2
		c1.4,0,2.6,1.2,2.6,2.6v324.9c0,1.5-1.1,2.6-2.6,2.6H121.7c-1.5,0-2.6-1.1-2.6-2.6V13.6z M255.4,9.5c1.4,0.6,2.4,2,2.4,3.6v81.7
		c0,0.9-0.3,1.7-0.8,2.4V13.6C257,12,256.4,10.6,255.4,9.5z"/>
</g>
</svg>
