<?xml version="1.0" encoding="utf-8"?>
<!-- Generator: Adobe Illustrator 24.0.1, SVG Export Plug-In . SVG Version: 6.00 Build 0)  -->
<svg version="1.1"
	 id="Ebene_1" xmlns:cc="http://creativecommons.org/ns#" xmlns:dc="http://purl.org/dc/elements/1.1/" xmlns:inkscape="http://www.inkscape.org/namespaces/inkscape" xmlns:rdf="http://www.w3.org/1999/02/22-rdf-syntax-ns#" xmlns:sodipodi="http://sodipodi.sourceforge.net/DTD/sodipodi-0.dtd" xmlns:svg="http://www.w3.org/2000/svg"
	 xmlns="http://www.w3.org/2000/svg" xmlns:xlink="http://www.w3.org/1999/xlink" x="0px" y="0px" viewBox="0 0 337.6 110"
	 style="enable-background:new 0 0 337.6 110;" xml:space="preserve">
<sodipodi:namedview  bordercolor="#666666" borderopacity="1" fit-margin-bottom="0" fit-margin-left="0" fit-margin-right="0" fit-margin-top="0" gridtolerance="10" guidetolerance="10" id="namedview6" inkscape:current-layer="Ebene_1" inkscape:cx="159.6096" inkscape:cy="62.126444" inkscape:pageopacity="0" inkscape:pageshadow="2" inkscape:window-height="706" inkscape:window-maximized="1" inkscape:window-width="1366" inkscape:window-x="-8" inkscape:window-y="-8" inkscape:zoom="1.4318256" objecttolerance="10" pagecolor="#ffffff" showgrid="false">
	</sodipodi:namedview>
<path id="path3019-4" inkscape:connector-curvature="0" style="fill:#FFFFFF;" d="M14.4,13.1L14,13.5L2,26.9l-0.9,1l1.2,0.7L14,35.5
	l-0.1,0.2l-7.7-4.4l-0.9-0.5l-0.6,0.9L0.3,39l-0.5,0.8l0.8,0.6l10,8l0.3,0.3h0.4h14.4h0.7l0.3-0.6L32.5,37l0.4-0.8l-0.8-0.6L21,27.4
	l0.3-0.4l5.9,3.8l0.8,0.6l0.6-0.8l5.8-7.1l0.6-0.8L34.3,22l-8-8.5L26,13.2h-0.5H14.9L14.4,13.1L14.4,13.1z M15.3,15.3h9.8l7,7.4
	l-4.5,5.6l-5.9-3.8L20.9,24l-0.6,0.8L18.6,27l-0.7,0.9l0.9,0.7l11.3,8.3L25,46.5H11.7l-8.9-7.1L6,33.8l7.7,4.3l0.9,0.5l0.6-0.9
	l1.3-2l0.6-1l-1-0.6L4.6,27.3L15.3,15.3z"/>
<path id="path3021-3" inkscape:connector-curvature="0" style="fill:#FFFFFF;" d="M32.3,13.4v1.1v25.1V40l0.3,0.3l6.6,8l0.3,0.4H40
	h16.9h0.5l0.3-0.4l8-9L66,39v-0.4V16.9v-1.1h-1.1H51.1h-1.3l0.1,1.3l1.6,15.5l-3.3,2.3l0.6-20.3v-1.2h-1.2H33.4L32.3,13.4L32.3,13.4
	z M34.5,15.7h12.2L46,37.1v2.2l1.8-1.3l5.6-4l0.5-0.4l0-0.6l-1.5-14.9h11.4v20.2l-7.4,8.3H40.5l-6-7.3V15.7z"/>
<path id="path3023-1" inkscape:connector-curvature="0" style="fill:#FFFFFF;" d="M66.9,13.4l-0.1,1.1l-1.6,33.3L65.1,49h1.2h10.4
	h1.1v-1.1v-5.3l8.8-0.6H87l0.3-0.3l7.9-7.7l0.4-0.3v-0.5L95,19.9v-0.6L94.6,19l-7.9-5.4l-0.3-0.2h-0.3H68L66.9,13.4L66.9,13.4z
	 M69.1,15.6h16.7l7.2,4.9l0.6,12.2l-7.3,7.1l-9.5,0.6l-1,0.1v1v5.2h-8.1L69.1,15.6z M77.6,23.3l-0.1,1.3L77.2,30l-0.1,1l1,0.1
	l2.9,0.4l0.6,0.1l0.4-0.5l3.8-4.4l1.2-1.4L85.3,25l-6.4-1.4L77.6,23.3z M79.7,26.1l3.3,0.7l-2.1,2.5l-1.3-0.2L79.7,26.1z"/>
<path id="path3025-2" inkscape:connector-curvature="0" style="fill:#FFFFFF;" d="M96.3,13.2L96.2,14l-2.4,11.8V26v0.2l2.4,21.4
	l0.1,1h1h24.6h1.7l-0.7-1.6l-3.8-8.9l-0.3-0.7h-0.7l-9.5-0.1l-0.1-0.3l7.1-0.6l0.9-0.1l0.1-1l0.4-7.1l0.1-1.1L116,27l-8.4-0.6v-0.3
	l9.9-1.5l0.8-0.1l0.2-0.8l1.8-9.3l0.3-1.3h-1.3h-22L96.3,13.2L96.3,13.2z M98.2,15.4h19.6l-1.4,7.2l-10,1.5l-0.9,0.2v0.9l-0.2,2.3
	l-0.1,1.1l1.1,0.1l8.4,0.6l-0.3,5.1l-7.6,0.7l-1.4,0.1l0.4,1.3l0.8,2.4l0.3,0.8h0.8l9.6,0.1l2.8,6.7h-22l-2.3-20.3L98.2,15.4z"/>
<path id="path3027-3" inkscape:connector-curvature="0" style="fill:#FFFFFF;" d="M139.3,13.4h-0.4l-18.5,1.4l-1.1,0.1l0.1,1.1
	l2.6,31.7l0.1,1h1h10.3h1.3l-0.2-1.3l-1-5.6l7.8,6.7l0.5,0.4l0.7-0.3l9.7-4.2l1.6-0.7l-1.3-1.2l-7.4-6.5l3.9-4.4l0.3-0.3v-0.5
	l-0.8-10.4l-0.1-0.5l-0.4-0.3l-8.3-6L139.3,13.4z M138.7,15.7l7.5,5.5l0.7,9.4l-4.3,4.8l-0.8,0.8l0.8,0.7l6.9,6.2l-7.4,3.2l-9.6-8.2
	l-2.4-2l0.6,3.1l1.3,7.3h-8L121.6,17L138.7,15.7z M130.7,22l-0.1,1.8l-0.3,6.3v1l1,0.1l2.8,0.3l0.7,0.1l0.4-0.6l2.7-3.9l0.7-1
	l-1.1-0.6l-5.2-2.8L130.7,22L130.7,22z M132.8,25.6l2.5,1.3l-1.7,2.3l-1-0.1L132.8,25.6z"/>
<path id="path3029-3" inkscape:connector-curvature="0" style="fill:#FFFFFF;" d="M216.4,13.3h-0.8l-8.4,0.2h-0.6l-0.3,0.5l-4.3,7
	l-2.3-6.8l-0.3-0.8h-0.8H189h-0.7L188,14l-16,29.6l-0.7,1.3l1.5,0.3l12.6,2.4l0.8,0.2l0.4-0.8l6.8-14.4l5.2,6.9l0.7,1l0.9-0.8l7-6.3
	l2.2,6.3v0.1l2.3,8.1l0.3,0.9l0.9-0.1l11.9-1l1.3-0.1l-0.4-1.3l-9.2-32.2L216.4,13.3L216.4,13.3z M214.7,15.5l8.5,30l-9.7,0.8
	l-2-7.3l0,0l0,0l-2.8-7.9l-0.5-1.6l-1.3,1.1l-7.3,6.5l-5.6-7.4l-1.1-1.5l-0.8,1.7L185,45.3l-10.2-1.9l14.9-27.6h8l2.9,8.2l0.8,2.2
	l1.2-2l5.2-8.5L214.7,15.5z"/>
<path id="path3031-4" inkscape:connector-curvature="0" style="fill:#FFFFFF;" d="M245.5,13.3l-0.8,0.1l-8.9,0.9l-0.6,0.1l-0.3,0.5
	l-17.8,30l-0.8,1.4l1.6,0.3l13,2.3l1,0.2l0.3-1l2.2-7.6l9.1,0.2l0.9,7l0.2,1.1l1.1-0.2l13.5-2.2l1.5-0.2l-0.6-1.3L245.9,14
	L245.5,13.3z M244.2,15.6l13.2,28.8l-10.9,1.7l-0.9-6.8l-0.1-1h-1L233.6,38h-0.8l-0.3,0.8l-2.2,7.5l-10.5-1.8l16.8-28.2L244.2,15.6z
	 M237.5,25l-0.3,0.8l-1.8,4.6l-0.6,1.5l1.6,0.1l6.8,0.2l1.6,0.1l-0.5-1.5l-1.6-4.6l-0.2-0.8h-0.8l-3.4-0.2L237.5,25z M238.9,27.3
	l1.9,0.1l0.8,2.4l-3.7-0.1L238.9,27.3z"/>
<path id="path3033-1" inkscape:connector-curvature="0" style="fill:#FFFFFF;" d="M275.8,13.4h-0.4l-18.6,1.4l-1.1,0.1l0.1,1.1
	l2.6,31.7l0.1,1h1h10.3h1.3l-0.2-1.3l-1-5.6l7.8,6.7l0.5,0.4l0.6-0.3l9.7-4.2l1.6-0.7l-1.3-1.2l-7.4-6.5l3.9-4.4l0.3-0.3v-0.5
	l-0.8-10.4v-0.5l-0.4-0.3l-8.3-6L275.8,13.4z M275.2,15.7l7.5,5.5l0.7,9.4l-4.3,4.8l-0.8,0.8l0.8,0.7L286,43l-7.4,3.2L269,38l-2.3-2
	l0.5,3.1l1.3,7.3h-7.9L258.1,17L275.2,15.7z M267.3,22l-0.1,1.8l-0.3,6.3l-0.1,1l1,0.1l2.7,0.3l0.7,0.1l0.4-0.6l2.7-3.9l0.7-1
	l-1.1-0.6l-5.2-2.8L267.3,22L267.3,22z M269.3,25.6l2.5,1.3l-1.7,2.3l-1-0.1L269.3,25.6z"/>
<path id="path3035-1" inkscape:connector-curvature="0" style="fill:#FFFFFF;" d="M297,12.8l-1,0.1l-8.7,0.5l-1.1,0.1v1.1l1.2,32.7
	v1.2l1.2-0.1l14.2-1.6l1.2-0.1l-0.3-1.2L297,13.8L297,12.8z M295.2,15.2l6.3,29.5L289.7,46l-1.1-30.4L295.2,15.2z"/>
<path id="path3037-3" inkscape:connector-curvature="0" style="fill:#FFFFFF;" d="M314.4,13.3l-0.3,0.2l-10.5,6.7l-0.4,0.3l-0.1,0.5
	L301,35l-0.1,0.6l0.5,0.4l14.1,12.4l0.5,0.4l0.6-0.2l17.7-4.6l0.7-0.2l0.1-0.7l2.8-16l0.1-0.5l-0.3-0.4l-9.8-12.1l-0.3-0.4h-0.5
	l-12.2-0.4L314.4,13.3L314.4,13.3z M315.1,15.5l11.3,0.4l9.1,11.4L332.9,42l-16.4,4.3l-13.2-11.6l1.9-12.9L315.1,15.5z M316.7,24.8
	l-0.3,0.8l-2.3,5.1l-0.4,0.8l0.8,0.5l3.9,2.6l0.5,0.3l0.5-0.2l4.2-1.5l0.8-0.3v-0.8l-0.2-4.9v-0.9l-0.8-0.2l-5.6-1.3H316.7
	L316.7,24.8z M318,27.4l3.8,0.8l0.2,3.3l-2.8,1.1l-2.7-1.8L318,27.4z"/>
<path id="path3012-8" inkscape:connector-curvature="0" style="fill:#FFFFFF;" d="M114.1,51.7l-1.2,0.1L99.4,53l-1.7,0.2l0.4,1.6
	l10.3,41l0.3,1.1l1.2-0.1l9.6-0.3h0.8l0.4-0.8l4.3-8.4l2.8,8.2l0.3,1h1h10.5h0.9l0.4-0.8l18.1-38l0.8-1.6l-1.8-0.4l-14.2-3.1
	l-1.2-0.3l-0.4,1.1l-7.6,18.4l-5.6-8.5l-0.9-1.4l-1.3,1.2l-7.7,7.7l-2.3-7.7V63l-2.5-10.3L114.1,51.7L114.1,51.7z M111.9,54.7
	l2.3,9.2l0,0l0,0l3.1,10l0.7,2.3l1.7-1.7l8.2-8.1l6.1,9.2l1.5,2.2l1-2.5l8.2-19.7L156,58l-17,35.5h-8.6l-3.6-10.4l-1.1-3.2l-1.5,3
	l-5.4,10.7l-7.7,0.2l-9.6-38.3L111.9,54.7z"/>
<path id="path3014-7" inkscape:connector-curvature="0" style="fill:#FFFFFF;" d="M184.4,51.8l-1,0.1L172,53.1l-0.7,0.1l-0.4,0.6
	l-22.6,38.1l-1,1.8l2,0.3l16.5,2.9l1.3,0.3l0.3-1.3l2.8-9.7l11.5,0.3l1.2,8.8l0.2,1.4l1.4-0.2l17.2-2.7l1.8-0.3l-0.8-1.7l-17.9-39.1
	L184.4,51.8z M182.6,54.9l16.8,36.5l-13.8,2.2l-1.2-8.6l-0.2-1.2H183l-13.8-0.3h-1.1l-0.3,1.1l-2.8,9.5l-13.2-2.3l21.2-36
	L182.6,54.9z M174.1,66.8l-0.4,0.9l-2.3,5.8l-0.8,1.9l2,0.1l8.7,0.2l2,0.1l-0.7-1.9l-2-5.8l-0.3-0.9l-1-0.1l-4.4-0.2L174.1,66.8z
	 M176,69.7l2.4,0.1l1,3l-4.6-0.1L176,69.7z"/>
<path id="path3016-4" inkscape:connector-curvature="0" style="fill:#FFFFFF;" d="M222.8,52h-0.5l-23.5,1.8l-1.4,0.1l0.1,1.4
	l3.3,40.2l0.1,1.3h1.3h13h1.7l-0.3-1.7l-1.3-7.1l9.9,8.4l0.7,0.6l0.8-0.4l12.3-5.3l2-0.9l-1.7-1.5l-9.4-8.3l4.9-5.5l0.4-0.5V74
	l-1-13.2v-0.7l-0.5-0.4L223.2,52L222.8,52z M221.9,54.9l9.5,7l0.9,12l-5.5,6.1l-1,1.1L227,82l8.8,7.8l-9.4,4.1l-12.2-10.4l-3-2.6
	l0.7,3.9l1.7,9.3h-10.1l-3.1-37.5L221.9,54.9z M211.9,62.9l-0.1,2.3l-0.3,8.1v1.3l1.3,0.2l3.5,0.5l0.8,0.1l0.5-0.7l3.5-5l0.9-1.3
	l-1.4-0.8l-6.6-3.5L211.9,62.9L211.9,62.9z M214.5,67.5l3.2,1.7l-2.1,3l-1.3-0.2L214.5,67.5z"/>
</svg>
