<?xml version="1.0" encoding="UTF-8" standalone="no"?>
<!-- Created with Inkscape (http://www.inkscape.org/) by Toomai Glittershine for SmashWiki -->

<svg
   xmlns:dc="http://purl.org/dc/elements/1.1/"
   xmlns:cc="http://creativecommons.org/ns#"
   xmlns:rdf="http://www.w3.org/1999/02/22-rdf-syntax-ns#"
   xmlns:svg="http://www.w3.org/2000/svg"
   xmlns="http://www.w3.org/2000/svg"
   xmlns:sodipodi="http://sodipodi.sourceforge.net/DTD/sodipodi-0.dtd"
   xmlns:inkscape="http://www.inkscape.org/namespaces/inkscape"
   id="svg2"
   version="1.1"
   height="256"
   width="256"
   viewBox="0 0 256 256"
   inkscape:version="0.48.5 r10040"
   sodipodi:docname="controller.svg">
  <defs
     id="defs7" />
  <sodipodi:namedview
     pagecolor="#ffffff"
     bordercolor="#666666"
     borderopacity="1"
     objecttolerance="10"
     gridtolerance="10"
     guidetolerance="10"
     inkscape:pageopacity="0"
     inkscape:pageshadow="2"
     inkscape:window-width="708"
     inkscape:window-height="480"
     id="namedview5"
     showgrid="false"
     inkscape:zoom="0.921875"
     inkscape:cx="92.33666"
     inkscape:cy="91.45422"
     inkscape:window-x="0"
     inkscape:window-y="0"
     inkscape:window-maximized="0"
     inkscape:current-layer="svg2" />
  <metadata
     id="metadata7">
    <rdf:RDF>
      <cc:Work
         rdf:about="">
        <dc:format>image/svg+xml</dc:format>
        <dc:type
           rdf:resource="http://purl.org/dc/dcmitype/StillImage" />
        <dc:title></dc:title>
      </cc:Work>
    </rdf:RDF>
  </metadata>
  <path
     id="mainsymbolpath"
     style="opacity:0.50000000000000000;fill:#f4f4f4;fill-opacity:1;stroke:none"
     d="m 128,212.38632 c 15.9073,0 34.65561,-2.0023 43.11687,-11.16199 6.29934,-6.8193 7.95659,-19.35241 7.80515,-27.75713 C 175.5147,168.69696 159.88634,155.82487 128,155.82487 c -31.88634,0 -47.5147,12.87209 -50.92202,17.64233 -0.15144,8.40472 1.50581,20.93783 7.80515,27.75713 8.46126,9.15969 27.20957,11.16199 43.11687,11.16199 z m -24.43986,-33.69723 c 0,8.16157 0.77173,15.4721 4.85982,15.4721 4.08809,0 4.85983,-7.11217 4.85983,-15.27374 0,-8.16158 -0.17666,-15.27374 -4.61188,-15.27374 -4.43522,0 -5.10777,6.9138 -5.10777,15.07538 z m 48.87972,0 c 0,8.16157 -0.77173,15.4721 -4.85982,15.4721 -4.08809,0 -4.85983,-7.11217 -4.85983,-15.27374 0,-8.16158 0.17666,-15.27374 4.61188,-15.27374 4.43522,0 5.10777,6.9138 5.10777,15.07538 z M 42.65625,131.59375 c 0,5.69377 0.60849,10.63762 1.6875,14.96875 C 57.9451,135.81508 65.67652,105.32877 58,82.78125 47.61719,99.6068 42.65625,118.5715 42.65625,131.59375 z m 29.75013,53.36262 c -15.81763,-5.83563 -36.74304,-19.32486 -36.74304,-53.35092 0,-34.02606 28.13416,-96.21888 92.33666,-96.21888 64.2025,0 92.33666,62.19282 92.33666,96.21888 0,34.02606 -20.92541,47.51529 -36.74304,53.35092 -2.12331,24.99715 -21.42,34.49785 -55.59362,34.49785 -34.17362,0 -53.47031,-9.5007 -55.59362,-34.49785 z M 198,82.78125 c -7.67652,22.54752 0.0549,53.03383 13.65625,63.78125 1.07901,-4.33113 1.6875,-9.27498 1.6875,-14.96875 0,-13.02225 -4.96094,-31.98695 -15.34375,-48.8125 z m -70,-33.76804 c -24.04063,0 -43.529412,18.89219 -43.529412,42.19688 0,23.3047 19.488782,42.19688 43.529412,42.19688 24.04064,0 43.52942,-18.89218 43.52942,-42.19688 0,-23.30469 -19.48878,-42.19688 -43.52942,-42.19688 z" />
</svg>
