<?xml version="1.0" encoding="utf-8"?>
<!-- Generator: Adobe Illustrator 24.0.1, SVG Export Plug-In . SVG Version: 6.00 Build 0)  -->
<svg version="1.1" id="Ebene_1" xmlns="http://www.w3.org/2000/svg" xmlns:xlink="http://www.w3.org/1999/xlink" x="0px" y="0px"
	 viewBox="0 0 538.6 155" style="enable-background:new 0 0 538.6 155;" xml:space="preserve">
<title>snes</title>
<g id="g5">
	<path id="path2842" style="fill:#FFFFFF;" d="M55.9,86.2c0,6.9-11.2,12.5-25.1,12.5s-25-5.6-25-12.5l0,0c0-6.9,11.2-12.5,25.1-12.5
		S55.9,79.3,55.9,86.2z"/>
	<path id="path3624" style="fill:#FFFFFF;" d="M99.1,105.9c0,6.9-11.2,12.5-25.1,12.5s-25.1-5.6-25.1-12.5l0,0
		c0-6.9,11.2-12.5,25.1-12.5S99.1,99.1,99.1,105.9L99.1,105.9z"/>
	<path id="path3644" style="fill:#FFFFFF;" d="M56.9,35.7C44.3,35.8,34,45.8,33.7,58.3c0.5,0,1-0.1,1.6-0.1
		c12.8,0,23.2,10.4,23.2,23.2c0,0.2,0,0.4,0,0.6C71.3,81.2,81,70.1,80.2,57.3C79.3,45.2,69.1,35.7,56.9,35.7z"/>
	<path id="path3897" style="fill:#FFFFFF;" d="M100.8,56C88,56,77.6,66.4,77.6,79.3l0,0c0,0.3,0,0.6,0,0.8c0.3,0,0.6,0,0.9,0
		c12.5,0,22.7,9.9,23.2,22.4c12.8-0.5,22.8-11.3,22.3-24.1C123.6,65.8,113.3,56,100.8,56L100.8,56z"/>
</g>
<path id="polyline2177" style="fill:#FFFFFF;" d="M152.7,28.4c-4,0.2-7.3,3-8.1,6.9v0.2l-0.1,0.1v0.2l-0.1,0.1V36l-0.1,0.1v0.2
	l-0.1,0.1v0.2l-0.1,0.2L144,37l-0.1,0.4l-0.1,0.5l-0.1,0.5l-0.1,0.5l-0.1,0.5l-0.1,0.5l-0.1,0.6l-0.1,0.5l-0.2,1.2l-0.1,0.6
	l-0.1,0.5l-0.1,0.5l-0.1,0.5l-0.1,0.5l-0.1,0.5l-0.1,0.5l-0.1,0.4l-0.1,0.5v0.2L142,47v0.8l-0.1,0.2v0.3l-0.1,0.1v0.1
	c-0.1,1.7,0.2,4,0.7,4.4c0.7,3.7,13,20.8,12.6,23.4s-1.8,10.3-1.8,10.3c-0.4,2.6-2.2,4.7-4.8,4.7c-2.1,0.1-3.9-1.6-4-3.7
	c0-0.3,0-0.7,0.1-1l2.3-12.7h-9.2l-3.1,17.7c-0.7,2.8,1.1,5.7,4,6.3c0.5,0.1,1,0.2,1.5,0.1h13c3.8-0.1,7-2.8,7.7-6.4
	c0,0,3.4-16.5,3.4-17.7s-0.3-1.3-0.3-1.3c0-1.3-10.9-19.4-12.1-20.1c-0.5-0.3-0.9-2.1-0.9-3.1c0-1.1,1.4-8.3,1.4-8.3
	c0.5-2.6,2.8-4.6,5.5-4.7c2.6,0,3.7,2.1,3.2,4.7l-2,11.4h9.3l3.2-17.2c0.7-3.8-1.7-6.9-5.5-6.9C166,28.4,152.7,28.4,152.7,28.4z
	 M177.9,28.4l-11,63.2c-0.6,2.9,1.2,5.7,4,6.3c0.5,0.1,0.9,0.1,1.4,0.1h13.1c3.8-0.1,7.1-2.7,7.9-6.4L205,28.4h-8.3l-11.2,61.4
	c-0.2,0.9-1,1.6-1.9,1.7h-6.5c-0.8,0-1.4-0.6-1.4-1.3c0-0.1,0-0.2,0-0.3l11-61.5C186.7,28.4,177.9,28.4,177.9,28.4z M209.4,28.4
	L196.2,98h8.8l6-31.5h11.2c3.8-0.1,6.9-2.8,7.7-6.4l4.8-24.7c0.8-3.8-1.7-6.9-5.4-6.9L209.4,28.4L209.4,28.4z M240.7,28.4L227,97.9
	h19.7l1.4-8.6h-9.7l4-23.5h9.7l1.4-7.3h-9.7l4.3-21.6h9.7l1.4-8.6L240.7,28.4z M264.3,28.4L251.2,98h8.8l6-31.5h6.2
	c0.6,0.8,1,1.8,1,2.9c0.2,1.1,0.3,2.2,0.2,3.4c-0.1,1-4.8,25.3-4.8,25.3h8.7c0,0,5-26.4,5-26.8c0.1-0.9-0.1-1.7-0.5-2.5
	c-0.4-0.7-0.9-1.4-1.5-2c-0.8-0.5-1.7-0.9-2.6-1.3h-0.6c2.5-1,7.2-2.6,7.7-5.3l4.8-24.7c0.7-3.8-1.7-6.9-5.5-6.9L264.3,28.4z
	 M311.2,28.4L298,97.9h10.1l8.1-40.3l3.2,40.3h8.8l13.2-69.6h-10.1l-6.9,36.4l-4.5-36.4C319.9,28.3,311.2,28.3,311.2,28.4z
	 M346,28.4L332.8,98h8.8l13.2-69.6C354.8,28.3,346,28.3,346,28.4z M359.4,28.4L346.2,98h10.1l8.2-40.3l3.2,40.3h8.8l13.2-69.6h-10.1
	l-6.9,36.3l-4.5-36.4h-8.8L359.4,28.4L359.4,28.4z M393.4,28.4l-1.6,8.6h5.5l-10.8,61h10l11-61h5.3l1.4-8.6
	C414.2,28.3,393.4,28.3,393.4,28.4z M417.5,28.4L403.8,98h19.7l1.4-8.6h-9.7l4-23.5h9.7l1.4-7.3h-9.7l4.2-21.6h9.7l1.4-8.6H417.5z
	 M439.7,28.4L426.5,98h10.1l8.1-40.3l3.2,40.3h8.8l13.2-69.6h-10.1L453,64.8l-4.5-36.4C448.5,28.3,439.7,28.3,439.7,28.4z
	 M474.6,28.4L461.3,98h20c3.8-0.1,7-2.7,7.8-6.4l10.6-56.2c0.7-3.8-1.7-6.9-5.5-6.9L474.6,28.4z M512.2,28.4c-3.9,0.2-7.3,3-8,6.9
	l-9.8,56.2c-0.7,2.8,1.1,5.6,3.9,6.3c0.5,0.1,1,0.2,1.4,0.1h14.5c3.8-0.1,7-2.7,7.8-6.4l10.6-56.2c0.7-3.8-1.7-6.9-5.5-6.9H512.2z
	 M482.1,36.3h4c2.1-0.1,3.9,1.6,4,3.7c0,0.3,0,0.7-0.1,1l-8.7,45.6c-0.5,2.7-2.8,4.6-5.5,4.7h-4L482.1,36.3z M517.4,36.3h0.3
	c2.1-0.1,3.9,1.6,3.9,3.6c0,0.3,0,0.7-0.1,1l-8.2,45.6c-0.5,2.6-2.7,4.6-5.4,4.7c-2.6,0-3.7-2.1-3.2-4.7l8.2-45.5l0.1-0.2l0.1-0.2
	l0.1-0.3l0.1-0.2l0.1-0.3l0.1-0.2l0.1-0.2l0.1-0.2l0.1-0.2l0.1-0.2l0.1-0.2l0.1-0.2l0.1-0.1l0.1-0.2l0.1-0.2l0.2-0.1l0.1-0.1
	l0.1-0.1l0.2-0.1l0.2-0.1l0.1-0.1l0.2-0.1l0.2-0.5l0.2-0.1l0.1-0.1l0.3-0.1l0.2-0.1h0.2l0.2-0.1h0.3L517.4,36.3z M217.9,36.5h4.3
	c0.9,0,2.9,2.1,2.7,3.1l-3.6,17.2c-0.2,0.9-1.4,3-2.3,3h-5.3l-0.1-0.1h-0.3l0,0h-0.1l-0.1-0.1H213l-0.1-0.1l-0.1-0.1h-0.1v-0.1
	l-0.1-0.1l-0.1-0.1V59l-0.1-0.1l-0.1-0.1v-0.1l-0.1-0.1v0.1l-0.1-0.1v-0.1c0-0.1,0-0.3,0-0.4l4.1-21
	C216.9,36.8,217.4,36.7,217.9,36.5L217.9,36.5z M272.5,36.5h4.3c0.9,0,2.9,2.1,2.7,3.1l-3.7,17.1c-0.2,0.9-2.4,3-3.3,3h-3.8
	c-0.7,0-1.3-0.5-1.4-1.2l0,0c0-0.1,0-0.3,0-0.4l4-21l0.1-0.1l0.1-0.1l0.1-0.1h0.1l0.1-0.1l0.1-0.1h0.1l0.1-0.1h0.1l0.1-0.1
	L272.5,36.5L272.5,36.5L272.5,36.5z M133.3,103.9v22.8h391v-22.8C524.3,103.9,133.3,103.9,133.3,103.9z M420.7,106.3h3.4
	c0.7,0,1.2,0.5,1.2,1.2c0,0.1,0,0.2,0,0.3l-0.8,3.8h-1.8l0.4-2.5c0.1-0.4-0.2-0.9-0.6-1c-0.1,0-0.1,0-0.2,0c-0.6,0-1.1,0.4-1.2,1
	l-0.3,1.8c0,0.2,0.1,0.5,0.2,0.7c1,1.4,1.9,2.9,2.7,4.4c0.1,0.2,0.1,0.2,0.1,0.3c-0.1,0.5-0.8,3.9-0.8,3.9c-0.2,0.8-0.9,1.4-1.7,1.4
	h-2.9c-0.6,0-1.2-0.5-1.2-1.1c0-0.1,0-0.2,0-0.3l0.7-3.9h2l-0.5,2.8c-0.1,0.5,0.1,0.9,0.6,1.1c0.1,0,0.1,0,0.2,0
	c0.6,0,1.1-0.5,1.2-1.1l0.4-2.3c-0.4-0.9-2.8-4.4-3-5.2c-0.1-0.3-0.2-0.7-0.1-1c0-0.4,0.5-2.9,0.5-2.9h0.1v-0.2l0.1-0.1v-0.1
	l0.1-0.1v-0.1l0.1-0.1v0l0.1-0.1l0.1-0.1v-0.1h0.1l0.1-0.1l0.1-0.1l0.1-0.1v-0.1h0.1l0.1-0.1l0.1-0.1h0.1l0.1-0.1h0.1l0.1-0.1h0.2
	L420.7,106.3z M436.5,106.3h2.5l0.3,5.8l3.1-5.8h2.5l-5.1,8.9l-1.2,6.5h-2.2l1.1-7L436.5,106.3z M458.9,106.3h3.4
	c0.7,0,1.2,0.5,1.3,1.2c0,0.1,0,0.2,0,0.3l-0.8,3.8h-1.9l0.4-2.5c0.1-0.4-0.2-0.9-0.6-1c-0.1,0-0.1,0-0.2,0c-0.6,0-1.1,0.4-1.2,1
	L459,111c0,0.2,0.1,0.5,0.2,0.7c1,1.4,1.9,2.9,2.7,4.4c0,0.1,0.1,0.2,0.1,0.3c-0.1,0.5-0.7,3.9-0.7,3.9c-0.2,0.8-0.9,1.4-1.7,1.4h-3
	c-0.6,0-1.2-0.5-1.2-1.1c0-0.1,0-0.2,0-0.3l0.7-3.9h2l-0.5,2.8c-0.1,0.5,0.2,1,0.7,1.1c0.1,0,0.1,0,0.2,0c0.6-0.1,1.1-0.5,1.2-1.1
	l0.4-2.3c-0.4-0.9-2.8-4.4-2.9-5.2c-0.1-0.3-0.2-0.7-0.1-1c0-0.4,0.5-2.9,0.5-2.9l0.1-0.1v-0.1l0.1-0.1v-0.1l0.1-0.1v-0.1l0.1-0.1
	V107l0.1-0.1l0.1-0.1v-0.1h0.1l0.1-0.1l0.1-0.1l0.1-0.1l0.1-0.1L458.9,106.3l0-0.2h0.1l0.1-0.1h0.1l0.1-0.1L458.9,106.3L458.9,106.3
	z M474.9,106.3h4.6l-0.3,1.8H478l-2.4,13.6h-2.2l2.4-13.6h-1.2L474.9,106.3z M492.9,106.3h4.1l-0.3,1.8h-2.1l-1,4.9h2.2l-0.4,1.6
	h-2.1l-0.9,5.2h2.1l-0.3,1.9h-4.5L492.9,106.3z M509.8,106.3h2.5l0.4,8.9l3.8-8.8l2.5-0.1l-2.6,15.4h-1.9l1.2-8.2l-3.4,8.2h-1.4
	l-0.4-8.3l-1.5,8.3h-2.3L509.8,106.3z M141.9,106.8h4l-0.3,1.9h-2.3l-0.9,4.8h2.1l-0.2,1.6h-2.2l-0.8,5.2h2.1l-0.3,2h-4.4
	L141.9,106.8z M160.8,106.8h1.9l1,8.1l1.5-8.1h2.3l-3,15.5h-1.9l-0.8-9l-1.8,9h-2.3L160.8,106.8z M181.3,106.8h4.5l-0.3,1.9h-1.3
	l-2.5,13.6h-2.2l2.4-13.6h-1.2L181.3,106.8z M201.3,106.8h4l-0.3,1.9h-2.2l-1,4.8h2.1l-0.3,1.7h-2.1l-0.9,5.2h2.1l-0.2,2h-4.4
	L201.3,106.8z M220.6,106.8h4.4c0.7,0,1.2,0.6,1.2,1.2c0,0.1,0,0.2-0.1,0.3l-1,5.5c-0.1,0.6-1.2,1.1-1.7,1.3h0.3v0.1h0.3l0.1,0.1
	h0.2l0,0h0.1v0.1l0,0c0.1,0.2,0.1,0.5,0.1,0.8c0,0.1-1.1,6.1-1.1,6.1h-2c0,0,1.1-5.4,1.1-5.6c0-0.3,0-0.5-0.1-0.8
	c0-0.2-0.1-0.4-0.2-0.6h-1.4l-1.3,7h-2L220.6,106.8z M240.2,106.8h4.6l-0.3,1.9h-1.2l-2.6,13.6h-2.2l2.4-13.6h-1.2L240.2,106.8z
	 M263,106.8h2.6l-0.9,15.5h-2.6l0.3-3.6h-1.6l-1.3,3.6h-2.3L263,106.8z M281.2,106.8h2l-3,15.5h-1.9L281.2,106.8z M298.9,106.8h1.9
	l1,8.1l1.5-8.1h2.2l-3,15.5h-2l-0.7-9l-1.8,9h-2.3L298.9,106.8z M321.5,106.8h2.5l0.4,9l3.9-8.9h2.5l-2.7,15.4h-1.9l1.2-8.2
	l-3.4,8.2h-1.3l-0.4-8.4l-1.5,8.4h-2.2L321.5,106.8z M346.4,106.8h4l-0.3,1.9h-2.2l-0.9,4.8h2.1l-0.3,1.7h-2.2l-0.9,5.2h2.2l-0.5,2
	h-4.3L346.4,106.8z M366.3,106.8h1.9l1,8.1l1.5-8.1h2.2l-3,15.5H368l-0.7-9l-1.8,9h-2.3L366.3,106.8z M386.6,106.8h4.6l-0.3,1.9
	h-1.2l-2.5,13.6H385l2.4-13.6h-1.2L386.6,106.8z M222.3,108.8c-0.1,0-0.2,0.1-0.3,0.1l-0.9,4.7v0.1c0,0.1,0.1,0.3,0.3,0.3l0,0h0.9
	c0.3-0.1,0.6-0.3,0.8-0.6l0.8-3.8c0-0.3-0.3-0.6-0.5-0.7L222.3,108.8L222.3,108.8z M262.9,113.3l-1.4,3.9h1.1L262.9,113.3z"/>
</svg>
