<?xml version="1.0" encoding="utf-8"?>
<!-- Generator: Adobe Illustrator 24.0.1, SVG Export Plug-In . SVG Version: 6.00 Build 0)  -->
<svg version="1.1"
	 id="Layer_3" xmlns:cc="http://creativecommons.org/ns#" xmlns:dc="http://purl.org/dc/elements/1.1/" xmlns:rdf="http://www.w3.org/1999/02/22-rdf-syntax-ns#"
	 xmlns="http://www.w3.org/2000/svg" xmlns:xlink="http://www.w3.org/1999/xlink" x="0px" y="0px" viewBox="0 0 600 400"
	 style="enable-background:new 0 0 600 400;" xml:space="preserve">
<g>
	<path id="path3_1_" style="fill:#F4F4F4;" d="M132.8,73.9c-22.1,0-42.8,4.7-60.8,14.9l0,0l0,0c-1,0.5-1.5,1.5-1.6,2.4
		c-0.1,1,0,1.9,0,3.2h1.9c0-1.4-0.1-2.4,0-3s0.1-0.7,0.7-1l0,0c17.7-9.9,38.1-14.6,59.9-14.6h62.6c1.4,0,2.9,0.2,3.9,0.6
		s1.6,1,1.6,2.3h1.9c0-2-1.2-3.4-2.7-4c-1.5-0.7-3.2-0.8-4.7-0.8H132.8L132.8,73.9L132.8,73.9z"/>
	<path style="fill:#F4F4F4;" d="M73.2,95.4h-3.9v-1c0-0.4,0-0.8,0-1.2c0-0.7,0-1.4,0-2.1c0.1-1.1,0.7-2.2,1.6-2.9v-0.1l0.8-0.4
		c17.6-9.8,38.1-14.8,61-14.8l0,0h62.6c1.3,0,3.3,0.1,5.1,0.9c2,0.9,3.3,2.8,3.3,4.9v1h-3.9v-1c0-0.7-0.2-1-1-1.3s-2.1-0.5-3.5-0.5
		h-62.6c-22.3,0-42.3,4.9-59.4,14.5l-0.2,0.1v0.1c0,0.3,0,0.7,0,1.3c0,0.5,0,1,0,1.6L73.2,95.4L73.2,95.4z"/>
</g>
<g>
	<path id="path5_1_" style="fill:#F4F4F4;" d="M131.7,77.7C63.1,77.7,7.5,133.3,7.5,201.9s55.6,124.2,124.2,124.2
		c27.1,0,52.1-8.7,72.5-23.4l0,0l2.6-2l0,0l0,0c4.1-3.3,9.3-5.2,15-5.2h45.8h64.6H378c5.7,0,10.9,1.9,15,5.2l0,0l0,0l2.6,2l0,0
		c20.4,14.7,45.5,23.4,72.5,23.4c68.6,0,124.2-55.6,124.2-124.2S536.7,77.7,468.1,77.7h-135h-25h-1v1V80H293v-1.3v-1h-1h-25.3
		L131.7,77.7L131.7,77.7z M131.7,79.6h135H291v1.3v1h1h16.2h1v-1v-1.3h24h135c67.6,0,122.3,54.7,122.3,122.3
		s-54.7,122.3-122.3,122.3c-26.7,0-51.3-8.5-71.4-23l0,0l-2.5-2c-4.4-3.5-10.1-5.7-16.2-5.7h-45.8h-64.6h-45.8
		c-6.1,0-11.7,2.1-16.2,5.7l-2.5,2l0,0c-20.1,14.5-44.7,23-71.4,23c-67.6,0-122.3-54.7-122.3-122.3C9.4,134.3,64.2,79.6,131.7,79.6
		L131.7,79.6z"/>
	<path style="fill:#F4F4F4;" d="M468.3,327.1c-26.5,0-51.7-8.1-73.1-23.6l-0.1-0.1l-2.9-2.2c-4-3.1-8.9-4.7-14-4.7H221.9
		c-5.2,0-10.2,1.7-14.3,4.9l-0.4,0.3l-2.4,1.8c-21.4,15.4-46.7,23.6-73.1,23.6c-69,0-125.2-56.2-125.2-125.2S62.7,76.7,131.7,76.7
		H294v2.2h12.3v-2.2h162c69.1,0,125.2,56.2,125.2,125.2S537.3,327.1,468.3,327.1z M131.7,80.6C64.8,80.6,10.4,135,10.4,201.9
		s54.4,121.3,121.3,121.3c25.6,0,50.1-7.9,70.8-22.8l0.3-0.2l2.3-1.7c4.8-3.8,10.6-5.9,16.8-5.9h156.3c6.2,0,12,2,16.8,5.9l2.5,1.9
		c20.7,14.9,45.2,22.8,70.8,22.8c66.9,0,121.3-54.4,121.3-121.3S535.2,80.6,468.3,80.6h-158v2.2h-20.2v-2.2H133.7l0,0L131.7,80.6
		L131.7,80.6z"/>
</g>
<g>
	<path id="path7_1_" style="fill:#F4F4F4;" d="M404.6,73.9c-1.5,0-3.2,0.1-4.7,0.8s-2.7,2.1-2.7,4h1.9c0-1.3,0.5-1.8,1.6-2.3
		c1-0.5,2.5-0.6,3.9-0.6h62.6c21.8,0,42.2,4.7,59.9,14.6l0,0c0.6,0.3,0.6,0.4,0.7,1c0.1,0.6,0,1.6,0,3h1.9c0-1.3,0.1-2.3,0-3.2
		c-0.1-0.9-0.6-1.9-1.6-2.4l0,0l0,0c-18-10.1-38.8-14.9-60.8-14.9H404.6L404.6,73.9z"/>
	<path style="fill:#F4F4F4;" d="M530.7,95.4h-3.9v-1c0-0.6,0-1.1,0-1.6c0-0.6,0-1,0-1.3c0-0.1,0-0.1,0-0.1l-0.2-0.1
		c-17.1-9.6-37.1-14.5-59.4-14.5h-62.6c-1.4,0-2.7,0.2-3.5,0.5c-0.8,0.4-1,0.6-1,1.3v1h-3.9v-1c0-2.2,1.2-4,3.3-4.9
		c1.7-0.8,3.7-0.9,5.1-0.9h62.6c22.9,0,43.5,5,61.1,14.9l0.9,0.4v0.1c0.8,0.7,1.4,1.7,1.5,2.7c0.1,0.7,0.1,1.4,0,2.1
		c0,0.4,0,0.8,0,1.2V95.4z"/>
</g>
<g>
	<path id="circle9_1_" style="fill:#F4F4F4;" d="M132.3,134.8c-36.8,0-66.7,29.9-66.7,66.7s29.9,66.7,66.7,66.7s66.7-29.9,66.7-66.7
		C199.1,164.7,169.2,134.8,132.3,134.8z M132.3,136.7c35.8,0,64.8,29,64.8,64.8s-29,64.8-64.8,64.8s-64.8-29-64.8-64.8
		C67.6,165.7,96.6,136.7,132.3,136.7z"/>
	<path style="fill:#F4F4F4;" d="M132.3,269.2c-37.3,0-67.7-30.4-67.7-67.7s30.4-67.7,67.7-67.7s67.7,30.4,67.7,67.7
		C200.1,238.8,169.7,269.2,132.3,269.2z M132.3,137.7c-35.2,0-63.8,28.6-63.8,63.8s28.6,63.8,63.8,63.8s63.8-28.6,63.8-63.8
		S167.5,137.7,132.3,137.7z"/>
</g>
<g>
	<path id="path13_1_" style="fill:#F4F4F4;" d="M119.1,149.7c-3.1,0-5.6,2.5-5.6,5.6v26.2c0,0.5-0.1,0.6,0,0.5s0,0-0.6,0H86.7
		c-3.1,0-5.7,2.6-5.7,5.7v27.5c0,3.1,2.6,5.7,5.7,5.7h26.1c0.5,0,0.6,0.1,0.6,0.1s0.1,0.1,0.1,0.5v26.2c0,3.1,2.5,5.6,5.6,5.6h26.5
		c3.1,0,5.6-2.5,5.6-5.6v-26.3c0-0.3,0-0.4,0.1-0.4c0,0,0.2-0.1,0.6-0.1H178c3.1,0,5.7-2.6,5.7-5.7v-27.5c0-3.1-2.6-5.7-5.7-5.7
		h-26.2c-0.3,0-0.5-0.1-0.5-0.1c-0.1-0.1-0.1-0.2-0.1-0.5v-26.2c0-3.1-2.5-5.6-5.6-5.6L119.1,149.7L119.1,149.7z M119.1,151.6h26.5
		c2.1,0,3.7,1.6,3.7,3.7v26.2c0,0.7,0.2,1.4,0.7,1.8c0.5,0.5,1.2,0.7,1.9,0.7H178c2.1,0,3.7,1.7,3.7,3.7v27.5c0,2.1-1.7,3.7-3.7,3.7
		h-26.1c-0.7,0-1.4,0.2-1.9,0.7s-0.7,1.2-0.7,1.8v26.3c0,2.1-1.6,3.7-3.7,3.7h-26.5c-2.1,0-3.7-1.6-3.7-3.7v-26.2
		c0-0.7-0.2-1.4-0.7-1.9s-1.2-0.6-1.9-0.6H86.7c-2.1,0-3.7-1.7-3.7-3.7v-27.5c0-2.1,1.7-3.7,3.7-3.7h26.2c0.8,0,1.6-0.1,2.1-0.7
		c0.5-0.6,0.5-1.2,0.5-1.8v-26.2C115.4,153.3,117,151.6,119.1,151.6L119.1,151.6z"/>
	<path style="fill:#F4F4F4;" d="M145.6,254.3h-26.5c-3.7,0-6.6-3-6.6-6.6v-25.8H86.7c-3.7,0-6.7-3-6.7-6.7v-27.5
		c0-3.7,3-6.7,6.7-6.7h25.8v-25.8c0-3.7,3-6.6,6.6-6.6h26.5c3.7,0,6.6,3,6.6,6.6V181H178c3.7,0,6.7,3,6.7,6.7v27.5
		c0,3.7-3,6.7-6.7,6.7h-25.8v25.8C152.2,251.3,149.3,254.3,145.6,254.3z M86.7,185c-1.5,0-2.7,1.2-2.7,2.7v27.5
		c0,1.5,1.2,2.7,2.7,2.7h26.1c0.7,0,1.8,0.1,2.6,0.9c0.7,0.6,1,1.6,1,2.7v26.2c0,1.5,1.2,2.7,2.7,2.7h26.5c1.5,0,2.7-1.2,2.7-2.7
		v-26.3c0-1,0.4-1.9,1-2.5s1.5-0.9,2.6-0.9H178c1.5,0,2.7-1.2,2.7-2.7v-27.5c0-1.5-1.2-2.7-2.7-2.7h-26.2c-1,0-1.9-0.3-2.6-0.9
		c-0.6-0.6-1-1.5-1-2.5v-26.2c0-1.5-1.2-2.7-2.7-2.7H119l0,0c-0.7,0-1.4,0.3-1.9,0.8s-0.8,1.2-0.8,1.9v26.2c0,0.7,0,1.6-0.7,2.5
		c-0.8,0.9-1.9,1-2.8,1H86.7V185z M151.7,221.9L151.7,221.9L151.7,221.9z"/>
</g>
<g>
	<path id="path25_1_" style="fill:#F4F4F4;" d="M260.1,199.7c-2.3-0.2-4.6,0.5-6.5,2l-25.2,21.1c-3.7,3.1-4.2,8.7-1.1,12.5
		c3.1,3.7,8.7,4.2,12.5,1.1l25.2-21.1c3.7-3.1,4.2-8.7,1.1-12.5C264.6,200.9,262.4,199.9,260.1,199.7L260.1,199.7L260.1,199.7z
		 M260,201.6c1.8,0.2,3.5,1,4.7,2.4c2.5,2.9,2.1,7.3-0.8,9.7l-25.2,21.1c-2.9,2.5-7.3,2.1-9.7-0.8c-2.5-2.9-2.1-7.3,0.9-9.7
		l25.2-21.1C256.4,202,258.2,201.4,260,201.6L260,201.6z"/>
	<path style="fill:#F4F4F4;" d="M234.2,239.4c-2.8,0-5.6-1.2-7.5-3.5c-1.7-2-2.5-4.6-2.2-7.2c0.2-2.6,1.5-5,3.5-6.7l25-21
		c1.9-1.6,4.4-2.4,6.9-2.3l0,0h0.3c2.6,0.2,5,1.5,6.7,3.5c3.5,4.2,2.9,10.4-1.2,13.9l-25.2,21.1
		C238.6,238.7,236.4,239.4,234.2,239.4z M259.4,202.6c-1.4,0-2.7,0.5-3.8,1.4l-25.2,21.1c-1.2,1-2,2.4-2.1,4s0.3,3.1,1.4,4.3
		c2.1,2.5,5.8,2.8,8.3,0.7l25.2-21.1c2.5-2.1,2.8-5.8,0.7-8.3c-1-1.2-2.4-1.9-4-2.1h-0.2C259.6,202.6,259.5,202.6,259.4,202.6z"/>
</g>
<g>
	<path id="path29_1_" style="fill:#F4F4F4;" d="M323.1,199.7c-2.3-0.2-4.6,0.5-6.4,2l-25.2,21.1c-3.7,3.1-4.2,8.7-1.1,12.4l0,0
		c3.1,3.7,8.7,4.2,12.5,1.1l25.2-21.1c3.7-3.1,4.2-8.7,1.1-12.4C327.5,200.9,325.4,199.9,323.1,199.7L323.1,199.7z M322.9,201.6
		c1.8,0.2,3.5,1,4.7,2.4c2.5,2.9,2.1,7.3-0.8,9.7l-25.2,21.1c-2.9,2.5-7.3,2.1-9.7-0.8s-2.1-7.3,0.9-9.7l25.2-21.1
		C319.4,202,321.2,201.4,322.9,201.6L322.9,201.6z"/>
	<path style="fill:#F4F4F4;" d="M297.1,239.4c-0.3,0-0.6,0-0.9,0c-2.6-0.2-5-1.5-6.7-3.5l-0.2-0.3c-3.2-4.1-2.6-10.1,1.5-13.5
		L316,201c2-1.7,4.6-2.5,7.2-2.3l0,0c2.6,0.2,5,1.5,6.7,3.5c3.5,4.2,2.9,10.4-1.2,13.9l-25.2,21.1
		C301.7,238.6,299.5,239.4,297.1,239.4z M322.3,202.6c-1.4,0-2.7,0.5-3.8,1.4l-25.2,21.1c-1.2,1-2,2.4-2.1,4s0.3,3.1,1.4,4.3
		c2.1,2.5,5.8,2.8,8.3,0.7l25.2-21.1c2.5-2.1,2.8-5.8,0.7-8.3c-1-1.2-2.4-1.9-4-2.1C322.7,202.6,322.5,202.6,322.3,202.6z"/>
</g>
<g>
	<path id="path33_1_" style="fill:#F4F4F4;" d="M468.8,91.2c-61,0-110.5,49.5-110.5,110.5s49.5,110.5,110.5,110.5
		c34.6,0,65.5-15.9,85.8-40.9l0.1-0.1l0.1-0.1l0.2-0.5l0.5-1.1l-1.2-0.2c-0.7-0.1-1.2-0.7-1.2-1.4c0-0.8,0.6-1.4,1.4-1.4
		c0.7,0,1.2,0.4,1.4,1l0.6,2.1l1.2-1.9l0.5-0.9v-0.1c13.3-18.2,21.2-40.7,21.2-65C579.3,140.7,529.8,91.2,468.8,91.2L468.8,91.2
		L468.8,91.2z M468.8,93.1c60,0,108.5,48.6,108.5,108.6c0,23.8-7.7,45.8-20.7,63.8c-0.6-0.6-1.3-1-2.2-1c-1.8,0-3.3,1.5-3.3,3.3
		c0,1.2,0.7,2.1,1.7,2.6c-19.9,24.3-50.1,39.8-83.9,39.8c-60,0-108.6-48.6-108.6-108.5S408.9,93.1,468.8,93.1L468.8,93.1z"/>
	<path style="fill:#F4F4F4;" d="M468.8,313.1c-61.5,0-111.5-50-111.5-111.5c0-61.3,49.8-111.3,111.1-111.5l0,0h0.4
		c61.5,0,111.5,50,111.5,111.5c0,23.8-7.4,46.4-21.3,65.6v0.1l-1.7,2.8L556,272l-0.2-0.8l-0.3,0.6
		C534.1,298.1,502.6,313.1,468.8,313.1z M468.8,94.1c-59.3,0-107.6,48.3-107.6,107.6s48.3,107.5,107.6,107.5c32,0,62-14.1,82.5-38.6
		c-0.8-0.8-1.3-1.7-1.3-2.8c0-2.4,1.9-4.3,4.3-4.3c0.7,0,1.4,0.2,2,0.6c13-18.3,19.9-39.8,19.9-62.3c0-59.3-48.2-107.5-107.4-107.6
		l0,0h0V94.1z M554.4,267.4c-0.2,0-0.4,0.2-0.4,0.4c0,0.2,0.2,0.4,0.4,0.4l0.6,0.1l-0.2-0.6C554.8,267.5,554.6,267.4,554.4,267.4z
		 M556.6,266.8c0,0.1,0.1,0.2,0.1,0.3l0.3-0.5l-0.3,0.4L556.6,266.8z"/>
</g>
<g>
	<path id="circle35_1_" style="fill:#F4F4F4;" d="M412.6,179.8c-12.6,0-22.8,10.2-22.8,22.8s10.2,22.8,22.8,22.8
		c12.6,0,22.8-10.2,22.8-22.8S425.1,179.8,412.6,179.8z M412.6,181.7c11.5,0,20.8,9.3,20.8,20.8s-9.3,20.8-20.8,20.8
		s-20.8-9.3-20.8-20.8C391.7,191,401.1,181.7,412.6,181.7L412.6,181.7z"/>
	<path style="fill:#F4F4F4;" d="M412.6,226.3c-13.1,0-23.8-10.7-23.8-23.8s10.7-23.8,23.8-23.8c13.1,0,23.8,10.7,23.8,23.8
		S425.7,226.3,412.6,226.3z M412.6,182.7c-10.9,0-19.8,8.9-19.8,19.8c0,10.9,8.9,19.8,19.8,19.8s19.8-8.9,19.8-19.8
		C432.4,191.6,423.5,182.7,412.6,182.7z"/>
</g>
<g>
	<path id="circle37_1_" style="fill:#F4F4F4;" d="M467.9,136.7c-12.6,0-22.7,10.2-22.7,22.8s10.2,22.8,22.7,22.8
		c12.6,0,22.8-10.2,22.8-22.8C490.6,146.9,480.4,136.7,467.9,136.7z M467.9,138.6c11.5,0,20.8,9.3,20.8,20.8s-9.3,20.8-20.8,20.8
		S447,171,447,159.5C447,147.9,456.3,138.6,467.9,138.6z"/>
	<path style="fill:#F4F4F4;" d="M467.9,183.2c-13.1,0-23.7-10.7-23.7-23.8s10.6-23.8,23.7-23.8s23.8,10.7,23.8,23.8
		C491.6,172.6,481,183.2,467.9,183.2z M467.9,139.6c-10.9,0-19.8,8.9-19.8,19.8c0,10.9,8.9,19.8,19.8,19.8s19.8-8.9,19.8-19.8
		C487.7,148.5,478.8,139.6,467.9,139.6z"/>
</g>
<g>
	<path id="path39_1_" style="fill:#F4F4F4;" d="M465.9,130.4c-5.5,0.4-11,2.3-15.7,6L395,179.5c-12.5,9.7-14.8,27.8-5,40.3
		c9.7,12.5,27.8,14.7,40.3,5l55.3-43c12.5-9.7,14.8-27.8,5-40.3C484.5,133.6,475.1,129.8,465.9,130.4L465.9,130.4z M466.1,132.3
		c8.6-0.6,17.3,3,23,10.3c9.1,11.7,7,28.5-4.7,37.6l-55.3,43.1c-11.7,9.1-28.5,7-37.6-4.7s-7-28.5,4.7-37.6l55.3-43
		C455.8,134.6,460.9,132.7,466.1,132.3L466.1,132.3z"/>
	<path style="fill:#F4F4F4;" d="M412.6,231.9c-8.9,0-17.6-3.9-23.5-11.4c-4.9-6.3-7-14-6-21.9s5-14.9,11.2-19.8l55.3-43.1
		c4.4-3.4,9.6-5.5,15.1-6.1l0,0l1.1-0.1c9.9-0.7,19.4,3.6,25.5,11.4c4.9,6.3,7,14.1,6,21.9c-1,7.9-5,14.9-11.2,19.8l-55.3,43
		C425.5,229.8,419,231.9,412.6,231.9z M467.9,133.3c-0.6,0-1.2,0-1.8,0.1l0,0c-5.1,0.3-10,2.2-14.1,5.4l-55.3,43
		c-11.2,8.7-13.3,25-4.5,36.2c4.2,5.4,10.3,8.9,17.2,9.8c6.8,0.9,13.6-1,19-5.2l55.3-43.1c5.4-4.2,8.9-10.3,9.8-17.2
		c0.9-6.8-1-13.6-5.2-19C483.4,136.9,475.8,133.3,467.9,133.3z"/>
</g>
<g>
	<path id="circle41_1_" style="fill:#F4F4F4;" d="M469.7,221.8c-12.6,0-22.8,10.2-22.8,22.8s10.2,22.7,22.8,22.7
		s22.7-10.2,22.7-22.7S482.2,221.8,469.7,221.8z M469.7,223.7c11.5,0,20.8,9.3,20.8,20.8s-9.3,20.8-20.8,20.8s-20.8-9.3-20.8-20.8
		C448.8,233.1,458.2,223.7,469.7,223.7z"/>
	<path style="fill:#F4F4F4;" d="M469.7,268.3c-13.1,0-23.8-10.6-23.8-23.7c0-13.1,10.7-23.8,23.8-23.8c13.1,0,23.7,10.7,23.7,23.8
		C493.4,257.7,482.8,268.3,469.7,268.3z M469.7,224.7c-10.9,0-19.8,8.9-19.8,19.8c0,10.9,8.9,19.8,19.8,19.8s19.8-8.9,19.8-19.8
		C489.5,233.6,480.6,224.7,469.7,224.7z"/>
</g>
<g>
	<path id="circle43_1_" style="fill:#F4F4F4;" d="M525,178.7c-12.6,0-22.8,10.2-22.8,22.8s10.2,22.8,22.8,22.8s22.8-10.2,22.8-22.8
		C547.7,189,537.5,178.7,525,178.7z M525,180.7c11.5,0,20.8,9.3,20.8,20.8s-9.3,20.8-20.8,20.8s-20.8-9.3-20.8-20.8
		C504.1,190,513.4,180.7,525,180.7z"/>
	<path style="fill:#F4F4F4;" d="M525,225.3c-13.1,0-23.8-10.7-23.8-23.8s10.7-23.8,23.8-23.8s23.8,10.7,23.8,23.8
		C548.7,214.6,538.1,225.3,525,225.3z M525,181.7c-10.9,0-19.8,8.9-19.8,19.8c0,10.9,8.9,19.8,19.8,19.8s19.8-8.9,19.8-19.8
		C544.8,190.6,535.9,181.7,525,181.7z"/>
</g>
<g>
	<path id="path45_1_" style="fill:#F4F4F4;" d="M523,172.5c-5.5,0.4-11,2.3-15.7,6L452,221.6c-12.5,9.7-14.8,27.8-5,40.3
		c9.7,12.5,27.8,14.7,40.3,5l55.3-43c12.5-9.7,14.8-27.8,5-40.3C541.6,175.7,532.2,171.9,523,172.5L523,172.5z M523.2,174.4
		c8.6-0.6,17.3,3,23,10.3c9.1,11.7,7,28.5-4.7,37.6l-55.3,43.1c-11.7,9.1-28.5,7-37.6-4.7c-9.1-11.7-7-28.5,4.7-37.6l55.3-43
		C512.9,176.6,518,174.7,523.2,174.4L523.2,174.4z"/>
	<path style="fill:#F4F4F4;" d="M469.7,273.9c-8.9,0-17.6-3.9-23.5-11.4c-10.1-12.9-7.7-31.7,5.2-41.7l55.3-43.1
		c4.7-3.6,10.3-5.8,16.2-6.2l0,0c9.9-0.7,19.4,3.6,25.5,11.4c4.9,6.3,7,14.1,6,21.9c-1,7.9-5,14.9-11.2,19.8l-55.3,43
		C482.6,271.9,476.1,273.9,469.7,273.9z M523.2,175.4c-5.1,0.3-10,2.2-14.1,5.4l-55.3,43c-11.2,8.7-13.2,25-4.5,36.2
		c4.2,5.4,10.3,8.9,17.2,9.8c6.8,0.9,13.6-1,19-5.2l55.3-43.1c11.2-8.7,13.2-25,4.5-36.2C540.1,178.5,531.8,174.8,523.2,175.4
		L523.2,175.4z"/>
</g>
</svg>
