<?xml version="1.0" encoding="utf-8"?>
<!-- Generator: Adobe Illustrator 24.0.1, SVG Export Plug-In . SVG Version: 6.00 Build 0)  -->
<svg version="1.1"
	 id="svg2" ns2:version="0.91 r13725" xmlns:dc="http://purl.org/dc/elements/1.1/" xmlns:ns1="http://sodipodi.sourceforge.net/DTD/sodipodi-0.dtd" xmlns:ns2="http://www.inkscape.org/namespaces/inkscape" xmlns:ns4="http://creativecommons.org/ns#" xmlns:rdf="http://www.w3.org/1999/02/22-rdf-syntax-ns#"
	 xmlns="http://www.w3.org/2000/svg" xmlns:xlink="http://www.w3.org/1999/xlink" x="0px" y="0px" viewBox="0 0 142.2 107.3"
	 style="enable-background:new 0 0 142.2 107.3;" xml:space="preserve">
<ns1:namedview  bordercolor="#666666" borderopacity="1.0" fit-margin-bottom="0" fit-margin-left="0" fit-margin-right="0" fit-margin-top="0" id="base" ns2:current-layer="layer1" ns2:cx="2.9054821" ns2:cy="14.292288" ns2:document-units="px" ns2:pageopacity="0.0" ns2:pageshadow="2" ns2:window-height="1234" ns2:window-maximized="0" ns2:window-width="1959" ns2:window-x="2986" ns2:window-y="86" ns2:zoom="32" pagecolor="#ffffff" showgrid="false" units="px">
	</ns1:namedview>
<g>
	<path style="fill:#FFFFFF;" d="M142,75.7c0-0.9-0.1-1.7-0.1-2.6c-1.4-15.6-9.5-48.2-12.4-56.7c-0.7-1.4-1.8-2.8-3.1-4.2l-0.5-1.8
		c-0.8-2.9-2.1-7.8-12-9.2L112.4,1c-4-0.6-9.1-1.3-13.9-0.9c-2,0.2-2.9,2.4-3.5,3.7c-0.1,0.2-0.1,0.3-0.2,0.5l-0.2,0.5
		c-5.5-0.2-11-0.2-16.9-0.2c-3.6,0-7.2,0-10.9-0.1l-0.5,0v0c-3.2,0-6.4,0-9.6,0.1c-3,0-6,0-9,0l-0.2-0.4c-0.1-0.1-0.1-0.3-0.2-0.5
		c-0.5-1.3-1.4-3.4-3.5-3.7C39-0.3,34,0.4,29.9,1l-1.6,0.2c-9.9,1.4-11.2,6.3-12,9.2l-0.5,1.7c-1.4,1.3-2.5,2.8-3.2,4.3
		C9.8,25,1.6,57.6,0.2,73.2c0,0.8-0.1,1.7-0.1,2.5C-0.2,84.3-0.5,93.2,4.9,99c4.4,4.1,7.3,6.3,12.8,8.3l0.9,0c5.1,0,7.2,0,11.2-5
		c1.6-2.7,3.2-5.6,4.8-8.5c3.4-6.1,7-12.5,10-16.7c2.9-1.3,5.7-1.4,10-1.5c2.1,0,2.9-0.1,3.6-0.1c1.2-0.1,2.3-0.1,9.6-0.2l0.4,0
		c5.4,0,6.3,0,9.4,0.1c1.9,0.1,4.6,0.1,9.7,0.2c4.3,0.1,7.1,0.2,10,1.5c3,4.3,6.5,10.6,10,16.7c1.6,2.8,3.2,5.8,4.8,8.5
		c3.7,4.6,5.8,5,10,5c0.4,0,0.7,0,1.1,0l0.8,0l0.2,0c5.5-2,8.4-4.1,12.9-8.3C142.7,93.2,142.3,84.3,142,75.7z M98.6,1.1
		c4.7-0.4,9.7,0.3,13.6,0.9l1.6,0.2c8.3,1.2,10,4.8,10.9,7.6c-6.6-4.7-17.2-5.2-25.7-5.7c-1-0.1-2-0.1-3-0.2
		C96.5,2.9,97.2,1.3,98.6,1.1z M28.4,2.3L30.1,2c3.2-0.5,7.1-1,10.9-1c0.9,0,1.8,0,2.7,0.1c1.4,0.2,2.1,1.8,2.6,2.9
		c-1,0.1-2,0.1-3,0.2c-8.6,0.4-19.1,1-25.7,5.7C18.4,7,20.2,3.4,28.4,2.3z M136.5,98.3c-4.3,4-7.1,6.1-12.4,8l-0.7,0
		c-5,0-6.7,0-10.3-4.5c-1.6-2.7-3.2-5.6-4.8-8.5c-3.5-6.2-7.1-12.6-10.1-16.9l-0.1-0.1L98,76.2c-3.2-1.5-6.1-1.6-10.5-1.7
		c-5.1-0.1-7.8-0.2-9.7-0.2c-2.4-0.1-3.5-0.1-6.3-0.1c-0.9,0-2.1,0-3.5,0l-0.5,0v0c-6.9,0.1-7.9,0.1-9.2,0.2c-0.7,0-1.5,0.1-3.5,0.1
		c-4.5,0.1-7.4,0.2-10.5,1.7L44,76.3L44,76.4c-3,4.3-6.6,10.7-10.1,16.9c-1.6,2.8-3.2,5.8-4.8,8.4c-3.7,4.6-5.4,4.6-10.4,4.6l-0.7,0
		c-5.3-1.9-8.1-4-12.4-8c-5.1-5.5-4.8-14.2-4.5-22.6c0-0.9,0.1-1.7,0.1-2.5c1.4-15.5,9.5-47.9,12.3-56.3c1.3-2.6,4-5.4,7-7
		c5.9-3.3,8.1-3.4,14.6-3.8l0.5,0c6.5-0.4,13.8-0.4,20.9-0.4c3.4,0,6.8,0,10.1-0.1l0.5,0v0c3.5,0,7,0,10.4,0.1
		c6.9,0,13.5,0,19.9,0.4c0.9,0.1,1.8,0.1,2.8,0.1c6.7,0.3,16,0.8,21.3,3.8c3,1.7,5.8,4.4,7,7c2.9,8.4,10.9,40.9,12.3,56.4
		c0,0.9,0.1,1.7,0.1,2.6C141.3,84.2,141.7,92.9,136.5,98.3z"/>
	<path style="fill:#FFFFFF;" d="M108.6,16.7c-10.4,0-18.9,8.5-18.9,18.9s8.5,18.9,18.9,18.9c10.4,0,18.9-8.5,18.9-18.9
		S119,16.7,108.6,16.7z M108.6,53.5c-9.9,0-17.9-8-17.9-17.9s8-17.9,17.9-17.9c9.9,0,17.9,8,17.9,17.9S118.4,53.5,108.6,53.5z"/>
	<path style="fill:#FFFFFF;" d="M71,35.8c2.3,0,4.4-1.3,5.5-3.3h3.1c1.7,0,3-1.3,3-3c0-1.7-1.3-3-3-3h-3.1c-1.1-2-3.2-3.2-5.4-3.2
		c0,0,0,0,0,0c-2.4,0-4.6,1.4-5.6,3.6h-2.7c-1.7,0-3,1.3-3,3c0,1.7,1.3,3,3,3h3C66.9,34.7,68.9,35.8,71,35.8z M66.4,31.9h-3.6
		c-1.1,0-2-0.9-2-2c0-1.1,0.9-2,2-2h3.3l0.1-0.3c0.8-2,2.7-3.3,4.9-3.3c0,0,0,0,0,0c2,0,3.8,1.1,4.7,2.9l0.1,0.3h3.7
		c1.1,0,2,0.9,2,2c0,1.1-0.9,2-2,2h-3.7l-0.1,0.3c-0.9,1.8-2.7,3-4.7,3c-1.9,0-3.6-1-4.5-2.6L66.4,31.9z"/>
	<path style="fill:#FFFFFF;" d="M34.8,16.7c-10.4,0-18.9,8.5-18.9,18.9s8.5,18.9,18.9,18.9S53.7,46,53.7,35.6S45.2,16.7,34.8,16.7z
		 M34.8,53.5c-9.9,0-17.9-8-17.9-17.9s8-17.9,17.9-17.9s17.9,8,17.9,17.9S44.7,53.5,34.8,53.5z"/>
	<path style="fill:#FFFFFF;" d="M38.6,31.9v-8.6c0-2.1-1.7-3.8-3.8-3.8s-3.8,1.7-3.8,3.8v8.6h-8.6c-2.1,0-3.8,1.7-3.8,3.8
		s1.7,3.8,3.8,3.8h8.6V48c0,2.1,1.7,3.8,3.8,3.8s3.8-1.7,3.8-3.8v-8.6h8.6c2.1,0,3.8-1.7,3.8-3.8s-1.7-3.8-3.8-3.8H38.6z M49.9,35.6
		c0,1.5-1.2,2.8-2.8,2.8h-9.6V48c0,1.5-1.2,2.8-2.8,2.8s-2.8-1.2-2.8-2.8v-9.6h-9.6c-1.5,0-2.8-1.2-2.8-2.8s1.2-2.8,2.8-2.8h9.6
		v-9.6c0-1.5,1.2-2.8,2.8-2.8s2.8,1.2,2.8,2.8v9.6h9.6C48.7,32.9,49.9,34.1,49.9,35.6z"/>
	<path style="fill:#FFFFFF;" d="M75,49.1c0,3.1,2.5,5.5,5.5,5.5s5.5-2.5,5.5-5.5s-2.5-5.5-5.5-5.5S75,46.1,75,49.1z M85.1,49.1
		c0,2.5-2,4.5-4.5,4.5s-4.5-2-4.5-4.5s2-4.5,4.5-4.5S85.1,46.6,85.1,49.1z"/>
	<path style="fill:#FFFFFF;" d="M77.3,57.4c0-3.1-2.5-5.5-5.5-5.5s-5.5,2.5-5.5,5.5s2.5,5.5,5.5,5.5S77.3,60.4,77.3,57.4z
		 M71.8,61.9c-2.5,0-4.5-2-4.5-4.5s2-4.5,4.5-4.5s4.5,2,4.5,4.5S74.3,61.9,71.8,61.9z"/>
	<path style="fill:#FFFFFF;" d="M80.6,60.8c-3.1,0-5.5,2.5-5.5,5.5s2.5,5.5,5.5,5.5s5.5-2.5,5.5-5.5S83.7,60.8,80.6,60.8z
		 M80.6,70.9c-2.5,0-4.5-2-4.5-4.5s2-4.5,4.5-4.5s4.5,2,4.5,4.5S83.1,70.9,80.6,70.9z"/>
	<path style="fill:#FFFFFF;" d="M89.6,51.8c-3.1,0-5.5,2.5-5.5,5.5s2.5,5.5,5.5,5.5s5.5-2.5,5.5-5.5S92.6,51.8,89.6,51.8z
		 M89.6,61.9c-2.5,0-4.5-2-4.5-4.5s2-4.5,4.5-4.5s4.5,2,4.5,4.5S92.1,61.9,89.6,61.9z"/>
</g>
</svg>
