<?xml version="1.0" encoding="utf-8"?>
<!-- Generator: Adobe Illustrator 24.0.1, SVG Export Plug-In . SVG Version: 6.00 Build 0)  -->
<svg version="1.1"
	 id="svg2" sodipodi:docname="system.svg" xmlns:cc="http://creativecommons.org/ns#" xmlns:dc="http://purl.org/dc/elements/1.1/" xmlns:inkscape="http://www.inkscape.org/namespaces/inkscape" xmlns:rdf="http://www.w3.org/1999/02/22-rdf-syntax-ns#" xmlns:sodipodi="http://sodipodi.sourceforge.net/DTD/sodipodi-0.dtd" xmlns:svg="http://www.w3.org/2000/svg"
	 xmlns="http://www.w3.org/2000/svg" xmlns:xlink="http://www.w3.org/1999/xlink" x="0px" y="0px" viewBox="0 0 400 120"
	 style="enable-background:new 0 0 400 120;" xml:space="preserve">
<style type="text/css">
	.st0{fill:#FFFFFF;}
</style>
<sodipodi:namedview  bordercolor="#666666" borderopacity="1" gridtolerance="10" guidetolerance="10" id="namedview24" inkscape:current-layer="svg2" inkscape:cx="199.97719" inkscape:cy="57.826649" inkscape:pageopacity="0" inkscape:pageshadow="2" inkscape:snap-bbox="false" inkscape:snap-bbox-edge-midpoints="false" inkscape:snap-bbox-midpoints="true" inkscape:snap-center="true" inkscape:snap-object-midpoints="false" inkscape:snap-others="true" inkscape:window-height="1137" inkscape:window-maximized="1" inkscape:window-width="1920" inkscape:window-x="-8" inkscape:window-y="-8" inkscape:zoom="3.6725" objecttolerance="10" pagecolor="#5f563e" showgrid="false">
	</sodipodi:namedview>
<g>
	<path class="st0" d="M189.4,12.7c-15.9,0-28.8,12.9-28.8,28.7c0,1.2,0.1,2.4,0.2,3.6l-18.3,27.1c-2.8,0.1-5.4,0.8-7.7,2.1
		L47.3,38.4C45.1,31.2,38.4,26,30.5,26c-9.7,0-17.6,7.9-17.6,17.6c0,0,0,0,0,0c0,9.7,7.9,17.6,17.6,17.6c2.8,0,5.5-0.7,7.9-1.9
		l88.3,36c2.4,6.9,8.9,11.9,16.7,11.9c9,0,16.5-6.8,17.5-15.6l28.7-21.5c15.8-0.1,28.6-12.9,28.6-28.7
		C218.2,25.6,205.3,12.7,189.4,12.7z M30.5,56.5c-7.3,0-13.2-5.7-13.2-12.8c0,0,0,0,0,0c0-7.1,5.9-12.8,13.2-12.8
		c4.3,0,8.1,2,10.5,5l-2.8-1.1c-7-2.9-14.6-0.4-17,5.4c-2.4,5.8,1.4,12.9,8.4,15.7l1.7,0.7C31,56.4,30.7,56.5,30.5,56.5z
		 M143.3,103.2c-4.2,0-8-2.1-10.4-5.3l2.5,1c7,2.9,14.6,0.4,17-5.4c0.8-2,0.9-4.2,0.4-6.3c-1-3.9-4.2-7.6-8.7-9.5l-2.7-1.1l-0.4-0.4
		c0.8-0.2,1.6-0.2,2.5-0.2c7.3,0,13.2,6.1,13.2,13.5c0,0,0,0,0,0c0,0.4,0,0.7-0.1,1.1C155.9,97.7,150.2,103.2,143.3,103.2z
		 M197,62.1c-2.4,0.9-4.9,1.4-7.6,1.4c-11.2,0-20.4-8.3-21.8-19.1c-0.1-0.9-0.2-1.9-0.2-2.9c0,0,0,0,0,0c0-12.2,9.8-22,22-22
		s22,9.8,22,22c0,0,0,0,0,0C211.4,50.9,205.4,59,197,62.1z"/>
	<path class="st0" d="M189.4,23.9c-9.7,0-17.6,7.9-17.5,17.6c0,2.2,0.4,4.2,1.1,6.2c2.5,6.6,8.9,11.4,16.4,11.4
		c0.8,0,1.5-0.1,2.2-0.2c8.6-1.1,15.3-8.4,15.4-17.4c0,0,0,0,0,0C207,31.7,199.1,23.9,189.4,23.9z"/>
</g>
<g id="text4156" transform="scale(0.95096987,1.051558)">
	<path id="path4150" class="st0" d="M262.9,30.9v6.5c-1.7-0.8-3.3-1.3-4.9-1.7c-1.6-0.4-3.1-0.6-4.5-0.6c-1.9,0-3.3,0.3-4.2,0.8
		c-0.9,0.5-1.4,1.3-1.4,2.4c0,0.8,0.3,1.5,0.9,1.9c0.6,0.5,1.7,0.8,3.3,1.2l3.4,0.7c3.4,0.7,5.8,1.7,7.3,3.1s2.2,3.4,2.2,6
		c0,3.4-1,5.9-3,7.6c-2,1.6-5.1,2.5-9.2,2.5c-1.9,0-3.9-0.2-5.9-0.6c-2-0.4-3.9-0.9-5.9-1.6v-6.7c2,1,3.8,1.8,5.7,2.4
		c1.8,0.5,3.6,0.8,5.3,0.8c1.7,0,3-0.3,4-0.9c0.9-0.6,1.4-1.4,1.4-2.5c0-1-0.3-1.7-0.9-2.2c-0.6-0.5-1.9-1-3.7-1.4l-3.1-0.7
		c-3.1-0.7-5.3-1.7-6.7-3.1c-1.4-1.4-2.1-3.4-2.1-5.8c0-3.1,1-5.4,3-7c2-1.6,4.8-2.5,8.5-2.5c1.7,0,3.4,0.1,5.2,0.4
		C259.1,30.1,261,30.4,262.9,30.9L262.9,30.9z"/>
	<path id="path4152" class="st0" d="M271,30h28.3v6h-10.2v24.7h-7.9V36H271L271,30L271,30z"/>
	<path id="path4154" class="st0" d="M306.1,30h21.3v6H314v5.7h12.6v6H314v7h13.9v6h-21.8V30z"/>
	<path id="path4156" class="st0" d="M356.3,55.1h-12.4l-2,5.6H334L345.4,30h9.4l11.4,30.7h-7.9L356.3,55.1L356.3,55.1z M345.9,49.4
		h8.4l-4.2-12.2L345.9,49.4z"/>
	<path id="path4158" class="st0" d="M373,30h10.1l7,16.4l7-16.4h10v30.7h-7.5V38.2l-7.1,16.5h-5l-7.1-16.5v22.4H373L373,30L373,30z"
		/>
</g>
</svg>
