<?xml version="1.0" encoding="utf-8"?>
<!-- Generator: Adobe Illustrator 24.0.1, SVG Export Plug-In . SVG Version: 6.00 Build 0)  -->
<svg version="1.1" id="svg2" xmlns:svg="http://www.w3.org/2000/svg"
	 xmlns="http://www.w3.org/2000/svg" xmlns:xlink="http://www.w3.org/1999/xlink" x="0px" y="0px" viewBox="0 0 316.6 154.9"
	 style="enable-background:new 0 0 316.6 154.9;" xml:space="preserve">
<style type="text/css">
	.st0{fill:#FFFFFF;}
</style>
<g id="layer1">
</g>
<g id="layer5">
</g>
<polygon class="st0" points="44.9,0 13.7,0 0,15.6 0,48.9 15.6,64.5 29.3,64.5 29.3,43 23.5,43 23.5,19.5 39.1,19.5 39.1,35.2 
	60.6,35.2 60.6,15.6 "/>
<polygon class="st0" points="15.6,109.4 48.9,109.4 62.5,93.8 62.5,58.6 46.9,43 33.2,43 33.2,64.5 39.1,64.5 39.1,87.9 23.5,87.9 
	23.5,72.3 0,72.3 0,93.8 "/>
<polygon class="st0" points="66.4,93.8 83.1,109.4 95.8,109.4 95.8,89.9 89.9,89.9 89.9,0 66.4,0 "/>
<polygon class="st0" points="129,93.8 112.4,109.4 99.7,109.4 99.7,89.9 105.5,89.9 105.5,0 129,0 "/>
<polygon class="st0" points="162.2,0 162.2,19.5 170,19.5 170,52.8 162.2,52.8 162.2,74.3 177.8,74.3 193.5,58.6 193.5,16.6 
	176.9,0 "/>
<rect x="134.8" y="0" class="st0" width="23.5" height="109.4"/>
<polygon class="st0" points="222.8,21.5 248.2,21.5 248.2,0 201.3,0 201.3,109.4 248.2,109.4 248.2,89.9 222.8,89.9 "/>
<rect x="226.7" y="43" class="st0" width="15.6" height="19.5"/>
<polygon class="st0" points="283.4,0 300.9,0 316.6,15.6 316.6,44.9 305.8,55.7 316.6,66.4 316.6,109.4 295.1,109.4 295.1,66.4 
	283.4,66.4 283.4,44.9 293.1,44.9 293.1,19.5 283.4,19.5 "/>
<rect x="256" y="0" class="st0" width="23.4" height="109.4"/>
<polygon class="st0" points="46.9,121.2 42,126 42,148.5 48.4,154.9 84,154.9 84,134.8 64.5,134.8 64.5,140.7 78.2,140.7 
	78.2,148.5 50.8,148.5 50.8,127 84,127 84,121.2 "/>
<g>
	<path class="st0" d="M130.9,135.8V127l-5.9-5.9H91.8v33.2h7.8v-13.7h13.7l9.8,13.7h7.8l-9.8-13.7h3.9L130.9,135.8z M123.1,134.8
		H99.7V127h23.4V134.8z"/>
</g>
<polygon class="st0" points="134.8,154.4 150.5,121.2 166.1,121.2 183.7,154.4 173.9,154.4 160.2,129 156.3,129 144.6,154.4 "/>
<polygon class="st0" points="185.6,121.2 185.6,154.4 193.5,154.4 193.5,140.7 218.9,140.7 218.9,134.8 193.5,134.8 193.5,127 
	222.8,127 222.8,121.2 "/>
<polygon class="st0" points="226.7,121.2 242.3,136.8 224.7,154.4 236.5,154.4 248.2,142.7 259.9,154.4 271.6,154.4 254,136.8 
	271.6,121.2 259.9,121.2 248.2,132.9 236.5,121.2 "/>
</svg>
