<?xml version="1.0" encoding="utf-8"?>
<!-- Generator: Adobe Illustrator 24.0.1, SVG Export Plug-In . SVG Version: 6.00 Build 0)  -->
<svg version="1.1"
	 id="Layer_3" xmlns:cc="http://creativecommons.org/ns#" xmlns:dc="http://purl.org/dc/elements/1.1/" xmlns:rdf="http://www.w3.org/1999/02/22-rdf-syntax-ns#"
	 xmlns="http://www.w3.org/2000/svg" xmlns:xlink="http://www.w3.org/1999/xlink" x="0px" y="0px" viewBox="0 0 598.2 350.3"
	 style="enable-background:new 0 0 598.2 350.3;" xml:space="preserve">
<g>
	<path style="fill:#F4F4F4;" d="M581.8,62.4c-0.2-0.1-0.3-0.1-0.5-0.2c-0.1,0-0.1,0-0.2-0.1c-0.1,0-0.3-0.1-0.5-0.1
		c-0.4-0.1-1-0.2-1.8-0.3c-1.5-0.2-3.7-0.5-6.4-0.9c-5.5-0.8-13.2-1.8-22.4-3c-16.5-2.2-39.2-5.1-67.4-8.7
		c-28.5-3.7-54.6-6.9-67.5-8.6l-9.9-1.3c-4.9-0.6-9.2-1.2-12.6-1.6c-2.8-0.3-4.9-0.6-6.5-0.8c-0.2,0-0.5-0.1-0.7-0.1v-5.8
		c0-1.5-0.4-2.7-1.1-3.6c-0.9-1.1-2.2-1.8-3.8-1.8H218.3l0,0h-1.9c-1.5,0-2.9,0.7-3.8,1.9c-0.7,0.9-1,2.2-1,3.6v5.8
		c-0.3,0-0.6,0.1-1,0.1c-1.5,0.2-3.7,0.4-6.4,0.8c-4.9,0.6-11.7,1.5-19.8,2.5l-2.6,0.3c-18.4,2.3-42.9,5.4-67.3,8.5l-0.4,0.1
		c-23.8,3-48.5,6.2-66.8,8.6c-9.2,1.2-16.9,2.2-22.4,3c-2.7,0.4-4.9,0.7-6.4,0.9c-0.6,0.1-1,0.2-1.4,0.2l-0.4,0.1
		c-0.2,0-0.4,0.1-0.5,0.1h-0.1c-0.2,0-0.3,0.1-0.5,0.1C10.4,64.3,7,69.5,7,75.2v211.5c0,7.8,6.4,14.2,14.2,14.2h554.4
		c7.8,0,14.2-6.4,14.2-14.2V75.2C589.8,69.8,586.7,64.8,581.8,62.4z M11,286.7V75.2c0-4,2.4-7.7,6-9.4h0.1c0.1,0,0.2,0,0.3-0.1
		c0.2,0,0.5-0.1,0.7-0.1c0.3,0,0.6-0.1,1-0.1l1.5-0.2c1.3-0.2,3-0.4,4.9-0.7c5.1-0.7,12.2-1.6,20.7-2.7l1.6-0.2
		C67,59.2,91.5,56,115,53c24.2-3.1,48.4-6.1,66.7-8.4l6.9-0.9c6.4-0.8,11.9-1.5,16-2c2.7-0.3,4.9-0.6,6.4-0.8l0.6-0.1v66.6
		c0,47.9,38.9,86.9,86.8,86.9s86.9-39,86.9-86.9V40.9h0.2c1.5,0.2,3.7,0.4,6.5,0.8c5.5,0.7,13.3,1.6,22.5,2.8
		c21.3,2.7,45.9,5.8,67.5,8.6c19.1,2.4,46.2,5.9,67.4,8.7c9.2,1.2,17,2.3,22.4,3l2.9,0.4c1.4,0.2,2.6,0.3,3.5,0.5
		c0.7,0.1,1.3,0.2,1.7,0.3c0.1,0,0.2,0,0.3,0.1h0.1c3.4,1.7,5.6,5.3,5.6,9.2v211.5c0,5.7-4.6,10.3-10.3,10.3H21.2
		C15.6,297,11,292.4,11,286.7z M218.8,29.6h161.6c0.5,0,0.6,0.1,0.7,0.2s0.3,0.6,0.3,1.3v76.3c0,45.7-37.2,82.9-82.9,82.9
		s-82.9-37.2-82.9-82.9V31.1c0-0.6,0.1-1.1,0.3-1.3c0.1-0.1,0.2-0.2,0.6-0.2H218.8L218.8,29.6z"/>
	<path style="fill:#F4F4F4;" d="M145.3,226.6c0-0.1,0.1-0.2,0.1-0.3v-0.2c0.1-0.7,0.3-1.3,0.4-2c0.1-0.3,0.1-0.6,0.2-0.8
		c0.1-0.7,0.2-1.4,0.3-2c0-0.3,0.1-0.6,0.1-0.9c0.1-0.6,0.1-1.1,0.1-1.7c0-0.5,0.1-0.9,0.1-1.4l0,0c0.1-1,0.1-2,0.1-3
		c0-1.9-0.1-3.8-0.3-5.6c0-0.3,0-0.6-0.1-0.9c-0.1-0.7-0.2-1.4-0.3-2.2c-0.1-0.3-0.1-0.7-0.2-1.1c-0.1-0.8-0.3-1.5-0.5-2.3
		c-0.1-0.3-0.1-0.6-0.2-0.8v-0.2c0,0,0,0,0-0.1c-4.9-19.6-20-34.7-39.6-39.6l0,0l0,0l0,0c-0.8-0.2-1.6-0.3-2.3-0.5
		c-0.2,0-0.4-0.1-0.7-0.1c-0.5-0.1-1-0.2-1.5-0.2c-0.5-0.1-1.1-0.2-1.6-0.2c-0.5-0.1-0.9-0.1-1.4-0.1c-0.6-0.1-1.2-0.1-1.8-0.2
		c-0.4,0-0.8,0-1.3-0.1c-0.4,0-0.8-0.1-1.3-0.1l0,0h-1.2c-3.2,0-6.4,0.3-9.6,0.9c-0.2,0-0.3,0.1-0.5,0.1c-0.9,0.2-1.7,0.3-2.6,0.5
		l-0.3,0.1c0,0-0.1,0-0.1,0.1c-19.6,4.9-34.7,20-39.5,39.6l0,0c-0.8,3.3-1.3,6.7-1.5,10.1c-0.1,1-0.1,2-0.1,2.9l0,0l0,0
		c0,4.3,0.5,8.5,1.4,12.6l0,0c4.7,19.6,20.3,35.3,39.8,40.1l0,0c4.2,1,8.5,1.5,12.9,1.5c4.3,0,8.6-0.5,12.7-1.5h0.2h0.1
		C125.1,262.1,140.7,246.3,145.3,226.6z M83.6,164.7c0.8-0.1,1.6-0.3,2.5-0.4c0.2,0,0.4-0.1,0.6-0.1c0.6-0.1,1.2-0.1,1.8-0.2
		c0.4,0,0.8-0.1,1.2-0.1c0.3,0,0.7,0,1,0c0.7,0,1.4-0.1,2.1,0l0,0c3.9,0,7.9,0.5,11.7,1.4h0.1c0.2,0.1,0.3,0.1,0.3,0.2
		c0,0,0.2,0.4,0.2,1.5v29.2c0,1.7,0.4,3,1.3,3.9c0.9,1,2.3,1.4,4.1,1.4h29.1c1.2,0,1.6,0.1,1.6,0.1s0,0.1,0.1,0.3l0,0v0.1
		c0.7,2.7,1.1,5.4,1.3,8.1c0.1,1.3,0.2,2.6,0.2,3.9c0,3.8-0.4,7.5-1.2,11.2l0,0c-0.1,0.6-0.3,0.9-0.5,1.1c-0.1,0.1-0.4,0.3-1.5,0.3
		h-29.2c-1.7,0-3,0.5-4,1.5c-0.9,0.9-1.4,2.2-1.4,3.8v29.2c0,1-0.2,1.4-0.3,1.5c-0.1,0.1-0.2,0.2-0.5,0.3c-4.8,1.2-9.8,1.6-14.7,1.3
		h-0.1c-0.5,0-1.1-0.1-1.6-0.1s-1-0.1-1.4-0.1c-0.3,0-0.6-0.1-0.9-0.1c-0.7-0.1-1.4-0.2-2-0.3c-0.2,0-0.5-0.1-0.7-0.1
		c-0.7-0.1-1.4-0.3-2.1-0.4l0,0c-0.4-0.1-0.4-0.2-0.5-0.3c-0.1-0.1-0.3-0.5-0.3-1.5v-29.2c0-1.8-0.5-3.1-1.4-4s-2.2-1.3-3.8-1.3
		H45.4c-1.1,0-1.4-0.2-1.5-0.2c-0.1-0.1-0.2-0.1-0.3-0.7c-0.9-3.8-1.4-7.7-1.4-11.7c0-1,0-2,0.1-3.1c0-0.1,0-0.2,0-0.3
		c0.1-0.9,0.1-1.8,0.2-2.7c0-0.1,0-0.1,0-0.1c0.1-1,0.3-1.9,0.4-2.9c0,0,0,0,0-0.1c0.2-0.9,0.4-1.8,0.6-2.6v-0.1
		c0.1-0.4,0.2-0.5,0.3-0.5s0.4-0.1,1.5-0.1h29.4c1.9,0,3.2-0.5,4.1-1.6s1-2.5,1-3.7v-29.2c0-0.9,0.2-1.3,0.2-1.4
		c0.1-0.1,0.2-0.2,0.5-0.4h0.1c0.9-0.2,1.8-0.4,2.6-0.6C83.5,164.8,83.5,164.7,83.6,164.7z M109,261.3v-29.2c0-0.5,0.1-0.9,0.3-1.1
		c0.2-0.2,0.7-0.3,1.2-0.3h29.2c0.1,0,0.3,0,0.4,0c-5,14.5-16.6,26-31,31.1C109,261.6,109,261.5,109,261.3z M139.6,197.7h-29.1
		c-1,0-1.2-0.2-1.2-0.2c-0.1-0.1-0.2-0.4-0.2-1.1v-29.2c0-0.1,0-0.3,0-0.4c14.6,5,26,16.4,31,31
		C139.9,197.7,139.7,197.7,139.6,197.7z M76,166.7c0,0.1,0,0.3,0,0.4v29.2c0,0.9-0.2,1.2-0.2,1.2c-0.1,0.1-0.3,0.2-1,0.2H45.4
		c-0.1,0-0.3,0-0.4,0C50,183.1,61.4,171.8,76,166.7z M45.4,230.7h29.4c0.8,0,1,0.2,1,0.2s0.2,0.2,0.2,1.2v29.2c0,0.2,0,0.3,0,0.4
		c-14.4-5-26-16.6-31-31C45.1,230.7,45.3,230.7,45.4,230.7z"/>
	<path style="fill:#F4F4F4;" d="M77.1,214.2c0,8.5,6.9,15.4,15.4,15.4s15.4-6.9,15.4-15.4s-6.9-15.4-15.4-15.4
		S77.1,205.7,77.1,214.2z M92.5,225.7c-6.3,0-11.5-5.1-11.5-11.5c0-6.3,5.1-11.5,11.5-11.5c6.3,0,11.5,5.1,11.5,11.5
		C104,220.6,98.8,225.7,92.5,225.7z"/>
	<path style="fill:#F4F4F4;" d="M546.5,212l-0.3-0.4c-0.3-0.5-0.4-0.7-0.4-2.3V96.1c0-7.8-6.4-14.2-14.2-14.2H420.1
		c-4.4,0-8.3,1.7-10.9,4.9c-2.4,2.9-3.7,6.8-3.7,11.3v8.9c0,59.1-48.1,107.1-107.2,107.1S191.2,166,191.2,106.9V98
		c0-4.9-1-8.7-3-11.4c-2.3-3.1-5.8-4.7-10.3-4.7H66l0,0h-4.4c-7.8,0-14.2,6.4-14.2,14.2v56.2c0,3.2,0.6,5.7,1.9,7.6
		c1.1,1.7,2.8,2.8,4.9,3.3c3.2,0.7,6.5-0.3,8.6-1.4l0,0l0.3-0.2c8.9-5,19.1-7.6,29.3-7.6c33.2,0,60.2,27,60.2,60.2
		c0,19.3-9.3,37.6-25,48.8l-0.3,0.2l-1.9,2.2c-2.1,2.1-3.2,4.9-3.2,7.9c0,6.2,5.1,11.3,11.3,11.3h372.8c26.1,0,47.3-21.2,47.3-47.3
		C553.7,228.3,551.2,219.6,546.5,212L546.5,212z M92.5,150.1c-10.9,0-21.6,2.8-31.1,8l-0.3,0.1c-1,0.6-3.9,1.6-6,1.1
		c-1.1-0.2-1.9-0.8-2.5-1.7c-0.8-1.2-1.2-3.1-1.2-5.4V96.1c0-2.7,1.1-5.3,3-7.2c1.9-1.9,4.5-3,7.3-3h1.1l0,0H178
		c3.3,0,5.6,1,7.1,3.1c1.5,2,2.2,5.1,2.2,9.1v8.9c0,61.3,49.8,111.1,111.1,111.1S409.5,168.3,409.5,107v-9c0-3.5,1-6.7,2.8-8.8
		c1.9-2.3,4.5-3.4,7.8-3.4h111.4c5.7,0,10.3,4.6,10.3,10.3v113.2c0,2.3,0.5,3.5,0.9,4.3l0,0c0,0.1,0.1,0.1,0.1,0.2l0.3,0.5l0,0
		c4.3,6.9,6.6,14.8,6.6,23c0,23.9-19.5,43.4-43.4,43.4H133.6c-4,0-7.3-3.3-7.3-7.3c0-1.9,0.8-3.8,2.2-5.2l0.3-0.3l0,0l1.4-1.6
		c16.6-12.1,26.5-31.5,26.5-51.9C156.7,178.9,127.9,150.1,92.5,150.1z"/>
	<path style="fill:#F4F4F4;" d="M442,213.3c-14.1,0-25.6,11.5-25.6,25.6s11.5,25.6,25.6,25.6s25.6-11.5,25.6-25.6
		C467.7,224.8,456.2,213.3,442,213.3z M442,260.6c-12,0-21.7-9.7-21.7-21.7s9.7-21.7,21.7-21.7s21.7,9.7,21.7,21.7
		C463.7,250.8,454,260.6,442,260.6z"/>
	<path style="fill:#F4F4F4;" d="M442,276.5h67.7c20.7,0,37.6-16.9,37.6-37.6s-16.9-37.6-37.6-37.6H442c-20.7,0-37.6,16.9-37.6,37.6
		S421.3,276.5,442,276.5z M408.4,238.9c0-18.5,15.1-33.6,33.6-33.6h67.7c18.5,0,33.6,15.1,33.6,33.6c0,18.6-15.1,33.6-33.6,33.6H442
		C423.5,272.5,408.4,257.4,408.4,238.9z"/>
	<path style="fill:#F4F4F4;" d="M509.7,264.5c14.1,0,25.6-11.5,25.6-25.6s-11.5-25.6-25.6-25.6s-25.6,11.5-25.6,25.6
		C484.1,253,495.6,264.5,509.7,264.5z M509.7,217.2c12,0,21.7,9.7,21.7,21.7s-9.7,21.7-21.7,21.7s-21.7-9.7-21.7-21.7
		C488,226.9,497.7,217.2,509.7,217.2z"/>
	<path style="fill:#F4F4F4;" d="M251.3,248.6h25.2c5.5,0,10-4.5,10-10s-4.5-10.1-10-10.1h-25.2c-5.5,0-10,4.5-10,10.1
		C241.3,244.1,245.8,248.6,251.3,248.6z M276.5,244.7h-25.2c-3.4,0-6.1-2.7-6.1-6.1c0-3.4,2.7-6.1,6.1-6.1h25.2
		c3.4,0,6.1,2.7,6.1,6.1C282.5,241.9,279.8,244.7,276.5,244.7z"/>
	<path style="fill:#F4F4F4;" d="M320.9,248.6h25.2c5.5,0,10-4.5,10-10s-4.5-10.1-10-10.1h-25.2c-5.5,0-10,4.5-10,10.1
		C310.9,244.1,315.4,248.6,320.9,248.6z M320.9,232.5h25.2c3.4,0,6.1,2.7,6.1,6.1c0,3.4-2.7,6.1-6.1,6.1h-25.2
		c-3.4,0-6.1-2.7-6.1-6.1S317.6,232.5,320.9,232.5z"/>
</g>
</svg>
