<?xml version="1.0" encoding="utf-8"?>
<!-- Generator: Adobe Illustrator 24.0.1, SVG Export Plug-In . SVG Version: 6.00 Build 0)  -->
<svg version="1.1" id="Layer_4" xmlns="http://www.w3.org/2000/svg" xmlns:xlink="http://www.w3.org/1999/xlink" x="0px" y="0px"
	 viewBox="0 0 461.1 323" style="enable-background:new 0 0 461.1 323;" xml:space="preserve">
<g>
	<path style="fill:#FFFFFF;" d="M25.4,312.9h268.1c4.4,0,8-3.6,8-8V175.5c0-4.4-3.6-8-8-8H25.4c-4.4,0-8,3.6-8,8v129.4
		C17.4,309.3,21,312.9,25.4,312.9z M25.4,170.4h268.1c2.8,0,5,2.3,5,5v129.4c0,2.8-2.3,5-5,5H25.4c-2.8,0-5-2.3-5-5V175.4
		C20.4,172.7,22.7,170.4,25.4,170.4z"/>
	<path style="fill:#FFFFFF;" d="M25.6,204.6h4.8c-0.9,0.8-1.5,1.9-1.5,3.2v16.6c0,2.4,1.9,4.3,4.3,4.3h2.7c-0.8,0.8-1.3,1.9-1.3,3.1
		v16.6c0,1.2,0.5,2.4,1.4,3.1h-4.2c-2.4,0-4.3,1.9-4.3,4.3v16.6c0,2,1.4,3.7,3.3,4.2c-1.9,0.5-3.3,2.1-3.3,4.2v16.6
		c0,2.4,1.9,4.3,4.3,4.3h16.6c1.4,0,2.6-0.7,3.4-1.7c0.8,1,2,1.7,3.4,1.7h16.6c1.5,0,2.8-0.8,3.6-1.9c0.8,1.2,2.1,1.9,3.6,1.9h175.6
		c1.6,0,2.9-0.9,3.7-2.1c0.7,1.3,2.1,2.1,3.7,2.1h16.5c2.4,0,4.3-1.9,4.3-4.3v-16.6c0-1.9-1.2-3.4-2.8-4h13.8c2.4,0,4.3-1.9,4.3-4.3
		v-16.6c0-1.7-1-3.1-2.4-3.8c1.2-0.8,2-2.1,2-3.6v-16.6c0-2.4-1.9-4.3-4.3-4.3h-2.7c0.8-0.8,1.3-1.9,1.3-3.1v-16.6
		c0-2.4-1.9-4.3-4.3-4.3h-4.8c0.9-0.8,1.5-1.9,1.5-3.2v-16.6c0-2.4-1.9-4.3-4.3-4.3h-16.6c-1.5,0-2.8,0.8-3.6,1.9
		c-0.8-1.2-2.1-1.9-3.6-1.9h-16.6c-1.5,0-2.9,0.8-3.7,2.1c-0.8-1.2-2.1-2.1-3.6-2.1h-16.6c-1.5,0-2.8,0.8-3.6,1.9
		c-0.8-1.2-2.1-1.9-3.6-1.9H192c-1.5,0-2.9,0.8-3.6,2.1c-0.8-1.2-2.1-2.1-3.6-2.1h-16.6c-1.5,0-2.8,0.8-3.6,1.9
		c-0.8-1.2-2.1-1.9-3.6-1.9h-16.6c-1.5,0-2.9,0.8-3.6,2.1c-0.8-1.2-2.1-2.1-3.6-2.1h-16.6c-1.5,0-2.8,0.8-3.6,1.9
		c-0.8-1.2-2.1-1.9-3.6-1.9H96.8c-1.5,0-2.9,0.8-3.6,2.1c-0.8-1.2-2.1-2.1-3.6-2.1H73c-1.5,0-2.8,0.8-3.6,1.9
		c-0.8-1.2-2.1-1.9-3.6-1.9H49.5c-1.5,0-2.9,0.8-3.6,2.1c-0.8-1.2-2.1-2.1-3.6-2.1H25.7c-2.4,0-4.3,1.9-4.3,4.3v16.6
		C21.3,202.6,23.3,204.6,25.6,204.6z M260.7,280.6c0-0.7,0.6-1.3,1.3-1.3h16.5c0.7,0,1.3,0.6,1.3,1.3v16.6c0,0.7-0.6,1.3-1.3,1.3
		h-16.6c-0.7,0-1.3-0.6-1.3-1.3L260.7,280.6z M258.3,278.4c-0.5-0.9-1.3-1.5-2.2-1.9h4.5C259.5,276.9,258.8,277.6,258.3,278.4z
		 M30.6,280.6c0-0.7,0.6-1.3,1.3-1.3h16.6c0.7,0,1.3,0.6,1.3,1.3v16.6c0,0.7-0.6,1.3-1.3,1.3H31.9c-0.7,0-1.3-0.6-1.3-1.3
		L30.6,280.6z M43.5,200.3c0,0.7-0.6,1.3-1.3,1.3H25.6c-0.7,0-1.3-0.6-1.3-1.3v-16.6c0-0.7,0.6-1.3,1.3-1.3h16.6
		c0.7,0,1.3,0.6,1.3,1.3V200.3z M263.4,201.6c-0.7,0-1.3-0.6-1.3-1.3v-16.6c0-0.7,0.6-1.3,1.3-1.3H280c0.7,0,1.3,0.6,1.3,1.3v16.6
		c0,0.7-0.6,1.2-1.3,1.2h-16.6V201.6z M54,280.6c0-0.7,0.6-1.3,1.3-1.3h16.6c0.7,0,1.3,0.6,1.3,1.3v16.6c0,0.7-0.6,1.3-1.3,1.3H55.3
		c-0.7,0-1.3-0.6-1.3-1.3V280.6z M67.3,200.3c0,0.7-0.6,1.3-1.3,1.3H49.5c-0.7,0-1.3-0.6-1.3-1.3v-16.6c0-0.7,0.6-1.3,1.3-1.3h16.6
		c0.7,0,1.3,0.6,1.3,1.3v16.6H67.3z M91,200.3c0,0.7-0.6,1.3-1.3,1.3H73.1c-0.7,0-1.3-0.6-1.3-1.3v-16.6c0-0.7,0.6-1.3,1.3-1.3h16.6
		c0.7,0,1.3,0.6,1.3,1.3V200.3z M114.9,200.3c0,0.7-0.6,1.3-1.3,1.3H97c-0.7,0-1.3-0.6-1.3-1.3v-16.6c0-0.7,0.6-1.3,1.3-1.3h16.6
		c0.7,0,1.3,0.6,1.3,1.3V200.3z M138.6,200.3c0,0.7-0.6,1.3-1.3,1.3h-16.6c-0.7,0-1.3-0.6-1.3-1.3v-16.6c0-0.7,0.6-1.3,1.3-1.3h16.6
		c0.7,0,1.3,0.6,1.3,1.3V200.3z M162.4,200.3c0,0.7-0.6,1.3-1.3,1.3h-16.6c-0.7,0-1.3-0.6-1.3-1.3v-16.6c0-0.7,0.6-1.3,1.3-1.3h16.6
		c0.7,0,1.3,0.6,1.3,1.3V200.3z M186.2,200.3c0,0.7-0.6,1.3-1.3,1.3h-16.6c-0.7,0-1.3-0.6-1.3-1.3v-16.6c0-0.7,0.6-1.3,1.3-1.3h16.6
		c0.7,0,1.3,0.6,1.3,1.3V200.3z M210,200.3c0,0.7-0.6,1.3-1.3,1.3h-16.6c-0.7,0-1.3-0.6-1.3-1.3v-16.6c0-0.7,0.6-1.3,1.3-1.3h16.6
		c0.7,0,1.3,0.6,1.3,1.3V200.3z M233.7,200.3c0,0.7-0.6,1.3-1.3,1.3h-16.5c-0.7,0-1.3-0.6-1.3-1.3v-16.6c0-0.7,0.6-1.3,1.3-1.3h16.6
		c0.7,0,1.3,0.6,1.3,1.3v16.6H233.7z M257.6,200.3c0,0.7-0.6,1.3-1.3,1.3h-16.6c-0.7,0-1.3-0.6-1.3-1.3v-16.6c0-0.7,0.6-1.3,1.3-1.3
		h16.6c0.7,0,1.3,0.6,1.3,1.3V200.3z M271,225.7c-0.7,0-1.3-0.6-1.3-1.3v-16.6c0-0.7,0.6-1.3,1.3-1.3h16.6c0.7,0,1.3,0.6,1.3,1.3
		v16.6c0,0.7-0.6,1.3-1.3,1.3H271z M268.1,255.7c0-0.7,0.6-1.3,1.3-1.3h24.4c0.7,0,1.3,0.6,1.3,1.3v16.6c0,0.7-0.6,1.3-1.3,1.3
		h-24.4c-0.7,0-1.3-0.6-1.3-1.3V255.7z M49.7,272.3c0,0.7-0.6,1.3-1.3,1.3H31.8c-0.7,0-1.3-0.6-1.3-1.3v-16.6c0-0.7,0.6-1.3,1.3-1.3
		h16.6c0.7,0,1.3,0.6,1.3,1.3V272.3z M49.8,206.5c0.7,0,1.3,0.6,1.3,1.3v16.6c0,0.7-0.6,1.3-1.3,1.3H33.2c-0.7,0-1.3-0.6-1.3-1.3
		v-16.6c0-0.7,0.6-1.3,1.3-1.3H49.8z M54.4,255.7c0-0.7,0.6-1.3,1.3-1.3h16.6c0.7,0,1.3,0.6,1.3,1.3v16.6c0,0.7-0.6,1.3-1.3,1.3
		H55.7c-0.7,0-1.3-0.6-1.3-1.3V255.7z M78.1,255.7c0-0.7,0.6-1.3,1.3-1.3H96c0.7,0,1.3,0.6,1.3,1.3v16.6c0,0.7-0.6,1.3-1.3,1.3H79.4
		c-0.7,0-1.3-0.6-1.3-1.3V255.7z M79.4,230.4c0.7,0,1.3,0.6,1.3,1.3v16.6c0,0.7-0.6,1.3-1.3,1.3H62.8c-0.7,0-1.3-0.6-1.3-1.3v-16.6
		c0-0.7,0.6-1.3,1.3-1.3H79.4z M227.9,248.3v-16.6c0-0.7,0.6-1.3,1.3-1.3h16.5c0.7,0,1.3,0.6,1.3,1.3v16.6c0,0.7-0.6,1.3-1.3,1.3
		h-16.6C228.5,249.6,227.9,249,227.9,248.3z M199.5,248.3c0,0.7-0.6,1.3-1.3,1.3h-16.6c-0.7,0-1.3-0.6-1.3-1.3v-16.6
		c0-0.7,0.6-1.3,1.3-1.3h16.6c0.7,0,1.3,0.6,1.3,1.3V248.3z M223.4,248.3c0,0.7-0.6,1.3-1.3,1.3h-16.6c-0.7,0-1.3-0.6-1.3-1.3v-16.6
		c0-0.7,0.6-1.3,1.3-1.3h16.6c0.7,0,1.3,0.6,1.3,1.3V248.3z M175.8,248.3c0,0.7-0.6,1.3-1.3,1.3h-16.6c-0.7,0-1.3-0.6-1.3-1.3v-16.6
		c0-0.7,0.6-1.3,1.3-1.3h16.6c0.7,0,1.3,0.6,1.3,1.3V248.3z M152,248.3c0,0.7-0.6,1.3-1.3,1.3h-16.6c-0.7,0-1.3-0.6-1.3-1.3v-16.6
		c0-0.7,0.6-1.3,1.3-1.3h16.6c0.7,0,1.3,0.6,1.3,1.3V248.3z M128.3,248.3c0,0.7-0.6,1.3-1.3,1.3h-16.6c-0.7,0-1.3-0.6-1.3-1.3v-16.6
		c0-0.7,0.6-1.3,1.3-1.3H127c0.7,0,1.3,0.6,1.3,1.3V248.3z M104.4,248.3c0,0.7-0.6,1.3-1.3,1.3H86.5c-0.7,0-1.3-0.6-1.3-1.3v-16.6
		c0-0.7,0.6-1.3,1.3-1.3h16.6c0.7,0,1.3,0.6,1.3,1.3V248.3z M106.8,250.5c0.2,0.3,0.5,0.6,0.7,0.9H106
		C106.3,251.2,106.5,250.9,106.8,250.5z M130.5,250.7c0.2,0.3,0.4,0.5,0.7,0.8h-1.4C130.1,251.2,130.3,250.9,130.5,250.7z
		 M154.3,250.5c0.2,0.3,0.5,0.6,0.8,0.9h-1.5C153.9,251.2,154.1,250.9,154.3,250.5z M178.1,250.7c0.2,0.3,0.4,0.5,0.7,0.8h-1.4
		C177.7,251.2,177.9,250.9,178.1,250.7z M201.9,250.5c0.2,0.3,0.5,0.6,0.7,0.9h-1.5C201.4,251.2,201.7,250.9,201.9,250.5z
		 M225.7,250.6c0.2,0.3,0.4,0.5,0.7,0.8H225C225.2,251.2,225.5,250.9,225.7,250.6z M201.9,229.5c-0.2-0.3-0.4-0.6-0.6-0.8h1.3
		C202.3,228.9,202.1,229.2,201.9,229.5z M83,250.7c0.2,0.3,0.4,0.5,0.7,0.8h-1.4C82.6,251.2,82.8,250.9,83,250.7z M249.4,229.5
		c-0.2-0.3-0.4-0.6-0.6-0.8h1.3C249.8,228.9,249.6,229.2,249.4,229.5z M225.7,229.3c-0.2-0.2-0.3-0.5-0.6-0.7h1.1
		C226,228.9,225.8,229.1,225.7,229.3z M178.1,229.3c-0.2-0.2-0.4-0.5-0.6-0.7h1.1C178.4,228.9,178.3,229.1,178.1,229.3z
		 M154.3,229.5c-0.2-0.3-0.4-0.6-0.6-0.8h1.3C154.7,228.9,154.5,229.2,154.3,229.5z M130.5,229.3c-0.2-0.2-0.3-0.5-0.6-0.7h1.1
		C130.9,228.9,130.7,229.1,130.5,229.3z M106.8,229.5c-0.2-0.3-0.4-0.6-0.6-0.8h1.3C107.1,228.9,106.9,229.2,106.8,229.5z M83,229.3
		c-0.2-0.2-0.4-0.5-0.6-0.7h1.1C83.3,228.9,83.1,229.1,83,229.3z M102,255.7c0-0.7,0.6-1.3,1.3-1.3h16.6c0.7,0,1.3,0.6,1.3,1.3v16.6
		c0,0.7-0.6,1.3-1.3,1.3h-16.6c-0.7,0-1.3-0.6-1.3-1.3V255.7z M125.7,255.7c0-0.7,0.6-1.3,1.3-1.3h16.5c0.7,0,1.3,0.6,1.3,1.3v16.6
		c0,0.7-0.6,1.3-1.3,1.3h-16.6c-0.7,0-1.3-0.6-1.3-1.3v-16.6H125.7z M149.5,255.7c0-0.7,0.6-1.3,1.3-1.3h16.6c0.7,0,1.3,0.6,1.3,1.3
		v16.6c0,0.7-0.6,1.3-1.3,1.3h-16.6c-0.7,0-1.3-0.6-1.3-1.3L149.5,255.7L149.5,255.7z M173.2,255.7c0-0.7,0.6-1.3,1.3-1.3h16.6
		c0.7,0,1.3,0.6,1.3,1.3v16.6c0,0.7-0.6,1.3-1.3,1.3h-16.6c-0.7,0-1.3-0.6-1.3-1.3V255.7z M197.1,255.7c0-0.7,0.6-1.3,1.3-1.3H215
		c0.7,0,1.3,0.6,1.3,1.3v16.6c0,0.7-0.6,1.3-1.3,1.3h-16.6c-0.7,0-1.3-0.6-1.3-1.3V255.7z M220.8,255.7c0-0.7,0.6-1.3,1.3-1.3h16.6
		c0.7,0,1.3,0.6,1.3,1.3v16.6c0,0.7-0.6,1.3-1.3,1.3h-16.6c-0.7,0-1.3-0.6-1.3-1.3V255.7z M253.1,249.6c-0.7,0-1.3-0.6-1.3-1.3
		v-16.6c0-0.7,0.6-1.3,1.3-1.3h16.6c0.7,0,1.3,0.6,1.3,1.3v16.6c0,0.7-0.6,1.3-1.3,1.3H253.1z M244.3,227.4H243
		c0.2-0.2,0.5-0.5,0.6-0.8C243.9,226.9,244.1,227.2,244.3,227.4z M220.5,227.4h-1.1c0.2-0.2,0.4-0.4,0.6-0.7
		C220.1,227,220.2,227.2,220.5,227.4z M217.6,224.4c0,0.7-0.6,1.3-1.3,1.3h-16.6c-0.7,0-1.3-0.6-1.3-1.3v-16.6
		c0-0.7,0.6-1.3,1.3-1.3h16.6c0.7,0,1.3,0.6,1.3,1.3V224.4z M196.7,227.4h-1.2c0.2-0.2,0.4-0.5,0.6-0.8
		C196.3,226.9,196.5,227.2,196.7,227.4z M172.9,227.4h-1.1c0.2-0.2,0.4-0.4,0.6-0.7C172.5,227,172.7,227.2,172.9,227.4z
		 M149.2,227.4h-1.3c0.2-0.2,0.4-0.5,0.6-0.8C148.7,226.9,148.9,227.2,149.2,227.4z M125.3,227.4h-1.1c0.2-0.2,0.4-0.4,0.6-0.7
		C124.9,227,125.1,227.2,125.3,227.4z M101.6,227.4h-1.3c0.2-0.2,0.5-0.5,0.6-0.8C101.2,226.9,101.4,227.2,101.6,227.4z M77.8,227.4
		h-1.1c0.2-0.2,0.4-0.4,0.6-0.7C77.4,227,77.6,227.2,77.8,227.4z M98.9,252.6h1.5c-0.3,0.3-0.5,0.6-0.8,0.9
		C99.4,253.1,99.2,252.8,98.9,252.6z M122.7,252.6h1.4c-0.3,0.2-0.5,0.5-0.7,0.8C123.2,253.1,123,252.8,122.7,252.6z M146.4,252.6
		h1.5c-0.3,0.3-0.5,0.6-0.8,0.9C147,253.1,146.7,252.8,146.4,252.6z M170.3,252.6h1.4c-0.3,0.2-0.5,0.5-0.7,0.8
		C170.8,253.1,170.5,252.8,170.3,252.6z M194,252.6h1.5c-0.3,0.3-0.5,0.6-0.8,0.9C194.5,253.1,194.3,252.8,194,252.6z M217.9,252.6
		h1.4c-0.3,0.2-0.5,0.5-0.7,0.8C218.3,253.1,218.1,252.8,217.9,252.6z M241.6,252.6h1.5c-0.3,0.3-0.5,0.6-0.8,0.9
		C242.1,253.1,241.8,252.8,241.6,252.6z M249.4,250.5c0.2,0.3,0.5,0.6,0.8,0.9h-1.5C249,251.2,249.2,250.9,249.4,250.5z
		 M265.2,207.8v16.6c0,0.7-0.6,1.3-1.3,1.3h-16.6c-0.7,0-1.3-0.6-1.3-1.3v-16.6c0-0.7,0.6-1.3,1.3-1.3h16.6
		C264.6,206.5,265.2,207.1,265.2,207.8z M241.3,207.8v16.5c0,0.7-0.6,1.3-1.3,1.3h-16.5c-0.7,0-1.3-0.6-1.3-1.3v-16.6
		c0-0.7,0.6-1.3,1.3-1.3h16.6C240.7,206.5,241.3,207.1,241.3,207.8z M193.8,224.4c0,0.7-0.6,1.3-1.3,1.3h-16.6
		c-0.7,0-1.3-0.6-1.3-1.3v-16.6c0-0.7,0.6-1.3,1.3-1.3h16.6c0.7,0,1.3,0.6,1.3,1.3V224.4z M170.1,224.4c0,0.7-0.6,1.3-1.3,1.3h-16.6
		c-0.7,0-1.3-0.6-1.3-1.3v-16.6c0-0.7,0.6-1.3,1.3-1.3h16.6c0.7,0,1.3,0.6,1.3,1.3V224.4z M146.2,224.4c0,0.7-0.6,1.3-1.3,1.3h-16.6
		c-0.7,0-1.3-0.6-1.3-1.3v-16.6c0-0.7,0.6-1.3,1.3-1.3h16.6c0.7,0,1.3,0.6,1.3,1.3V224.4z M122.5,224.4c0,0.7-0.6,1.3-1.3,1.3h-16.6
		c-0.7,0-1.3-0.6-1.3-1.3v-16.6c0-0.7,0.6-1.3,1.3-1.3h16.6c0.7,0,1.3,0.6,1.3,1.3V224.4z M98.6,224.4c0,0.7-0.6,1.3-1.3,1.3H80.7
		c-0.7,0-1.3-0.6-1.3-1.3v-16.6c0-0.7,0.6-1.3,1.3-1.3h16.6c0.7,0,1.3,0.6,1.3,1.3V224.4z M74.9,224.4c0,0.7-0.6,1.3-1.3,1.3H57
		c-0.7,0-1.3-0.6-1.3-1.3v-16.6c0-0.7,0.6-1.3,1.3-1.3h16.6c0.7,0,1.3,0.6,1.3,1.3V224.4z M59.2,250.5c0.2,0.3,0.5,0.6,0.8,0.9h-1.5
		C58.7,251.2,59,250.9,59.2,250.5z M75.2,252.6h1.4c-0.3,0.2-0.5,0.5-0.7,0.8C75.7,253.1,75.4,252.8,75.2,252.6z M244.7,255.7
		c0-0.7,0.6-1.3,1.3-1.3h16.5c0.7,0,1.3,0.6,1.3,1.3v16.6c0,0.7-0.6,1.3-1.3,1.3h-16.6c-0.7,0-1.3-0.6-1.3-1.3v-16.6H244.7z
		 M59.8,228.7c-0.2,0.2-0.5,0.5-0.6,0.8c-0.2-0.3-0.4-0.6-0.6-0.8H59.8z M266.9,227.4c0.2-0.2,0.4-0.4,0.6-0.7
		c0.2,0.2,0.4,0.5,0.6,0.7H266.9z M243.7,205.6c-0.2-0.4-0.5-0.7-0.9-1h1.7C244.2,204.9,243.9,205.2,243.7,205.6z M219.9,205.4
		c-0.2-0.3-0.5-0.6-0.8-0.9h1.6C220.4,204.8,220.1,205.1,219.9,205.4z M196.1,205.6c-0.2-0.4-0.5-0.7-0.9-1h1.7
		C196.6,204.9,196.4,205.2,196.1,205.6z M172.3,205.4c-0.2-0.3-0.5-0.6-0.8-0.9h1.6C172.8,204.8,172.6,205.1,172.3,205.4z
		 M148.6,205.6c-0.2-0.4-0.5-0.7-0.9-1h1.7C149.1,204.9,148.8,205.2,148.6,205.6z M124.8,205.4c-0.2-0.3-0.5-0.6-0.8-0.9h1.6
		C125.3,204.8,125,205.1,124.8,205.4z M101,205.6c-0.2-0.4-0.5-0.7-0.9-1h1.7C101.5,204.9,101.2,205.2,101,205.6z M77.2,205.4
		c-0.2-0.3-0.5-0.6-0.8-0.9H78C77.7,204.8,77.4,205.1,77.2,205.4z M53.4,205.6c-0.2-0.4-0.5-0.7-0.9-1h1.7
		C54,204.9,53.7,205.2,53.4,205.6z M55.5,230.4c0.7,0,1.3,0.6,1.3,1.3v16.6c0,0.7-0.6,1.3-1.3,1.3H38.9c-0.7,0-1.3-0.6-1.3-1.3
		v-16.6c0-0.7,0.6-1.3,1.3-1.3H55.5z M99.6,274.5c0.5,0.8,1.3,1.4,2.2,1.8h-4.4C98.4,276,99.1,275.3,99.6,274.5z M123.4,274.7
		c0.5,0.8,1.2,1.3,2.1,1.6h-4.2C122.2,276,122.9,275.4,123.4,274.7z M147.2,274.5c0.5,0.8,1.3,1.4,2.2,1.8H145
		C145.9,276,146.7,275.3,147.2,274.5z M171,274.7c0.5,0.8,1.2,1.3,2.1,1.6h-4.2C169.7,276,170.5,275.4,171,274.7z M194.7,274.5
		c0.5,0.8,1.3,1.4,2.2,1.8h-4.4C193.5,276,194.2,275.3,194.7,274.5z M218.5,274.7c0.5,0.8,1.2,1.3,2.1,1.7h-4.2
		C217.3,276,218,275.4,218.5,274.7z M242.3,274.5c0.5,0.8,1.3,1.4,2.2,1.8h-4.4C241,276,241.8,275.3,242.3,274.5z M265.4,252.6h1.1
		c-0.2,0.2-0.4,0.4-0.5,0.6C265.8,252.9,265.6,252.8,265.4,252.6z M53.4,226.6c0.2,0.3,0.4,0.6,0.6,0.8h-1.3
		C53.1,227.2,53.3,226.9,53.4,226.6z M52.1,253.5c-0.2-0.3-0.5-0.6-0.8-0.9h1.5C52.5,252.8,52.3,253.1,52.1,253.5z M73,276.5
		c1.2-0.2,2.2-0.9,2.8-1.8c0.6,0.8,1.4,1.4,2.4,1.7c-1.2,0.2-2.2,0.9-2.8,1.8C74.9,277.4,74,276.8,73,276.5z M272.5,251.4
		c0.3-0.2,0.5-0.5,0.7-0.8c0.2,0.3,0.4,0.5,0.7,0.8H272.5z M276.8,249.6c-0.7,0-1.3-0.6-1.3-1.3v-16.6c0-0.7,0.6-1.3,1.3-1.3h16.6
		c0.7,0,1.3,0.6,1.3,1.3v16.6c0,0.7-0.6,1.3-1.3,1.3H276.8z M273.2,229.3c-0.2-0.2-0.3-0.5-0.6-0.7h1.1
		C273.6,228.9,273.4,229.1,273.2,229.3z M267.5,205.4c-0.2-0.3-0.5-0.6-0.8-0.9h1.6C267.9,204.8,267.7,205.1,267.5,205.4z
		 M260.6,203.5H259c0.3-0.3,0.6-0.5,0.8-0.9C260.1,203,260.3,203.3,260.6,203.5z M213.1,203.5h-1.6c0.3-0.3,0.6-0.5,0.8-0.9
		C212.5,203,212.8,203.3,213.1,203.5z M165.5,203.5h-1.6c0.3-0.3,0.6-0.5,0.8-0.9C164.9,203,165.2,203.3,165.5,203.5z M118,203.5
		h-1.6c0.3-0.3,0.6-0.5,0.8-0.9C117.4,203,117.7,203.3,118,203.5z M70.4,203.5h-1.6c0.3-0.3,0.6-0.5,0.8-0.9
		C69.8,203,70.1,203.3,70.4,203.5z M52.1,274.5c0.6,0.9,1.4,1.6,2.4,1.9c-1.1,0.2-2,0.8-2.7,1.7c-0.6-0.8-1.4-1.4-2.4-1.6
		C50.6,276.2,51.5,275.5,52.1,274.5z M77.7,280.6c0-0.7,0.6-1.3,1.3-1.3h175.6c0.7,0,1.3,0.6,1.3,1.3v16.6c0,0.7-0.6,1.3-1.3,1.3H79
		c-0.7,0-1.3-0.6-1.3-1.3V280.6z M236.9,203.5h-1.7c0.3-0.3,0.6-0.6,0.9-1C236.3,202.9,236.6,203.2,236.9,203.5z M189.4,203.5h-1.7
		c0.3-0.3,0.6-0.6,0.9-1C188.7,202.9,189,203.2,189.4,203.5z M141.8,203.5h-1.7c0.3-0.3,0.6-0.6,0.9-1
		C141.2,202.9,141.5,203.2,141.8,203.5z M94.3,203.5h-1.8c0.3-0.3,0.6-0.6,0.9-1C93.6,202.9,93.9,203.2,94.3,203.5z M46.7,203.5H45
		c0.3-0.3,0.6-0.6,0.9-1C46.1,202.9,46.4,203.2,46.7,203.5z M265.9,274.8c0.5,0.7,1.2,1.2,2,1.5H264
		C264.8,276,265.4,275.5,265.9,274.8z"/>
	<path style="fill:#FFFFFF;" d="M454.2,0H7C3.2,0,0,3.1,0,7v309.1c0,3.8,3.1,7,7,7h447.2c3.8,0,7-3.1,7-7V7
		C461.2,3.1,458.1,0,454.2,0z M3,146.6h304.5v158.9c0,3.8,3.1,7,7,7H439c3.8,0,7-3.1,7-7V131.8c0-3.8-3.1-7-7-7H314.5
		c-3.8,0-7,3.1-7,7v11.7H3v-37.1h455.1V316c0,2.2-1.8,4-4,4H7c-2.2,0-4-1.8-4-4V146.6z M314.5,127.9H439c2.2,0,4,1.8,4,4V170H310.6
		v-38.1C310.6,129.6,312.3,127.9,314.5,127.9z M310.6,172.9H443v132.6c0,2.2-1.8,4-4,4H314.5c-2.2,0-4-1.8-4-4V172.9H310.6z M7,3
		h447.2c2.2,0,4,1.8,4,4v96.5H3V7C3,4.8,4.8,3,7,3z"/>
	<path style="fill:#FFFFFF;" d="M311.5,83.3h130.8c2.2,0,4-1.8,4-4s-1.8-4-4-4H311.5c-2.2,0-4,1.8-4,4S309.3,83.3,311.5,83.3z
		 M310.5,79.3c0-0.5,0.4-1,1-1h130.8c0.5,0,1,0.4,1,1c0,0.5-0.4,1-1,1H311.5C311,80.3,310.5,79.9,310.5,79.3z"/>
	<path style="fill:#FFFFFF;" d="M311.5,72.3h130.8c2.2,0,4-1.8,4-4s-1.8-4-4-4H311.5c-2.2,0-4,1.8-4,4
		C307.5,70.5,309.3,72.3,311.5,72.3z M310.5,68.3c0-0.5,0.4-1,1-1h130.8c0.5,0,1,0.4,1,1c0,0.5-0.4,1-1,1H311.5
		C311,69.3,310.5,68.9,310.5,68.3z"/>
	<path style="fill:#FFFFFF;" d="M311.5,61.3h130.8c2.2,0,4-1.8,4-4s-1.8-4-4-4H311.5c-2.2,0-4,1.8-4,4
		C307.5,59.5,309.3,61.3,311.5,61.3z M310.5,57.3c0-0.5,0.4-1,1-1h130.8c0.5,0,1,0.4,1,1c0,0.5-0.4,1-1,1H311.5
		C311,58.3,310.5,57.9,310.5,57.3z"/>
	<path style="fill:#FFFFFF;" d="M311.5,50.3h130.8c2.2,0,4-1.8,4-4s-1.8-4-4-4H311.5c-2.2,0-4,1.8-4,4S309.3,50.3,311.5,50.3z
		 M310.5,46.3c0-0.5,0.4-1,1-1h130.8c0.5,0,1,0.4,1,1c0,0.5-0.4,1-1,1H311.5C311,47.3,310.5,46.9,310.5,46.3z"/>
	<path style="fill:#FFFFFF;" d="M311.5,39.3h130.8c2.2,0,4-1.8,4-4s-1.8-4-4-4H311.5c-2.2,0-4,1.8-4,4
		C307.5,37.5,309.3,39.3,311.5,39.3z M310.5,35.3c0-0.5,0.4-1,1-1h130.8c0.5,0,1,0.4,1,1c0,0.5-0.4,1-1,1H311.5
		C311,36.3,310.5,35.9,310.5,35.3z"/>
	<path style="fill:#FFFFFF;" d="M311.5,28.3h130.8c2.2,0,4-1.8,4-4s-1.8-4-4-4H311.5c-2.2,0-4,1.8-4,4
		C307.5,26.5,309.3,28.3,311.5,28.3z M310.5,24.3c0-0.5,0.4-1,1-1h130.8c0.5,0,1,0.4,1,1c0,0.5-0.4,1-1,1H311.5
		C311,25.3,310.5,24.8,310.5,24.3z"/>
	<path style="fill:#FFFFFF;" d="M311.5,17.3h130.8c2.2,0,4-1.8,4-4s-1.8-4-4-4H311.5c-2.2,0-4,1.8-4,4
		C307.5,15.5,309.3,17.3,311.5,17.3z M310.5,13.3c0-0.5,0.4-1,1-1h130.8c0.5,0,1,0.4,1,1c0,0.5-0.4,1-1,1H311.5
		C311,14.3,310.5,13.8,310.5,13.3z"/>
	<path style="fill:#FFFFFF;" d="M325.8,302.3h101.9c2.2,0,3.9-1.8,3.9-3.9v-6.8c0-2.2-1.8-3.9-3.9-3.9H325.8c-2.2,0-3.9,1.8-3.9,3.9
		v6.8C321.9,300.5,323.7,302.3,325.8,302.3z M324.9,298.4v-6.8c0-0.5,0.4-0.9,0.9-0.9h101.9c0.5,0,0.9,0.4,0.9,0.9v6.8
		c0,0.5-0.4,0.9-0.9,0.9H325.8C325.3,299.3,324.9,298.9,324.9,298.4z"/>
</g>
</svg>
