<?xml version="1.0" encoding="utf-8"?>
<!-- Generator: Adobe Illustrator 24.0.1, SVG Export Plug-In . SVG Version: 6.00 Build 0)  -->
<svg version="1.1" id="Layer_4" xmlns="http://www.w3.org/2000/svg" xmlns:xlink="http://www.w3.org/1999/xlink" x="0px" y="0px"
	 viewBox="96.5 1041.8 461.1 323" style="enable-background:new 96.5 1041.8 461.1 323;" xml:space="preserve">
<style type="text/css">
	.st0{fill:#FFFFFF;}
</style>
<g>
	<path class="st0" d="M121.9,1354.7H390c4.4,0,8-3.6,8-8v-129.4c0-4.4-3.6-8-8-8H121.9c-4.4,0-8,3.6-8,8v129.4
		C113.9,1351.1,117.5,1354.7,121.9,1354.7z M121.9,1212.2l268.1,0c2.8,0,5,2.3,5,5v129.4c0,2.8-2.3,5-5,5H121.9c-2.8,0-5-2.3-5-5
		v-129.4C116.9,1214.5,119.2,1212.2,121.9,1212.2z"/>
	<path class="st0" d="M122.1,1246.4h4.8c-0.9,0.8-1.5,1.9-1.5,3.2v16.6c0,2.4,1.9,4.3,4.3,4.3h2.7c-0.8,0.8-1.3,1.9-1.3,3.1v16.6
		c0,1.2,0.5,2.4,1.4,3.1h-4.2c-2.4,0-4.3,1.9-4.3,4.3v16.6c0,2,1.4,3.7,3.3,4.2c-1.9,0.5-3.3,2.1-3.3,4.2v16.6
		c0,2.4,1.9,4.3,4.3,4.3h16.6c1.4,0,2.6-0.7,3.4-1.7c0.8,1,2,1.7,3.4,1.7l16.6,0c1.5,0,2.8-0.8,3.6-1.9c0.8,1.2,2.1,1.9,3.6,1.9
		l175.6,0c1.6,0,2.9-0.9,3.7-2.1c0.7,1.3,2.1,2.1,3.7,2.1H375c2.4,0,4.3-1.9,4.3-4.3v-16.6c0-1.9-1.2-3.4-2.8-4l13.8,0
		c2.4,0,4.3-1.9,4.3-4.3v-16.6c0-1.7-1-3.1-2.4-3.8c1.2-0.8,2-2.1,2-3.6v-16.6c0-2.4-1.9-4.3-4.3-4.3l-2.7,0
		c0.8-0.8,1.3-1.9,1.3-3.1v-16.6c0-2.4-1.9-4.3-4.3-4.3h-4.8c0.9-0.8,1.5-1.9,1.5-3.2v-16.6c0-2.4-1.9-4.3-4.3-4.3h-16.6
		c-1.5,0-2.8,0.8-3.6,1.9c-0.8-1.2-2.1-1.9-3.6-1.9h-16.6c-1.5,0-2.9,0.8-3.7,2.1c-0.8-1.2-2.1-2.1-3.6-2.1h-16.6
		c-1.5,0-2.8,0.8-3.6,1.9c-0.8-1.2-2.1-1.9-3.6-1.9h-16.6c-1.5,0-2.9,0.8-3.6,2.1c-0.8-1.2-2.1-2.1-3.6-2.1h-16.6
		c-1.5,0-2.8,0.8-3.6,1.9c-0.8-1.2-2.1-1.9-3.6-1.9h-16.6c-1.5,0-2.9,0.8-3.6,2.1c-0.8-1.2-2.1-2.1-3.6-2.1h-16.6
		c-1.5,0-2.8,0.8-3.6,1.9c-0.8-1.2-2.1-1.9-3.6-1.9h-16.6c-1.5,0-2.9,0.8-3.6,2.1c-0.8-1.2-2.1-2.1-3.6-2.1h-16.6
		c-1.5,0-2.8,0.8-3.6,1.9c-0.8-1.2-2.1-1.9-3.6-1.9H146c-1.5,0-2.9,0.8-3.6,2.1c-0.8-1.2-2.1-2.1-3.6-2.1h-16.6
		c-2.4,0-4.3,1.9-4.3,4.3l0,16.6C117.8,1244.4,119.8,1246.4,122.1,1246.4z M357.2,1322.4c0-0.7,0.6-1.3,1.3-1.3H375
		c0.7,0,1.3,0.6,1.3,1.3l0,16.6c0,0.7-0.6,1.3-1.3,1.3h-16.6c-0.7,0-1.3-0.6-1.3-1.3L357.2,1322.4z M354.8,1320.2
		c-0.5-0.9-1.3-1.5-2.2-1.9h4.5C356,1318.7,355.3,1319.4,354.8,1320.2z M127.1,1322.4c0-0.7,0.6-1.3,1.3-1.3h16.6
		c0.7,0,1.3,0.6,1.3,1.3v16.6c0,0.7-0.6,1.3-1.3,1.3h-16.6c-0.7,0-1.3-0.6-1.3-1.3L127.1,1322.4z M140,1242.1c0,0.7-0.6,1.3-1.3,1.3
		h-16.6c-0.7,0-1.3-0.6-1.3-1.3v-16.6c0-0.7,0.6-1.3,1.3-1.3h16.6c0.7,0,1.3,0.6,1.3,1.3V1242.1z M359.9,1243.4
		c-0.7,0-1.3-0.6-1.3-1.3v-16.6c0-0.7,0.6-1.3,1.3-1.3h16.6c0.7,0,1.3,0.6,1.3,1.3l0,16.6c0,0.7-0.6,1.2-1.3,1.2H359.9z
		 M150.5,1322.4c0-0.7,0.6-1.3,1.3-1.3l16.6,0c0.7,0,1.3,0.6,1.3,1.3v16.6c0,0.7-0.6,1.3-1.3,1.3l-16.6,0c-0.7,0-1.3-0.6-1.3-1.3
		V1322.4z M163.8,1242.1c0,0.7-0.6,1.3-1.3,1.3H146c-0.7,0-1.3-0.6-1.3-1.3v-16.6c0-0.7,0.6-1.3,1.3-1.3h16.6c0.7,0,1.3,0.6,1.3,1.3
		V1242.1z M187.5,1242.1c0,0.7-0.6,1.3-1.3,1.3h-16.6c-0.7,0-1.3-0.6-1.3-1.3l0-16.6c0-0.7,0.6-1.3,1.3-1.3h16.6
		c0.7,0,1.3,0.6,1.3,1.3V1242.1z M211.4,1242.1c0,0.7-0.6,1.3-1.3,1.3h-16.6c-0.7,0-1.3-0.6-1.3-1.3v-16.6c0-0.7,0.6-1.3,1.3-1.3
		h16.6c0.7,0,1.3,0.6,1.3,1.3V1242.1z M235.1,1242.1c0,0.7-0.6,1.3-1.3,1.3h-16.6c-0.7,0-1.3-0.6-1.3-1.3v-16.6
		c0-0.7,0.6-1.3,1.3-1.3h16.6c0.7,0,1.3,0.6,1.3,1.3V1242.1z M258.9,1242.1c0,0.7-0.6,1.3-1.3,1.3h-16.6c-0.7,0-1.3-0.6-1.3-1.3
		v-16.6c0-0.7,0.6-1.3,1.3-1.3h16.6c0.7,0,1.3,0.6,1.3,1.3V1242.1z M282.7,1242.1c0,0.7-0.6,1.3-1.3,1.3h-16.6
		c-0.7,0-1.3-0.6-1.3-1.3v-16.6c0-0.7,0.6-1.3,1.3-1.3h16.6c0.7,0,1.3,0.6,1.3,1.3V1242.1z M306.5,1242.1c0,0.7-0.6,1.3-1.3,1.3
		h-16.6c-0.7,0-1.3-0.6-1.3-1.3v-16.6c0-0.7,0.6-1.3,1.3-1.3h16.6c0.7,0,1.3,0.6,1.3,1.3V1242.1z M330.2,1242.1
		c0,0.7-0.6,1.3-1.3,1.3h-16.5c-0.7,0-1.3-0.6-1.3-1.3l0-16.6c0-0.7,0.6-1.3,1.3-1.3h16.6c0.7,0,1.3,0.6,1.3,1.3V1242.1z
		 M354.1,1242.1c0,0.7-0.6,1.3-1.3,1.3h-16.6c-0.7,0-1.3-0.6-1.3-1.3v-16.6c0-0.7,0.6-1.3,1.3-1.3h16.6c0.7,0,1.3,0.6,1.3,1.3
		V1242.1z M367.5,1267.5c-0.7,0-1.3-0.6-1.3-1.3v-16.6c0-0.7,0.6-1.3,1.3-1.3h16.6c0.7,0,1.3,0.6,1.3,1.3v16.6
		c0,0.7-0.6,1.3-1.3,1.3H367.5z M364.6,1297.5c0-0.7,0.6-1.3,1.3-1.3h24.4c0.7,0,1.3,0.6,1.3,1.3v16.6c0,0.7-0.6,1.3-1.3,1.3
		l-24.4,0c-0.7,0-1.3-0.6-1.3-1.3V1297.5z M146.2,1314.1c0,0.7-0.6,1.3-1.3,1.3h-16.6c-0.7,0-1.3-0.6-1.3-1.3v-16.6
		c0-0.7,0.6-1.3,1.3-1.3h16.6c0.7,0,1.3,0.6,1.3,1.3L146.2,1314.1z M146.3,1248.3c0.7,0,1.3,0.6,1.3,1.3v16.6c0,0.7-0.6,1.3-1.3,1.3
		h-16.6c-0.7,0-1.3-0.6-1.3-1.3v-16.6c0-0.7,0.6-1.3,1.3-1.3H146.3z M150.9,1297.5c0-0.7,0.6-1.3,1.3-1.3h16.6
		c0.7,0,1.3,0.6,1.3,1.3v16.6c0,0.7-0.6,1.3-1.3,1.3h-16.6c-0.7,0-1.3-0.6-1.3-1.3V1297.5z M174.6,1297.5c0-0.7,0.6-1.3,1.3-1.3
		h16.6c0.7,0,1.3,0.6,1.3,1.3l0,16.6c0,0.7-0.6,1.3-1.3,1.3h-16.6c-0.7,0-1.3-0.6-1.3-1.3V1297.5z M175.9,1272.2
		c0.7,0,1.3,0.6,1.3,1.3v16.6c0,0.7-0.6,1.3-1.3,1.3h-16.6c-0.7,0-1.3-0.6-1.3-1.3v-16.6c0-0.7,0.6-1.3,1.3-1.3H175.9z
		 M324.4,1290.1v-16.6c0-0.7,0.6-1.3,1.3-1.3h16.5c0.7,0,1.3,0.6,1.3,1.3v16.6c0,0.7-0.6,1.3-1.3,1.3h-16.6
		C325,1291.4,324.4,1290.8,324.4,1290.1z M296,1290.1c0,0.7-0.6,1.3-1.3,1.3h-16.6c-0.7,0-1.3-0.6-1.3-1.3v-16.6
		c0-0.7,0.6-1.3,1.3-1.3h16.6c0.7,0,1.3,0.6,1.3,1.3V1290.1z M319.9,1290.1c0,0.7-0.6,1.3-1.3,1.3H302c-0.7,0-1.3-0.6-1.3-1.3v-16.6
		c0-0.7,0.6-1.3,1.3-1.3h16.6c0.7,0,1.3,0.6,1.3,1.3V1290.1z M272.3,1290.1c0,0.7-0.6,1.3-1.3,1.3h-16.6c-0.7,0-1.3-0.6-1.3-1.3
		v-16.6c0-0.7,0.6-1.3,1.3-1.3H271c0.7,0,1.3,0.6,1.3,1.3V1290.1z M248.5,1290.1c0,0.7-0.6,1.3-1.3,1.3h-16.6
		c-0.7,0-1.3-0.6-1.3-1.3v-16.6c0-0.7,0.6-1.3,1.3-1.3h16.6c0.7,0,1.3,0.6,1.3,1.3V1290.1z M224.8,1290.1c0,0.7-0.6,1.3-1.3,1.3
		h-16.6c-0.7,0-1.3-0.6-1.3-1.3l0-16.6c0-0.7,0.6-1.3,1.3-1.3h16.6c0.7,0,1.3,0.6,1.3,1.3V1290.1z M200.9,1290.1
		c0,0.7-0.6,1.3-1.3,1.3h-16.6c-0.7,0-1.3-0.6-1.3-1.3v-16.6c0-0.7,0.6-1.3,1.3-1.3h16.6c0.7,0,1.3,0.6,1.3,1.3V1290.1z
		 M203.3,1292.3c0.2,0.3,0.5,0.6,0.7,0.9h-1.5C202.8,1293,203,1292.7,203.3,1292.3z M227,1292.5c0.2,0.3,0.4,0.5,0.7,0.8h-1.4
		C226.6,1293,226.8,1292.7,227,1292.5z M250.8,1292.3c0.2,0.3,0.5,0.6,0.8,0.9h-1.5C250.4,1293,250.6,1292.7,250.8,1292.3z
		 M274.6,1292.5c0.2,0.3,0.4,0.5,0.7,0.8h-1.4C274.2,1293,274.4,1292.7,274.6,1292.5z M298.4,1292.3c0.2,0.3,0.5,0.6,0.7,0.9h-1.5
		C297.9,1293,298.2,1292.7,298.4,1292.3z M322.2,1292.4c0.2,0.3,0.4,0.5,0.7,0.8h-1.4C321.7,1293,322,1292.7,322.2,1292.4z
		 M298.4,1271.3c-0.2-0.3-0.4-0.6-0.6-0.8h1.3C298.8,1270.7,298.6,1271,298.4,1271.3z M179.5,1292.5c0.2,0.3,0.4,0.5,0.7,0.8h-1.4
		C179.1,1293,179.3,1292.7,179.5,1292.5z M345.9,1271.3c-0.2-0.3-0.4-0.6-0.6-0.8h1.3C346.3,1270.7,346.1,1271,345.9,1271.3z
		 M322.2,1271.1c-0.2-0.2-0.3-0.5-0.6-0.7h1.1C322.5,1270.7,322.3,1270.9,322.2,1271.1z M274.6,1271.1c-0.2-0.2-0.4-0.5-0.6-0.7h1.1
		C274.9,1270.7,274.8,1270.9,274.6,1271.1z M250.8,1271.3c-0.2-0.3-0.4-0.6-0.6-0.8h1.3C251.2,1270.7,251,1271,250.8,1271.3z
		 M227,1271.1c-0.2-0.2-0.3-0.5-0.6-0.7h1.1C227.4,1270.7,227.2,1270.9,227,1271.1z M203.3,1271.3c-0.2-0.3-0.4-0.6-0.6-0.8h1.3
		C203.6,1270.7,203.4,1271,203.3,1271.3z M179.5,1271.1c-0.2-0.2-0.4-0.5-0.6-0.7h1.1C179.8,1270.7,179.6,1270.9,179.5,1271.1z
		 M198.5,1297.5c0-0.7,0.6-1.3,1.3-1.3h16.6c0.7,0,1.3,0.6,1.3,1.3v16.6c0,0.7-0.6,1.3-1.3,1.3h-16.6c-0.7,0-1.3-0.6-1.3-1.3V1297.5
		z M222.2,1297.5c0-0.7,0.6-1.3,1.3-1.3H240c0.7,0,1.3,0.6,1.3,1.3v16.6c0,0.7-0.6,1.3-1.3,1.3h-16.6c-0.7,0-1.3-0.6-1.3-1.3V1297.5
		z M246,1297.5c0-0.7,0.6-1.3,1.3-1.3h16.6c0.7,0,1.3,0.6,1.3,1.3v16.6c0,0.7-0.6,1.3-1.3,1.3h-16.6c-0.7,0-1.3-0.6-1.3-1.3V1297.5z
		 M269.7,1297.5c0-0.7,0.6-1.3,1.3-1.3h16.6c0.7,0,1.3,0.6,1.3,1.3v16.6c0,0.7-0.6,1.3-1.3,1.3l-16.6,0c-0.7,0-1.3-0.6-1.3-1.3
		V1297.5z M293.6,1297.5c0-0.7,0.6-1.3,1.3-1.3h16.6c0.7,0,1.3,0.6,1.3,1.3v16.6c0,0.7-0.6,1.3-1.3,1.3l-16.6,0
		c-0.7,0-1.3-0.6-1.3-1.3V1297.5z M317.3,1297.5c0-0.7,0.6-1.3,1.3-1.3h16.6c0.7,0,1.3,0.6,1.3,1.3l0,16.6c0,0.7-0.6,1.3-1.3,1.3
		l-16.6,0c-0.7,0-1.3-0.6-1.3-1.3V1297.5z M349.6,1291.4c-0.7,0-1.3-0.6-1.3-1.3v-16.6c0-0.7,0.6-1.3,1.3-1.3h16.6
		c0.7,0,1.3,0.6,1.3,1.3v16.6c0,0.7-0.6,1.3-1.3,1.3H349.6z M340.8,1269.2h-1.3c0.2-0.2,0.5-0.5,0.6-0.8
		C340.4,1268.7,340.6,1269,340.8,1269.2z M317,1269.2h-1.1c0.2-0.2,0.4-0.4,0.6-0.7C316.6,1268.8,316.7,1269,317,1269.2z
		 M314.1,1266.2c0,0.7-0.6,1.3-1.3,1.3h-16.6c-0.7,0-1.3-0.6-1.3-1.3v-16.6c0-0.7,0.6-1.3,1.3-1.3h16.6c0.7,0,1.3,0.6,1.3,1.3
		V1266.2z M293.2,1269.2H292c0.2-0.2,0.4-0.5,0.6-0.8C292.8,1268.7,293,1269,293.2,1269.2z M269.4,1269.2h-1.1
		c0.2-0.2,0.4-0.4,0.6-0.7C269,1268.8,269.2,1269,269.4,1269.2z M245.7,1269.2h-1.3c0.2-0.2,0.4-0.5,0.6-0.8
		C245.2,1268.7,245.4,1269,245.7,1269.2z M221.8,1269.2h-1.1c0.2-0.2,0.4-0.4,0.6-0.7C221.4,1268.8,221.6,1269,221.8,1269.2z
		 M198.1,1269.2h-1.3c0.2-0.2,0.5-0.5,0.6-0.8C197.7,1268.7,197.9,1269,198.1,1269.2z M174.3,1269.2h-1.1c0.2-0.2,0.4-0.4,0.6-0.7
		C173.9,1268.8,174.1,1269,174.3,1269.2z M195.4,1294.4h1.5c-0.3,0.3-0.5,0.6-0.8,0.9C195.9,1294.9,195.7,1294.6,195.4,1294.4z
		 M219.2,1294.4h1.4c-0.3,0.2-0.5,0.5-0.7,0.8C219.7,1294.9,219.5,1294.6,219.2,1294.4z M242.9,1294.4h1.5c-0.3,0.3-0.5,0.6-0.8,0.9
		C243.5,1294.9,243.2,1294.6,242.9,1294.4z M266.8,1294.4h1.4c-0.3,0.2-0.5,0.5-0.7,0.8C267.3,1294.9,267,1294.6,266.8,1294.4z
		 M290.5,1294.4h1.5c-0.3,0.3-0.5,0.6-0.8,0.9C291,1294.9,290.8,1294.6,290.5,1294.4z M314.4,1294.4h1.4c-0.3,0.2-0.5,0.5-0.7,0.8
		C314.8,1294.9,314.6,1294.6,314.4,1294.4z M338.1,1294.4h1.5c-0.3,0.3-0.5,0.6-0.8,0.9C338.6,1294.9,338.3,1294.6,338.1,1294.4z
		 M345.9,1292.3c0.2,0.3,0.5,0.6,0.8,0.9h-1.5C345.5,1293,345.7,1292.7,345.9,1292.3z M361.7,1249.6l0,16.6c0,0.7-0.6,1.3-1.3,1.3
		h-16.6c-0.7,0-1.3-0.6-1.3-1.3v-16.6c0-0.7,0.6-1.3,1.3-1.3h16.6C361.1,1248.3,361.7,1248.9,361.7,1249.6z M337.8,1249.6v16.5
		c0,0.7-0.6,1.3-1.3,1.3H320c-0.7,0-1.3-0.6-1.3-1.3l0-16.6c0-0.7,0.6-1.3,1.3-1.3h16.6C337.2,1248.3,337.8,1248.9,337.8,1249.6z
		 M290.3,1266.2c0,0.7-0.6,1.3-1.3,1.3h-16.6c-0.7,0-1.3-0.6-1.3-1.3v-16.6c0-0.7,0.6-1.3,1.3-1.3H289c0.7,0,1.3,0.6,1.3,1.3V1266.2
		z M266.6,1266.2c0,0.7-0.6,1.3-1.3,1.3h-16.6c-0.7,0-1.3-0.6-1.3-1.3v-16.6c0-0.7,0.6-1.3,1.3-1.3h16.6c0.7,0,1.3,0.6,1.3,1.3
		V1266.2z M242.7,1266.2c0,0.7-0.6,1.3-1.3,1.3h-16.6c-0.7,0-1.3-0.6-1.3-1.3v-16.6c0-0.7,0.6-1.3,1.3-1.3h16.6
		c0.7,0,1.3,0.6,1.3,1.3L242.7,1266.2z M219,1266.2c0,0.7-0.6,1.3-1.3,1.3h-16.6c-0.7,0-1.3-0.6-1.3-1.3l0-16.6
		c0-0.7,0.6-1.3,1.3-1.3h16.6c0.7,0,1.3,0.6,1.3,1.3V1266.2z M195.1,1266.2c0,0.7-0.6,1.3-1.3,1.3h-16.6c-0.7,0-1.3-0.6-1.3-1.3
		l0-16.6c0-0.7,0.6-1.3,1.3-1.3h16.6c0.7,0,1.3,0.6,1.3,1.3V1266.2z M171.4,1266.2c0,0.7-0.6,1.3-1.3,1.3h-16.6
		c-0.7,0-1.3-0.6-1.3-1.3v-16.6c0-0.7,0.6-1.3,1.3-1.3h16.6c0.7,0,1.3,0.6,1.3,1.3V1266.2z M155.7,1292.3c0.2,0.3,0.5,0.6,0.8,0.9
		h-1.5C155.2,1293,155.5,1292.7,155.7,1292.3z M171.7,1294.4h1.4c-0.3,0.2-0.5,0.5-0.7,0.8C172.2,1294.9,171.9,1294.6,171.7,1294.4z
		 M341.2,1297.5c0-0.7,0.6-1.3,1.3-1.3H359c0.7,0,1.3,0.6,1.3,1.3l0,16.6c0,0.7-0.6,1.3-1.3,1.3l-16.6,0c-0.7,0-1.3-0.6-1.3-1.3
		V1297.5z M156.3,1270.5c-0.2,0.2-0.5,0.5-0.6,0.8c-0.2-0.3-0.4-0.6-0.6-0.8H156.3z M363.4,1269.2c0.2-0.2,0.4-0.4,0.6-0.7
		c0.2,0.2,0.4,0.5,0.6,0.7H363.4z M340.2,1247.4c-0.2-0.4-0.5-0.7-0.9-1h1.7C340.7,1246.7,340.4,1247,340.2,1247.4z M316.4,1247.2
		c-0.2-0.3-0.5-0.6-0.8-0.9h1.6C316.9,1246.6,316.6,1246.9,316.4,1247.2z M292.6,1247.4c-0.2-0.4-0.5-0.7-0.9-1l1.7,0
		C293.1,1246.7,292.9,1247,292.6,1247.4z M268.8,1247.2c-0.2-0.3-0.5-0.6-0.8-0.9l1.6,0C269.3,1246.6,269.1,1246.9,268.8,1247.2z
		 M245.1,1247.4c-0.2-0.4-0.5-0.7-0.9-1h1.7C245.6,1246.7,245.3,1247,245.1,1247.4z M221.3,1247.2c-0.2-0.3-0.5-0.6-0.8-0.9l1.6,0
		C221.8,1246.6,221.5,1246.9,221.3,1247.2z M197.5,1247.4c-0.2-0.4-0.5-0.7-0.9-1l1.7,0C198,1246.7,197.7,1247,197.5,1247.4z
		 M173.7,1247.2c-0.2-0.3-0.5-0.6-0.8-0.9l1.6,0C174.2,1246.6,173.9,1246.9,173.7,1247.2z M149.9,1247.4c-0.2-0.4-0.5-0.7-0.9-1h1.7
		C150.5,1246.7,150.2,1247,149.9,1247.4z M152,1272.2c0.7,0,1.3,0.6,1.3,1.3v16.6c0,0.7-0.6,1.3-1.3,1.3h-16.6
		c-0.7,0-1.3-0.6-1.3-1.3v-16.6c0-0.7,0.6-1.3,1.3-1.3H152z M196.1,1316.3c0.5,0.8,1.3,1.4,2.2,1.8h-4.4
		C194.9,1317.8,195.6,1317.1,196.1,1316.3z M219.9,1316.5c0.5,0.8,1.2,1.3,2.1,1.6h-4.2C218.7,1317.8,219.4,1317.2,219.9,1316.5z
		 M243.7,1316.3c0.5,0.8,1.3,1.4,2.2,1.8h-4.4C242.4,1317.8,243.2,1317.1,243.7,1316.3z M267.5,1316.5c0.5,0.8,1.2,1.3,2.1,1.6h-4.2
		C266.2,1317.8,267,1317.2,267.5,1316.5z M291.2,1316.3c0.5,0.8,1.3,1.4,2.2,1.8h-4.4C290,1317.8,290.7,1317.1,291.2,1316.3z
		 M315,1316.5c0.5,0.8,1.2,1.3,2.1,1.7h-4.2C313.8,1317.8,314.5,1317.2,315,1316.5z M338.8,1316.3c0.5,0.8,1.3,1.4,2.2,1.8h-4.4
		C337.5,1317.8,338.3,1317.1,338.8,1316.3z M361.9,1294.4h1.1c-0.2,0.2-0.4,0.4-0.5,0.6C362.3,1294.7,362.1,1294.6,361.9,1294.4z
		 M149.9,1268.4c0.2,0.3,0.4,0.6,0.6,0.8h-1.3C149.6,1269,149.8,1268.7,149.9,1268.4z M148.6,1295.3c-0.2-0.3-0.5-0.6-0.8-0.9h1.5
		C149,1294.6,148.8,1294.9,148.6,1295.3z M169.5,1318.3c1.2-0.2,2.2-0.9,2.8-1.8c0.6,0.8,1.4,1.4,2.4,1.7c-1.2,0.2-2.2,0.9-2.8,1.8
		C171.4,1319.2,170.5,1318.6,169.5,1318.3z M369,1293.2c0.3-0.2,0.5-0.5,0.7-0.8c0.2,0.3,0.4,0.5,0.7,0.8H369z M373.3,1291.4
		c-0.7,0-1.3-0.6-1.3-1.3v-16.6c0-0.7,0.6-1.3,1.3-1.3h16.6c0.7,0,1.3,0.6,1.3,1.3v16.6c0,0.7-0.6,1.3-1.3,1.3H373.3z M369.7,1271.1
		c-0.2-0.2-0.3-0.5-0.6-0.7h1.1C370.1,1270.7,369.9,1270.9,369.7,1271.1z M364,1247.2c-0.2-0.3-0.5-0.6-0.8-0.9h1.6
		C364.4,1246.6,364.2,1246.9,364,1247.2z M357.1,1245.3h-1.6c0.3-0.3,0.6-0.5,0.8-0.9C356.6,1244.8,356.8,1245.1,357.1,1245.3z
		 M309.6,1245.3H308c0.3-0.3,0.6-0.5,0.8-0.9C309,1244.8,309.3,1245.1,309.6,1245.3z M262,1245.3h-1.6c0.3-0.3,0.6-0.5,0.8-0.9
		C261.4,1244.8,261.7,1245.1,262,1245.3z M214.5,1245.3h-1.6c0.3-0.3,0.6-0.5,0.8-0.9C213.9,1244.8,214.2,1245.1,214.5,1245.3z
		 M166.9,1245.3h-1.6c0.3-0.3,0.6-0.5,0.8-0.9C166.3,1244.8,166.6,1245.1,166.9,1245.3z M148.6,1316.3c0.6,0.9,1.4,1.6,2.4,1.9
		c-1.1,0.2-2,0.8-2.7,1.7c-0.6-0.8-1.4-1.4-2.4-1.6C147.1,1318,148,1317.3,148.6,1316.3z M174.2,1322.4c0-0.7,0.6-1.3,1.3-1.3
		l175.6,0c0.7,0,1.3,0.6,1.3,1.3v16.6c0,0.7-0.6,1.3-1.3,1.3H175.5c-0.7,0-1.3-0.6-1.3-1.3V1322.4z M333.4,1245.3h-1.7
		c0.3-0.3,0.6-0.6,0.9-1C332.8,1244.7,333.1,1245,333.4,1245.3z M285.9,1245.3h-1.7c0.3-0.3,0.6-0.6,0.9-1
		C285.2,1244.7,285.5,1245,285.9,1245.3z M238.3,1245.3h-1.7c0.3-0.3,0.6-0.6,0.9-1C237.7,1244.7,238,1245,238.3,1245.3z
		 M190.8,1245.3H189c0.3-0.3,0.6-0.6,0.9-1C190.1,1244.7,190.4,1245,190.8,1245.3z M143.2,1245.3h-1.7c0.3-0.3,0.6-0.6,0.9-1
		C142.6,1244.7,142.9,1245,143.2,1245.3z M362.4,1316.6c0.5,0.7,1.2,1.2,2,1.5h-3.9C361.3,1317.8,361.9,1317.3,362.4,1316.6z"/>
	<path class="st0" d="M550.7,1041.8H103.5c-3.8,0-7,3.1-7,7v309.1c0,3.8,3.1,7,7,7h447.2c3.8,0,7-3.1,7-7v-309.1
		C557.7,1044.9,554.6,1041.8,550.7,1041.8z M99.5,1188.4H404v158.9c0,3.8,3.1,7,7,7h124.5c3.8,0,7-3.1,7-7v-173.7c0-3.8-3.1-7-7-7
		H411c-3.8,0-7,3.1-7,7v11.7H99.5v-37.1h455.1v209.6c0,2.2-1.8,4-4,4H103.5c-2.2,0-4-1.8-4-4V1188.4z M411,1169.7h124.5
		c2.2,0,4,1.8,4,4v38.1H407.1v-38.1C407.1,1171.4,408.8,1169.7,411,1169.7z M407.1,1214.7h132.4v132.6c0,2.2-1.8,4-4,4H411
		c-2.2,0-4-1.8-4-4V1214.7z M103.5,1044.8h447.2c2.2,0,4,1.8,4,4v96.5H99.5v-96.5C99.5,1046.6,101.3,1044.8,103.5,1044.8z"/>
	<path class="st0" d="M408,1125.1h130.8c2.2,0,4-1.8,4-4c0-2.2-1.8-4-4-4H408c-2.2,0-4,1.8-4,4S405.8,1125.1,408,1125.1z
		 M407,1121.1c0-0.5,0.4-1,1-1h130.8c0.5,0,1,0.4,1,1c0,0.5-0.4,1-1,1H408C407.5,1122.1,407,1121.7,407,1121.1z"/>
	<path class="st0" d="M408,1114.1h130.8c2.2,0,4-1.8,4-4c0-2.2-1.8-4-4-4l-130.8,0c-2.2,0-4,1.8-4,4
		C404,1112.3,405.8,1114.1,408,1114.1z M407,1110.1c0-0.5,0.4-1,1-1h130.8c0.5,0,1,0.4,1,1c0,0.5-0.4,1-1,1l-130.8,0
		C407.5,1111.1,407,1110.7,407,1110.1z"/>
	<path class="st0" d="M408,1103.1h130.8c2.2,0,4-1.8,4-4c0-2.2-1.8-4-4-4l-130.8,0c-2.2,0-4,1.8-4,4
		C404,1101.3,405.8,1103.1,408,1103.1z M407,1099.1c0-0.5,0.4-1,1-1h130.8c0.5,0,1,0.4,1,1c0,0.5-0.4,1-1,1H408
		C407.5,1100.1,407,1099.7,407,1099.1z"/>
	<path class="st0" d="M408,1092.1h130.8c2.2,0,4-1.8,4-4c0-2.2-1.8-4-4-4H408c-2.2,0-4,1.8-4,4S405.8,1092.1,408,1092.1z
		 M407,1088.1c0-0.5,0.4-1,1-1h130.8c0.5,0,1,0.4,1,1c0,0.5-0.4,1-1,1H408C407.5,1089.1,407,1088.7,407,1088.1z"/>
	<path class="st0" d="M408,1081.1h130.8c2.2,0,4-1.8,4-4c0-2.2-1.8-4-4-4H408c-2.2,0-4,1.8-4,4C404,1079.3,405.8,1081.1,408,1081.1z
		 M407,1077.1c0-0.5,0.4-1,1-1h130.8c0.5,0,1,0.4,1,1c0,0.5-0.4,1-1,1H408C407.5,1078.1,407,1077.7,407,1077.1z"/>
	<path class="st0" d="M408,1070.1h130.8c2.2,0,4-1.8,4-4c0-2.2-1.8-4-4-4H408c-2.2,0-4,1.8-4,4C404,1068.3,405.8,1070.1,408,1070.1z
		 M407,1066.1c0-0.5,0.4-1,1-1h130.8c0.5,0,1,0.4,1,1c0,0.5-0.4,1-1,1H408C407.5,1067.1,407,1066.6,407,1066.1z"/>
	<path class="st0" d="M408,1059.1h130.8c2.2,0,4-1.8,4-4c0-2.2-1.8-4-4-4H408c-2.2,0-4,1.8-4,4C404,1057.3,405.8,1059.1,408,1059.1z
		 M407,1055.1c0-0.5,0.4-1,1-1h130.8c0.5,0,1,0.4,1,1c0,0.5-0.4,1-1,1H408C407.5,1056.1,407,1055.6,407,1055.1z"/>
	<path class="st0" d="M422.3,1344.1h101.9c2.2,0,3.9-1.8,3.9-3.9v-6.8c0-2.2-1.8-3.9-3.9-3.9l-101.9,0c-2.2,0-3.9,1.8-3.9,3.9v6.8
		C418.4,1342.3,420.2,1344.1,422.3,1344.1z M421.4,1340.2v-6.8c0-0.5,0.4-0.9,0.9-0.9l101.9,0c0.5,0,0.9,0.4,0.9,0.9v6.8
		c0,0.5-0.4,0.9-0.9,0.9H422.3C421.8,1341.1,421.4,1340.7,421.4,1340.2z"/>
</g>
</svg>
