<?xml version="1.0" encoding="utf-8"?>
<!-- Generator: Adobe Illustrator 24.0.1, SVG Export Plug-In . SVG Version: 6.00 Build 0)  -->
<svg version="1.1"
	 id="Layer_2" xmlns:cc="http://creativecommons.org/ns#" xmlns:dc="http://purl.org/dc/elements/1.1/" xmlns:rdf="http://www.w3.org/1999/02/22-rdf-syntax-ns#"
	 xmlns="http://www.w3.org/2000/svg" xmlns:xlink="http://www.w3.org/1999/xlink" x="0px" y="0px" viewBox="0 0 1444.1 300"
	 style="enable-background:new 0 0 1444.1 300;" xml:space="preserve">
<polygon style="fill:#FFFFFF;" points="0.6,26.9 206.9,26.9 206.9,88.6 136.5,88.6 136.5,269.6 67.7,269.6 67.7,88.6 0,88.6 "/>
<polygon style="fill:#FFFFFF;" points="226.2,26.9 293.9,26.9 293.9,270.2 225.1,270.2 "/>
<rect x="314.8" y="116.1" style="fill:#FFFFFF;" width="61.1" height="47.9"/>
<g>
	<path style="fill:#FFFFFF;" d="M391.5,216.6l71.3-8.4c1.9,9.3,5,15.9,9.5,19.7c4.5,3.8,9.9,5.8,16.4,5.8c11.5,0,20.5-5.4,26.9-16.3
		c4.7-8,8.2-25,10.6-50.8c-8.6,8.2-17.4,14.3-26.4,18.1c-9,3.8-19.5,5.8-31.4,5.8c-23.1,0-42.7-7.7-58.6-23
		c-15.9-15.4-23.9-34.8-23.9-58.2c0-16,4.1-30.6,12.2-43.8c8.1-13.2,19.3-23.1,33.5-29.9c14.2-6.7,32.1-10.1,53.5-10.1
		c25.8,0,46.6,4.1,62.2,12.4c15.6,8.3,28.1,21.4,37.4,39.5c9.3,18,14,41.9,14,71.5c0,43.5-9.8,75.4-29.4,95.7
		c-19.6,20.2-46.8,30.4-81.5,30.4c-20.5,0-36.8-2.2-48.6-6.7c-11.9-4.4-21.7-10.9-29.6-19.5C401.8,240.1,395.7,229.4,391.5,216.6z
		 M523.6,109c0-13.1-3.5-23.3-10.6-30.7c-7-7.4-15.6-11.1-25.7-11.1c-9.5,0-17.4,3.3-23.7,10s-9.4,16.7-9.4,30.1
		c0,13.5,3.3,23.8,9.8,30.9s14.6,10.7,24.4,10.7c10.1,0,18.5-3.5,25.2-10.4C520.2,131.7,523.6,121.8,523.6,109z"/>
	<path style="fill:#FFFFFF;" d="M614.1,216.6l71.3-8.4c1.9,9.3,5,15.9,9.5,19.7c4.5,3.8,9.9,5.8,16.4,5.8c11.5,0,20.5-5.4,26.9-16.3
		c4.7-8,8.2-25,10.6-50.8c-8.6,8.2-17.4,14.3-26.4,18.1c-9,3.8-19.5,5.8-31.4,5.8c-23.1,0-42.7-7.7-58.6-23
		c-15.9-15.4-23.9-34.8-23.9-58.2c0-16,4.1-30.6,12.2-43.8c8.1-13.2,19.3-23.1,33.5-29.9c14.2-6.7,32.1-10.1,53.5-10.1
		c25.8,0,46.6,4.1,62.2,12.4s28.1,21.4,37.4,39.5c9.3,18,14,41.9,14,71.5c0,43.5-9.8,75.4-29.4,95.7c-19.6,20.2-46.8,30.4-81.5,30.4
		c-20.5,0-36.8-2.2-48.6-6.7c-11.9-4.4-21.7-10.9-29.6-19.5C624.3,240.1,618.3,229.4,614.1,216.6z M746.1,109
		c0-13.1-3.5-23.3-10.6-30.7c-7-7.4-15.6-11.1-25.7-11.1c-9.5,0-17.4,3.3-23.7,10s-9.4,16.7-9.4,30.1c0,13.5,3.3,23.8,9.8,30.9
		s14.6,10.7,24.4,10.7c10.1,0,18.5-3.5,25.2-10.4C742.8,131.7,746.1,121.8,746.1,109z"/>
</g>
<polygon style="fill:#FFFFFF;" points="909.7,26.4 943.3,26.4 833.3,276.8 803.5,276.8 "/>
<g>
	<g>
		<path style="fill:#FFFFFF;" d="M1032.5,280.9v-45.1H901.8v-66.5l135.3-150.2h74.5v148.2h32.4v68.5h-32.4v45.1H1032.5L1032.5,280.9
			z M1049.1,219.3L1049.1,219.3v45.1h46v-45.1h32.4v-35.5h-32.4V35.6h-50.6l-126.1,140v43.7 M1049.1,183.8h-96l0,0l96-105.5
			 M990.4,167.3h42.1V121L990.4,167.3L990.4,167.3z"/>
		<path style="fill:#FFFFFF;" d="M1342.3,280.9l-12.9-39.8h-78.5l-12.6,39.8h-99.7l103.7-257.7h98.2l103.7,257.7L1342.3,280.9
			L1342.3,280.9z M1341.4,224.5l12.9,39.8h65.3l-90.4-224.7h-75.9l-90.4,224.7h63.2l12.6-39.8h96.6v8.3l-7.9,2.5l7.9-2.5v-8.3
			H1341.4L1341.4,224.5z M1330.2,188.9h-79.5l0,0l39.5-121.5 M1273.5,172.4h33.9l-17.1-51.9L1273.5,172.4L1273.5,172.4z"/>
	</g>
</g>
</svg>
