<?xml version="1.0" encoding="utf-8"?>
<!-- Generator: Adobe Illustrator 24.0.1, SVG Export Plug-In . SVG Version: 6.00 Build 0)  -->
<svg version="1.1"
	 id="Layer_2" xmlns:cc="http://creativecommons.org/ns#" xmlns:dc="http://purl.org/dc/elements/1.1/" xmlns:rdf="http://www.w3.org/1999/02/22-rdf-syntax-ns#"
	 xmlns="http://www.w3.org/2000/svg" xmlns:xlink="http://www.w3.org/1999/xlink" x="0px" y="0px"
	 viewBox="272.3 1762.7 1444.1 300" style="enable-background:new 272.3 1762.7 1444.1 300;" xml:space="preserve">
<style type="text/css">
	.st0{fill:#FFFFFF;}
</style>
<polygon class="st0" points="272.9,1789.6 479.2,1789.6 479.2,1851.3 408.8,1851.3 408.8,2032.3 340,2032.3 340,1851.3 
	272.3,1851.3 "/>
<polygon class="st0" points="498.5,1789.6 566.2,1789.6 566.2,2032.9 497.4,2032.9 "/>
<rect x="587.1" y="1878.8" class="st0" width="61.1" height="47.9"/>
<g>
	<path class="st0" d="M663.8,1979.3l71.3-8.4c1.9,9.3,5,15.9,9.5,19.7c4.5,3.8,9.9,5.8,16.4,5.8c11.5,0,20.5-5.4,26.9-16.3
		c4.7-8,8.2-25,10.6-50.8c-8.6,8.2-17.4,14.3-26.4,18.1c-9,3.8-19.5,5.8-31.4,5.8c-23.1,0-42.7-7.7-58.6-23
		c-15.9-15.4-23.9-34.8-23.9-58.2c0-16,4.1-30.6,12.2-43.8c8.1-13.2,19.3-23.1,33.5-29.9c14.2-6.7,32.1-10.1,53.5-10.1
		c25.8,0,46.6,4.1,62.2,12.4c15.6,8.3,28.1,21.4,37.4,39.5c9.3,18,14,41.9,14,71.5c0,43.5-9.8,75.4-29.4,95.7
		c-19.6,20.2-46.8,30.4-81.5,30.4c-20.5,0-36.8-2.2-48.6-6.7c-11.9-4.4-21.7-10.9-29.6-19.5C674.1,2002.8,668,1992.1,663.8,1979.3z
		 M795.9,1871.7c0-13.1-3.5-23.3-10.6-30.7c-7-7.4-15.6-11.1-25.7-11.1c-9.5,0-17.4,3.3-23.7,10c-6.3,6.7-9.4,16.7-9.4,30.1
		c0,13.5,3.3,23.8,9.8,30.9c6.5,7.1,14.6,10.7,24.4,10.7c10.1,0,18.5-3.5,25.2-10.4C792.5,1894.4,795.9,1884.5,795.9,1871.7z"/>
	<path class="st0" d="M886.4,1979.3l71.3-8.4c1.9,9.3,5,15.9,9.5,19.7c4.5,3.8,9.9,5.8,16.4,5.8c11.5,0,20.5-5.4,26.9-16.3
		c4.7-8,8.2-25,10.6-50.8c-8.6,8.2-17.4,14.3-26.4,18.1c-9,3.8-19.5,5.8-31.4,5.8c-23.1,0-42.7-7.7-58.6-23
		c-15.9-15.4-23.9-34.8-23.9-58.2c0-16,4.1-30.6,12.2-43.8c8.1-13.2,19.3-23.1,33.5-29.9c14.2-6.7,32.1-10.1,53.5-10.1
		c25.8,0,46.6,4.1,62.2,12.4c15.6,8.3,28.1,21.4,37.4,39.5c9.3,18,14,41.9,14,71.5c0,43.5-9.8,75.4-29.4,95.7
		c-19.6,20.2-46.8,30.4-81.5,30.4c-20.5,0-36.8-2.2-48.6-6.7c-11.9-4.4-21.7-10.9-29.6-19.5C896.6,2002.8,890.6,1992.1,886.4,1979.3
		z M1018.4,1871.7c0-13.1-3.5-23.3-10.6-30.7c-7-7.4-15.6-11.1-25.7-11.1c-9.5,0-17.4,3.3-23.7,10c-6.3,6.7-9.4,16.7-9.4,30.1
		c0,13.5,3.3,23.8,9.8,30.9c6.5,7.1,14.6,10.7,24.4,10.7c10.1,0,18.5-3.5,25.2-10.4C1015.1,1894.4,1018.4,1884.5,1018.4,1871.7z"/>
</g>
<polygon class="st0" points="1182,1789.1 1215.6,1789.1 1105.6,2039.5 1075.8,2039.5 "/>
<g>
	<g>
		<path class="st0" d="M1304.8,2043.6v-45.1h-130.7v-66.5l135.3-150.2h74.5V1930h32.4v68.5h-32.4v45.1H1304.8L1304.8,2043.6z
			 M1321.4,1982L1321.4,1982l0,45.1h46V1982l32.4,0v-35.5h-32.4l0-148.2l-50.6,0l-126.1,140v43.7 M1321.4,1946.5h-96l0,0l96-105.5
			 M1262.7,1930h42.1v-46.3L1262.7,1930L1262.7,1930z"/>
		<path class="st0" d="M1614.6,2043.6l-12.9-39.8h-78.5l-12.6,39.8h-99.7l103.7-257.7h98.2l103.7,257.7H1614.6L1614.6,2043.6z
			 M1613.7,1987.2l12.9,39.8h65.3l-90.4-224.7h-75.9l-90.4,224.7h63.2l12.6-39.8h96.6v8.3l-7.9,2.5l7.9-2.5v-8.3H1613.7
			L1613.7,1987.2z M1602.5,1951.6h-79.5l0,0l39.5-121.5 M1545.8,1935.1h33.9l-17.1-51.9L1545.8,1935.1L1545.8,1935.1z"/>
	</g>
</g>
</svg>
