<?xml version="1.0" encoding="utf-8"?>
<!-- Generator: Adobe Illustrator 24.0.1, SVG Export Plug-In . SVG Version: 6.00 Build 0)  -->
<svg version="1.1"
	 id="Layer_3" xmlns:cc="http://creativecommons.org/ns#" xmlns:dc="http://purl.org/dc/elements/1.1/" xmlns:rdf="http://www.w3.org/1999/02/22-rdf-syntax-ns#"
	 xmlns="http://www.w3.org/2000/svg" xmlns:xlink="http://www.w3.org/1999/xlink" x="0px" y="0px" viewBox="0 0 598.2 350.3"
	 style="enable-background:new 0 0 598.2 350.3;" xml:space="preserve">
<g>
	<path style="fill:#FFFFFF;" d="M597,301.4l-2.9-93l0,0V75.1l0.2-0.1l-0.2-0.4v-1.4h-0.9l-4-6.4l-2.1-39.3h-2.4v-4.2H439.4v2.6h-1.2
		v-2.6l-7.8,0.1V26h-1.2v-2.6h-7.8V26h-1.2v-2.6h-7.1V26h-1.2v-2.6h-7.8V26h-1.2v-2.6H396V26h-1.2v-2.6H387V26h-1.2v-2.6h-7.1V26
		h-1.2v-2.6h-7.8V26h-1.2v-2.6h-7.1V26h-1.2v-2.6h-7.8V26h-1.2v-2.6h-7.1V26h-1.2v-2.6h-7.8V26h-1.2v-2.6h-7.1V26H326v-2.6h-7.8V26
		H317v-2.6h-7.1V26h-1.2v-2.6h-7.8V26h-1.2v-2.6h-7.1V26h-1.2v-2.6h-7.8V26h-1.2v-2.6h-7.1V26h-1.2v-2.6h-7.8V26h-1.2v-2.6H258V26
		h-1.2v-2.6H249V26h-1.2v-2.6h-7.1V26h-1.2v-2.6h-7.8V26h-1.2v-2.6h-7.1V26h-1.2v-2.6h-7.8V26h-1.2v-2.6h-7.1V26h-1.2v-2.6h-7.8V26
		h-1.2v-2.6h-7.1V26h-1.2v-2.6h-7.8V26h-1.2v-2.6h-7.1V26H171v-2.6h-7.8V26H162v-2.6h-7.6v3.2H37.6h-1.7v-3.3H16.4v3.6h-1.8l-3.8,40
		l-4.6,6.5H5.4v1.1L5,74.9l0.4,0.3v133.2l0,0l-2.9,93h2.9v5.4H594v-5.4H597z M20.4,57.5V27.1h11.5v30.4H20.4z M163.2,39.8V43
		c0,0.3-0.3,0.6-0.6,0.6S162,43.3,162,43v-3.2H163.2z M162.6,47.5c2.2,0,4.1-1.6,4.5-3.7c0.4,2.1,2.3,3.7,4.5,3.7
		c1.8,0,3.4-1,4.1-2.6c0.7,1.5,2.3,2.6,4.1,2.6c2.2,0,4.1-1.6,4.5-3.7c0.4,2.1,2.3,3.7,4.5,3.7c1.8,0,3.4-1,4.1-2.6
		c0.7,1.5,2.3,2.6,4.1,2.6c2.2,0,4.1-1.6,4.5-3.7c0.4,2.1,2.3,3.7,4.5,3.7c1.8,0,3.4-1,4.1-2.6c0.7,1.5,2.3,2.6,4.1,2.6
		c2.2,0,4.1-1.6,4.5-3.7c0.4,2.1,2.3,3.7,4.5,3.7c1.8,0,3.4-1,4.1-2.6c0.7,1.5,2.3,2.6,4.1,2.6c2.2,0,4.1-1.6,4.5-3.7
		c0.4,2.1,2.3,3.7,4.5,3.7c1.8,0,3.4-1,4.1-2.6c0.7,1.5,2.3,2.6,4.1,2.6c2.2,0,4.1-1.6,4.5-3.7c0.4,2.1,2.3,3.7,4.5,3.7
		c1.8,0,3.4-1,4.1-2.6c0.7,1.5,2.3,2.6,4.1,2.6c2.2,0,4.1-1.6,4.5-3.7c0.4,2.1,2.3,3.7,4.5,3.7c1.8,0,3.4-1,4.1-2.6
		c0.7,1.5,2.3,2.6,4.1,2.6c2.2,0,4.1-1.6,4.5-3.7c0.4,2.1,2.3,3.7,4.5,3.7c1.8,0,3.4-1,4.1-2.6c0.7,1.5,2.3,2.6,4.1,2.6
		c2.2,0,4.1-1.6,4.5-3.7c0.4,2.1,2.3,3.7,4.5,3.7c1.8,0,3.4-1,4.1-2.6c0.7,1.5,2.3,2.6,4.1,2.6c2.2,0,4.1-1.6,4.5-3.7
		c0.4,2.1,2.3,3.7,4.5,3.7c1.8,0,3.4-1,4.1-2.6c0.7,1.5,2.3,2.6,4.1,2.6c2.2,0,4.1-1.6,4.5-3.7c0.4,2.1,2.3,3.7,4.5,3.7
		c1.8,0,3.4-1,4.1-2.6c0.7,1.5,2.3,2.6,4.1,2.6c2.2,0,4.1-1.6,4.5-3.7c0.4,2.1,2.3,3.7,4.5,3.7c1.8,0,3.4-1,4.1-2.6
		c0.7,1.5,2.3,2.6,4.1,2.6c2.2,0,4.1-1.6,4.5-3.7c0.4,2.1,2.3,3.7,4.5,3.7c1.8,0,3.4-1,4.1-2.6c0.7,1.5,2.3,2.6,4.1,2.6
		c2.2,0,4.1-1.6,4.5-3.7c0.4,2.1,2.3,3.7,4.5,3.7c1.8,0,3.4-1,4.1-2.6c0.7,1.5,2.3,2.6,4.1,2.6c2.2,0,4.1-1.6,4.5-3.7
		c0.4,2.1,2.3,3.7,4.5,3.7c1.8,0,3.4-1,4.1-2.6c0.7,1.5,2.3,2.6,4.1,2.6c2.2,0,4.1-1.6,4.5-3.7c0.4,2.1,2.3,3.7,4.5,3.7
		s4.1-1.6,4.5-3.7c0.4,2.1,2.3,3.7,4.5,3.7c2.5,0,4.6-2.1,4.6-4.6V27.2h137.3v30.9H158.4V44.9C159.2,46.4,160.8,47.5,162.6,47.5z
		 M172.2,39.8V43c0,0.3-0.3,0.6-0.6,0.6S171,43.3,171,43v-3.2H172.2z M180.4,39.8V43c0,0.3-0.3,0.6-0.6,0.6s-0.6-0.3-0.6-0.6v-3.2
		H180.4z M189.4,39.8V43c0,0.3-0.3,0.6-0.6,0.6s-0.6-0.3-0.6-0.6v-3.2H189.4z M197.6,39.8V43c0,0.3-0.3,0.6-0.6,0.6
		s-0.6-0.3-0.6-0.6v-3.2H197.6z M206.6,39.8V43c0,0.3-0.3,0.6-0.6,0.6s-0.6-0.3-0.6-0.6v-3.2H206.6z M214.8,39.8V43
		c0,0.3-0.3,0.6-0.6,0.6s-0.6-0.3-0.6-0.6v-3.2H214.8z M223.8,39.8V43c0,0.3-0.3,0.6-0.6,0.6s-0.6-0.3-0.6-0.6v-3.2H223.8z
		 M222.7,35.8v-5.9h1.2v5.9H222.7z M232.1,39.8V43c0,0.3-0.3,0.6-0.6,0.6s-0.6-0.3-0.6-0.6v-3.2H232.1z M230.9,35.8v-5.9h1.2v5.9
		H230.9z M241.1,39.8V43c0,0.3-0.3,0.6-0.6,0.6s-0.6-0.3-0.6-0.6v-3.2H241.1z M249.3,39.8V43c0,0.3-0.3,0.6-0.6,0.6
		s-0.6-0.3-0.6-0.6v-3.2H249.3z M258.3,39.8V43c0,0.3-0.3,0.6-0.6,0.6c-0.3,0-0.6-0.3-0.6-0.6v-3.2H258.3z M257.1,35.8v-5.9h1.2v5.9
		H257.1z M266.5,39.8V43c0,0.3-0.3,0.6-0.6,0.6c-0.3,0-0.6-0.3-0.6-0.6v-3.2H266.5z M275.5,39.8V43c0,0.3-0.3,0.6-0.6,0.6
		c-0.3,0-0.6-0.3-0.6-0.6v-3.2H275.5z M274.3,35.8v-5.9h1.2v5.9H274.3z M283.7,39.8V43c0,0.3-0.3,0.6-0.6,0.6
		c-0.3,0-0.6-0.3-0.6-0.6v-3.2H283.7z M292.7,39.8V43c0,0.3-0.3,0.6-0.6,0.6c-0.3,0-0.6-0.3-0.6-0.6v-3.2H292.7z M300.9,39.8V43
		c0,0.3-0.3,0.6-0.6,0.6c-0.3,0-0.6-0.3-0.6-0.6v-3.2H300.9z M309.9,39.8V43c0,0.3-0.3,0.6-0.6,0.6c-0.3,0-0.6-0.3-0.6-0.6v-3.2
		H309.9z M308.8,35.8v-5.9h1.2v5.9H308.8z M318.1,39.8V43c0,0.3-0.3,0.6-0.6,0.6c-0.3,0-0.6-0.3-0.6-0.6v-3.2H318.1z M327.1,39.8V43
		c0,0.3-0.3,0.6-0.6,0.6c-0.3,0-0.6-0.3-0.6-0.6v-3.2H327.1z M326,35.8v-5.9h1.2v5.9H326z M335.4,39.8V43c0,0.3-0.3,0.6-0.6,0.6
		c-0.3,0-0.6-0.3-0.6-0.6v-3.2H335.4z M334.2,35.8v-5.9h1.2v5.9H334.2z M344.4,39.8V43c0,0.3-0.3,0.6-0.6,0.6
		c-0.3,0-0.6-0.3-0.6-0.6v-3.2H344.4z M343.2,35.8v-5.9h1.2v5.9H343.2z M352.6,39.8V43c0,0.3-0.3,0.6-0.6,0.6
		c-0.3,0-0.6-0.3-0.6-0.6v-3.2H352.6z M361.6,39.8V43c0,0.3-0.3,0.6-0.6,0.6c-0.3,0-0.6-0.3-0.6-0.6v-3.2H361.6z M360.4,35.8v-5.9
		h1.2v5.9H360.4z M369.8,39.8V43c0,0.3-0.3,0.6-0.6,0.6c-0.3,0-0.6-0.3-0.6-0.6v-3.2H369.8z M368.6,35.8v-5.9h1.2v5.9H368.6z
		 M378.8,39.8V43c0,0.3-0.3,0.6-0.6,0.6c-0.3,0-0.6-0.3-0.6-0.6v-3.2H378.8z M387,39.8V43c0,0.3-0.3,0.6-0.6,0.6
		c-0.3,0-0.6-0.3-0.6-0.6v-3.2H387z M385.9,35.8v-5.9h1.2v5.9H385.9z M396,39.8V43c0,0.3-0.3,0.6-0.6,0.6c-0.3,0-0.6-0.3-0.6-0.6
		v-3.2H396z M404.2,39.8V43c0,0.3-0.3,0.6-0.6,0.6c-0.3,0-0.6-0.3-0.6-0.6v-3.2H404.2z M413.2,39.8V43c0,0.3-0.3,0.6-0.6,0.6
		c-0.3,0-0.6-0.3-0.6-0.6v-3.2H413.2z M421.5,39.8V43c0,0.3-0.3,0.6-0.6,0.6c-0.3,0-0.6-0.3-0.6-0.6v-3.2H421.5z M420.3,35.8v-5.9
		h1.2v5.9H420.3z M430.4,39.8V43c0,0.3-0.3,0.6-0.6,0.6c-0.3,0-0.6-0.3-0.6-0.6v-3.2H430.4z M439.4,39.7v3.2c0,0.3-0.3,0.6-0.6,0.6
		c-0.3,0-0.6-0.3-0.6-0.6v-3.2H439.4z M151.4,31.3H39.6v-0.9h111.8V31.3z M35.9,35.3h118.6V56h-18.6v-1.5h-14.2v1.3H67.3v-1.3H53
		v1.3H35.9V35.3z M584.7,59.5v-2l0.1,2.2L584.7,59.5z M439.4,35.7h-1.2v-5.9h1.2V35.7z M430.4,35.8h-1.2v-5.9h1.2V35.8z M413.2,35.8
		H412v-5.9h1.2V35.8z M404.2,35.8H403v-5.9h1.2V35.8z M396,35.8h-1.2v-5.9h1.2V35.8z M378.8,35.8h-1.2v-5.9h1.2V35.8z M352.6,35.8
		h-1.2v-5.9h1.2V35.8z M318.1,35.8H317v-5.9h1.2v5.9H318.1z M300.9,35.8h-1.2v-5.9h1.2V35.8z M292.7,35.8h-1.2v-5.9h1.2V35.8z
		 M283.7,35.8h-1.2v-5.9h1.2V35.8z M266.5,35.8h-1.2v-5.9h1.2V35.8z M249.3,35.8h-1.2v-5.9h1.2V35.8z M241.1,35.8h-1.2v-5.9h1.2
		V35.8z M214.8,35.8h-1.2v-5.9h1.2V35.8z M206.6,35.8h-1.2v-5.9h1.2V35.8z M197.6,35.8h-1.2v-5.9h1.2V35.8z M189.4,35.8h-1.2v-5.9
		h1.2V35.8z M180.4,35.8h-1.2v-5.9h1.2V35.8z M172.2,35.8H171v-5.9h1.2V35.8z M163.2,35.8H162v-5.9h1.2V35.8z M16.4,58.9l-1,1.4
		l1-10.2V58.9z M19.4,61.5h16.4v-1.7H57v-1.3h6.3v1.3h62.3v-1.3h6.2V60h22.6v2h427.2l3.7,6v0.5h0.3l2.9,4.7H11.1L19.4,61.5z
		 M9.4,302.8V77.2H590v225.6H9.4z"/>
	<path style="fill:#FFFFFF;" d="M552.9,89.6H45.4c-11.4,0-20.6,9.3-20.6,20.6v154c0,11.4,9.3,20.6,20.6,20.6h507.5
		c11.4,0,20.6-9.3,20.6-20.6v-154C573.5,98.8,564.3,89.6,552.9,89.6z M28.8,110.2c0-9.1,7.5-16.6,16.6-16.6h171.2V107h-163
		c-6.7,0-12.1,5.4-12.1,12.1v136.3c0,6.7,5.4,12.1,12.1,12.1h491.1c6.7,0,12.1-5.4,12.1-12.1V119c0-6.7-5.4-12.1-12.1-12.1H376.5
		V93.6h176.4c9.1,0,16.6,7.5,16.6,16.6v154c0,9.1-7.5,16.6-16.6,16.6H45.4c-9.2,0-16.6-7.5-16.6-16.6L28.8,110.2L28.8,110.2z
		 M552.8,255.4c0,4.5-3.6,8.1-8.1,8.1H53.6c-4.5,0-8.1-3.6-8.1-8.1V119c0-4.5,3.6-8.1,8.1-8.1h491.1c4.5,0,8.1,3.6,8.1,8.1V255.4z
		 M372.5,106.9H220.6V93.6h151.9V106.9z"/>
	<path style="fill:#FFFFFF;" d="M434,221.7c-4.5,0-8.1,3.6-8.1,8.1s3.6,8.1,8.1,8.1s8.1-3.6,8.1-8.1S438.5,221.7,434,221.7z
		 M429.9,229.7c0-2.2,1.8-4.1,4.1-4.1c2.2,0,4.1,1.8,4.1,4.1c0,2.2-1.8,4.1-4.1,4.1C431.8,233.8,429.9,232,429.9,229.7z"/>
	<path style="fill:#FFFFFF;" d="M539.2,133.9h-17c-1.9,0-3.7,0.8-4.9,2.2c-1.2-1.3-3-2.2-4.9-2.2h-17c-1.9,0-3.7,0.8-4.9,2.2
		c-1.2-1.3-3-2.2-4.9-2.2h-17c-3.7,0-6.7,3-6.7,6.7v16.7c0,1.8,0.7,3.4,1.9,4.7c-1.2,1.2-1.9,2.9-1.9,4.7v16.7c0,1.8,0.7,3.5,2,4.7
		c-1.2,1.2-2,2.9-2,4.7v16.7c0,1.9,0.8,3.6,2,4.8c-1.3,1.2-2,2.9-2,4.8V236c0,3.7,3,6.7,6.7,6.7h17c1.9,0,3.7-0.8,4.9-2.2
		c1.2,1.3,3,2.2,4.9,2.2h17c1.9,0,3.7-0.8,4.9-2.2c1.2,1.3,3,2.2,4.9,2.2h17c3.7,0,6.7-3,6.7-6.7v-16.7c0-1.9-0.8-3.6-2-4.8
		c1.3-1.2,2-2.9,2-4.8V193c0-1.8-0.7-3.5-2-4.7c1.2-1.2,2-2.9,2-4.7v-16.7c0-1.8-0.7-3.4-1.9-4.7c1.2-1.2,1.9-2.8,1.9-4.7v-16.7
		C545.9,136.9,542.9,133.9,539.2,133.9z M541.9,140.6v16.7c0,1.2-0.9,2.3-2,2.6c-0.2,0-0.5,0-0.7,0h-17c-0.2,0-0.5,0-0.7,0
		c-1.1-0.3-2-1.4-2-2.6v-3c0.9,2.6,3.4,4.6,6.4,4.6h9.3c3.7,0,6.7-3,6.7-6.7v-9.3c0-1.9-0.8-3.7-2.1-4.9
		C541,138.2,541.9,139.3,541.9,140.6z M469.2,230.8v-9.3c0-1.5,1.2-2.7,2.7-2.7h9.3c1.5,0,2.7,1.2,2.7,2.7v9.3
		c0,1.5-1.2,2.7-2.7,2.7H472C470.5,233.5,469.3,232.3,469.2,230.8z M469.2,142.9c0-1.5,1.2-2.7,2.7-2.7h9.3c1.5,0,2.7,1.2,2.7,2.7
		v9.3c0,1.5-1.2,2.7-2.7,2.7H472c-1.5,0-2.7-1.2-2.7-2.7L469.2,142.9z M472,158.9h9.3c3.7,0,6.7-3,6.7-6.7v-9.3
		c0-1.9-0.8-3.7-2.1-4.9c1.3,0.2,2.2,1.4,2.2,2.7v16.7c0,1.2-0.9,2.3-2,2.6c-0.2,0-0.5,0-0.7,0h-17c-0.2,0-0.5,0-0.7,0
		c-1.1-0.3-2-1.4-2-2.6v-3C466.5,157,469,158.9,472,158.9z M523,221.4c0-1.5,1.2-2.7,2.7-2.7h9.3c1.5,0,2.7,1.2,2.7,2.7v9.3
		c0,1.5-1.2,2.7-2.7,2.7h-9.3c-1.5,0-2.7-1.2-2.7-2.7V221.4z M496.1,230.8v-9.3c0-1.5,1.2-2.7,2.7-2.7h9.3c1.5,0,2.7,1.2,2.7,2.7
		v9.4c-0.1,1.5-1.3,2.6-2.7,2.6h-9.3C497.4,233.5,496.1,232.3,496.1,230.8z M469.2,168.9c0-1.5,1.2-2.7,2.7-2.7h9.3
		c1.5,0,2.7,1.2,2.7,2.7v9.3c0,1.5-1.2,2.7-2.7,2.7H472c-1.5,0-2.7-1.2-2.7-2.7L469.2,168.9z M490.2,188.1c0-0.1,0.1-0.1,0.1-0.2
		c0,0.1,0.1,0.1,0.1,0.2c0,0.1-0.1,0.1-0.1,0.2C490.3,188.2,490.2,188.2,490.2,188.1z M512.3,212.3h-17c-1.5,0-2.7-1.2-2.7-2.7v-3
		c0.9,2.6,3.4,4.6,6.4,4.6h9.3c3.4,0,6.2-2.5,6.7-5.7h0.1v-10.3c0-1.9-0.8-3.7-2.1-4.9c1.3,0.2,2.2,1.4,2.2,2.7v16.7
		C515,211.1,513.8,212.3,512.3,212.3z M515,166.7v16.7c0,1.5-1.2,2.7-2.7,2.7h-17c-1.5,0-2.7-1.2-2.7-2.7v-3
		c0.9,2.6,3.4,4.6,6.4,4.6h9.3c3.4,0,6.2-2.5,6.7-5.7h0.1V169c0-1.9-0.8-3.6-2-4.8h0.1C514.2,164.4,515,165.4,515,166.7z
		 M496.1,204.4v-9.3c0-1.5,1.2-2.7,2.7-2.7h9.3c1.5,0,2.7,1.2,2.7,2.7v9.4c-0.1,1.5-1.3,2.6-2.7,2.6h-9.3
		C497.4,207.1,496.1,205.9,496.1,204.4z M496.1,178.2v-9.3c0-1.5,1.2-2.7,2.7-2.7h9.3c1.5,0,2.7,1.2,2.7,2.7v9.4
		c-0.1,1.5-1.3,2.6-2.7,2.6h-9.3C497.4,180.9,496.1,179.7,496.1,178.2z M494,164.3c-0.7,0.7-1.2,1.5-1.5,2.4l0,0
		C492.5,165.6,493.1,164.7,494,164.3z M494,190.5c-0.7,0.7-1.2,1.5-1.5,2.4l0,0C492.5,191.8,493.1,190.9,494,190.5z M517.1,188.1
		c0-0.1,0.1-0.1,0.1-0.2c0,0.1,0.1,0.1,0.1,0.2c0,0.1-0.1,0.1-0.1,0.2C517.2,188.2,517.1,188.2,517.1,188.1z M523,195.1
		c0-1.5,1.2-2.7,2.7-2.7h9.3c1.5,0,2.7,1.2,2.7,2.7v9.3c0,1.5-1.2,2.7-2.7,2.7h-9.3c-1.5,0-2.7-1.2-2.7-2.7V195.1z M523,168.9
		c0-1.5,1.2-2.7,2.7-2.7h9.3c1.5,0,2.7,1.2,2.7,2.7v9.3c0,1.5-1.2,2.7-2.7,2.7h-9.3c-1.5,0-2.7-1.2-2.7-2.7V168.9z M469.2,204.4
		v-9.3c0-1.5,1.2-2.7,2.7-2.7h9.3c1.5,0,2.7,1.2,2.7,2.7v9.3c0,1.5-1.2,2.7-2.7,2.7H472C470.5,207.1,469.3,205.9,469.2,204.4z
		 M519.4,192.9c0-1.1,0.6-2,1.5-2.4C520.2,191.2,519.7,192,519.4,192.9L519.4,192.9z M519.4,166.7c0-1.1,0.6-2,1.5-2.4
		C520.2,165,519.7,165.8,519.4,166.7L519.4,166.7z M515,157.4c0,1.2-0.9,2.3-2,2.6c-0.2,0-0.5,0-0.7,0h-17c-0.2,0-0.5,0-0.7,0
		c-1.1-0.3-2-1.4-2-2.6v-3c0.9,2.6,3.4,4.6,6.4,4.6h9.3c3.4,0,6.2-2.5,6.7-5.7h0.1V143c0-1.9-0.8-3.7-2.1-4.9
		c1.3,0.2,2.2,1.4,2.2,2.7v16.6H515z M510.9,152.3c-0.1,1.5-1.3,2.6-2.7,2.6h-9.3c-1.5,0-2.7-1.2-2.7-2.7v-9.3
		c0-1.5,1.2-2.7,2.7-2.7h9.3c1.5,0,2.7,1.2,2.7,2.7V152.3z M492.5,140.7L492.5,140.7c0-1.1,0.6-2,1.5-2.4
		C493.3,138.9,492.8,139.8,492.5,140.7z M467.1,164.3c-0.7,0.7-1.2,1.5-1.5,2.4l0,0C465.6,165.6,466.2,164.7,467.1,164.3z
		 M465.6,183.4v-3c0.9,2.6,3.4,4.6,6.4,4.6h9.3c3.7,0,6.7-3,6.7-6.7V169c0-1.9-0.8-3.6-2-4.8h0.1c1.1,0.3,2,1.4,2,2.6v16.7
		c0,1.5-1.2,2.7-2.7,2.7h-17C466.8,186.1,465.6,184.9,465.6,183.4z M467.1,190.5c-0.7,0.7-1.2,1.5-1.5,2.4l0,0
		C465.6,191.8,466.2,190.9,467.1,190.5z M465.6,206.6c0.9,2.6,3.4,4.6,6.4,4.6h9.3c3.7,0,6.7-3,6.7-6.7v-9.3c0-1.9-0.8-3.7-2.1-4.9
		c1.3,0.2,2.2,1.4,2.2,2.7v16.7c0,1.5-1.2,2.7-2.7,2.7h-17c-1.5,0-2.7-1.2-2.7-2.7L465.6,206.6z M519.4,219.2c0-1,0.6-2,1.5-2.4
		C520.2,217.5,519.7,218.3,519.4,219.2L519.4,219.2z M539.2,212.3h-17c-1.5,0-2.7-1.2-2.7-2.7v-3c0.9,2.6,3.4,4.6,6.4,4.6h9.3
		c3.7,0,6.7-3,6.7-6.7v-9.3c0-1.9-0.8-3.7-2.1-4.9c1.3,0.2,2.2,1.4,2.2,2.7v16.7C541.9,211.1,540.7,212.3,539.2,212.3z M539.2,186.1
		h-17c-1.5,0-2.7-1.2-2.7-2.7v-3c0.9,2.6,3.4,4.6,6.4,4.6h9.3c3.7,0,6.7-3,6.7-6.7V169c0-1.9-0.8-3.6-2-4.8h0.1c1.1,0.3,2,1.4,2,2.6
		v16.7C541.9,184.9,540.7,186.1,539.2,186.1z M537.8,152.2c0,1.5-1.2,2.7-2.7,2.7h-9.3c-1.5,0-2.7-1.2-2.7-2.7v-9.3
		c0-1.5,1.2-2.7,2.7-2.7h9.3c1.5,0,2.7,1.2,2.7,2.7V152.2z M519.4,140.7L519.4,140.7c0-1.1,0.6-2,1.5-2.4
		C520.2,138.9,519.7,139.8,519.4,140.7z M517.3,162C517.3,162.1,517.2,162.1,517.3,162C517.2,162.1,517.2,162,517.3,162
		C517.2,162,517.2,162,517.3,162C517.2,162,517.3,162,517.3,162z M490.4,162C490.4,162.1,490.3,162.1,490.4,162
		c-0.1,0.1-0.1,0-0.1,0S490.3,162,490.4,162C490.3,162,490.4,162,490.4,162z M465.6,140.7L465.6,140.7c0-1.1,0.6-2,1.5-2.4
		C466.4,138.9,465.9,139.7,465.6,140.7z M465.6,219.2c0-1.1,0.6-2,1.5-2.4C466.4,217.5,465.9,218.3,465.6,219.2L465.6,219.2z
		 M490.1,214.4c0.1-0.1,0.2-0.2,0.2-0.2c0.1,0.1,0.1,0.2,0.2,0.2c-0.1,0.1-0.2,0.2-0.2,0.2C490.2,214.6,490.2,214.5,490.1,214.4z
		 M492.5,219.2c0-1.1,0.6-2,1.5-2.4C493.3,217.5,492.8,218.3,492.5,219.2L492.5,219.2z M517,214.4c0.1-0.1,0.2-0.2,0.2-0.2
		c0.1,0.1,0.1,0.2,0.2,0.2c-0.1,0.1-0.2,0.2-0.2,0.2C517.1,214.6,517.1,214.5,517,214.4z M519.4,232.9c0.9,2.6,3.4,4.6,6.4,4.6h9.3
		c3.7,0,6.7-3,6.7-6.7v-9.3c0-1.9-0.8-3.7-2.1-4.9c1.3,0.2,2.2,1.4,2.2,2.7V236c0,1.5-1.2,2.7-2.7,2.7h-17c-1.5,0-2.7-1.2-2.7-2.7
		v-3.1H519.4z M465.6,236v-3c0.9,2.6,3.4,4.6,6.4,4.6h9.3c3.7,0,6.7-3,6.7-6.7v-9.3c0-1.9-0.8-3.7-2.1-4.9c1.3,0.2,2.2,1.4,2.2,2.7
		V236c0,1.5-1.2,2.7-2.7,2.7h-17C466.8,238.7,465.6,237.5,465.6,236z M492.5,232.9c0.9,2.6,3.4,4.6,6.4,4.6h9.3
		c3.4,0,6.2-2.5,6.7-5.7h0.1v-10.3c0-1.9-0.8-3.7-2.1-4.9c1.3,0.2,2.2,1.4,2.2,2.7V236c0,1.5-1.2,2.7-2.7,2.7h-17
		c-1.5,0-2.7-1.2-2.7-2.7v-3.1H492.5z"/>
	<path style="fill:#FFFFFF;" d="M428.1,201c3.4,0,6.2-2.5,6.7-5.7h0.1v-17.7c0-2.5-1.4-4.7-3.4-5.9c0.7-1,1.1-2.3,1.1-3.6v-16.7
		c0-3.7-3-6.7-6.7-6.7h-7.4c0.3-0.8,0.5-1.7,0.5-2.6v-16.7c0-3.7-3-6.7-6.7-6.7h-17c-1.9,0-3.7,0.8-4.9,2.2c-1.2-1.3-3-2.2-4.9-2.2
		h-17c-1.9,0-3.7,0.8-4.9,2.2c-1.2-1.3-3-2.2-4.9-2.2h-17c-1.9,0-3.6,0.8-4.8,2c-1.2-1.3-2.9-2-4.8-2h-17c-1.9,0-3.7,0.8-4.9,2.2
		c-1.2-1.3-3-2.2-4.9-2.2h-17c-1.9,0-3.7,0.8-4.9,2.2c-1.2-1.3-3-2.2-4.9-2.2h-17c-1.9,0-3.7,0.8-4.9,2.2c-1.2-1.3-3-2.2-4.9-2.2
		h-17c-1.9,0-3.7,0.8-4.9,2.2c-1.2-1.3-3-2.2-4.9-2.2h-17c-1.9,0-3.7,0.8-4.9,2.2c-1.2-1.3-3-2.2-4.9-2.2h-17
		c-1.9,0-3.7,0.8-4.9,2.2c-1.2-1.3-3-2.2-4.9-2.2h-17c-1.9,0-3.7,0.8-4.9,2.2c-1.2-1.3-3-2.2-4.9-2.2h-17c-1.9,0-3.7,0.8-4.9,2.2
		c-1.2-1.3-3-2.2-4.9-2.2h-17c-1.9,0-3.7,0.8-4.9,2.2c-1.2-1.3-3-2.2-4.9-2.2h-17c-3.7,0-6.7,3-6.7,6.7v16.7c0,0.9,0.2,1.8,0.5,2.6
		h-6.4c-3.7,0-6.7,3-6.7,6.7v16.7c0,3.7,3,6.7,6.7,6.7h0.2c-0.4,0.8-0.6,1.8-0.6,2.7v16.7c0,1.8,0.8,3.5,2,4.7
		c-1.1,1.2-1.8,2.8-1.8,4.6v16.7c0,3.7,3,6.7,6.7,6.7h30.9c1.8,0,3.5-0.7,4.7-2c1.2,1.2,2.9,2,4.7,2h17c1.9,0,3.7-0.8,4.9-2.2
		c0,0,0,0,0,0.1c-1.4,1.2-2.2,3-2.2,5v16.7c0,3.7,3,6.7,6.7,6.7h205.1c3.7,0,6.7-3,6.7-6.7V230c0-1.8-0.7-3.4-1.8-4.6
		c0.2-0.2,0.3-0.3,0.5-0.5c1.2,1.3,3,2.2,4.9,2.2h17c1.9,0,3.6-0.8,4.8-2c1.2,1.2,2.9,2,4.8,2h30.9c3.7,0,6.7-3,6.7-6.7v-16.7
		c0-0.9-0.2-1.8-0.5-2.6L428.1,201z M69.8,142.1v-3c0.9,2.6,3.4,4.6,6.4,4.6h9.3c3.7,0,6.7-3,6.7-6.7v-9.3c0-1.9-0.8-3.7-2.1-4.9
		c1.3,0.2,2.2,1.4,2.2,2.7v16.7c0,1.2-0.8,2.2-1.9,2.6h-3.6c-0.5,0-1,0.1-1.4,0.2h-7c-0.5-0.1-0.9-0.2-1.4-0.2h-5.3
		C70.6,144.3,69.8,143.3,69.8,142.1z M357,127.5v9.3c0,1.5-1.2,2.7-2.7,2.7H345c-1.5,0-2.7-1.2-2.7-2.7v-9.3c0-1.5,1.2-2.7,2.7-2.7
		h9.3C355.7,124.8,356.9,126,357,127.5z M338.5,125.4L338.5,125.4c0-1.1,0.6-2,1.5-2.4C339.4,123.6,338.9,124.4,338.5,125.4z
		 M383.8,136.9c0,1.5-1.2,2.7-2.7,2.7h-9.3c-1.5,0-2.7-1.2-2.7-2.7v-9.3c0-1.5,1.2-2.7,2.7-2.7h9.3c1.5,0,2.7,1.2,2.7,2.7V136.9z
		 M365.4,125.4L365.4,125.4c0-1.1,0.6-2,1.5-2.4C366.3,123.6,365.8,124.4,365.4,125.4z M410.7,136.9c0,1.5-1.2,2.7-2.7,2.7h-9.3
		c-1.5,0-2.7-1.2-2.7-2.7v-9.3c0-1.5,1.2-2.7,2.7-2.7h9.3c1.5,0,2.7,1.2,2.7,2.7V136.9z M392.3,125.4L392.3,125.4
		c0-1.1,0.6-2,1.5-2.4C393.2,123.6,392.6,124.4,392.3,125.4z M63.5,194.3v-3c0.9,2.6,3.4,4.6,6.4,4.6h9.3c3.7,0,6.7-3,6.7-6.7v-9.3
		c0-1.9-0.8-3.7-2.1-4.9c1.3,0.2,2.2,1.4,2.2,2.7v16.7c0,1.2-0.8,2.2-1.9,2.6H66.4c-0.3,0-0.6,0-0.8,0.1
		C64.4,196.6,63.5,195.6,63.5,194.3z M75.6,162.9c0,1.5-1.2,2.7-2.7,2.7h-9.3c-1.5,0-2.7-1.2-2.7-2.7v-9.3c0-1.5,1.2-2.7,2.7-2.7
		h9.3c1.5,0,2.7,1.2,2.7,2.7V162.9z M98.2,122.9c-0.7,0.7-1.2,1.5-1.5,2.4l0,0C96.7,124.3,97.3,123.4,98.2,122.9z M425.7,170.8H411
		h-2.4c-1,0-1.9-0.6-2.4-1.4c0.1-0.4,0.1-0.9,0.1-1.3v-2c1.1,2.1,3.4,3.5,5.9,3.5h9.3c3.7,0,6.7-3,6.7-6.7v-9.3
		c0-1.9-0.8-3.7-2.1-4.9c1.3,0.2,2.2,1.4,2.2,2.7v16.7C428.4,169.6,427.2,170.8,425.7,170.8z M376.4,215.1v-9.3
		c0-1.5,1.2-2.7,2.7-2.7h23.2c1.5,0,2.7,1.2,2.7,2.7v9.3c0,1.5-1.2,2.7-2.7,2.7h-23.2C377.6,217.9,376.4,216.6,376.4,215.1z
		 M406.3,150.5c0-0.1,0-0.3-0.1-0.4c0.3-0.5,0.7-0.9,1.1-1.1C407,149.4,406.6,149.9,406.3,150.5z M411.9,179.8
		c0-1.5,1.2-2.7,2.7-2.7h9.3c1.5,0,2.7,1.2,2.7,2.7v9.3c0,1.5-1.2,2.7-2.7,2.7h-9.3c-1.5,0-2.7-1.2-2.7-2.7V179.8z M349.7,205.8
		c0-1.5,1.2-2.7,2.7-2.7h9.3c1.5,0,2.7,1.2,2.7,2.7v9.3c0,1.5-1.2,2.7-2.7,2.7h-9.3c-1.5,0-2.7-1.2-2.7-2.7V205.8z M67.3,215.1v-9.3
		c0-1.5,1.2-2.7,2.7-2.7h23.2c1.5,0,2.7,1.2,2.7,2.7v9.3c0,1.5-1.2,2.7-2.7,2.7H70C68.5,217.9,67.3,216.6,67.3,215.1z M344.5,153.6
		v9.3c0,1.5-1.2,2.7-2.7,2.7h-9.3c-1.5,0-2.7-1.2-2.7-2.7v-9.3c0-1.5,1.2-2.7,2.7-2.7h9.3C343.3,150.9,344.5,152.1,344.5,153.6z
		 M326.1,151.4L326.1,151.4c0-1.1,0.6-2,1.5-2.4C326.9,149.7,326.4,150.5,326.1,151.4z M402.1,150.1c-0.1,0.4-0.1,0.9-0.1,1.3l0,0
		c-0.3-1-0.9-1.9-1.6-2.6h0.2C401.2,149,401.7,149.5,402.1,150.1z M97.3,196.9h-5.1c-1.1-0.4-1.9-1.4-1.9-2.6v-3
		c0.9,2.6,3.4,4.5,6.4,4.5h9.3c3.4,0,6.2-2.5,6.7-5.7h0.1v-10.3c0-1.9-0.8-3.7-2.1-4.9c1.3,0.2,2.2,1.4,2.2,2.7v16.7
		c0,1.2-0.8,2.2-1.9,2.6h-4.3c-0.5,0-1,0.1-1.4,0.2h-6.6C98.3,196.9,97.8,196.9,97.3,196.9z M294.8,151.4v16.7
		c0,1.5-1.2,2.7-2.7,2.7h-17c-1.5,0-2.7-1.2-2.7-2.7v-3c0.9,2.6,3.4,4.6,6.4,4.6h9.3c3.7,0,6.7-3,6.7-6.7v-9.3c0-1.9-0.8-3.6-2-4.8
		h0.2C294.1,149.2,294.8,150.2,294.8,151.4z M150.7,196.9H146c-1.1-0.4-1.9-1.4-1.9-2.6v-3c0.9,2.6,3.4,4.6,6.4,4.6h9.3
		c3.7,0,6.7-3,6.7-6.7v-9.3c0-1.9-0.8-3.7-2.1-4.9c1.3,0.2,2.2,1.4,2.2,2.7v16.7c0,1.2-0.8,2.2-1.9,2.6h-4.3c-0.5,0-1,0.1-1.4,0.2
		h-7C151.7,196.9,151.2,196.9,150.7,196.9z M114.6,153.6c0-1.5,1.2-2.7,2.7-2.7h9.3c1.5,0,2.7,1.2,2.7,2.7v9.3
		c0,1.5-1.2,2.7-2.7,2.7h-9.3c-1.5,0-2.7-1.2-2.7-2.7C114.6,162.9,114.6,153.6,114.6,153.6z M111,151.4L111,151.4
		c0-1.1,0.6-2,1.5-2.4C111.8,149.7,111.3,150.5,111,151.4z M141.5,153.6c0-1.5,1.2-2.7,2.7-2.7h9.3c1.5,0,2.7,1.2,2.7,2.7v9.3
		c0,1.5-1.2,2.7-2.7,2.7h-9.3c-1.5,0-2.7-1.2-2.7-2.7V153.6z M137.9,151.4L137.9,151.4c0-1.1,0.6-2,1.5-2.4
		C138.7,149.7,138.2,150.5,137.9,151.4z M168.4,153.6c0-1.5,1.2-2.7,2.7-2.7h9.3c1.5,0,2.7,1.2,2.7,2.7v9.3c0,1.5-1.2,2.7-2.7,2.7
		h-9.3c-1.5,0-2.7-1.2-2.7-2.7V153.6z M164.8,151.4L164.8,151.4c0-1.1,0.6-2,1.5-2.4C165.6,149.7,165.1,150.5,164.8,151.4z
		 M195.3,153.6c0-1.5,1.2-2.7,2.7-2.7h9.3c1.5,0,2.7,1.2,2.7,2.7v9.3c0,1.5-1.2,2.7-2.7,2.7H198c-1.5,0-2.7-1.2-2.7-2.7V153.6z
		 M191.7,151.4L191.7,151.4c0-1.1,0.6-2,1.5-2.4C192.5,149.7,192,150.5,191.7,151.4z M222.2,153.6c0-1.5,1.2-2.7,2.7-2.7h9.3
		c1.5,0,2.7,1.2,2.7,2.7v9.3c0,1.5-1.2,2.7-2.7,2.7h-9.3c-1.5,0-2.7-1.2-2.7-2.7V153.6z M218.5,151.4L218.5,151.4
		c0-1.1,0.6-2,1.5-2.4C219.4,149.7,218.9,150.5,218.5,151.4z M249.1,153.6c0-1.5,1.2-2.7,2.7-2.7h9.3c1.5,0,2.7,1.2,2.7,2.7v9.3
		c0,1.5-1.2,2.7-2.7,2.7h-9.3c-1.5,0-2.7-1.2-2.7-2.7V153.6z M245.4,151.4L245.4,151.4c0-1.1,0.6-2,1.5-2.4
		C246.3,149.7,245.8,150.5,245.4,151.4z M290.7,153.6v9.3c0,1.5-1.2,2.7-2.7,2.7h-9.3c-1.5,0-2.7-1.2-2.7-2.7v-9.3
		c0-1.5,1.2-2.7,2.7-2.7h9.3C289.5,150.9,290.7,152.1,290.7,153.6z M272.3,151.4L272.3,151.4c0-1.1,0.6-2,1.5-2.4
		C273.2,149.7,272.6,150.5,272.3,151.4z M312.1,223.1h-17c-1.5,0-2.7-1.2-2.7-2.7v-3c0.9,2.6,3.4,4.6,6.4,4.6h9.3
		c3.7,0,6.7-3,6.7-6.7V206c0-1.9-0.8-3.6-2-4.8h0.2c1.1,0.4,1.9,1.4,1.9,2.6v16.7C314.8,221.8,313.6,223.1,312.1,223.1z
		 M177.6,223.1h-17c-1.5,0-2.7-1.2-2.7-2.7v-3c0.9,2.6,3.4,4.6,6.4,4.6h9.3c3.7,0,6.7-3,6.7-6.7V206c0-1.9-0.8-3.6-2-4.8h0.2
		c1.1,0.4,1.9,1.4,1.9,2.6v16.7C180.4,221.8,179.1,223.1,177.6,223.1z M147.8,179.8c0-1.5,1.2-2.7,2.7-2.7h9.3
		c1.5,0,2.7,1.2,2.7,2.7v9.3c0,1.5-1.2,2.7-2.7,2.7h-9.3c-1.5,0-2.7-1.2-2.7-2.7V179.8z M285.2,223.1h-17c-1.5,0-2.7-1.2-2.7-2.7v-3
		c0.9,2.6,3.4,4.5,6.4,4.5h9.3c3.4,0,6.2-2.5,6.7-5.7h0.1v-10.3c0-1.9-0.8-3.6-2-4.8h0.2c1.1,0.4,1.9,1.4,1.9,2.6v16.7
		C287.9,221.8,286.7,223.1,285.2,223.1z M258.3,223.1h-17c-1.5,0-2.7-1.2-2.7-2.7v-3c0.9,2.6,3.4,4.6,6.4,4.6h9.3
		c3.7,0,6.7-3,6.7-6.7V206c0-1.9-0.8-3.6-2-4.8h0.2c1.1,0.4,1.9,1.4,1.9,2.6v16.7C261,221.8,259.8,223.1,258.3,223.1z M231.4,223.1
		h-17c-1.5,0-2.7-1.2-2.7-2.7v-3c0.9,2.6,3.4,4.6,6.4,4.6h9.3c3.7,0,6.7-3,6.7-6.7V206c0-1.9-0.8-3.6-2-4.8h0.2
		c1.1,0.4,1.9,1.4,1.9,2.6v16.7C234.1,221.8,232.9,223.1,231.4,223.1z M204.5,223.1h-17c-1.5,0-2.7-1.2-2.7-2.7v-3
		c0.9,2.6,3.4,4.6,6.4,4.6h9.3c3.7,0,6.7-3,6.7-6.7V206c0-1.9-0.8-3.6-2-4.8h0.2c1.1,0.4,1.9,1.4,1.9,2.6v16.7
		C207.2,221.8,206,223.1,204.5,223.1z M311.9,191.8c-1.5,0-2.7-1.2-2.7-2.7v-9.3c0-1.5,1.2-2.7,2.7-2.7h9.3c1.5,0,2.7,1.2,2.7,2.7
		v9.4c-0.1,1.5-1.3,2.6-2.7,2.6H311.9z M161.5,215.1v-9.3c0-1.5,1.2-2.7,2.7-2.7h9.3c1.5,0,2.7,1.2,2.7,2.7v9.3
		c0,1.5-1.2,2.7-2.7,2.7h-9.3C162.7,217.9,161.5,216.6,161.5,215.1z M270.2,179.8v9.3c0,1.5-1.2,2.7-2.7,2.7h-9.3
		c-1.5,0-2.7-1.2-2.7-2.7v-9.3c0-1.5,1.2-2.7,2.7-2.7h9.3C268.9,177,270.2,178.3,270.2,179.8z M258.1,195.8h9.3c3.7,0,6.7-3,6.7-6.7
		v-9.3c0-1.9-0.8-3.7-2.1-4.9c1.3,0.2,2.2,1.4,2.2,2.7v16.8c0,1.2-0.8,2.1-1.9,2.5H268c-0.5,0-1,0.1-1.4,0.2h-7
		c-0.5-0.1-0.9-0.2-1.4-0.2h-4.7c-1.1-0.4-1.9-1.4-1.9-2.6v-3C252.7,193.9,255.2,195.8,258.1,195.8z M188.4,215.1v-9.3
		c0-1.5,1.2-2.7,2.7-2.7h9.3c1.5,0,2.7,1.2,2.7,2.7v9.3c0,1.5-1.2,2.7-2.7,2.7h-9.3C189.6,217.9,188.4,216.6,188.4,215.1z
		 M215.3,215.1v-9.3c0-1.5,1.2-2.7,2.7-2.7h9.3c1.5,0,2.7,1.2,2.7,2.7v9.3c0,1.5-1.2,2.7-2.7,2.7H218
		C216.5,217.9,215.3,216.6,215.3,215.1z M242.2,215.1v-9.3c0-1.5,1.2-2.7,2.7-2.7h9.3c1.5,0,2.7,1.2,2.7,2.7v9.3
		c0,1.5-1.2,2.7-2.7,2.7h-9.3C243.4,217.9,242.2,216.6,242.2,215.1z M269,215.1v-9.3c0-1.5,1.2-2.7,2.7-2.7h9.3
		c1.5,0,2.7,1.2,2.7,2.7v9.3c0,1.5-1.2,2.7-2.7,2.7h-9.3C270.3,217.9,269,216.6,269,215.1z M251.8,177.6L251.8,177.6
		c0-1.1,0.6-2,1.5-2.4C252.6,175.8,252.1,176.7,251.8,177.6z M247.4,177.6v16.7c0,1.2-0.8,2.2-1.9,2.6h-4.3c-0.5,0-1,0.1-1.4,0.2h-7
		c-0.5-0.1-0.9-0.2-1.4-0.2h-4.7c-1.1-0.4-1.9-1.4-1.9-2.6v-3c0.9,2.6,3.4,4.5,6.4,4.5h9.3c3.7,0,6.7-3,6.7-6.7v-9.3
		c0-1.9-0.8-3.7-2.1-4.9C246.4,175.1,247.4,176.2,247.4,177.6z M243.3,179.8v9.3c0,1.5-1.2,2.7-2.7,2.7h-9.3c-1.5,0-2.7-1.2-2.7-2.7
		v-9.3c0-1.5,1.2-2.7,2.7-2.7h9.3C242,177,243.3,178.3,243.3,179.8z M224.9,177.6L224.9,177.6c0-1.1,0.6-2,1.5-2.4
		C225.7,175.8,225.2,176.7,224.9,177.6z M220.5,177.6v16.7c0,1.2-0.8,2.2-1.9,2.6h-4.3c-0.5,0-1,0.1-1.4,0.2h-7
		c-0.5-0.1-0.9-0.2-1.4-0.2h-4.7c-1.1-0.4-1.9-1.4-1.9-2.6v-3c0.9,2.6,3.4,4.5,6.4,4.5h9.3c3.7,0,6.7-3,6.7-6.7v-9.3
		c0-1.9-0.8-3.7-2.1-4.9C219.5,175.1,220.5,176.2,220.5,177.6z M216.4,179.8v9.3c0,1.5-1.2,2.7-2.7,2.7h-9.3c-1.5,0-2.7-1.2-2.7-2.7
		v-9.3c0-1.5,1.2-2.7,2.7-2.7h9.3C215.1,177,216.4,178.3,216.4,179.8z M198,177.6L198,177.6c0-1.1,0.6-2,1.5-2.4
		C198.8,175.8,198.3,176.7,198,177.6z M193.6,177.6v16.7c0,1.2-0.8,2.2-1.9,2.6h-4.3c-0.5,0-1,0.1-1.4,0.2h-7
		c-0.5-0.1-0.9-0.2-1.4-0.2h-4.7c-1.1-0.4-1.9-1.4-1.9-2.6v-3c0.9,2.6,3.4,4.6,6.4,4.6h9.3c3.7,0,6.7-3,6.7-6.7v-9.3
		c0-1.9-0.8-3.7-2.1-4.9C192.6,175.1,193.6,176.2,193.6,177.6z M189.5,179.8v9.3c0,1.5-1.2,2.7-2.7,2.7h-9.3c-1.5,0-2.7-1.2-2.7-2.7
		v-9.3c0-1.5,1.2-2.7,2.7-2.7h9.3C188.3,177,189.5,178.3,189.5,179.8z M171.1,177.6L171.1,177.6c0-1.1,0.6-2,1.5-2.4
		C171.9,175.8,171.4,176.7,171.1,177.6z M186.2,201.2c-0.7,0.7-1.2,1.5-1.5,2.4l0,0C184.7,202.6,185.3,201.7,186.2,201.2z
		 M211.6,203.6c0-1.1,0.6-2,1.5-2.4C212.5,201.9,211.9,202.7,211.6,203.6L211.6,203.6z M238.5,203.6c0-1.1,0.6-2,1.5-2.4
		C239.3,201.9,238.8,202.7,238.5,203.6L238.5,203.6z M265.4,203.6c0-1.1,0.6-2,1.5-2.4C266.2,201.9,265.7,202.7,265.4,203.6
		L265.4,203.6z M295.9,215.1v-9.3c0-1.5,1.2-2.7,2.7-2.7h9.3c1.5,0,2.7,1.2,2.7,2.7v9.4c-0.1,1.5-1.3,2.6-2.7,2.6h-9.3
		C297.2,217.9,295.9,216.6,295.9,215.1z M278.6,177.6c0-1,0.6-2,1.5-2.4C279.5,175.8,279,176.7,278.6,177.6L278.6,177.6z
		 M294.3,191.8H285c-1.5,0-2.7-1.2-2.7-2.7v-9.3c0-1.5,1.2-2.7,2.7-2.7h9.3c1.5,0,2.7,1.2,2.7,2.7v9.4
		C297,190.7,295.8,191.8,294.3,191.8z M305.5,177.6c0-1,0.6-2,1.5-2.4C306.4,175.9,305.9,176.7,305.5,177.6L305.5,177.6z
		 M301.2,177.6v16.7c0,1.2-0.8,2.2-1.9,2.6H295c-0.5,0-1,0.1-1.4,0.2h-7c-0.5-0.1-0.9-0.2-1.4-0.2h-4.7c-1.1-0.4-1.9-1.4-1.9-2.6v-3
		c0.9,2.6,3.4,4.6,6.4,4.6l0,0h9.3c3.7,0,6.7-3,6.7-6.7v-9.3c0-1.9-0.8-3.7-2.1-4.9C300.2,175.1,301.2,176.2,301.2,177.6z
		 M159.3,201.2c-0.7,0.7-1.2,1.5-1.5,2.4l0,0C157.8,202.6,158.5,201.7,159.3,201.2z M292.3,203.6c0-1.1,0.6-2,1.5-2.4
		C293.1,201.9,292.6,202.7,292.3,203.6L292.3,203.6z M312.1,196.9h-4.7c-1.1-0.4-1.9-1.4-1.9-2.6v-3c0.9,2.6,3.4,4.5,6.4,4.5h9.3
		c3.4,0,6.2-2.5,6.7-5.7h0.1v-10.3c0-1.9-0.8-3.7-2.1-4.9c1.3,0.2,2.2,1.4,2.2,2.7v16.7c0,1.2-0.8,2.2-1.9,2.6h-4.3
		c-0.5,0-1,0.1-1.4,0.2h-7C313.1,196.9,312.6,196.9,312.1,196.9z M144.2,177.6c0-1.1,0.6-2,1.5-2.4
		C145,175.8,144.5,176.7,144.2,177.6L144.2,177.6z M336.1,179.8c0-1.5,1.2-2.7,2.7-2.7h9.3c1.5,0,2.7,1.2,2.7,2.7v9.3
		c0,1.5-1.2,2.7-2.7,2.7h-9.3c-1.5,0-2.7-1.2-2.7-2.7V179.8z M94,179.8c0-1.5,1.2-2.7,2.7-2.7h9.3c1.5,0,2.7,1.2,2.7,2.7v9.3
		c0,1.5-1.2,2.7-2.7,2.7h-9.3c-1.5,0-2.7-1.2-2.7-2.7V179.8z M120.9,179.8c0-1.5,1.2-2.7,2.7-2.7h9.3c1.5,0,2.7,1.2,2.7,2.7v9.3
		c0,1.5-1.2,2.7-2.7,2.7h-9.3c-1.5,0-2.7-1.2-2.7-2.7C120.9,189.1,120.9,179.8,120.9,179.8z M90.4,177.6c0-1,0.6-2,1.5-2.4
		C91.2,175.8,90.7,176.7,90.4,177.6L90.4,177.6z M362.8,189.1v-9.3c0-1.5,1.2-2.7,2.7-2.7h31.7c1.5,0,2.7,1.2,2.7,2.7v9.3
		c0,1.5-1.2,2.7-2.7,2.7h-31.7C364.1,191.8,362.8,190.6,362.8,189.1z M402.1,169.4c-0.5,0.9-1.4,1.4-2.4,1.4h-17
		c-1.5,0-2.7-1.2-2.7-2.7v-3c0.9,2.6,3.4,4.6,6.4,4.6h9.3c2.9,0,5.5-1.9,6.4-4.6v3C401.9,168.5,402,169,402.1,169.4z M383.5,153.6
		c0-1.5,1.2-2.7,2.7-2.7h9.3c1.5,0,2.7,1.2,2.7,2.7v9.3c0,1.5-1.2,2.7-2.7,2.7h-9.3c-1.5,0-2.7-1.2-2.7-2.7V153.6z M379.9,151.4
		L379.9,151.4c0-1.1,0.6-2,1.5-2.4C380.7,149.7,380.2,150.5,379.9,151.4z M268,151.4v16.7c0,1.5-1.2,2.7-2.7,2.7h-17
		c-1.5,0-2.7-1.2-2.7-2.7v-3c0.9,2.6,3.4,4.6,6.4,4.6h9.3c3.7,0,6.7-3,6.7-6.7v-9.3c0-1.9-0.8-3.6-2-4.8h0.2
		C267.2,149.2,267.9,150.2,268,151.4z M241.1,151.4v16.7c0,1.5-1.2,2.7-2.7,2.7h-17c-1.5,0-2.7-1.2-2.7-2.7v-3
		c0.9,2.6,3.4,4.6,6.4,4.6h9.3c3.7,0,6.7-3,6.7-6.7v-9.3c0-1.9-0.8-3.6-2-4.8h0.2C240.3,149.2,241.1,150.2,241.1,151.4z
		 M214.2,151.4v16.7c0,1.5-1.2,2.7-2.7,2.7h-17c-1.5,0-2.7-1.2-2.7-2.7v-3c0.9,2.6,3.4,4.6,6.4,4.6h9.3c3.7,0,6.7-3,6.7-6.7v-9.3
		c0-1.9-0.8-3.6-2-4.8h0.2C213.4,149.2,214.2,150.2,214.2,151.4z M187.3,151.4v16.7c0,1.5-1.2,2.7-2.7,2.7h-17
		c-1.5,0-2.7-1.2-2.7-2.7v-3c0.9,2.6,3.4,4.6,6.4,4.6h9.3c3.7,0,6.7-3,6.7-6.7v-9.3c0-1.9-0.8-3.6-2-4.8h0.2
		C186.5,149.2,187.3,150.2,187.3,151.4z M160.4,151.4v16.7c0,1.5-1.2,2.7-2.7,2.7h-17c-1.5,0-2.7-1.2-2.7-2.7v-3
		c0.9,2.6,3.4,4.6,6.4,4.6h9.3c3.7,0,6.7-3,6.7-6.7v-9.3c0-1.9-0.8-3.6-2-4.8h0.2C159.6,149.2,160.4,150.2,160.4,151.4z
		 M133.5,151.4v16.7c0,1.5-1.2,2.7-2.7,2.7h-17c-1.5,0-2.7-1.2-2.7-2.7v-3c0.9,2.6,3.4,4.6,6.4,4.6h9.3c3.7,0,6.7-3,6.7-6.7v-9.3
		c0-1.9-0.8-3.6-2-4.8h0.2C132.7,149.2,133.5,150.2,133.5,151.4z M106.6,151.4v16.7c0,1.5-1.2,2.7-2.7,2.7h-17
		c-1.5,0-2.7-1.2-2.7-2.7v-3c0.9,2.6,3.4,4.6,6.4,4.6h9.3c3.7,0,6.7-3,6.7-6.7v-9.3c0-1.9-0.8-3.6-2-4.8h0.2
		C105.8,149.2,106.6,150.2,106.6,151.4z M87.7,153.6c0-1.5,1.2-2.7,2.7-2.7h9.3c1.5,0,2.7,1.2,2.7,2.7v9.3c0,1.5-1.2,2.7-2.7,2.7
		h-9.3c-1.5,0-2.7-1.2-2.7-2.7V153.6z M84.1,151.4L84.1,151.4c0-1.1,0.6-2,1.5-2.4C84.9,149.7,84.4,150.5,84.1,151.4z M117.3,177.6
		c0-1.1,0.6-2,1.5-2.4C118.1,175.8,117.6,176.7,117.3,177.6L117.3,177.6z M332.4,177.6c0-1.1,0.6-2,1.5-2.4
		C333.3,175.9,332.7,176.7,332.4,177.6L332.4,177.6z M359.2,177.6c0-1,0.6-2,1.5-2.4C360,175.9,359.5,176.7,359.2,177.6L359.2,177.6
		z M375.5,151.4v16.7c0,1.5-1.2,2.7-2.7,2.7h-17c-1.5,0-2.7-1.2-2.7-2.7v-3c0.9,2.6,3.4,4.5,6.4,4.5h9.3c3.7,0,6.7-3,6.7-6.7v-9.3
		c0-1.9-0.8-3.6-2-4.8h0.2C374.7,149.2,375.5,150.2,375.5,151.4z M371.4,162.9c0,1.5-1.2,2.7-2.7,2.7h-9.3c-1.5,0-2.7-1.2-2.7-2.7
		v-9.3c0-1.5,1.2-2.7,2.7-2.7h9.3c1.5,0,2.7,1.2,2.7,2.7V162.9z M354.5,149c-0.7,0.7-1.2,1.5-1.5,2.4l0,0
		C353,150.3,353.6,149.4,354.5,149z M299.2,151.4c0-1.1,0.6-2,1.5-2.4C300.1,149.7,299.5,150.5,299.2,151.4L299.2,151.4z
		 M302.9,162.9v-9.3c0-1.5,1.2-2.7,2.7-2.7h9.3c1.5,0,2.7,1.2,2.7,2.7v9.3c0,1.5-1.2,2.7-2.7,2.7h-9.3
		C304.1,165.6,302.9,164.4,302.9,162.9z M123.8,196.9h-4.7c-1.1-0.4-1.9-1.4-1.9-2.6v-3c0.9,2.6,3.4,4.6,6.4,4.6h9.3
		c3.7,0,6.7-3,6.7-6.7v-9.3c0-1.9-0.8-3.7-2.1-4.9c1.3,0.2,2.2,1.4,2.2,2.7v16.7c0,1.2-0.8,2.2-1.9,2.6h-4.3c-0.5,0-1,0.1-1.4,0.2
		h-7C124.8,196.9,124.3,196.9,123.8,196.9z M134.6,215.1v-9.3c0-1.5,1.2-2.7,2.7-2.7h9.3c1.5,0,2.7,1.2,2.7,2.7v9.3
		c0,1.5-1.2,2.7-2.7,2.7h-9.3C135.8,217.9,134.6,216.6,134.6,215.1z M322.8,215.1v-9.3c0-1.5,1.2-2.7,2.7-2.7h9.3
		c1.5,0,2.7,1.2,2.7,2.7v9.3c0,1.5-1.2,2.7-2.7,2.7h-9.3C324.1,217.9,322.8,216.6,322.8,215.1z M339,196.9h-4.7
		c-1.1-0.4-1.9-1.4-1.9-2.6v-3c0.9,2.6,3.4,4.6,6.4,4.6h9.3c3.7,0,6.7-3,6.7-6.7v-9.3c0-1.9-0.8-3.7-2.1-4.9
		c1.3,0.2,2.2,1.4,2.2,2.7v16.8c-0.1,1.1-0.8,2.1-1.9,2.5h-4.3c-0.5,0-1,0.1-1.4,0.2h-7C339.9,196.9,339.5,196.9,339,196.9z
		 M365.9,196.9h-4.8c-1.1-0.4-1.9-1.4-1.9-2.6v-3c0.9,2.6,3.4,4.6,6.4,4.6h31.7c3.7,0,6.7-3,6.7-6.7v-9.3c0-1.9-0.8-3.7-2.1-4.9
		c1.3,0.2,2.2,1.4,2.2,2.7v16.7c0,1.2-0.8,2.2-1.9,2.6h-26.8c-0.5,0-1,0.1-1.4,0.2h-6.7C366.8,196.9,366.4,196.9,365.9,196.9z
		 M348.6,151.4v16.7c0,1.5-1.2,2.7-2.7,2.7h-10.7h-6.3c-1.5,0-2.7-1.2-2.7-2.7v-3c0.9,2.6,3.4,4.6,6.4,4.6h9.3c3.7,0,6.7-3,6.7-6.7
		v-9.3c0-1.9-0.8-3.6-2-4.8h0.2C347.8,149.2,348.6,150.2,348.6,151.4z M321.7,151.4v16.7c0,1.5-1.2,2.7-2.7,2.7h-17
		c-1.5,0-2.7-1.2-2.7-2.7v-3c0.9,2.6,3.4,4.5,6.4,4.6h9.3c3.7,0,6.7-3,6.7-6.7v-9.3c0-1.9-0.8-3.6-2-4.8h0.2
		C321,149.2,321.7,150.2,321.7,151.4z M107.7,215.1v-9.3c0-1.5,1.2-2.7,2.7-2.7h9.3c1.5,0,2.7,1.2,2.7,2.7v9.3
		c0,1.5-1.2,2.7-2.7,2.7h-9.3C108.9,217.9,107.7,216.6,107.7,215.1z M409.6,153.6c0-1.5,1.2-2.7,2.7-2.7h9.3c1.5,0,2.7,1.2,2.7,2.7
		v9.3c0,1.5-1.2,2.7-2.7,2.7h-9.3c-1.5,0-2.7-1.2-2.7-2.7V153.6z M67.1,179.8c0-1.5,1.2-2.7,2.7-2.7h9.3c1.5,0,2.7,1.2,2.7,2.7v9.3
		c0,1.5-1.2,2.7-2.7,2.7h-9.3c-1.5,0-2.7-1.2-2.7-2.7V179.8z M132.4,201.2c-0.7,0.7-1.2,1.5-1.5,2.4l0,0
		C131,202.6,131.6,201.7,132.4,201.2z M134.2,232.2c0-1.5,1.2-2.7,2.7-2.7h197.4c1.5,0,2.7,1.2,2.7,2.7v9.4
		c-0.1,1.5-1.3,2.6-2.7,2.6H136.9c-1.5,0-2.7-1.2-2.7-2.7V232.2z M319.2,203.6c0-1.1,0.6-2,1.5-2.4
		C320,201.9,319.5,202.7,319.2,203.6L319.2,203.6z M280.6,142.1c0,1.2-0.8,2.2-1.9,2.6h-3.6c-0.5,0-1,0.1-1.4,0.2h-7
		c-0.5-0.1-0.9-0.2-1.4-0.2H260c-1.1-0.4-1.9-1.4-1.9-2.6v-3c0.9,2.6,3.4,4.6,6.4,4.6h9.3c3.7,0,6.7-3,6.7-6.7v-9.3
		c0-1.9-0.8-3.7-2.1-4.9c1.3,0.2,2.2,1.4,2.2,2.7L280.6,142.1L280.6,142.1z M276.5,136.9c0,1.5-1.2,2.7-2.7,2.7h-9.3
		c-1.5,0-2.7-1.2-2.7-2.7v-9.3c0-1.5,1.2-2.7,2.7-2.7h9.3c1.5,0,2.7,1.2,2.7,2.7V136.9z M258.1,125.4L258.1,125.4
		c0-1.1,0.6-2,1.5-2.4C258.9,123.6,258.4,124.4,258.1,125.4z M253.7,142.1c0,1.2-0.8,2.2-1.9,2.6h-3.6c-0.5,0-1,0.1-1.4,0.2h-7
		c-0.5-0.1-0.9-0.2-1.4-0.2H233c-1.1-0.4-1.9-1.4-1.9-2.6v-3c0.9,2.6,3.4,4.5,6.4,4.5h9.3c3.7,0,6.7-3,6.7-6.7v-9.3
		c0-1.9-0.8-3.7-2.1-4.9c1.3,0.2,2.2,1.4,2.2,2.7v16.7H253.7z M249.6,136.9c0,1.5-1.2,2.7-2.7,2.7h-9.3c-1.5,0-2.7-1.2-2.7-2.7v-9.3
		c0-1.5,1.2-2.7,2.7-2.7h9.3c1.5,0,2.7,1.2,2.7,2.7V136.9z M231.2,125.4L231.2,125.4c0-1.1,0.6-2,1.5-2.4
		C232,123.6,231.5,124.4,231.2,125.4z M226.8,142.1c0,1.2-0.8,2.2-1.9,2.6h-3.6c-0.5,0-1,0.1-1.4,0.2h-7c-0.5-0.1-0.9-0.2-1.4-0.2
		h-5.3c-1.1-0.4-1.9-1.4-1.9-2.6v-3c0.9,2.6,3.4,4.6,6.4,4.6h9.3c3.7,0,6.7-3,6.7-6.7v-9.3c0-1.9-0.8-3.7-2.1-4.9
		c1.3,0.2,2.2,1.4,2.2,2.7V142.1z M222.7,136.9c0,1.5-1.2,2.7-2.7,2.7h-9.3c-1.5,0-2.7-1.2-2.7-2.7v-9.3c0-1.5,1.2-2.7,2.7-2.7h9.3
		c1.5,0,2.7,1.2,2.7,2.7V136.9z M204.3,125.4L204.3,125.4c0-1.1,0.6-2,1.5-2.4C205.1,123.6,204.6,124.4,204.3,125.4z M199.9,142.1
		c0,1.2-0.8,2.2-1.9,2.6h-3.6c-0.5,0-1,0.1-1.4,0.2h-7c-0.5-0.1-0.9-0.2-1.4-0.2h-5.3c-1.1-0.4-1.9-1.4-1.9-2.6v-3
		c0.9,2.6,3.4,4.6,6.4,4.6h9.3c3.7,0,6.7-3,6.7-6.7v-9.3c0-1.9-0.8-3.7-2.1-4.9c1.3,0.2,2.2,1.4,2.2,2.7V142.1z M195.8,136.9
		c0,1.5-1.2,2.7-2.7,2.7h-9.3c-1.5,0-2.7-1.2-2.7-2.7v-9.3c0-1.5,1.2-2.7,2.7-2.7h9.3c1.5,0,2.7,1.2,2.7,2.7V136.9z M177.4,125.4
		L177.4,125.4c0-1.1,0.6-2,1.5-2.4C178.2,123.6,177.7,124.4,177.4,125.4z M173,142.1c0,1.2-0.8,2.2-1.9,2.6h-3.6
		c-0.5,0-1,0.1-1.4,0.2h-7c-0.5-0.1-0.9-0.2-1.4-0.2h-5.3c-1.1-0.4-1.9-1.4-1.9-2.6v-3c0.9,2.6,3.4,4.6,6.4,4.6h9.3
		c3.7,0,6.7-3,6.7-6.7v-9.3c0-1.9-0.8-3.7-2.1-4.9c1.3,0.2,2.2,1.4,2.2,2.7V142.1z M168.9,136.9c0,1.5-1.2,2.7-2.7,2.7h-9.3
		c-1.5,0-2.7-1.2-2.7-2.7v-9.3c0-1.5,1.2-2.7,2.7-2.7h9.3c1.5,0,2.7,1.2,2.7,2.7V136.9z M150.5,125.4L150.5,125.4
		c0-1.1,0.6-2,1.5-2.4C151.3,123.6,150.8,124.4,150.5,125.4z M146.1,142.1c0,1.2-0.8,2.2-1.9,2.6h-3.6c-0.5,0-1,0.1-1.4,0.2h-7
		c-0.5-0.1-0.9-0.2-1.4-0.2h-5.3c-1.1-0.4-1.9-1.4-1.9-2.6v-3c0.9,2.6,3.4,4.5,6.4,4.5h9.3c3.7,0,6.7-3,6.7-6.7v-9.3
		c0-1.9-0.8-3.7-2.1-4.9c1.3,0.2,2.2,1.4,2.2,2.7V142.1z M142,136.9c0,1.5-1.2,2.7-2.7,2.7H130c-1.5,0-2.7-1.2-2.7-2.7v-9.3
		c0-1.5,1.2-2.7,2.7-2.7h9.3c1.5,0,2.7,1.2,2.7,2.7V136.9z M123.6,125.4L123.6,125.4c0-1.1,0.6-2,1.5-2.4
		C124.4,123.6,123.9,124.4,123.6,125.4z M119.2,142.1c0,1.2-0.8,2.2-1.9,2.6h-3.7c-0.5,0-1,0.1-1.4,0.2h-7c-0.5-0.1-0.9-0.2-1.4-0.2
		h-5.3c-1.1-0.4-1.9-1.4-1.9-2.6v-3c0.9,2.6,3.4,4.5,6.4,4.5h9.3c3.7,0,6.7-3,6.7-6.7v-9.3c0-1.9-0.8-3.7-2.1-4.9
		c1.3,0.2,2.2,1.4,2.2,2.7v16.7H119.2z M115.1,137c-0.1,1.5-1.3,2.6-2.7,2.6h-9.3c-1.5,0-2.7-1.2-2.7-2.7v-9.3
		c0-1.5,1.2-2.7,2.7-2.7h9.3c1.5,0,2.7,1.2,2.7,2.7V137z M65,175.2c-0.7,0.7-1.2,1.5-1.5,2.4l0,0C63.5,176.5,64.1,175.6,65,175.2z
		 M65.1,201.2c-0.7,0.7-1.2,1.5-1.5,2.4l0,0C63.7,202.6,64.3,201.7,65.1,201.2z M104.1,203.6c0-1,0.6-1.9,1.5-2.4
		C104.9,201.9,104.4,202.7,104.1,203.6L104.1,203.6L104.1,203.6z M131,217.3c0.9,2.6,3.4,4.5,6.4,4.5h9.3c3.7,0,6.7-3,6.7-6.7v-9.3
		c0-1.9-0.8-3.6-2-4.8h0.2c1.1,0.4,1.9,1.4,1.9,2.6v16.7c0,1.5-1.2,2.7-2.7,2.7h-17c-1.5,0-2.7-1.2-2.7-2.7L131,217.3L131,217.3z
		 M130.6,230c0-1.1,0.6-2,1.5-2.4C131.4,228.2,130.9,229.1,130.6,230L130.6,230z M321.9,223.1c-1.5,0-2.7-1.2-2.7-2.7v-3
		c0.9,2.6,3.4,4.6,6.4,4.6h9.3c3.7,0,6.7-3,6.7-6.7V206c0-1.9-0.8-3.6-2-4.8h0.2c1.1,0.4,1.9,1.4,1.9,2.6v16.7
		c0,1.5-1.2,2.7-2.7,2.7L321.9,223.1z M346.1,203.6c0-1.1,0.6-2,1.5-2.4C346.9,201.9,346.4,202.7,346.1,203.6L346.1,203.6z
		 M408.3,177.6c0-1,0.6-2,1.5-2.4C409.1,175.9,408.6,176.7,408.3,177.6L408.3,177.6z M315.5,136.9v-9.3c0-1.5,1.2-2.7,2.7-2.7h9.3
		c1.5,0,2.7,1.2,2.7,2.7v9.3c0,1.5-1.2,2.7-2.7,2.7h-9.3C316.7,139.6,315.5,138.4,315.5,136.9z M311.8,125.4L311.8,125.4
		c0-1.1,0.6-2,1.5-2.4C312.7,123.6,312.2,124.4,311.8,125.4z M307.5,125.3V142c0,1.2-0.8,2.2-1.9,2.6h-3.7c-0.5,0-1,0.1-1.4,0.2h-7
		c-0.5-0.1-0.9-0.2-1.4-0.2h-5.3c-1.1-0.4-1.9-1.4-1.9-2.6v-3c0.9,2.6,3.4,4.6,6.4,4.6h9.3c3.7,0,6.7-3,6.7-6.7v-9.3
		c0-1.9-0.8-3.7-2.1-4.9C306.5,122.9,307.5,124,307.5,125.3z M303.4,127.5v9.3c0,1.5-1.2,2.7-2.7,2.7h-9.3c-1.5,0-2.7-1.2-2.7-2.7
		v-9.3c0-1.5,1.2-2.7,2.7-2.7h9.3C302.1,124.8,303.4,126,303.4,127.5z M285,125.4L285,125.4c0-1.1,0.6-2,1.5-2.4
		C285.8,123.6,285.3,124.4,285,125.4z M73.4,136.9v-9.3c0-1.5,1.2-2.7,2.7-2.7h9.3c1.5,0,2.7,1.2,2.7,2.7v9.3c0,1.5-1.2,2.7-2.7,2.7
		h-9.3C74.7,139.6,73.4,138.4,73.4,136.9z M69.8,125.4L69.8,125.4c0-1.1,0.6-2,1.5-2.4C70.6,123.6,70.1,124.4,69.8,125.4z
		 M57.2,151.4L57.2,151.4c0-1.1,0.6-2,1.5-2.4C58,149.7,57.5,150.5,57.2,151.4z M57.2,165.1c0.9,2.6,3.4,4.6,6.4,4.6h9.3
		c3.7,0,6.7-3,6.7-6.7v-9.3c0-1.9-0.8-3.6-2-4.8h0.2c1.1,0.4,1.9,1.4,1.9,2.6v16.7c0,1.5-1.2,2.7-2.7,2.7H60c-1.5,0-2.7-1.2-2.7-2.7
		L57.2,165.1z M63.7,220.3v-3c0.9,2.6,3.4,4.6,6.4,4.6h23.2c3.7,0,6.7-3,6.7-6.7v-9.3c0-1.9-0.8-3.6-2-4.8h0.3
		c1.1,0.4,1.9,1.4,1.9,2.6v8.4v8.4l0,0c0,1.5-1.2,2.7-2.7,2.7H66.4C64.9,223.1,63.7,221.8,63.7,220.3z M104.1,220.3v-3
		c0.9,2.6,3.4,4.5,6.4,4.5h9.3c3.7,0,6.7-3,6.7-6.7v-9.3c0-1.9-0.8-3.6-2-4.8h0.2c1.1,0.4,1.9,1.4,1.9,2.6v16.7
		c0,1.5-1.2,2.7-2.7,2.7h-17C105.3,223.1,104.1,221.8,104.1,220.3L104.1,220.3z M130.6,246.7v-3c0.9,2.6,3.4,4.5,6.4,4.5h197.4
		c3.7,0,6.7-3,6.7-6.7v-9.3c0-1.9-0.8-3.7-2.1-4.9c1.3,0.2,2.2,1.4,2.2,2.7v16.8c-0.1,1.5-1.3,2.6-2.7,2.6H133.4
		C131.8,249.4,130.6,248.2,130.6,246.7z M346.1,220.3v-3c0.9,2.6,3.4,4.5,6.4,4.5h9.3c3.7,0,6.7-3,6.7-6.7v-9.3c0-1.9-0.8-3.6-2-4.8
		h0.3c1.1,0.4,1.9,1.4,1.9,2.6v16.7c0,1.5-1.2,2.7-2.7,2.7h-17C347.3,223.1,346.1,221.8,346.1,220.3z M372.8,203.6
		c0-1.1,0.6-2,1.5-2.4C373.6,201.9,373.1,202.7,372.8,203.6L372.8,203.6z M408.3,194.3v-3c0.9,2.6,3.4,4.5,6.4,4.5h9.3
		c3.7,0,6.7-3,6.7-6.7v-9.3c0-1.9-0.8-3.7-2.1-4.9c1.3,0.2,2.2,1.4,2.2,2.7v16.7c0,1.5-1.2,2.7-2.7,2.7h-17
		C409.5,197,408.3,195.8,408.3,194.3z M414.8,142.1c0,1.2-0.8,2.2-1.9,2.6h-4.3c-0.5,0-1,0.1-1.4,0.2h-6.1c-0.5-0.1-0.9-0.2-1.4-0.2
		h-5.5c-1.1-0.4-1.9-1.4-1.9-2.6v-3c0.9,2.6,3.4,4.6,6.4,4.6h9.3c3.7,0,6.7-3,6.7-6.7v-9.3c0-1.9-0.8-3.7-2.1-4.9
		c1.3,0.2,2.2,1.4,2.2,2.7L414.8,142.1L414.8,142.1z M387.9,142.1c0,1.2-0.8,2.2-1.9,2.6h-3.5c-0.5,0-1,0.1-1.4,0.2h-7
		c-0.5-0.1-0.9-0.2-1.4-0.2h-5.5c-1.1-0.4-1.9-1.4-1.9-2.6v-3c0.9,2.6,3.4,4.6,6.4,4.6l0,0h9.3c3.7,0,6.7-3,6.7-6.7v-9.3
		c0-1.9-0.8-3.7-2.1-4.9c1.3,0.2,2.2,1.4,2.2,2.7L387.9,142.1L387.9,142.1z M361.1,142.1c0,1.2-0.8,2.2-1.9,2.6h-3.5
		c-0.5,0-1,0.1-1.4,0.2h-7c-0.5-0.1-0.9-0.2-1.4-0.2h-5.5c-1.1-0.4-1.9-1.4-1.9-2.6v-3c0.9,2.6,3.4,4.5,6.4,4.5h9.3
		c3.7,0,6.7-3,6.7-6.7v-9.3c0-1.9-0.8-3.7-2.1-4.9c1.3,0.2,2.2,1.4,2.2,2.7L361.1,142.1L361.1,142.1z M334.4,142.1
		c0,1.2-0.8,2.2-1.9,2.6h-3.6c-0.5,0-1,0.1-1.4,0.2h-7c-0.5-0.1-0.9-0.2-1.4-0.2h-5.3c-1.1-0.4-1.9-1.4-1.9-2.6v-3
		c0.9,2.6,3.4,4.6,6.4,4.6h9.3c3.7,0,6.7-3,6.7-6.7v-9.3c0-1.9-0.8-3.7-2.1-4.9c1.3,0.2,2.2,1.4,2.2,2.7L334.4,142.1L334.4,142.1z
		 M372.7,217.3c0.9,2.6,3.4,4.6,6.4,4.6h23.2c3.7,0,6.7-3,6.7-6.7v-9.3c0-1.9-0.8-3.7-2.1-4.9c1.3,0.2,2.2,1.4,2.2,2.7v16.7
		c0,1.5-1.2,2.7-2.7,2.7h-30.9c-1.5,0-2.7-1.2-2.7-2.7L372.7,217.3z"/>
</g>
</svg>
