<?xml version="1.0" encoding="utf-8"?>
<!-- Generator: Adobe Illustrator 24.0.1, SVG Export Plug-In . SVG Version: 6.00 Build 0)  -->
<svg version="1.1" id="Layer_1" xmlns="http://www.w3.org/2000/svg" xmlns:xlink="http://www.w3.org/1999/xlink" x="0px" y="0px"
	 viewBox="0 0 1894 384" style="enable-background:new 0 0 1894 384;" xml:space="preserve">
<style type="text/css">
	.st0{fill:#FFFFFF;}
</style>
<g id="Layer_1_1_">
</g>
<g>
	<circle class="st0" cx="409.1" cy="202.9" r="9.1"/>
	
		<ellipse transform="matrix(0.9732 -0.2298 0.2298 0.9732 -39.5567 66.0507)" class="st0" cx="263.9" cy="202.9" rx="9.1" ry="9.1"/>
	<path class="st0" d="M727.6,106.7H163.2c-9.6,0-17.3,7.8-17.3,17.3v136c0,9.6,7.8,17.3,17.3,17.3h564.4c9.6,0,17.3-7.8,17.3-17.3
		V124C744.9,114.4,737.2,106.7,727.6,106.7z M222.1,222.9l-10.9-18.2v18.2h-21.8v-69h32.7c10.9,0,21.8,7.3,21.8,21.8
		c0,14.5-10.9,18.2-14.5,18.2l18.2,29L222.1,222.9z M258.4,222.9c-7.3,0-14.5-7.3-14.5-18.2c0-12.4,10.9-14.5,14.5-14.5
		c1.3,0,6.2,0,7.3,0c7.3,0,3.6-7.3,0-7.3c-3.6,0-14.5,0-14.5,0v-14.5h29c7.3,0,10,7.3,10,14.5s0.9,39.9,0.9,39.9L258.4,222.9z
		 M352.8,222.9L352.8,222.9c0,0-14.5,0-29,0c-21.8,0-25.4-18.2-25.4-29c0-6.7,3.6-25.4,25.4-25.4h7.3v-14.5h21.8V222.9z
		 M378.2,222.9h-18.2v-54.5h18.2V222.9z M409.1,222.9c-15,0-27.2-12.2-27.2-27.2s12.2-27.2,27.2-27.2s27.2,12.2,27.2,27.2
		S424.1,222.9,409.1,222.9z M501.7,175.7c-7.3,0-10.9,3.6-10.9,10.9c0,7.3,0,3.6,0,14.5c0,14.5-3.6,21.8-32.7,21.8
		c0-14.5,0-21.8,0-21.8c7.3,0,14.5,0,14.5-10.9c0-10.9,0-10.9,0-18.2c0-7.3,3.6-18.2,29-18.2C501.7,161.1,501.7,175.7,501.7,175.7z
		 M556.1,222.9h-21.8v-32.7c0-3.6-7.3-3.6-7.3,0s0,32.7,0,32.7h-18.2v-69h18.2V172c7.3-7.3,29-3.6,29,10.9
		C556.1,197.4,556.1,222.9,556.1,222.9z M574.3,222.9c-7.3,0-14.5-7.3-14.5-18.2c0-12.4,10.9-14.5,14.5-14.5c1.3,0,6.2,0,7.3,0
		c7.3,0,3.6-7.3,0-7.3s-14.5,0-14.5,0v-14.5h29c7.3,0,10,7.3,10,14.5s0.9,39.9,0.9,39.9L574.3,222.9z M664.9,198.6l-19.1,0
		c-1.5-2.8-4.5-4.8-8-4.8c-5,0-9.1,4.1-9.1,9.1c0,5,4.1,9.1,9.1,9.1c3.5,0,6.5-2,8-4.9l16.7,0c-4.3,9.3-13.8,15.8-24.7,15.8
		c-15,0-27.2-12.2-27.2-27.2s12.2-27.2,27.2-27.2c15,0,27.2,12.2,27.2,27.2C665.1,196.6,665,197.6,664.9,198.6z M694.1,222.9
		l-7.3-21.8h-3.6v21.8h-14.5v-69h14.5v29h3.6l7.3-10.9h18.2l-10.9,18.2l14.5,32.7L694.1,222.9z"/>
	
		<ellipse transform="matrix(0.9732 -0.2298 0.2298 0.9732 -37.9053 80.2314)" class="st0" cx="325.6" cy="202.9" rx="9.1" ry="9.1"/>
	<path class="st0" d="M579.7,193.8c-5,0-9.1,4.1-9.1,9.1c0,5,4.1,9.1,9.1,9.1s9.1-4.1,9.1-9.1C588.8,197.9,584.8,193.8,579.7,193.8z
		"/>
	<ellipse transform="matrix(0.9732 -0.2298 0.2298 0.9732 -37.5795 53.9833)" class="st0" cx="213" cy="188.4" rx="9.1" ry="9.1"/>
	<polygon class="st0" points="886.9,157.2 941.1,157.2 941.1,252.1 968.2,252.1 968.2,157.2 1022.5,157.2 1022.5,130.1 886.9,130.1 
			"/>
	<path class="st0" d="M1151,130.1H1056v122h27.1v-47.5h0v0h67.8c9,0,13.6,4.5,13.6,13.6v33.9h27.1v-33.9c0-10.3-1.9-18.7-5.8-25.1
		c3.9-5.5,5.8-14.1,5.8-25.9C1191.6,142.5,1178.1,130.1,1151,130.1z M1164.5,177.6h-81.4v-20.3h81.4V177.6z"/>
	<rect x="1391.3" y="184.3" class="st0" width="46.8" height="20.3"/>
	<path class="st0" d="M1592.9,185.9c-0.1-0.1-0.2-0.1-0.3-0.2c-0.4-0.3-0.8-0.6-1.1-0.9c-0.1-0.1-0.3-0.2-0.4-0.3
		c-0.4-0.3-0.8-0.5-1.2-0.8c-0.1-0.1-0.3-0.2-0.4-0.2c-0.8-0.5-1.5-0.9-2.4-1.3c-0.2-0.1-0.3-0.2-0.5-0.3c-0.3-0.2-0.7-0.3-1-0.4
		c-0.3-0.1-0.6-0.3-0.9-0.4c-0.3-0.1-0.6-0.3-1-0.4c-0.4-0.1-0.7-0.3-1.1-0.4c-0.3-0.1-0.6-0.2-1-0.3c-0.4-0.1-0.8-0.3-1.3-0.4
		c-0.3-0.1-0.6-0.2-0.9-0.2c-0.6-0.2-1.2-0.3-1.8-0.4c-0.1,0-0.3-0.1-0.4-0.1c-0.8-0.2-1.5-0.3-2.3-0.4c-0.2,0-0.5-0.1-0.8-0.1
		c-0.6-0.1-1.1-0.2-1.7-0.2c-0.3,0-0.6-0.1-0.9-0.1c-0.6-0.1-1.1-0.1-1.7-0.2c-0.3,0-0.6-0.1-0.9-0.1c-0.6,0-1.2-0.1-1.9-0.1
		c-0.3,0-0.5,0-0.8,0c-0.9,0-1.8,0-2.8,0h0c0,0,0,0,0,0h-67.8v-20.3h81.4v20.3h-13.5c0.9,0,1.9,0,2.8,0c0.3,0,0.6,0,0.8,0
		c0.6,0,1.3,0.1,1.9,0.1c0.3,0,0.6,0,0.9,0.1c0.6,0,1.1,0.1,1.7,0.2c0.3,0,0.6,0.1,0.9,0.1c0.6,0.1,1.2,0.2,1.7,0.2
		c0.3,0,0.5,0.1,0.8,0.1c0.8,0.1,1.6,0.3,2.3,0.4c0.2,0,0.3,0.1,0.4,0.1c0.6,0.1,1.2,0.3,1.8,0.4c0.3,0.1,0.6,0.2,0.9,0.2
		c0.4,0.1,0.8,0.2,1.3,0.4c0.3,0.1,0.6,0.2,1,0.3c0.4,0.1,0.7,0.3,1.1,0.4c0.3,0.1,0.7,0.2,1,0.4c0.3,0.1,0.6,0.3,0.9,0.4
		c0.3,0.1,0.7,0.3,1,0.4c0.2,0.1,0.3,0.2,0.5,0.3c0.8,0.4,1.6,0.8,2.4,1.3c0.1,0.1,0.3,0.2,0.4,0.2c0.4,0.2,0.8,0.5,1.2,0.8
		c0.1,0.1,0.3,0.2,0.4,0.3c0.4,0.3,0.8,0.6,1.1,0.9C1592.7,185.7,1592.8,185.8,1592.9,185.9c1.9,1.5,3.5,3.3,5,5.2
		c4.2-6,6.4-13.9,6.4-23.7c0-3.6-0.3-7-0.8-10.2h0c-3.4-18.1-16.7-27.1-39.9-27.1h-54.2c-27.1,0-40.7,12.6-40.7,37.8
		c0,12.1,3.3,21.2,10,27.4c-1.4-1.3-2.6-2.6-3.7-4.2c-4.2,5.9-6.2,13.6-6.2,23.2c0,3.9,0.3,7.5,0.9,10.7h0
		c3.5,18.1,16.8,27.1,39.7,27.1h54.2c27.1,0,40.7-12.4,40.7-37.3C1604.2,201.7,1600.4,192.1,1592.9,185.9z M1479.6,196.2
		c-0.3-0.2-0.6-0.5-0.8-0.7C1479.1,195.8,1479.3,196,1479.6,196.2z M1495.4,203.4c-0.1,0-0.2,0-0.3-0.1
		C1495.1,203.3,1495.2,203.3,1495.4,203.4z M1493.1,202.8c-0.2-0.1-0.4-0.1-0.6-0.2C1492.6,202.7,1492.9,202.8,1493.1,202.8z
		 M1490.9,202.2c-0.2-0.1-0.4-0.1-0.7-0.2C1490.4,202,1490.6,202.1,1490.9,202.2z M1488.7,201.4c-0.2-0.1-0.4-0.1-0.6-0.2
		C1488.3,201.3,1488.5,201.4,1488.7,201.4z M1486.4,200.5c-0.1,0-0.1-0.1-0.2-0.1C1486.3,200.4,1486.3,200.4,1486.4,200.5z
		 M1484.3,199.4c-0.2-0.1-0.3-0.2-0.5-0.3C1484,199.2,1484.2,199.3,1484.3,199.4z M1482.6,198.4c-0.2-0.1-0.4-0.3-0.7-0.4
		C1482.2,198.1,1482.4,198.3,1482.6,198.4z M1481.1,197.3c-0.3-0.2-0.5-0.4-0.7-0.6C1480.6,197,1480.8,197.2,1481.1,197.3z
		 M1577.1,225h-81.4v-20.3h13.6c-0.2,0-0.4,0-0.5,0c0.2,0,0.4,0,0.5,0h67.8V225z M1497.7,203.8c0.2,0,0.5,0.1,0.7,0.1
		C1498.2,203.9,1498,203.8,1497.7,203.8z M1500.2,204.2c0.3,0,0.6,0.1,1,0.1C1500.8,204.2,1500.5,204.2,1500.2,204.2z M1502.8,204.4
		c0.4,0,0.7,0.1,1.1,0.1C1503.5,204.5,1503.1,204.4,1502.8,204.4z M1505.5,204.6c0.4,0,0.7,0,1.1,0
		C1506.2,204.6,1505.8,204.6,1505.5,204.6z"/>
	<path class="st0" d="M1707.5,130.1h-40.7c-27.1,0-40.7,13.6-40.7,40.7v40.7c0,27.1,13.6,40.7,40.7,40.7h40.7
		c27.1,0,40.7-13.6,40.7-40.7v-40.7C1748.1,143.7,1734.6,130.1,1707.5,130.1z M1721,211.5c0,9-4.5,13.6-13.6,13.6h-40.7
		c-9,0-13.6-4.5-13.6-13.6v-40.7c0-9,4.5-13.6,13.6-13.6h40.7c9,0,13.6,4.5,13.6,13.6V211.5z"/>
	<path class="st0" d="M1347,179.4c-13.4,0-72.6,0-78.1,0s-12.9,1-12.9-11.8s3-13.5,11.2-13.5s37.9,0,49.4,0
		c11.5,0,14.8,4.4,14.8,10.7c0,0,24.9,0,33.1,0c0-28.7-10.4-33.9-21.6-33.9c-11.2,0-80.7,0-93,0c-12.3,0-29.8,9.8-29.8,36.7
		s22.4,34.7,32,34.7c9.6,0,67.2,0,77,0c9.8,0,7.7,10.7,7.7,15.6c0,4.9-1.6,8.5-6.6,8.5c-4.9,0-56.2,0-63.1,0
		c-6.8,0-11.8-6-11.8-14.8h-35c0,36.1,17.2,41.4,28.2,41.4c10.9,0,71.1,0,92.7,0c21.6,0,31.7-17.9,31.7-39
		C1373,193,1360.4,179.4,1347,179.4z"/>
</g>
</svg>
