<?xml version="1.0" encoding="utf-8"?>
<!-- Generator: Adobe Illustrator 24.0.1, SVG Export Plug-In . SVG Version: 6.00 Build 0)  -->
<svg version="1.1" id="Ebene_1" xmlns="http://www.w3.org/2000/svg" xmlns:xlink="http://www.w3.org/1999/xlink" x="0px" y="0px"
	 viewBox="0 0 566.9 170.1" style="enable-background:new 0 0 566.9 170.1;" xml:space="preserve">
<style type="text/css">
	.st0{fill:#FFFEFD;}
</style>
<path class="st0" d="M240.6,91.1c-14.9,14.9-14.9,39,0,53.9c14.9,14.9,39,14.9,53.9,0c12.9-12.9,14.6-32.7,5.2-47.4l-20.5,20.5
	c0,3-1.2,5.9-3.4,8.2c-4.6,4.6-11.9,4.6-16.5,0c-4.6-4.6-4.6-11.9,0-16.5c4.6-4.6,11.9-4.6,16.5,0l0.4,0.4l18.7-18.7l-0.4-0.4
	C279.6,76.3,255.5,76.3,240.6,91.1z"/>
<path class="st0" d="M92.1,156l92.1-104.8h-38.4l-58.9,59.9c-1.8,1.8-4.7,1.8-6.5,0c-1.8-1.8-1.8-4.8,0-6.6l52.4-53.3H0L92.1,156z"
	/>
<path class="st0" d="M503.1,117.9l-31.9,37.5h26.1l24.8-25.3c1.4-1.5,3.8-1.5,5.2,0c1.4,1.5,1.4,3.8,0,5.3l-19.6,20h59.2L535,117.9
	l31.9-37.5h-26.1L516,105.7c-1.4,1.5-3.8,1.5-5.2,0c-1.4-1.5-1.4-3.8,0-5.3l19.6-20h-59.2L503.1,117.9z"/>
<path class="st0" d="M356.3,80.4v75h23.9v-48.7h18.1l22.3-26.3h-26.1l-24.8,25.3c-1.4,1.5-3.8,1.5-5.2,0c-1.4-1.5-1.4-3.8,0-5.3
	l19.6-20L356.3,80.4L356.3,80.4z"/>
<path class="st0" d="M338.5,80.7H353L376.9,56h-38.4V13.9l-58.4,66.9h25.5l17.5-16.2c1.4-1.5,3.8-1.5,5.2,0c1.4,1.5,1.4,3.8,0,5.3
	l-13.8,14v71.6h23.9L338.5,80.7L338.5,80.7z"/>
<path class="st0" d="M158.9,91.1c-14.9,14.9-14.9,39,0,53.9c14.9,14.9,39,14.9,53.9,0c12.9-12.9,14.6-32.7,5.2-47.4l-20.5,20.5
	c0,3-1.2,5.9-3.4,8.2c-3.7,3.7-9.4,4.4-13.8,2l34.7-34.7c-0.6-0.7-4.4-4.5-5.6-5.4C194.5,76.3,172.7,77.3,158.9,91.1z M175.1,122.6
	c-1.8-4.2-0.9-9.3,2.5-12.7c3.4-3.4,8.5-4.3,12.7-2.5L175.1,122.6z"/>
<path class="st0" d="M418.7,91.1c-14.9,14.9-14.9,39,0,53.9c14.9,14.9,39,14.9,53.9,0c12.9-12.9,14.6-32.7,5.2-47.4l-20.5,20.5
	c0,3-1.1,5.9-3.4,8.2c-3.7,3.7-9.4,4.4-13.8,2l34.7-34.7c-0.6-0.7-4.4-4.5-5.6-5.4C454.3,76.3,432.5,77.3,418.7,91.1z M434.8,122.6
	c-1.8-4.2-0.9-9.3,2.5-12.7c3.4-3.4,8.5-4.3,12.7-2.5L434.8,122.6z"/>
</svg>
