<?xml version="1.0" encoding="utf-8"?>
<!-- Generator: Adobe Illustrator 24.0.1, SVG Export Plug-In . SVG Version: 6.00 Build 0)  -->
<svg version="1.1"
	 id="Layer_3" xmlns:cc="http://creativecommons.org/ns#" xmlns:dc="http://purl.org/dc/elements/1.1/" xmlns:rdf="http://www.w3.org/1999/02/22-rdf-syntax-ns#"
	 xmlns="http://www.w3.org/2000/svg" xmlns:xlink="http://www.w3.org/1999/xlink" x="0px" y="0px" viewBox="0 0 598.2 350.3"
	 style="enable-background:new 0 0 598.2 350.3;" xml:space="preserve">
<style type="text/css">
	.st0{fill:none;stroke:#FFFFFF;stroke-width:2;}
</style>
<g>
	<path class="st0" d="M572.9,63H343.7l-0.2,0.8h-50.8l-0.3-0.8L23.5,63c-7.8,0-14.1,6.3-14.1,14.1v185.4c0,3.8,1.5,7.3,4.1,10
		c2.7,2.7,6.2,4.1,10,4.1h549.5c7.8,0,14.2-6.3,14.2-14.1V77.1C587.1,69.3,580.7,63,572.9,63z M24.3,65.9h265.9v15.7l-251,0
		C31.3,81.6,25,88,25,95.8v142c0,7.8,6.3,14.2,14.1,14.2h518.1c7.8,0,14.1-6.3,14.1-14.2v-142c0-7.8-6.3-14.1-14.1-14.1H346.2V65.9
		h226.7c6.2,0,11.2,5,11.2,11.2v185.4c0,6.2-5,11.2-11.2,11.2H23.5c0,0,0,0,0,0c-3,0-5.8-1.2-7.9-3.3c-2.1-2.1-3.3-4.9-3.3-7.9V77.1
		c0-6.2,5-11.2,11.2-11.2L24.3,65.9L24.3,65.9z M318.1,126.9c17,0,30.8-13.8,30.8-30.8V84.6h208.3c6.2,0,11.2,5,11.2,11.2v142
		c0,6.2-5,11.2-11.2,11.2H39.1c-6.2,0-11.2-5-11.2-11.2v-142c0-6.2,5-11.2,11.2-11.2h248.2v11.5
		C287.3,113.1,301.1,126.9,318.1,126.9z M343.3,96.1c0,13.8-11.3,25.1-25.1,25.1c-13.8,0-25.1-11.3-25.1-25.1V66.8h50.2L343.3,96.1z
		"/>
	<path class="st0" d="M149.7,204.8c19.9,0,36.1-16.2,36.1-36.1s-16.2-36.1-36.1-36.1c-19.9,0-36.1,16.2-36.1,36.1
		S129.8,204.8,149.7,204.8z M116.5,168.7c0-18.3,14.9-33.2,33.2-33.2c18.3,0,33.2,14.9,33.2,33.2c0,18.3-14.9,33.2-33.2,33.2
		C131.4,201.9,116.5,187,116.5,168.7z"/>
	<path class="st0" d="M149.7,185.5c9.3,0,16.8-7.5,16.8-16.8c0-9.3-7.5-16.8-16.8-16.8c-9.3,0-16.8,7.5-16.8,16.8
		C132.9,178,140.5,185.5,149.7,185.5z M135.8,168.7c0-7.7,6.2-13.9,13.9-13.9c7.6,0,13.8,6.2,13.8,13.9s-6.2,13.9-13.8,13.9
		C142.1,182.6,135.8,176.3,135.8,168.7z"/>
	<path class="st0" d="M149.7,181.9c7.3,0,13.2-5.9,13.2-13.2c0-7.3-5.9-13.2-13.2-13.2c-7.3,0-13.2,5.9-13.2,13.2
		C136.5,176,142.4,181.9,149.7,181.9z M139.4,168.7c0-5.7,4.6-10.3,10.3-10.3S160,163,160,168.7c0,5.7-4.6,10.3-10.3,10.3
		S139.4,174.4,139.4,168.7z"/>
	<path class="st0" d="M149.9,196.4c15,0,27.3-12.2,27.3-27.2c0-15-12.2-27.3-27.3-27.3c-15,0-27.2,12.2-27.2,27.3
		C122.7,184.2,134.9,196.4,149.9,196.4z M149.9,144.8c13.4,0,24.3,10.9,24.3,24.3c0,13.4-10.9,24.3-24.3,24.3
		c-13.4,0-24.3-10.9-24.3-24.3C125.6,155.7,136.5,144.8,149.9,144.8z"/>
	<path class="st0" d="M279.1,144.3c-13.7,0-24.9,11.2-24.9,24.9c0,13.7,11.2,24.9,24.9,24.9c13.7,0,24.9-11.2,24.9-24.9
		C304,155.5,292.8,144.3,279.1,144.3z M301,169.2c0,12.1-9.8,22-21.9,22c-12.1,0-21.9-9.9-21.9-22c0-12.1,9.8-21.9,21.9-21.9
		C291.2,147.3,301,157.1,301,169.2z"/>
	<path class="st0" d="M354.2,144.3c-13.7,0-24.9,11.2-24.9,24.9c0,13.7,11.2,24.9,24.9,24.9c13.7,0,24.9-11.2,24.9-24.9
		C379.1,155.5,367.9,144.3,354.2,144.3z M376.2,169.2c0,12.1-9.8,22-21.9,22c-12.1,0-21.9-9.9-21.9-22c0-12.1,9.8-21.9,21.9-21.9
		C366.3,147.3,376.2,157.1,376.2,169.2z"/>
	<path class="st0" d="M429.4,144.3c-13.7,0-24.9,11.2-24.9,24.9c0,13.7,11.2,24.9,24.9,24.9c13.7,0,24.9-11.2,24.9-24.9
		C454.2,155.5,443.1,144.3,429.4,144.3z M451.3,169.2c0,12.1-9.8,22-21.9,22c-12.1,0-21.9-9.9-21.9-22c0-12.1,9.8-21.9,21.9-21.9
		C441.5,147.3,451.3,157.1,451.3,169.2z"/>
	<path class="st0" d="M504.5,194.1c13.7,0,24.9-11.2,24.9-24.9c0-13.5-10.8-24.5-24.1-24.9l0,0h-0.7c-13.7,0-24.9,11.2-24.9,24.9
		C479.6,182.9,490.8,194.1,504.5,194.1z M504.5,147.3c12.1,0,21.9,9.8,21.9,21.9c0,12.1-9.8,22-21.9,22c-12.1,0-21.9-9.9-21.9-22
		C482.5,157.1,492.4,147.3,504.5,147.3z"/>
	<path class="st0" d="M149.6,115.7c-14.1,0-27.3,5.5-37.3,15.4c-9.9,10-15.4,23.2-15.4,37.3c0,14.1,5.5,27.3,15.4,37.3
		c10,9.9,23.2,15.4,37.3,15.4c14.1,0,27.3-5.5,37.3-15.4c10-10,15.4-23.2,15.4-37.3c0-14.1-5.5-27.3-15.4-37.3
		C176.9,121.1,163.7,115.7,149.6,115.7z M149.6,118.6c13.3,0,25.8,5.2,35.2,14.6c9.4,9.4,14.6,21.9,14.6,35.2
		c0,13.3-5.2,25.8-14.6,35.2c-9.4,9.4-21.9,14.6-35.2,14.6c-13.3,0-25.8-5.2-35.2-14.6c-9.4-9.4-14.6-21.9-14.6-35.2
		c0-13.3,5.2-25.8,14.6-35.2C123.8,123.8,136.3,118.6,149.6,118.6z"/>
	<path class="st0" d="M279.1,140c-7.8,0-15.1,3-20.7,8.5c-5.5,5.5-8.6,12.9-8.6,20.7c0,7.8,3,15.2,8.6,20.7
		c5.5,5.5,12.8,8.5,20.7,8.5c7.8,0,15.1-3,20.7-8.5c5.5-5.5,8.6-12.9,8.6-20.7c0-7.8-3-15.1-8.6-20.7C294.2,143,286.9,140,279.1,140
		z M305.4,169.2c0,7-2.7,13.6-7.7,18.6c-5,5-11.6,7.7-18.6,7.7c-7,0-13.6-2.7-18.6-7.7c-5-5-7.7-11.6-7.7-18.6
		c0-7,2.7-13.6,7.7-18.6c5-5,11.6-7.7,18.6-7.7c7,0,13.6,2.7,18.6,7.7C302.7,155.6,305.4,162.2,305.4,169.2z"/>
	<path class="st0" d="M354.2,140c-7.8,0-15.1,3-20.7,8.5c-5.5,5.5-8.6,12.9-8.6,20.7c0,7.8,3,15.2,8.6,20.7
		c5.5,5.5,12.8,8.5,20.7,8.5c7.8,0,15.1-3,20.7-8.5c5.5-5.5,8.6-12.9,8.6-20.7c0-7.8-3-15.1-8.6-20.7C369.4,143,362,140,354.2,140z
		 M380.5,169.2c0,7-2.7,13.6-7.7,18.6c-5,5-11.6,7.7-18.6,7.7c-7,0-13.6-2.7-18.6-7.7c-5-5-7.7-11.6-7.7-18.6c0-7,2.7-13.6,7.7-18.6
		c5-5,11.6-7.7,18.6-7.7c7,0,13.6,2.7,18.6,7.7C377.8,155.6,380.5,162.2,380.5,169.2z"/>
	<path class="st0" d="M429.4,140c-7.8,0-15.1,3-20.7,8.5c-5.5,5.5-8.6,12.9-8.6,20.7c0,7.8,3,15.1,8.6,20.7
		c5.5,5.5,12.9,8.5,20.7,8.5c7.8,0,15.1-3,20.7-8.5c5.5-5.5,8.6-12.9,8.6-20.7c0-7.8-3-15.1-8.6-20.7C444.5,143,437.2,140,429.4,140
		z M455.7,169.2c0,7-2.7,13.6-7.7,18.6c-5,5-11.6,7.7-18.6,7.7c-7,0-13.6-2.7-18.6-7.7c-5-5-7.7-11.6-7.7-18.6
		c0-7,2.7-13.6,7.7-18.6c4.9-4.9,11.4-7.6,18.4-7.7l0.2,0c7,0,13.6,2.7,18.6,7.7C452.9,155.6,455.7,162.2,455.7,169.2z"/>
	<path class="st0" d="M504.5,198.4c7.8,0,15.1-3,20.7-8.5c5.5-5.5,8.6-12.9,8.6-20.7c0-7.8-3-15.1-8.6-20.7
		c-5.5-5.5-12.8-8.5-20.7-8.5c-7.8,0-15.1,3-20.7,8.5c-5.5,5.5-8.6,12.9-8.6,20.7c0,7.8,3,15.2,8.6,20.7
		C489.3,195.4,496.7,198.4,504.5,198.4z M478.2,169.2c0-7,2.7-13.6,7.7-18.6c5-5,11.6-7.7,18.6-7.7c7,0,13.6,2.7,18.6,7.7
		c5,5,7.7,11.6,7.7,18.6c0,7-2.7,13.6-7.7,18.6c-5,5-11.6,7.7-18.6,7.7c-7,0-13.6-2.7-18.6-7.7C480.9,182.8,478.2,176.2,478.2,169.2
		z"/>
	<path class="st0" d="M243.7,163.5h-35c-2.5-30.6-28.3-54.6-59.1-54.6h-0.5v0c-32.5,0.3-58.9,26.8-58.9,59.4
		c0,32.7,26.6,59.4,59.4,59.4c30.8,0,56.7-23.9,59.1-54.6h34.8c2,18.3,17.2,32,35.6,32c18.4,0,33.6-13.7,35.6-32h3.9
		c2,18.2,17.2,32,35.6,32c18.4,0,33.6-13.7,35.6-32h3.9c2,18.3,17.2,32,35.6,32c18.4,0,33.6-13.7,35.6-32h3.9
		c2,18.3,17.2,32,35.6,32c19.8,0,35.9-16.1,35.9-35.9c0-19.8-16.1-35.9-35.9-35.9c-17.5,0-32.7,13-35.4,30.2h-4.3
		c-2.8-17.3-17.9-30.2-35.4-30.2c-17.5,0-32.6,13-35.4,30.2h-4.4c-2.8-17.3-17.9-30.2-35.4-30.2c-17.5,0-32.6,13-35.4,30.2h-4.4
		c-2.8-17.2-17.9-30.2-35.4-30.2C261.6,133.3,246.5,146.3,243.7,163.5z M471,170.2h-8.5l-0.2,1.2l0,0.2
		c-1.3,17.1-15.7,30.5-32.9,30.5c-17.2,0-31.6-13.4-32.9-30.5v-0.5l-0.8-0.9H388l-0.9,0.9l0,0.5c-1.3,17.1-15.7,30.5-32.9,30.5
		c-17.2,0-31.6-13.4-32.9-30.5l-0.5,0l0.5-0.2l-0.3-1.4h-8.4l-0.7,1.1l0,0.4c-1.3,17.1-15.7,30.4-32.8,30.4
		c-17.1,0-31.5-13.3-32.9-30.3l0-0.1c0-0.1,0-0.3-0.1-0.5c-0.1-0.3-0.3-0.6-0.7-0.8l-0.3-0.2H206l0,1.5
		c-1.7,29.8-26.5,53.1-56.4,53.1c-31.1,0-56.5-25.4-56.5-56.5c0-31,25.1-56.3,56.1-56.4l0.4,0c29.8,0,54.6,23.3,56.3,53.1l0,1.5
		h39.4l0.9-0.8l0.1-0.6c2-16.5,16.1-28.9,32.7-28.9c16.6,0,30.6,12.4,32.7,28.8l0,0.2l0.7,1.2h8.8l0.2-1.5
		c2.1-16.4,16.2-28.7,32.7-28.7c16.6,0,30.6,12.4,32.7,28.8l0,0.4l0.8,1h8.4l0.3-1l0.1-0.2l0.1-0.3c2.1-16.4,16.2-28.8,32.7-28.8
		c16.6,0,30.6,12.4,32.7,28.7l0.2,1.5h9l0.4-0.9l0.1-0.4c2-16.4,16.1-28.8,32.7-28.8c18.2,0,32.9,14.8,32.9,32.9
		c0,18.2-14.8,33-32.9,33c-17.2,0-31.6-13.4-32.9-30.5v-0.4L471,170.2z"/>
</g>
</svg>
