<?xml version="1.0" encoding="utf-8"?>
<!-- Generator: Adobe Illustrator 24.0.1, SVG Export Plug-In . SVG Version: 6.00 Build 0)  -->
<svg version="1.1"
	 id="svg2" sodipodi:docname="videopac.svg" xmlns:cc="http://creativecommons.org/ns#" xmlns:dc="http://purl.org/dc/elements/1.1/" xmlns:inkscape="http://www.inkscape.org/namespaces/inkscape" xmlns:rdf="http://www.w3.org/1999/02/22-rdf-syntax-ns#" xmlns:sodipodi="http://sodipodi.sourceforge.net/DTD/sodipodi-0.dtd" xmlns:svg="http://www.w3.org/2000/svg"
	 xmlns="http://www.w3.org/2000/svg" xmlns:xlink="http://www.w3.org/1999/xlink" x="0px" y="0px" viewBox="0 0 576.4 120"
	 style="enable-background:new 0 0 576.4 120;" xml:space="preserve">
<style type="text/css">
	.st0{fill:#FFFFFF;}
</style>
<sodipodi:namedview  bordercolor="#666666" borderopacity="1.0" fit-margin-bottom="0" fit-margin-left="0" fit-margin-right="0" fit-margin-top="0" id="base" inkscape:current-layer="layer1" inkscape:cx="284.52909" inkscape:cy="4.2432137" inkscape:document-units="px" inkscape:pageopacity="0.0" inkscape:pageshadow="2" inkscape:window-height="706" inkscape:window-maximized="1" inkscape:window-width="1366" inkscape:window-x="-8" inkscape:window-y="-8" inkscape:zoom="1.4" pagecolor="#ffffff" showgrid="false">
	</sodipodi:namedview>
<g id="layer1" transform="translate(-75.679683,-200.09862)" inkscape:groupmode="layer" inkscape:label="Layer 1">
	<g id="g3936">
		<path id="path3904" class="st0" d="M129.3,278.4l-11.2,20.9L76.2,221h22.4L129.3,278.4z"/>
		<path id="path2987" class="st0" d="M120.9,252.3l16.8-31.3H160l-27.9,52.2L120.9,252.3z"/>
		<path id="path2989" inkscape:connector-curvature="0" class="st0" d="M165.7,221h19.6l-0.1,78.3h-19.6V221z"/>
		<path id="path3908" class="st0" d="M193.7,221h19.6l-0.1,78.3h-19.6V221z"/>
		<path id="path2991" class="st0" d="M218.8,240.5V221h8.4c10.8,0,20,3.8,27.7,11.5s11.5,16.9,11.5,27.7c0,10.8-3.8,20-11.5,27.7
			c-7.6,7.6-16.9,11.5-27.7,11.5h-8.4v-19.6h8.4c5.4,0,10-1.9,13.8-5.7c3.8-3.8,5.7-8.4,5.7-13.8c0-5.4-1.9-10-5.7-13.8
			c-3.8-3.8-8.4-5.7-13.8-5.7L218.8,240.5L218.8,240.5z"/>
		<path id="path3916" class="st0" d="M274.9,221h19.6l-0.1,78.3h-19.6V221z"/>
		<path id="path3914" class="st0" d="M300,221h30.7v19.6H300V221z"/>
		<path id="path3912" class="st0" d="M300,279.7h30.7v19.6H300V279.7z"/>
		<path id="path2993" class="st0" d="M300,250.3h30.7v19.6H300V250.3z"/>
		<path id="path3920" class="st0" d="M397.8,262.9h19.7c-0.6,9.6-4.4,17.9-11.4,24.9c-7.6,7.6-16.9,11.5-27.7,11.5
			c-10.8,0-20-3.8-27.7-11.5c-7-7-10.8-15.3-11.3-24.9H359c0.6,4.2,2.4,7.9,5.5,11c3.8,3.8,8.4,5.8,13.8,5.8s10-1.9,13.9-5.8
			C395.4,270.8,397.2,267.1,397.8,262.9z"/>
		<path id="path2995" class="st0" d="M359,257.3h-19.7c0.6-9.6,4.4-17.9,11.3-24.9c7.6-7.6,16.9-11.5,27.7-11.5s20,3.8,27.7,11.5
			c7,7,10.8,15.3,11.4,24.9h-19.7c-0.6-4.2-2.4-7.9-5.5-11.1c-3.8-3.8-8.5-5.7-13.9-5.7s-10,1.9-13.8,5.7
			C361.4,249.4,359.6,253.1,359,257.3z"/>
		<path id="path3924" class="st0" d="M426,221h19.6v78.3H426V221z"/>
		<path id="path2997" class="st0" d="M451.2,240.5V221h10.5c6.7,0,12.5,2.4,17.3,7.2c4.8,4.8,7.2,10.5,7.2,17.3
			c0,6.8-2.4,12.6-7.2,17.3c-4.8,4.8-10.5,7.2-17.3,7.2h-10.5v-19.6h10.5c1.3,0,2.5-0.5,3.4-1.4c1-0.9,1.4-2.1,1.4-3.5
			c0-1.3-0.5-2.5-1.4-3.4c-1-0.9-2.1-1.4-3.4-1.4L451.2,240.5L451.2,240.5z"/>
		<path id="path3928" class="st0" d="M529.4,267.9l-16.8,31.3h-22.4l28-52.2L529.4,267.9z"/>
		<path id="path2999" class="st0" d="M537.6,272.7L521,241.8l11.2-20.9l41.9,78.3h-22.4l-3.7-7h-26l10.5-19.6L537.6,272.7
			L537.6,272.7z"/>
		<path id="path3934" class="st0" d="M616.2,279.5v19.6c-9.6-0.6-17.9-4.4-24.9-11.3c-7.6-7.6-11.5-16.9-11.5-27.7
			c0-10.8,3.8-20,11.5-27.7c7-7,15.3-10.8,24.9-11.3v19.6c-4.2,0.6-7.9,2.4-11,5.5c-3.8,3.8-5.8,8.5-5.8,13.9c0,5.4,1.9,10,5.8,13.8
			C608.3,277.1,612,278.9,616.2,279.5z"/>
		<path id="path3932" class="st0" d="M635.3,249.2c-0.7-1-1.5-2-2.5-3c-3.2-3.1-6.9-5-11.1-5.5v-19.6c9.6,0.6,17.9,4.4,24.9,11.3
			c1.9,1.9,3.5,3.8,4.9,5.9L635.3,249.2z"/>
		<path id="path3001" class="st0" d="M651.6,281.8c-1.4,2.1-3.1,4.1-4.9,5.9c-7,7-15.3,10.8-24.9,11.3v-19.6
			c4.2-0.6,7.9-2.4,11.1-5.6c0.9-0.9,1.8-1.9,2.5-2.9L651.6,281.8z"/>
	</g>
</g>
</svg>
