<?xml version="1.0" encoding="utf-8"?>
<!-- Generator: Adobe Illustrator 24.0.1, SVG Export Plug-In . SVG Version: 6.00 Build 0)  -->
<svg version="1.1"
	 id="Layer_3" xmlns:cc="http://creativecommons.org/ns#" xmlns:dc="http://purl.org/dc/elements/1.1/" xmlns:rdf="http://www.w3.org/1999/02/22-rdf-syntax-ns#"
	 xmlns="http://www.w3.org/2000/svg" xmlns:xlink="http://www.w3.org/1999/xlink" x="0px" y="0px" viewBox="0 0 500 350.3"
	 style="enable-background:new 0 0 500 350.3;" xml:space="preserve">
<g>
	<path style="fill:#FFFFFF;" d="M369.4,6.9H130.9c-5.5,0-10,4.5-10,10V332c0,5.5,4.5,10,10,10h238.5c5.5,0,10-4.5,10-10V16.9
		C379.4,11.4,374.9,6.9,369.4,6.9z M375.8,16.9V332c0,3.5-2.9,6.4-6.4,6.4H130.9l0,0c-1.7,0-3.3-0.7-4.5-1.9
		c-1.2-1.2-1.9-2.8-1.9-4.5V16.9c0-3.5,2.9-6.4,6.4-6.4h238.5C372.9,10.5,375.8,13.4,375.8,16.9z"/>
	<path style="fill:#FFFFFF;" d="M334.1,32.3h-112l-0.2,0.1v-0.1h-56c-8.8,0-16,7.2-16,16v53.9h0.2v196.6c0,8.8,7.2,16,16,16H334
		c8.8,0,16-7.2,16-16V48.3C350.1,39.5,342.9,32.3,334.1,32.3z M166,35.9h52.4V39H168c-5.7,0-10.4,4.7-10.4,10.4v49.3h-3.9V48.3
		C153.6,41.5,159.2,35.9,166,35.9z M161.1,49.4c0-3.8,3.1-6.8,6.8-6.8h50.4v56.1H161L161.1,49.4L161.1,49.4z M170.3,112.2H330
		c2.1,0,3.8,1.7,3.8,3.8v117.7c0,2.1-1.7,3.8-3.8,3.8H170.3c-2.1,0-3.8-1.7-3.8-3.8V116C166.5,113.8,168.2,112.2,170.3,112.2z
		 M161.1,239.4c1.9,3.1,5.3,5.1,9.2,5.1H330c3.9,0,7.3-2,9.2-5.1v58.4c0,3.8-3.1,6.8-6.8,6.8H167.9c-3.8,0-6.8-3.1-6.8-6.8
		L161.1,239.4L161.1,239.4z M225,105V42.6h107.4c3.8,0,6.8,3.1,6.8,6.8v60.8c-1.9-3.1-5.3-5.1-9.2-5.1H170.3c-3.9,0-7.3,2-9.2,5.1
		V105H225z M153.8,105h3.7v192.8c0,5.7,4.7,10.4,10.4,10.4h164.4c5.7,0,10.4-4.7,10.4-10.4V49.4c0-5.7-4.7-10.4-10.4-10.4H225v-3.1
		h109.1c6.8,0,12.4,5.6,12.4,12.4v250.5c0,6.8-5.6,12.4-12.4,12.4H166.2c-6.8,0-12.4-5.6-12.4-12.4V105z"/>
	<path style="fill:#FFFFFF;" d="M210,183.7l0.3,0.3l0.1,0.1l0.2,0.1l0,0c1.3,1.2,1.9,2,2.3,3.1c0.5,1.3,0.7,3.2,0.7,6.4v4.5
		c0,5.7,4.7,10.4,10.4,10.4h5.6c4.8,0,6.3,1,8.9,3.4l4.3,4.3c2,2,4.7,3,7.3,3c2.7,0,5.3-1,7.3-3l4.1-4.1c1.5-1.6,2.6-2.5,3.6-3
		s2.5-0.7,5.1-0.7h6c5.7,0,10.4-4.7,10.4-10.4v-5.5c0-2.8,0.3-4.7,1.1-6.1c0.7-1.4,1.9-2.5,3.6-4l3.2-3.2c2-2,3-4.6,3-7.4
		c0-2.8-1.1-5.4-3-7.4l-3.4-3.4L291,161c-1.6-1.4-2.6-2.3-3.3-3.7c-0.7-1.4-1-3.3-1-6.2v-5.4c0-5.7-4.7-10.4-10.4-10.4h-6
		c-2.4,0-4-0.3-5.2-0.9c-1.2-0.6-2.2-1.6-3.8-3.1l-3.8-3.7c-2-2-4.6-3.1-7.3-3.1h-0.4l0,0c-2.6,0.1-5,1.2-6.9,3l-4.3,4.3
		c-2.7,2.8-3.9,3.5-8.6,3.5h-6c-5.7,0-10.4,4.7-10.4,10.4v5.6c0,2.5-0.1,3.8-0.5,4.9c-0.4,1.1-1.1,2.1-2.6,3.6l-4.7,4.7
		c-2,2-3,4.6-3,7.4c0,2.8,1.1,5.4,3,7.4L210,183.7z M250.1,128.3c1.8,0,3.5,0.7,4.8,2l2.9,2.9l-0.4-0.1l-0.9-0.9l0,0
		c-1.7-1.6-4-2.5-6.4-2.5c-2.5,0-4.9,1-6.7,2.8l-3.8,3.8c-2.3,2.4-3.4,3-7.5,3h-5.2c-5.2,0-9.5,4.2-9.5,9.5v5c0,2.2-0.1,3.4-0.4,4.3
		c-0.3,0.9-0.9,1.8-2.3,3.2l-4.2,4.2c-1.8,1.8-2.8,4.2-2.8,6.7s1,4.9,2.8,6.7l3.7,3.7v0.3c-0.4-0.5-0.9-0.9-1.5-1.4l-4.5-4.5
		c-1.3-1.3-2-3-2-4.8s0.7-3.5,2-4.8l4.8-4.7c1.6-1.7,2.7-3.1,3.4-4.9c0.6-1.7,0.7-3.4,0.7-6.1v-5.6c0-3.8,3.1-6.8,6.8-6.8h5.9
		c5.7,0,8.3-1.5,11.1-4.5l4.3-4.3c1.2-1.2,2.7-1.9,4.4-2h0.5V128.3z M284.5,159.1c1,2,2.4,3.3,4.1,4.8l3.4,3.4c1.3,1.3,2,3,2,4.8
		s-0.7,3.5-2,4.8l-3.1,3.1c-1.8,1.6-3.3,3-4.3,5s-1.5,4.4-1.5,7.7v5.5c0,3.8-3.1,6.8-6.8,6.8h-6c-2.7,0-4.7,0.2-6.6,1
		c-1.7,0.8-3,2.1-4.7,3.8l-4.1,4c-1.3,1.3-3,2-4.8,2s-3.5-0.7-4.8-2l-4.1-4.1l-0.3-0.3c-3-2.9-5.7-4.5-11.4-4.5H224
		c-3.8,0-6.8-3.1-6.8-6.8v-4.5c0-3.6-0.3-5.8-0.9-7.6c-0.4-1.1-0.9-2-1.7-3h0.4c1.1,1,1.6,1.7,1.9,2.6c0.4,1.2,0.6,2.9,0.6,5.6v4
		c0,5.2,4.2,9.5,9.5,9.5h5c4.4,0,5.7,1,7.8,3l3.9,3.9c1.8,1.8,4.2,2.8,6.7,2.8s4.9-1,6.7-2.8l3.6-3.6c1.5-1.5,2.3-2.2,3.2-2.7
		c0.9-0.4,2.1-0.6,4.4-0.6h5.4c5.2,0,9.4-4.2,9.4-9.5v-4.9c0-2.5,0.3-4.1,0.9-5.3c0.6-1.1,1.5-2,3.2-3.6l2.8-2.8
		c3.7-3.7,3.7-9.7,0-13.4l-3.1-3.1l-0.1-0.1c-1.6-1.4-2.3-2.1-2.9-3.2c-0.6-1.2-0.9-2.9-0.9-5.5v-4.8c0-5.2-4.2-9.5-9.4-9.5h-5.4
		c-2.1,0-3.5-0.2-4.6-0.8c-1-0.5-1.9-1.3-3.3-2.7l-2.5-2.5h0.3l0.4,0.4l0.3,0.3c1.6,1.5,2.9,2.8,4.7,3.7c1.8,0.9,3.9,1.3,6.9,1.3h6
		c3.8,0,6.8,3.1,6.8,6.8v5.4C283.1,154.8,283.5,157.2,284.5,159.1z M280.5,160.6c0.9,1.7,2.1,2.9,3.7,4.3l3,3c2.3,2.3,2.3,6,0,8.3
		l-2.8,2.7c-1.7,1.5-3,2.8-3.9,4.5c-0.9,1.8-1.3,3.9-1.3,7v4.9c0,3.2-2.6,5.9-5.8,5.9H268c-2.4,0-4.3,0.2-5.9,0.9s-2.7,1.9-4.2,3.4
		l-3.6,3.6c-1.1,1.1-2.6,1.7-4.1,1.7l0,0c-1.6,0-3-0.6-4.1-1.7l-3.9-3.9l-0.3-0.3l0,0c-2.6-2.4-5-3.8-10-3.8h-5
		c-3.2,0-5.9-2.6-5.9-5.9v-4c0-3.2-0.2-5.2-0.8-6.8c-0.7-1.9-1.9-3.2-3.1-4.3l-4-4c-2.3-2.3-2.3-6,0-8.3l4.2-4.2l0.3-0.3l0,0
		c1.3-1.4,2.2-2.6,2.8-4.1c0.5-1.5,0.7-3.2,0.7-5.5v-5c0-3.2,2.6-5.9,5.9-5.9h5.2c4.9,0,7.3-1.3,9.8-3.8l4.1-4.1
		c1.1-1.1,2.6-1.7,4.1-1.7l0,0h0.1c1.5,0,2.9,0.6,4,1.7l3.3,3.4l0.3,0.3l0,0c1.3,1.3,2.4,2.3,3.9,3.1c1.6,0.8,3.5,1.2,6.2,1.2l0,0
		h5.4c3.2,0,5.8,2.6,5.8,5.9v4.8C279.3,156.8,279.6,158.9,280.5,160.6z"/>
	<path style="fill:#FFFFFF;" d="M250.1,148c-13.3,0-24,10.8-24,24.1s10.8,24,24,24c13.3,0,24-10.8,24-24
		C274.2,158.8,263.4,148,250.1,148z M250.1,192.5c-11.3,0-20.4-9.2-20.4-20.4c0-11.3,9.2-20.5,20.4-20.5c11.3,0,20.4,9.2,20.4,20.5
		C270.6,183.3,261.4,192.5,250.1,192.5z"/>
	<path style="fill:#FFFFFF;" d="M250.1,155.8c-9,0-16.3,7.3-16.3,16.3s7.3,16.3,16.3,16.3s16.3-7.3,16.3-16.3
		S259.1,155.8,250.1,155.8z M250.1,184.8c-7,0-12.7-5.7-12.7-12.7s5.7-12.7,12.7-12.7s12.7,5.7,12.7,12.7
		C262.9,179.1,257.2,184.8,250.1,184.8z"/>
</g>
</svg>
