<?xml version="1.0" encoding="utf-8"?>
<!-- Generator: Adobe Illustrator 24.0.1, SVG Export Plug-In . SVG Version: 6.00 Build 0)  -->
<svg version="1.1"
	 id="Layer_3" xmlns:cc="http://creativecommons.org/ns#" xmlns:dc="http://purl.org/dc/elements/1.1/" xmlns:rdf="http://www.w3.org/1999/02/22-rdf-syntax-ns#"
	 xmlns="http://www.w3.org/2000/svg" xmlns:xlink="http://www.w3.org/1999/xlink" x="0px" y="0px" viewBox="0 0 550 350.3"
	 style="enable-background:new 0 0 550 350.3;" xml:space="preserve">
<g>
	<path style="fill:#FFFFFF;" d="M225.7,113.2L225.7,113.2c7.3,0,13.3-5.9,13.3-13.3c0-7.3-5.9-13.3-13.3-13.3s-13.3,5.9-13.3,13.3
		c0,3.5,1.4,6.9,3.9,9.4S222.2,113.2,225.7,113.2z M225.7,90.7c5.1,0,9.3,4.2,9.3,9.3c0,5.1-4.2,9.3-9.3,9.3s-9.3-4.2-9.3-9.3
		C216.5,94.8,220.6,90.7,225.7,90.7z"/>
	<path style="fill:#FFFFFF;" d="M196.4,101.2c7.3,0,13.3-6,13.3-13.3s-5.9-13.3-13.3-13.3c-7.3,0-13.3,6-13.3,13.3
		C183.2,95.2,189.1,101.2,196.4,101.2z M196.4,78.7c5.1,0,9.3,4.2,9.3,9.3c0,5.1-4.2,9.3-9.3,9.3s-9.3-4.2-9.3-9.3
		C187.2,82.8,191.3,78.7,196.4,78.7z"/>
	<path style="fill:#FFFFFF;" d="M124.5,78.1h4.9c1.7,3,4.2,5.5,7.2,7.2v4.9c0,2.1,1.7,3.9,3.9,3.9H153c2.1,0,3.9-1.7,3.9-3.9v-4.9
		c3-1.7,5.5-4.3,7.2-7.2h4.9c2.1,0,3.9-1.7,3.9-3.9V61.7c0-2.1-1.7-3.9-3.9-3.9h-4.9c-1.7-3-4.3-5.5-7.2-7.2v-4.9
		c0-2.1-1.7-3.9-3.9-3.9h-12.5c-2.1,0-3.9,1.7-3.9,3.9v4.9c-3,1.7-5.5,4.3-7.2,7.2h-4.9c-2.1,0-3.9,1.7-3.9,3.9v12.5
		C120.6,76.4,122.3,78.1,124.5,78.1z M134.4,61.9h2.6l0,0c1.1,0,2-0.3,2.7-1c0.6-0.7,1-1.6,1-2.7v-8.6c4-1.3,8.3-1.3,12.3,0v8.6
		c0,1.2,0.3,2.1,1.1,2.8c0.9,0.8,1.9,0.9,2.6,0.9h8.5c0.7,2,1,4,1,6.1c0,2.1-0.4,4.2-1,6.1h-8.6c-1.2,0-2.1,0.3-2.7,1
		c-0.6,0.7-1,1.6-1,2.7v8.5c-4,1.3-8.3,1.3-12.3,0v-8.5c0-0.8-0.1-1.8-0.9-2.6c-0.7-0.7-1.6-1.1-2.8-1.1h-8.6c-0.7-2-1-4-1-6.1
		s0.4-4.2,1-6.1h3.9l4.3,2.2L134.4,61.9z M136.6,78.1v2.4c-0.9-0.7-1.7-1.5-2.4-2.4H136.6z M156.9,78.2h0.1v-0.1h2.3
		c-0.7,0.9-1.5,1.7-2.4,2.4L156.9,78.2L156.9,78.2z M156.9,57.9v-2.4c0.9,0.7,1.7,1.5,2.4,2.4H156.9z M136.6,55.5v2.3h-0.1v0.1h-2.3
		C134.9,57,135.7,56.2,136.6,55.5z"/>
	<path style="fill:#FFFFFF;" d="M146.7,75.1c3.9,0,7.2-3.2,7.2-7.2c0-3.9-3.2-7.2-7.2-7.2c-3.9,0-7.2,3.2-7.2,7.2l0,0
		C139.6,71.9,142.8,75.1,146.7,75.1z M143.6,68c0-1.7,1.4-3.2,3.2-3.2c1.7,0,3.2,1.4,3.2,3.2c0,1.7-1.4,3.2-3.2,3.2
		C145,71.1,143.6,69.7,143.6,68z"/>
	<path style="fill:#FFFFFF;" d="M324.3,86.7c-7.3,0-13.3,6-13.3,13.3c0,3.5,1.4,6.9,3.9,9.4s5.8,3.9,9.4,3.9l0,0
		c7.3,0,13.3-5.9,13.3-13.3C337.5,92.6,331.6,86.7,324.3,86.7z M324.3,90.7c5.1,0,9.3,4.2,9.3,9.3c0,5.1-4.2,9.2-9.3,9.3
		c-5.1,0-9.3-4.2-9.3-9.3C315,94.8,319.2,90.7,324.3,90.7z"/>
	<path style="fill:#FFFFFF;" d="M353.6,74.7c-7.3,0-13.3,6-13.3,13.3s6,13.3,13.3,13.3s13.3-5.9,13.3-13.3
		C366.8,80.6,360.9,74.7,353.6,74.7z M362.8,87.9c0,5.1-4.2,9.3-9.3,9.3c-5.1,0-9.2-4.2-9.3-9.3c0-5.1,4.2-9.3,9.3-9.3
		C358.7,78.7,362.8,82.8,362.8,87.9z"/>
	<path style="fill:#FFFFFF;" d="M425.5,57.9h-4.9c-1.7-3-4.3-5.5-7.2-7.2v-4.9c0-2.1-1.7-3.9-3.9-3.9H397c-2.1,0-3.9,1.7-3.9,3.9
		v4.9c-3,1.7-5.5,4.3-7.2,7.2H381c-2.1,0-3.9,1.7-3.9,3.9v12.5c0,2.1,1.7,3.9,3.9,3.9h4.9c1.7,3,4.3,5.5,7.2,7.2v4.9
		c0,2.1,1.7,3.9,3.9,3.9h12.5c2.1,0,3.9-1.7,3.9-3.9v-4.9c3-1.7,5.5-4.3,7.2-7.2h4.9c2.1,0,3.9-1.7,3.9-3.9V61.8
		C429.4,59.6,427.7,57.9,425.5,57.9z M413.1,74.1c-1.2,0-2.1,0.3-2.8,1.1c-0.8,1-0.8,2.1-0.8,2.6v8.5c-4,1.3-8.3,1.3-12.3,0v-8.5
		c0-1.2-0.3-2.1-1-2.8c-0.7-0.7-1.6-1-2.7-1l0,0h-8.6c-0.7-2-1-4-1-6.1s0.4-4.2,1-6.1h8.6c0.7,0,1.8-0.1,2.6-0.9
		c0.7-0.7,1.1-1.6,1-2.8v-8.6c4-1.3,8.3-1.3,12.3,0V58c0,1.1,0.3,2,1,2.7s1.6,1,2.7,1l0,0h8.6c0.7,2,1,4,1,6.1s-0.4,4.2-1,6.1h-8.6
		C413.1,74.1,413.1,74.1,413.1,74.1z M413.5,57.9L413.5,57.9l-0.1-0.1v-2.3c0.9,0.7,1.7,1.5,2.4,2.4
		C415.8,57.9,413.5,57.9,413.5,57.9z M393.1,57.9h-2.4c0.7-0.9,1.5-1.7,2.4-2.4V57.9z M393.1,78.1v2.4c-0.9-0.7-1.7-1.5-2.4-2.4
		H393.1z M413.4,78.1h2.4c-0.7,0.9-1.5,1.7-2.4,2.4V78.1z"/>
	<path style="fill:#FFFFFF;" d="M403.3,60.8c-3.9,0-7.2,3.2-7.2,7.2l0,0c0,3.9,3.2,7.2,7.2,7.2c3.9,0,7.2-3.2,7.2-7.2
		C410.4,64,407.2,60.8,403.3,60.8z M406.4,68c0,1.7-1.4,3.2-3.2,3.2c-1.7,0-3.2-1.4-3.2-3.2c0-1.7,1.4-3.2,3.2-3.2
		S406.4,66.2,406.4,68z"/>
	<path style="fill:#FFFFFF;" d="M447.2,145.5c-2.1-5-3.1-10.1-3.1-15.6c0-11.4,4.2-23.7,10.7-41.1l0.3-0.9l-0.2-0.1
		c2.4-6.2,3.8-12.9,3.8-19.9c0-29.9-24.3-54.2-54.2-54.2c-5.1,0-10.2,0.7-15.1,2.1c-0.8,0.2-2.1,0.8-4.7,2
		C373.7,23,344,38.6,323.2,50h-96.5c-8.3-4.6-17.7-9.6-26-14c-9.8-5.2-19.2-10.1-26.4-13.7c-3.8-1.9-6.9-3.4-9.1-4.5
		c-2.6-1.2-3.9-1.8-4.7-2c-4.9-1.4-9.9-2.1-15.1-2.1c-29.9,0-54.2,24.3-54.2,54.2c0,6,1,11.7,2.7,17.1l-0.4-0.4l1.6,4.3
		c6.4,17.4,10.7,29.7,10.7,41.1c0,5.5-1,10.6-3.1,15.6c-15.3,36.4-27,69.2-27,130.2c0,7.9,0.2,16.3,0.6,25c2.1,26,17.1,35.7,30.5,36
		l0,0c0.2,0,0.4,0,0.7,0c12.6,0,31.8-11.2,34.8-35.9c0.7-6.1,1.9-16,3.2-27.6c4-34.7,10.2-87.2,12.1-97.2
		c3.4-16.9,11.5-25.7,24.9-26.9c5-0.4,9.2-0.7,12.5-0.7l0,0c2.8,0,4.3,0.2,5.2,0.3V207c0,4.6,3.8,8.4,8.4,8.4h132.9
		c4.6,0,8.4-3.8,8.4-8.4v-58.4c0.8-0.1,2.3-0.3,5.1-0.3c0,0,0,0,0.1,0c3.3,0,7.5,0.2,12.6,0.7c13.4,1.2,21.5,10,24.9,26.9
		c2,10,8.1,62.4,12.1,97.1c1.4,11.7,2.5,21.6,3.3,27.8l0,0c3,24.8,22.2,35.9,34.8,35.9c0.2,0,0.4,0,0.7,0c13.4-0.4,28.4-10,30.5-36
		c0.4-8.7,0.6-17.1,0.6-25C474.2,214.6,462.5,181.9,447.2,145.5z M443.1,332.6c-0.2,0-0.3,0-0.5,0l0,0c-8.4,0-27.9-8.2-30.8-32.4
		c-0.7-6.2-1.9-16.2-3.3-28c-4-34.6-10.1-86.9-12.1-97.2c-3.5-18.4-13.3-28.8-28.4-30.1c-5.1-0.4-9.5-0.7-12.9-0.7
		c-2.4,0-4,0.1-5.2,0.3v-8.2l70.8-16.8c9.8-3.1,18.3-8.7,24.7-16c-3,9.2-5.2,18.1-5.2,26.3c0,6.1,1.1,11.7,3.4,17.2
		c15.6,37.2,26.7,68.3,26.7,128.6c0,7.8-0.2,16.1-0.6,24.7C467.2,328.5,450.2,332.3,443.1,332.6z M153.7,175.1
		c-2,10.3-8.1,62.6-12.1,97.2c-1.4,11.7-2.5,21.7-3.3,27.9c-2.9,24.2-22.4,32.4-30.8,32.4c-0.2,0-0.4,0-0.5,0
		c-7.2-0.3-24.2-4.1-26.6-32.3c-0.4-8.6-0.6-16.9-0.6-24.7c0-60.4,11.1-91.4,26.7-128.6c2.3-5.5,3.4-11.1,3.4-17.2
		c0-8.3-2.2-17.1-5.2-26.3c6.2,7.1,14.4,12.7,23.9,15.8v0.1l1.9,0.5l0,0l69.7,16.6v8.2c-1.1-0.1-2.8-0.2-5.2-0.3
		c-3.4,0-7.8,0.2-12.9,0.7C167,146.3,157.2,156.7,153.7,175.1z M145.5,17.6c4.8,0,9.5,0.7,14.1,2c0.2,0.1,1.5,0.6,4,1.8
		c11,5.2,40.9,20.9,61.5,32.3V54h0.7c4.2,2.3,8.1,4.5,11.2,6.3v0.5h0.8c2.8,1.6,5,3,6.5,3.9c10.8,7.3,17.3,19.5,17.3,32.6
		c0,10.5-4.1,20.4-11.5,27.8s-17.3,11.5-27.8,11.5c-2,0-4.1-0.2-6-0.4l-85.7-20.4c-21.1-6.6-35.2-25.8-35.2-47.9
		c0-13.4,5.2-26,14.7-35.5C119.5,22.8,132.1,17.6,145.5,17.6z M419.5,115.7l-85.8,20.4c-2,0.3-4,0.5-6,0.5
		c-10.5,0-20.4-4.1-27.8-11.5c-7.4-7.4-11.5-17.3-11.5-27.8c0-13.1,6.5-25.2,17.3-32.6c1.4-0.9,3.6-2.3,6.5-3.9h0.3v-0.2
		c3.3-1.9,7.3-4.1,11.7-6.6h0.8v-0.4c8-4.4,17.3-9.4,26-14c9.9-5.3,19.2-10.1,26.3-13.7c3.7-1.9,6.7-3.4,9-4.5
		c2.2-1.1,3.6-1.7,3.9-1.7h0.1c4.6-1.3,9.3-2,14.1-2l0,0c13.4,0,26,5.2,35.5,14.7s14.7,22.1,14.7,35.5
		C454.7,89.9,440.5,109.1,419.5,115.7z M271.7,70.3V64h1.1v6.2c0,0.2,0,0.4,0.1,0.6h-1.3C271.6,70.7,271.7,70.5,271.7,70.3z
		 M277.3,70.3V64h1.1v6.2c0,0.2,0,0.4,0.1,0.6h-1.3C277.2,70.7,277.3,70.5,277.3,70.3z M256.7,64h10.4v6.2c0,0.2,0,0.4,0.1,0.6h-0.6
		L256.7,64L256.7,64z M282.9,70.3V64h10.4v0.1l-9.8,6.7c-0.1,0-0.1,0.1-0.1,0.1h-0.6C282.8,70.7,282.9,70.5,282.9,70.3z
		 M204.2,137.3l11.3,2.7h0.1c2.2,0.3,4.4,0.5,6.7,0.5c23.9,0,43.3-19.4,43.3-43.3c0-14.4-7.1-27.8-19.1-35.9
		c-0.3-0.2-0.6-0.4-0.9-0.6h8.8c-1,0.7-1.7,1.9-1.7,3.3c0,1.1,0.5,2.2,1.3,3l10.2,7c0.7,0.5,1.6,0.8,2.5,0.8h17.8v-0.1
		c0.5-0.1,1-0.4,1.5-0.7l10-6.9l0.2-0.2c0.8-0.8,1.3-1.8,1.3-2.9c0-1.4-0.7-2.6-1.7-3.3h8.8c-0.3,0.2-0.6,0.4-0.9,0.6
		c-12,8.1-19.1,21.5-19.1,35.9c0,11.6,4.5,22.4,12.7,30.6s19,12.7,30.6,12.7c2.2,0,4.5-0.2,6.7-0.5l11.4-2.7V207
		c0,2.4-2,4.4-4.4,4.4h-133c-2.4,0-4.4-2-4.4-4.4L204.2,137.3z M311.2,56.8h-72.3c-1.5-0.9-3.1-1.8-4.9-2.8h82
		C314.3,55,312.6,55.9,311.2,56.8z"/>
	<path style="fill:#FFFFFF;" d="M216.6,183.1h115.8c6.3,0,11.4-5.1,11.4-11.4v-15h-4v15c0,4.1-3.3,7.4-7.4,7.4H216.6
		c-4.1,0-7.4-3.3-7.4-7.4v-15h-4v15C205.2,178,210.3,183.1,216.6,183.1z"/>
</g>
</svg>
