<?xml version="1.0" encoding="utf-8"?>
<!-- Generator: Adobe Illustrator 24.0.1, SVG Export Plug-In . SVG Version: 6.00 Build 0)  -->
<svg version="1.1" id="svg2" xmlns="http://www.w3.org/2000/svg" xmlns:xlink="http://www.w3.org/1999/xlink" x="0px" y="0px"
	 viewBox="0 0 566.9 160" style="enable-background:new 0 0 566.9 160;" xml:space="preserve">
<style type="text/css">
	.st0{fill:#FFFFFF;}
</style>
<title>virtualboy</title>
<g id="g4263">
	<path id="path2952" class="st0" d="M0,8.7l29.7,142.6L59.3,8.7h-16L29.7,88.8L16,8.7H0z"/>
	<path id="path3726" class="st0" d="M65.9,8.7h16v142.6h-16V8.7z"/>
	<path id="path3728" class="st0" d="M96.2,8.7v142.6h16V77.6l22.3,73.7h14.8l-17.8-67.4c9.9-5.9,12.8-13.7,12.8-13.7V24.9
		c-6.5-14.6-17.9-16.2-17.9-16.2H96.2z M112.2,23.2h16v49.5h-16L112.2,23.2z"/>
	<path id="path3733" class="st0" d="M149.2,8.7h47.9v14.5h-16v128.1h-16V23.2h-15.9V8.7z"/>
	<path id="path3735" class="st0" d="M285.7,8.7l-30.9,142.4v0.1h15.9l3.4-19.2h22.4l3.2,19.2h16L285.7,8.7z M285.7,70.2l7.3,49.1
		h-15.8L285.7,70.2z"/>
	<path id="path2882" class="st0" d="M322,8.7h16v128h23.9v14.5H322V8.7z"/>
	<path id="path3660" class="st0" d="M493.1,8.7h14.6l14.9,61.4l13.6-61.4h16.2L530,92.6v58.7h-16V92.6L493.1,8.7z"/>
	<path id="path3662" class="st0" d="M464.4,8.7c-18.2,0-24,16.1-24,16.1c0.1,0.2,0,107.2,0,110.2c2.4,17.3,24,16.2,24,16.2l0,0
		c24,0,24-16.2,24-16.2V24.9C482.2,7.9,464.4,8.7,464.4,8.7z M456.4,24.9h16v111.9h-16V24.9z"/>
	<path id="path3667" class="st0" d="M203.4,8.7h16.2v126.4h16.2V8.7h15.9v126.4c0,0-5.2,16.2-23.3,16.2s-24.9-16.2-24.9-16.2
		L203.4,8.7L203.4,8.7z"/>
	<path id="path3669" class="st0" d="M379.6,8.7v142.6h32.2c14.9-3.9,15.9-14.6,15.9-14.6s0-38.1,0-47.9c-1.1-6.2-6.2-6.4-6.2-6.4
		s0-1.7,0-3.1c5.6-0.4,6.3-6.6,6.3-6.6s0-38,0-47.9c-2.5-11.6-15.9-16.1-15.9-16.1H379.6z M395.6,25h16.1v47.7h-16.1V25z
		 M395.6,87.2h16.2v49.5h-16.2L395.6,87.2L395.6,87.2z"/>
	<path id="path3699" class="st0" d="M539.7,136.8h11.1v1.6h-4.7v12.8h-1.6v-12.8h-4.8L539.7,136.8L539.7,136.8z"/>
	<path id="path3713" class="st0" d="M552.5,151.3v-14.5h1.6l5.7,12.9l5.5-12.9h1.7v14.5h-1.7v-11.2l-4.7,11.2h-1.6l-4.9-11.2v11.2
		H552.5z"/>
</g>
</svg>
