<?xml version="1.0" encoding="utf-8"?>
<!-- Generator: Adobe Illustrator 24.0.1, SVG Export Plug-In . SVG Version: 6.00 Build 0)  -->
<svg version="1.1" id="svg1354" xmlns:svg="http://www.w3.org/2000/svg"
	 xmlns="http://www.w3.org/2000/svg" xmlns:xlink="http://www.w3.org/1999/xlink" x="0px" y="0px" viewBox="0 0 566.9 300"
	 style="enable-background:new 0 0 566.9 300;" xml:space="preserve">
<style type="text/css">
	.st0{fill:#FFFFFF;}
</style>
<g>
	<path class="st0" d="M355.8,54.8c0,15.5,13,28,29.1,28c16.7,0,29.8-12.3,29.8-28c0-15.7-13.1-28.1-29.8-28.1
		C368.8,26.7,355.8,39.3,355.8,54.8"/>
	<rect x="360.6" y="110.9" class="st0" width="49.6" height="160.6"/>
	<path class="st0" d="M456.7,54.8c0,15.5,13.1,28,29.1,28c16.7,0,29.8-12.3,29.8-28c0-15.7-13.1-28.1-29.8-28.1
		C469.7,26.7,456.7,39.3,456.7,54.8"/>
	<rect x="461.5" y="110.9" class="st0" width="49.7" height="160.6"/>
	<path class="st0" d="M281.7,40.2l-43.5,170.7c0,0-33.3-128.1-38.7-146.3c-5.4-18.2-16.6-26.2-32.4-26.2c-15.8,0-27,8-32.4,26.2
		C129.3,82.8,96,210.9,96,210.9L52.4,40.2H0c0,0,50.4,182.1,57.2,203.2c5.3,16.5,17.9,29.9,36.6,29.9c21.4,0,31.4-15.6,36-29.9
		c4.6-14.2,37.2-134.5,37.2-134.5s32.6,120.3,37.2,134.5c4.6,14.3,14.6,29.9,36,29.9c18.7,0,31.3-13.5,36.7-29.9
		c6.8-21.1,57.2-203.2,57.2-203.2S281.7,40.2,281.7,40.2z"/>
	<polygon class="st0" points="526.2,249.8 543.3,249.8 543.3,253 536.6,253 536.6,271.5 532.9,271.5 532.9,253 526.2,253 	"/>
	<polygon class="st0" points="545.9,249.8 551.1,249.8 556.3,267.2 561.7,249.8 566.9,249.8 566.9,271.5 563.5,271.5 563.5,253.6 
		558.1,271.5 554.5,271.5 549.2,253.6 549.2,271.5 545.9,271.5 	"/>
</g>
</svg>
