<?xml version="1.0" encoding="utf-8"?>
<!-- Generator: Adobe Illustrator 24.0.1, SVG Export Plug-In . SVG Version: 6.00 Build 0)  -->
<svg version="1.1"
	 id="Ebene_1" sodipodi:docname="wonderswan.svg" xmlns:cc="http://creativecommons.org/ns#" xmlns:dc="http://purl.org/dc/elements/1.1/" xmlns:inkscape="http://www.inkscape.org/namespaces/inkscape" xmlns:rdf="http://www.w3.org/1999/02/22-rdf-syntax-ns#" xmlns:sodipodi="http://sodipodi.sourceforge.net/DTD/sodipodi-0.dtd" xmlns:svg="http://www.w3.org/2000/svg"
	 xmlns="http://www.w3.org/2000/svg" xmlns:xlink="http://www.w3.org/1999/xlink" x="0px" y="0px" viewBox="0 0 566.9 120"
	 style="enable-background:new 0 0 566.9 120;" xml:space="preserve">
<style type="text/css">
	.st0{fill:#FFFFFF;}
</style>
<sodipodi:namedview  bordercolor="#666666" borderopacity="1" gridtolerance="10" guidetolerance="10" id="namedview31" inkscape:current-layer="Ebene_1" inkscape:cx="125.98577" inkscape:cy="42.558498" inkscape:pageopacity="0" inkscape:pageshadow="2" inkscape:window-height="480" inkscape:window-width="640" inkscape:zoom="0.9366137" objecttolerance="10" pagecolor="#ffffff" showgrid="false">
	</sodipodi:namedview>
<g id="g3">
	<g id="g5">
		<g id="g7">
			<polygon id="polygon9" class="st0" points="110.9,79.3 118.6,46.9 126.4,40.7 134.2,40.7 126.4,73.1 134.2,68.5 140.4,45.4 
				145,40.7 155.9,40.7 148.2,73.1 155.9,67 160.6,46.9 166.8,40.7 176.1,40.7 168.4,71.6 159.1,79.3 			"/>
			<polygon id="polygon11" class="st0" points="425.4,79.3 429.3,60.8 436.4,54 445.4,54 440.1,74.4 447.9,69.8 449.9,59.2 
				455.1,54 465.9,54 460.6,74.4 467.9,69.5 470,60.8 476.8,54 484.9,54 480.3,71.6 469.8,79.3 			"/>
			<path id="path13" class="st0" d="M364.8,79.3l7.8-7.7H406c0,0,2.9,0.8,4.5-2.8c1.5-3.4-1.4-3.4-1.4-3.4h-15.5c0,0-4.5-1-4.5-6.5
				c-0.1-13.5,11-16.9,11-16.9h32.6l-6.5,6.4h-17.1c0,0-5.4,1.6-5.6,6.1c-0.1,2.1,2.5,1.6,2.5,1.6h13.9c0,0,8.1,1.4,6.2,10
				c-2.4,11.4-10.8,13.1-10.8,13.1L364.8,79.3L364.8,79.3z"/>
			<path id="path15" class="st0" d="M338.3,79.3h13.9l4.2-16c0.5-1.9,5.4-4,4.1-3.8c-1.3,0.2,4.5-0.8,4.5-0.8s1.8,0.5,2.7,1.8
				c0.9,1.2-0.9,3-1.2,4.4c-0.3,1.4,1.6,1.6,1.6,1.6h7.8c0,0,4.2-1.6,5.3-3.1c1.1-1.6,2.5-3.2,2.5-4.6s-3.1-3.1-3.1-3.1l-3.1-1.5
				h-23.3c0,0-11.1,6.4-12.4,7.7C341.3,62.2,338.3,79.3,338.3,79.3z"/>
			<path id="path17" class="st0" d="M175.3,61.6c-1.1,1.2-4.6,12.1-3.8,13.9c0.8,1.7,5.1,3.8,5.1,3.8h22.7c0,0,10.6-6.6,11.4-7.6
				c0.8-1,3.8-11.5,3.8-12.6c0-1.1-2.5-5.1-2.5-5.1h-26.5C185.4,54,176.4,60.4,175.3,61.6z M193,59.1h7c0,0-0.8,8.4-2.5,10.8
				c-1.8,2.4-5.7,4.4-5.7,4.4s-4.4,0.5-5,0c-0.6-0.5-0.2-5.1-0.2-5.1s0.6-4.9,1.4-6.3C188.7,61.5,193,59.1,193,59.1z"/>
			<path id="path19" class="st0" d="M259.9,61.6c-1.1,1.2-4.6,12.1-3.8,13.9c0.8,1.7,5.1,3.8,5.1,3.8h31.6c0,0,1-5,2.3-10.1
				c1.2-4.8,2.7-12.1,2.7-12.6c0-1.1,7.8-11,7.8-11H292L285,54h-15C270.1,54,261.1,60.4,259.9,61.6z M277.6,59.1h6.9
				c0,0-0.8,8.4-2.5,10.8c-1.7,2.4-5.7,4.4-5.7,4.4s-4.4,0.5-5.1,0c-0.6-0.5-0.2-5.1-0.2-5.1s0.6-4.9,1.4-6.3
				C273.4,61.5,277.6,59.1,277.6,59.1z"/>
			<path id="path21" class="st0" d="M211.1,79.3l7.2-25.3h30.3c0,0,4,0.4,5.4,2.7c1.4,2.3,1,6.2,1,6.2l-4.1,16.4h-12.6
				c0,0,1.5-8,2.9-13.9c1.4-5.8-2.5-6.3-2.5-6.3h-7.6l-4.3,15.2c0,0-3.8,4.4-5.4,5.1H211.1z"/>
			<path id="path23" class="st0" d="M522.2,79.3l8-25.3h30.3c0,0,4,0.4,5.4,2.7c1.4,2.3,1,6.2,1,6.2l-4.3,16.4h-13.9
				c0,0,2.3-6.8,3.8-12.6c1.4-5.8-2.1-7.6-2.1-7.6h-7.6l-4.2,15.2c0,0-3.5,4.4-5.1,5.1L522.2,79.3L522.2,79.3z"/>
			<path id="path25" class="st0" d="M301.6,61.6c-1.1,1.2-4.5,12.1-3.8,13.9c0.8,1.7,5.1,3.8,5.1,3.8h22.7c0,0,4.5-2.8,7.9-5.1
				c0,0-19.3,0.1-20.5,0c-0.5-0.1-0.3-2.4-0.3-3.8h15.5c0,0,3-0.6,7.5-4.3c4.5-3.7,5.1-4.1,5.1-7c0-2.9-2.5-5.1-2.5-5.1h-26.5
				C311.7,54,302.7,60.4,301.6,61.6z M319.3,59.1h10.2c0,0-1.1,3.9-6.7,6.3h-8.5c-0.8-2.2,1.2-4,2.3-4.9
				C317.8,59.4,319.3,59.1,319.3,59.1z"/>
			<path id="path27" class="st0" d="M505.7,79.3c0,0,4.3-13.6,5.6-17.9c0.7-2.4-0.9-2.3-3.9-2.3s-5.2,0.6-9.3,7.6
				c-4.9,8.1,7.2,10.3,7.2,10.3l-0.8,2.4h-13.9c0,0-7.6,0.3-7.6-8.8c0-11.2,14.4-16.4,14.4-16.4h30.3l-8.1,25.3L505.7,79.3
				L505.7,79.3L505.7,79.3z"/>
		</g>
		<path id="path29" class="st0" d="M72.6,40.8c0.7,0,1.4-0.1,2.2-0.1c15.8,0,29.4,15.3,30.4,23.1c0.1,0.8,0.2,1.6,0.2,2.2
			c-0.2-21.3-33.4-48.6-60-48.6c-20.5,0-30.1,8.3-33.3,17.7c-4.7,11.8,1.5,28.6,16.1,40.6c1.6,1.2,3.1,2.4,4.7,3.5
			c-0.7,0.1-1.4,0.1-2.1,0.1c-15.8,0-29.4-15.3-30.4-23.1C0.1,55.3,0.1,54.6,0,54c0.2,21.3,33.4,48.6,60,48.6
			c20.5,0,30.1-8.3,33.3-17.7c4.7-11.8-1.5-28.6-16.1-40.6C75.7,43,74.2,41.9,72.6,40.8z M42.9,76.1c-11.7-9.6-15.6-23.8-9.1-31.8
			c6.6-8,21.6-7.1,33.6,2.3C79.4,55.9,83.9,70,77.8,78.4c2.5-5.1-0.3-12.6-6.8-17.8c-7-5.5-15.9-6.1-19.8-1.3
			c-3.9,4.8-1.6,13.2,5.3,18.9c5.3,4.4,11.8,6,16.4,4.4C65.2,86.7,52.8,84.3,42.9,76.1z"/>
	</g>
</g>
</svg>
