<?xml version="1.0" encoding="utf-8"?>
<!-- Generator: Adobe Illustrator 24.0.1, SVG Export Plug-In . SVG Version: 6.00 Build 0)  -->
<svg version="1.1"
	 id="Layer_3" xmlns:cc="http://creativecommons.org/ns#" xmlns:dc="http://purl.org/dc/elements/1.1/" xmlns:rdf="http://www.w3.org/1999/02/22-rdf-syntax-ns#"
	 xmlns="http://www.w3.org/2000/svg" xmlns:xlink="http://www.w3.org/1999/xlink" x="0px" y="0px" viewBox="0 0 598.2 350.3"
	 style="enable-background:new 0 0 598.2 350.3;" xml:space="preserve">
<g>
	<path style="fill:#FFFFFF;" d="M569.5,90.6c-1.7-19.6-3-32.3-3.7-36.8c-0.3-2.3-0.9-4.6-1.6-6.9c-5.1-15.9-18.4-27.4-34.9-30.1
		c-18.3-2.4-74.3-2.6-151.5-2.6h-113c-73.3,0-143,1.3-172.7,1.8c-5.1,0.1-9.1,0.2-11.8,0.2C62,17,45.9,29.2,40.2,46.5
		c-0.6,1.7-1.3,3.6-2,5.8c-6.8,19.1-20.8,58.8-20.8,117.6v10.3c0,51.6,9.4,85.2,14.5,103.2c0.8,2.9,1.5,5.5,2.1,7.7l0,0
		c7.8,26.3,32.5,44.6,59.9,44.6c26,0,58.8-0.9,85.4-2.3c9.1-0.5,25.5-2.3,44.5-4.4c30.3-3.4,68-7.6,88.6-7.6c0.7,0,1.3,0,2,0
		c32.6,5.2,81,6.3,115.9,6.4c65.4,0,119.3-23.8,129.2-29.7c13.4-6.8,21.7-20.4,21.7-35.5C580.9,237.4,574.3,145.4,569.5,90.6z
		 M314.5,318.6c-1.9-0.3-4-0.6-6.2-1c-23.1-3.8-61.8-10.1-87.6-10.1c-9.4,0-16.3,0.8-20.8,2.5l-0.5,0.2l1,2.8l0.5-0.2
		c4.2-1.5,10.8-2.3,19.7-2.3h0.1c21,0,50.6,4.2,77.6,8.5c-21.2,1.2-49.7,4.3-75.1,7.2c-18.9,2.1-35.2,3.9-44.2,4.4
		c-26.6,1.4-59.3,2.3-85.3,2.3c-26.1,0-49.5-17.4-57-42.4c-0.6-2.2-1.3-4.8-2.1-7.8c-5-17.8-14.4-51-14.4-102.3v-10.3
		c0-58.3,13.9-97.7,20.6-116.6c0.8-2.2,1.5-4.2,2.1-5.9C48.2,31.4,63.2,20,80.3,19.3c2.7,0,6.6-0.1,11.7-0.2
		c29.7-0.5,99.2-1.8,172.3-1.8c0.1,0,0.3,0,0.4,0h113c0.4,0,0.7,0,1.1,0c74.1,0,132.1,0.2,150,2.6c15.1,2.5,27.8,13.5,32.5,28.1
		c0.7,2.1,1.2,4.3,1.5,6.4c0.3,1.9,0.7,5.5,1.2,10.5c-2.9-7.5-10.2-12.9-18.8-12.9c-11.1,0-20.1,8.9-20.1,19.9
		c0,10.9,9,19.9,20.1,19.9c9.9,0,18.2-7.2,19.8-16.6c0.4,4.7,0.9,10,1.4,15.9c4.8,54.7,11.4,146.6,11.4,171.9
		c0,13.9-7.7,26.5-20.1,32.8c-9.7,5.8-62.8,29.3-127.6,29.3c-0.1,0-0.1,0-0.2,0c-34.3,0-82-1.1-114.4-6.2v-0.2L314.5,318.6z
		 M562.3,71.8c0,9.3-7.7,16.9-17.1,16.9s-17-7.6-17.1-16.9c0-9.3,7.7-16.9,17.1-16.9l0,0C554.7,54.9,562.3,62.5,562.3,71.8z"/>
	<path style="fill:#FFFFFF;" d="M346.5,284.6c0.1,3.1,2.6,5.5,5.7,5.5c18,0,51.1-4.3,75.6-7.9c12.2-1.8,25-3.8,36.1-5.7
		c9.7-1.7,15.7-2.8,17.1-3.2c4.1-1,7.2-4.6,8.3-9.3c0.2-0.4,0.3-0.7,0.4-1.2l0.1-0.2c2.1-10.4,6.4-71,6.4-96.8
		c0-20.8-5.6-51-10.3-72.7c-2.3-10.6-5-21.8-7.5-31.5c-2.1-8-3.7-13.5-4.3-14.9c-1.1-3.1-3.5-5.5-6.6-6.6h-0.1
		c-0.6-0.2-73-15.3-197.9-15.3c-56.6,0-83.3,0.7-90.1,1.1c-6.7,0.8-12.2,5.8-13.6,12.3c-0.2,0.7-0.6,1.8-1.1,3.3
		c-12.4,36.7-18.6,75.8-18.6,116.1c0,68.8,18.9,129,19.1,129.6l0,0c1.9,5.5,7.2,9.3,13.1,9.3H190c3.8,0,6.9-3.1,6.9-6.9V287
		c0-6.3,5.1-11.4,11.4-11.4h72.6c4,0,7.6,2,9.7,5.4l2.7,3.4l0.1,0.1c1.1,1,2.6,1.6,4.1,1.6c1.7,0,3.3-0.7,4.5-1.9l0.1-0.1
		c0.6-0.8,1-1.6,1.2-2.4c0.1-0.3,0.2-0.6,0.3-0.8c2.1-3.3,5.7-5.3,9.6-5.3h22.2l0,0c5,0,9.4,3.3,10.9,8L346.5,284.6z M486.3,263.4
		c-0.8,3.5-3.2,6.2-6,6.9h-0.1c-0.7,0.2-7.3,1.5-16.8,3.1c-29.6,5.1-86.3,13.6-111.2,13.6l0,0c-1.5,0-2.8-1.2-2.8-2.8l-0.4-1.5
		c-1.9-6.1-7.4-10.2-13.8-10.2H313c-5,0-9.5,2.5-12.2,6.8l-0.1,0.1c-0.2,0.4-0.4,0.9-0.5,1.3c-0.2,0.6-0.4,1.1-0.7,1.4
		c-1.2,1.2-3.1,1.3-4.4,0.2l-2.4-3c-2.7-4.2-7.2-6.7-12.2-6.7h-72.6c-7.9,0-14.4,6.4-14.4,14.4v2.4c0,2.1-1.7,3.9-3.9,3.9h-11.7l0,0
		c-4.6,0-8.7-2.9-10.2-7.2c-0.2-0.6-19-61.1-18.9-128.6c0-60.3,13.9-101.6,18.5-115.1c0.5-1.6,0.9-2.8,1.2-3.6
		c1.2-5.3,5.6-9.4,11-10c6.8-0.4,33.3-1.1,89.8-1.1h0.1c122,0,196.4,15,196.9,15.2c2.2,0.8,4,2.6,4.8,4.9v0.1c0.3,0.7,2,6,4.2,14.4
		c8.2,31.2,17.7,77.1,17.7,103.4c0,14.9-1.4,39.9-2.7,58.3c-0.7,10.4-1.5,19.9-2.2,26.9c-0.4,3.5-0.7,6.5-1,8.6
		c-0.1,1-0.3,1.9-0.4,2.5c-0.1,0.3-0.1,0.5-0.2,0.7l-0.2,0.6C486.3,263.3,486.3,263.3,486.3,263.4L486.3,263.4L486.3,263.4z"/>
	<path style="fill:#FFFFFF;" d="M465.9,74.1c-1-4.1-1.9-7.1-2.4-8.1l-0.1-0.1c-1.4-2.2-3.8-3.6-6.4-3.6H186.8c-2.6,0-5,1.3-6.4,3.6
		l-0.1,0.1c-0.4,0.9-1.3,4-2.4,8.1c-2.2,8.6-9.3,39.5-9.3,74.7v13c0,22.5,2.9,43.1,5.4,56.5c1.5,8.1,3,14.4,3.9,18.2
		c1.1,4.1,1.9,7.2,2.4,8.2l0.1,0.1c1.4,2.2,3.8,3.6,6.4,3.6h270.3c2.6,0,5-1.3,6.4-3.6l0.1-0.2c0.4-1,1.3-4,2.4-8.1
		c2.2-8.6,9.3-39.5,9.3-74.7v-13c0-22.5-2.9-43.1-5.4-56.5C468.4,84.2,466.9,77.9,465.9,74.1z M472.3,148.8v13
		c0,22.3-2.9,42.7-5.3,55.9c-1.5,8.1-2.9,14.3-3.9,18c-1.1,4.3-1.9,7-2.1,7.5c-0.8,1.3-2.3,2.1-3.8,2.1H186.8c-1.6,0-3-0.8-3.8-2
		c-0.2-0.5-1.1-3.3-2.2-7.5c-2.2-8.5-9.2-39.1-9.2-73.9v-13c0-22.3,2.9-42.7,5.3-55.9c1.5-8.1,2.9-14.3,3.9-18
		c1.1-4.2,1.9-7,2.1-7.5c0.8-1.3,2.3-2.1,3.8-2.1H457c1.6,0,3,0.8,3.8,2c0.2,0.5,1.1,3.2,2.2,7.5C465.2,83.4,472.3,114,472.3,148.8z
		"/>
	<path style="fill:#FFFFFF;" d="M457.1,71.6h-269c-1.4,0-2.5,1.1-2.5,2.5v162.3c0,1.4,1.1,2.5,2.5,2.5h269c1.4,0,2.5-1.1,2.5-2.5
		V74.1C459.6,72.8,458.5,71.6,457.1,71.6z M456.6,74.6V236h-268V74.6H456.6z"/>
	<path style="fill:#FFFFFF;" d="M344,300.3c0.4-0.2,0.9-0.5,1.4-0.7c2.2-1,6-2.2,15.3-3c85.1-6.9,167.3-27.5,183-32.7
		c15.8-5.5,26.4-20.4,26.4-37.1c-0.1-9.7-1.4-36.1-2.8-46.7c-1.1-8.6-4.8-16.3-10.6-22.4c-4.4-4.7-12.7-12.7-24.5-23.6
		c-4.1-3.5-7-8.3-8.1-13.6c-1.2-5.9-3-28.2-3-46.7c0-19.2-13.6-35.4-32.4-38.7l0,0l-0.5-0.1l0,0l-0.4-0.1l0,0
		c-1.1-0.2-2.4-0.3-3.9-0.6c-76-11.2-153.3-16.9-229.7-16.9c-86,0-145.7,7.2-173.6,11.4c-13.6,2-25.3,11.2-30.5,24
		C44.8,65.2,30.6,114,30.6,163.5c0,52.6,6.7,90.9,12.4,107.6c4.9,15.1,18.3,25.6,34.1,26.9l0,0c2.9,0.2,7.1,0.4,12.4,0.8
		c22.7,1.5,64.9,4.3,100.1,4.3c100.1,0,145-0.8,148.1-1C340.8,301.9,342.3,301.1,344,300.3z M315.1,278.7H333c4.9,0,8.9,4,8.9,8.9
		s-4,8.9-8.9,8.9h-17.9c-4.9,0-8.9-4-8.9-8.9S310.2,278.7,315.1,278.7z M344.7,287.6c0-6.5-5.3-11.8-11.8-11.8H315
		c-6.5,0-11.8,5.3-11.8,11.8c0,6.3,5,11.5,11.3,11.8H326c-19.3,0.3-63.5,0.7-136,0.7c-0.2,0-0.4,0-0.5,0c-35.1,0-77.2-2.8-99.9-4.3
		c-5.3-0.4-9.5-0.6-12.4-0.8c-14.6-1.2-26.9-10.9-31.5-24.9c-1.8-5.3-3.8-12.9-5.5-22.4c5.6,24,27.2,42,52.9,42
		c30,0,54.4-24.4,54.4-54.4s-24.4-54.4-54.4-54.4s-54.4,24.4-54.4,54.4c0,2.1,0.1,4.2,0.4,6.2c-3.2-19.6-5.7-46.2-5.7-78.1
		c0-30.1,5.3-59.9,10.5-81.2c-0.1,1.6-0.2,3.2-0.2,4.8c0,29,23.6,52.6,52.6,52.6S148.9,116,148.9,87s-23.6-52.6-52.6-52.6
		C75.6,34.4,57.6,46.5,49,64c1.4-4.3,2.6-7.7,3.5-9.8C57.6,42.4,68.4,33.9,80.9,32l0,0c27.9-4.3,87.4-11.4,173.2-11.4
		c76.2,0,153.3,5.7,229.2,16.8c1.8,0.3,3.2,0.5,4.4,0.6c17.6,2.9,30.4,17.9,30.4,35.8c0,19.4,1.9,41.3,3.1,47.3
		c1.2,5.9,4.4,11.3,9,15.2c11.8,10.9,20,18.8,24.3,23.4c5.4,5.6,8.8,12.8,9.8,20.7c1.4,10.4,2.6,37,2.8,46.4
		c0,15.4-9.8,29.2-24.3,34.2c-15.6,5.2-97.4,25.6-182.3,32.5c-9.8,0.8-13.9,2.2-16.3,3.3c-0.6,0.3-1.2,0.5-1.6,0.8
		c-1.5,0.8-2.5,1.3-5,1.4c-0.3,0-1.2,0.1-2.6,0.1C340.5,298.3,344.7,293.5,344.7,287.6z M41.9,235.3c0-13.7,5.3-26.6,15-36.3
		s22.6-15,36.3-15l0,0c13.7,0,26.6,5.3,36.3,15s15,22.6,15,36.3s-5.3,26.6-15,36.3s-22.6,15-36.3,15s-26.6-5.3-36.3-15
		C47.3,262,41.9,249.1,41.9,235.3z M46.9,87.1c0-13.3,5.2-25.7,14.5-35.1c9.4-9.4,21.8-14.5,35.1-14.5s25.7,5.2,35.1,14.5
		c9.4,9.4,14.5,21.8,14.5,35.1s-5.2,25.7-14.5,35.1c-9.4,9.4-21.8,14.5-35.1,14.5s-25.7-5.2-35.1-14.5
		C52.1,112.8,46.9,100.3,46.9,87.1z"/>
	<path style="fill:#FFFFFF;" d="M529.6,224.8l14,14.5l0,0c1.9,1.6,4.3,2.4,6.8,2.4l0,0c3.8,0,7.4-2.1,9.4-5.4
		c1.7-3.2,2.4-6.2,2.4-14.7c0-6.7-0.2-12-1.9-15.7c-1.7-4-5.6-6.5-9.9-6.5c-2.6,0-5.1,0.9-7,2.6l-14.2,14.6c-1,1-1.6,2.5-1.6,3.9
		C527.6,222.2,528.3,223.8,529.6,224.8z M531.5,222.6c-0.6-0.5-0.9-1.2-0.9-2c0-0.7,0.3-1.3,0.8-1.8l14-14.5c1.4-1.2,3.2-1.8,5-1.8
		l0,0c3.1,0,6,1.9,7.2,4.7c1.3,2.8,1.6,7.9,1.6,14.5c0,8.3-0.7,10.5-2.1,13.2c-1.4,2.4-4,3.8-6.7,3.8c-1.8,0-3.5-0.6-4.8-1.7
		l-13.7-14.1l0,0L531.5,222.6z"/>
	<path style="fill:#FFFFFF;" d="M89.1,223.1c0.9,0.9,2.2,1.5,3.5,1.6h0.5c1.6,0,3.2-0.7,4.2-1.9l14.6-13.8l0.1-0.1
		c1.6-1.9,2.5-4.3,2.5-6.8V202c0-3.8-2-7.3-5.3-9.3c-3.2-1.7-6.2-2.5-14.7-2.6c-0.8,0-1.6,0-2.3,0c-6,0-10.3,0.3-13.5,1.7
		c-4,1.7-6.6,5.5-6.6,9.9v0.1c0,2.5,0.9,5,2.6,7L89.1,223.1z M75.1,201.7c0-3.2,1.9-6,4.8-7.2c2.2-1,5.8-1.5,12-1.5
		c0.8,0,1.7,0,2.6,0c8.3,0.1,10.5,0.8,13.2,2.2c2.3,1.4,3.8,4,3.8,6.7v0.1c0,1.7-0.6,3.5-1.7,4.8l-14.6,13.8l-0.1,0.1
		c-0.5,0.6-1.2,0.9-2,0.9l0,0H93c-0.7,0-1.3-0.3-1.8-0.8l-14.4-14.2C75.7,205.4,75.1,203.6,75.1,201.7z"/>
	<path style="fill:#FFFFFF;" d="M97.4,247.9c-1.1-1.2-2.6-2-4.3-2H93c-1.5,0-2.8,0.6-3.9,1.7L74.6,262c-1.6,1.9-2.5,4.4-2.5,6.9v0.1
		c0,4.3,2.6,8.2,6.6,9.9c3.1,1.4,7.5,1.7,13.5,1.7h2.3c8.5-0.1,11.5-0.9,14.6-2.6c3.3-2,5.3-5.5,5.3-9.4c0-2.5-0.9-4.9-2.5-6.8
		L97.4,247.9z M109.7,263.8c1.1,1.4,1.7,3.1,1.8,4.9c0,2.8-1.4,5.3-3.8,6.7c-2.7,1.4-4.9,2.1-13.2,2.2h-2.3c-4.2,0-9.4-0.1-12.3-1.5
		c-2.9-1.2-4.8-4-4.8-7.2l-0.5-0.1h0.5c0-1.8,0.6-3.6,1.8-4.9l14.4-14.2c0.5-0.5,1.1-0.8,1.9-0.8c0.7,0,1.3,0.2,1.8,0.7l0,0
		L109.7,263.8z"/>
	<path style="fill:#FFFFFF;" d="M103.9,235.1v0.1l0,0c0,1.6,0.7,3.2,1.9,4.2l13.8,14.6l0.1,0.1c1.9,1.6,4.3,2.5,6.8,2.5h0.1l0,0
		c3.8,0,7.3-2,9.3-5.3c1.7-3.2,2.5-6.2,2.6-14.7c0-0.8,0-1.5,0-2.3c0-6-0.3-10.3-1.7-13.5c-1.7-4-5.5-6.6-9.8-6.6
		c-0.1,0-0.1,0-0.2,0c-2.5,0-5,0.9-6.9,2.5l-14.3,14.5C104.5,232.2,103.9,233.6,103.9,235.1z M107.8,237.2c-0.6-0.5-0.9-1.2-0.9-2
		c0-0.7,0.3-1.3,0.8-1.8l14.2-14.4c1.4-1.2,3.1-1.8,5-1.8h0.1c3.1,0,5.9,1.9,7.2,4.8c1,2.3,1.5,5.9,1.5,12.3c0,0.7,0,1.5,0,2.3
		c-0.1,8.3-0.8,10.5-2.2,13.2c-1.4,2.3-4,3.8-6.7,3.8l0,0h-0.1c-1.8,0-3.5-0.6-4.8-1.7l-13.5-14.3l0,0L107.8,237.2z M126.8,214.7
		L126.8,214.7L126.8,214.7L126.8,214.7z"/>
	<path style="fill:#FFFFFF;" d="M60,256.5L60,256.5c0.1,0,0.1,0,0.2,0l0,0c2.4-0.1,4.8-0.9,6.7-2.5l13.9-14.6c1.2-1.1,1.9-2.6,2-4.2
		v-0.1c0-1.5-0.6-2.9-1.7-3.9l-14.3-14.5c-1.9-1.6-4.4-2.5-6.9-2.5l0,0c0,0-0.1,0-0.2,0c-4.3,0.1-8.2,2.7-9.8,6.6
		c-1.4,3.1-1.7,7.5-1.7,13.5c0,0.7,0,1.5,0,2.3c0.1,8.5,0.9,11.5,2.6,14.6C52.6,254.5,56.1,256.5,60,256.5L60,256.5z M59.7,217.2
		c1.8,0,3.6,0.6,4.9,1.7l14.2,14.4c0.5,0.5,0.8,1.1,0.8,1.8l0,0c0,0.8-0.3,1.5-1,2l-13.8,14.6c-1.4,1.1-3.1,1.7-4.8,1.8h-0.1h-0.1
		c-2.8,0-5.3-1.4-6.7-3.8c-1.4-2.7-2.1-4.9-2.2-13.2c0-0.8,0-1.5,0-2.3c0-4.2,0.1-9.4,1.5-12.3C53.7,219.1,56.5,217.2,59.7,217.2
		L59.7,217.2v-0.5l0,0V217.2z"/>
	<path style="fill:#FFFFFF;" d="M504.6,263.1L504.6,263.1c2.6,1.2,5.1,1.9,10.3,1.9l0,0h0.1c1.3,0,2.7,0,4.3-0.1
		c6.6-0.3,12-0.7,15.7-2.5s6.1-5.6,6.1-9.7v-0.5c-0.1-2.6-1.1-5-2.9-6.9L523,231.7c-1-0.9-2.4-1.5-3.8-1.5c-0.1,0-0.2,0-0.3,0
		c-1.7,0.1-3.2,0.9-4.2,2.1L501,247l-0.1,0.1c-1.4,1.9-2.1,4.1-2.1,6.4c0,0.2,0,0.3,0,0.5C499,257.9,501.2,261.3,504.6,263.1z
		 M515.1,262c-4.8,0-6.8-0.5-9.1-1.6c-2.4-1.3-4-3.8-4.1-6.6c0-0.1,0-0.2,0-0.3c0-1.7,0.5-3.3,1.5-4.6l13.8-14.6l0.1-0.1
		c0.5-0.6,1.2-1,2-1h0.1c0.6,0,1.3,0.2,1.8,0.7l15.1,13.4c1.2,1.4,2,3.1,2.1,5c0,0.1,0,0.2,0,0.3c0,3-1.7,5.7-4.4,7.1
		c-2.8,1.5-7.8,1.9-14.4,2.2C517.7,262,516.3,262,515.1,262z"/>
	<path style="fill:#FFFFFF;" d="M92.5,75.2c0.9,0.9,2.1,1.5,3.4,1.6h0.5c1.6,0,3.1-0.7,4.1-1.9l14.1-13.4l0.1-0.1
		c1.5-1.8,2.4-4.2,2.4-6.6v-0.1c0-3.7-2-7.1-5.1-9c-3.1-1.6-6-2.4-14.2-2.5c-0.8,0-1.5,0-2.2,0c-5.8,0-10,0.3-13,1.7
		c-3.9,1.6-6.4,5.4-6.4,9.6v0.1c0,2.5,0.9,4.8,2.4,6.7L92.5,75.2z M79,54.6c0-3,1.8-5.7,4.6-6.9c2.7-1.2,7.5-1.4,11.6-1.4
		c0.8,0,1.6,0,2.5,0c8,0.1,10.2,0.7,12.8,2.1c2.2,1.3,3.6,3.8,3.6,6.4v0.1c0,1.7-0.6,3.3-1.6,4.6L98.3,72.9V73
		c-0.5,0.6-1.2,0.9-1.9,0.9h-0.1c-0.6,0-1.2-0.3-1.7-0.7L80.7,59.4C79.6,58.1,79,56.4,79,54.6z"/>
	<path style="fill:#FFFFFF;" d="M100.5,99.2c-1-1.2-2.6-1.9-4.1-1.9h-0.1l0,0c-1.4,0-2.8,0.6-3.8,1.6l-14,13.9
		c-1.6,1.9-2.4,4.3-2.4,6.7v0.1c0,4.2,2.6,7.9,6.4,9.6c3.1,1.4,7.2,1.6,13,1.6c0.7,0,1.4,0,2.2,0c8.2-0.1,11.1-0.8,14.2-2.5
		c3.2-1.9,5.2-5.3,5.2-9.1c0-2.5-0.9-4.8-2.4-6.7L100.5,99.2z M78.5,119.5H79c0-1.7,0.6-3.4,1.7-4.7l13.9-13.7
		c0.5-0.5,1.1-0.7,1.8-0.7c0.6,0,1.2,0.2,1.7,0.7l0,0l14.3,13.6c1.1,1.3,1.7,3,1.7,4.8c0,2.7-1.4,5.1-3.6,6.4
		c-2.6,1.4-4.7,2-12.7,2.1c-0.8,0-1.5,0-2.2,0c-4.1,0-9.1-0.1-11.8-1.4c-2.8-1.2-4.6-3.9-4.6-6.9L78.5,119.5L78.5,119.5z"/>
	<path style="fill:#FFFFFF;" d="M106.8,86.7L106.8,86.7v0.2c0,1.6,0.7,3.1,1.9,4.1l13.4,14.1l0,0c1.8,1.5,4.2,2.4,6.6,2.4h0.1
		c3.7,0,7.1-2,9-5.1c1.6-3.1,2.4-6,2.5-14.2c0-0.8,0-1.5,0-2.2c0-5.8-0.3-10-1.7-13c-1.6-3.9-5.4-6.4-9.5-6.4c0,0-0.1,0-0.2,0
		c-2.5,0-4.8,0.9-6.8,2.5l-13.8,14C107.4,84,106.8,85.4,106.8,86.7z M137.3,86.1c0,0.7,0,1.4,0,2.2c-0.1,8-0.7,10.1-2.1,12.8
		c-1.3,2.2-3.8,3.6-6.4,3.6h-0.1c-1.7,0-3.3-0.6-4.6-1.6L111,89.2l0,0l-0.4-0.3c-0.5-0.5-0.9-1.1-0.9-1.8V87c0-0.7,0.3-1.3,0.7-1.7
		l13.7-13.9c1.4-1.1,3-1.7,4.8-1.7h0.1c3,0.1,5.7,1.9,6.8,4.6C137.2,77,137.3,82,137.3,86.1z M122.4,104.8L122.4,104.8L122.4,104.8
		L122.4,104.8z M129,67.1L129,67.1L129,67.1L129,67.1z"/>
	<path style="fill:#FFFFFF;" d="M64.3,107.6c2.5,0,4.8-0.9,6.6-2.4l13.4-14.1c1.2-1,1.9-2.5,1.9-4.1v-0.5l0,0
		c-0.1-1.3-0.7-2.5-1.6-3.4L70.8,69c-1.9-1.6-4.3-2.4-6.7-2.4H64c-4.2,0-7.9,2.6-9.6,6.4c-1.4,3-1.6,7.2-1.7,13c0,0.7,0,1.5,0,2.2
		c0.1,8.2,0.8,11.1,2.5,14.1l0,0C57.2,105.7,60.6,107.6,64.3,107.6L64.3,107.6z M64,69.1l0.1,0.5c1.8,0,3.4,0.6,4.7,1.7l13.7,13.9
		c0.5,0.5,0.7,1.1,0.7,1.8c0,0.7-0.3,1.4-0.9,1.9l-13.3,14c-1.3,1.1-2.9,1.7-4.7,1.7c-2.7,0-5.1-1.4-6.4-3.6
		c-1.4-2.6-2-4.7-2.1-12.7c0-0.8,0-1.5,0-2.2c0-4.1,0.1-9.1,1.4-11.8c1.2-2.8,3.9-4.6,6.9-4.6L64,69.1L64,69.1z"/>
	<path style="fill:#FFFFFF;" d="M278,279.3h-17.7c-5,0-9.1,4.1-9.1,9.1c0,4.8,3.8,8.8,8.6,9.1h1H278c5,0,9.1-4.1,9.1-9.1
		S283,279.3,278,279.3z M260.3,282.3H278c3.3,0,6.1,2.7,6.1,6.1c0,3.3-2.7,6.1-6.1,6.1h-17.7c-3.3,0-6.1-2.7-6.1-6.1
		C254.3,285,257,282.3,260.3,282.3z"/>
	<path style="fill:#FFFFFF;" d="M227.8,279.3h-17.7c-5,0-9.1,4.1-9.1,9.1c0,4.8,3.8,8.8,8.6,9.1h1h17.2c5,0,9.1-4.1,9.1-9.1
		C236.9,283.4,232.9,279.3,227.8,279.3z M204.1,288.4c0-3.3,2.7-6.1,6.1-6.1h17.7c3.3,0,6.1,2.7,6.1,6.1c0,3.3-2.7,6.1-6.1,6.1
		h-17.7C206.8,294.5,204.1,291.7,204.1,288.4z"/>
</g>
</svg>
