<?xml version="1.0" encoding="utf-8"?>
<!-- Generator: Adobe Illustrator 24.0.1, SVG Export Plug-In . SVG Version: 6.00 Build 0)  -->
<svg version="1.1"
	 id="Layer_3" xmlns:cc="http://creativecommons.org/ns#" xmlns:dc="http://purl.org/dc/elements/1.1/" xmlns:rdf="http://www.w3.org/1999/02/22-rdf-syntax-ns#"
	 xmlns="http://www.w3.org/2000/svg" xmlns:xlink="http://www.w3.org/1999/xlink" x="0px" y="0px" viewBox="0 0 493.6 319"
	 style="enable-background:new 0 0 493.6 319;" xml:space="preserve">
<style type="text/css">
	.st0{fill:#FFFFFF;}
</style>
<g>
	<path class="st0" d="M406,119.6h19.8c1.5,0,2.6-0.3,3.3-1.1c0.3-0.3,0.5-0.6,0.7-1c0.2,0.4,0.4,0.7,0.7,1c0.7,0.7,1.8,1.1,3.3,1.1
		h35.6c1.5,0,2.5-0.3,3.3-1.1c0.9-0.9,1.1-2.2,1.1-3.3V95.3c0-1-0.1-2.3-1.1-3.3c-0.8-0.7-1.8-1.1-3.3-1.1h-35.6
		c-1.5,0-2.6,0.3-3.3,1.1c-0.3,0.3-0.5,0.6-0.7,1c-0.2-0.4-0.4-0.7-0.7-1c-0.7-0.7-1.8-1.1-3.3-1.1L406,91c-1.5,0-2.5,0.3-3.3,1.1
		c-0.7,0.7-1.1,1.8-1.1,3.3v19.9c0,1.5,0.3,2.5,1.1,3.3C403.5,119.2,404.5,119.6,406,119.6z M404.5,115.2V95.3
		c0-0.9,0.2-1.1,0.2-1.2c0.1-0.1,0.3-0.2,1.2-0.2h19.8c0.9,0,1.2,0.2,1.2,0.2c0.1,0.1,0.2,0.3,0.2,1.2v19.9c0,0.9-0.2,1.2-0.2,1.2
		c-0.1,0.1-0.3,0.2-1.2,0.2H406c-0.9,0-1.2-0.2-1.2-0.2C404.7,116.4,404.5,116.1,404.5,115.2z M470.7,115.2c0,0.9-0.2,1.2-0.2,1.2
		c0,0-0.3,0.2-1.3,0.2h-35.6c-1,0-1.2-0.2-1.3-0.2c0,0-0.2-0.3-0.2-1.2V95.3c0-0.9,0.2-1.2,0.2-1.2c0,0,0.3-0.2,1.3-0.2h35.6
		c1,0,1.2,0.2,1.2,0.2c0,0,0.2,0.3,0.2,1.2V115.2z"/>
	<path class="st0" d="M376.3,119.6H396c1.5,0,2.5-0.3,3.3-1.1c0.9-0.9,1.1-2.2,1.1-3.3V95.3c0-1-0.1-2.3-1.1-3.3
		c-0.7-0.7-1.8-1.1-3.3-1.1h-19.7c-1.5,0-2.5,0.3-3.3,1.1c-0.9,0.9-1.1,2.2-1.1,3.3v19.9c0,1,0.1,2.3,1.1,3.3
		C373.8,119.2,374.8,119.6,376.3,119.6z M376.3,93.9H396c1,0,1.2,0.2,1.3,0.2c0,0,0.2,0.3,0.2,1.2v19.9c0,0.9-0.2,1.2-0.2,1.2
		c0,0-0.3,0.2-1.3,0.2h-19.7c-1,0-1.2-0.2-1.3-0.2c0,0-0.2-0.3-0.2-1.2V95.3c0-0.9,0.2-1.2,0.2-1.2
		C375.1,94.1,375.3,93.9,376.3,93.9z"/>
	<path class="st0" d="M346.6,119.6h19.8c1.5,0,2.5-0.3,3.3-1.1c0.9-0.9,1.1-2.2,1.1-3.3V95.3c0-1-0.1-2.3-1.1-3.3
		c-0.8-0.7-1.8-1.1-3.3-1.1h-19.8c-1.5,0-2.5,0.3-3.3,1.1c-0.9,0.9-1.1,2.2-1.1,3.3v19.9c0,1,0.1,2.3,1.1,3.3
		C344,119.2,345.1,119.6,346.6,119.6z M346.6,93.9h19.8c0.9,0,1.2,0.2,1.2,0.2c0.1,0.1,0.2,0.3,0.2,1.2v19.9c0,0.9-0.2,1.2-0.2,1.2
		c-0.1,0.1-0.3,0.2-1.2,0.2h-19.8c-0.9,0-1.2-0.2-1.2-0.2c-0.1-0.1-0.2-0.3-0.2-1.2V95.3c0-0.9,0.2-1.2,0.2-1.2
		C345.4,94,345.7,93.9,346.6,93.9z"/>
	<path class="st0" d="M316.9,119.6h19.7c1.5,0,2.5-0.3,3.3-1.1c0.9-0.9,1.1-2.2,1.1-3.3V95.3c0-1-0.1-2.3-1.1-3.3
		c-0.8-0.7-1.8-1.1-3.3-1.1h-19.7c-1.5,0-2.5,0.3-3.3,1.1c-0.9,0.9-1.1,2.2-1.1,3.3v19.9c0,1,0.1,2.3,1.1,3.3
		C314.4,119.2,315.4,119.6,316.9,119.6z M315.4,115.2V95.3c0-0.9,0.2-1.2,0.2-1.2c0,0,0.3-0.2,1.3-0.2h19.7c1,0,1.2,0.2,1.3,0.2
		c0,0,0.2,0.3,0.2,1.2v19.9c0,0.9-0.2,1.2-0.2,1.2c0,0-0.3,0.2-1.3,0.2h-19.7c-1,0-1.2-0.2-1.3-0.2
		C315.6,116.4,315.4,116.1,315.4,115.2z"/>
	<path class="st0" d="M287.2,119.6H307c1.5,0,2.5-0.3,3.3-1.1c0.7-0.7,1.1-1.8,1.1-3.3V95.3c0-1.5-0.3-2.5-1.1-3.3
		c-0.8-0.7-1.8-1.1-3.3-1.1h-19.8c-1.5,0-2.5,0.3-3.3,1.1c-0.9,0.9-1.1,2.2-1.1,3.3v19.9c0,1,0.1,2.3,1.1,3.3
		C284.6,119.2,285.7,119.6,287.2,119.6z M285.7,115.2V95.3c0-0.9,0.2-1.2,0.2-1.2c0.1-0.1,0.3-0.2,1.2-0.2l19.8,0
		c0.9,0,1.2,0.2,1.2,0.2c0.1,0.1,0.2,0.3,0.2,1.2v19.9c0,0.9-0.2,1.2-0.2,1.2c-0.1,0.1-0.3,0.2-1.2,0.2h-19.8
		c-0.9,0-1.2-0.2-1.2-0.2C285.9,116.3,285.7,116.1,285.7,115.2z"/>
	<path class="st0" d="M257.5,119.6h19.7c1.5,0,2.5-0.3,3.3-1.1c0.9-0.9,1.1-2.2,1.1-3.3V95.3c0-1-0.1-2.3-1.1-3.3
		c-0.7-0.7-1.8-1.1-3.3-1.1h-19.7c-1.5,0-2.5,0.3-3.3,1.1c-0.9,0.9-1.1,2.2-1.1,3.3v19.9c0,1,0.1,2.3,1.1,3.3
		C255,119.2,256,119.6,257.5,119.6z M256.1,115.2V95.3c0-0.9,0.2-1.2,0.2-1.2c0,0,0.3-0.2,1.3-0.2h19.7c1,0,1.2,0.2,1.3,0.2
		c0,0,0.2,0.3,0.2,1.2v19.9c0,0.9-0.2,1.2-0.2,1.2c0,0-0.3,0.2-1.3,0.2h-19.7c-1,0-1.2-0.2-1.3-0.2
		C256.2,116.4,256.1,116.1,256.1,115.2z"/>
	<path class="st0" d="M227.8,119.6h19.8c1.5,0,2.5-0.3,3.3-1.1c0.7-0.7,1.1-1.8,1.1-3.3V95.3c0-1.5-0.3-2.5-1.1-3.3
		c-0.7-0.7-1.8-1.1-3.3-1.1h-19.8c-1.5,0-2.5,0.3-3.3,1.1c-0.9,0.9-1.1,2.2-1.1,3.3v19.9c0,1,0.1,2.3,1.1,3.3
		C225.3,119.2,226.3,119.6,227.8,119.6z M249,115.2c0,0.9-0.2,1.2-0.2,1.2c-0.1,0.1-0.3,0.2-1.2,0.2h-19.8c-0.9,0-1.2-0.2-1.2-0.2
		c-0.1-0.1-0.2-0.3-0.2-1.2V95.3c0-0.9,0.2-1.1,0.2-1.2c0.1-0.1,0.3-0.2,1.2-0.2h19.8c0.9,0,1.2,0.2,1.2,0.2
		c0.1,0.1,0.2,0.3,0.2,1.2V115.2z"/>
	<path class="st0" d="M198.1,119.6h19.8c1.5,0,2.5-0.3,3.3-1.1c0.9-0.9,1.1-2.2,1.1-3.3V95.3c0-1-0.1-2.3-1.1-3.3
		c-0.7-0.7-1.8-1.1-3.3-1.1h-19.8c-1.5,0-2.5,0.3-3.3,1.1c-0.7,0.7-1.1,1.8-1.1,3.3v19.9c0,1.5,0.3,2.5,1.1,3.3
		C195.6,119.2,196.6,119.6,198.1,119.6z M219.3,115.2c0,0.9-0.2,1.2-0.2,1.2c0,0-0.3,0.2-1.3,0.2h-19.8c-0.9,0-1.2-0.2-1.2-0.2
		c-0.1-0.1-0.2-0.3-0.2-1.2V95.3c0-0.9,0.2-1.1,0.2-1.2c0.1-0.1,0.3-0.2,1.2-0.2h19.8c1,0,1.2,0.2,1.3,0.2c0,0,0.2,0.3,0.2,1.2
		V115.2z"/>
	<path class="st0" d="M168.4,119.6h19.8c1.5,0,2.5-0.3,3.3-1.1c0.7-0.7,1.1-1.8,1.1-3.3V95.3c0-1.5-0.3-2.5-1.1-3.3
		c-0.7-0.7-1.8-1.1-3.3-1.1h-19.8c-1.5,0-2.5,0.3-3.3,1.1c-0.9,0.9-1.1,2.2-1.1,3.3v19.9c0,1,0.1,2.3,1.1,3.3
		C165.9,119.2,166.9,119.6,168.4,119.6z M167,115.2V95.3c0-0.9,0.2-1.2,0.2-1.2c0,0,0.3-0.2,1.3-0.2h19.8c0.9,0,1.2,0.2,1.2,0.2
		c0.1,0.1,0.2,0.3,0.2,1.2v19.9c0,0.9-0.2,1.2-0.2,1.2c-0.1,0.1-0.3,0.2-1.2,0.2h-19.8c-1,0-1.2-0.2-1.3-0.2
		C167.1,116.4,167,116.1,167,115.2z"/>
	<path class="st0" d="M138.7,119.6h19.8c1.5,0,2.5-0.3,3.3-1.1c0.9-0.9,1.1-2.2,1.1-3.3V95.3c0-1-0.1-2.3-1.1-3.3
		c-0.7-0.7-1.8-1.1-3.3-1.1h-19.8c-1.5,0-2.5,0.3-3.3,1.1c-0.7,0.7-1.1,1.8-1.1,3.3v19.9c0,1.5,0.3,2.5,1.1,3.3
		C136.2,119.2,137.2,119.6,138.7,119.6z M138.7,93.9h19.8c0.9,0,1.2,0.2,1.2,0.2c0.1,0.1,0.2,0.3,0.2,1.2v19.9
		c0,0.9-0.2,1.2-0.2,1.2c-0.1,0.1-0.3,0.2-1.2,0.2h-19.8c-0.9,0-1.2-0.2-1.2-0.2c-0.1-0.1-0.2-0.3-0.2-1.2V95.3
		c0-0.9,0.2-1.1,0.2-1.2C137.6,94,137.8,93.9,138.7,93.9z"/>
	<path class="st0" d="M109,119.6h19.7c1.5,0,2.5-0.3,3.3-1.1c0.9-0.9,1.1-2.2,1.1-3.3V95.3c0-1-0.1-2.3-1.1-3.3
		c-0.7-0.7-1.8-1.1-3.3-1.1H109c-1.5,0-2.5,0.3-3.3,1.1c-0.9,0.9-1.1,2.2-1.1,3.3v19.9c0,1,0.1,2.3,1.1,3.3
		C106.5,119.2,107.5,119.6,109,119.6z M107.6,115.2V95.3c0-0.9,0.2-1.2,0.2-1.2c0,0,0.3-0.2,1.3-0.2v0h19.7c1,0,1.2,0.2,1.3,0.2
		c0,0,0.2,0.3,0.2,1.2v19.9c0,0.9-0.2,1.2-0.2,1.2c0,0-0.3,0.2-1.2,0.2H109c-1,0-1.2-0.2-1.2-0.2
		C107.7,116.4,107.6,116.1,107.6,115.2z"/>
	<path class="st0" d="M79.3,119.6h19.8c1.5,0,2.5-0.3,3.3-1.1c0.9-0.9,1.1-2.2,1.1-3.3V95.3c0-1-0.1-2.3-1.1-3.3
		c-0.7-0.7-1.8-1.1-3.3-1.1H79.3c-1.5,0-2.5,0.3-3.3,1.1c-0.7,0.7-1.1,1.8-1.1,3.3v19.9c0,1.5,0.3,2.5,1.1,3.3
		C76.8,119.2,77.8,119.6,79.3,119.6z M79.3,93.9h19.8c0.9,0,1.2,0.2,1.2,0.2c0.1,0.1,0.2,0.3,0.2,1.2v19.9c0,0.9-0.2,1.2-0.2,1.2
		s-0.3,0.2-1.2,0.2H79.3c-0.9,0-1.2-0.2-1.2-0.2c-0.1-0.1-0.2-0.3-0.2-1.2V95.3c0-0.9,0.2-1.2,0.2-1.2C78.2,94,78.4,93.9,79.3,93.9z
		"/>
	<path class="st0" d="M72.7,118.5c0.5-0.5,0.8-1.2,0.9-1.8h0.2V95.3c0-1-0.1-2.3-1.1-3.3c-0.7-0.7-1.8-1.1-3.3-1.1H49.6
		c-1.5,0-2.5,0.3-3.3,1.1c-0.9,0.9-1.1,2.2-1.1,3.3v19.9c0,1,0.1,2.3,1.1,3.3c0.7,0.7,1.8,1.1,3.3,1.1h19.7
		C70.9,119.6,71.9,119.2,72.7,118.5z M48.2,95.3c0-0.9,0.2-1.2,0.2-1.2c0,0,0.3-0.2,1.3-0.2h19.7c1,0,1.2,0.2,1.3,0.2
		c0,0,0.2,0.3,0.2,1.2v19.9c0,0.9-0.2,1.2-0.2,1.2c0,0-0.3,0.2-1.3,0.2H49.6c-1,0-1.2-0.2-1.3-0.2c0,0-0.2-0.3-0.2-1.2V95.3z"/>
	<path class="st0" d="M86,120.5H66.3c-1.5,0-2.5,0.3-3.3,1.1c-0.9,0.9-1.1,2.2-1.1,3.3v19.9c0,1,0.1,2.3,1.1,3.3
		c0.7,0.7,1.8,1.1,3.3,1.1H86c1.5,0,2.5-0.3,3.3-1.1c0.7-0.8,1.1-1.8,1.1-3.3v-19.9c0-1.5-0.3-2.5-1.1-3.3
		C88.5,120.9,87.5,120.5,86,120.5z M64.8,124.9c0-0.9,0.2-1.2,0.2-1.2c0,0,0.2-0.2,0.8-0.2H86c0.9,0,1.2,0.2,1.2,0.2
		c0.1,0.1,0.2,0.3,0.2,1.2v19.9c0,0.9-0.2,1.2-0.2,1.2c-0.1,0.1-0.3,0.2-1.2,0.2H66.3c-0.9,0-1.2-0.2-1.2-0.2
		c-0.1-0.1-0.3-0.5-0.3-1.3V124.9z"/>
	<path class="st0" d="M118.7,148c0.9-0.9,1.1-2.2,1.1-3.3v-19.9c0-1-0.1-2.3-1.1-3.3c-0.7-0.7-1.8-1.1-3.3-1.1H95.7
		c-1.5,0-2.5,0.3-3.3,1.1c-0.7,0.8-1.1,1.8-1.1,3.3v19.9c0,1.5,0.3,2.5,1.1,3.3c0.7,0.7,1.8,1.1,3.3,1.1h19.8
		C116.9,149.1,118,148.8,118.7,148z M116.7,146c0,0-0.3,0.2-1.3,0.2H95.7c-0.9,0-1.2-0.2-1.2-0.2c-0.1-0.1-0.2-0.3-0.2-1.2v-19.9
		c0-0.9,0.2-1.2,0.2-1.2c0.1-0.1,0.3-0.2,1.2-0.2h19.8c1,0,1.2,0.2,1.3,0.2c0,0,0.2,0.3,0.2,1.2v19.9
		C116.9,145.7,116.7,145.9,116.7,146z"/>
	<path class="st0" d="M148.1,148c0.7-0.7,1.1-1.8,1.1-3.3v-19.9c0-1.5-0.3-2.5-1.1-3.3c-0.7-0.7-1.8-1.1-3.3-1.1h-19.8
		c-1.5,0-2.5,0.3-3.3,1.1c-0.9,0.9-1.1,2.2-1.1,3.3v19.9c0,1,0.1,2.3,1.1,3.3c0.7,0.7,1.8,1.1,3.3,1.1h19.8
		C146.3,149.1,147.4,148.8,148.1,148z M123.6,124.9c0-0.9,0.2-1.2,0.2-1.2c0,0,0.3-0.2,1.3-0.2h19.8c0.9,0,1.2,0.2,1.2,0.2
		c0.1,0.1,0.2,0.3,0.2,1.2v19.9c0,0.9-0.2,1.2-0.2,1.2c-0.1,0.1-0.3,0.2-1.2,0.2h-19.8c-1,0-1.2-0.2-1.3-0.2c0,0-0.2-0.3-0.2-1.2
		V124.9z"/>
	<path class="st0" d="M154.5,149.1h19.8c1.5,0,2.5-0.3,3.3-1.1c0.9-0.9,1.1-2.2,1.1-3.3v-19.9c0-1-0.1-2.3-1.1-3.3
		c-0.7-0.7-1.8-1.1-3.3-1.1h-19.8c-1.5,0-2.5,0.3-3.3,1.1c-0.7,0.7-1.1,1.8-1.1,3.3v19.9c0,1.5,0.3,2.5,1.1,3.3
		C152,148.8,153,149.1,154.5,149.1z M154.5,123.4h19.8c0.9,0,1.2,0.2,1.2,0.2s0.2,0.3,0.2,1.2v19.9c0,0.9-0.2,1.2-0.2,1.2
		c-0.1,0.1-0.3,0.2-1.2,0.2h-19.8c-0.9,0-1.2-0.2-1.2-0.2c-0.1-0.1-0.2-0.3-0.2-1.2v-19.9c0-0.9,0.2-1.2,0.2-1.2
		C153.4,123.6,153.6,123.4,154.5,123.4z"/>
	<path class="st0" d="M184,149.1h19.7c1.5,0,2.5-0.3,3.3-1.1c0.9-0.9,1.1-2.2,1.1-3.3v-19.9c0-1-0.1-2.3-1.1-3.3
		c-0.7-0.7-1.8-1.1-3.3-1.1H184c-1.5,0-2.5,0.3-3.3,1.1c-0.9,0.9-1.1,2.2-1.1,3.3v19.9c0,1,0.1,2.3,1.1,3.3
		C181.4,148.8,182.5,149.1,184,149.1z M182.5,144.8v-19.9c0-0.9,0.2-1.2,0.2-1.2c0,0,0.3-0.2,1.3-0.2h19.7c1,0,1.2,0.2,1.3,0.2
		c0,0,0.2,0.3,0.2,1.2v19.9c0,0.9-0.2,1.2-0.2,1.2c0,0-0.3,0.2-1.3,0.2H184c-1,0-1.2-0.2-1.2-0.2
		C182.7,145.9,182.5,145.7,182.5,144.8z"/>
	<path class="st0" d="M213.4,149.1h19.8c1.5,0,2.5-0.3,3.3-1.1c0.9-0.9,1.1-2.2,1.1-3.3v-19.9c0-1-0.1-2.3-1.1-3.3
		c-0.7-0.7-1.8-1.1-3.3-1.1h-19.8c-1.5,0-2.5,0.3-3.3,1.1c-0.7,0.7-1.1,1.8-1.1,3.3v19.9c0,1.5,0.3,2.5,1.1,3.3
		C210.8,148.8,211.9,149.1,213.4,149.1z M211.9,144.8v-19.9c0-0.9,0.2-1.2,0.2-1.2c0.1-0.1,0.3-0.2,1.2-0.2h19.8
		c0.9,0,1.2,0.2,1.2,0.2c0.1,0.1,0.2,0.3,0.2,1.2v19.9c0,0.9-0.2,1.2-0.2,1.2c-0.1,0.1-0.3,0.2-1.2,0.2h-19.8
		c-0.9,0-1.2-0.2-1.2-0.2C212.1,145.9,211.9,145.7,211.9,144.8z"/>
	<path class="st0" d="M242.8,149.1h19.7c1.5,0,2.5-0.3,3.3-1.1c0.9-0.9,1.1-2.2,1.1-3.3v-19.9c0-1-0.1-2.3-1.1-3.3
		c-0.8-0.7-1.8-1.1-3.3-1.1h-19.7c-1.5,0-2.5,0.3-3.3,1.1c-0.9,0.9-1.1,2.2-1.1,3.3v19.9c0,1,0.1,2.3,1.1,3.3
		C240.3,148.8,241.3,149.1,242.8,149.1z M241.3,144.8v-19.9c0-0.9,0.2-1.2,0.2-1.2c0,0,0.3-0.2,1.3-0.2h19.7c1,0,1.2,0.2,1.3,0.2
		c0,0,0.2,0.3,0.2,1.2v19.9c0,0.9-0.2,1.2-0.2,1.2c0,0-0.3,0.2-1.3,0.2h-19.7c-1,0-1.2-0.2-1.3-0.2
		C241.5,145.9,241.3,145.7,241.3,144.8z"/>
	<path class="st0" d="M272.2,149.1H292c1.5,0,2.5-0.3,3.3-1.1c0.9-0.9,1.1-2.2,1.1-3.3v-19.9c0-1-0.1-2.3-1.1-3.3
		c-0.8-0.7-1.8-1.1-3.3-1.1h-19.8c-1.5,0-2.5,0.3-3.3,1.1c-0.9,0.9-1.1,2.2-1.1,3.3v19.9c0,1,0.1,2.3,1.1,3.3
		C269.7,148.8,270.7,149.1,272.2,149.1z M270.8,144.8v-19.9c0-0.9,0.2-1.2,0.2-1.2c0.1-0.1,0.3-0.2,1.2-0.2H292
		c0.9,0,1.2,0.2,1.2,0.2c0.1,0.1,0.2,0.3,0.2,1.2v19.9c0,0.9-0.2,1.2-0.2,1.2c-0.1,0.1-0.3,0.2-1.2,0.2h-19.8
		c-0.9,0-1.2-0.2-1.2-0.2C270.9,145.9,270.8,145.7,270.8,144.8z"/>
	<path class="st0" d="M301.7,149.1h19.7c1.5,0,2.5-0.3,3.3-1.1c0.9-0.9,1.1-2.2,1.1-3.3v-19.9c0-1-0.1-2.3-1.1-3.3
		c-0.8-0.7-1.8-1.1-3.3-1.1h-19.7c-1.5,0-2.5,0.3-3.3,1.1c-0.9,0.9-1.1,2.2-1.1,3.3v19.9c0,1,0.1,2.3,1.1,3.3
		C299.1,148.8,300.2,149.1,301.7,149.1z M301.7,123.4h19.7c1,0,1.2,0.2,1.3,0.2c0,0,0.2,0.3,0.2,1.2v19.9c0,0.9-0.2,1.2-0.2,1.2
		c0,0-0.3,0.2-1.3,0.2h-19.7c-1,0-1.2-0.2-1.2-0.2c0,0-0.2-0.3-0.2-1.2v-19.9c0-0.9,0.2-1.2,0.2-1.2
		C300.5,123.6,300.7,123.4,301.7,123.4z"/>
	<path class="st0" d="M331.1,149.1h19.8c1.5,0,2.5-0.3,3.3-1.1c0.7-0.8,1.1-1.8,1.1-3.3v-19.9c0-1.5-0.3-2.5-1.1-3.3
		c-0.8-0.7-1.8-1.1-3.3-1.1h-19.8c-1.5,0-2.5,0.3-3.3,1.1c-0.9,0.9-1.1,2.2-1.1,3.3v19.9c0,1,0.1,2.3,1.1,3.3
		C328.5,148.8,329.6,149.1,331.1,149.1z M329.6,144.8v-19.9c0-0.9,0.2-1.2,0.2-1.2c0.1-0.1,0.3-0.2,1.2-0.2h19.8
		c0.9,0,1.2,0.2,1.2,0.2c0.1,0.1,0.2,0.3,0.2,1.2v19.9c0,0.9-0.2,1.2-0.2,1.2c-0.1,0.1-0.3,0.2-1.2,0.2h-19.8
		c-0.9,0-1.2-0.2-1.2-0.2C329.8,145.9,329.6,145.7,329.6,144.8z"/>
	<path class="st0" d="M360.5,149.1h19.7c1.5,0,2.5-0.3,3.3-1.1c0.9-0.9,1.1-2.2,1.1-3.3v-19.9c0-1-0.1-2.3-1.1-3.3
		c-0.7-0.7-1.8-1.1-3.3-1.1h-19.7c-1.5,0-2.6,0.4-3.3,1.1c-0.9,0.9-1.1,2.2-1.1,3.3v19.9c0,1,0.1,2.3,1.1,3.3
		C358,148.8,359,149.1,360.5,149.1z M359.1,144.8v-19.9c0-0.9,0.2-1.2,0.2-1.2c0,0,0.3-0.2,1.3-0.2h19.7c1,0,1.2,0.2,1.3,0.2
		c0,0,0.2,0.3,0.2,1.2v19.9c0,0.9-0.2,1.2-0.2,1.2c0,0-0.3,0.2-1.3,0.2h-19.7c-1,0-1.2-0.2-1.3-0.2
		C359.2,145.9,359.1,145.7,359.1,144.8z"/>
	<path class="st0" d="M468.4,120.5l-50.2,0c-1.5,0-2.5,0.3-3.3,1.1c-0.5,0.5-0.8,1.1-0.9,1.7l-0.2,0c-0.2-0.7-0.5-1.3-0.9-1.8
		c-0.7-0.7-1.8-1.1-3.3-1.1h-19.8c-1.5,0-2.6,0.4-3.3,1.1c-0.9,0.9-1.1,2.2-1.1,3.3v19.9c0,1,0.1,2.3,1.1,3.3
		c0.8,0.7,1.8,1.1,3.3,1.1h19.8c1.5,0,2.5-0.3,3.3-1.1c0.6-0.6,0.9-1.3,1-2.2c0.1,0.8,0.4,1.6,1,2.2c0.7,0.7,1.8,1.1,3.3,1.1
		c1.5,0,2.1,0.1,2.2,0.2c0,0.2,0.1,0.5,0.1,1.1v22.8c0,1.5,0.3,2.5,1.1,3.3c0.9,0.9,2.2,1.1,3.3,1.1h43.4c1,0,2.3-0.1,3.3-1.1
		c0.9-0.9,1.1-2.3,1.1-3.3l0.2-48.3c0-1.5-0.3-2.5-1.1-3.3C471,120.9,469.9,120.5,468.4,120.5z M414,123.4c0,0.1,0,0.3-0.1,0.4
		c0-0.2-0.1-0.3-0.1-0.4H414z M411.1,124.9v19.9c0,0.9-0.2,1.2-0.2,1.2c-0.1,0.1-0.3,0.2-1.2,0.2h-19.8c-0.9,0-1.2-0.2-1.2-0.2
		c-0.1-0.1-0.2-0.3-0.2-1.2v-19.9c0-0.9,0.2-1.2,0.2-1.2c0.1-0.1,0.3-0.2,1.2-0.2h19.8c0.9,0,1.2,0.2,1.2,0.2
		C411,123.7,411.1,124,411.1,124.9z M423.2,148.5c-0.2-0.7-0.6-1.3-1.1-1.6c-0.9-0.6-2-0.7-3.3-0.7c-0.1,0-0.2,0-0.3,0l-0.3,0
		c-0.9,0-1.2-0.2-1.2-0.2c-0.1-0.1-0.2-0.3-0.2-1.2v-19.9c0-0.9,0.2-1.2,0.2-1.2c0.1-0.1,0.3-0.2,1.1-0.2h50.3
		c0.9,0,1.2,0.2,1.2,0.2c0.1,0.1,0.2,0.3,0.2,1.2l-0.2,48.3c0,1-0.2,1.2-0.2,1.2c0,0-0.2,0.2-1.3,0.2h-43.4c-0.9,0-1.2-0.2-1.2-0.2
		c0,0-0.2-0.3-0.2-1.3v-22.8C423.4,149.7,423.4,149.1,423.2,148.5z"/>
	<path class="st0" d="M124.5,176.7c0.5-0.5,0.8-1.2,0.9-1.8h0.2v-21.3c0-1-0.1-2.3-1.1-3.3c-0.7-0.7-1.8-1.1-3.3-1.1h-19.7
		c-1.5,0-2.5,0.3-3.3,1.1c-0.9,0.9-1.1,2.2-1.1,3.3v19.9c0,1,0.1,2.3,1.1,3.3c0.7,0.7,1.8,1.1,3.3,1.1h19.7
		C122.7,177.8,123.8,177.5,124.5,176.7z M122.7,153.6v19.9c0,0.9-0.2,1.2-0.2,1.2c0,0-0.3,0.2-1.3,0.2h-19.7c-1,0-1.2-0.2-1.3-0.2
		c0,0-0.2-0.3-0.2-1.2v-19.9c0-0.9,0.2-1.2,0.2-1.2c0,0,0.3-0.2,1.3-0.2h19.7c1,0,1.2,0.2,1.3,0.2
		C122.5,152.4,122.7,152.6,122.7,153.6z"/>
	<path class="st0" d="M150.7,149.2h-19.8c-1.5,0-2.5,0.3-3.3,1.1c-0.9,0.9-1.1,2.2-1.1,3.3v19.9c0,1,0.1,2.3,1.1,3.3
		c0.7,0.7,1.8,1.1,3.3,1.1h19.8c1.5,0,2.5-0.3,3.3-1.1c0.7-0.7,1.1-1.8,1.1-3.3v-19.9c0-1.5-0.3-2.5-1.1-3.3
		C153.2,149.6,152.2,149.2,150.7,149.2z M152.1,153.6v19.9c0,0.9-0.2,1.2-0.2,1.2c-0.1,0.1-0.3,0.2-1.2,0.2h-19.8
		c-0.9,0-1.2-0.2-1.2-0.2c-0.1-0.1-0.2-0.3-0.2-1.2v-19.9c0-0.9,0.2-1.2,0.2-1.2c0.1-0.1,0.3-0.2,1.2-0.2h19.8
		c0.9,0,1.2,0.2,1.2,0.2S152.1,152.7,152.1,153.6z"/>
	<path class="st0" d="M180.1,149.2h-19.8c-1.5,0-2.5,0.3-3.3,1.1c-0.7,0.8-1.1,1.8-1.1,3.3v19.9c0,1.5,0.3,2.5,1.1,3.3
		c0.7,0.7,1.8,1.1,3.3,1.1h19.8c1.5,0,2.5-0.3,3.3-1.1c0.9-0.9,1.1-2.2,1.1-3.3v-19.9c0-1-0.1-2.3-1.1-3.3
		C182.6,149.6,181.6,149.2,180.1,149.2z M181.6,153.6v19.9c0,0.9-0.2,1.2-0.2,1.2c0,0-0.3,0.2-1.3,0.2h-19.8c-0.9,0-1.2-0.2-1.2-0.2
		c-0.1-0.1-0.2-0.3-0.2-1.2v-19.9c0-0.9,0.2-1.2,0.2-1.2c0.1-0.1,0.3-0.2,1.2-0.2h19.8c1,0,1.2,0.2,1.2,0.2
		C181.4,152.4,181.6,152.6,181.6,153.6z"/>
	<path class="st0" d="M209.5,149.2h-19.8c-1.5,0-2.5,0.3-3.3,1.1c-0.9,0.9-1.1,2.2-1.1,3.3v19.9c0,1,0.1,2.3,1.1,3.3
		c0.7,0.7,1.8,1.1,3.3,1.1h19.8c1.5,0,2.5-0.3,3.3-1.1c0.7-0.8,1.1-1.8,1.1-3.3v-19.9c0-1.5-0.3-2.5-1.1-3.3
		C212.1,149.6,211,149.2,209.5,149.2z M211,153.6v19.9c0,0.9-0.2,1.2-0.2,1.2c-0.1,0.1-0.3,0.2-1.2,0.2h-19.8c-1,0-1.2-0.2-1.3-0.2
		c0,0-0.2-0.3-0.2-1.2v-19.9c0-0.9,0.2-1.2,0.2-1.2c0,0,0.3-0.2,1.3-0.2h19.8c0.9,0,1.2,0.2,1.2,0.2
		C210.8,152.4,211,152.7,211,153.6z"/>
	<path class="st0" d="M239,149.2h-19.8c-1.5,0-2.5,0.3-3.3,1.1c-0.7,0.8-1.1,1.8-1.1,3.3v19.9c0,1.5,0.3,2.5,1.1,3.3
		c0.7,0.7,1.8,1.1,3.3,1.1H239c1.5,0,2.5-0.3,3.3-1.1c0.9-0.9,1.1-2.2,1.1-3.3v-19.9c0-1-0.1-2.3-1.1-3.3
		C241.5,149.6,240.5,149.2,239,149.2z M240.4,153.6v19.9c0,0.9-0.2,1.2-0.2,1.2c-0.1,0.1-0.3,0.2-1.2,0.2h-19.8
		c-0.9,0-1.2-0.2-1.2-0.2c-0.1-0.1-0.2-0.3-0.2-1.2v-19.9c0-0.9,0.2-1.2,0.2-1.2s0.3-0.2,1.2-0.2H239c0.9,0,1.2,0.2,1.2,0.2
		C240.2,152.4,240.4,152.7,240.4,153.6z"/>
	<path class="st0" d="M268.4,149.2h-19.7c-1.5,0-2.5,0.3-3.3,1.1c-0.9,0.9-1.1,2.2-1.1,3.3v19.9c0,1,0.1,2.3,1.1,3.3
		c0.7,0.7,1.8,1.1,3.3,1.1h19.7c1.5,0,2.5-0.3,3.3-1.1c0.9-0.9,1.1-2.2,1.1-3.3v-19.9c0-1-0.1-2.3-1.1-3.3
		C270.9,149.6,269.9,149.2,268.4,149.2z M269.8,153.6v19.9c0,0.9-0.2,1.2-0.2,1.2c0,0-0.3,0.2-1.3,0.2h-19.7c-1,0-1.2-0.2-1.3-0.2
		c0,0-0.2-0.3-0.2-1.2v-19.9c0-0.9,0.2-1.2,0.2-1.2c0,0,0.3-0.2,1.3-0.2h19.7c1,0,1.2,0.2,1.3,0.2
		C269.7,152.4,269.8,152.6,269.8,153.6z"/>
	<path class="st0" d="M297.8,149.2H278c-1.5,0-2.5,0.3-3.3,1.1c-0.7,0.8-1.1,1.8-1.1,3.3v19.9c0,1.5,0.3,2.5,1.1,3.3
		s1.8,1.1,3.3,1.1h19.8c1.5,0,2.5-0.3,3.3-1.1c0.9-0.9,1.1-2.2,1.1-3.3v-19.9c0-1-0.1-2.3-1.1-3.3
		C300.3,149.6,299.3,149.2,297.8,149.2z M276.6,153.6c0-0.9,0.2-1.2,0.2-1.2c0.1-0.1,0.3-0.2,1.2-0.2h19.8c0.9,0,1.2,0.2,1.2,0.2
		c0.1,0.1,0.2,0.3,0.2,1.2v19.9c0,0.9-0.2,1.2-0.2,1.2c-0.1,0.1-0.3,0.2-1.2,0.2H278c-0.9,0-1.2-0.2-1.2-0.2
		c-0.1-0.1-0.2-0.3-0.2-1.2V153.6z"/>
	<path class="st0" d="M327.2,149.2h-19.7c-1.5,0-2.5,0.3-3.3,1.1c-0.9,0.9-1.1,2.2-1.1,3.3v19.9c0,1,0.1,2.3,1.1,3.3
		c0.8,0.7,1.8,1.1,3.3,1.1h19.7c1.5,0,2.5-0.3,3.3-1.1c0.9-0.9,1.1-2.2,1.1-3.3v-19.9c0-1-0.1-2.3-1.1-3.3
		C329.8,149.6,328.7,149.2,327.2,149.2z M328.7,153.6v19.9c0,0.9-0.2,1.2-0.2,1.2c0,0-0.3,0.2-1.3,0.2h-19.7c-1,0-1.2-0.2-1.3-0.2
		c0,0-0.2-0.3-0.2-1.2v-19.9c0-0.9,0.2-1.2,0.2-1.2c0,0,0.3-0.2,1.3-0.2h19.7c1,0,1.2,0.2,1.3,0.2
		C328.5,152.4,328.7,152.6,328.7,153.6z"/>
	<path class="st0" d="M356.7,149.2h-19.8c-1.5,0-2.5,0.3-3.3,1.1c-0.7,0.8-1.1,1.8-1.1,3.3v19.9c0,1,0.1,2.3,1.1,3.3
		c0.8,0.7,1.8,1.1,3.3,1.1h19.8c1.5,0,2.6-0.4,3.3-1.1c0.9-0.9,1.1-2.2,1.1-3.3v-19.9c0-1-0.1-2.3-1.1-3.3
		C359.2,149.6,358.2,149.2,356.7,149.2z M358.1,153.6v19.9c0,0.9-0.2,1.2-0.2,1.2c-0.1,0.1-0.3,0.2-1.2,0.2h-19.8
		c-0.9,0-1.2-0.2-1.2-0.2c-0.1-0.1-0.2-0.3-0.2-1.2v-19.9c0-0.9,0.2-1.2,0.2-1.2c0.1-0.1,0.3-0.2,1.2-0.2h19.8
		c0.9,0,1.2,0.2,1.2,0.2C357.9,152.4,358.1,152.7,358.1,153.6z"/>
	<path class="st0" d="M389.4,176.7c0.9-0.9,1.1-2.2,1.1-3.3v-19.9c0-1-0.1-2.3-1.1-3.3c-0.7-0.7-1.8-1.1-3.3-1.1h-19.7
		c-1.5,0-2.5,0.3-3.3,1.1c-0.9,0.9-1.1,2.2-1.1,3.3v19.9c0,1,0.1,2.3,1.1,3.3c0.7,0.7,1.8,1.1,3.3,1.1h19.7
		C387.6,177.8,388.6,177.5,389.4,176.7z M387.5,153.6v19.9c0,0.9-0.2,1.2-0.2,1.2c0,0-0.3,0.2-1.3,0.2h-19.7c-1,0-1.2-0.2-1.3-0.2
		c0,0-0.2-0.3-0.2-1.2v-19.9c0-0.9,0.2-1.2,0.2-1.2c0,0,0.3-0.2,1.3-0.2h19.7c1,0,1.2,0.2,1.3,0.2
		C387.4,152.4,387.5,152.6,387.5,153.6z"/>
	<path class="st0" d="M415.5,149.2h-19.8c-1.5,0-2.5,0.3-3.3,1.1c-0.9,0.9-1.1,2.2-1.1,3.3v19.9c0,1,0.1,2.3,1.1,3.3
		c0.7,0.7,1.8,1.1,3.3,1.1h19.8c1.5,0,2.5-0.3,3.3-1.1c0.7-0.7,1.1-1.8,1.1-3.3v-19.9c0-1.5-0.3-2.5-1.1-3.3
		C418,149.6,417,149.2,415.5,149.2z M417,153.6v19.9c0,0.9-0.2,1.2-0.2,1.2c-0.1,0.1-0.3,0.2-1.2,0.2h-19.8c-0.9,0-1.2-0.2-1.2-0.2
		c-0.1-0.1-0.2-0.3-0.2-1.2v-19.9c0-0.9,0.2-1.2,0.2-1.2c0.1-0.1,0.3-0.2,1.2-0.2h19.8c0.9,0,1.2,0.2,1.2,0.2S417,152.7,417,153.6z"
		/>
	<path class="st0" d="M399.9,177.9h-19.8c-1.5,0-2.5,0.3-3.3,1.1c-0.7,0.7-1.1,1.8-1.1,3.3v19.9c0,1.5,0.3,2.5,1.1,3.3
		c0.5,0.5,1.1,0.8,1.8,0.9c-0.6,0.1-1.3,0.4-1.8,0.9c-0.7,0.7-1.1,1.8-1.1,3.3v19.8c0,1.5,0.3,2.5,1.1,3.3c0.9,0.9,2.2,1.1,3.3,1.1
		h19.8c1,0,2.3-0.1,3.3-1.1c0.9-0.9,1.1-2.3,1.1-3.3v-19.8c0-1-0.1-2.4-1.1-3.3c-0.5-0.5-1.2-0.8-1.8-0.9c0.7-0.2,1.3-0.5,1.8-0.9
		c0.9-0.9,1.1-2.2,1.1-3.3v-19.9c0-1-0.1-2.3-1.1-3.3C402.4,178.3,401.4,177.9,399.9,177.9z M380.1,180.8h19.8c1,0,1.2,0.2,1.3,0.2
		c0,0,0.2,0.3,0.2,1.2v19.9c0,0.9-0.2,1.2-0.2,1.2c0,0-0.3,0.2-1.3,0.2h-19.8c-0.9,0-1.2-0.2-1.2-0.2c-0.1-0.1-0.2-0.3-0.2-1.2
		v-19.9c0-0.9,0.2-1.2,0.2-1.2C379,181,379.2,180.8,380.1,180.8z M378.7,210.6c0-0.9,0.2-1.2,0.2-1.2c0.1-0.1,0.3-0.2,1.2-0.2h19.8
		c1,0,1.2,0.2,1.3,0.2c0,0,0.2,0.3,0.2,1.2v19.8c0,1-0.2,1.2-0.2,1.3s-0.2,0.2-1.3,0.2h-19.8c-0.9,0-1.2-0.2-1.2-0.2
		c0,0-0.2-0.3-0.2-1.3V210.6z"/>
	<path class="st0" d="M39.7,91H19.9c-1.5,0-2.5,0.3-3.3,1.1c-0.9,0.9-1.1,2.2-1.1,3.3v19.9c0,1,0.1,2.3,1.1,3.3
		c0.7,0.7,1.8,1.1,3.3,1.1h19.8c1.5,0,2.5-0.3,3.3-1.1c0.9-0.9,1.1-2.2,1.1-3.3V95.3c0-1-0.1-2.3-1.1-3.3C42.2,91.3,41.2,91,39.7,91
		z M19.9,93.9h19.8c0.9,0,1.2,0.2,1.2,0.2c0.1,0.1,0.2,0.3,0.2,1.2v19.9c0,0.9-0.2,1.2-0.2,1.2c-0.1,0.1-0.3,0.2-1.2,0.2H19.9
		c-0.9,0-1.2-0.2-1.2-0.2c-0.1-0.1-0.2-0.3-0.2-1.2V95.3c0-0.9,0.2-1.2,0.2-1.2C18.8,94,19,93.9,19.9,93.9z"/>
	<path class="st0" d="M475.6,88.8c-0.7-0.7-1.8-1.1-3.3-1.1H16.6v0c-1.5,0-2.5,0.3-3.3,1.1c-0.9,0.9-1.1,2.2-1.1,3.3v112.4
		c0,1,0.1,2.3,1.1,3.3c0.7,0.7,1.8,1.1,3.3,1.1h90c0.1,0,0.1,0,0.2,0c0,0,0,0.1,0,0.1v24.8c0,1,0.1,2.3,1.1,3.3c1,1,2.3,1.1,3.3,1.1
		H404c1,0,2.3-0.1,3.3-1.1c1-1,1.1-2.3,1.1-3.3v-24.5c0-0.3,0-0.4,0-0.4c0,0,0.1-0.1,0.5-0.1h63.4c1.5,0,2.5-0.3,3.3-1.1
		c0.7-0.8,1.1-1.8,1.1-3.3V92.1C476.7,90.6,476.3,89.6,475.6,88.8z M81.7,203.9c0.2,0.5,0.4,1.1,0.9,1.5c0.2,0.2,0.5,0.4,0.8,0.6
		h-3.3c0.3-0.2,0.6-0.3,0.8-0.6C81.3,205,81.6,204.4,81.7,203.9z M84.4,202.1v-19.9c0-0.9,0.2-1.2,0.2-1.2c0.1-0.1,0.3-0.2,1.2-0.2
		h19.8c0.9,0,1.2,0.2,1.2,0.2c0.1,0.1,0.2,0.3,0.2,1.2v19.9c0,0.9-0.2,1.2-0.2,1.2c-0.1,0.1-0.3,0.2-1.2,0.2H85.9
		c-0.9,0-1.2-0.2-1.2-0.2C84.6,203.3,84.4,203.1,84.4,202.1z M17.2,202.1v-19.9c0-0.9,0.2-1.2,0.2-1.2c0.1-0.1,0.3-0.2,1.1-0.2h59.1
		c1,0,1.2,0.2,1.3,0.2c0,0,0.2,0.3,0.2,1.2v19.9c0,0.9-0.2,1.2-0.2,1.2c0,0-0.3,0.2-1.3,0.2H18.7c-0.9,0-1.2-0.2-1.2-0.2
		C17.4,203.3,17.2,203.1,17.2,202.1z M15.4,205.4c0.2,0.2,0.5,0.4,0.8,0.6c-0.6-0.1-0.8-0.2-0.8-0.2c0,0-0.1-0.2-0.2-0.6
		C15.3,205.2,15.3,205.3,15.4,205.4z M17.2,173.5v-19.9c0-0.9,0.2-1.2,0.2-1.2c0-0.1,0.3-0.2,1-0.2h45.9c0.9,0,1.2,0.2,1.2,0.2
		c0.1,0.1,0.2,0.3,0.2,1.2v19.9c0,0.9-0.2,1.2-0.2,1.2c-0.1,0.1-0.3,0.2-1.2,0.2H18.7c-0.9,0-1.2-0.2-1.2-0.2
		C17.4,174.6,17.2,174.4,17.2,173.5z M70.6,173.5v-19.9c0-0.9,0.2-1.2,0.2-1.2c0.1-0.1,0.3-0.2,1.2-0.2h19.8c0.9,0,1.1,0.2,1.2,0.2
		c0.1,0.1,0.2,0.3,0.2,1.2v19.9c0,0.9-0.2,1.2-0.2,1.2c-0.1,0.1-0.3,0.2-1.2,0.2H72.1c-0.9,0-1.2-0.2-1.2-0.2
		C70.8,174.6,70.6,174.4,70.6,173.5z M108.9,205.4c0.5-0.5,0.8-1.2,0.9-1.8h0.2v-21.3c0-1.5-0.3-2.5-1.1-3.3
		c-0.7-0.7-1.8-1.1-3.3-1.1H85.9c-1.5,0-2.5,0.3-3.3,1.1c-0.5,0.5-0.7,1-0.9,1.5c-0.2-0.5-0.4-1.1-0.9-1.5c-0.7-0.7-1.8-1.1-3.3-1.1
		H18.7c-1.5,0-2.5,0.3-3.3,1.1c-0.1,0.1-0.2,0.2-0.2,0.3v-2.9c0.1,0.1,0.1,0.2,0.2,0.3c0.7,0.7,1.8,1.1,3.3,1.1h45.7
		c1.5,0,2.5-0.3,3.3-1.1c0.2-0.2,0.4-0.5,0.6-0.8c0.1,0.3,0.3,0.6,0.6,0.8c0.7,0.7,1.8,1.1,3.3,1.1h19.8c1.5,0,2.5-0.3,3.3-1.1
		c0.7-0.8,1.1-1.8,1.1-3.3v-19.9c0-1.5-0.3-2.5-1.1-3.3c-0.7-0.7-1.8-1.1-3.3-1.1H72.1c-1.5,0-2.5,0.3-3.3,1.1
		c-0.3,0.3-0.5,0.5-0.6,0.8c-0.2-0.3-0.3-0.6-0.6-0.8c-0.7-0.7-1.8-1.1-3.3-1.1H18.7c-1.5,0-2.5,0.3-3.3,1.1
		c-0.1,0.1-0.2,0.2-0.2,0.3v-3.5c0.2,0.3,0.3,0.6,0.6,0.9c0.7,0.7,1.8,1.1,3.3,1.1H57c1.5,0,2.5-0.3,3.3-1.1
		c0.9-0.9,1.1-2.2,1.1-3.3v-19.9c0-1-0.1-2.3-1.1-3.3c-0.7-0.7-1.8-1.1-3.3-1.1l-37.9,0c-1.5,0-2.5,0.3-3.3,1.1
		c-0.3,0.3-0.5,0.6-0.6,0.9V92.1c0-0.9,0.2-1.2,0.2-1.2c0,0,0.3-0.2,1.2-0.2l455.7,0c0.9,0,1.2,0.2,1.2,0.2c0.1,0.1,0.2,0.3,0.2,1.2
		v112.4c0,0.9-0.2,1.2-0.2,1.2c-0.1,0.1-0.3,0.2-1.2,0.2h-0.9c0.3-0.2,0.6-0.3,0.8-0.6c0.9-0.9,1.1-2.2,1.1-3.3v-19.9
		c0-1-0.1-2.3-1.1-3.3c-0.7-0.7-1.8-1.1-3.3-1.1h-59.5c-1.5,0-2.5,0.3-3.3,1.1c-0.7,0.8-1.1,1.8-1.1,3.3v19.9c0,1.5,0.3,2.5,1.1,3.3
		c0.4,0.4,0.8,0.6,1.3,0.8c-0.4,0.1-0.7,0.3-0.9,0.5c-0.7,0.6-1,1.5-1,2.5v24.5c0,1-0.2,1.2-0.2,1.3c0,0-0.3,0.2-1.2,0.2H111.1
		c-1,0-1.2-0.2-1.3-0.2c0,0-0.2-0.2-0.2-1.3v-0.3c0,0.1,0.1,0.1,0.1,0.2c1,1,2.3,1.1,3.3,1.1h258.3c1,0,2.3-0.1,3.3-1.1
		c1-1,1.1-2.3,1.1-3.3v-19.8c0-1-0.1-2.3-1.1-3.3c-0.7-0.7-1.5-0.9-2.3-1c0.6-0.2,1-0.5,1.4-0.8c0.7-0.7,1.1-1.8,1.1-3.3v-19.9
		c0-1.5-0.3-2.5-1.1-3.3c-0.7-0.7-1.8-1.1-3.3-1.1h-19.8c-1.5,0-2.5,0.3-3.3,1.1c-0.9,0.9-1.1,2.2-1.1,3.3v19.9c0,1,0.1,2.3,1.1,3.3
		c0.3,0.3,0.8,0.6,1.3,0.8h-5.6c0.5-0.2,0.9-0.4,1.3-0.8c0.9-0.9,1.1-2.2,1.1-3.3v-19.9c0-1-0.1-2.3-1.1-3.3
		c-0.7-0.7-1.8-1.1-3.3-1.1h-19.7c-1.5,0-2.5,0.3-3.3,1.1c-0.9,0.9-1.1,2.2-1.1,3.3v19.9c0,1,0.1,2.3,1.1,3.3
		c0.3,0.3,0.8,0.6,1.3,0.8h-5.6c0.5-0.2,0.9-0.4,1.3-0.8c0.7-0.7,1.1-1.8,1.1-3.3v-19.9c0-1-0.1-2.3-1.1-3.3
		c-0.8-0.7-1.8-1.1-3.3-1.1h-19.8c-1.5,0-2.5,0.3-3.3,1.1c-0.9,0.9-1.1,2.2-1.1,3.3v19.9c0,1,0.1,2.3,1.1,3.3
		c0.3,0.3,0.8,0.6,1.3,0.8h-5.6c0.5-0.2,0.9-0.4,1.3-0.8c0.9-0.9,1.1-2.2,1.1-3.3v-19.9c0-1-0.1-2.3-1.1-3.3
		c-0.7-0.7-1.8-1.1-3.3-1.1h-19.7c-1.5,0-2.5,0.3-3.3,1.1c-0.9,0.9-1.1,2.2-1.1,3.3v19.9c0,1,0.1,2.3,1.1,3.3
		c0.3,0.3,0.8,0.6,1.3,0.8h-5.6c0.5-0.2,0.9-0.4,1.3-0.8c0.9-0.9,1.1-2.2,1.1-3.3v-19.9c0-1-0.1-2.3-1.1-3.3
		c-0.8-0.7-1.8-1.1-3.3-1.1H233c-1.5,0-2.5,0.3-3.3,1.1c-0.7,0.8-1.1,1.8-1.1,3.3v19.9c0,1.5,0.3,2.5,1.1,3.3
		c0.3,0.3,0.8,0.6,1.3,0.8h-5.6c0.5-0.2,0.9-0.4,1.3-0.8c0.9-0.9,1.1-2.2,1.1-3.3v-19.9c0-1-0.1-2.3-1.1-3.3
		c-0.7-0.7-1.8-1.1-3.3-1.1h-19.7c-1.5,0-2.5,0.3-3.3,1.1c-0.9,0.9-1.1,2.2-1.1,3.3v19.9c0,1,0.1,2.3,1.1,3.3
		c0.3,0.3,0.8,0.6,1.3,0.8h-5.6c0.5-0.2,0.9-0.4,1.3-0.8c0.9-0.9,1.1-2.2,1.1-3.3v-19.9c0-1-0.1-2.3-1.1-3.3
		c-0.7-0.7-1.8-1.1-3.3-1.1h-19.8c-1.5,0-2.5,0.3-3.3,1.1c-0.7,0.8-1.1,1.8-1.1,3.3v19.9c0,1.5,0.3,2.5,1.1,3.3
		c0.3,0.3,0.8,0.6,1.3,0.8h-5.6c0.5-0.2,0.9-0.4,1.3-0.8c0.7-0.7,1.1-1.8,1.1-3.3v-19.9c0-1.5-0.3-2.5-1.1-3.3
		c-0.7-0.7-1.8-1.1-3.3-1.1h-19.8c-1.5,0-2.5,0.3-3.3,1.1c-0.9,0.9-1.1,2.2-1.1,3.3v19.9c0,1,0.1,2.3,1.1,3.3
		c0.3,0.3,0.8,0.6,1.3,0.8h-5.6c0.5-0.2,0.9-0.4,1.3-0.8c0.9-0.9,1.1-2.2,1.1-3.3v-19.9c0-1-0.1-2.3-1.1-3.3
		c-0.7-0.7-1.8-1.1-3.3-1.1h-19.8c-1.5,0-2.5,0.3-3.3,1.1c-0.7,0.8-1.1,1.8-1.1,3.3v19.9c0,1.5,0.3,2.5,1.1,3.3
		c0.3,0.3,0.8,0.6,1.3,0.8h-0.2c-1,0-2.3,0.1-3.3,1.1c-0.1,0.1-0.3,0.3-0.4,0.4c-0.2-0.5-0.4-0.8-0.7-1.1c-0.3-0.2-0.6-0.4-0.9-0.5
		C108.2,205.9,108.6,205.7,108.9,205.4z M17.6,144.7v-19.9c0-0.9,0.2-1.2,0.2-1.2c0,0,0.2-0.2,0.8-0.2H57c0.9,0,1.1,0.2,1.2,0.2
		c0.1,0.1,0.2,0.3,0.2,1.2v19.9c0,0.9-0.2,1.2-0.2,1.2c-0.1,0.1-0.3,0.2-1.2,0.2H19.1c-0.9,0-1.2-0.2-1.2-0.2
		C17.8,145.9,17.6,145.5,17.6,144.7z M470.4,182.3v19.9c0,0.9-0.2,1.2-0.2,1.2c0,0-0.3,0.2-1.3,0.2h-59.5c-1,0-1.2-0.2-1.3-0.2
		c-0.1-0.1-0.2-0.3-0.2-1.2v-19.9c0-0.9,0.2-1.2,0.2-1.2c0,0,0.3-0.2,1.3-0.2H469c1,0,1.2,0.2,1.3,0.2
		C470.3,181.1,470.4,181.3,470.4,182.3z M135.1,203.6h-19.8c-0.9,0-1.1-0.2-1.2-0.2c-0.1-0.1-0.2-0.3-0.2-1.2v-19.9
		c0-0.9,0.2-1.2,0.2-1.2c0.1-0.1,0.3-0.2,1.2-0.2h19.8c0.9,0,1.2,0.2,1.2,0.2c0.1,0.1,0.2,0.3,0.2,1.2v19.9c0,0.9-0.2,1.2-0.2,1.2
		C136.3,203.4,136,203.6,135.1,203.6z M165.7,203.4c-0.1,0.1-0.3,0.2-1.2,0.2h-19.8c-1,0-1.2-0.2-1.3-0.2c0,0-0.2-0.3-0.2-1.2v-19.9
		c0-0.9,0.2-1.2,0.2-1.2c0,0,0.3-0.2,1.3-0.2h19.8c0.9,0,1.1,0.2,1.2,0.2c0.1,0.1,0.2,0.3,0.2,1.2v19.9
		C166,203.1,165.8,203.3,165.7,203.4z M195.4,182.3v19.9c0,0.9-0.2,1.2-0.2,1.2c-0.1,0.1-0.3,0.2-1.2,0.2h-19.8
		c-0.9,0-1.1-0.2-1.2-0.2c-0.1-0.1-0.2-0.3-0.2-1.2v-19.9c0-0.9,0.2-1.2,0.2-1.2c0.1-0.1,0.3-0.2,1.2-0.2h19.8
		c0.9,0,1.2,0.2,1.2,0.2C195.2,181.1,195.4,181.4,195.4,182.3z M224.6,203.4c0,0-0.3,0.2-1.3,0.2h-19.7c-1,0-1.2-0.2-1.3-0.2
		c0,0-0.2-0.3-0.2-1.2v-19.9c0-0.9,0.2-1.2,0.2-1.2c0,0,0.3-0.2,1.3-0.2h19.7c1,0,1.2,0.2,1.3,0.2c0,0,0.2,0.3,0.2,1.2v19.9
		C224.8,203.1,224.6,203.3,224.6,203.4z M254,203.4c-0.1,0.1-0.3,0.2-1.2,0.2H233c-0.9,0-1.2-0.2-1.2-0.2c-0.1-0.1-0.2-0.3-0.2-1.2
		v-19.9c0-0.9,0.2-1.2,0.2-1.2c0.1-0.1,0.3-0.2,1.2-0.2h19.8c0.9,0,1.2,0.2,1.2,0.2c0.1,0.1,0.2,0.3,0.2,1.2v19.9
		C254.2,203.1,254,203.3,254,203.4z M283.4,203.4c0,0-0.3,0.2-1.3,0.2h-19.7c-1,0-1.2-0.2-1.3-0.2c0,0-0.2-0.3-0.2-1.2v-19.9
		c0-0.9,0.2-1.2,0.2-1.2c0,0,0.3-0.2,1.3-0.2h19.7c1,0,1.2,0.2,1.3,0.2c0,0,0.2,0.3,0.2,1.2v19.9
		C283.6,203.1,283.5,203.3,283.4,203.4z M313.1,182.3v19.9c0,0.9-0.2,1.2-0.2,1.2c-0.1,0.1-0.3,0.2-1.2,0.2h-19.8
		c-0.9,0-1.2-0.2-1.2-0.2c-0.1-0.1-0.2-0.3-0.2-1.2v-19.9c0-0.9,0.2-1.2,0.2-1.2c0.1-0.1,0.3-0.2,1.2-0.2h19.8
		c0.9,0,1.2,0.2,1.2,0.2C312.9,181.1,313.1,181.4,313.1,182.3z M342.5,182.3v19.9c0,0.9-0.2,1.2-0.2,1.2c0,0-0.3,0.2-1.3,0.2h-19.7
		c-1,0-1.2-0.2-1.3-0.2c0,0-0.2-0.3-0.2-1.2v-19.9c0-0.9,0.2-1.2,0.2-1.2c0,0,0.3-0.2,1.3-0.2H341c1,0,1.2,0.2,1.3,0.2
		C342.3,181.1,342.5,181.3,342.5,182.3z M371.7,203.4c-0.1,0.1-0.3,0.2-1.2,0.2h-19.8c-0.9,0-1.2-0.2-1.2-0.2
		c-0.1-0.1-0.2-0.3-0.2-1.2v-19.9c0-0.9,0.2-1.2,0.2-1.2c0.1-0.1,0.3-0.2,1.2-0.2h19.8c0.9,0,1.2,0.2,1.2,0.2
		c0.1,0.1,0.2,0.3,0.2,1.2v19.9C371.9,203.1,371.7,203.3,371.7,203.4z M111.6,230.4v-19.8c0-0.9,0.2-1.2,0.2-1.2
		c0.1-0.1,0.3-0.2,1.2-0.2h258.3c1,0,1.2,0.2,1.3,0.2c0,0,0.2,0.3,0.2,1.2v19.8c0,1-0.2,1.2-0.2,1.3c0,0-0.2,0.2-1.3,0.2H113.1
		c-0.9,0-1.2-0.2-1.2-0.2C111.8,231.6,111.6,231.4,111.6,230.4z"/>
</g>
</svg>
