<?xml version="1.0" encoding="utf-8"?>
<!-- Generator: Adobe Illustrator 24.0.1, SVG Export Plug-In . SVG Version: 6.00 Build 0)  -->
<svg version="1.1" id="Layer_2" xmlns="http://www.w3.org/2000/svg" xmlns:xlink="http://www.w3.org/1999/xlink" x="0px" y="0px"
	 viewBox="0 0 755.4 220" style="enable-background:new 0 0 755.4 220;" xml:space="preserve">
<style type="text/css">
	.st0{fill:#FFFFFF;}
</style>
<g>
	<g>
		<path class="st0" d="M31.9,87l74.4,127.6h101L132.9,87L31.9,87L31.9,87z M47.8,95h77.1l63.6,109h-77.1L47.8,95z"/>
		<path class="st0" d="M58.5,155.4L0,214.6h93L58.5,155.4z M55.4,172l21.7,34.6H21.3L55.4,172z"/>
		<path class="st0" d="M178.2,146.1L236.7,87h-93L178.2,146.1z M181.3,129.5l-21.7-34.6h55.8L181.3,129.5z"/>
	</g>
	<g>
		<path class="st0" d="M252.7,170.1c-0.1-0.2-0.4,1.4-0.9,4.9s-0.7,6-0.8,7.7c0.5,3.6,1.7,3.6,3.7,5.4c1.6,1,3,0.7,7,1.2
			c3.9,0.5,27.4,0.5,31.4,0c4-0.4,7.3-1,9.4-2.4c4.2-2.6,7.1-6.5,8.6-16.8c1.1-5.6,1.5-7,1.4-9.6c-0.2-3.5-1.9-5.9-5.4-7.1
			c-3.4-1.2-8.4-0.6-14-0.6h-11c-11.8,0-18.9,0.1-22.4,2.5C255.8,157.9,254.2,161.5,252.7,170.1z M336.9,129.1h-16.7
			c0.6-4,0.4-6.7,0.3-9.2c-0.1-2.5-0.4-4.7-1.5-5.5c-2.4-2-12-1.9-22.3-1.9H287c-10.2,0-16.2-0.1-19.3,2.2c-4,3.1-6.4,7.9-7.3,14.3
			l-2.7,11.1c0,0,1.8-2.7,5.9-3.1c7.1-0.8,19-0.1,23.4-0.1c10.9,0.2,19.8-0.4,25.7,0.5c5.8,1,12.2,2.2,15.2,5.5
			c2.7,2.8,4.2,7,4.4,12.7c0.2,3.8-0.6,9.9-2.2,18.4c-0.9,4.1-2,7.8-3.3,11.1c-1.2,3.3-2.9,6.4-5.1,9.2c-2.2,2.8-4.8,7.7-7.8,9.3
			c-4.7,2.4-10.8,2.3-16.3,2.9c-5.5,0.6-14.3,0-23,0c-7.8,0-15.7,0.2-21.4-0.5c-5.7-0.7-10.4-2.3-14-4.9c-4.5-3.3-7-8.7-7.6-16.2
			c0-3.9,0.4-8.3,1.3-13.3l9.3-48.8c1.8-10.7,5-19,12.8-24c4.3-2.7,9.6-4.5,15.7-5.3c6.2-0.9,16.4-1.3,25.2-1.3h13.7
			c9.3,0,11.9,1.2,18.4,3.7c6.5,2.5,9.9,7.4,10.3,14.8C338.5,113,338,122.6,336.9,129.1z"/>
		<path class="st0" d="M401,107.9c-11,0-20.9,0.5-24.6,1.5c-3.6,1-5.8,0.9-7.5,3.5c-1.6,2.6-2.6,5.3-3.1,8.1
			c-0.4,2.8-0.8,6.6-1.2,11.4c0.3,2.9,1.3,4.8,2.7,5.9c2.8,1.8,12.8,1.9,25.7,1.9c11.6,0,20.2-0.2,24.7-2.2c1.9-0.8,3.6-2.5,4.9-5.1
			c1.4-2.6,2.2-4.6,3.2-9.6c0.5-3,0.8-5.6,0.7-7.7c-0.1-2.7-0.9-4.4-2.5-5.3c-1.7-1-4.4-1.6-8-1.9
			C412.6,108.1,407.5,107.9,401,107.9z M428.9,147.5c6.9,2.8,6.9,9.4,7,17.1c0,1.1,0.3,6.9-0.1,8.9c-0.4,2-0.2,3.5-0.4,4.2
			c-1.5,7-2,10.1-4.4,14.2c-2.4,4.1-3.8,7.1-7.9,9.3c-3.6,2-8.2,3.5-13.7,4.2c-5.5,0.8-15.2,1.2-23.7,1.2h-11c-9.5,0-17-0.3-22.4-1
			c-5.4-0.7-8.5-3.2-11.7-6.1c-3-2.6-5.8-8.9-6.3-15c0.2-2.8,0.7-4.3,1.5-9.7c1.1-5,1.4-8.9,2.3-11.6c0.9-2.6,2.6-5.8,4.6-8.2
			c1.9-2.4,4.8-4.2,8.1-6.1c2.1-1.2,2.7-1.6,0.6-3.4c-2.3-1.9-3-3.8-3.6-6.1c-0.3-0.7-0.5-8-0.5-8.2c1-16.5,5.4-24.9,13.1-31.3
			c4.5-3.9,6.5-6.2,16.6-6.9c5.2-0.4,19.4-0.6,26.6-0.6c10,0,19.7,0.2,23.9,0.6c3.6,0.5,6.8,1.3,9.5,2.3c2.7,1,2.4,2.8,4.5,5.2
			c1.8,2.3,2.8,5.9,2.9,10.8c0.1,3.4-0.1,7-0.7,10.7c-0.5,3.7-1.5,7.3-2.9,10.7c-1.4,3.4-3.2,6.2-5.4,8.3c-2.8,3-2.4,5.2-6.1,6.4
			c-0.8,0.3-1.2,0.1-1.2,0C428,147.3,428.3,147.2,428.9,147.5z M389.8,154.8c-7,0-14.2,0-18,0.4c-3.8,0.4-6.9,1.2-9.3,2.4
			c-2.2,1-4,2.8-5.4,5.5c-1.4,2.6-2.6,6.3-3.6,11.1c-0.9,5.5-0.8,6.6-0.9,8.2c0.3,2.9,0.9,4.6,3.1,5.6c2.2,1,5.4,2.6,9.7,2.8
			c3.3,0.4,12,0.5,20.8,0.5c9.1,0,16.2,0.6,21.1-1.2c2.3-1,4.9-1.3,6.4-3.9c1.5-2.6,2.1-5.3,3.2-10.4c0.9-3.9,1.3-6.9,1.3-9.1
			c-0.1-2.5-0.8-7.1-2.1-8.4c-1.1-1.3-3.6-2.2-7.5-2.8C404.5,154.9,397.7,154.8,389.8,154.8z"/>
		<path class="st0" d="M485.3,206.6c-9.9,0-20.5-0.6-26.3-1.9c-5.8-1.3-10.1-3.5-12.7-6.6c-3.3-3.7-2.7-9-3.1-16.2
			c0.2-5.8,0.9-11.6,1.9-17.1l6-31.6c1.3-6.8,3-12.9,5.4-18.4c2.3-5.5,5.6-10.1,9.7-13.7c2.4-2.3,5.5-4.1,9.4-5.5
			c3.9-1.3,8.3-2.2,13.3-2.6c5-0.4,11-0.6,18.3-0.6c5.5,0,10.4,0.2,14.7,0.6c4.4,0.4,8.2,1,11.5,2c3.3,1,6.1,2.5,8.4,4.4
			c4.1,3.8,6.3,9.7,6.5,17.8c0.1,3.3-0.4,8.9-1.5,16.8l-6.1,31.8c-3.3,18-7.3,29.9-17.2,35.5c-4,2.2-8.9,3.7-14.6,4.4
			C503,206.2,493.5,206.6,485.3,206.6z M504.2,108.7c-7.6,0-13,0.1-16.3,0.4c-3.3,0.3-6.1,0.9-8.4,1.8c-1.8,0.7-3.4,1.8-4.9,3.2
			c-1.4,1.4-2.9,3.7-4.3,6.9c-1.4,3.2-2.7,5-3.7,10.4l-6.8,36.1c-0.8,5.3-1.3,7-1.5,10.4c0.2,3,0.7,5.2,1.5,6.6s2,2.5,3.6,3.3
			c2,1,4.6,1.7,7.7,2c3.1,0.3,8.2,0.4,15.4,0.4c8.7,0,15.1-0.3,19.4-0.8c4.3-0.5,7.5-1.7,9.7-3.6c4.1-3.6,6.4-9.1,8.8-20.5l6.3-33.3
			c0.9-6.4,1.3-8.5,1.3-11.8c-0.1-4.5-0.3-6.9-2.2-8.3c-1.9-1.4-4.6-2.3-8-2.7C518.2,108.9,512.4,108.7,504.2,108.7z"/>
		<path class="st0" d="M589,206.6c-9.9,0-20.5-0.6-26.3-1.9c-5.8-1.3-10.1-3.5-12.7-6.6c-3.3-3.7-2.7-9-3.1-16.2
			c0.2-5.8,0.9-11.6,1.9-17.1l6-31.6c1.3-6.8,3-12.9,5.3-18.4c2.3-5.5,5.6-10.1,9.7-13.7c2.4-2.3,5.5-4.1,9.4-5.5
			c3.9-1.3,8.3-2.2,13.3-2.6c5-0.4,11-0.6,18.3-0.6c5.5,0,10.4,0.2,14.7,0.6c4.4,0.4,8.2,1,11.5,2c3.3,1,6.1,2.5,8.4,4.4
			c4.1,3.8,6.3,9.7,6.5,17.8c0.1,3.3-0.4,8.9-1.5,16.8l-6.1,31.8c-3.3,18-7.3,29.9-17.2,35.5c-4,2.2-8.9,3.7-14.6,4.4
			C606.7,206.2,597.1,206.6,589,206.6z M607.8,108.7c-7.6,0-13,0.1-16.3,0.4c-3.3,0.3-6.1,0.9-8.4,1.8c-1.8,0.7-3.4,1.8-4.9,3.2
			c-1.4,1.4-2.9,3.7-4.3,6.9c-1.4,3.2-2.7,5-3.7,10.4l-6.8,36.1c-0.8,5.3-1.3,7-1.5,10.4c0.2,3,0.7,5.2,1.5,6.6
			c0.8,1.4,2,2.5,3.6,3.3c2,1,4.6,1.7,7.7,2c3.1,0.3,8.2,0.4,15.4,0.4c8.7,0,15.1-0.3,19.4-0.8c4.3-0.5,7.5-1.7,9.7-3.6
			c4.1-3.6,6.4-9.1,8.8-20.5l6.3-33.3c0.9-6.4,1.3-8.5,1.3-11.8c-0.1-4.5-0.3-6.9-2.2-8.3c-1.9-1.4-4.6-2.3-8-2.7
			C621.9,108.9,616.1,108.7,607.8,108.7z"/>
		<path class="st0" d="M692.6,206.6c-9.9,0-20.5-0.6-26.3-1.9c-5.8-1.3-10.1-3.5-12.7-6.6c-3.3-3.7-2.7-9-3.1-16.2
			c0.2-5.8,0.9-11.6,1.9-17.1l6-31.6c1.3-6.8,3-12.9,5.3-18.4c2.3-5.5,5.6-10.1,9.7-13.7c2.4-2.3,5.5-4.1,9.4-5.5
			c3.9-1.3,8.3-2.2,13.3-2.6c5-0.4,11-0.6,18.3-0.6c5.5,0,10.4,0.2,14.7,0.6c4.4,0.4,8.2,1,11.5,2c3.3,1,6.1,2.5,8.4,4.4
			c4.1,3.8,6.3,9.7,6.5,17.8c0.1,3.3-0.4,8.9-1.5,16.8l-6.1,31.8c-3.3,18-7.3,29.9-17.2,35.5c-4,2.2-8.9,3.7-14.6,4.4
			C710.3,206.2,700.8,206.6,692.6,206.6z M711.5,108.7c-7.6,0-13,0.1-16.3,0.4c-3.3,0.3-6.1,0.9-8.4,1.8c-1.8,0.7-3.4,1.8-4.9,3.2
			c-1.4,1.4-2.9,3.7-4.3,6.9c-1.4,3.2-2.7,5-3.7,10.4l-6.8,36.1c-0.8,5.3-1.3,7-1.5,10.4c0.2,3,0.7,5.2,1.5,6.6
			c0.8,1.4,2,2.5,3.6,3.3c2,1,4.6,1.7,7.7,2c3.1,0.3,8.2,0.4,15.4,0.4c8.7,0,15.1-0.3,19.4-0.8c4.3-0.5,7.5-1.7,9.7-3.6
			c4.1-3.6,6.4-9.1,8.8-20.5l6.3-33.3c0.9-6.4,1.3-8.5,1.3-11.8c-0.1-4.5-0.3-6.9-2.2-8.3c-1.9-1.4-4.6-2.3-8-2.7
			C725.5,108.9,719.7,108.7,711.5,108.7z"/>
	</g>
</g>
<g>
	<polygon class="st0" points="253,7.8 253,66 273,66 273,42.9 311.3,42.9 311.3,66 331.2,66 331.2,7.8 311.3,7.8 311.3,30.2 
		273,30.2 273,7.8 	"/>
	<path class="st0" d="M376.2,20.4l12.6,20.9h-25.2L376.2,20.4z M396.1,53.3l7.7,12.8h23.1L391.8,7.8h-8h-15.1L333.6,66h15.1
		l7.7-12.8L396.1,53.3L396.1,53.3z"/>
	<path class="st0" d="M513,7.8V66h19.1V45c6.3,1.3,13.5,1.9,21.1,1.9c25.3,0,36.9-9.1,37.1-20.3c0.2-13.5-14.9-21.1-40.3-21.1
		c-6.6,0-8.9,0.3-17.9,0.8C523.1,6.8,513,7.8,513,7.8z M532.1,17c0,0,4.7-0.5,8.9-0.8c4.2-0.3,5.3-0.2,8.4-0.2
		c11.7,0,18.8,3.7,18.6,10.6c-0.1,5.8-5.5,10.4-17.2,10.4c-3.5,0-8.9-0.5-12.4-1c-3.6-0.5-6.2-1.6-6.2-1.6V17z"/>
	<path class="st0" d="M429.3,7.8V66h19.1V17c0,0,4.7-0.5,8.9-0.8c4.2-0.3,5.3-0.2,8.4-0.2c11.7,0,19.6,3.7,19.4,10.6
		c-0.1,5.8-6.3,8.8-18,8.8c-3.5,0-7.9-0.5-11.5-1c-0.2,0-4,6.2-4,6.2L480.3,66H509l-25.3-21.8c15.9-2.7,23.7-9.9,23.8-17.7
		c0-15.1-15-21.4-41.1-21.1c-6.6,0.1-8.9,0.3-17.9,0.8C439.3,6.8,429.3,7.8,429.3,7.8z"/>
	<path class="st0" d="M240.3,25.4c0,0,6.7-12.3,6.4-12.8c-0.3-0.5-13.5-7.5-39.9-7.2C165.9,5.9,166.1,23,166.1,23
		s-4.1,15.9,27.7,19.1c19.5,2,33.4,5.3,33.3,10c-0.1,4.8-8.3,4.5-11.9,4.2c-31.9-2.6-43.3-11.5-43.3-11.5L165,59.1
		c0,0,15.4,9.6,47.4,9.3c32-0.3,36.4-7.9,37-18.1c0.7-12.7-17.1-17.8-17.1-17.8s-9.8-2.1-19.9-3.6c-11.7-1.7-23.8-3.5-22.3-8.2
		c0-0.2,3.4-6.8,27.9-2.2C229.9,20.9,240.3,25.4,240.3,25.4z"/>
</g>
</svg>
