<?xml version="1.0" encoding="utf-8"?>
<!-- Generator: Adobe Illustrator 24.0.1, SVG Export Plug-In . SVG Version: 6.00 Build 0)  -->
<svg version="1.1" id="Ebene_1" xmlns="http://www.w3.org/2000/svg" xmlns:xlink="http://www.w3.org/1999/xlink" x="0px" y="0px"
	 viewBox="0 0 566.9 120" style="enable-background:new 0 0 566.9 120;" xml:space="preserve">
<g id="Ebene_1_1_">
	<g>
		<path style="fill:#FFFFFF;" d="M12,109.2c-6.6,0-12-5.4-12-12V42.7c0-6.6,5.4-12,12-12s12,5.4,12,12v54.5
			C24,103.8,18.6,109.2,12,109.2z"/>
	</g>
	<path style="fill:#FFFFFF;" d="M174.7,58.8h-36.2v-6.5h36.2c6,0,10.8-4.8,10.8-10.8s-4.8-10.8-10.8-10.8h-49.4
		c-6,0-10.8,4.8-10.8,10.8c0,0.2,0,55.7,0,55.7c0,6.6,5.4,12,12,12s12-5.4,12-12V80.4h36.2c6,0,10.8-4.8,10.8-10.8
		S180.7,58.8,174.7,58.8z"/>
	<path style="fill:#FFFFFF;" d="M540.9,93.7l-15.5-54.2c-0.9-3.2-3.1-5.7-5.8-7.2c-1.7-1-3.6-1.7-5.7-1.7h-57c-0.4,0-0.7,0-1.1,0.1
		c-6.1,0.6-10.9,5.7-10.9,11.9v54.5c0,6.6,5.4,12,12,12s12-5.4,12-12V52.3h5.3v44.9c0,6.6,5.4,12,12,12s12-5.4,12-12V52.3h6l13.8,48
		c1.5,5.2,6.3,8.6,11.5,8.6c1.1,0,2.2-0.1,3.3-0.5C539,106.6,542.7,100,540.9,93.7z"/>
	<path style="fill:#FFFFFF;" d="M250.5,30.7h-40.8c-11.3,0-20.6,9.3-20.6,20.6v37.3c0,11.3,9.3,20.6,20.6,20.6h40.8
		c11.3,0,20.6-9.3,20.6-20.6V51.3C271.1,40,261.8,30.7,250.5,30.7z M247.9,84.5c0,1.3-1.1,2.4-2.4,2.4h-30.7c-1.3,0-2.4-1.1-2.4-2.4
		V55.4c0-1.3,1.1-2.4,2.4-2.4h30.7c1.3,0,2.4,1.1,2.4,2.4V84.5z"/>
	<path style="fill:#FFFFFF;" d="M419.3,30.7h-40.8c-11.3,0-20.6,9.3-20.6,20.6v37.3c0,11.3,9.3,20.6,20.6,20.6h40.8
		c11.3,0,20.6-9.3,20.6-20.6V51.3C439.9,40,430.7,30.7,419.3,30.7z M416.7,84.5c0,1.3-1.1,2.4-2.4,2.4h-30.7c-1.3,0-2.4-1.1-2.4-2.4
		V55.4c0-1.3,1.1-2.4,2.4-2.4h30.7c1.3,0,2.4,1.1,2.4,2.4V84.5z"/>
	<path style="fill:#FFFFFF;" d="M105.5,30.7H34.7c-3,0-5.4,2.4-5.4,5.4v61.1c0,6.6,5.4,12,12,12s11.9-5.4,11.9-12V55.4
		c0-1.3,1.1-2.4,2.4-2.4h28.9c1.3,0,2.5,1.1,2.5,2.4v41.9c0,6.6,5.4,12,12,12s12-5.4,12-12V51.8V36.1
		C110.9,33.1,108.5,30.7,105.5,30.7z"/>
	<path style="fill:#FFFFFF;" d="M345,86.9h-42.9c-1.3,0-2.4-1.1-2.4-2.4V55.4c0-1.3,1.1-2.4,2.4-2.4H345c6.2,0,11.1-5,11.1-11.1
		c0-6.2-5-11.1-11.1-11.1h-15.5h-30.6h-2.6c-11.3,0-20.5,9.2-20.5,20.5v37.5c0,11.3,9.2,20.5,20.5,20.5h2.6h30.6H345
		c6.2,0,11.1-5,11.1-11.1C356.2,91.9,351.2,86.9,345,86.9z"/>
	<g>
		<path style="fill:#FFFFFF;" d="M541,22.5h-4.1v-2.9h11.8v2.9h-4.2v12.4H541V22.5z"/>
		<path style="fill:#FFFFFF;" d="M563.3,29c-0.1-1.8-0.1-4-0.1-6.3l0,0c-0.5,2-1.1,4.1-1.7,5.9l-1.9,6h-2.7l-1.6-5.9
			c-0.5-1.8-1-4-1.4-6l0,0c-0.1,2.1-0.2,4.4-0.2,6.3l-0.3,5.8h-3.2l1-15.3h4.6l1.5,5.1c0.5,1.7,1,3.7,1.3,5.4h0.1
			c0.4-1.8,0.9-3.8,1.5-5.5l1.6-5.1h4.5l0.8,15.3h-3.4L563.3,29z"/>
	</g>
</g>
</svg>
