<?xml version="1.0" encoding="utf-8"?>
<!-- Generator: Adobe Illustrator 24.0.1, SVG Export Plug-In . SVG Version: 6.00 Build 0)  -->
<svg version="1.1"
	 id="Layer_3" xmlns:cc="http://creativecommons.org/ns#" xmlns:dc="http://purl.org/dc/elements/1.1/" xmlns:rdf="http://www.w3.org/1999/02/22-rdf-syntax-ns#"
	 xmlns="http://www.w3.org/2000/svg" xmlns:xlink="http://www.w3.org/1999/xlink" x="0px" y="0px" viewBox="0 0 598.2 350.3"
	 style="enable-background:new 0 0 598.2 350.3;" xml:space="preserve">
<style type="text/css">
	.st0{fill:#FFFFFF;}
</style>
<g>
	<path class="st0" d="M33.1,111.5l-0.4,0.3l1.9,2.1l0.4-0.3c2-1.9,4.6-2.9,7.3-2.9h512.8c3,0,5.8,1.3,7.8,3.5l0.3,0.4l2.1-1.9
		l-0.3-0.4c-0.5-0.6-1.1-1.1-1.7-1.5l1.8-1.1l-0.3-0.4c-4.3-6.9-11.8-11.1-20-11.1l-492.5,0c-8,0-15.4,4-19.8,10.8l-0.3,0.4l1.8,1.2
		C33.9,110.9,33.5,111.2,33.1,111.5z M52.5,101H545c6.8,0,13,3.3,16.9,8.8c-2-1.2-4.4-1.9-6.8-1.9l-512.8,0c-2.4,0-4.7,0.7-6.7,1.8
		C39.5,104.2,45.7,101,52.5,101z"/>
	<path class="st0" d="M79.1,135.1H50.3c-2,0-3.6,1.6-3.6,3.6v17.9c0,2,1.6,3.6,3.6,3.6h28.8c2,0,3.6-1.7,3.6-3.6l0-17.9
		C82.7,136.8,81.1,135.1,79.1,135.1z M79.9,156.7c0,0.4-0.4,0.8-0.8,0.8H50.3c-0.4,0-0.8-0.4-0.8-0.8v-17.9c0-0.5,0.3-0.8,0.8-0.8
		h28.8c0.5,0,0.8,0.3,0.8,0.8L79.9,156.7z"/>
	<path class="st0" d="M126.8,135.1H98.1c-2,0-3.6,1.6-3.6,3.6v17.9c0,2,1.6,3.6,3.6,3.6h28.8c2,0,3.6-1.6,3.6-3.6v-17.9
		C130.5,136.8,128.8,135.1,126.8,135.1z M126.8,157.5H98.1c-0.4,0-0.8-0.4-0.8-0.8v-17.9c0-0.5,0.3-0.8,0.8-0.8h28.8
		c0.5,0,0.8,0.3,0.8,0.8v17.9C127.6,157.1,127.3,157.5,126.8,157.5z"/>
	<path class="st0" d="M174.6,135.1h-28.8c-2,0-3.6,1.6-3.6,3.6v17.9c0,2,1.6,3.6,3.6,3.6h28.8c2,0,3.6-1.6,3.6-3.6v-17.9
		C178.2,136.8,176.6,135.1,174.6,135.1z M175.4,138.7v17.9c0,0.5-0.4,0.8-0.8,0.8h-28.8c-0.4,0-0.8-0.4-0.8-0.8v-17.9
		c0-0.5,0.3-0.8,0.8-0.8h28.8C175.1,137.9,175.4,138.3,175.4,138.7z"/>
	<path class="st0" d="M222.4,135.1h-28.8c-2,0-3.6,1.6-3.6,3.6v17.9c0,2,1.7,3.6,3.6,3.6h28.8c2,0,3.6-1.6,3.6-3.6v-17.9
		C226,136.8,224.4,135.1,222.4,135.1z M223.2,138.7v17.9c0,0.5-0.4,0.8-0.8,0.8h-28.8c-0.5,0-0.8-0.4-0.8-0.8v-17.9
		c0-0.4,0.4-0.8,0.8-0.8h28.8C222.9,137.9,223.2,138.3,223.2,138.7z"/>
	<path class="st0" d="M270.2,135.1h-28.8c-2,0-3.6,1.6-3.6,3.6v17.9c0,2,1.7,3.6,3.6,3.6h28.8c2,0,3.6-1.6,3.6-3.6v-17.9
		C273.8,136.8,272.2,135.1,270.2,135.1z M271,138.7v17.9c0,0.5-0.4,0.8-0.8,0.8h-28.8c-0.5,0-0.8-0.4-0.8-0.8v-17.9
		c0-0.4,0.4-0.8,0.8-0.8h28.8C270.7,137.9,271,138.3,271,138.7z"/>
	<path class="st0" d="M318,135.1h-28.8c-2,0-3.6,1.6-3.6,3.6v17.9c0,2,1.6,3.6,3.6,3.6H318c2,0,3.6-1.7,3.6-3.6v-17.9
		C321.6,136.8,320,135.1,318,135.1z M318.8,138.7v17.9c0,0.5-0.4,0.8-0.8,0.8h-28.8c-0.4,0-0.8-0.4-0.8-0.8v-17.9
		c0-0.5,0.3-0.8,0.8-0.8H318C318.4,137.9,318.8,138.3,318.8,138.7z"/>
	<path class="st0" d="M365.7,135.1H337c-2,0-3.6,1.6-3.6,3.6v17.9c0,2,1.6,3.6,3.6,3.6h28.8c2,0,3.6-1.7,3.6-3.6v-17.9
		C369.4,136.8,367.8,135.1,365.7,135.1z M365.7,157.5H337c-0.4,0-0.8-0.4-0.8-0.8v-17.9c0-0.5,0.3-0.8,0.8-0.8h28.8
		c0.5,0,0.8,0.4,0.8,0.8v17.9C366.6,157.1,366.2,157.5,365.7,157.5z"/>
	<path class="st0" d="M413.5,135.1h-28.8c-2,0-3.6,1.6-3.6,3.6v17.9c0,2,1.6,3.6,3.6,3.6h28.8c2,0,3.6-1.6,3.6-3.6v-17.9
		C417.1,136.8,415.5,135.1,413.5,135.1z M383.9,138.7c0-0.5,0.3-0.8,0.8-0.8h28.8c0.5,0,0.8,0.3,0.8,0.8v17.9c0,0.5-0.4,0.8-0.8,0.8
		h-28.8c-0.4,0-0.8-0.4-0.8-0.8V138.7z"/>
	<path class="st0" d="M461.3,135.1h-28.8c-2,0-3.6,1.6-3.6,3.6v17.9c0,2,1.6,3.6,3.6,3.6h28.8c2,0,3.6-1.6,3.6-3.6v-17.9
		C464.9,136.8,463.3,135.1,461.3,135.1z M462.1,138.7v17.9c0,0.5-0.4,0.8-0.8,0.8h-28.8c-0.4,0-0.8-0.4-0.8-0.8v-17.9
		c0-0.5,0.3-0.8,0.8-0.8h28.8C461.8,137.9,462.1,138.3,462.1,138.7z"/>
	<path class="st0" d="M509.1,160.3c2,0,3.6-1.6,3.6-3.6v-17.9c0-2-1.6-3.6-3.6-3.6h-28.8c-2,0-3.6,1.6-3.6,3.6v17.9
		c0,2,1.7,3.6,3.6,3.6H509.1z M509.1,157.5h-28.8c-0.5,0-0.8-0.4-0.8-0.8v-17.9c0-0.4,0.4-0.8,0.8-0.8h28.8c0.5,0,0.8,0.3,0.8,0.8
		v17.9C509.9,157.1,509.5,157.5,509.1,157.5z"/>
	<path class="st0" d="M71.9,185.4v18c0,2,1.6,3.6,3.6,3.6h28.8c2,0,3.6-1.6,3.6-3.6v-18c0-2-1.6-3.6-3.6-3.6H75.5
		C73.5,181.8,71.9,183.5,71.9,185.4z M75.5,184.6h28.8c0.5,0,0.8,0.3,0.8,0.8v18c0,0.5-0.3,0.8-0.8,0.8H75.5c-0.5,0-0.8-0.3-0.8-0.8
		v-18C74.7,185,75.1,184.6,75.5,184.6z"/>
	<path class="st0" d="M119.7,185.4v18c0,2,1.6,3.6,3.6,3.6h28.8c2,0,3.6-1.6,3.6-3.6v-18c0-2-1.6-3.6-3.6-3.6h-28.8
		C121.3,181.8,119.7,183.5,119.7,185.4z M122.5,203.4v-18c0-0.4,0.4-0.8,0.8-0.8h28.8c0.5,0,0.8,0.3,0.8,0.8v18
		c0,0.5-0.3,0.8-0.8,0.8h-28.8C122.8,204.2,122.5,203.9,122.5,203.4z"/>
	<path class="st0" d="M167.5,185.4v18c0,2,1.6,3.6,3.6,3.6h28.8c2,0,3.6-1.6,3.6-3.6v-18c0-2-1.6-3.6-3.6-3.6h-28.8
		C169.1,181.8,167.5,183.5,167.5,185.4z M170.3,203.4v-18c0-0.4,0.4-0.8,0.8-0.8h28.8c0.5,0,0.8,0.3,0.8,0.8v18
		c0,0.5-0.3,0.8-0.8,0.8h-28.8C170.6,204.2,170.3,203.9,170.3,203.4z"/>
	<path class="st0" d="M215.2,185.4v18c0,2,1.6,3.6,3.6,3.6h28.8c2,0,3.6-1.6,3.6-3.6v-18c0-2-1.6-3.6-3.6-3.6h-28.8
		C216.9,181.8,215.2,183.5,215.2,185.4z M248.5,203.4c0,0.4-0.4,0.8-0.8,0.8h-28.8c-0.5,0-0.8-0.3-0.8-0.8v-18
		c0-0.5,0.3-0.8,0.8-0.8h28.8c0.5,0,0.8,0.4,0.8,0.8V203.4z"/>
	<path class="st0" d="M263,185.4v18c0,2,1.6,3.6,3.6,3.6h28.8c2,0,3.6-1.6,3.6-3.6v-18c0-2-1.6-3.6-3.6-3.6h-28.8
		C264.6,181.8,263,183.5,263,185.4z M266.6,184.6h28.8c0.5,0,0.8,0.4,0.8,0.8v18c0,0.4-0.4,0.8-0.8,0.8h-28.8
		c-0.5,0-0.8-0.3-0.8-0.8v-18C265.8,185,266.2,184.6,266.6,184.6z"/>
	<path class="st0" d="M310.8,185.4v18c0,2,1.6,3.6,3.6,3.6h28.8c2,0,3.6-1.6,3.6-3.6v-18c0-2-1.6-3.6-3.6-3.6h-28.8
		C312.4,181.8,310.8,183.5,310.8,185.4z M313.6,203.4v-18c0-0.5,0.3-0.8,0.8-0.8h28.8c0.5,0,0.8,0.4,0.8,0.8v18
		c0,0.4-0.4,0.8-0.8,0.8h-28.8C314,204.2,313.6,203.9,313.6,203.4z"/>
	<path class="st0" d="M358.6,185.4v18c0,2,1.6,3.6,3.6,3.6H391c2,0,3.6-1.6,3.6-3.6v-18c0-2-1.6-3.6-3.6-3.6h-28.8
		C360.2,181.8,358.6,183.5,358.6,185.4z M361.4,203.4v-18c0-0.5,0.3-0.8,0.8-0.8H391c0.5,0,0.8,0.3,0.8,0.8v18
		c0,0.5-0.3,0.8-0.8,0.8h-28.8C361.8,204.2,361.4,203.9,361.4,203.4z"/>
	<path class="st0" d="M406.4,185.4v18c0,2,1.6,3.6,3.6,3.6h28.8c2,0,3.6-1.6,3.6-3.6v-18c0-2-1.6-3.6-3.6-3.6H410
		C408,181.8,406.4,183.5,406.4,185.4z M409.2,203.4v-18c0-0.5,0.3-0.8,0.8-0.8h28.8c0.5,0,0.8,0.3,0.8,0.8v18c0,0.5-0.3,0.8-0.8,0.8
		H410C409.5,204.2,409.2,203.9,409.2,203.4z"/>
	<path class="st0" d="M454.1,185.4v18c0,2,1.6,3.6,3.6,3.6h28.8c2,0,3.6-1.6,3.6-3.6v-18c0-2-1.6-3.6-3.6-3.6h-28.8
		C455.8,181.8,454.1,183.5,454.1,185.4z M457.8,184.6h28.8c0.5,0,0.8,0.3,0.8,0.8v18c0,0.5-0.3,0.8-0.8,0.8h-28.8
		c-0.5,0-0.8-0.4-0.8-0.8v-18C456.9,185,457.3,184.6,457.8,184.6z"/>
	<path class="st0" d="M534.3,181.8h-28.8c-2,0-3.6,1.6-3.6,3.6v18c0,2,1.6,3.6,3.6,3.6h28.8c2,0,3.6-1.6,3.6-3.6v-18
		C538,183.5,536.3,181.8,534.3,181.8z M535.1,185.4v18c0,0.5-0.3,0.8-0.8,0.8h-28.8c-0.5,0-0.8-0.4-0.8-0.8v-18
		c0-0.2,0.1-0.4,0.2-0.6c0.2-0.2,0.4-0.2,0.6-0.2h28.8C534.8,184.6,535.1,185,535.1,185.4z"/>
	<path class="st0" d="M116.5,228.6H87.7c-2,0-3.6,1.7-3.6,3.6v17.9c0,2,1.6,3.6,3.6,3.6h28.8c2,0,3.6-1.6,3.6-3.6v-17.9
		C120.1,230.2,118.5,228.6,116.5,228.6z M117.3,232.2v17.9c0,0.5-0.3,0.8-0.8,0.8H87.7c-0.5,0-0.8-0.4-0.8-0.8v-17.9
		c0-0.5,0.4-0.8,0.8-0.8h28.8C116.9,231.4,117.3,231.7,117.3,232.2z"/>
	<path class="st0" d="M164.3,228.6h-28.8c-2,0-3.6,1.6-3.6,3.6v17.9c0,2,1.6,3.6,3.6,3.6h28.8c2,0,3.6-1.6,3.6-3.6v-17.9
		C167.9,230.2,166.2,228.6,164.3,228.6z M165.1,232.2v17.9c0,0.4-0.4,0.8-0.8,0.8h-28.8c-0.5,0-0.8-0.3-0.8-0.8v-17.9
		c0-0.5,0.4-0.8,0.8-0.8h28.8C164.7,231.4,165.1,231.7,165.1,232.2z"/>
	<path class="st0" d="M212,228.6h-28.8c-2,0-3.6,1.6-3.6,3.6v17.9c0,2,1.6,3.6,3.6,3.6H212c2,0,3.6-1.6,3.6-3.6v-17.9
		C215.7,230.2,214,228.6,212,228.6z M212.9,232.2v17.9c0,0.4-0.4,0.8-0.8,0.8h-28.8c-0.5,0-0.8-0.3-0.8-0.8v-17.9
		c0-0.5,0.4-0.8,0.8-0.8H212C212.5,231.4,212.9,231.7,212.9,232.2z"/>
	<path class="st0" d="M259.8,228.6H231c-2,0-3.6,1.6-3.6,3.6v17.9c0,2,1.6,3.6,3.6,3.6h28.8c2,0,3.6-1.6,3.6-3.6v-17.9
		C263.5,230.2,261.8,228.6,259.8,228.6z M260.7,232.2v17.9c0,0.4-0.4,0.8-0.8,0.8H231c-0.5,0-0.8-0.3-0.8-0.8v-17.9
		c0-0.5,0.4-0.8,0.8-0.8h28.8C260.3,231.4,260.7,231.7,260.7,232.2z"/>
	<path class="st0" d="M307.6,228.6h-28.8c-2,0-3.6,1.6-3.6,3.6v17.9c0,2,1.6,3.6,3.6,3.6h28.8c2,0,3.6-1.6,3.6-3.6v-17.9
		C311.2,230.2,309.6,228.6,307.6,228.6z M278,232.2c0-0.2,0.1-0.4,0.2-0.6c0.1-0.1,0.3-0.2,0.6-0.2h28.8c0.4,0,0.8,0.4,0.8,0.8v17.9
		c0,0.5-0.3,0.8-0.8,0.8h-28.8c-0.5,0-0.8-0.3-0.8-0.8V232.2z"/>
	<path class="st0" d="M355.4,228.6h-28.8c-2,0-3.6,1.6-3.6,3.6v17.9c0,2,1.6,3.6,3.6,3.6h28.8c2,0,3.6-1.6,3.6-3.6v-17.9
		C359,230.2,357.4,228.6,355.4,228.6z M356.2,232.2v17.9c0,0.5-0.3,0.8-0.8,0.8h-28.8c-0.5,0-0.8-0.3-0.8-0.8v-17.9
		c0-0.5,0.4-0.8,0.8-0.8h28.8C355.8,231.4,356.2,231.7,356.2,232.2z"/>
	<path class="st0" d="M403.2,228.6h-28.8c-2,0-3.6,1.7-3.6,3.6v17.9c0,2,1.6,3.6,3.6,3.6h28.8c2,0,3.6-1.6,3.6-3.6v-17.9
		C406.8,230.2,405.2,228.6,403.2,228.6z M404,232.2v17.9c0,0.5-0.3,0.8-0.8,0.8h-28.8c-0.5,0-0.8-0.4-0.8-0.8v-17.9
		c0-0.5,0.4-0.8,0.8-0.8h28.8C403.6,231.4,404,231.7,404,232.2z"/>
	<path class="st0" d="M451,228.6h-28.8c-2,0-3.6,1.7-3.6,3.6v17.9c0,2,1.6,3.6,3.6,3.6H451c2,0,3.6-1.6,3.6-3.6v-17.9
		C454.6,230.2,453,228.6,451,228.6z M451.8,232.2v17.9c0,0.5-0.3,0.8-0.8,0.8h-28.8c-0.5,0-0.8-0.4-0.8-0.8v-17.9
		c0-0.5,0.4-0.8,0.8-0.8H451C451.4,231.4,451.8,231.7,451.8,232.2z"/>
	<path class="st0" d="M498.7,228.6h-28.8c-2,0-3.6,1.6-3.6,3.6v17.9c0,2,1.6,3.6,3.6,3.6h28.8c2,0,3.6-1.6,3.6-3.6v-17.9
		C502.4,230.2,500.7,228.6,498.7,228.6z M499.6,232.2v17.9c0,0.4-0.4,0.8-0.8,0.8h-28.8c-0.5,0-0.8-0.3-0.8-0.8v-17.9
		c0-0.5,0.4-0.8,0.8-0.8h28.8C499.2,231.4,499.6,231.7,499.6,232.2z"/>
	<path class="st0" d="M139,275.3h-28.8c-2,0-3.6,1.6-3.6,3.6v17.9c0,2,1.7,3.6,3.6,3.6H139c2,0,3.6-1.6,3.6-3.6v-17.9
		C142.6,276.9,141,275.3,139,275.3z M109.4,278.9c0-0.4,0.4-0.8,0.8-0.8H139c0.5,0,0.8,0.3,0.8,0.8v17.9c0,0.5-0.4,0.8-0.8,0.8
		h-28.8c-0.5,0-0.8-0.4-0.8-0.8V278.9z"/>
	<path class="st0" d="M88.1,275.3H50.9c-2,0-3.6,1.6-3.6,3.6v17.9c0,2,1.6,3.6,3.6,3.6h37.2c2,0,3.6-1.6,3.6-3.6v-17.9
		C91.7,276.9,90.1,275.3,88.1,275.3z M50.1,278.9c0-0.5,0.3-0.8,0.8-0.8h37.2c0.5,0,0.8,0.3,0.8,0.8v17.9c0,0.5-0.4,0.8-0.8,0.8
		H50.9c-0.4,0-0.8-0.4-0.8-0.8V278.9z"/>
	<path class="st0" d="M186.8,275.3H158c-2,0-3.6,1.6-3.6,3.6v17.9c0,2,1.7,3.6,3.6,3.6h28.8c2,0,3.6-1.6,3.6-3.6v-17.9
		C190.4,276.9,188.8,275.3,186.8,275.3z M187.6,278.9v17.9c0,0.5-0.4,0.8-0.8,0.8H158c-0.5,0-0.8-0.4-0.8-0.8v-17.9
		c0-0.4,0.4-0.8,0.8-0.8h28.8C187.3,278.1,187.6,278.4,187.6,278.9z"/>
	<path class="st0" d="M234.6,275.3h-28.8c-2,0-3.6,1.6-3.6,3.6v17.9c0,2,1.6,3.6,3.6,3.6h28.8c2,0,3.6-1.7,3.6-3.6v-17.9
		C238.2,276.9,236.6,275.3,234.6,275.3z M235.4,278.9v17.9c0,0.5-0.4,0.8-0.8,0.8h-28.8c-0.4,0-0.8-0.4-0.8-0.8v-17.9
		c0-0.5,0.3-0.8,0.8-0.8h28.8C235,278.1,235.4,278.4,235.4,278.9z"/>
	<path class="st0" d="M282.4,275.3h-28.8c-2,0-3.6,1.6-3.6,3.6v17.9c0,2,1.6,3.6,3.6,3.6h28.8c2,0,3.6-1.7,3.6-3.6v-17.9
		C286,276.9,284.4,275.3,282.4,275.3z M252.8,278.9c0-0.5,0.3-0.8,0.8-0.8h28.8c0.5,0,0.8,0.4,0.8,0.8v17.9c0,0.5-0.4,0.8-0.8,0.8
		h-28.8c-0.4,0-0.8-0.4-0.8-0.8V278.9z"/>
	<path class="st0" d="M330.1,275.3h-28.8c-2,0-3.6,1.6-3.6,3.6v17.9c0,2,1.6,3.6,3.6,3.6h28.8c2,0,3.6-1.6,3.6-3.6v-17.9
		C333.7,276.9,332.1,275.3,330.1,275.3z M300.6,278.9c0-0.5,0.3-0.8,0.8-0.8h28.8c0.5,0,0.8,0.3,0.8,0.8v17.9c0,0.5-0.4,0.8-0.8,0.8
		h-28.8c-0.4,0-0.8-0.4-0.8-0.8V278.9z"/>
	<path class="st0" d="M377.9,275.3h-28.8c-2,0-3.6,1.6-3.6,3.6v17.9c0,2,1.6,3.6,3.6,3.6h28.8c2,0,3.6-1.6,3.6-3.6v-17.9
		C381.5,276.9,379.9,275.3,377.9,275.3z M348.3,278.9c0-0.5,0.3-0.8,0.8-0.8h28.8c0.5,0,0.8,0.3,0.8,0.8v17.9c0,0.5-0.4,0.8-0.8,0.8
		h-28.8c-0.4,0-0.8-0.4-0.8-0.8V278.9z"/>
	<path class="st0" d="M425.7,275.3h-28.8c-2,0-3.6,1.6-3.6,3.6v17.9c0,2,1.6,3.6,3.6,3.6h28.8c2,0,3.6-1.6,3.6-3.6v-17.9
		C429.3,276.9,427.7,275.3,425.7,275.3z M396.1,278.9c0-0.5,0.3-0.8,0.8-0.8h28.8c0.5,0,0.8,0.3,0.8,0.8v17.9c0,0.5-0.4,0.8-0.8,0.8
		h-28.8c-0.4,0-0.8-0.4-0.8-0.8V278.9z"/>
	<path class="st0" d="M473.5,275.3h-28.8c-2,0-3.6,1.6-3.6,3.6v17.9c0,2,1.7,3.6,3.6,3.6h28.8c2,0,3.6-1.6,3.6-3.6v-17.9
		C477.1,276.9,475.5,275.3,473.5,275.3z M443.9,278.9c0-0.4,0.4-0.8,0.8-0.8h28.8c0.5,0,0.8,0.3,0.8,0.8v17.9c0,0.5-0.4,0.8-0.8,0.8
		h-28.8c-0.5,0-0.8-0.4-0.8-0.8V278.9z"/>
	<path class="st0" d="M572.7,218.6v-16.4l0.2-0.5l-0.2-0.1v-33.2l0.1-0.2l-0.1,0V13c0-1.5-0.3-2.7-0.9-3.6c-0.6-0.9-1.5-1.6-2.6-2
		c-1.8-0.7-4-0.7-6.3-0.7l-527.2,0l-0.8,0c-2.3,0-4.4,0-6.3,0.7c-1.1,0.4-2,1.1-2.6,2c-0.6,0.9-0.9,2.1-0.9,3.6v325
		c0,1.5,0.3,2.6,1,3.5c0.6,0.8,1.5,1.4,2.7,1.7c0.9,0.2,1.8,0.3,2.8,0.3c0.6,0,1.2,0,1.8,0c0.6,0,1.3,0,2,0h527c0.7,0,1.3,0,2,0
		c1.7,0.1,3.2,0.1,4.6-0.2c1.1-0.3,2.1-0.9,2.7-1.7c0.4-0.5,0.6-1.2,0.8-2.1h0.2V219.1l0.2-0.4L572.7,218.6z M28.1,334.8h541.9v3.3
		c0,0.9-0.1,1.5-0.4,1.9c-0.2,0.3-0.5,0.5-1.1,0.6c-0.9,0.2-2.3,0.2-3.9,0.2c-0.6,0-1.3,0-2,0h-527c-0.7,0-1.4,0-2,0
		c-1.6,0-3,0.1-3.9-0.2c-0.6-0.1-0.9-0.3-1.1-0.6c-0.3-0.4-0.4-1-0.4-1.9V334.8z M35.5,9.5L35.5,9.5l527,0c2.5,0,4.5,0,5.8,0.5
		c0.6,0.2,1,0.5,1.2,0.9c0.3,0.5,0.5,1.1,0.5,2v137.9l-33.2,77.7h-19c-2,0-3.6,1.6-3.6,3.6v17.9c0,2,1.6,3.6,3.6,3.6h8.2l-9.2,21.6
		h-23.1c-2,0-3.6,1.6-3.6,3.6v17.9c0,2,1.6,3.6,3.6,3.6H506L492.5,332H28.1V13c0-0.9,0.1-1.6,0.5-2c0.3-0.4,0.6-0.7,1.2-0.9
		C31,9.6,33,9.5,35.5,9.5z M544,279l-0.1,0.2l0.1,0v17.6c0,0.5-0.4,0.8-0.8,0.8h-49.6c-0.4,0-0.8-0.4-0.8-0.8v-17.9
		c0-0.5,0.3-0.8,0.8-0.8h49.6c0.5,0,0.8,0.3,0.8,0.8V279z M547.3,237.5l-0.2,0.4l0.2,0.1v12.1c0,0.4-0.4,0.8-0.8,0.8h-28.8
		c-0.5,0-0.8-0.3-0.8-0.8v-17.9c0-0.5,0.4-0.8,0.8-0.8h28.8c0.5,0,0.8,0.4,0.8,0.8V237.5z M531.2,275.3H527l9.2-21.6h4.2
		L531.2,275.3z M533.2,253.7l-9.2,21.6h-4.2l9.2-21.6H533.2z M516.3,300.5h4.2L507,332h-4.2L516.3,300.5z M523.5,300.5h4.2
		L514.2,332H510L523.5,300.5z M509,300.5h4.2L499.7,332h-4.2L509,300.5z M517.3,332l13.5-31.5h4.2L521.4,332H517.3z M534.2,275.3
		l9.2-21.6h3c0.4,0,0.8-0.1,1.2-0.2l-9.3,21.8H534.2z M569.9,201.5l-19.8,46.3v-9.8l19.8-46.2V201.5z M569.9,184.7L550,231.3
		c-0.4-1.4-1.6-2.5-3-2.7l23-53.7V184.7z M569.9,167.8l-26,60.8h-4.2l30.2-70.5V167.8z M524.5,332l13.5-31.5h5.3
		c2,0,3.6-1.6,3.6-3.6v-17.2l23.1-54V332H524.5z M569.9,218.5L545.4,276c-0.6-0.4-1.3-0.7-2.1-0.7h-1.8l28.5-66.6V218.5z"/>
	<path class="st0" d="M81.7,38.8H91v-0.1h8v-14h17.5v14.2h8.6V39h35.6h1.1h7.4v0h35.6v0.3h9.7v-0.1h8.4v-15h28v-8.6h-36.2l-0.1,0
		v-4.7h-10v4.7h-34.4v-4.4h-9.5v4.4h-34.2l-1.4,0v0.3H91.6l-0.5,0v-5h-9.9v5H46.6l-1.4,0v15.3h-0.1v7.7L81.7,38.8L81.7,38.8z
		 M211.8,18.5v18h-4.1v-18H211.8z M216.2,36.4v-18h32v3h-28v15H216.2z M158.6,21.9h-25.9v11H159v3.4h-31.1V18.4h30.7V21.9z
		 M163.6,36.2V14h3.9v22.2H163.6z M199.3,26.9V21h-27.3v-2.6h30.7v17.8h-30.6v-9.3H199.3z M170.3,23.8h26.3v0.3h-26.3V23.8z
		 M160.8,30h-25.3v-5.4h25.3V30z M96.3,21.9v14h-3.2l0-17.2h29.6v17.4h-3.3V21.9H96.3z M88.2,18.5V36h-4.1V18.5H88.2z M47.9,34h26.2
		V29H48V18.7h31.2v2.8h-28v4.8h27.7V36H47.9V34z"/>
	<path class="st0" d="M199.3,28.1h-23V35h23V28.1z M196.5,30.9v1.2h-17.4v-1.2H196.5z"/>
</g>
</svg>
