<?xml version="1.0" encoding="utf-8"?>
<!-- Generator: Adobe Illustrator 24.0.1, SVG Export Plug-In . SVG Version: 6.00 Build 0)  -->
<svg version="1.1"
	 id="Ebene_1" xmlns:cc="http://creativecommons.org/ns#" xmlns:dc="http://purl.org/dc/elements/1.1/" xmlns:inkscape="http://www.inkscape.org/namespaces/inkscape" xmlns:rdf="http://www.w3.org/1999/02/22-rdf-syntax-ns#" xmlns:sodipodi="http://sodipodi.sourceforge.net/DTD/sodipodi-0.dtd" xmlns:svg="http://www.w3.org/2000/svg"
	 xmlns="http://www.w3.org/2000/svg" xmlns:xlink="http://www.w3.org/1999/xlink" x="0px" y="0px" viewBox="0 0 566.9 120"
	 style="enable-background:new 0 0 566.9 120;" xml:space="preserve">
<sodipodi:namedview  bordercolor="#666666" borderopacity="1" gridtolerance="10" guidetolerance="10" id="namedview57" inkscape:current-layer="Ebene_1" inkscape:cx="198.51934" inkscape:cy="43.981998" inkscape:pageopacity="0" inkscape:pageshadow="2" inkscape:window-height="480" inkscape:window-width="640" inkscape:zoom="0.93662519" objecttolerance="10" pagecolor="#ffffff" showgrid="false">
	</sodipodi:namedview>
<g id="g3">
	<path id="path5" style="fill:#FFFFFF;stroke:#FFFFFF;" d="M0.6,68.4v-7.7h60.6v-8.8H0.6L0.2,28H69v7.7H8.4l0.4,8.4h60.6v24.3
		L0.6,68.4L0.6,68.4z"/>
	<path id="path7" style="fill:#FFFFFF;stroke:#FFFFFF;" d="M74.4,68.4V28.1h8.2v40.2L74.4,68.4L74.4,68.4z"/>
	<path id="path9" style="fill:#FFFFFF;stroke:#FFFFFF;" d="M87,68.4V28.1h68.8v40.2h-8.2V35.8H95.3v32.5L87,68.4L87,68.4L87,68.4z"
		/>
	<path id="path11" style="fill:#FFFFFF;stroke:#FFFFFF;" d="M160.2,68.4V28.1h68.9v7.7h-60.6v24.8h60.6v7.7L160.2,68.4L160.2,68.4z"
		/>
	<path id="path13" style="fill:#FFFFFF;stroke:#FFFFFF;" d="M234.6,68.4V16h8.2v52.3L234.6,68.4L234.6,68.4z"/>
	<path id="path15" style="fill:#FFFFFF;stroke:#FFFFFF;" d="M321,68.4V28.1h8.3v40.2L321,68.4L321,68.4z"/>
	<path id="path17" style="fill:#FFFFFF;stroke:#FFFFFF;" d="M334.3,68.4V28.1h68.8v7.7h-60.6v32.5L334.3,68.4L334.3,68.4L334.3,68.4
		z"/>
	<path id="path19" style="fill:#FFFFFF;stroke:#FFFFFF;" d="M247.2,28.1v7.7h60.6v8.8h-60.6v23.7h68.9V28.1H247.2z M307.8,60.6
		h-52.3v-8.8h52.3V60.6z"/>
	<path id="path21" style="fill:#FFFFFF;stroke:#FFFFFF;" d="M74.4,23.8V16h8.2v7.7L74.4,23.8L74.4,23.8z"/>
	<path id="path23" style="fill:#FFFFFF;stroke:#FFFFFF;" d="M321,23.8V16h8.3v7.7L321,23.8L321,23.8z"/>
	<g id="g25">
		<path id="path27" style="fill:#FFFFFF;stroke:#FFFFFF;" d="M0,96.2l9.7-11.6H0.8v-3.3H15v3.1L5.3,96h9.9v3.3H0V96.2L0,96.2z"/>
		<path id="path29" style="fill:#FFFFFF;stroke:#FFFFFF;" d="M22,89.9l-5.8-8.6h4.6l3.5,5.8l3.7-5.8h4.4l-5.8,8.6l6.3,9.4h-4.7
			l-3.9-6.2l-4,6.2h-4.5L22,89.9z"/>
		<path id="path31" style="fill:#FFFFFF;stroke:#FFFFFF;" d="M44.2,93.4c0,2.4,1.9,3.3,4,3.3c1.4,0,3.5-0.4,3.5-2.3s-2.7-2.3-5.4-3
			s-5.4-1.7-5.4-5.1c0-3.7,3.5-5.5,6.8-5.5c3.8,0,7.2,1.6,7.2,5.8h-3.8C51,84.5,49.4,84,47.5,84c-1.3,0-2.7,0.5-2.7,2
			c0,1.4,0.9,1.6,5.4,2.7c1.3,0.3,5.4,1.2,5.4,5.3c0,3.3-2.6,5.8-7.5,5.8c-4,0-7.7-2-7.7-6.4H44.2L44.2,93.4z"/>
		<path id="path33" style="fill:#FFFFFF;stroke:#FFFFFF;" d="M57.5,86.3h3.4V88H61c0.9-1.4,2.3-2,3.9-2c4.1,0,5.9,3.3,5.9,7
			c0,3.5-1.9,6.8-5.7,6.8c-1.6,0-3.1-0.7-3.9-2h-0.1v6.2h-3.6L57.5,86.3L57.5,86.3z M67.2,92.9c0-2.1-0.8-4.2-3.1-4.2
			c-2.4,0-3.1,2.1-3.1,4.2s0.8,4.1,3.1,4.1C66.5,97,67.2,95,67.2,92.9z"/>
		<path id="path35" style="fill:#FFFFFF;stroke:#FFFFFF;" d="M75.9,93.7C76,96,77.1,97,79.1,97c1.4,0,2.6-0.9,2.8-1.7h3.2
			c-1,3.1-3.2,4.4-6.1,4.4c-4.1,0-6.7-2.8-6.7-6.9c0-3.9,2.7-6.9,6.7-6.9c4.5,0,6.6,3.7,6.3,7.8L75.9,93.7L75.9,93.7z M81.8,91.4
			c-0.3-1.8-1.1-2.8-2.9-2.8c-2.3,0-2.9,1.8-3,2.8H81.8z"/>
		<path id="path37" style="fill:#FFFFFF;stroke:#FFFFFF;" d="M96.4,90.9c-0.2-1.5-1.2-2.3-2.7-2.3c-2.3,0-3.1,2.3-3.1,4.2
			c0,1.9,0.7,4.1,3,4.1c1.7,0,2.6-1.1,2.9-2.7h3.5c-0.5,3.5-2.9,5.4-6.3,5.4c-3.9,0-6.6-2.8-6.6-6.7c0-4.1,2.4-7.1,6.7-7.1
			c3.1,0,5.9,1.6,6.1,5L96.4,90.9L96.4,90.9z"/>
		<path id="path39" style="fill:#FFFFFF;stroke:#FFFFFF;" d="M106.6,86.3h2.6v2.4h-2.6v6.5c0,1.2,0.3,1.5,1.5,1.5
			c0.4,0,0.7,0,1.1-0.1v2.8c-0.6,0.1-1.4,0.1-2.1,0.1c-2.2,0-4.1-0.5-4.1-3.1v-7.7h-2.2v-2.4h2.2v-3.9h3.6V86.3L106.6,86.3z"/>
		<path id="path41" style="fill:#FFFFFF;stroke:#FFFFFF;" d="M110.9,86.3h3.4v2.4h0.1c0.7-1.6,2.4-2.8,4.2-2.8
			c0.3,0,0.6,0.1,0.8,0.1v3.3c-0.3-0.1-0.9-0.1-1.3-0.1c-2.6,0-3.5,1.9-3.5,4.2v5.9H111L110.9,86.3L110.9,86.3z"/>
		<path id="path43" style="fill:#FFFFFF;stroke:#FFFFFF;" d="M133,99.4h-3.4v-1.8h-0.1c-0.9,1.5-2.5,2.2-4,2.2
			c-3.8,0-4.8-2.1-4.8-5.4v-8h3.6v7.4c0,2.1,0.6,3.2,2.3,3.2c1.9,0,2.8-1.1,2.8-3.7v-6.9h3.6V99.4L133,99.4z"/>
		<path id="path45" style="fill:#FFFFFF;stroke:#FFFFFF;" d="M135.9,86.3h3.4v1.8h0.1c0.9-1.3,2.3-2.1,4-2.1c1.6,0,3.1,0.6,3.8,2.2
			c0.8-1.1,2.1-2.2,3.9-2.2c2.8,0,4.8,1.3,4.8,4.7v8.8h-3.6V92c0-1.7-0.1-3.2-2.2-3.2c-2,0-2.4,1.7-2.4,3.3v7.3H144V92
			c0-1.5,0.1-3.3-2.2-3.3c-0.7,0-2.4,0.5-2.4,3v7.6h-3.6L135.9,86.3L135.9,86.3z"/>
	</g>
	<g id="g47">
		<polygon id="polygon49" style="fill:#FFFFFF;stroke:#FFFFFF;" points="430,18.2 369.9,78.3 404.1,78.3 464.2,18.2 		"/>
		<polygon id="polygon51" style="fill:#FFFFFF;stroke:#FFFFFF;" points="464.2,18.2 404.1,78.3 438.3,78.3 498.5,18.2 		"/>
		<polygon id="polygon53" style="fill:#FFFFFF;stroke:#FFFFFF;" points="498.5,18.2 438.4,78.3 472.6,78.3 532.7,18.2 		"/>
		<polygon id="polygon55" style="fill:#FFFFFF;stroke:#FFFFFF;" points="532.7,18.2 472.6,78.3 506.8,78.3 566.9,18.2 		"/>
	</g>
</g>
</svg>
