<?xml version="1.0" encoding="utf-8"?>
<!-- Generator: Adobe Illustrator 24.0.1, SVG Export Plug-In . SVG Version: 6.00 Build 0)  -->
<svg version="1.1" id="레이어_1" xmlns="http://www.w3.org/2000/svg" xmlns:xlink="http://www.w3.org/1999/xlink" x="0px"
	 y="0px" viewBox="0 0 520 520" style="enable-background:new 0 0 520 520;" xml:space="preserve">
<path style="fill:#FFFFFF;" d="M346.2,246.7l-129.1-78.5c-11.6-6.5-26.2,1.8-26.2,15.5v152.7c0,13.5,14.5,21.9,26.2,15.5l129.1-74.1
	C358.2,270.9,358.2,253.5,346.2,246.7z"/>
<path style="fill:#FFFFFF;" d="M260,520c-69.5,0-134.8-27-183.9-76.1S0,329.5,0,260S27,125.2,76.1,76.1S190.5,0,260,0
	s134.8,27,183.9,76.1S520,190.5,520,260s-27,134.8-76.1,183.9S329.5,520,260,520z M260,24C129.9,24,24,129.9,24,260
	s105.9,236,236,236s236-105.9,236-236S390.1,24,260,24z"/>
</svg>
