<?xml version="1.0" encoding="utf-8"?>
<!-- Generator: Adobe Illustrator 24.0.1, SVG Export Plug-In . SVG Version: 6.00 Build 0)  -->
<svg version="1.1"
	 id="Layer_3" xmlns:cc="http://creativecommons.org/ns#" xmlns:dc="http://purl.org/dc/elements/1.1/" xmlns:rdf="http://www.w3.org/1999/02/22-rdf-syntax-ns#"
	 xmlns="http://www.w3.org/2000/svg" xmlns:xlink="http://www.w3.org/1999/xlink" x="0px" y="0px" viewBox="0 0 1047.9 152.8"
	 style="enable-background:new 0 0 1047.9 152.8;" xml:space="preserve">
<path style="fill:#F4F4F4;" d="M971.5,152.8H76.4C34.3,152.8,0,118.5,0,76.4S34.3,0,76.4,0h895.1c42.1,0,76.4,34.3,76.4,76.4
	S1013.6,152.8,971.5,152.8z M76.4,9.6c-36.9,0-66.8,30-66.8,66.8c0,36.9,30,66.8,66.8,66.8h895.1c36.9,0,66.8-30,66.8-66.8
	c0-36.9-30-66.8-66.8-66.8H76.4z"/>
<path style="fill:none;stroke:#F4F4F4;stroke-width:9.5568;stroke-miterlimit:10;" d="M923.9,38.6"/>
<path style="fill:#F4F4F4;" d="M923.9,111.9L923.9,111.9c-2.1-1.8-2.4-4.9-0.7-7l21-25.5c1.5-1.8,1.5-4.4,0.1-6.2L923,45.6
	c-1.7-2.2-1.3-5.3,0.9-7v0c2.2-1.7,5.3-1.3,7,0.9l26.2,33.8c1.4,1.8,1.4,4.4-0.1,6.2l-26.1,31.6C929.1,113.4,926,113.7,923.9,111.9z
	"/>
</svg>
